<svg width="56" height="56" viewBox="0 0 56 56" fill="none" xmlns="http://www.w3.org/2000/svg">
    <g clip-path="url(#clip0_1595_45293)">
        <path fill-rule="evenodd" clip-rule="evenodd" d="M23.3026 16.5499L22.9138 15.9494C22.5821 16.1641 22.4873 16.607 22.702 16.9387C22.9167 17.2703 23.3596 17.3652 23.6913 17.1505M23.6913 17.1505L23.6955 17.1478L23.7102 17.1383L23.7698 17.1003C23.8226 17.0667 23.9009 17.0173 24.0013 16.9549C24.2022 16.83 24.4913 16.6533 24.8416 16.4473C25.5441 16.0343 26.4854 15.5082 27.453 15.0468C28.4319 14.58 29.3915 14.2022 30.1425 14.056C30.5207 13.9823 30.7883 13.9795 30.9568 14.0149C31.0975 14.0446 31.1182 14.0859 31.1273 14.104L31.1281 14.1057C31.2292 14.3044 31.2354 14.5213 30.9759 14.8755C30.6934 15.2612 30.1634 15.6946 29.4057 16.1591C27.902 17.0809 25.7784 17.9638 23.8024 18.7788C23.4744 18.914 23.2951 19.2694 23.3811 19.6136C23.5162 20.1538 23.7951 21.974 24.0373 23.7132C24.1568 24.5707 24.2649 25.3903 24.3389 25.994C24.3512 26.0939 24.3625 26.1875 24.3727 26.274C24.1862 26.3118 23.989 26.3664 23.7983 26.4443C23.536 26.5515 23.2374 26.7225 23.0086 27.0015C22.7652 27.2983 22.6343 27.6778 22.6679 28.1142C22.696 28.4895 22.8999 30.1328 23.1302 31.9889C23.2642 33.0685 23.407 34.22 23.5295 35.2359C23.5767 35.6281 23.9331 35.9078 24.3253 35.8605C24.7176 35.8133 24.9973 35.4569 24.95 35.0647C24.821 33.9941 24.6725 32.7976 24.5356 31.6953C24.3124 29.8968 24.1203 28.3489 24.0946 28.0072L24.0945 28.005C24.0894 27.9398 24.1032 27.923 24.114 27.9099L24.115 27.9088C24.1408 27.8773 24.2057 27.8234 24.3395 27.7688C24.6149 27.6562 24.9722 27.6243 25.1483 27.6243C25.5712 27.6243 25.7547 27.2954 25.7857 27.2352C25.8337 27.1419 25.8493 27.0602 25.8538 27.0361C25.8653 26.9746 25.8665 26.9233 25.8669 26.9078C25.8679 26.8654 25.8659 26.8236 25.8642 26.7961C25.8606 26.7344 25.8535 26.6542 25.8445 26.5647C25.8262 26.3823 25.7966 26.1257 25.7591 25.8197C25.6838 25.2063 25.5746 24.3787 25.4544 23.5158C25.271 22.1989 25.0559 20.7549 24.8947 19.8757C26.7017 19.1274 28.6827 18.2806 30.1535 17.3789C30.958 16.8857 31.6804 16.335 32.1301 15.721C32.6028 15.0757 32.8209 14.2777 32.4033 13.4569C32.1527 12.9643 31.7111 12.7116 31.2517 12.6149C30.8155 12.523 30.3328 12.5612 29.869 12.6515C28.9359 12.8333 27.8445 13.275 26.8372 13.7553C25.8188 14.2409 24.8388 14.7892 24.1165 15.2139C23.7544 15.4267 23.4552 15.6097 23.246 15.7397C23.1413 15.8048 23.0591 15.8567 23.0026 15.8926L22.9376 15.934L22.9204 15.9451L22.9144 15.949C22.9144 15.949 22.9138 15.9494 23.3026 16.5499M14.2637 23.3841C14.699 22.7929 15.239 21.9628 15.7908 21.1146L14.2637 23.3841ZM15.7908 21.1146C16.1684 20.534 16.5516 19.945 16.9106 19.4182L15.7908 21.1146ZM16.9106 19.4182C17.3684 18.7463 17.7942 18.1626 18.1564 17.7524L16.9106 19.4182ZM18.1564 17.7524C18.3386 17.5461 18.4858 17.4055 18.5965 17.3219L18.1564 17.7524ZM18.5965 17.3219C18.6337 17.2939 18.6596 17.2776 18.6752 17.2688L18.5965 17.3219ZM18.6752 17.2688C19.0361 17.2323 19.3178 16.9276 19.3178 16.5571C19.3178 16.162 18.9975 15.8417 18.6024 15.8417C18.2373 15.8417 17.9322 16.0308 17.7346 16.1799C17.5147 16.3458 17.2951 16.5661 17.0839 16.8053C16.6595 17.286 16.1923 17.9314 15.7282 18.6125C15.3246 19.2048 14.9263 19.818 14.5463 20.4031C14.022 21.2103 13.5325 21.9641 13.1116 22.5357C12.7941 22.9668 12.5012 23.4895 12.4323 24.0386C12.3963 24.3247 12.4198 24.6313 12.5453 24.9296C12.6717 25.2299 12.8836 25.4788 13.1579 25.6743C13.4796 25.9037 13.9263 25.8288 14.1557 25.507C14.385 25.1853 14.3101 24.7386 13.9884 24.5092C13.9013 24.4472 13.8745 24.3992 13.8641 24.3745C13.8528 24.3477 13.8414 24.301 13.8519 24.2169C13.876 24.0256 14.0017 23.7398 14.2637 23.3841M18.0812 19.8784C18.4673 19.9619 18.7127 20.3427 18.6291 20.7289L17.4227 26.3063C17.7211 26.3965 17.9921 26.5299 18.2203 26.6907C18.605 26.9618 19.0653 27.4655 18.9912 28.1133L18.9906 28.1187C18.9553 28.4083 18.505 32.2606 18.1906 35.2327C18.1491 35.6256 17.7969 35.9104 17.404 35.8689C17.011 35.8273 16.7262 35.4751 16.7678 35.0822C17.0673 32.2502 17.4896 28.6238 17.5619 28.0156C17.537 27.98 17.4855 27.9232 17.3963 27.8604C17.1998 27.722 16.8997 27.61 16.5635 27.61C16.3472 27.61 16.1425 27.5121 16.0067 27.3438C15.8709 27.1755 15.8185 26.9547 15.8643 26.7433L17.2307 20.4264C17.3142 20.0402 17.695 19.7948 18.0812 19.8784Z" fill="#000091"/>
        <path fill-rule="evenodd" clip-rule="evenodd" d="M20.9487 10.469C19.6646 10.469 18.6237 11.5099 18.6237 12.794C18.6237 14.0781 19.6646 15.1191 20.9487 15.1191C22.2328 15.1191 23.2738 14.0781 23.2738 12.794C23.2738 11.5099 22.2328 10.469 20.9487 10.469ZM17.1929 12.794C17.1929 10.7197 18.8744 9.03818 20.9487 9.03818C23.023 9.03818 24.7046 10.7197 24.7046 12.794C24.7046 14.8683 23.023 16.5499 20.9487 16.5499C18.8744 16.5499 17.1929 14.8683 17.1929 12.794Z" fill="#E1000F"/>
        <path fill-rule="evenodd" clip-rule="evenodd" d="M40.8728 43.7071C40.8728 43.312 41.1931 42.9917 41.5882 42.9917C44.6077 42.9917 46.2703 43.9432 47.1547 45.0487C47.586 45.5878 47.8036 46.1296 47.9133 46.5408C47.9681 46.7465 47.9964 46.9211 48.011 47.0491C48.0184 47.1133 48.0223 47.1661 48.0244 47.2058C48.0255 47.2256 48.0261 47.2422 48.0264 47.2553L48.0268 47.2724L48.0268 47.2789L48.0268 47.2817L48.0268 47.2829C48.0268 47.2835 48.0268 47.2841 47.3114 47.2841H48.0268C48.0268 47.6792 47.7065 47.9995 47.3114 47.9995H35.8651C35.6753 47.9995 35.4934 47.9241 35.3592 47.7899C35.225 47.6558 35.1497 47.4738 35.1497 47.2841L35.8651 47.2841C35.1497 47.2841 35.1497 47.2837 35.1497 47.2834L35.1497 47.2827L35.1497 47.2813L35.1497 47.2781L35.1498 47.2705L35.1502 47.25C35.1507 47.2341 35.1515 47.2138 35.153 47.1894C35.156 47.1405 35.1615 47.075 35.1719 46.9955C35.1928 46.8368 35.2333 46.6205 35.3123 46.3692C35.4707 45.8654 35.7858 45.2172 36.4073 44.6214C36.6925 44.348 37.1454 44.3576 37.4188 44.6428C37.6922 44.928 37.6827 45.3809 37.3975 45.6543C37.0748 45.9636 36.8799 46.2887 36.7617 46.5687H46.4131C46.3303 46.3746 46.2107 46.159 46.0374 45.9425C45.491 45.2595 44.292 44.4225 41.5882 44.4225C41.1931 44.4225 40.8728 44.1022 40.8728 43.7071Z" fill="#000091"/>
        <path fill-rule="evenodd" clip-rule="evenodd" d="M27.3013 43.7071C27.3013 43.312 27.6216 42.9917 28.0167 42.9917C31.0362 42.9917 32.6987 43.9432 33.5831 45.0487C34.0144 45.5878 34.2321 46.1296 34.3417 46.5408C34.3966 46.7465 34.4249 46.9211 34.4395 47.0491C34.4468 47.1133 34.4508 47.1661 34.4529 47.2058C34.4539 47.2256 34.4546 47.2422 34.4549 47.2553L34.4552 47.2724L34.4553 47.2789L34.4553 47.2817L34.4553 47.2829C34.4553 47.2835 34.4553 47.2841 33.7399 47.2841L34.4553 47.2841C34.4553 47.6792 34.135 47.9995 33.7399 47.9995H22.2935C21.8984 47.9995 21.5781 47.6792 21.5781 47.2841L22.2935 47.2841C21.5781 47.2841 21.5781 47.2837 21.5781 47.2834L21.5781 47.2827L21.5781 47.2813L21.5781 47.2781L21.5782 47.2705L21.5787 47.25C21.5791 47.2341 21.58 47.2138 21.5815 47.1894C21.5844 47.1405 21.59 47.075 21.6004 46.9955C21.6212 46.8368 21.6617 46.6205 21.7408 46.3692C21.8992 45.8654 22.2143 45.2172 22.8358 44.6214C23.121 44.348 23.5739 44.3576 23.8473 44.6428C24.1207 44.928 24.1111 45.3809 23.8259 45.6543C23.5033 45.9636 23.3084 46.2887 23.1902 46.5687H32.8415C32.7588 46.3746 32.6391 46.159 32.4659 45.9425C31.9195 45.2595 30.7204 44.4225 28.0167 44.4225C27.6216 44.4225 27.3013 44.1022 27.3013 43.7071Z" fill="#000091"/>
        <path fill-rule="evenodd" clip-rule="evenodd" d="M13.6661 43.7071C13.6661 43.312 13.9864 42.9917 14.3815 42.9917C17.4009 42.9917 19.0635 43.9432 19.9479 45.0487C20.3792 45.5878 20.5968 46.1296 20.7065 46.5408C20.7613 46.7465 20.7896 46.9211 20.8042 47.0491C20.8116 47.1133 20.8155 47.1661 20.8176 47.2058C20.8187 47.2256 20.8193 47.2422 20.8196 47.2553L20.82 47.2724L20.82 47.2789L20.82 47.2817L20.82 47.2829C20.82 47.2835 20.82 47.2841 20.1046 47.2841H20.82C20.82 47.6792 20.4998 47.9995 20.1046 47.9995H8.65827C8.26317 47.9995 7.94287 47.6792 7.94287 47.2841H8.65827C7.94287 47.2841 7.94287 47.2837 7.94287 47.2834L7.94287 47.2827L7.94288 47.2813L7.94289 47.2781L7.94298 47.2705L7.94343 47.25C7.94389 47.2341 7.94473 47.2138 7.94621 47.1894C7.94917 47.1405 7.95473 47.075 7.96516 46.9955C7.98598 46.8368 8.02647 46.6205 8.1055 46.3692C8.26396 45.8654 8.57902 45.2172 9.20053 44.6214C9.48575 44.348 9.93862 44.3576 10.212 44.6428C10.4855 44.928 10.4759 45.3809 10.1907 45.6543C9.86803 45.9636 9.67316 46.2887 9.5549 46.5687H19.2063C19.1236 46.3746 19.0039 46.159 18.8306 45.9425C18.2842 45.2595 17.0852 44.4225 14.3815 44.4225C13.9864 44.4225 13.6661 44.1022 13.6661 43.7071Z" fill="#000091"/>
        <path fill-rule="evenodd" clip-rule="evenodd" d="M27.2872 20.8227C27.6823 20.8227 28.0026 21.143 28.0026 21.5381V22.275H39.4418C39.8369 22.275 40.1572 22.5952 40.1572 22.9904C40.1572 23.3855 39.8369 23.7058 39.4418 23.7058H27.2872C26.8921 23.7058 26.5718 23.3855 26.5718 22.9904V21.5381C26.5718 21.143 26.8921 20.8227 27.2872 20.8227Z" fill="#000091"/>
        <path fill-rule="evenodd" clip-rule="evenodd" d="M26.5718 8.68885C26.5718 8.29374 26.8921 7.97345 27.2872 7.97345H47.3112C47.7063 7.97345 48.0266 8.29374 48.0266 8.68885V22.9897C48.0266 23.3848 47.7063 23.7051 47.3112 23.7051H45.165C44.7699 23.7051 44.4496 23.3848 44.4496 22.9897C44.4496 22.5946 44.7699 22.2743 45.165 22.2743H46.5958V9.40425H28.0026V10.8279C28.0026 11.223 27.6823 11.5433 27.2872 11.5433C26.8921 11.5433 26.5718 11.223 26.5718 10.8279V8.68885Z" fill="#000091"/>
        <path fill-rule="evenodd" clip-rule="evenodd" d="M13.6662 37.6541C13.6662 37.259 13.9865 36.9387 14.3816 36.9387C16.4579 36.9387 18.1374 38.6183 18.1374 40.6946C18.1374 42.7709 16.4579 44.4504 14.3816 44.4504C12.3053 44.4504 10.6257 42.7709 10.6257 40.6946C10.6257 40.2995 10.946 39.9792 11.3411 39.9792C11.7362 39.9792 12.0565 40.2995 12.0565 40.6946C12.0565 41.9806 13.0955 43.0196 14.3816 43.0196C15.6677 43.0196 16.7066 41.9806 16.7066 40.6946C16.7066 39.4085 15.6677 38.3695 14.3816 38.3695C13.9865 38.3695 13.6662 38.0492 13.6662 37.6541Z" fill="#E1000F"/>
        <path fill-rule="evenodd" clip-rule="evenodd" d="M28.0166 38.3695C26.7325 38.3695 25.6915 39.4105 25.6915 40.6946C25.6915 41.9787 26.7325 43.0196 28.0166 43.0196C29.3007 43.0196 30.3416 41.9787 30.3416 40.6946C30.3416 39.4105 29.3007 38.3695 28.0166 38.3695ZM24.2607 40.6946C24.2607 38.6203 25.9423 36.9387 28.0166 36.9387C30.0909 36.9387 31.7724 38.6203 31.7724 40.6946C31.7724 42.7689 30.0909 44.4504 28.0166 44.4504C25.9423 44.4504 24.2607 42.7689 24.2607 40.6946Z" fill="#E1000F"/>
        <path fill-rule="evenodd" clip-rule="evenodd" d="M41.5884 38.3695C40.3023 38.3695 39.2633 39.4085 39.2633 40.6946C39.2633 41.9806 40.3023 43.0196 41.5884 43.0196C42.8744 43.0196 43.9134 41.9806 43.9134 40.6946C43.9134 40.2995 44.2337 39.9792 44.6288 39.9792C45.0239 39.9792 45.3442 40.2995 45.3442 40.6946C45.3442 42.7709 43.6647 44.4504 41.5884 44.4504C39.5121 44.4504 37.8325 42.7709 37.8325 40.6946C37.8325 38.6183 39.5121 36.9387 41.5884 36.9387C41.9835 36.9387 42.3038 37.259 42.3038 37.6541C42.3038 38.0492 41.9835 38.3695 41.5884 38.3695Z" fill="#E1000F"/>
    </g>
    <defs>
        <clipPath id="clip0_1595_45293">
            <rect width="56" height="56" fill="white"/>
        </clipPath>
    </defs>
</svg>
