<svg width="56" height="56" viewBox="0 0 56 56" fill="none" xmlns="http://www.w3.org/2000/svg">
    <path fill-rule="evenodd" clip-rule="evenodd" d="M12.8174 10.6231C10.6069 10.6231 8.81609 12.414 8.81609 14.6245C8.81609 16.835 10.6069 18.6258 12.8174 18.6258C14.0945 18.6258 15.226 18.0285 15.9609 17.0999C16.2346 16.754 16.7369 16.6955 17.0828 16.9692C17.4287 17.243 17.4872 17.7453 17.2134 18.0911C16.1912 19.3829 14.6072 20.2231 12.8174 20.2231C9.72475 20.2231 7.21875 17.7171 7.21875 14.6245C7.21875 11.5318 9.72475 9.02579 12.8174 9.02579C15.9101 9.02579 18.4161 11.5318 18.4161 14.6245C18.4161 15.0656 18.0585 15.4231 17.6174 15.4231C17.1763 15.4231 16.8188 15.0656 16.8188 14.6245C16.8188 12.414 15.0279 10.6231 12.8174 10.6231Z" fill="#E1000F"/>
    <path fill-rule="evenodd" clip-rule="evenodd" d="M43.1753 10.6231C40.9648 10.6231 39.174 12.414 39.174 14.6245C39.174 15.0656 38.8164 15.4231 38.3753 15.4231C37.9342 15.4231 37.5767 15.0656 37.5767 14.6245C37.5767 11.5318 40.0827 9.02579 43.1753 9.02579C46.268 9.02579 48.774 11.5318 48.774 14.6245C48.774 17.7171 46.268 20.2231 43.1753 20.2231C41.377 20.2231 39.7739 19.3741 38.7503 18.0527C38.4801 17.704 38.5438 17.2023 38.8925 16.9322C39.2413 16.6621 39.7429 16.7258 40.013 17.0745C40.7465 18.0213 41.8908 18.6258 43.1753 18.6258C45.3858 18.6258 47.1767 16.835 47.1767 14.6245C47.1767 12.414 45.3858 10.6231 43.1753 10.6231Z" fill="#E1000F"/>
    <path fill-rule="evenodd" clip-rule="evenodd" d="M19.2151 27.4202C19.2151 26.9791 19.5727 26.6215 20.0138 26.6215H35.9872C36.4283 26.6215 36.7858 26.9791 36.7858 27.4202C36.7858 27.8613 36.4283 28.2188 35.9872 28.2188H20.0138C19.5727 28.2188 19.2151 27.8613 19.2151 27.4202Z" fill="#000091"/>
    <path fill-rule="evenodd" clip-rule="evenodd" d="M28.0006 29.7819C28.4417 29.7819 28.7992 30.1394 28.7992 30.5805V48.1992C28.7992 48.6403 28.4417 48.9979 28.0006 48.9979C27.5595 48.9979 27.2019 48.6403 27.2019 48.1992V30.5805C27.2019 30.1394 27.5595 29.7819 28.0006 29.7819Z" fill="#000091"/>
    <path fill-rule="evenodd" clip-rule="evenodd" d="M5.64551 26.6135C5.64551 23.9681 7.78412 21.8295 10.4295 21.8295C13.075 21.8295 15.2136 23.9681 15.2136 26.6135V31.3895H19.2628C21.437 31.3895 23.2003 33.1528 23.2003 35.327V35.3414C23.2055 35.3784 23.2083 35.4163 23.2083 35.4548C23.2083 35.5748 23.2102 35.8691 23.2122 36.1706L23.2122 36.1733C23.2142 36.4719 23.2162 36.7771 23.2162 36.9084V45.0308C23.2162 47.205 21.453 48.9683 19.2788 48.9683H19.167C16.9928 48.9683 15.2295 47.205 15.2295 45.0308V39.3922H9.58295C7.40874 39.3922 5.64551 37.629 5.64551 35.4548V26.6135ZM21.6112 35.5703C21.6058 35.5326 21.6029 35.494 21.6029 35.4548V35.327C21.6029 34.035 20.5549 32.9869 19.2628 32.9869H14.4149C13.9738 32.9869 13.6162 32.6293 13.6162 32.1882V26.6135C13.6162 24.8503 12.1928 23.4268 10.4295 23.4268C8.66631 23.4268 7.24285 24.8503 7.24285 26.6135V35.4548C7.24285 36.7468 8.29093 37.7949 9.58295 37.7949H16.0282C16.4693 37.7949 16.8269 38.1525 16.8269 38.5935V45.0308C16.8269 46.3229 17.875 47.3709 19.167 47.3709H19.2788C20.5708 47.3709 21.6189 46.3229 21.6189 45.0308V36.9084C21.6189 36.784 21.6169 36.4862 21.6149 36.1839L21.6148 36.1711C21.6134 35.9464 21.6119 35.7204 21.6112 35.5703Z" fill="#000091"/>
    <path fill-rule="evenodd" clip-rule="evenodd" d="M45.5792 23.4174C43.816 23.4174 42.3925 24.8409 42.3925 26.6041V32.1868C42.3925 32.6279 42.0349 32.9855 41.5938 32.9855H36.7459C35.4539 32.9855 34.4058 34.0336 34.4058 35.3256V35.4534C34.4058 35.4923 34.403 35.5308 34.3975 35.5686C34.3968 35.7189 34.3953 35.9412 34.3939 36.1624L34.3938 36.1745C34.3918 36.4769 34.3898 36.7746 34.3898 36.899V45.0215C34.3898 46.3135 35.4379 47.3616 36.7299 47.3616H36.8417C38.1338 47.3616 39.1818 46.3135 39.1818 45.0215V38.5842C39.1818 38.1431 39.5394 37.7855 39.9805 37.7855H46.4258C47.7178 37.7855 48.7659 36.7374 48.7659 35.4454V26.6041C48.7659 24.8409 47.3424 23.4174 45.5792 23.4174ZM32.8085 35.3325V35.3256C32.8085 33.1514 34.5717 31.3882 36.7459 31.3882H40.7952V26.6041C40.7952 23.9587 42.9338 21.8201 45.5792 21.8201C48.2246 21.8201 50.3632 23.9587 50.3632 26.6041V35.4454C50.3632 37.6196 48.6 39.3829 46.4258 39.3829H40.7792V45.0215C40.7792 47.1957 39.0159 48.9589 36.8417 48.9589H36.7299C34.5557 48.9589 32.7925 47.1957 32.7925 45.0215V36.899C32.7925 36.7678 32.7945 36.4625 32.7965 36.1639L32.7965 36.1623C32.7985 35.8604 32.8005 35.5656 32.8005 35.4454C32.8005 35.4073 32.8032 35.3696 32.8085 35.3325Z" fill="#000091"/>
</svg>
