<svg width="56" height="56" viewBox="0 0 56 56" fill="none" xmlns="http://www.w3.org/2000/svg">
    <g clip-path="url(#clip0_8106_43079)">
        <path fill-rule="evenodd" clip-rule="evenodd" d="M8.08228 10.1C8.08228 9.75483 8.3621 9.47501 8.70728 9.47501H31.5644C31.9096 9.47501 32.1894 9.75483 32.1894 10.1V43.0072C32.1894 43.3523 31.9096 43.6322 31.5644 43.6322H8.70728C8.3621 43.6322 8.08228 43.3523 8.08228 43.0072V10.1ZM9.33228 10.725V42.3822H30.9394V10.725H9.33228Z" fill="#000091"/>
        <path fill-rule="evenodd" clip-rule="evenodd" d="M35.8644 38.075C36.2096 38.075 36.4894 38.3548 36.4894 38.7V47.2857C36.4894 47.6309 36.2096 47.9107 35.8644 47.9107H27.293C26.9478 47.9107 26.668 47.6309 26.668 47.2857C26.668 46.9405 26.9478 46.6607 27.293 46.6607H35.2394V38.7C35.2394 38.3548 35.5192 38.075 35.8644 38.075Z" fill="#000091"/>
        <path fill-rule="evenodd" clip-rule="evenodd" d="M12.3752 14.4357C12.3752 14.0906 12.6551 13.8107 13.0002 13.8107H27.286C27.6311 13.8107 27.911 14.0906 27.911 14.4357C27.911 14.7809 27.6311 15.0607 27.286 15.0607H13.0002C12.6551 15.0607 12.3752 14.7809 12.3752 14.4357ZM12.3752 17.2929C12.3752 16.9477 12.6551 16.6679 13.0002 16.6679H25.1431C25.4883 16.6679 25.7681 16.9477 25.7681 17.2929C25.7681 17.6381 25.4883 17.9179 25.1431 17.9179H13.0002C12.6551 17.9179 12.3752 17.6381 12.3752 17.2929ZM12.3752 20.1429C12.3752 19.7977 12.6551 19.5179 13.0002 19.5179H23.186C23.5311 19.5179 23.811 19.7977 23.811 20.1429C23.811 20.4881 23.5311 20.7679 23.186 20.7679H13.0002C12.6551 20.7679 12.3752 20.4881 12.3752 20.1429Z" fill="#E1000F"/>
        <path fill-rule="evenodd" clip-rule="evenodd" d="M12.3679 25.8571C12.3679 25.512 12.6477 25.2321 12.9929 25.2321H27.1001C27.4452 25.2321 27.7251 25.512 27.7251 25.8571C27.7251 26.2023 27.4452 26.4821 27.1001 26.4821H12.9929C12.6477 26.4821 12.3679 26.2023 12.3679 25.8571Z" fill="#000091"/>
        <path fill-rule="evenodd" clip-rule="evenodd" d="M36.6609 28.7214C36.6609 28.3763 36.9407 28.0964 37.2859 28.0964H41.6002C41.9454 28.0964 42.2252 28.3763 42.2252 28.7214C42.2252 29.0666 41.9454 29.3464 41.6002 29.3464H37.2859C36.9407 29.3464 36.6609 29.0666 36.6609 28.7214Z" fill="#000091"/>
        <path fill-rule="evenodd" clip-rule="evenodd" d="M12.3679 31.5857C12.3679 31.2405 12.6477 30.9607 12.9929 30.9607H25.5429C25.8881 30.9607 26.1679 31.2405 26.1679 31.5857C26.1679 31.9309 25.8881 32.2107 25.5429 32.2107H12.9929C12.6477 32.2107 12.3679 31.9309 12.3679 31.5857Z" fill="#000091"/>
        <path fill-rule="evenodd" clip-rule="evenodd" d="M12.3679 37.2857C12.3679 36.9405 12.6477 36.6607 12.9929 36.6607H22.4072C22.7524 36.6607 23.0322 36.9405 23.0322 37.2857C23.0322 37.6309 22.7524 37.9107 22.4072 37.9107H12.9929C12.6477 37.9107 12.3679 37.6309 12.3679 37.2857Z" fill="#000091"/>
        <path fill-rule="evenodd" clip-rule="evenodd" d="M33.8037 18.7286C33.8037 18.3834 34.0835 18.1036 34.4287 18.1036H47.2787C47.6239 18.1036 47.9037 18.3834 47.9037 18.7286V33.0071C47.9037 33.3523 47.6239 33.6321 47.2787 33.6321H34.4287C34.0835 33.6321 33.8037 33.3523 33.8037 33.0071V18.7286ZM35.0537 19.3536V32.3821H46.6537V19.3536H35.0537Z" fill="#000091"/>
        <path fill-rule="evenodd" clip-rule="evenodd" d="M44.05 17.0333C43.9083 16.6084 43.4535 16.3815 43.0334 16.5215L34.6261 19.3215C34.2986 19.4306 33.9447 19.2535 33.8357 18.9261C33.7266 18.5986 33.9037 18.2447 34.2311 18.1356L42.6381 15.3356C42.6381 15.3357 42.6382 15.3356 42.6381 15.3356C43.7178 14.9759 44.877 15.5629 45.2356 16.6374L45.8713 18.5374C45.9809 18.8647 45.8043 19.2189 45.4769 19.3284C45.1496 19.4379 44.7955 19.2614 44.6859 18.934L44.05 17.0333Z" fill="#000091"/>
        <path fill-rule="evenodd" clip-rule="evenodd" d="M36.6609 23.0071C36.6609 22.662 36.9407 22.3821 37.2859 22.3821H42.9787C43.3239 22.3821 43.6037 22.662 43.6037 23.0071C43.6037 23.3523 43.3239 23.6321 42.9787 23.6321H37.2859C36.9407 23.6321 36.6609 23.3523 36.6609 23.0071Z" fill="#E1000F"/>
        <path fill-rule="evenodd" clip-rule="evenodd" d="M44.4286 28.625C44.3793 28.625 44.3394 28.665 44.3394 28.7143C44.3394 28.7636 44.3793 28.8036 44.4286 28.8036C44.478 28.8036 44.5179 28.7636 44.5179 28.7143C44.5179 28.665 44.478 28.625 44.4286 28.625ZM43.0894 28.7143C43.0894 27.9746 43.689 27.375 44.4286 27.375C45.1683 27.375 45.7679 27.9746 45.7679 28.7143C45.7679 29.454 45.1683 30.0536 44.4286 30.0536C43.689 30.0536 43.0894 29.454 43.0894 28.7143Z" fill="#000091"/>
    </g>
    <defs>
        <clipPath id="clip0_8106_43079">
            <rect width="56" height="56" fill="white"/>
        </clipPath>
    </defs>
</svg>
