<svg width="57" height="56" viewBox="0 0 57 56" fill="none" xmlns="http://www.w3.org/2000/svg">
    <g clip-path="url(#clip0_22503_63108)">
        <path fill-rule="evenodd" clip-rule="evenodd" d="M43.5441 34.3208L43.5143 34.2029C43.4739 34.0436 43.4035 33.966 43.3404 33.9203C43.266 33.8665 43.1585 33.8284 43.0332 33.8284C42.9078 33.8284 42.8003 33.8665 42.7259 33.9203C42.6628 33.966 42.5924 34.0436 42.552 34.2029L42.5222 34.3208C41.735 37.4292 39.2604 39.8269 36.1286 40.5155C35.973 40.5497 35.9037 40.6139 35.8647 40.6663C35.8163 40.7314 35.7792 40.8306 35.7792 40.95C35.7792 41.0695 35.8163 41.1686 35.8647 41.2338C35.9037 41.2862 35.973 41.3504 36.1286 41.3846C39.2604 42.0732 41.735 44.4709 42.5222 47.5793L42.552 47.6972C42.5924 47.8565 42.6628 47.9341 42.7259 47.9797C42.8003 48.0336 42.9078 48.0717 43.0332 48.0717C43.1585 48.0717 43.266 48.0336 43.3404 47.9797C43.4035 47.9341 43.4739 47.8565 43.5143 47.6972L43.5441 47.5793C44.3313 44.4709 46.8059 42.0732 49.9377 41.3846C50.0933 41.3504 50.1626 41.2862 50.2016 41.2338C50.2501 41.1686 50.2871 41.0695 50.2871 40.95C50.2871 40.8306 50.2501 40.7315 50.2016 40.6663C50.1626 40.6139 50.0933 40.5497 49.9377 40.5155C46.8059 39.8269 44.3313 37.4292 43.5441 34.3208ZM22.0749 17.1889L21.6457 15.3703C21.3064 13.9323 19.2599 13.9324 18.9206 15.3703L18.4915 17.1889C17.3952 21.8347 13.7678 25.4621 9.122 26.5583L7.30343 26.9875C5.86545 27.3268 5.86547 29.3733 7.30342 29.7126L9.12199 30.1418C13.7678 31.238 17.3952 34.8654 18.4914 39.5112L18.9206 41.3298C19.2599 42.7677 21.3064 42.7677 21.6457 41.3298L22.0749 39.5112C23.1711 34.8654 26.7985 31.238 31.4443 30.1418L33.2629 29.7126C34.7009 29.3733 34.7008 27.3268 33.2629 26.9875L31.4443 26.5583C26.7985 25.4621 23.1711 21.8347 22.0749 17.1889ZM23.0083 15.0488C22.3297 12.1729 18.2366 12.1729 17.558 15.0488L17.1289 16.8674C16.1544 20.9969 12.9301 24.2213 8.80047 25.1958L6.9819 25.6249C4.10597 26.3035 4.10597 30.3966 6.98189 31.0752L8.80046 31.5043C12.93 32.4788 16.1544 35.7032 17.1289 39.8327L17.558 41.6513C18.2366 44.5272 22.3297 44.5272 23.0083 41.6513L23.4374 39.8327C24.4119 35.7032 27.6363 32.4788 31.7658 31.5043L33.5844 31.0752C36.4603 30.3966 36.4603 26.3035 33.5844 25.6249L31.7658 25.1958C27.6363 24.2213 24.4119 20.9969 23.4374 16.8674L23.0083 15.0488ZM44.8714 33.8592C44.3883 31.9515 41.678 31.9515 41.1949 33.8592L41.165 33.9771C40.5079 36.5719 38.4422 38.5733 35.828 39.1482C33.8963 39.5729 33.8963 42.3272 35.828 42.7519C38.4422 43.3268 40.5079 45.3282 41.165 47.923L41.1949 48.0409C41.678 49.9486 44.3883 49.9486 44.8714 48.0409L44.9013 47.923C45.5584 45.3282 47.6241 43.3268 50.2383 42.7519C52.17 42.3272 52.17 39.5729 50.2383 39.1482C47.6241 38.5733 45.5584 36.5719 44.9013 33.9771L44.8714 33.8592Z" fill="#000091"/>
        <path fill-rule="evenodd" clip-rule="evenodd" d="M32.998 13.3C35.1421 13.9135 36.8198 15.5912 37.4332 17.7352C38.0466 15.5912 39.7244 13.9135 41.8684 13.3C39.7244 12.6866 38.0466 11.0089 37.4332 8.86486C36.8198 11.0089 35.1421 12.6866 32.998 13.3ZM38.719 8.24872C38.3988 6.89187 36.4677 6.89187 36.1475 8.24872C35.7069 10.1159 34.249 11.5737 32.3819 12.0143C31.025 12.3345 31.025 14.2656 32.3819 14.5858C34.249 15.0264 35.7069 16.4842 36.1475 18.3514C36.4677 19.7082 38.3988 19.7082 38.719 18.3514C39.1595 16.4842 40.6174 15.0264 42.4846 14.5858C43.8414 14.2656 43.8414 12.3345 42.4846 12.0143C40.6174 11.5737 39.1595 10.1159 38.719 8.24872Z" fill="#E1000F"/>
    </g>
    <defs>
        <clipPath id="clip0_22503_63108">
            <rect width="56" height="56" fill="white" transform="translate(0.333252)"/>
        </clipPath>
    </defs>
</svg>
