<svg width="80" height="80" viewBox="0 0 80 80" fill="none" xmlns="http://www.w3.org/2000/svg">
    <g clip-path="url(#clip0_1456_34671)">
        <path fill-rule="evenodd" clip-rule="evenodd" d="M36.9746 16.4668C36.9746 15.9116 37.4247 15.4615 37.9799 15.4615H67.1333C67.6885 15.4615 68.1386 15.9116 68.1386 16.4668C68.1386 17.022 67.6885 17.4721 67.1333 17.4721H37.9799C37.4247 17.4721 36.9746 17.022 36.9746 16.4668Z" fill="#000091"/>
        <path fill-rule="evenodd" clip-rule="evenodd" d="M36.9746 24.5091C36.9746 23.9539 37.4247 23.5038 37.9799 23.5038H67.1333C67.6885 23.5038 68.1386 23.9539 68.1386 24.5091C68.1386 25.0643 67.6885 25.5144 67.1333 25.5144H37.9799C37.4247 25.5144 36.9746 25.0643 36.9746 24.5091Z" fill="#000091"/>
        <path fill-rule="evenodd" clip-rule="evenodd" d="M36.9746 32.5397C36.9746 31.9845 37.4247 31.5344 37.9799 31.5344H67.1333C67.6885 31.5344 68.1386 31.9845 68.1386 32.5397C68.1386 33.0949 67.6885 33.545 67.1333 33.545H37.9799C37.4247 33.545 36.9746 33.0949 36.9746 32.5397Z" fill="#000091"/>
        <path fill-rule="evenodd" clip-rule="evenodd" d="M36.9746 40.582C36.9746 40.0268 37.4247 39.5767 37.9799 39.5767H67.1333C67.6885 39.5767 68.1386 40.0268 68.1386 40.582C68.1386 41.1372 67.6885 41.5873 67.1333 41.5873H37.9799C37.4247 41.5873 36.9746 41.1372 36.9746 40.582Z" fill="#000091"/>
        <path fill-rule="evenodd" clip-rule="evenodd" d="M11.8621 48.6244C11.8621 48.0692 12.3121 47.6191 12.8674 47.6191H67.133C67.6882 47.6191 68.1383 48.0692 68.1383 48.6244C68.1383 49.1796 67.6882 49.6297 67.133 49.6297H12.8674C12.3121 49.6297 11.8621 49.1796 11.8621 48.6244Z" fill="#000091"/>
        <path fill-rule="evenodd" clip-rule="evenodd" d="M11.8621 56.6667C11.8621 56.1115 12.3121 55.6614 12.8674 55.6614H67.133C67.6882 55.6614 68.1383 56.1115 68.1383 56.6667C68.1383 57.2219 67.6882 57.672 67.133 57.672H12.8674C12.3121 57.672 11.8621 57.2219 11.8621 56.6667Z" fill="#000091"/>
        <path fill-rule="evenodd" clip-rule="evenodd" d="M11.8621 64.709C11.8621 64.1538 12.3121 63.7037 12.8674 63.7037H59.1007C59.6559 63.7037 60.106 64.1538 60.106 64.709C60.106 65.2642 59.6559 65.7143 59.1007 65.7143H12.8674C12.3121 65.7143 11.8621 65.2642 11.8621 64.709Z" fill="#000091"/>
        <path fill-rule="evenodd" clip-rule="evenodd" d="M24.8784 12.145C24.7509 11.7199 24.3597 11.4287 23.9158 11.4286C23.472 11.4285 23.0806 11.7194 22.9528 12.1445L13.8951 42.273C13.7353 42.8047 14.0367 43.3653 14.5684 43.5252C15.1001 43.685 15.6607 43.3836 15.8206 42.8519L19.2265 31.5226H24.8791C25.4343 31.5226 25.8844 31.0725 25.8844 30.5173C25.8844 29.9621 25.4343 29.512 24.8791 29.512H19.831L23.9145 15.9292L31.9902 42.8513C32.1497 43.3831 32.7101 43.6849 33.2419 43.5254C33.7737 43.3658 34.0755 42.8054 33.916 42.2736L24.8784 12.145Z" fill="#E1000F"/>
    </g>
    <defs>
        <clipPath id="clip0_1456_34671">
            <rect width="80" height="80" fill="white"/>
        </clipPath>
    </defs>
</svg>
