<svg width="80" height="80" viewBox="0 0 80 80" fill="none" xmlns="http://www.w3.org/2000/svg">
    <path d="M58.3001 38C57.7001 38 57.3001 37.6 57.3001 37V28.2H44.7001C44.4001 28.2 44.1001 28.1 43.9001 27.8L31.0001 12.6L22.6001 22.8C22.2001 23.2 21.6001 23.3 21.2001 22.9C20.8001 22.5 20.7001 21.9 21.1001 21.5L30.3001 10.4C30.5001 10.2 30.7001 10 31.1001 10C31.4001 10 31.7001 10.1 31.9001 10.4L45.3001 26.3H58.5001C59.1001 26.3 59.5001 26.7 59.5001 27.3V37C59.3001 37.6 58.8001 38 58.3001 38Z" fill="#000091"/>
    <path d="M5 60.4C4.4 60.4 4 60 4 59.4V27.2C4 26.6 4.4 26.2 5 26.2H16.8L18.5 24.8C18.9 24.5 19.6 24.5 19.9 24.9C20.2 25.3 20.2 26 19.8 26.3L17.8 27.9C17.6 28 17.4 28.1 17.2 28.1H6V59.3C6 60 5.5 60.4 5 60.4Z" fill="#000091"/>
    <path d="M16.5999 66H8.3999C7.7999 66 7.3999 65.6 7.3999 65C7.3999 64.4 7.7999 64 8.3999 64H16.5999C17.1999 64 17.5999 64.4 17.5999 65C17.5999 65.6 17.1999 66 16.5999 66Z" fill="#000091"/>
    <path d="M58.3 66H21.8C21.2 66 20.8 65.6 20.8 65C20.8 64.4 21.2 64 21.8 64H57.3V60.6C57.3 60 57.7001 59.6 58.3 59.6C58.9 59.6 59.3 60 59.3 60.6V65C59.3 65.5 58.8 66 58.3 66Z" fill="#000091"/>
    <path d="M31.5 34C28.3 34 25.7 31.4 25.7 28.2C25.7 25 28.3 22.4 31.5 22.4C34.7 22.4 37.2999 25 37.2999 28.2C37.2999 31.4 34.7 34 31.5 34ZM31.5 24.4C29.4 24.4 27.7 26.1 27.7 28.2C27.7 30.3 29.4 32 31.5 32C33.6 32 35.2999 30.3 35.2999 28.2C35.2999 26.1 33.6 24.4 31.5 24.4Z" fill="#000091"/>
    <path d="M32.6999 30.5H30.3999C29.7999 30.5 29.3999 30.1 29.3999 29.5V26.9C29.3999 26.3 29.7999 25.9 30.3999 25.9C30.9999 25.9 31.3999 26.3 31.3999 26.9V28.5H32.6999C33.2999 28.5 33.6999 28.9 33.6999 29.5C33.6999 30.1 33.1999 30.5 32.6999 30.5Z" fill="#000091"/>
    <path d="M14.6 23.5C14.4 23.5 14.1 23.4 13.9 23.2C13.5 22.8 13.5 22.2 13.8 21.8L22.2 12.4C22.6 12 23.2 12 23.6 12.3C24 12.7 24 13.3 23.7 13.7L15.3 23.1C15.2 23.4 14.9 23.5 14.6 23.5Z" fill="#E1000F"/>
    <path d="M45.5 42C42.5 42 40 39.5 40 36.5C40 33.5 42.5 31 45.5 31C48.5 31 51 33.5 51 36.5C51 39.5 48.6 42 45.5 42ZM45.5 33.1C43.6 33.1 42 34.7 42 36.6C42 38.5 43.6 40.1 45.5 40.1C47.4 40.1 49 38.5 49 36.6C49 34.6 47.5 33.1 45.5 33.1Z" fill="#E1000F"/>
    <path d="M37.3999 60.8C36.7999 60.8 36.3999 60.4 36.3999 59.8C36.3999 51.9 37.6999 46.8 40.3999 44.5C41.7999 43.3 42.9999 43.3 43.3999 43.3H48.1999C48.7999 43.3 51.7999 43.4 53.5999 48.5C53.7999 49 53.4999 49.6 52.9999 49.8C52.4999 50 51.8999 49.7001 51.6999 49.2001C50.2999 45.2001 48.2999 45.3 48.2999 45.3H48.1999H43.3999H43.2999C43.1999 45.3 42.5999 45.3 41.6999 46.1C40.4999 47.2 38.4999 50.5 38.4999 59.8C38.3999 60.3 37.9999 60.8 37.3999 60.8Z" fill="#E1000F"/>
    <path d="M67.8 43.2999C65.1 43.2999 63 41.1 63 38.5C63 35.8 65.2 33.7 67.8 33.7C70.5 33.7 72.6 35.9 72.6 38.5C72.7 41.2 70.5 43.2999 67.8 43.2999ZM67.8 35.7C66.2 35.7 65 37 65 38.5C65 40 66.3 41.2999 67.8 41.2999C69.4 41.2999 70.6 40 70.6 38.5C70.6 37 69.4 35.7 67.8 35.7Z" fill="#E1000F"/>
    <path d="M75.0001 59.3C74.4001 59.3 74.0001 58.9 74.0001 58.3C74.0001 50.5 72.3001 47.7 71.3001 46.8C70.6001 46.1 70.0001 46.1 69.9001 46.1H65.6001H65.5001C65.5001 46.1 63.8001 46 62.6001 49.3C62.4001 49.8 61.8001 50.1 61.3001 49.9C60.8001 49.7 60.5001 49.1 60.7001 48.6C62.3001 44.2 65.0001 44.1 65.6001 44.1H69.8001C70.1001 44.1 71.3001 44.1 72.5001 45.2C74.8001 47.2 76.0001 51.6 76.0001 58.3C76.0001 58.9 75.6001 59.3 75.0001 59.3Z" fill="#E1000F"/>
    <path d="M57.2 48.4C55.3 48.4 53.7 46.8 53.7 44.9C53.7 43 55.3 41.4 57.2 41.4C59.1 41.4 60.7 43 60.7 44.9C60.7 46.8 59.1 48.4 57.2 48.4ZM57.2 43.3C56.4 43.3 55.7 44 55.7 44.8C55.7 45.6 56.4 46.3 57.2 46.3C58 46.3 58.7 45.6 58.7 44.8C58.7 44 58 43.3 57.2 43.3Z" fill="#E1000F"/>
    <path d="M61.7001 59.7C61.1 59.7 60.7001 59.3 60.7001 58.7C60.7001 51.3 58.6 51 58.6 51H56H55.9001C55.9001 51 53.8 51.3 53.8 58.7C53.8 59.3 53.4 59.7 52.8 59.7C52.2 59.7 51.8 59.3 51.8 58.7C51.8 54.1 52.6 51.1 54.1 49.8C54.9 49.1 55.7 49 56 49.1H58.5C58.8 49.1 59.6001 49.1 60.4001 49.8C62.0001 51.2 62.7001 54.2 62.7001 58.7C62.7001 59.3 62.2001 59.7 61.7001 59.7Z" fill="#E1000F"/>
    <path d="M29.6 60.6H12.5C11.9 60.6 11.5 60.2 11.5 59.6C11.5 59 11.9 58.6 12.5 58.6H29.6C30.2 58.6 30.6 59 30.6 59.6C30.6 60.2 30.1 60.6 29.6 60.6Z" fill="#000091"/>
    <path d="M27.4 59.7C26.8 59.7 26.4 59.3 26.4 58.7V46.5H15.5V58.7C15.5 59.3 15.1 59.7 14.5 59.7C13.9 59.7 13.5 59.3 13.5 58.7V45.5C13.5 44.9 13.9 44.5 14.5 44.5H27.4C28 44.5 28.4 44.9 28.4 45.5V58.7C28.4 59.2 27.9 59.7 27.4 59.7Z" fill="#000091"/>
    <path d="M20.8999 59.6C20.2999 59.6 19.8999 59.2 19.8999 58.6V45.5C19.8999 44.9 20.2999 44.5 20.8999 44.5C21.4999 44.5 21.8999 44.9 21.8999 45.5V58.6C21.8999 59.2 21.4999 59.6 20.8999 59.6Z" fill="#000091"/>
</svg>
