<svg width="80" height="80" viewBox="0 0 80 80" fill="none" xmlns="http://www.w3.org/2000/svg">
    <path fill-rule="evenodd" clip-rule="evenodd" d="M53.713 25.1871L48.7431 32.6285L47.1431 31.4285L52.113 23.9871L53.713 25.1871ZM63.5178 46.1871L59.5178 25.1871L61.4824 24.8128L65.4824 45.8128L63.5178 46.1871ZM58.5772 51.4061L49.8687 47.9061L50.7145 46.0938L59.423 49.5938L58.5772 51.4061Z" fill="#000091"/>
    <path fill-rule="evenodd" clip-rule="evenodd" d="M44.0757 64.0945L60.0757 56.5945L60.9246 58.4054L44.9246 65.9054L44.0757 64.0945Z" fill="#000091"/>
    <path fill-rule="evenodd" clip-rule="evenodd" d="M32.8569 45.9398L21.3417 49.9398L20.6582 48.0602L32.1734 44.0602L32.8569 45.9398Z" fill="#000091"/>
    <path fill-rule="evenodd" clip-rule="evenodd" d="M34.4087 65.8064L19.4087 54.8064L20.5914 53.1936L35.5914 64.1936L34.4087 65.8064Z" fill="#000091"/>
    <path fill-rule="evenodd" clip-rule="evenodd" d="M39.5049 61.9005L40.5049 50.7142L42.495 50.9132L41.495 62.0995L39.5049 61.9005Z" fill="#CE0500"/>
    <path fill-rule="evenodd" clip-rule="evenodd" d="M36.0853 32.3566L30.1143 20.964L31.8859 20.036L37.857 31.4286L36.0853 32.3566Z" fill="#000091"/>
    <path fill-rule="evenodd" clip-rule="evenodd" d="M49.804 16.9806L34.804 13.9806L35.1962 12.0194L50.1962 15.0194L49.804 16.9806Z" fill="#000091"/>
    <path fill-rule="evenodd" clip-rule="evenodd" d="M23.5999 19.8L15.5999 25.8L14.3999 24.2L22.3999 18.2L23.5999 19.8Z" fill="#000091"/>
    <path fill-rule="evenodd" clip-rule="evenodd" d="M14.0137 46.1644L12.0137 34.1644L13.9865 33.8356L15.9865 45.8356L14.0137 46.1644Z" fill="#000091"/>
    <path fill-rule="evenodd" clip-rule="evenodd" d="M32.1162 37.857L17.1162 31.857L17.859 30L32.859 36L32.1162 37.857Z" fill="#CE0500"/>
    <path fill-rule="evenodd" clip-rule="evenodd" d="M42.144 49.6429C47.0751 49.6429 51.0725 45.6454 51.0725 40.7143C51.0725 35.7832 47.0751 31.7857 42.144 31.7857C37.2129 31.7857 33.2154 35.7832 33.2154 40.7143C33.2154 45.6454 37.2129 49.6429 42.144 49.6429ZM42.144 51.4286C48.0613 51.4286 52.8583 46.6316 52.8583 40.7143C52.8583 34.7969 48.0613 30 42.144 30C36.2266 30 31.4297 34.7969 31.4297 40.7143C31.4297 46.6316 36.2266 51.4286 42.144 51.4286Z" fill="#CE0500"/>
    <path fill-rule="evenodd" clip-rule="evenodd" d="M66 59C69.3137 59 72 56.3137 72 53C72 49.6863 69.3137 47 66 47C62.6863 47 60 49.6863 60 53C60 56.3137 62.6863 59 66 59ZM66 61C70.4183 61 74 57.4183 74 53C74 48.5817 70.4183 45 66 45C61.5817 45 58 48.5817 58 53C58 57.4183 61.5817 61 66 61Z" fill="#000091"/>
    <path fill-rule="evenodd" clip-rule="evenodd" d="M28 20C31.3137 20 34 17.3137 34 14C34 10.6863 31.3137 8 28 8C24.6863 8 22 10.6863 22 14C22 17.3137 24.6863 20 28 20ZM28 22C32.4183 22 36 18.4183 36 14C36 9.58172 32.4183 6 28 6C23.5817 6 20 9.58172 20 14C20 18.4183 23.5817 22 28 22Z" fill="#000091"/>
    <path fill-rule="evenodd" clip-rule="evenodd" d="M40 71C42.2091 71 44 69.2091 44 67C44 64.7909 42.2091 63 40 63C37.7909 63 36 64.7909 36 67C36 69.2091 37.7909 71 40 71ZM40 73C43.3137 73 46 70.3137 46 67C46 63.6863 43.3137 61 40 61C36.6863 61 34 63.6863 34 67C34 70.3137 36.6863 73 40 73Z" fill="#000091"/>
    <path fill-rule="evenodd" clip-rule="evenodd" d="M12 33C14.2091 33 16 31.2091 16 29C16 26.7909 14.2091 25 12 25C9.79086 25 8 26.7909 8 29C8 31.2091 9.79086 33 12 33ZM12 35C15.3137 35 18 32.3137 18 29C18 25.6863 15.3137 23 12 23C8.68629 23 6 25.6863 6 29C6 32.3137 8.68629 35 12 35Z" fill="#CE0500"/>
    <path fill-rule="evenodd" clip-rule="evenodd" d="M57.1439 25.4286C60.931 25.4286 64.0011 22.3585 64.0011 18.5714C64.0011 14.7843 60.931 11.7143 57.1439 11.7143C53.3568 11.7143 50.2868 14.7843 50.2868 18.5714C50.2868 22.3585 53.3568 25.4286 57.1439 25.4286ZM57.1439 27.1429C61.8778 27.1429 65.7154 23.3053 65.7154 18.5714C65.7154 13.8376 61.8778 10 57.1439 10C52.4101 10 48.5725 13.8376 48.5725 18.5714C48.5725 23.3053 52.4101 27.1429 57.1439 27.1429Z" fill="#000091"/>
    <path fill-rule="evenodd" clip-rule="evenodd" d="M16 55C18.2091 55 20 53.2091 20 51C20 48.7909 18.2091 47 16 47C13.7909 47 12 48.7909 12 51C12 53.2091 13.7909 55 16 55ZM16 57C19.3137 57 22 54.3137 22 51C22 47.6863 19.3137 45 16 45C12.6863 45 10 47.6863 10 51C10 54.3137 12.6863 57 16 57Z" fill="#000091"/>
</svg>
