<svg width="57" height="56" viewBox="0 0 57 56" fill="none" xmlns="http://www.w3.org/2000/svg">
    <path fill-rule="evenodd" clip-rule="evenodd" d="M13.7996 50.4C13.4136 50.4 13.0996 50.086 13.0996 49.7C13.0996 49.314 13.4136 49 13.7996 49C14.1856 49 14.4996 49.314 14.4996 49.7C14.4996 50.086 14.1856 50.4 13.7996 50.4Z" fill="#CACAFB"/>
    <path fill-rule="evenodd" clip-rule="evenodd" d="M22.2 7.0001C21.814 7.0001 21.5 6.68608 21.5 6.3001C21.5 5.91408 21.814 5.6001 22.2 5.6001C22.586 5.6001 22.9 5.91408 22.9 6.3001C22.9 6.68608 22.586 7.0001 22.2 7.0001Z" fill="#CACAFB"/>
    <path fill-rule="evenodd" clip-rule="evenodd" d="M47.3992 46.2001C47.0132 46.2001 46.6992 45.886 46.6992 45.5C46.6992 45.114 47.0132 44.8 47.3992 44.8C47.7852 44.8 48.0992 45.114 48.0992 45.5C48.0992 45.886 47.7852 46.2001 47.3992 46.2001Z" fill="#CACAFB"/>
    <path fill-rule="evenodd" clip-rule="evenodd" d="M47.3992 11.2C47.0132 11.2 46.6992 10.886 46.6992 10.5C46.6992 10.114 47.0132 9.80005 47.3992 9.80005C47.7852 9.80005 48.0992 10.114 48.0992 10.5C48.0992 10.886 47.7852 11.2 47.3992 11.2Z" fill="#CACAFB"/>
    <path fill-rule="evenodd" clip-rule="evenodd" d="M6.79961 22.4C6.41363 22.4 6.09961 22.086 6.09961 21.7C6.09961 21.314 6.41363 21 6.79961 21C7.18559 21 7.49961 21.314 7.49961 21.7C7.49961 22.086 7.18559 22.4 6.79961 22.4Z" fill="#CACAFB"/>
    <path d="M26.3066 21.725C26.4999 21.3902 26.3852 20.9621 26.0503 20.7688C24.3784 19.8035 22.2346 20.3779 21.2693 22.0499C20.304 23.7218 20.8785 25.8657 22.5503 26.831C24.2222 27.7962 26.3662 27.2218 27.3314 25.5499C27.5247 25.2151 27.41 24.787 27.0752 24.5937C26.7404 24.4004 26.3123 24.5151 26.119 24.8499L26.0543 24.9547C25.4487 25.8756 24.2168 26.1765 23.2503 25.6185C22.2481 25.0399 21.903 23.7522 22.4817 22.7499C23.0604 21.7475 24.348 21.4025 25.3503 21.9812C25.6852 22.1745 26.1133 22.0598 26.3066 21.725Z" fill="#E1000F"/>
    <path d="M34.1548 37.4576C34.0289 37.8231 34.2232 38.2215 34.5888 38.3473C36.0492 38.8502 37.6449 38.0719 38.1478 36.6115C38.6507 35.1511 37.8723 33.5553 36.4119 33.0524C34.9515 32.5496 33.3557 33.3279 32.8529 34.7883C32.727 35.1538 32.9213 35.5522 33.2869 35.6781C33.6524 35.8039 34.0508 35.6096 34.1766 35.2441L34.2142 35.1468C34.5002 34.4807 35.26 34.1365 35.9561 34.3762C36.6855 34.6273 37.0752 35.4264 36.8241 36.1557C36.5729 36.8851 35.7739 37.2747 35.0446 37.0236C34.679 36.8977 34.2807 37.092 34.1548 37.4576Z" fill="#E1000F"/>
    <path d="M22.3708 36.3999C22.0119 36.3999 21.716 36.1297 21.6755 35.7815L21.6708 35.6999L21.6711 34.9871L21.6679 34.8636C21.6327 34.3029 21.2881 33.8071 20.7532 33.5655L20.6357 33.5177L20.2825 33.3691L20.1015 33.2884C19.5674 33.0412 18.9358 33.1327 18.4872 33.515L18.3939 33.6014L17.8273 34.1647L17.7173 34.2525C17.3005 34.5394 16.7435 34.5122 16.3543 34.1914L16.2736 34.1182L14.355 32.1896L14.2675 32.0795C13.982 31.6632 14.008 31.1075 14.3268 30.7175L14.3996 30.6366L14.902 30.1324L14.9909 30.0382C15.3836 29.589 15.4765 28.9406 15.2196 28.3863C15.1646 28.265 15.1108 28.1392 15.0608 28.0156L14.9446 27.721C14.723 27.2202 14.2318 26.8775 13.6782 26.8349L13.5586 26.8305L12.7738 26.8282L12.6475 26.8156C12.1374 26.7322 11.7511 26.3126 11.7049 25.8023L11.7002 25.6991L11.7024 22.976L11.7149 22.8498C11.7979 22.3395 12.2165 21.9519 12.727 21.9054L12.8303 21.9008L13.5407 21.9011L13.6637 21.8978C14.2211 21.8627 14.7147 21.5173 14.9557 20.9805L15.0034 20.8625L15.1515 20.5084L15.2328 20.325C15.482 19.7875 15.3877 19.1461 14.998 18.6934L14.9162 18.6055L14.3579 18.0405L14.2705 17.9303C13.9856 17.5137 14.0125 16.9579 14.3314 16.5687L14.4043 16.488L16.3273 14.5634L16.4373 14.4756C16.8538 14.1885 17.4106 14.215 17.8007 14.5355L17.8817 14.6087L18.383 15.1114L18.4772 15.2006C18.9256 15.5935 19.5675 15.6864 20.1166 15.4318C20.2392 15.3759 20.3651 15.3216 20.4887 15.2713L20.7828 15.1546C21.2818 14.9325 21.6239 14.439 21.6664 13.8821L21.6708 13.7619L21.6731 12.9752L21.6855 12.849C21.7685 12.3387 22.1871 11.951 22.6977 11.9046L22.8009 11.8999L25.5162 11.9022L25.6426 11.9147C26.1527 11.9982 26.5389 12.4177 26.5852 12.9281L26.5899 13.0313L26.5895 13.7428L26.5931 13.8672C26.6295 14.4314 26.9768 14.9279 27.5181 15.169L27.6369 15.2166L27.9819 15.3622L28.1626 15.4428C28.6967 15.69 29.3282 15.5986 29.7769 15.2162L29.8701 15.1299L30.4367 14.5665L30.5468 14.4787C30.9636 14.1919 31.5206 14.219 31.9098 14.5398L31.9905 14.613L33.9099 16.5426L33.997 16.6528C34.2809 17.0688 34.2535 17.6241 33.9351 18.0127L33.8625 18.0933L33.3587 18.5988L33.2698 18.693C32.8771 19.1422 32.7843 19.7906 33.0412 20.3449C33.0961 20.4663 33.1499 20.592 33.1999 20.7156L33.3162 21.0102C33.5377 21.5111 34.0289 21.8537 34.5826 21.8963L34.7021 21.9007L35.4869 21.903L35.5567 21.9087C35.942 21.9399 36.2291 22.2775 36.1979 22.6629C36.169 23.0207 35.8757 23.2938 35.5255 23.306L35.4437 23.3041L35.4304 23.3008L34.7034 23.3007C33.5985 23.3028 32.5894 22.6791 32.0914 21.6918L32.0267 21.555L31.968 21.4088C31.926 21.2985 31.8815 21.1883 31.8364 21.0827L31.7684 20.9282C31.3036 19.9251 31.4443 18.7496 32.1305 17.8761L32.2322 17.7534L32.3521 17.626L32.6848 17.2927L31.1882 15.7919L30.862 16.1179C30.0336 16.9513 28.7907 17.2049 27.722 16.7771L27.5836 16.7175L27.425 16.6466L27.13 16.521C26.0783 16.1462 25.3376 15.2055 25.2086 14.0876L25.1948 13.9341L25.1899 13.7647L25.1899 13.2999H23.071L23.0708 13.7606C23.0728 14.867 22.4516 15.8783 21.4669 16.3779L21.3304 16.4428L21.1846 16.5018C21.0744 16.5439 20.9645 16.5886 20.8581 16.6344L20.7015 16.7037C19.7012 17.1677 18.5308 17.026 17.6589 16.3389L17.5364 16.237L17.4081 16.116L17.0804 15.7877L15.5824 17.2899L15.9058 17.6152C16.7412 18.4457 16.9958 19.6957 16.5677 20.7645L16.5079 20.9029L16.4374 21.0617L16.3079 21.3695C15.9302 22.4181 14.9926 23.1558 13.8811 23.2826L13.7285 23.2961L13.5615 23.3008L13.1002 23.3008V25.4309L13.5574 25.4305C14.6622 25.4285 15.6714 26.0521 16.1693 27.0394L16.234 27.1763L16.2927 27.3224C16.3347 27.4327 16.3792 27.5429 16.4243 27.6485L16.4923 27.803C16.9571 28.8061 16.8164 29.9816 16.1303 30.8551L16.0285 30.9778L15.9086 31.1052L15.5782 31.4383L17.0762 32.9405L17.4021 32.6133C18.2305 31.7799 19.4733 31.5263 20.542 31.954L20.8386 32.0844L21.1453 32.2142C22.1914 32.5933 22.9265 33.5332 23.0528 34.6464L23.0662 34.7992L23.071 34.9999H25.7021L25.7025 34.6123L25.7137 34.5018C25.7895 34.0374 26.1695 33.6847 26.6333 33.6398L26.7339 33.6349L27.2804 33.6352L27.3706 33.6329C27.7385 33.6098 28.0652 33.3861 28.2333 33.0293L28.3914 32.6517L28.4556 32.5074C28.6186 32.1569 28.5617 31.7392 28.3139 31.4369L28.2416 31.3575L27.7986 30.9097L27.7222 30.813C27.4621 30.434 27.4852 29.929 27.7733 29.5736L27.8445 29.4944L29.3472 27.996L29.3932 27.9578C29.6907 27.7109 30.132 27.7518 30.3789 28.0493C30.6068 28.3239 30.5895 28.7211 30.3515 28.9747L30.2874 29.035L30.2892 29.0296L29.092 30.2279L29.2297 30.3657C29.919 31.0489 30.1321 32.0755 29.7862 32.9558L29.6767 33.2064L29.5791 33.437C29.2678 34.2989 28.4983 34.9067 27.5812 35.0179L27.4352 35.0313L27.3011 35.0349L27.1005 35.0355V36.3655L27.2976 36.3649C28.2075 36.3633 29.0393 36.872 29.4572 37.6833L29.5197 37.8138L29.5664 37.9298C29.5982 38.0131 29.6319 38.0962 29.6659 38.1755L29.7168 38.2911C30.1 39.1155 29.9878 40.0806 29.4265 40.8049L29.3288 40.9233L29.2324 41.0252L29.0885 41.1696L30.2846 42.3657C30.537 42.618 30.5564 43.0151 30.3429 43.2897L30.2846 43.3556C30.0323 43.608 29.6352 43.6274 29.3606 43.4138L29.2947 43.3556L27.7965 41.8532L27.72 41.7566C27.4594 41.3779 27.4817 40.873 27.7697 40.5169L27.8408 40.4375L28.2273 40.0509L28.2926 39.9822C28.5557 39.6821 28.618 39.2484 28.4448 38.8758C28.4012 38.78 28.3586 38.6807 28.3194 38.5839L28.2309 38.36C28.0854 38.0321 27.7641 37.8047 27.3994 37.7696L27.2989 37.7649L26.6776 37.7627L26.5671 37.7514C26.1027 37.6757 25.75 37.2957 25.7051 36.8318L25.7002 36.7313L25.7006 36.3999H22.3708Z" fill="#000091"/>
    <path d="M37.4837 41.7429C36.6725 42.1608 36.1638 42.9926 36.1654 43.9025L36.166 44.0999H34.836L34.8354 43.899L34.8317 43.7649L34.8184 43.6189C34.7072 42.7018 34.0994 41.9324 33.2375 41.621L33.0069 41.5234L32.8872 41.47L32.8106 41.4412C32.4761 41.3368 32.109 41.4975 31.9632 41.8256C31.8063 42.1789 31.9655 42.5925 32.3188 42.7495L32.4522 42.8087L32.8298 42.9668C33.1866 43.1349 33.4103 43.4616 33.4334 43.8295L33.4357 43.9197L33.4354 44.4662L33.4403 44.5668C33.4852 45.0307 33.8379 45.4107 34.3023 45.4864L34.4128 45.4976L36.5317 45.4999L36.6323 45.495C37.0962 45.4501 37.4762 45.0975 37.5519 44.633L37.5631 44.5225L37.5654 43.9012L37.5701 43.8008C37.6052 43.436 37.8326 43.1147 38.1604 42.9693L38.3848 42.8806C38.4818 42.8412 38.5815 42.7984 38.6786 42.7542C39.0496 42.5827 39.482 42.6451 39.7833 42.9084L39.8524 42.9737L40.239 43.3603L40.3179 43.4312C40.6721 43.7184 41.176 43.7428 41.5541 43.4849L41.6508 43.4088L43.1569 41.9026L43.2279 41.8235C43.5154 41.4688 43.5385 40.9638 43.2784 40.5848L43.202 40.4881L42.759 40.0402L42.6867 39.9608C42.439 39.6586 42.3821 39.2408 42.545 38.8904C42.5923 38.7865 42.6357 38.6859 42.6758 38.5876L42.7297 38.4517L42.7706 38.3547C42.9356 38.01 43.2636 37.7871 43.6268 37.7664L43.7158 37.7647L44.2667 37.7649L44.3673 37.76C44.8312 37.7151 45.2112 37.3625 45.2869 36.898L45.2981 36.7875L45.3004 34.6686L45.2956 34.568C45.2506 34.1041 44.898 33.7241 44.4335 33.6484L44.323 33.6372L43.7017 33.6349L43.6013 33.6302C43.2365 33.5951 42.9152 33.3677 42.7698 33.0399L42.6812 32.8159C42.642 32.7191 42.5994 32.6198 42.5558 32.524C42.3827 32.1514 42.445 31.7178 42.7081 31.4176L42.7733 31.3489L43.1608 30.9614L43.2319 30.8823C43.5194 30.5274 43.543 30.0229 43.2838 29.6443L43.2075 29.5476L41.7085 28.0442L41.6293 27.973C41.2739 27.6849 40.7689 27.6618 40.3899 27.9219L40.2932 27.9983L39.8428 28.4439L39.7637 28.5154C39.4627 28.7607 39.0462 28.8171 38.6937 28.6545L38.5515 28.5912L38.179 28.4355C37.817 28.2673 37.5915 27.9401 37.5675 27.5697L37.5651 27.4788L37.5654 26.9336L37.5606 26.833C37.5156 26.3691 37.163 25.9891 36.6985 25.9134L36.588 25.9022L34.4691 25.8999L34.3685 25.9048C33.9047 25.9497 33.5246 26.3023 33.4489 26.7668L33.4377 26.8773L33.4354 27.4986L33.4307 27.599C33.3956 27.9638 33.1682 28.2851 32.8404 28.4305L32.616 28.5192C32.519 28.5586 32.4193 28.6014 32.3222 28.6456C31.9703 28.8056 31.8147 29.2206 31.9747 29.5725C32.1347 29.9244 32.5497 30.08 32.9016 29.92C33.0207 29.8659 33.1453 29.8139 33.2706 29.7661L33.3865 29.7194L33.5171 29.6569C34.3283 29.239 34.8371 28.4072 34.8354 27.4973L34.836 27.2999H36.166L36.1654 27.5008L36.1693 27.6369L36.1822 27.7766C36.2934 28.7005 36.9067 29.4736 37.7754 29.7823L37.996 29.8762L38.1162 29.9297L38.2473 29.9855C39.1286 30.3295 40.1504 30.1182 40.8332 29.4334L40.9757 29.2914L41.9137 30.2294L41.7682 30.3746L41.6719 30.4765L41.5742 30.595C41.0128 31.3193 40.9006 32.2844 41.2838 33.1087L41.3853 33.3457L41.4809 33.586L41.5434 33.7166C41.9613 34.5278 42.7931 35.0365 43.703 35.0349L43.901 35.0349V36.3649H43.6995L43.5707 36.3677L43.432 36.3794C42.5141 36.4831 41.7377 37.0899 41.4217 37.953L41.3771 38.0649L41.3276 38.1825L41.2731 38.3055L41.2166 38.4371C40.8685 39.3223 41.0817 40.3489 41.771 41.0321L41.9095 41.1711L40.9715 42.1126L40.8257 41.9677L40.7226 41.8706L40.6042 41.7731C39.8801 41.2135 38.9183 41.1011 38.0951 41.4816L37.9165 41.5594L37.6143 41.6804L37.4837 41.7429Z" fill="#000091"/>
    <path d="M41.8002 23.0999C41.4136 23.0999 41.1002 22.7865 41.1002 22.3999C41.1002 22.0409 41.3705 21.745 41.7186 21.7046L41.8002 21.6999H44.6002C44.9868 21.6999 45.3002 22.0133 45.3002 22.3999C45.3002 22.7589 45.03 23.0548 44.6819 23.0952L44.6002 23.0999H41.8002Z" fill="#000091"/>
    <path d="M39.7002 22.3999C39.7002 22.0139 39.3862 21.6999 39.0002 21.6999C38.6143 21.6999 38.3002 22.0139 38.3002 22.3999C38.3002 22.7859 38.6143 23.0999 39.0002 23.0999C39.3862 23.0999 39.7002 22.7859 39.7002 22.3999Z" fill="#000091"/>
</svg>
