<svg width="57" height="56" viewBox="0 0 57 56" fill="none" xmlns="http://www.w3.org/2000/svg"><path fill-rule="evenodd" clip-rule="evenodd" d="M18.556 10.828a.7.7 0 0 0-.7-.7h-2.75a4.2 4.2 0 0 0-2.97 1.23l-.75.75a2.8 2.8 0 0 1-1.98.82h-.3a4.2 4.2 0 0 0-4.2 4.2v25.9a4.2 4.2 0 0 0 4.2 4.2h29.497a.7.7 0 1 0 0-1.4H9.106a2.8 2.8 0 0 1-2.8-2.8v-25.9a2.8 2.8 0 0 1 2.8-2.8h.3a4.2 4.2 0 0 0 2.97-1.23l.75-.75a2.8 2.8 0 0 1 1.98-.82h2.75a.7.7 0 0 0 .7-.7" fill="#0D008A"/><path fill-rule="evenodd" clip-rule="evenodd" d="M51.865 25.309c.788-2.69-1.228-5.381-4.03-5.381H15.116a4.2 4.2 0 0 0-4.03 3.019l-5.538 18.9c-.788 2.689 1.229 5.38 4.03 5.38h25.337a.7.7 0 1 0 0-1.4H9.58a2.8 2.8 0 0 1-2.687-3.587l5.537-18.9a2.8 2.8 0 0 1 2.687-2.012h32.718a2.8 2.8 0 0 1 2.687 3.587l-2.48 8.462v.004l-2.506 8.396a.7.7 0 1 0 1.342.4l2.506-8.4v-.003z" fill="#0D008A"/><path d="M36.432 30.24a.713.713 0 0 1 .877-.487c1.666.456 2.944 1.74 3.282 3.333a.7.7 0 0 1-.552.828.71.71 0 0 1-.842-.542c-.227-1.068-1.105-1.951-2.27-2.27a.7.7 0 0 1-.495-.862" fill="#E1000F"/><path fill-rule="evenodd" clip-rule="evenodd" d="M29.406 33.928c0-3.861 3.14-7 7-7s7 3.139 7 7c0 1.796-.68 3.436-1.795 4.677l4.126 7.147a2.1 2.1 0 0 1-3.572 2.205l-.065-.105-4.103-7.107a7.007 7.007 0 0 1-8.59-6.818m9.94 6.353 3.967 6.871a.7.7 0 0 0 1.249-.627l-.037-.073-3.975-6.885a7 7 0 0 1-1.205.714m2.66-6.353c0-3.088-2.512-5.6-5.6-5.6a5.607 5.607 0 0 0-5.6 5.6c0 3.087 2.513 5.6 5.6 5.6s5.6-2.513 5.6-5.6" fill="#E1000F"/><path d="M34.307 11.528a.7.7 0 0 0-.7-.7h-11.2l-.082.004a.7.7 0 0 0 .082 1.395h11.2l.082-.004a.7.7 0 0 0 .618-.696m6.3 3.501a.7.7 0 0 1 .082 1.395l-.082.005h-18.2a.7.7 0 0 1-.082-1.396l.082-.005z" fill="#0D008A"/><path d="M45.501 7.246a.7.7 0 0 0-.695-.618h-26.6l-.082.004a.7.7 0 0 0-.618.696v12.6h1.4v-11.9h25.2v9.8l.005.081a.7.7 0 0 0 1.395-.081v-10.5z" fill="#D42C2C"/></svg>
