<svg width="80" height="80" viewBox="0 0 80 80" fill="none" xmlns="http://www.w3.org/2000/svg">
    <g clip-path="url(#clip0_1394_41277)">
        <path d="M52.2534 58.3791H50.2108V60.4216H52.2534V58.3791Z" fill="#000091"/>
        <path d="M52.2534 62.4642H50.2108V64.5067H52.2534V62.4642Z" fill="#000091"/>
        <path d="M56.3385 58.3791H54.296V60.4216H56.3385V58.3791Z" fill="#000091"/>
        <path d="M56.3385 62.4642H54.296V64.5067H56.3385V62.4642Z" fill="#000091"/>
        <path d="M60.4237 58.3791H58.3811V60.4216H60.4237V58.3791Z" fill="#000091"/>
        <path d="M60.4237 62.4642H58.3811V64.5067H60.4237V62.4642Z" fill="#000091"/>
        <path d="M64.5088 58.3791H62.4662V60.4216H64.5088V58.3791Z" fill="#000091"/>
        <path d="M64.5088 62.4642H62.4662V64.5067H64.5088V62.4642Z" fill="#000091"/>
        <path fill-rule="evenodd" clip-rule="evenodd" d="M42.0406 41.0172C42.0406 40.4532 42.4978 39.996 43.0618 39.996H67.1131C67.6771 39.996 68.1343 40.4532 68.1343 41.0172C68.1343 41.5813 67.6771 42.0385 67.1131 42.0385H43.0618C42.4978 42.0385 42.0406 41.5813 42.0406 41.0172Z" fill="#000091"/>
        <path fill-rule="evenodd" clip-rule="evenodd" d="M11.3921 41.0172C11.3921 40.4532 11.8493 39.996 12.4134 39.996H16.4883C17.0523 39.996 17.5096 40.4532 17.5096 41.0172C17.5096 41.5813 17.0523 42.0385 16.4883 42.0385H12.4134C11.8493 42.0385 11.3921 41.5813 11.3921 41.0172Z" fill="#000091"/>
        <path fill-rule="evenodd" clip-rule="evenodd" d="M37.9754 59.4123C37.9754 58.8483 38.4326 58.391 38.9967 58.391H45.9414C46.5054 58.391 46.9627 58.8483 46.9627 59.4123C46.9627 59.9763 46.5054 60.4336 45.9414 60.4336H38.9967C38.4326 60.4336 37.9754 59.9763 37.9754 59.4123Z" fill="#000091"/>
        <path fill-rule="evenodd" clip-rule="evenodd" d="M48.8318 46.2234C49.3695 46.0532 49.9434 46.3511 50.1136 46.8889L52.677 54.9877C52.8472 55.5254 52.5493 56.0993 52.0116 56.2695C51.4738 56.4397 50.8999 56.1418 50.7297 55.604L48.1663 47.5053C47.9961 46.9675 48.294 46.3936 48.8318 46.2234Z" fill="#000091"/>
        <path fill-rule="evenodd" clip-rule="evenodd" d="M47.7875 17.8664C48.1866 18.265 48.1869 18.9117 47.7883 19.3107L37.6367 29.4725C37.2381 29.8715 36.5914 29.8718 36.1924 29.4732C35.7934 29.0746 35.793 28.4279 36.1917 28.0289L46.3432 17.8671C46.7419 17.4681 47.3885 17.4677 47.7875 17.8664Z" fill="#000091"/>
        <path fill-rule="evenodd" clip-rule="evenodd" d="M49.9111 26.0085C50.3103 26.407 50.3108 27.0536 49.9123 27.4528L43.7846 33.5907C43.3861 33.9899 42.7395 33.9904 42.3403 33.5919C41.9411 33.1934 41.9406 32.5468 42.3391 32.1476L48.4668 26.0097C48.8653 25.6105 49.5119 25.61 49.9111 26.0085Z" fill="#000091"/>
        <path fill-rule="evenodd" clip-rule="evenodd" d="M54.296 55.2953C54.296 54.7312 54.7532 54.274 55.3172 54.274H66.5411C67.6771 54.274 68.5939 55.1908 68.5939 56.3268V66.5089C68.5939 67.6449 67.6771 68.5617 66.5411 68.5617H48.1785C47.0425 68.5617 46.1257 67.6449 46.1257 66.5089V57.3582C46.1257 56.7942 46.5829 56.337 47.147 56.337C47.711 56.337 48.1683 56.7942 48.1683 57.3582V66.5089C48.1683 66.5119 48.1686 66.514 48.1686 66.514L48.1689 66.515L48.1704 66.517L48.1724 66.5185C48.1724 66.5185 48.1755 66.5192 48.1785 66.5192H66.5411C66.5441 66.5192 66.5462 66.5188 66.5462 66.5188L66.5492 66.517L66.5507 66.515L66.551 66.514L66.5512 66.5119L66.5514 66.5089V56.3268C66.5514 56.3238 66.551 56.3217 66.551 56.3217L66.5507 56.3207L66.5492 56.3187L66.5472 56.3172C66.5472 56.3172 66.5441 56.3165 66.5411 56.3165H55.3172C54.7532 56.3165 54.296 55.8593 54.296 55.2953Z" fill="#000091"/>
        <path fill-rule="evenodd" clip-rule="evenodd" d="M11.4021 15.4852C11.4021 13.229 13.231 11.4 15.4872 11.4H64.5088C66.7649 11.4 68.5939 13.229 68.5939 15.4852V44.0811C68.5939 46.3372 66.7649 48.1662 64.5088 48.1662H43.0618C42.4978 48.1662 42.0406 47.709 42.0406 47.1449C42.0406 46.5809 42.4978 46.1236 43.0618 46.1236H64.5088C65.6369 46.1236 66.5514 45.2092 66.5514 44.0811V15.4852C66.5514 14.3571 65.6369 13.4426 64.5088 13.4426H15.4872C14.3591 13.4426 13.4446 14.3571 13.4446 15.4852V44.0811C13.4446 45.2092 14.3591 46.1236 15.4872 46.1236H16.5085C17.0725 46.1236 17.5298 46.5809 17.5298 47.1449C17.5298 47.709 17.0725 48.1662 16.5085 48.1662H15.4872C13.231 48.1662 11.4021 46.3372 11.4021 44.0811V15.4852Z" fill="#000091"/>
        <path fill-rule="evenodd" clip-rule="evenodd" d="M23.6472 33.8802C22.5262 33.8802 21.6149 34.7915 21.6149 35.9126V44.0828C21.6149 44.6469 21.1577 45.1041 20.5936 45.1041C20.0296 45.1041 19.5723 44.6469 19.5723 44.0828V35.9126C19.5723 33.6634 21.3981 31.8376 23.6472 31.8376H35.9333C38.1824 31.8376 40.0082 33.6634 40.0082 35.9126V58.3706C40.0082 60.6197 38.1824 62.4455 35.9333 62.4455H26.6907C26.1266 62.4455 25.6694 61.9883 25.6694 61.4242C25.6694 60.8602 26.1266 60.4029 26.6907 60.4029H35.9333C37.0544 60.4029 37.9656 59.4917 37.9656 58.3706V35.9126C37.9656 34.7915 37.0544 33.8802 35.9333 33.8802H23.6472Z" fill="#E1000F"/>
        <path fill-rule="evenodd" clip-rule="evenodd" d="M13.4349 50.2158C13.4348 50.216 13.4347 50.2169 13.4347 50.219V66.5187C13.4347 66.5207 13.4348 66.5217 13.4349 66.5218C13.4351 66.5223 13.436 66.5242 13.4376 66.5259C13.4393 66.5276 13.4407 66.5283 13.4412 66.5285C13.4414 66.5285 13.4428 66.5289 13.4449 66.5289H21.5641C21.5661 66.5289 21.5671 66.5287 21.5672 66.5287C21.5677 66.5285 21.5696 66.5276 21.5713 66.5259C21.573 66.5242 21.5737 66.5228 21.5739 66.5223C21.5739 66.5222 21.5743 66.5207 21.5743 66.5187V50.219C21.5743 50.2169 21.5741 50.216 21.5741 50.2158C21.5739 50.2154 21.573 50.2134 21.5713 50.2118C21.5696 50.2101 21.5682 50.2094 21.5677 50.2092C21.5676 50.2091 21.5661 50.2088 21.5641 50.2088H13.4449C13.4428 50.2088 13.4419 50.209 13.4417 50.209C13.4412 50.2092 13.4393 50.2101 13.4376 50.2118C13.436 50.2134 13.4351 50.2154 13.4349 50.2158ZM11.3921 50.219C11.3921 49.0853 12.3112 48.1662 13.4449 48.1662H21.5641C22.6978 48.1662 23.6168 49.0853 23.6168 50.219V66.5187C23.6168 67.6524 22.6978 68.5714 21.5641 68.5714H13.4449C12.3112 68.5714 11.3921 67.6524 11.3921 66.5187V50.219Z" fill="#E1000F"/>
        <path fill-rule="evenodd" clip-rule="evenodd" d="M26.7213 36.9321C26.7213 36.3681 27.1786 35.9108 27.7426 35.9108H31.8277C32.3918 35.9108 32.849 36.3681 32.849 36.9321C32.849 37.4961 32.3918 37.9534 31.8277 37.9534H27.7426C27.1786 37.9534 26.7213 37.4961 26.7213 36.9321Z" fill="#E1000F"/>
        <path fill-rule="evenodd" clip-rule="evenodd" d="M15.4772 53.2646C15.4772 52.7006 15.9345 52.2434 16.4985 52.2434H18.5513C19.1153 52.2434 19.5726 52.7006 19.5726 53.2646C19.5726 53.8287 19.1153 54.2859 18.5513 54.2859H16.4985C15.9345 54.2859 15.4772 53.8287 15.4772 53.2646Z" fill="#E1000F"/>
        <path d="M29.7951 57.3578C30.3592 57.3578 30.8164 56.9005 30.8164 56.3365C30.8164 55.7724 30.3592 55.3152 29.7951 55.3152C29.2311 55.3152 28.7738 55.7724 28.7738 56.3365C28.7738 56.9005 29.2311 57.3578 29.7951 57.3578Z" fill="#FF1717"/>
        <path d="M17.4998 63.4855C18.0639 63.4855 18.5211 63.0282 18.5211 62.4642C18.5211 61.9001 18.0639 61.4429 17.4998 61.4429C16.9358 61.4429 16.4786 61.9001 16.4786 62.4642C16.4786 63.0282 16.9358 63.4855 17.4998 63.4855Z" fill="#FF1717"/>
    </g>
    <defs>
        <clipPath id="clip0_1394_41277">
            <rect width="80" height="80" fill="white"/>
        </clipPath>
    </defs>
</svg>
