<svg width="80" height="80" viewBox="0 0 80 80" fill="none" xmlns="http://www.w3.org/2000/svg">
    <g clip-path="url(#clip0_1456_34307)">
        <path fill-rule="evenodd" clip-rule="evenodd" d="M11.3948 43.0731C11.3948 42.5096 11.8516 42.0527 12.4152 42.0527H41.0376C41.6012 42.0527 42.058 42.5096 42.058 43.0731V67.5527C42.058 68.1163 41.6012 68.5731 41.0376 68.5731H12.4152C11.8516 68.5731 11.3948 68.1163 11.3948 67.5527V43.0731ZM13.4356 44.0936V66.5323H40.0172V44.0936H13.4356Z" fill="#000091"/>
        <path fill-rule="evenodd" clip-rule="evenodd" d="M32.0803 48.5305C32.4359 48.1038 33.0676 48.0399 33.5014 48.3868L38.5933 52.4582C39.0334 52.8102 39.1049 53.4523 38.753 53.8924C38.401 54.3326 37.7589 54.4041 37.3188 54.0522L33.0079 50.6052L23.444 62.0819C23.256 62.3075 22.98 62.4411 22.6865 62.4487C22.393 62.4563 22.1104 62.3371 21.911 62.1216L18.2201 58.1317L13.1335 63.1738C12.7333 63.5705 12.0872 63.5677 11.6905 63.1674C11.2937 62.7672 11.2966 62.1211 11.6968 61.7244L17.5336 55.9387C17.7301 55.7438 17.9973 55.6372 18.274 55.6432C18.5507 55.6492 18.8131 55.7673 19.001 55.9704L22.6201 59.8827L32.0803 48.5305Z" fill="#000091"/>
        <path fill-rule="evenodd" clip-rule="evenodd" d="M21.6289 48.1434C20.4962 48.1434 19.5779 49.0616 19.5779 50.1944C19.5779 51.3271 20.4962 52.2454 21.6289 52.2454C22.7617 52.2454 23.68 51.3271 23.68 50.1944C23.68 49.0616 22.7617 48.1434 21.6289 48.1434ZM17.5371 50.1944C17.5371 47.9345 19.3691 46.1025 21.6289 46.1025C23.8888 46.1025 25.7208 47.9345 25.7208 50.1944C25.7208 52.4542 23.8888 54.2862 21.6289 54.2862C19.3691 54.2862 17.5371 52.4542 17.5371 50.1944Z" fill="#E1000F"/>
        <path fill-rule="evenodd" clip-rule="evenodd" d="M21.6287 12.449C21.6287 11.8854 22.0855 11.4286 22.6491 11.4286H46.1185C46.3898 11.4286 46.65 11.5367 46.8415 11.729L53.9742 18.8923C54.1646 19.0835 54.2715 19.3424 54.2715 19.6123V24.7041C54.2715 25.2677 53.8147 25.7245 53.2511 25.7245C52.6876 25.7245 52.2307 25.2677 52.2307 24.7041V20.0337L45.6945 13.4694H23.6695V38.9898C23.6695 39.5534 23.2126 40.0102 22.6491 40.0102C22.0855 40.0102 21.6287 39.5534 21.6287 38.9898V12.449Z" fill="#000091"/>
        <path fill-rule="evenodd" clip-rule="evenodd" d="M45.0883 11.4286C45.6518 11.4286 46.1087 11.8854 46.1087 12.449V19.5816H53.2515C53.8151 19.5816 54.272 20.0385 54.272 20.6021C54.272 21.1656 53.8151 21.6225 53.2515 21.6225H45.0883C44.5247 21.6225 44.0679 21.1656 44.0679 20.6021V12.449C44.0679 11.8854 44.5247 11.4286 45.0883 11.4286Z" fill="#000091"/>
        <path fill-rule="evenodd" clip-rule="evenodd" d="M26.7307 18.5714C26.7307 18.0079 27.1876 17.551 27.7511 17.551H39.996C40.5596 17.551 41.0164 18.0079 41.0164 18.5714C41.0164 19.135 40.5596 19.5918 39.996 19.5918H27.7511C27.1876 19.5918 26.7307 19.135 26.7307 18.5714Z" fill="#E1000F"/>
        <path fill-rule="evenodd" clip-rule="evenodd" d="M26.7307 24.7138C26.7307 24.1502 27.1876 23.6934 27.7511 23.6934H48.1593C48.7228 23.6934 49.1797 24.1502 49.1797 24.7138C49.1797 25.2773 48.7228 25.7342 48.1593 25.7342H27.7511C27.1876 25.7342 26.7307 25.2773 26.7307 24.7138Z" fill="#E1000F"/>
        <path fill-rule="evenodd" clip-rule="evenodd" d="M26.7307 30.8163C26.7307 30.2528 27.1876 29.7959 27.7511 29.7959H30.8021C31.3657 29.7959 31.8225 30.2528 31.8225 30.8163C31.8225 31.3799 31.3657 31.8367 30.8021 31.8367H27.7511C27.1876 31.8367 26.7307 31.3799 26.7307 30.8163Z" fill="#E1000F"/>
        <path fill-rule="evenodd" clip-rule="evenodd" d="M44.5616 38.1236C44.8624 37.9377 45.2381 37.9208 45.5544 38.0789L55.7381 43.1708C56.0836 43.3435 56.302 43.6967 56.3021 44.083C56.3023 44.4694 56.0842 44.8227 55.7388 44.9958L45.5551 50.0978C45.2388 50.2563 44.863 50.2396 44.5619 50.0537C44.2609 49.8678 44.0776 49.5393 44.0776 49.1855V38.9916C44.0776 38.638 44.2608 38.3095 44.5616 38.1236ZM46.1185 40.6427V47.5329L53.0018 44.0844L46.1185 40.6427Z" fill="#E1000F"/>
        <path fill-rule="evenodd" clip-rule="evenodd" d="M29.792 28.7636C29.792 28.2 30.2488 27.7432 30.8124 27.7432H67.5573C68.1209 27.7432 68.5777 28.2 68.5777 28.7636V55.2942C68.5777 55.8577 68.1209 56.3146 67.5573 56.3146H45.1083C44.5448 56.3146 44.0879 55.8577 44.0879 55.2942C44.0879 54.7306 44.5448 54.2738 45.1083 54.2738H66.5369V29.784H31.8328V37.9575C31.8328 38.521 31.376 38.9779 30.8124 38.9779C30.2488 38.9779 29.792 38.521 29.792 37.9575V28.7636Z" fill="#000091"/>
        <path fill-rule="evenodd" clip-rule="evenodd" d="M29.792 34.898C29.792 34.3344 30.2488 33.8776 30.8124 33.8776H62.4451C63.0086 33.8776 63.4655 34.3344 63.4655 34.898C63.4655 35.4615 63.0086 35.9184 62.4451 35.9184H30.8124C30.2488 35.9184 29.792 35.4615 29.792 34.898Z" fill="#000091"/>
        <path d="M27.7516 37.9796C28.3208 37.9796 28.7822 37.5181 28.7822 36.9489C28.7822 36.3798 28.3208 35.9183 27.7516 35.9183C27.1824 35.9183 26.7209 36.3798 26.7209 36.9489C26.7209 37.5181 27.1824 37.9796 27.7516 37.9796Z" fill="#E1000F"/>
    </g>
    <defs>
        <clipPath id="clip0_1456_34307">
            <rect width="80" height="80" fill="white"/>
        </clipPath>
    </defs>
</svg>
