<svg width="80" height="80" viewBox="0 0 80 80" fill="none" xmlns="http://www.w3.org/2000/svg">
    <g clip-path="url(#clip0_1456_34724)">
        <path fill-rule="evenodd" clip-rule="evenodd" d="M40.8191 13.4662C38.0023 13.4662 35.7188 15.7497 35.7188 18.5665C35.7188 21.3833 38.0023 23.6668 40.8191 23.6668C43.6359 23.6668 45.9194 21.3833 45.9194 18.5665C45.9194 15.7497 43.6359 13.4662 40.8191 13.4662ZM33.6787 18.5665C33.6787 14.623 36.8756 11.4261 40.8191 11.4261C44.7626 11.4261 47.9595 14.623 47.9595 18.5665C47.9595 22.51 44.7626 25.7069 40.8191 25.7069C36.8756 25.7069 33.6787 22.51 33.6787 18.5665Z" fill="#000091"/>
        <path fill-rule="evenodd" clip-rule="evenodd" d="M35.7288 25.7178C31.789 25.7178 28.5884 28.9185 28.5884 32.8582V42.967C28.5884 45.8167 30.2592 48.2608 32.6584 49.4088V64.4902C32.6584 66.7468 34.482 68.5704 36.7386 68.5704H44.8787C45.1955 68.5704 45.5036 68.534 45.7992 68.4654C47.6316 68.064 48.9995 66.4344 48.9995 64.48C48.9995 63.9166 48.5428 63.4599 47.9794 63.4599C47.4161 63.4599 46.9594 63.9166 46.9594 64.48C46.9594 64.9871 46.776 65.45 46.4717 65.8062C46.4182 65.8423 46.3673 65.884 46.3199 65.9314C46.06 66.1914 45.7306 66.3821 45.3621 66.4723C45.2196 66.5036 45.0714 66.5201 44.9192 66.5201C44.8701 66.5201 44.8217 66.5236 44.7744 66.5303H36.7386C35.6087 66.5303 34.6985 65.6201 34.6985 64.4902V48.7303C34.6985 48.2994 34.4278 47.915 34.0221 47.7699C32.0447 47.0625 30.6285 45.1812 30.6285 42.967V32.8582C30.6285 30.0452 32.9157 27.7579 35.7288 27.7579C36.2921 27.7579 36.7488 27.3013 36.7488 26.7379C36.7488 26.1745 36.2921 25.7178 35.7288 25.7178Z" fill="#000091"/>
        <path fill-rule="evenodd" clip-rule="evenodd" d="M35.7088 31.8272C36.2721 31.8272 36.7288 32.2839 36.7288 32.8473V43.1192C36.7288 43.6826 36.2721 44.1393 35.7088 44.1393C35.1454 44.1393 34.6887 43.6826 34.6887 43.1192V32.8473C34.6887 32.2839 35.1454 31.8272 35.7088 31.8272Z" fill="#000091"/>
        <path fill-rule="evenodd" clip-rule="evenodd" d="M45.9305 25.7178C45.3671 25.7178 44.9104 26.1745 44.9104 26.7379C44.9104 27.3013 45.3671 27.7579 45.9305 27.7579C48.7435 27.7579 51.0307 30.0452 51.0307 32.8582V42.967C51.0307 44.6236 50.2337 46.0964 49.0006 47.0281V43.0269C49.0006 42.4636 48.5439 42.0069 47.9805 42.0069C47.4172 42.0069 46.9605 42.4636 46.9605 43.0269V48.1578C46.9605 48.2347 46.969 48.3096 46.9851 48.3816C46.9428 48.4941 46.9199 48.6153 46.9199 48.7405V50.1992C46.9199 50.7626 47.3766 51.2192 47.94 51.2192C48.5033 51.2192 48.96 50.7626 48.96 50.1992V49.4235C51.3798 48.2832 53.0709 45.8289 53.0709 42.967V32.8582C53.0709 28.9185 49.8702 25.7178 45.9305 25.7178Z" fill="#000091"/>
        <path fill-rule="evenodd" clip-rule="evenodd" d="M41.869 52.2482C41.307 52.2482 40.849 52.7027 40.849 53.2683C40.849 53.8317 40.3923 54.2884 39.8289 54.2884C39.2655 54.2884 38.8088 53.8317 38.8088 53.2683C38.8088 51.5694 40.1869 50.2081 41.869 50.2081H54.0791C55.778 50.2081 57.1393 51.5862 57.1393 53.2683V59.358C57.1393 61.057 55.7612 62.4182 54.0791 62.4182H41.869C40.1701 62.4182 38.8088 61.0401 38.8088 59.358V58.3686C38.8088 57.8052 39.2655 57.3485 39.8289 57.3485C40.3923 57.3485 40.849 57.8052 40.849 58.3686V59.358C40.849 59.9201 41.3034 60.3781 41.869 60.3781H54.0791C54.6411 60.3781 55.0991 59.9236 55.0991 59.358V53.2683C55.0991 52.7063 54.6447 52.2482 54.0791 52.2482H41.869Z" fill="#E1000F"/>
    </g>
    <defs>
        <clipPath id="clip0_1456_34724">
            <rect width="80" height="80" fill="white"/>
        </clipPath>
    </defs>
</svg>
