<svg width="57" height="56" viewBox="0 0 57 56" fill="none" xmlns="http://www.w3.org/2000/svg">
    <path fill-rule="evenodd" clip-rule="evenodd" d="M34.806 33.2908C35.2749 33.2908 35.655 33.6709 35.655 34.1397C35.655 36.3535 35.0454 37.8611 33.9854 38.7945C32.9455 39.7102 31.6311 39.9295 30.5274 39.9295C28.1098 39.9295 26.8785 40.5295 26.2455 41.1609C25.6133 41.7915 25.4337 42.5974 25.4337 43.3253C25.4337 43.7941 25.0536 44.1742 24.5848 44.1742C24.1159 44.1742 23.7358 43.7941 23.7358 43.3253C23.7358 42.3382 23.9808 41.0218 25.0464 39.9588C26.1113 38.8965 27.8513 38.2316 30.5274 38.2316C31.4441 38.2316 32.2691 38.0434 32.8634 37.5202C33.4376 37.0146 33.9571 36.0518 33.9571 34.1397C33.9571 33.6709 34.3372 33.2908 34.806 33.2908Z" fill="#000091"/>
    <path fill-rule="evenodd" clip-rule="evenodd" d="M41.5638 33.2737C42.0326 33.2737 42.4127 33.6538 42.4127 34.1226C42.4127 35.2911 42.6185 36.2625 43.2512 36.9537C43.8737 37.6338 45.0791 38.223 47.5064 38.223C49.9166 38.223 52.634 40.2256 52.634 43.3082C52.634 43.777 52.2539 44.1571 51.785 44.1571C51.3162 44.1571 50.9361 43.777 50.9361 43.3082C50.9361 41.3141 49.1371 39.9209 47.5064 39.9209C44.84 39.9209 43.0741 39.2749 41.9987 38.1001C40.9335 36.9363 40.7148 35.4331 40.7148 34.1226C40.7148 33.6538 41.0949 33.2737 41.5638 33.2737Z" fill="#000091"/>
    <path fill-rule="evenodd" clip-rule="evenodd" d="M30.6205 21.7936C31.058 21.9621 31.2761 22.4534 31.1075 22.8909C30.7457 23.8301 30.5446 24.8643 30.5446 25.9475C30.5446 30.461 34.0081 34.038 38.185 34.038C41.1529 34.038 43.7607 32.232 45.0217 29.5674C45.0325 29.5405 45.0448 29.5144 45.0582 29.489C45.5491 28.423 45.8255 27.2226 45.8255 25.9475C45.8255 25.5759 45.8023 25.2128 45.7559 24.8496C45.7257 24.6129 45.7965 24.3744 45.9509 24.1926C46.1054 24.0107 46.3292 23.9022 46.5676 23.8937L46.598 24.7421C46.5676 23.8937 46.5681 23.8936 46.5685 23.8936L46.5694 23.8936L46.5714 23.8935L46.5761 23.8934L46.5885 23.8931C46.598 23.8929 46.6101 23.8927 46.6245 23.8927C46.6534 23.8926 46.692 23.893 46.7388 23.8946C46.8323 23.8977 46.9605 23.9058 47.1122 23.9251C47.4113 23.9631 47.8254 24.0475 48.2513 24.2404C48.6805 24.4347 49.1412 24.7485 49.4928 25.2512C49.8486 25.7601 50.0532 26.4065 50.0532 27.1955C50.0532 27.9392 49.9111 28.5768 49.6237 29.1054C49.3328 29.6405 48.9191 30.0158 48.4563 30.2674C47.7734 30.6388 46.991 30.736 46.3258 30.7451C44.7308 33.7143 41.6986 35.7358 38.185 35.7358C32.9896 35.7358 28.8467 31.3158 28.8467 25.9475C28.8467 24.6538 29.087 23.4128 29.5232 22.2806C29.6917 21.843 30.183 21.625 30.6205 21.7936ZM47.0674 28.9744C47.2826 28.9313 47.4776 28.8669 47.6453 28.7758C47.8499 28.6645 48.013 28.5134 48.132 28.2945C48.2545 28.0692 48.3553 27.7252 48.3553 27.1955C48.3553 26.7111 48.2342 26.4141 48.1014 26.2242C47.9642 26.0282 47.7734 25.8878 47.551 25.7871C47.5413 25.7827 47.5317 25.7784 47.522 25.7742C47.5229 25.8319 47.5234 25.8896 47.5234 25.9475C47.5234 27.0018 47.3636 28.0195 47.0674 28.9744Z" fill="#000091"/>
    <path fill-rule="evenodd" clip-rule="evenodd" d="M27.9826 22.1036L37.604 20.5356L38.25 19.2502C38.4605 18.8312 38.9708 18.6623 39.3897 18.8728C39.8087 19.0833 39.9776 19.5936 39.7671 20.0126L38.9266 21.685C38.8045 21.9281 38.5732 22.0979 38.3046 22.1417L27.209 23.9499C26.9664 23.9894 26.7185 23.9219 26.5295 23.7647C26.3405 23.6075 26.229 23.376 26.2237 23.1303L27.0724 23.112C26.2237 23.1303 26.2237 23.1298 26.2237 23.1293L26.2236 23.128L26.2236 23.1248L26.2234 23.1154L26.2232 23.0852C26.2231 23.06 26.2231 23.0249 26.2238 22.9806C26.225 22.892 26.2284 22.7662 26.237 22.6086C26.2542 22.2937 26.2921 21.85 26.3748 21.3208C26.5397 20.2666 26.8862 18.8498 27.6194 17.4321C28.3552 16.0092 29.4861 14.5761 31.2151 13.5229C32.9462 12.4683 35.2217 11.8284 38.1904 11.9063C41.1509 11.984 43.4096 12.7025 45.1222 13.78C46.8341 14.857 47.9549 16.2639 48.6842 17.6495C49.4109 19.0299 49.7511 20.3918 49.911 21.4029C49.9912 21.9102 50.0269 22.3343 50.0424 22.6354C50.0502 22.7861 50.0529 22.9065 50.0537 22.9915C50.0541 23.034 50.0539 23.0678 50.0537 23.0921L50.0533 23.1215L50.0531 23.1308L50.053 23.134L50.0529 23.1353C50.0529 23.1359 50.0529 23.1364 49.2043 23.112L50.0529 23.1364C50.0455 23.3948 49.9207 23.6359 49.7138 23.7911C49.507 23.9463 49.2407 23.9987 48.9905 23.9336L42.1735 22.1593C41.7197 22.0412 41.4477 21.5776 41.5658 21.1239C41.6838 20.6702 42.1474 20.3981 42.6012 20.5162L48.2805 21.9944C48.2674 21.8912 48.252 21.7822 48.2339 21.6681C48.0941 20.7837 47.7986 19.612 47.1818 18.4403C46.5677 17.2738 45.6372 16.11 44.2181 15.2171C42.7998 14.3248 40.8477 13.6745 38.1458 13.6036C35.4521 13.5329 33.5094 14.1134 32.0984 14.9729C30.6851 15.8338 29.7499 17.0085 29.1275 18.212C28.5024 19.4207 28.1984 20.6489 28.0523 21.5831C28.0231 21.7702 28.0003 21.9446 27.9826 22.1036Z" fill="#000091"/>
    <path fill-rule="evenodd" clip-rule="evenodd" d="M28.6046 28.674C28.884 28.8911 29.3417 29.0391 30.1036 28.7461C30.5412 28.5778 31.0324 28.7961 31.2008 29.2337C31.3691 29.6713 31.1508 30.1625 30.7131 30.3308C29.4886 30.8017 28.3853 30.6538 27.5629 30.0147C26.7837 29.4093 26.384 28.4613 26.2922 27.5558C26.2003 26.6496 26.4018 25.6465 27.0036 24.8884C27.6398 24.0869 28.6463 23.6598 29.9023 23.8424C30.3663 23.9098 30.6877 24.3406 30.6203 24.8046C30.5529 25.2686 30.1221 25.59 29.6581 25.5226C28.9572 25.4207 28.5672 25.6495 28.3335 25.9439C28.0654 26.2817 27.9236 26.8147 27.9814 27.3846C28.0392 27.9552 28.2821 28.4233 28.6046 28.674Z" fill="#000091"/>
    <path fill-rule="evenodd" clip-rule="evenodd" d="M32.6163 37.705C33.0198 37.4661 33.5405 37.5996 33.7793 38.0031C34.2238 38.754 34.4454 39.0127 34.763 39.1536C35.1234 39.3135 35.7595 39.3836 37.207 39.2059C37.6723 39.1487 38.0959 39.4796 38.1531 39.945C38.2102 40.4104 37.8793 40.8339 37.4139 40.8911C35.958 41.0699 34.9005 41.0721 34.0745 40.7056C33.2058 40.3202 32.7481 39.5942 32.3182 38.8679C32.0794 38.4645 32.2129 37.9438 32.6163 37.705Z" fill="#000091"/>
    <path fill-rule="evenodd" clip-rule="evenodd" d="M19.5164 16.9996C19.0522 16.9996 18.6759 17.3759 18.6759 17.8401V41.6359C18.6759 42.1001 19.0522 42.4764 19.5164 42.4764C19.9805 42.4764 20.3568 42.1001 20.3568 41.6359V17.8401C20.3568 17.3759 19.9805 16.9996 19.5164 16.9996ZM19.5164 44.1742C18.1145 44.1742 16.978 43.0378 16.978 41.6359V17.8401C16.978 16.4382 18.1145 15.3018 19.5164 15.3018C20.9182 15.3018 22.0547 16.4382 22.0547 17.8401V41.6359C22.0547 43.0378 20.9182 44.1742 19.5164 44.1742Z" fill="#E1000F"/>
    <path fill-rule="evenodd" clip-rule="evenodd" d="M11.8762 28.8849C11.4121 28.8849 11.0358 29.2612 11.0358 29.7253V41.6275C11.0358 42.0917 11.4121 42.468 11.8762 42.468C12.3404 42.468 12.7167 42.0917 12.7167 41.6275V29.7253C12.7167 29.2612 12.3404 28.8849 11.8762 28.8849ZM9.33789 29.7253C9.33789 28.3235 10.4743 27.187 11.8762 27.187C13.2781 27.187 14.4146 28.3235 14.4146 29.7253V41.6275C14.4146 43.0294 13.2781 44.1658 11.8762 44.1658C10.4743 44.1658 9.33789 43.0294 9.33789 41.6275V29.7253Z" fill="#E1000F"/>
    <path fill-rule="evenodd" clip-rule="evenodd" d="M5.88263 34.0381C6.35149 34.0381 6.73157 34.4182 6.73157 34.887V43.317C6.73157 43.7859 6.35149 44.166 5.88263 44.166C5.41378 44.166 5.03369 43.7859 5.03369 43.317V34.887C5.03369 34.4182 5.41378 34.0381 5.88263 34.0381Z" fill="#E1000F"/>
</svg>
