<svg width="80" height="80" viewBox="0 0 80 80" fill="none" xmlns="http://www.w3.org/2000/svg">
    <g clip-path="url(#clip0_1456_34256)">
        <path fill-rule="evenodd" clip-rule="evenodd" d="M70.3374 16.2886C64.7856 10.4966 55.9241 9.85482 49.6574 14.5059L70.3374 16.2886ZM49.6574 14.5059C43.3816 9.85542 34.5315 10.4959 28.979 16.2885C27.4716 17.8567 26.4014 19.7837 25.7646 21.9176C25.5734 22.5582 25.9447 23.2304 26.5939 23.4191C27.2431 23.6077 27.9243 23.2413 28.1155 22.6007C28.655 20.7929 29.545 19.2135 30.7576 17.9523L30.7589 17.951C35.652 12.8456 43.5483 12.4839 48.861 16.9744C49.3202 17.3625 49.9975 17.3621 50.4562 16.9735C55.7559 12.4846 63.6639 12.8452 68.5574 17.951C70.9964 20.4924 72.0749 24.3469 71.791 28.397C71.5077 32.4391 69.875 36.5065 67.1244 39.3719C65.0405 41.5445 62.1311 43.8698 58.3417 46.3548C57.778 46.7244 57.6248 47.4749 57.9993 48.0311C58.3739 48.5873 59.1344 48.7386 59.6981 48.369C63.5792 45.8239 66.6497 43.3848 68.9036 41.0351C72.0959 37.7094 73.9187 33.0888 74.2359 28.5638C74.5524 24.0471 73.3753 19.4546 70.3374 16.2886" fill="#E1000F"/>
        <path fill-rule="evenodd" clip-rule="evenodd" d="M23.1577 26.9052C23.1577 26.2473 23.7088 25.7141 24.3885 25.7141H40.0202C40.7 25.7141 41.2511 26.2473 41.2511 26.9052V38.3878H53.0549C53.7346 38.3878 54.2857 38.921 54.2857 39.5789V54.7778C54.2857 55.4357 53.7346 55.969 53.0549 55.969H41.2511V67.3801C41.2511 68.0379 40.7 68.5712 40.0202 68.5712H24.3885C23.7088 68.5712 23.1577 68.0379 23.1577 67.3801V55.969H11.2308C10.5511 55.969 10 55.4357 10 54.7778V45.9753C10 45.3175 10.5511 44.7842 11.2308 44.7842C11.9106 44.7842 12.4617 45.3175 12.4617 45.9753V53.5867H24.3885C25.0683 53.5867 25.6194 54.12 25.6194 54.7778V66.1889H38.7894V54.7778C38.7894 54.12 39.3405 53.5867 40.0202 53.5867H51.824V40.77H40.0202C39.3405 40.77 38.7894 40.2367 38.7894 39.5789V28.0963H25.6194V39.5789C25.6194 40.2367 25.0683 40.77 24.3885 40.77H11.2308C10.5511 40.77 10 40.2367 10 39.5789C10 38.921 10.5511 38.3878 11.2308 38.3878H23.1577V26.9052Z" fill="#000091"/>
    </g>
    <defs>
        <clipPath id="clip0_1456_34256">
            <rect width="80" height="80" fill="white"/>
        </clipPath>
    </defs>
</svg>
