<svg width="80" height="80" viewBox="0 0 80 80" fill="none" xmlns="http://www.w3.org/2000/svg">
    <g clip-path="url(#clip0_1456_34433)">
        <path fill-rule="evenodd" clip-rule="evenodd" d="M26.6352 35.3284C26.7378 35.8635 26.8292 36.3743 26.8517 36.7503C26.8975 37.5161 26.7069 38.6078 26.4116 39.7653C26.1076 40.9569 25.6629 42.3292 25.1302 43.7042C24.0844 46.4038 22.6263 49.3062 21.1139 50.8186C20.716 51.2165 20.0709 51.2165 19.673 50.8186C19.275 50.4206 19.275 49.7755 19.673 49.3776C20.8608 48.1898 22.1946 45.6408 23.2299 42.9681C23.7378 41.657 24.156 40.3628 24.437 39.2615C24.7266 38.126 24.843 37.2984 24.8174 36.872C24.8043 36.6519 24.7416 36.2747 24.6337 35.712C24.6006 35.539 24.5636 35.3508 24.5244 35.1507C24.4429 34.7357 24.3515 34.2697 24.2629 33.7825C23.9989 32.3309 23.7356 30.5663 23.747 28.8541C23.7584 27.1629 24.037 25.3776 24.9871 23.9923C25.9868 22.5347 27.6163 21.6799 29.9409 21.6799C31.7085 21.6799 33.0267 22.2484 33.9649 23.2533C34.8643 24.2168 35.3188 25.4819 35.6013 26.6966C35.8037 27.5666 35.9367 28.5109 36.0587 29.3768C36.1051 29.7063 36.1499 30.0244 36.1963 30.3227C36.3766 31.4814 36.5816 32.3541 36.9219 32.9309C37.3352 33.6313 37.9413 34.4371 38.6252 35.3182C38.7345 35.459 38.8457 35.6016 38.9579 35.7456C39.5313 36.4812 40.1324 37.2522 40.6432 37.9901C41.2425 38.8557 41.7989 39.7872 42.0292 40.6655C42.1474 41.1163 42.198 41.6187 42.072 42.12C41.9402 42.6442 41.635 43.0869 41.1828 43.4192C40.6367 43.8218 39.9429 44.1193 39.1107 43.868C38.4145 43.6578 37.8006 43.1026 37.1999 42.4398C36.3512 41.5035 35.227 39.9921 33.6159 37.8178C34.0559 39.4161 34.6904 41.1104 35.4003 42.7393C36.7292 45.7886 38.2479 48.4441 39.0029 49.5406C39.3221 50.004 39.2051 50.6385 38.7416 50.9577C38.2781 51.2768 37.6436 51.1598 37.3245 50.6963C36.4798 49.4696 34.9009 46.6942 33.5321 43.5534C32.1753 40.4401 30.9496 36.8009 30.9496 33.897C30.9496 33.4584 31.2303 33.069 31.6463 32.9303C32.0624 32.7916 32.5206 32.9347 32.7837 33.2856C33.7061 34.5154 34.5034 35.5915 35.1985 36.5297C36.8371 38.7414 37.9078 40.1865 38.7098 41.0712C39.2935 41.7152 39.584 41.8822 39.6997 41.9172C39.7192 41.923 39.7212 41.9223 39.7253 41.9209L39.7282 41.92C39.7533 41.9132 39.8289 41.8855 39.9738 41.7786L39.9758 41.7771C40.068 41.7096 40.0857 41.6623 40.0956 41.6232C40.1113 41.5606 40.1218 41.4256 40.058 41.1824C39.9244 40.6728 39.5491 39.9898 38.9677 39.1501C38.4929 38.4642 37.9347 37.748 37.3611 37.012C37.2463 36.8646 37.1308 36.7165 37.0153 36.5677C36.3393 35.6966 35.6552 34.7943 35.1667 33.9664C34.6052 33.0147 34.3606 31.7796 34.1827 30.6361C34.1264 30.274 34.0762 29.9177 34.0268 29.5667C33.9098 28.7357 33.797 27.9348 33.6164 27.1583C33.3628 26.0676 33.0116 25.2185 32.4753 24.644C31.9777 24.111 31.2301 23.7178 29.9409 23.7178C28.1745 23.7178 27.2273 24.329 26.6677 25.1449C26.0585 26.0331 25.7952 27.3289 25.7849 28.8677C25.7747 30.3855 26.01 31.9999 26.2679 33.4179C26.3541 33.8922 26.4402 34.3306 26.5201 34.7377C26.5603 34.9424 26.5989 35.139 26.6352 35.3284Z" fill="#000091"/>
        <path fill-rule="evenodd" clip-rule="evenodd" d="M36.2463 51.6114C36.4068 52.1507 36.0997 52.7181 35.5603 52.8786C35.0247 53.038 34.4961 53.1408 34.0164 53.2004V64.4961C34.0164 66.7502 32.1948 68.5718 29.9406 68.5718C27.6865 68.5718 25.8649 66.7502 25.8649 64.4961V53.215C25.4345 53.1781 24.894 53.1148 24.3043 53.0059C23.751 52.9038 23.3852 52.3723 23.4873 51.8189C23.5895 51.2655 24.1209 50.8997 24.6743 51.0019C25.2903 51.1156 25.8498 51.1729 26.2551 51.2015C26.457 51.2157 26.6189 51.2228 26.7281 51.2262C26.7827 51.2279 26.824 51.2288 26.8506 51.2292L26.8789 51.2295L26.8838 51.2295C27.154 51.2296 27.4133 51.3369 27.6043 51.528C27.7954 51.719 27.9028 51.9782 27.9028 52.2485V64.4961C27.9028 65.6248 28.8119 66.5339 29.9406 66.5339C31.0693 66.5339 31.9785 65.6248 31.9785 64.4961V52.2485C31.9785 51.6857 32.4347 51.2295 32.9974 51.2295C33.4862 51.2295 34.2234 51.1503 34.979 50.9254C35.5184 50.7649 36.0858 51.072 36.2463 51.6114Z" fill="#000091"/>
        <path fill-rule="evenodd" clip-rule="evenodd" d="M31.9795 13.5285C30.2969 13.5285 28.9329 14.8925 28.9329 16.5751C28.9329 18.2577 30.2969 19.6217 31.9795 19.6217C33.6621 19.6217 35.0261 18.2577 35.0261 16.5751C35.0261 14.8925 33.6621 13.5285 31.9795 13.5285ZM26.895 16.5751C26.895 13.767 29.1714 11.4906 31.9795 11.4906C34.7876 11.4906 37.064 13.767 37.064 16.5751C37.064 19.3832 34.7876 21.6596 31.9795 21.6596C29.1714 21.6596 26.895 19.3832 26.895 16.5751Z" fill="#E1000F"/>
        <path fill-rule="evenodd" clip-rule="evenodd" d="M52.3569 27.7737C51.2258 27.7737 50.3089 28.6907 50.3089 29.8218C50.3089 30.9529 51.2258 31.8698 52.3569 31.8698C53.488 31.8698 54.405 30.9529 54.405 29.8218C54.405 28.6907 53.488 27.7737 52.3569 27.7737ZM48.271 29.8218C48.271 27.5652 50.1003 25.7358 52.3569 25.7358C54.6135 25.7358 56.4429 27.5652 56.4429 29.8218C56.4429 32.0784 54.6135 33.9077 52.3569 33.9077C50.1003 33.9077 48.271 32.0784 48.271 29.8218Z" fill="#E1000F"/>
        <path fill-rule="evenodd" clip-rule="evenodd" d="M46.2231 37.8817C46.2231 35.6275 48.0549 33.7958 50.3091 33.7958C52.5633 33.7958 54.395 35.6275 54.395 37.8817V65.4847C54.395 67.1683 53.0218 68.5415 51.3382 68.5415C49.658 68.5415 48.2814 67.1818 48.2814 65.4847V53.7736C47.0278 53.071 46.2231 51.7326 46.2231 50.2108V45.4932C46.2231 44.9304 46.6793 44.4742 47.2421 44.4742C47.8048 44.4742 48.261 44.9304 48.261 45.4932V50.2108C48.261 51.1334 48.8215 51.8812 49.6225 52.1482C50.0386 52.2869 50.3193 52.6762 50.3193 53.1148V65.4847C50.3193 66.0497 50.7768 66.5036 51.3382 66.5036C51.8963 66.5036 52.3571 66.0428 52.3571 65.4847V37.8817C52.3571 36.753 51.4378 35.8336 50.3091 35.8336C49.1804 35.8336 48.261 36.753 48.261 37.8817V39.8279C48.261 40.3906 47.8048 40.8468 47.2421 40.8468C46.6793 40.8468 46.2231 40.3906 46.2231 39.8279V37.8817Z" fill="#000091"/>
        <path fill-rule="evenodd" clip-rule="evenodd" d="M46.243 37.9829C45.1143 37.9829 44.2051 38.8921 44.2051 40.0208V44.0864C44.2051 45.2151 45.1143 46.1242 46.243 46.1242C46.4898 46.1242 46.7088 46.088 46.9008 46.0199C47.4311 45.8317 48.0136 46.1091 48.2018 46.6394C48.39 47.1697 48.1126 47.7522 47.5823 47.9404C47.1425 48.0965 46.6891 48.1621 46.243 48.1621C43.9888 48.1621 42.1672 46.3405 42.1672 44.0864V40.0208C42.1672 37.7666 43.9888 35.9451 46.243 35.9451C46.7609 35.9451 47.2324 36.0415 47.6724 36.1968C48.203 36.384 48.4814 36.9661 48.2941 37.4967C48.1068 38.0274 47.5248 38.3057 46.9941 38.1184C46.7412 38.0292 46.4994 37.9829 46.243 37.9829Z" fill="#000091"/>
        <path fill-rule="evenodd" clip-rule="evenodd" d="M53.3756 36.8606C53.9384 36.8606 54.3946 37.3168 54.3946 37.8795C54.3946 38.0795 54.4992 38.5156 54.8274 39.1688C55.1402 39.7913 55.6081 40.517 56.2084 41.2656C57.4138 42.7688 59.0877 44.2835 60.9639 45.2215C61.4672 45.4732 61.6712 46.0853 61.4195 46.5886C61.1679 47.0919 60.5558 47.2959 60.0525 47.0443C57.8529 45.9445 55.9605 44.2139 54.6186 42.5405C53.9452 41.7008 53.3942 40.8554 53.0064 40.0836C52.6341 39.3425 52.3567 38.561 52.3567 37.8795C52.3567 37.3168 52.8129 36.8606 53.3756 36.8606Z" fill="#000091"/>
    </g>
    <defs>
        <clipPath id="clip0_1456_34433">
            <rect width="80" height="80" fill="white"/>
        </clipPath>
    </defs>
</svg>
