<svg width="80" height="80" viewBox="0 0 80 80" fill="none" xmlns="http://www.w3.org/2000/svg">
    <path d="M54.4001 39.1C50.2001 39.1 46.8 35.7 46.8 31.5C46.8 27.3 50.2001 23.9 54.4001 23.9C58.6001 23.9 62 27.3 62 31.5C62 35.7 58.6001 39.1 54.4001 39.1ZM54.4001 25.9C51.3001 25.9 48.8 28.4 48.8 31.5C48.8 34.6 51.3001 37.1 54.4001 37.1C57.5001 37.1 60 34.6 60 31.5C60 28.4 57.5001 25.9 54.4001 25.9Z" fill="#000091"/>
    <path d="M54.1 53.7H49C48 53.7 47.3 52.9 47.3 52V49.3C47.3 48.7 47.7 48.3 48.3 48.3C48.9 48.3 49.3 48.7 49.3 49.3V51.8H54.1C54.7 51.8 55.1 52.2 55.1 52.8C55.1 53.4 54.7 53.7 54.1 53.7Z" fill="#000091"/>
    <path d="M52.5 59.4H46.5C43.7 59.4 41.5 57.2 41.5 54.4V48.8C41.5 44.4 45.1 40.8 49.5 40.8H59.1C61.1 40.8 63.1 41.6 64.6 43C65 43.4 65 44 64.6 44.4C64.2 44.8 63.6 44.8 63.2 44.4C62.1 43.4 60.6 42.8 59.1 42.8H49.5C46.2 42.8 43.5 45.5 43.5 48.8V54.4C43.5 56.1 44.9 57.4 46.5 57.4H52.5C53.1 57.4 53.5 57.8 53.5 58.4C53.5 59 53.1 59.4 52.5 59.4Z" fill="#000091"/>
    <path d="M51.2999 63.9H43.7C43.1 63.9 42.7 63.5 42.7 62.9C42.7 62.3 43.1 61.9 43.7 61.9H51.2999C51.9 61.9 52.2999 62.3 52.2999 62.9C52.2999 63.5 51.7999 63.9 51.2999 63.9Z" fill="#000091"/>
    <path d="M25.6 29.2C21.4 29.2 18 25.8 18 21.6C18 17.4 21.4 14 25.6 14C29.8 14 33.2 17.4 33.2 21.6C33.2 25.8 29.8 29.2 25.6 29.2ZM25.6 16.1C22.5 16.1 20 18.6 20 21.7C20 24.8 22.5 27.3 25.6 27.3C28.7 27.3 31.2 24.8 31.2 21.7C31.2 18.6 28.7 16.1 25.6 16.1Z" fill="#000091"/>
    <path d="M30.9 43.8H25.8C25.2 43.8 24.8 43.4 24.8 42.8C24.8 42.2 25.2 41.8 25.8 41.8H30.6V39.3C30.6 38.7 31.0001 38.3 31.6 38.3C32.2 38.3 32.6 38.7 32.6 39.3V42C32.7 43 31.9 43.8 30.9 43.8Z" fill="#000091"/>
    <path d="M33.4 49.6H27.4C26.8 49.6 26.4 49.2 26.4 48.6C26.4 48 26.8 47.6 27.4 47.6H33.4C35.1 47.6 36.4 46.2 36.4 44.6V39C36.4 35.7 33.7 33 30.4 33H20.8C19.3 33 17.8 33.6 16.7 34.6C16.3 35 15.7 35 15.3 34.6C14.9 34.2 14.9 33.6 15.3 33.2C16.8 31.8 18.7 31 20.8 31H30.4C34.8 31 38.4 34.6 38.4 39V44.6C38.4 47.3 36.2 49.6 33.4 49.6Z" fill="#000091"/>
    <path d="M36.4001 54.1H28.8C28.2 54.1 27.8 53.7 27.8 53.1C27.8 52.5 28.2 52.1 28.8 52.1H36.4001C37.0001 52.1 37.4001 52.5 37.4001 53.1C37.4001 53.7 36.9001 54.1 36.4001 54.1Z" fill="#000091"/>
    <path d="M28.7 54.1H9.40002C9.00002 54.1 8.60002 53.8 8.40002 53.4L4.10002 38.3C4.00002 38 4.10002 37.7 4.30002 37.4C4.50002 37.2 4.80002 37 5.10002 37H24.5C24.9 37 25.3 37.3 25.5 37.7L29.8 52.8C29.9 53.1 29.8 53.4 29.6 53.7C29.4 54 29.1 54.1 28.7 54.1ZM10.1 52.1H27.4L23.7 39H6.40002L10.1 52.1Z" fill="#E1000F"/>
    <path d="M70.6 63.9H51.3C51 63.9 50.7 63.8 50.5 63.5C50.3 63.3 50.3 62.9 50.3 62.6L54.6 47.5C54.7 47.1 55.1 46.8 55.6 46.8H75C75.3 46.8 75.6001 46.9 75.8001 47.2C76.0001 47.4 76 47.8 76 48.1L71.7 63.2C71.5 63.6 71.1 63.9 70.6 63.9ZM52.6 61.9H69.9001L73.6 48.8H56.3L52.6 61.9Z" fill="#E1000F"/>
</svg>
