<svg width="80" height="80" viewBox="0 0 80 80" fill="none" xmlns="http://www.w3.org/2000/svg">
    <path d="M11.1 49C10.9 49 10.7 48.9 10.5 48.8C10 48.5 9.9 47.9 10.2 47.4L12.2 44.5C12.5 44 13.1 43.9 13.6 44.2C14.1 44.5 14.2 45.1 13.9 45.6L11.9 48.5C11.8 48.8 11.5 49 11.1 49Z" fill="#E1000F"/>
    <path d="M27.3999 49C27.0999 49 26.7999 48.8 26.5999 48.6L24.5999 45.7C24.2999 45.2 24.3999 44.6 24.8999 44.3C25.3999 44 25.9999 44.1 26.2999 44.6L28.2999 47.5C28.5999 48 28.4999 48.6 27.9999 48.9C27.7999 48.9 27.5999 49 27.3999 49Z" fill="#E1000F"/>
    <path d="M51.2 14C50.6 14 50.2 13.6 50.2 13V9.09998C50.2 8.49998 50.6 8.09998 51.2 8.09998H61C61.6 8.09998 62 8.49998 62 9.09998V12.8C62 13.4 61.6 13.8 61 13.8C60.4 13.8 60 13.4 60 12.8V10.1H52.0999V13C52.1999 13.6 51.7 14 51.2 14Z" fill="#E1000F"/>
    <path d="M24.9001 21.8H13.1001C12.5001 21.8 12.1001 21.4 12.1001 20.8C12.1001 20.2 12.5001 19.8 13.1001 19.8H24.9001C25.5001 19.8 25.9001 20.2 25.9001 20.8C25.9001 21.4 25.5001 21.8 24.9001 21.8Z" fill="#E1000F"/>
    <path d="M25.6001 46.1H12.8001C10.2001 46.1 9.1001 44 9.1001 42.6V35.1V35L9.8001 28.8C10.1001 25.9 12.6001 25 13.9001 25L19.2001 24.5C19.3001 24.5 19.3001 24.5 19.4001 24.5L24.5001 25C25.7001 25 28.2001 25.9 28.5001 28.8L29.2001 35V35.1V42.6C29.2001 44 28.2001 46.1 25.6001 46.1ZM11.0001 35.1V42.5C11.0001 42.8 11.2001 44 12.7001 44H25.5001C27.1001 44 27.2001 42.6 27.2001 42.4V35L26.6001 29C26.4001 27.1 24.6001 26.9 24.4001 26.9L19.3001 26.4L14.0001 26.9C13.8001 26.9 12.0001 27.1 11.7001 29L11.0001 35.1Z" fill="#000091"/>
    <path d="M14.8 40.4C15.518 40.4 16.1 39.818 16.1 39.1C16.1 38.382 15.518 37.8 14.8 37.8C14.082 37.8 13.5 38.382 13.5 39.1C13.5 39.818 14.082 40.4 14.8 40.4Z" fill="#E1000F"/>
    <path d="M23.3 40.4C24.018 40.4 24.6 39.818 24.6 39.1C24.6 38.382 24.018 37.8 23.3 37.8C22.582 37.8 22 38.382 22 39.1C22 39.818 22.582 40.4 23.3 40.4Z" fill="#E1000F"/>
    <path d="M27.5999 35.3H10.8999C10.2999 35.3 9.8999 34.9 9.8999 34.3C9.8999 33.7 10.2999 33.3 10.8999 33.3H27.5999C28.1999 33.3 28.5999 33.7 28.5999 34.3C28.5999 34.9 28.0999 35.3 27.5999 35.3Z" fill="#000091"/>
    <path d="M48.5999 34.8C49.3731 34.8 50 34.1732 50 33.4C50 32.6268 49.3731 32 48.5999 32C47.8268 32 47.2 32.6268 47.2 33.4C47.2 34.1732 47.8268 34.8 48.5999 34.8Z" fill="#E1000F"/>
    <path d="M63.2999 34.8C64.0731 34.8 64.6999 34.1732 64.6999 33.4C64.6999 32.6268 64.0731 32 63.2999 32C62.5267 32 61.8999 32.6268 61.8999 33.4C61.8999 34.1732 62.5267 34.8 63.2999 34.8Z" fill="#E1000F"/>
    <path d="M46.1001 37.1V40.4H48.6001V37.1" fill="#E1000F"/>
    <path d="M48.6001 41.4H46.1001C45.5001 41.4 45.1001 41 45.1001 40.4V37.1C45.1001 36.5 45.5001 36.1 46.1001 36.1C46.7001 36.1 47.1001 36.5 47.1001 37.1V39.4H47.6001V37.1C47.6001 36.5 48.0001 36.1 48.6001 36.1C49.2001 36.1 49.6001 36.5 49.6001 37.1V40.4C49.6001 41 49.2001 41.4 48.6001 41.4Z" fill="#E1000F"/>
    <path d="M62.8999 37.1V40.4H65.3999V37.1" fill="#E1000F"/>
    <path d="M65.3999 41.4H62.8999C62.2999 41.4 61.8999 41 61.8999 40.4V37.1C61.8999 36.5 62.2999 36.1 62.8999 36.1C63.4999 36.1 63.8999 36.5 63.8999 37.1V39.4H64.3999V37.1C64.3999 36.5 64.7999 36.1 65.3999 36.1C65.9999 36.1 66.3999 36.5 66.3999 37.1V40.4C66.3999 41 65.9999 41.4 65.3999 41.4Z" fill="#E1000F"/>
    <path d="M64.4999 38.1H47.6999C45.8999 38.1 44.3999 36.6 44.3999 34.8V16C44.3999 14.2 45.8999 12.7 47.6999 12.7H64.5999C66.3999 12.7 67.8999 14.2 67.8999 16V34.8C67.7999 36.6 66.2999 38.1 64.4999 38.1ZM47.6999 14.8C46.9999 14.8 46.3999 15.4 46.3999 16.1V34.9C46.3999 35.6 46.9999 36.2 47.6999 36.2H64.5999C65.2999 36.2 65.8999 35.6 65.8999 34.9V16C65.8999 15.3 65.2999 14.7 64.5999 14.7H47.6999V14.8Z" fill="#000091"/>
    <path d="M70.9999 27.1H67.8999C67.2999 27.1 66.8999 26.7 66.8999 26.1C66.8999 25.5 67.2999 25.1 67.8999 25.1H69.9999V20.6H67.8999C67.2999 20.6 66.8999 20.2 66.8999 19.6C66.8999 19 67.2999 18.6 67.8999 18.6H70.9999C71.5999 18.6 71.9999 19 71.9999 19.6V26.1C71.9999 26.6 71.5999 27.1 70.9999 27.1Z" fill="#000091"/>
    <path d="M44.2999 27.1H41.2C40.6 27.1 40.2 26.7 40.2 26.1V19.6C40.2 19 40.6 18.6 41.2 18.6H44.2999C44.8999 18.6 45.2999 19 45.2999 19.6C45.2999 20.2 44.8999 20.6 44.2999 20.6H42.2V25.1H44.2999C44.8999 25.1 45.2999 25.5 45.2999 26.1C45.2999 26.7 44.8999 27.1 44.2999 27.1Z" fill="#000091"/>
    <path d="M63 20.5H49.2C48.6 20.5 48.2 20.1 48.2 19.5C48.2 18.9 48.6 18.5 49.2 18.5H63C63.6 18.5 64 18.9 64 19.5C64 20.1 63.6 20.5 63 20.5Z" fill="#000091"/>
    <path d="M66.3001 29.3H46.1001C45.5001 29.3 45.1001 28.9 45.1001 28.3C45.1001 27.7 45.5001 27.3 46.1001 27.3H66.3001C66.9001 27.3 67.3001 27.7 67.3001 28.3C67.3001 28.9 66.9001 29.3 66.3001 29.3Z" fill="#000091"/>
    <path d="M44.9999 66.7H37.7999C37.4999 66.7 37.1999 66.5 36.9999 66.3C36.7999 66.1 36.7999 65.7 36.8999 65.4L40.3999 57.2C40.5999 56.7 41.1999 56.5 41.6999 56.7C42.1999 56.9 42.3999 57.5 42.1999 58L39.2999 64.8H44.5999L52.3999 55.6C52.7999 55.2 53.3999 55.1 53.7999 55.5C54.1999 55.9 54.2999 56.5 53.8999 56.9L45.7999 66.4C45.4999 66.5 45.1999 66.7 44.9999 66.7Z" fill="#000091"/>
    <path d="M38.2001 71.9C35.2001 71.9 32.8 69.5 32.8 66.5C32.8 63.5 35.2001 61.1 38.2001 61.1C41.2001 61.1 43.6 63.5 43.6 66.5C43.6 69.5 41.2001 71.9 38.2001 71.9ZM38.2001 63.1C36.3001 63.1 34.8 64.6 34.8 66.5C34.8 68.4 36.3001 69.9 38.2001 69.9C40.1001 69.9 41.6 68.4 41.6 66.5C41.6 64.6 40.1001 63.1 38.2001 63.1Z" fill="#000091"/>
    <path d="M50.8999 51.8H46.3999C45.7999 51.8 45.3999 51.4 45.3999 50.8C45.3999 50.2 45.7999 49.8 46.3999 49.8H50.8999C51.4999 49.8 51.8999 50.2 51.8999 50.8C51.8999 51.4 51.4999 51.8 50.8999 51.8Z" fill="#000091"/>
    <path d="M55.7999 71.9C52.7999 71.9 50.3999 69.5 50.3999 66.5C50.3999 63.5 52.7999 61.1 55.7999 61.1C58.7999 61.1 61.1999 63.5 61.1999 66.5C61.1999 69.5 58.7999 71.9 55.7999 71.9ZM55.7999 63.1C53.8999 63.1 52.3999 64.6 52.3999 66.5C52.3999 68.4 53.8999 69.9 55.7999 69.9C57.6999 69.9 59.1999 68.4 59.1999 66.5C59.1999 64.6 57.6999 63.1 55.7999 63.1Z" fill="#000091"/>
    <path d="M55.8001 66.6C55.4001 66.6 55.0001 66.3 54.8001 65.9L50.5001 51.1C50.3001 50.6 50.7001 50 51.2001 49.9C51.7001 49.8 52.3001 50.1 52.4001 50.6L56.7001 65.4C56.9001 65.9 56.5001 66.5 56.0001 66.6C56.0001 66.6 55.9001 66.6 55.8001 66.6Z" fill="#000091"/>
    <path d="M29.1 69.8H20C19.4 69.8 19 69.4 19 68.8C19 68.2 19.4 67.8 20 67.8H29.2C29.8 67.8 30.2 68.2 30.2 68.8C30.2 69.4 29.7 69.8 29.1 69.8Z" fill="#E1000F"/>
    <path d="M29.1 66.2H21.5C20.9 66.2 20.5 65.8 20.5 65.2C20.5 64.6 20.9 64.2 21.5 64.2H29.1C29.7 64.2 30.1 64.6 30.1 65.2C30.1 65.8 29.7 66.2 29.1 66.2Z" fill="#E1000F"/>
    <path d="M29.1 62.7H25.5C24.9 62.7 24.5 62.3 24.5 61.7C24.5 61.1 24.9 60.7 25.5 60.7H29.1C29.7 60.7 30.1 61.1 30.1 61.7C30.1 62.3 29.7 62.7 29.1 62.7Z" fill="#E1000F"/>
    <path d="M43.7001 57.8H40.1001C39.5001 57.8 39.1001 57.4 39.1001 56.8C39.1001 56.2 39.5001 55.8 40.1001 55.8H43.7001C44.3001 55.8 44.7001 56.2 44.7001 56.8C44.7001 57.4 44.2001 57.8 43.7001 57.8Z" fill="#E1000F"/>
</svg>
