<svg width="80" height="80" viewBox="0 0 80 80" fill="none" xmlns="http://www.w3.org/2000/svg">
    <path d="M40.7318 18.2818C43.6285 15.2246 48.3616 15.2525 51.2314 18.2873C52.3324 19.4516 52.9425 21.1463 52.9962 23.0966C53.0114 23.6487 53.4712 24.0839 54.0233 24.0687C54.5754 24.0535 55.0106 23.5936 54.9954 23.0416C54.929 20.6281 54.1492 18.4619 52.6845 16.9131C49.2585 13.2901 43.7192 13.0318 40 16.2207C36.2809 13.0318 30.7415 13.2901 27.3155 16.9131C23.8057 20.6246 24.431 27.8823 28.2353 31.9053C29.9796 33.7499 32.5623 35.7191 35.9888 37.8241L36.9442 38.4016C37.4324 38.692 37.9363 38.985 38.4559 39.2806L39.4947 39.8632C39.5263 39.8816 39.5589 39.8983 39.5922 39.9132C39.7238 39.9721 39.8626 40.0003 39.9998 40.0002C40.1371 40.0004 40.276 39.9722 40.4078 39.9132C40.4411 39.8983 40.4736 39.8816 40.5052 39.8632L41.5441 39.2806C42.0637 38.985 42.5676 38.692 43.0558 38.4016L44.0112 37.8241C47.4377 35.7191 50.0204 33.7499 51.7647 31.9053C52.1441 31.5041 52.1265 30.8712 51.7252 30.4917C51.3239 30.1122 50.691 30.1299 50.3115 30.5312C48.694 32.2417 46.2303 34.1162 42.9257 36.1436L42.0036 36.7003C41.3644 37.0802 40.6965 37.4653 40 37.8555C39.3035 37.4653 38.6356 37.0802 37.9965 36.7003L37.0743 36.1436C33.7697 34.1162 31.306 32.2417 29.6885 30.5312C26.567 27.2302 26.0447 21.1678 28.7686 18.2873C31.6384 15.2525 36.3714 15.2246 39.2681 18.2816C39.2762 18.2903 39.2844 18.2989 39.2929 18.3073C39.3751 18.3896 39.4682 18.4546 39.5678 18.5023C39.8396 18.6324 40.1589 18.6333 40.4322 18.5023C40.5318 18.4546 40.6249 18.3896 40.7071 18.3073C40.7155 18.2989 40.7237 18.2904 40.7318 18.2818Z" fill="#E1000F"/>
    <path d="M17 26C17.5523 26 18 26.4477 18 27C18 27.5129 17.614 27.9355 17.1166 27.9933L17 28H11C10.4477 28 10 27.5523 10 27C10 26.4872 10.386 26.0645 10.8834 26.0068L11 26H17Z" fill="#E1000F"/>
    <path d="M21 28C21.5523 28 22 27.5523 22 27C22 26.4477 21.5523 26 21 26C20.4477 26 20 26.4477 20 27C20 27.5523 20.4477 28 21 28Z" fill="#E1000F"/>
    <path d="M46.0714 20.6286C46.3547 19.9204 47.2805 19.7883 47.7569 20.346L47.832 20.4453L51.5349 26H58.9999C59.5128 26 59.9354 26.386 59.9932 26.8834L59.9999 27C59.9999 27.5128 59.6139 27.9355 59.1165 27.9933L58.9999 28H50.9999C50.7074 28 50.4317 27.8721 50.2432 27.6537L50.1679 27.5547L47.2219 23.136L43.9284 31.3714C43.6451 32.0796 42.7194 32.2118 42.2429 31.6541L42.1679 31.5547L38.8439 26.57L37.707 27.7071C37.5508 27.8634 37.3481 27.9626 37.1314 27.9913L36.9999 28H32.9999C32.4476 28 31.9999 27.5523 31.9999 27C31.9999 26.4872 32.386 26.0645 32.8833 26.0067L32.9999 26H36.5839L38.2928 24.2929C38.7093 23.8764 39.3842 23.9127 39.7569 24.3463L39.832 24.4453L42.7769 28.863L46.0714 20.6286Z" fill="#000091"/>
    <path d="M60.9318 42.6892C63.2823 41.3322 66.2206 41.9282 67.478 44.106C68.7353 46.2838 67.7823 49.1264 65.4318 50.4835L49.3885 60.9353L49.1486 61.0567C47.1238 62.0339 44.4681 62.1623 40.7361 61.747L40.4378 61.713L39.8277 61.6384L39.187 61.5537L38.4998 61.4571L36.5957 61.1716L34.2853 60.8329L32.916 60.6482L32.1959 60.5602L31.5458 60.4892L30.9609 60.435L30.4361 60.3977L30.1172 60.3822L29.8215 60.3741L29.4179 60.3757C29.3756 60.3769 29.3341 60.3783 29.2933 60.38L29.058 60.394L28.84 60.4154L28.6377 60.4441L28.4498 60.4801L28.2747 60.5233L28.111 60.5739L27.9572 60.6316C27.9323 60.6418 27.9078 60.6524 27.8836 60.6632L27.7419 60.7318L27.6065 60.8075L27.5836 60.8216L28.177 62.4518L28.2323 62.6185C28.6855 64.1231 27.9201 65.7379 26.4441 66.2751L20.9863 68.2616L20.8744 68.2951C20.3873 68.4109 19.88 68.1458 19.7046 67.6639C19.5157 67.1449 19.7833 66.5711 20.3022 66.3822L25.76 64.3957L25.859 64.3526C26.2723 64.1416 26.4752 63.624 26.2976 63.1359L20.1412 46.2214L20.0948 46.1128C19.8715 45.6597 19.3642 45.44 18.9196 45.6019L13.4618 47.5883L13.3628 47.6314C12.9495 47.8424 12.7466 48.36 12.9243 48.8482L16.0624 58.4068L16.0923 58.5197C16.1926 59.0103 15.9114 59.5089 15.4241 59.6688C14.8994 59.8411 14.3344 59.5553 14.1621 59.0306L10.9802 49.3385C10.5364 47.8609 11.3018 46.2462 12.7778 45.7089L18.2356 43.7225L18.4001 43.668C19.8855 43.225 21.4765 44.0425 22.0206 45.5374L22.2895 46.2762C22.3387 46.2266 22.394 46.1814 22.4549 46.1418C28.3044 42.3397 36.2702 42.8521 40.7242 46.0148L40.9515 46.1807C42.8358 47.5961 44.5106 47.538 47.4164 45.9482L47.8987 45.6769L48.4038 45.3788L48.9333 45.0537C49.114 44.9408 49.299 44.8234 49.4885 44.7015C49.5015 44.6931 49.5147 44.6851 49.528 44.6774L49.5423 44.6681L49.552 44.6621L51.4275 43.5076L51.6023 43.4045C53.425 42.3904 55.7493 42.975 56.8704 44.769C58.2326 46.949 58.3951 48.3371 56.5523 49.4886L56.1175 49.7785L53.3132 51.6392L51.2436 52.9988L48.9664 54.4722L47.8244 55.1953C46.2753 56.1646 43.7033 55.9981 40.0068 54.7887L39.3005 54.5498C39.0606 54.4661 38.8164 54.3783 38.5677 54.2865L37.8082 53.9991C37.4218 53.8493 37.0253 53.6906 36.6187 53.5229C36.1082 53.3123 35.865 52.7277 36.0755 52.2172C36.2861 51.7066 36.8707 51.4634 37.3813 51.674C37.5119 51.7278 37.6412 51.7806 37.7694 51.8324L38.5235 52.1307C38.6467 52.1783 38.7687 52.2249 38.8895 52.2705L39.5992 52.5318C39.8307 52.6148 40.0573 52.6937 40.2789 52.7685L40.9287 52.981L41.5481 53.1693C44.1667 53.9334 45.9279 54.0227 46.7634 53.4999L48.1475 52.6217L49.8462 51.5225L52.6 49.7134L55.6008 47.7187C55.9616 47.4516 55.9669 47.1893 55.5311 46.4214L55.3694 46.146L55.1743 45.8289C54.6024 44.9137 53.3969 44.6353 52.4817 45.2072L50.6005 46.3653L50.5885 46.3717L50.5705 46.3836L50.2731 46.5734L49.6941 46.9341C49.5993 46.9921 49.5053 47.0491 49.4121 47.1049L48.8627 47.4273C45.0825 49.594 42.6563 49.8647 39.9445 47.9223L39.7503 47.7798C35.9924 44.957 28.7632 44.4269 23.5449 47.8187C23.3487 47.9462 23.1244 47.9961 22.9082 47.9761L26.8893 58.9141L26.9456 58.8835L27.138 58.7892L27.3338 58.7041L27.535 58.6282L27.7431 58.5614L27.96 58.5037L28.1874 58.455C28.2651 58.4403 28.3449 58.427 28.427 58.4153L28.6807 58.3845L28.9502 58.3627L29.2373 58.3497C29.2867 58.3482 29.3369 58.3472 29.3879 58.3465L29.7046 58.3466L30.0431 58.3556L30.4054 58.3732L30.7931 58.3994L31.2081 58.4343L31.8853 58.5026L32.6336 58.5901L33.7523 58.7361L35.3645 58.9655L38.0446 59.3683L39.122 59.5255L40.0758 59.6538L40.6683 59.7263L41.3729 59.8036C44.655 60.1375 46.9209 59.98 48.3765 59.2127L64.386 48.7795L64.5471 48.6809C65.9093 47.7998 66.3965 46.2329 65.7459 45.106C65.0703 43.9357 63.3701 43.5909 61.9318 44.4213C61.4535 44.6974 60.8419 44.5335 60.5658 44.0553C60.2896 43.577 60.4535 42.9654 60.9318 42.6892Z" fill="#000091"/>
    <path d="M16.9999 50C17.5522 50 17.9999 49.5523 17.9999 49C17.9999 48.4477 17.5522 48 16.9999 48C16.4476 48 15.9999 48.4477 15.9999 49C15.9999 49.5523 16.4476 50 16.9999 50Z" fill="#000091"/>
    <path d="M62.9999 28C63.5522 28 63.9999 27.5523 63.9999 27C63.9999 26.4477 63.5522 26 62.9999 26C62.4476 26 61.9999 26.4477 61.9999 27C61.9999 27.5523 62.4476 28 62.9999 28Z" fill="#000091"/>
</svg>
