<svg width="80" height="80" viewBox="0 0 80 80" fill="none" xmlns="http://www.w3.org/2000/svg">
    <path fill-rule="evenodd" clip-rule="evenodd" d="M31.4036 38.6627C34.0364 39.7453 35.8969 42.0476 35.9959 44.7714L36 45H34C34 42.2757 31.345 40 28 40C24.7347 40 22.1268 42.1687 22.0045 44.8062L22 45H20C20 42.1768 21.8902 39.7755 24.5964 38.6627C23.6144 37.7498 23 36.4466 23 35C23 32.2386 25.2386 30 28 30C30.7614 30 33 32.2386 33 35C33 36.4466 32.3856 37.7498 31.4036 38.6627ZM28 38C29.6569 38 31 36.6569 31 35C31 33.3431 29.6569 32 28 32C26.3431 32 25 33.3431 25 35C25 36.6569 26.3431 38 28 38Z" fill="#E1000F"/>
    <path fill-rule="evenodd" clip-rule="evenodd" d="M19 24H37C38.6569 24 40 25.3431 40 27V47C40 48.6569 38.6569 50 37 50H19C17.3431 50 16 48.6569 16 47V27C16 25.3431 17.3431 24 19 24ZM37 26H19C18.4477 26 18 26.4477 18 27V47C18 47.5523 18.4477 48 19 48H37C37.5523 48 38 47.5523 38 47V27C38 26.4477 37.5523 26 37 26Z" fill="#E1000F"/>
    <path d="M8.0046 59.2217C8.11474 61.868 10.187 64 12.7576 64H15L15.1166 63.9933C15.614 63.9355 16 63.5128 16 63L15.9933 62.8834C15.9355 62.386 15.5128 62 15 62H12.7576L12.597 61.995C11.1614 61.9046 10 60.6107 10 59V21L10.0047 20.8224C10.0896 19.2364 11.3029 18 12.7576 18H57L57.1166 17.9933C57.614 17.9355 58 17.5128 58 17C58 16.4477 57.5523 16 57 16H12.7576L12.5445 16.0049C10.0028 16.1221 8 18.3263 8 21V59L8.0046 59.2217Z" fill="#000091"/>
    <path d="M71.9954 20.7783C71.8853 18.132 69.813 16 67.2424 16H63L62.8834 16.0067C62.386 16.0645 62 16.4872 62 17C62 17.5523 62.4477 18 63 18H67.2424L67.403 18.005C68.8386 18.0954 70 19.3893 70 21V59L69.9953 59.1776C69.9104 60.7636 68.6971 62 67.2424 62H39L38.8834 62.0067C38.386 62.0645 38 62.4872 38 63C38 63.5523 38.4477 64 39 64H67.2424L67.4555 63.9951C69.9972 63.8779 72 61.6737 72 59V21L71.9954 20.7783Z" fill="#000091"/>
    <path d="M35 56C35.5523 56 36 56.4477 36 57C36 57.5128 35.614 57.9355 35.1166 57.9933L35 58H15C14.4477 58 14 57.5523 14 57C14 56.4872 14.386 56.0645 14.8834 56.0067L15 56H35Z" fill="#000091"/>
    <path d="M56 57C56 56.4477 55.5523 56 55 56H53L52.8834 56.0067C52.386 56.0645 52 56.4872 52 57C52 57.5523 52.4477 58 53 58H55L55.1166 57.9933C55.614 57.9355 56 57.5128 56 57Z" fill="#000091"/>
    <path d="M65 56C65.5523 56 66 56.4477 66 57C66 57.5128 65.614 57.9355 65.1166 57.9933L65 58H59C58.4477 58 58 57.5523 58 57C58 56.4872 58.386 56.0645 58.8834 56.0067L59 56H65Z" fill="#000091"/>
    <path d="M38 57C38 57.5514 38.4486 58 39 58C39.5514 58 40 57.5514 40 57C40 56.4486 39.5514 56 39 56C38.4486 56 38 56.4486 38 57Z" fill="#000091"/>
    <path d="M43 58C42.4486 58 42 57.5514 42 57C42 56.4486 42.4486 56 43 56C43.5514 56 44 56.4486 44 57C44 57.5514 43.5514 58 43 58Z" fill="#000091"/>
    <path d="M64 25C64 24.4477 63.5523 24 63 24H45L44.8834 24.0067C44.386 24.0645 44 24.4872 44 25C44 25.5523 44.4477 26 45 26H63L63.1166 25.9933C63.614 25.9355 64 25.5128 64 25Z" fill="#000091"/>
    <path d="M53 28C53.5523 28 54 28.4477 54 29C54 29.5128 53.614 29.9355 53.1166 29.9933L53 30H45C44.4477 30 44 29.5523 44 29C44 28.4872 44.386 28.0645 44.8834 28.0067L45 28H53Z" fill="#000091"/>
    <path d="M56 29C56 29.5514 56.4486 30 57 30C57.5514 30 58 29.5514 58 29C58 28.4486 57.5514 28 57 28C56.4486 28 56 28.4486 56 29Z" fill="#000091"/>
    <path d="M57 32C57.5523 32 58 32.4477 58 33C58 33.5128 57.614 33.9355 57.1166 33.9933L57 34H45C44.4477 34 44 33.5523 44 33C44 32.4872 44.386 32.0645 44.8834 32.0067L45 32H57Z" fill="#000091"/>
    <path fill-rule="evenodd" clip-rule="evenodd" d="M47.5 38C45.567 38 44 39.567 44 41.5C44 43.433 45.567 45 47.5 45C49.433 45 51 43.433 51 41.5C51 39.567 49.433 38 47.5 38ZM47.5 40C48.3284 40 49 40.6716 49 41.5C49 42.3284 48.3284 43 47.5 43C46.6716 43 46 42.3284 46 41.5C46 40.6716 46.6716 40 47.5 40Z" fill="#000091"/>
    <path d="M63 48C63.5523 48 64 48.4477 64 49C64 49.5128 63.614 49.9355 63.1166 49.9933L63 50H45C44.4477 50 44 49.5523 44 49C44 48.4872 44.386 48.0645 44.8834 48.0067L45 48H63Z" fill="#000091"/>
    <path d="M50 57C50 56.4477 49.5523 56 49 56H47L46.8834 56.0067C46.386 56.0645 46 56.4872 46 57C46 57.5523 46.4477 58 47 58H49L49.1166 57.9933C49.614 57.9355 50 57.5128 50 57Z" fill="#000091"/>
</svg>
