<svg width="80" height="80" viewBox="0 0 80 80" fill="none" xmlns="http://www.w3.org/2000/svg">
    <path d="M40.5 20.9H46.2999C47.0999 20.9 47.8 21.2 48.4 21.8C49.3 22.7 50.5 23.2 51.9 23.2H57.2999C57.7999 23.2 58.2 22.8 58.2 22.3C58.2 21.8 57.7999 21.4 57.2999 21.4H51.9C51.1 21.4 50.4 21.1 49.7999 20.5C48.9 19.6 47.6999 19.1 46.2999 19.1H40.5C37.3 19.1 34.7 21.7 34.7 24.9V28.3C34.7 31.4 37.2 34 40.4 34L42.7999 34.1C44.2999 34.1 45.5 35.4 45.5 36.8V41.6C45.5 42.1 45.9 42.5 46.4 42.5C46.9 42.5 47.2999 42.1 47.2999 41.6V36.8C47.2999 34.3 45.2 32.1 42.7 32.1L40.2999 32C38.1999 31.9 36.5 30.2 36.5 28.1V24.7C36.6 22.7 38.4 20.9 40.5 20.9Z" fill="#000091"/>
    <path d="M35.6 58.5C33.5 58.2 31.5 57.7 29.3 56.8C19.5 52.7 13.7 42.9 14.2 32.8H16.5C18.2 32.8 20 33.4 21.3 34.5C24.3 37 24.8 41.4 22.6 44.6L21.5 46.2C21.2 46.6 21.3 47.2 21.7 47.5C21.8 47.6 22 47.7 22.2 47.7C22.5 47.7 22.8 47.6 23 47.3L24.1 45.7C26.9 41.8 26.2 36.2 22.5 33C20.8 31.6 18.6 30.8 16.4 30.8H14.2C14.5 28.5 15.1 26.3 16 24.1C18.6 18 23.4 13.2 29.5 10.8C34.2 8.90001 39.3 8.50001 44.2 9.50001V10.1C44.2 10.6 43.8 11.1 43.2 11.1C41.6 11.1 40.3 12.4 40.3 14V14.8C40.3 16.4 41.6 17.7 43.2 17.7H43.7C44.4 17.7 45.2 17.4 45.7 16.9L48.1 14.5C48.3 14.4 48.6 14.4 48.9 14.6L52.5 18.2C52.7 18.4 52.9 18.5 53.2 18.5C53.5 18.5 53.7 18.4 53.9 18.2C54.3 17.8 54.3 17.2 53.9 16.9L50.3 13.3C49.4 12.4 48 12.3 47 13.1C46.9 13.1 46.9 13.2 46.9 13.2L44.4 15.7C44.2 15.9 44 16 43.7 16H43.2C42.7 16 42.2 15.5 42.2 15V14.2C42.2 13.7 42.6 13.2 43.2 13.2C44.8 13.2 46.1 11.9 46.1 10.3V10.2C46.9 10.5 47.7 10.7 48.5 11.1C58.3 15.1 64.4 24.8 63.8 35.2C63.8 35.7 64.2 36.1 64.7 36.2C65.2 36.2 65.6 35.8 65.7 35.3C66.3 24.1 59.8 13.6 49.4 9.30001C42.8 6.50001 35.6 6.50001 29 9.10001C22.4 11.8 17.2 16.9 14.5 23.5C8.8 37.1 15.2 52.8 28.7 58.5C31 59.5 33.2 60.1 35.5 60.4C35.6 60.4 35.6 60.4 35.6 60.4C36.1 60.4 36.5 60.1 36.5 59.6C36.6 59.1 36.2 58.6 35.6 58.5Z" fill="#000091"/>
    <path d="M62.7001 73.8H45.3C43.1 73.8 41.3 72 41.3 69.8V45.7C41.3 43.5 43.1 41.7 45.3 41.7H62.7001C64.9001 41.7 66.7 43.5 66.7 45.7V69.8C66.7 72 64.9001 73.8 62.7001 73.8ZM45.3 43.7C44.2 43.7 43.3 44.6 43.3 45.7V69.8C43.3 70.9 44.2 71.8 45.3 71.8H62.7001C63.8001 71.8 64.7 70.9 64.7 69.8V45.7C64.7 44.6 63.8001 43.7 62.7001 43.7H45.3Z" fill="#000091"/>
    <path d="M44.3 43.9C43.9 43.9 43.5 43.6 43.4 43.2C43.2 42.7 43.5 42.1 44 41.9L57.4 37.3C58.4 37 59.5 37.1 60.4 37.7C61.3 38.3 61.8 39.3 61.8 40.4V42.6C61.8 43.2 61.4 43.6 60.8 43.6C60.2 43.6 59.8 43.2 59.8 42.6V40.4C59.8 40 59.6 39.6 59.2 39.3C58.8 39 58.4 39 58 39.1L44.6 43.7C44.5 43.9 44.4 43.9 44.3 43.9Z" fill="#000091"/>
    <path d="M53.9999 61.3C49.7999 61.3 46.3999 57.9 46.3999 53.7C46.3999 49.5 49.7999 46.1 53.9999 46.1C58.1999 46.1 61.5999 49.5 61.5999 53.7C61.5999 57.9 58.0999 61.3 53.9999 61.3ZM53.9999 48.1C50.8999 48.1 48.3999 50.6 48.3999 53.7C48.3999 56.8 50.8999 59.3 53.9999 59.3C57.0999 59.3 59.5999 56.8 59.5999 53.7C59.5999 50.6 56.9999 48.1 53.9999 48.1Z" fill="#E1000F"/>
    <path d="M55.4001 61.2C55.2001 61.2 55.1001 61.2 54.9001 61.1C54.4001 60.8 54.2001 60.2 54.5001 59.7C55.2001 58.4 55.6001 56.2 55.6001 53.7C55.6001 51.2 55.2001 49 54.5001 47.7C54.2001 47.2 54.4001 46.6 54.9001 46.3C55.4001 46 56.0001 46.2 56.3001 46.7C57.1001 48.3 57.6001 50.8 57.6001 53.6C57.6001 56.4 57.1001 59 56.3001 60.5C56.1001 61 55.7001 61.2 55.4001 61.2Z" fill="#E1000F"/>
    <path d="M52.5999 61.2C52.1999 61.2 51.8999 61 51.6999 60.7C50.8999 59.2 50.3999 56.6 50.3999 53.8C50.3999 51 50.8999 48.4 51.6999 46.9C51.9999 46.4 52.5999 46.2 53.0999 46.5C53.5999 46.8 53.7999 47.4 53.4999 47.9C52.7999 49.2 52.3999 51.4 52.3999 53.9C52.3999 56.3 52.7999 58.6 53.4999 59.9C53.7999 60.4 53.5999 61 53.0999 61.3C52.8999 61.1 52.6999 61.2 52.5999 61.2Z" fill="#E1000F"/>
    <path d="M60.2001 54.6H47.8C47.2 54.6 46.8 54.2 46.8 53.6C46.8 53 47.2 52.6 47.8 52.6H60.2001C60.8001 52.6 61.2001 53 61.2001 53.6C61.2001 54.2 60.8001 54.6 60.2001 54.6Z" fill="#E1000F"/>
    <path d="M57.9 65.4H50C49.4 65.4 49 65 49 64.4C49 63.8 49.4 63.4 50 63.4H57.9C58.5 63.4 58.9 63.8 58.9 64.4C58.9 65 58.5 65.4 57.9 65.4Z" fill="#000091"/>
    <path d="M58.9999 69.5H48.9999C48.3999 69.5 47.8999 69 47.8999 68.4C47.8999 67.8 48.3999 67.3 48.9999 67.3H58.9999C59.5999 67.3 60.0999 67.8 60.0999 68.4C60.0999 69 59.5999 69.5 58.9999 69.5Z" fill="#E1000F"/>
</svg>
