<svg width="80" height="80" viewBox="0 0 80 80" fill="none" xmlns="http://www.w3.org/2000/svg">
    <path fill-rule="evenodd" clip-rule="evenodd" d="M56 77C55.4486 77 55 76.5514 55 76C55 75.4486 55.4486 75 56 75C56.5514 75 57 75.4486 57 76C57 76.5514 56.5514 77 56 77Z" fill="#CACAFB"/>
    <path fill-rule="evenodd" clip-rule="evenodd" d="M8 65C7.4486 65 7 64.5514 7 64C7 63.4486 7.4486 63 8 63C8.5514 63 9 63.4486 9 64C9 64.5514 8.5514 65 8 65Z" fill="#CACAFB"/>
    <path fill-rule="evenodd" clip-rule="evenodd" d="M76 58C75.4486 58 75 57.5514 75 57C75 56.4486 75.4486 56 76 56C76.5514 56 77 56.4486 77 57C77 57.5514 76.5514 58 76 58Z" fill="#CACAFB"/>
    <path fill-rule="evenodd" clip-rule="evenodd" d="M65 10C64.4486 10 64 9.5514 64 9C64 8.44855 64.4486 8 65 8C65.5514 8 66 8.44855 66 9C66 9.5514 65.5514 10 65 10Z" fill="#CACAFB"/>
    <path fill-rule="evenodd" clip-rule="evenodd" d="M24 4C23.4486 4 23 3.5514 23 3C23 2.44855 23.4486 2 24 2C24.5514 2 25 2.44855 25 3C25 3.5514 24.5514 4 24 4Z" fill="#CACAFB"/>
    <path d="M37.096 15.6809C37.5128 16.8194 37.1301 18.1564 36.3759 18.7893C36.0547 19.0588 35.7714 19.2179 35.2893 19.3645L34.9743 19.4517C34.9172 19.4662 34.8577 19.4808 34.7954 19.4956L34.3876 19.5871L32.4642 19.9804L32.2225 20.0318L32.3574 20.1024L32.6028 20.2355L33.0712 20.4991C33.5495 20.7752 33.7134 21.3868 33.4372 21.8651C33.1611 22.3434 32.5495 22.5073 32.0712 22.2311L31.8576 22.1094L31.4116 21.8646L29.8778 21.0624L29.192 20.6968C29.0786 20.6356 28.9651 20.5738 28.8507 20.5111L28.1463 20.1195L27.3798 19.6818C26.9015 19.4057 26.7376 18.7941 27.0137 18.3158C27.2899 17.8375 27.9015 17.6736 28.3798 17.9498L29.1264 18.3761C29.2446 18.4427 29.3603 18.5074 29.4742 18.5708L29.6091 18.6447C29.7103 18.5737 29.8265 18.5204 29.9542 18.4904L30.501 18.3635L31.545 18.1313L32.3141 17.9686L33.8958 17.647L34.3423 17.5479L34.5641 17.4915L34.7365 17.4399C34.7616 17.4315 34.7851 17.4232 34.8072 17.4149L34.9236 17.3653L35.0147 17.3136L35.0904 17.2572C35.2101 17.1567 35.3401 16.7023 35.2179 16.3684C35.0122 15.8063 34.2 15.324 32.488 15.1307L29.1047 14.7834L27.2401 14.5988L25.1611 14.4016L23.0359 14.2144L22.0769 14.1382L21.9214 14.1408L21.8052 14.1524L21.6075 14.1862L21.4575 14.2207L21.2908 14.2656L21.0055 14.3536L20.5497 14.5131L19.9947 14.7257L19.3258 14.9965L18.0775 15.5234L15.8058 16.5099L15.6978 16.5474L15.6246 16.5652L15.5478 16.5764C15.5346 16.5777 15.5211 16.5786 15.5074 16.5793L15.4214 16.5789L15.3264 16.57L15.2205 16.5516L15.1013 16.523L14.8932 16.4592L14.7318 16.4015L14.4501 16.2905L14.2329 16.1989L13.7182 15.97L12.902 15.59L10.5663 14.4701C10.0688 14.2303 9.85995 13.6326 10.0998 13.1351C10.3396 12.6376 10.9374 12.4287 11.4348 12.6686L13.1876 13.5049L13.899 13.837L14.6759 14.1904L15.1473 14.3956L15.4073 14.501L17.4276 13.6237L18.5651 13.1419L19.1406 12.9064L19.7999 12.6496L20.0886 12.544L20.4773 12.4117L20.8198 12.3085L21.0266 12.2546L21.2189 12.2117L21.399 12.179L21.5695 12.1558L21.7327 12.1412C21.7594 12.1394 21.7859 12.138 21.8123 12.1369L22.0467 12.1349L22.2791 12.1469L23.5268 12.2487L25.7324 12.446L28.338 12.6969L31.8822 13.0572L32.4328 13.1147C34.9968 13.3503 36.5707 14.2458 37.096 15.6809Z" fill="#E1000F"/>
    <path d="M25.7928 36.0481C26.2524 36.2468 26.7981 36.0738 27.0545 35.6296C27.3307 35.1513 27.1668 34.5397 26.6885 34.2636L23.7499 32.567L23.6455 32.5145C23.1859 32.3159 22.6403 32.4889 22.3839 32.933C22.1077 33.4113 22.2716 34.0229 22.7499 34.299L25.6885 35.9956L25.7928 36.0481Z" fill="#E1000F"/>
    <path d="M20.4848 38.2484C20.2284 38.6926 19.6827 38.8656 19.2232 38.6669L19.1188 38.6145L14.6429 36.0303C14.4917 35.943 14.2861 35.7404 14.0423 35.4457L13.8243 35.171C13.7865 35.1217 13.748 35.0706 13.7089 35.0178L13.467 34.6816L13.2119 34.3083L12.9459 33.9013L12.6713 33.4638C12.6249 33.3885 12.5782 33.3121 12.5314 33.2346L12.2479 32.7574L11.9614 32.2577L11.674 31.7389C11.6261 31.651 11.5784 31.5624 11.5307 31.4733L11.2463 30.9317C11.1992 30.8405 11.1523 30.7487 11.1057 30.6566L10.8293 30.0997L10.561 29.5366L10.3031 28.9705L10.0577 28.4047C9.97832 28.2165 9.90137 28.0289 9.82728 27.8424L9.70352 27.5234L8.7463 26.7963L6.73178 25.2894L6.36713 25.0074L6.15981 24.8382L6.06985 24.7572L5.98186 24.6702L5.94957 24.6282L5.87609 24.499L5.7883 24.333C5.6044 23.8122 5.87748 23.241 6.39825 23.0571C6.75878 22.9298 7.14351 23.0215 7.40715 23.2628L7.46897 23.3258L7.74844 23.5486L10.6847 25.7538L11.0032 26.0029L11.1678 26.1411L11.296 26.2641L11.3279 26.3049L11.371 26.3761L11.4894 26.5923C12.2081 28.5329 13.1714 30.4477 14.2294 32.1669L14.4005 32.4419L14.7363 32.9631C14.9011 33.2131 15.0605 33.4459 15.2107 33.6567L15.4574 33.9945L15.633 34.2214L15.7206 34.3294C15.7249 34.3371 15.7204 34.3396 15.6869 34.3225L20.1188 36.8824C20.5971 37.1586 20.761 37.7701 20.4848 38.2484Z" fill="#E1000F"/>
    <path d="M22.9999 40C23.5522 40 23.9999 39.5523 23.9999 39C23.9999 38.4477 23.5522 38 22.9999 38C22.4476 38 21.9999 38.4477 21.9999 39C21.9999 39.5523 22.4476 40 22.9999 40Z" fill="#E1000F"/>
    <path d="M54.4184 42.6615C54.1422 42.1833 54.3061 41.5717 54.7844 41.2955L54.9966 41.1714L55.4316 40.9076L57.224 39.7728C57.3337 39.7045 57.443 39.6367 57.5527 39.5692L58.2235 39.1618L58.9454 38.7351C59.0721 38.6611 59.2027 38.5853 59.3379 38.5073C59.8162 38.2311 60.4278 38.395 60.7039 38.8733C60.98 39.3516 60.8162 39.9632 60.3379 40.2393L59.5954 40.6728L59.2072 40.9053C59.2008 40.9375 59.1928 40.9697 59.1832 41.0018C59.0729 41.3676 58.9655 41.7165 58.8587 42.056L58.5384 43.0533L57.8907 44.9981L57.8054 45.2732L57.7433 45.4935L57.7019 45.6686L57.6956 45.7003C57.6928 45.7147 57.6903 45.7287 57.6881 45.7423L57.6729 45.8679L57.6721 45.9728L57.6831 46.0664C57.7103 46.2204 58.0387 46.5602 58.389 46.6213C58.9787 46.7241 59.8024 46.2619 60.8259 44.876L63.1017 41.7256L64.8924 39.2177L65.9648 37.6948L66.6986 36.6377C66.7551 36.5556 66.8105 36.4749 66.8648 36.3958C67.0245 36.1627 67.183 35.785 67.3369 35.2675L67.4388 34.9019L67.5391 34.4952L67.6376 34.0478L67.7341 33.56L67.8284 33.0321L67.9202 32.4645L68.0094 31.8575C68.024 31.7531 68.0385 31.647 68.0529 31.5393L68.1376 30.8738L68.2192 30.1697C68.2234 30.131 68.2282 30.0942 68.2343 30.0584L68.258 29.9532L68.2814 29.8839L68.3322 29.7774L68.3792 29.7024L68.4386 29.6225L68.5548 29.4898L68.6529 29.3905L68.8354 29.2216L69.1535 28.951L69.8194 28.4223L71.1321 27.4235L72.496 26.3996C72.938 26.0684 73.5647 26.1581 73.896 26.6C74.2272 27.0419 74.1375 27.6687 73.6956 28L71.9053 29.3541L70.9685 30.0798L70.5306 30.4288L70.1691 30.7306L70.0673 31.5641C70.0511 31.6907 70.0346 31.8154 70.018 31.9383L69.916 32.6531C69.568 34.9609 69.141 36.5241 68.5941 37.4044L68.5144 37.5266L67.8024 38.5564L66.9807 39.7284L65.5427 41.753L63.2426 44.9488L62.5994 45.8362C61.1133 47.9389 59.5509 48.8541 58.0454 48.5915C56.851 48.3832 55.8845 47.3833 55.7135 46.4137C55.6334 45.9595 55.6461 45.6117 55.7962 45.0326L55.8921 44.6918L56.0168 44.2929L56.6039 42.5324L56.4848 42.6078L56.015 42.8927C55.9382 42.9382 55.8616 42.983 55.7844 43.0276C55.3061 43.3037 54.6945 43.1398 54.4184 42.6615Z" fill="#E1000F"/>
    <path d="M64.327 19.8272L61.7838 20.9494L61.3 21.1503L61.1037 21.2213C60.9238 21.279 60.8335 21.3021 60.6715 21.285L60.5644 21.2699C58.5301 20.9257 56.3979 20.8046 54.3889 20.8618L54.0665 20.8726L53.4499 20.9029L52.8799 20.9433C52.7894 20.9508 52.7014 20.9586 52.6159 20.9668L52.202 21.0115L51.9191 21.05L51.7829 21.0717C51.7743 21.0715 51.7745 21.0664 51.8062 21.0459L45.4999 24.6857C45.0216 24.9618 44.41 24.7979 44.1338 24.3197C43.8774 23.8755 44.0004 23.3165 44.4022 23.0178L44.4999 22.9536L50.8492 19.2879C51.0476 19.1733 51.4656 19.0769 52.0393 19.0041L52.4441 18.959C52.5152 18.9521 52.588 18.9455 52.6625 18.9392L53.1286 18.9052L53.6304 18.879L54.1635 18.861C54.2547 18.8587 54.3471 18.8567 54.4405 18.8551L55.0129 18.8499L55.6061 18.8538L56.2161 18.8669L56.8385 18.8898L57.4692 18.9227L58.1039 18.9659L58.7386 19.0198L59.3688 19.0848C59.6822 19.1202 59.9924 19.1598 60.2969 19.2038L60.648 19.2575L60.8645 19.1672L63.629 17.9503L63.8995 17.8361L64.1104 17.7513L64.2477 17.7006L64.3077 17.6807C64.5267 17.6115 64.6172 17.592 64.8585 17.637C65.4014 17.7381 65.7596 18.2602 65.6585 18.8032C65.5573 19.3461 65.0352 19.7043 64.4923 19.6032C64.5597 19.6157 64.6017 19.6278 64.6301 19.6377L64.6858 19.6586C64.7049 19.6639 64.7195 19.6601 64.7691 19.641L64.327 19.8272Z" fill="#E1000F"/>
    <path d="M48.9999 28C49.5522 28 49.9999 27.5523 49.9999 27C49.9999 26.4477 49.5522 26 48.9999 26C48.4476 26 47.9999 26.4477 47.9999 27C47.9999 27.5523 48.4476 28 48.9999 28Z" fill="#E1000F"/>
    <path d="M41.9949 27.308C41.8952 25.4643 40.3687 24 38.5001 24C36.5671 24 35.0001 25.567 35.0001 27.5V29.3368C34.5455 29.1208 34.0369 29 33.5001 29C31.5671 29 30.0001 30.567 30.0001 32.5V47.385L29.3918 46.6707L28.1697 45.2122L27.5487 44.4827L27.1736 44.0583L26.9585 43.8263L26.7666 43.6304C26.7363 43.6005 26.7067 43.572 26.6779 43.5447L26.5124 43.3954C26.433 43.3276 26.3583 43.2696 26.2857 43.2191L26.1427 43.1276C26.072 43.0862 26.0018 43.0508 25.9297 43.0192L25.7823 42.9604C24.8571 42.6236 23.5079 42.9607 22.7303 43.8909C21.7501 45.0634 21.7616 46.8742 22.8395 49.2125L24.3293 52.5344L25.7766 55.7103L26.5425 57.3583L27.0783 58.4898L27.1487 58.629C27.4886 59.2677 28.1203 60.0294 29.0524 60.9323L29.504 61.3591C29.8193 61.6504 30.1632 61.9553 30.536 62.2744L31.1167 62.7637C31.3175 62.9304 31.5255 63.1007 31.7408 63.2747L31.9994 63.4826L31.9997 67.0002L32.0074 67.1256C32.0691 67.6187 32.4898 68.0002 32.9997 68.0002C33.5519 68.0002 33.9997 67.5524 33.9997 67.0002V62.5156L33.3319 61.9872L32.5212 61.3293L32.024 60.9133L31.5615 60.5159L31.134 60.1372L30.7415 59.7776L30.3843 59.4375C30.2711 59.3274 30.1638 59.2206 30.0624 59.1171L29.7761 58.8168L29.5254 58.5368L29.3105 58.2774C29.1137 58.0285 28.9707 57.8111 28.8824 57.6266L28.4904 56.8006L27.7507 55.2149L26.5344 52.5563L24.5578 48.1567C23.8693 46.5774 23.8809 45.6329 24.2648 45.1736C24.4928 44.9008 24.9513 44.7863 25.0982 44.8397C25.1115 44.8446 25.1284 44.8542 25.1492 44.8689L25.2235 44.9286L25.3226 45.0211L25.6025 45.3124L26.0023 45.7596L26.5354 46.3792L27.8695 47.968L28.4042 48.5981L28.8892 49.1599L29.3471 49.6784L29.8002 50.1785L30.271 50.6851C30.5178 50.9476 30.8729 51.0471 31.2016 50.9797C31.226 50.9747 31.2501 50.9688 31.2739 50.9621C31.6931 50.843 32.0001 50.4574 32.0001 50V32.5L32.007 32.3555C32.0796 31.5949 32.7204 31 33.5001 31C34.3285 31 35.0001 31.6716 35.0001 32.5V45L35.0068 45.1166C35.0646 45.614 35.4873 46 36.0001 46C36.5524 46 37.0001 45.5523 37.0001 45V27.5L37.007 27.3555C37.0796 26.5949 37.7204 26 38.5001 26C39.3285 26 40.0001 26.6716 40.0001 27.5V45L40.0068 45.1166C40.0646 45.614 40.4873 46 41.0001 46C41.5524 46 42.0001 45.5523 42.0001 45V30.4706L42.0069 30.3294C42.0794 29.5856 42.7179 29 43.5001 29C44.3312 29 45.0001 29.6611 45.0001 30.4706V45L45.0068 45.1166C45.0646 45.614 45.4873 46 46.0001 46C46.5524 46 47.0001 45.5523 47.0001 45V34.4706L47.0069 34.3294C47.0794 33.5856 47.7179 33 48.5001 33C49.3312 33 50.0001 33.6611 50.0001 34.4706V53L49.9967 53.291C49.9538 55.1073 49.4913 56.4403 48.1655 58.4492C48.0219 58.6667 47.7756 58.9554 47.4288 59.3158L47.107 59.6423L46.7364 60.0041L46.3663 60.3552L44.9986 61.6198L44.4887 62.1007L44.0001 62.5858V67L44.0068 67.1166C44.0646 67.614 44.4873 68 45.0001 68L45.1167 67.9933C45.6141 67.9355 46.0001 67.5128 46.0001 67V63.422L46.0994 63.3284L47.7355 61.813L48.1386 61.4304L48.5592 61.0193C49.1505 60.4298 49.5656 59.9585 49.8347 59.5508C51.4392 57.1198 52.0001 55.3747 52.0001 53V34.4706L51.9949 34.2799C51.895 32.4495 50.3661 31 48.5001 31C47.9636 31 47.4549 31.1198 47.0001 31.3341V30.4706L46.9949 30.2799C46.895 28.4495 45.3661 27 43.5001 27C42.9618 27 42.4516 27.1206 41.9957 27.3362L41.9949 27.308Z" fill="#000091"/>
</svg>
