<svg width="40" height="40" viewBox="0 0 40 40" fill="none" xmlns="http://www.w3.org/2000/svg">
    <rect width="40" height="40" rx="8" fill="#F5F5FE"/>
    <path d="M19.6365 31.6088L8.44246 22.9018C8.30036 22.7913 8.30164 22.5762 8.44502 22.4674L10.1281 21.1923C10.2266 21.1176 10.3632 21.1185 10.4613 21.194L19.6369 28.3098C19.7355 28.3861 19.8738 28.3861 19.9728 28.3098L29.1484 21.194C29.2461 21.118 29.3827 21.1172 29.4817 21.1923L31.1647 22.4674C31.3081 22.5762 31.3094 22.7913 31.1673 22.9018L19.9728 31.6084C19.8738 31.6852 19.7355 31.6852 19.6365 31.6084V31.6088ZM19.6365 25.0751L8.43862 16.3655C8.2978 16.2558 8.2978 16.0429 8.43862 15.9332L19.6365 7.22362C19.7355 7.14681 19.8738 7.14681 19.9728 7.22362L31.1707 15.9332C31.3115 16.0429 31.3115 16.2558 31.1707 16.3655L19.9728 25.0751C19.8738 25.1519 19.7355 25.1519 19.6365 25.0751ZM19.9724 21.7769L26.9644 16.3659C27.106 16.2563 27.106 16.0425 26.9644 15.9328L19.9724 10.5218C19.8738 10.4455 19.7359 10.4455 19.6369 10.5218L12.6449 15.9328C12.5033 16.0425 12.5033 16.2563 12.6449 16.3659L19.6369 21.7769C19.7355 21.8533 19.8734 21.8533 19.9724 21.7769Z" fill="#000091"/>
</svg>
