<svg width="180" height="180" viewBox="0 0 180 180" fill="none" xmlns="http://www.w3.org/2000/svg"><g clip-path="url(#a)"><path d="M155.42 68.922c-5.246-7.623-17.465-9.063-24.367-2.95-.141-6.184-4.225-12.085-10-14.404-5.74-2.318-12.818-.878-17.184 3.478.986-3.443-2.641-6.815-6.233-7.026-3.591-.176-6.936 1.756-10 3.583-3.099 1.862-6.444 3.759-10.036 3.513-3.908-.246-7.112-2.986-10.775-4.391-8.908-3.443-20.176 2.67-22.148 11.98-9.86-3.97-22.501 2.529-24.966 12.822l144.301 1.686c-1.021-4.005-4.472-7.377-8.592-8.29" fill="#FAFAFA"/><path d="M72.846 21.637c5.634-2.88-2.922-4.18-5.387-4.39-1.162-.106-2.395.07-3.486-.317-2.395-.843-3.345-3.934-5.67-4.918-1.76-.738-3.767-.07-5.457.773s-3.38 1.932-5.247 2.037c-1.655.106-3.416-.492-4.86.281-1.056.598-1.62 1.827-2.605 2.565-.95.702-2.218.878-3.416.913-1.197.07-2.43.07-3.521.562-1.092.492-8.24 2.284-4.014 4.813 4.225 2.53 38.03.562 43.663-2.319" fill="#F5F5F5"/><path d="M111.826 32.633c-4.542-1.897 2.042-3.443 3.909-3.724.915-.14 1.866-.07 2.676-.456 1.796-.808 2.359-3.267 4.12-4.146 1.302-.667 2.922-.28 4.296.282 1.373.562 2.746 1.3 4.225 1.264 1.303-.035 2.641-.597 3.803-.07.88.386 1.373 1.335 2.183 1.827.81.491 1.796.527 2.712.527.95-.036 1.901-.07 2.781.245.881.317 6.55 1.265 3.416 3.513s-29.579 2.635-34.121.738" fill="#FAFAFA"/><path d="M138.029 55.257c-4.859-2.038 2.183-3.689 4.191-4.005.95-.14 1.971-.07 2.887-.492 1.937-.843 2.535-3.478 4.402-4.462 1.408-.737 3.133-.316 4.577.282 1.479.597 2.923 1.37 4.507 1.37 1.374-.036 2.817-.633 4.085-.07.916.42 1.479 1.405 2.359 1.967.845.527 1.902.562 2.923.562 1.021-.035 2.042-.106 2.993.246.951.35 7.007 1.37 3.662 3.758-3.38 2.39-31.691 2.881-36.586.844m-1.448-43.737c-3.31-1.37 1.479-2.494 2.853-2.74.669-.105 1.338-.07 1.972-.316 1.338-.562 1.725-2.389 3.028-3.021.951-.492 2.148-.211 3.134.21.986.422 2.007.949 3.063.914.951 0 1.937-.422 2.782-.035.634.28 1.021.983 1.62 1.335.563.351 1.303.386 1.972.386s1.373-.07 2.042.176 4.789.913 2.5 2.564c-2.324 1.581-21.62 1.932-24.966.527" fill="#EBEBEB"/><path d="M20.841 11.064c1.831-.844-.88-1.37-1.655-1.476-.352-.035-.74 0-1.091-.14-.74-.282-1.021-1.3-1.726-1.616-.528-.246-1.197-.07-1.725.175-.563.246-1.092.562-1.69.562-.529 0-1.092-.21-1.55.035-.352.176-.528.563-.88.773-.317.211-.704.246-1.092.246-.387 0-.774 0-1.126.14s-2.641.598-1.338 1.476 12.042.668 13.873-.176" fill="#F5F5F5"/><path d="M38.724 45.245c1.831-.843-.88-1.37-1.655-1.476-.352-.035-.74 0-1.091-.14-.74-.281-1.022-1.3-1.726-1.616-.528-.246-1.197-.07-1.725.175-.564.246-1.092.562-1.69.562-.529 0-1.092-.21-1.55.036-.352.175-.528.562-.88.772-.317.211-.704.246-1.092.246-.387 0-.774 0-1.126.14-.353.141-2.642.598-1.339 1.476 1.338.843 12.043.633 13.874-.175" fill="#FAFAFA"/><path d="M158.278 173.925H22.181c-4.507 0-8.134-3.654-8.134-8.115v-93.2c0-3.266 2.676-5.936 5.95-5.936h140.816a5.584 5.584 0 0 1 5.599 5.585v93.516a8.135 8.135 0 0 1-8.134 8.15" fill="#EBECF0"/><path d="M166.269 175.576H15.559c-4.33 0-7.887-3.513-7.887-7.869 0-.843.669-1.511 1.514-1.511h162.013c.845 0 1.514.668 1.514 1.511v1.37c.035 3.583-2.887 6.499-6.444 6.499" fill="#DFE1E6"/><path d="m75.632 166.723 1.057 1.792a2.03 2.03 0 0 0 1.725.984h26.515a2 2 0 0 0 1.761-1.019l.951-1.722c.176-.316-.071-.702-.423-.702H76.055c-.388-.07-.634.351-.423.667m14.581-95.342c.622 0 1.127-.503 1.127-1.124a1.126 1.126 0 0 0-2.254 0c0 .62.504 1.124 1.127 1.124" fill="#C1C7D0"/><path d="M157.924 161.138H21.933a1.764 1.764 0 0 1-1.761-1.757V74.719c0-.984.81-1.757 1.76-1.757h135.992c.985 0 1.76.808 1.76 1.757v84.662c0 .984-.81 1.757-1.76 1.757" fill="#fff"/><mask id="b" style="mask-type:luminance" maskUnits="userSpaceOnUse" x="20" y="72" width="140" height="90"><path d="M157.924 161.138H21.933a1.764 1.764 0 0 1-1.761-1.757V74.719c0-.984.81-1.757 1.76-1.757h135.992c.985 0 1.76.808 1.76 1.757v84.662c0 .984-.81 1.757-1.76 1.757" fill="#fff"/></mask><g mask="url(#b)"><path fill-rule="evenodd" clip-rule="evenodd" d="M157.857 161.138H22.042c-.986 0-1.76-.808-1.76-1.757V74.719c0-.984.81-1.757 1.76-1.757h135.815c.986 0 1.76.808 1.76 1.757v84.662c0 .949-.809 1.757-1.76 1.757" fill="#fff"/><path fill-rule="evenodd" clip-rule="evenodd" d="M154.191 104.017H25.665c-3.028 0-5.493-2.459-5.493-5.48v-18.97h139.512v18.97c0 3.021-2.465 5.48-5.493 5.48" fill="url(#c)"/><path fill-rule="evenodd" clip-rule="evenodd" d="M135.105 156.044H44.75v-52.027c0-3.829 3.17-6.99 7.007-6.99h76.341c3.838 0 7.007 3.161 7.007 6.99z" fill="#fff"/><path d="M51.617 103.209h71.728m-71.728 2.67h48.241" stroke="#8993A4" stroke-width="3.416" stroke-miterlimit="10" stroke-linecap="round" stroke-linejoin="round"/><path d="M114.964 134.053H64.891a2.987 2.987 0 0 1-2.993-2.986v-17.6a2.987 2.987 0 0 1 2.993-2.986h50.073a2.987 2.987 0 0 1 2.993 2.986v17.6a3.01 3.01 0 0 1-2.993 2.986" fill="#EBECF0"/><path d="M73.732 119.017a3.165 3.165 0 0 0 3.169-3.161 3.166 3.166 0 0 0-3.17-3.162 3.166 3.166 0 0 0-3.168 3.162 3.165 3.165 0 0 0 3.169 3.161m-11.442 10.75s7.112-8.888 19.26-7.483c7.5.844 9.297 4.005 17.255 3.057 8.345-.984 7.5-11.734 18.873-11.734" stroke="#fff" stroke-width="3.416" stroke-miterlimit="10" stroke-linecap="round" stroke-linejoin="round"/><path d="M120.844 146.594h8.028c.916 0 1.62-.738 1.62-1.616v-.386c0-.914-.74-1.616-1.62-1.616h-7.993c-.916 0-1.62.738-1.62 1.616v.386c-.035.914.704 1.616 1.585 1.616" fill="#4DB696"/><path d="M107.285 146.594h7.993c.916 0 1.62-.738 1.62-1.616v-.386c0-.914-.739-1.616-1.62-1.616h-7.993c-.915 0-1.62.738-1.62 1.616v.386c-.035.914.705 1.616 1.62 1.616Z" stroke="#C1C7D0" stroke-width="1.708" stroke-miterlimit="10"/><path d="M108.555 144.802h5.422" stroke="#C1C7D0" stroke-width="1.708" stroke-miterlimit="10" stroke-linecap="round"/><path d="M122.148 144.802h5.423" stroke="#fff" stroke-width="1.708" stroke-miterlimit="10" stroke-linecap="round"/><path d="M72.531 143.081h24.684" stroke="#8993A4" stroke-width="3.416" stroke-miterlimit="10" stroke-linecap="round" stroke-linejoin="round"/><path d="M69.541 144.557c.817 0 1.48-.661 1.48-1.476s-.663-1.475-1.48-1.475a1.477 1.477 0 1 0 0 2.951" stroke="#8993A4" stroke-width=".854" stroke-miterlimit="10" stroke-linecap="round" stroke-linejoin="round"/><path d="M72.531 147.121h20.036" stroke="#8993A4" stroke-width="3.416" stroke-miterlimit="10" stroke-linecap="round" stroke-linejoin="round"/><path d="M69.541 148.597c.817 0 1.48-.661 1.48-1.476s-.663-1.475-1.48-1.475a1.477 1.477 0 1 0 0 2.951" stroke="#8993A4" stroke-width=".854" stroke-miterlimit="10" stroke-linecap="round" stroke-linejoin="round"/><path d="M72.531 139.006h14.966" stroke="#8993A4" stroke-width="3.416" stroke-miterlimit="10" stroke-linecap="round" stroke-linejoin="round"/><path d="M69.541 140.482c.817 0 1.48-.661 1.48-1.476s-.663-1.475-1.48-1.475a1.477 1.477 0 1 0 0 2.951Z" stroke="#3D68FF" stroke-width=".854" stroke-miterlimit="10"/><path d="M69.544 139.814a.81.81 0 1 0 .002-1.618.81.81 0 0 0-.002 1.618" fill="#3D68FF"/><path fill-rule="evenodd" clip-rule="evenodd" d="m36.055 88.279.176-.211c.176-.176.282-.351.352-.527l1.373 1.686c.247.316.247.387-.176.387h-.14c-.423 0-.564-.07-.81-.387zm0-2.249.74-.913c.246-.281.386-.386.81-.386h.14c.422 0 .422.07.176.386l-1.373 1.686a1.5 1.5 0 0 0-.352-.527zm-2.078 3.549c-.422 0-.422-.07-.176-.387l1.409-1.721c.105-.14.176-.246.176-.317 0-.105-.07-.21-.176-.316l-1.41-1.721c-.246-.316-.246-.386.176-.386h.141c.423 0 .563.07.81.386l1.092 1.335c.457.527.457.913 0 1.475l-1.092 1.335c-.247.281-.387.387-.81.387h-.14zm-7.711 1.51v-4.391c0-1.405.81-2.073 2.253-2.073 1.514 0 2.254.668 2.254 2.073v.843c0 1.405-.67 2.143-2.043 2.143-.704 0-1.162-.21-1.443-.632v2.037c0 .351-.106.457-.458.457h-.106c-.387 0-.457-.106-.457-.457m3.45-3.513v-.843c0-.808-.246-1.16-1.232-1.16-.95 0-1.232.352-1.232 1.16v.843c0 .808.281 1.16 1.232 1.16.986 0 1.232-.352 1.232-1.16m1.972 1.546v-3.97c0-.351.106-.457.458-.457h.141c.352 0 .458.106.458.457v3.97c0 .351-.106.457-.458.457h-.14c-.353 0-.459-.106-.459-.457m.07-5.445a.614.614 0 0 1 0-.879.617.617 0 0 1 .881 0 .614.614 0 0 1 0 .879.69.69 0 0 1-.88 0" fill="#fff"/><path opacity=".5" d="M58.555 92.846h56.41" stroke="#fff" stroke-width="4.903" stroke-miterlimit="10" stroke-linecap="round"/><path d="M58.555 92.846h33.91" stroke="#fff" stroke-width="4.903" stroke-miterlimit="10" stroke-linecap="round"/><path fill-rule="evenodd" clip-rule="evenodd" d="M96.691 86.1h-4.26a.48.48 0 0 0-.493.492v2.81a.48.48 0 0 0 .492.493h.493v.948s0 .035.036 0l.74-.948h2.992a.48.48 0 0 0 .493-.492v-2.81a.48.48 0 0 0-.493-.492m-.493 2.706h-3.24a.24.24 0 0 1-.246-.246.24.24 0 0 1 .247-.246h3.24a.24.24 0 0 1 .246.246.24.24 0 0 1-.247.246m0-1.23h-3.24a.24.24 0 0 1-.246-.246.24.24 0 0 1 .247-.246h3.24a.24.24 0 0 1 .246.246.24.24 0 0 1-.247.246" fill="#fff"/><path d="M133.662 91.16h-9.684a1.11 1.11 0 0 0-1.126 1.124v1.124a1.11 1.11 0 0 0 1.126 1.124h9.684c.634 0 1.127-.492 1.127-1.124v-1.124c0-.633-.493-1.125-1.127-1.125" fill="#fff"/><path d="M124.328 92.846h8.979" stroke="#DDDFE5" stroke-width="4.903" stroke-miterlimit="10" stroke-linecap="round"/><path d="M21.158 72.962h137.54c.493 0 .916.422.916.913v5.516H20.172v-5.445c0-.527.458-.984.986-.984" fill="#fff"/><path d="M24.572 77.248a1.055 1.055 0 1 0 0-2.108 1.055 1.055 0 1 0 0 2.108" fill="#DFE1E6"/><path d="M28.799 77.248a1.055 1.055 0 1 0 0-2.108 1.055 1.055 0 1 0 0 2.108" fill="#EBECF0"/><path d="M32.986 77.248a1.055 1.055 0 1 0 0-2.108 1.055 1.055 0 1 0 0 2.108m77.116.141H69.677a1.096 1.096 0 0 1-1.091-1.09v-.245c0-.598.493-1.09 1.091-1.09h40.425c.598 0 1.091.492 1.091 1.09v.245c0 .598-.493 1.09-1.091 1.09" fill="#F4F5F7"/></g><path opacity=".6" fill-rule="evenodd" clip-rule="evenodd" d="M157.924 161.138H21.933a1.764 1.764 0 0 1-1.761-1.757V74.719c0-.984.81-1.757 1.76-1.757h135.992c.985 0 1.76.808 1.76 1.757v84.662c0 .984-.81 1.757-1.76 1.757" fill="#fff"/><g opacity=".6"><mask id="d" style="mask-type:luminance" maskUnits="userSpaceOnUse" x="20" y="72" width="140" height="90"><path d="M157.924 161.138H21.933a1.764 1.764 0 0 1-1.761-1.757V74.719c0-.984.81-1.757 1.76-1.757h135.992c.985 0 1.76.808 1.76 1.757v84.662c0 .984-.81 1.757-1.76 1.757" fill="#fff"/></mask><g mask="url(#d)"><path d="M144.93 118.842c-3.873 3.232-5.634 8.712-4.366 13.595-3.557-.703-7.43.456-10.001 3.021s-3.768 6.394-3.063 9.977c-3.944-2.705-9.93-1.686-12.747 2.143-.071-2.53-.176-5.199-1.479-7.342-1.338-2.143-4.367-3.478-6.479-2.108 1.62-1.827 1.866-4.708.563-6.78-1.268-2.073-3.979-3.127-6.338-2.494-.071-3.022-2.007-24.521-3.592-42.648H83.942c-1.55 17.811-3.38 38.291-3.451 41.242-2.36-.632-5.035.457-6.338 2.495-1.268 2.072-1.022 4.953.563 6.78-2.148-1.37-5.176-.036-6.48 2.107-1.337 2.143-1.443 4.813-1.478 7.343-2.817-3.83-8.838-4.848-12.747-2.143.67-3.549-.493-7.413-3.063-9.977s-6.444-3.724-10-3.021c1.267-4.848-.529-10.364-4.367-13.596-3.874-3.232-9.613-3.969-16.339-1.861v46.055l139.618-.036v-44.649c-5.317-2.073-11.057-1.335-14.93 1.897" fill="url(#e)"/></g><mask id="f" style="mask-type:luminance" maskUnits="userSpaceOnUse" x="20" y="72" width="140" height="90"><path d="M157.924 161.138H21.933a1.764 1.764 0 0 1-1.761-1.757V74.719c0-.984.81-1.757 1.76-1.757h135.992c.985 0 1.76.808 1.76 1.757v84.662c0 .984-.81 1.757-1.76 1.757" fill="#fff"/></mask><g mask="url(#f)"><path d="M144.12 152.39c-4.894-3.267-11.162-4.426-16.902-3.126-5.739 1.335-10.88 5.094-13.838 10.187-1.198-1.615-2.782-2.915-4.578-3.829q.212-.526.317-1.054c.81-3.513-.704-7.482-3.697-9.555-2.113-1.475-4.86-1.932-7.36-1.37l-4.05-57.542h-5.316v52.905c-3.275.492-5.564 4.391-4.437 7.483-2.289.316-4.367 1.861-5.352 3.969-.317.668-.352 2.108-.106 3.759-3.98.07-7.958 2.038-10.317 5.27-2.958-5.094-8.1-8.853-13.839-10.188s-12.007-.176-16.902 3.127c-1.373-6.71-8.909-11.488-17.641-10.329v19.778l139.758-.21v-19.181c-6.831-1.581-14.331 3.197-15.74 9.906" fill="url(#g)"/></g><mask id="h" style="mask-type:luminance" maskUnits="userSpaceOnUse" x="20" y="72" width="140" height="90"><path d="M157.924 161.138H21.933a1.764 1.764 0 0 1-1.761-1.757V74.719c0-.984.81-1.757 1.76-1.757h135.992c.985 0 1.76.808 1.76 1.757v84.662c0 .984-.81 1.757-1.76 1.757" fill="#fff"/></mask><g mask="url(#h)"><path d="M61.619 124.884c-1.057-.597-1.655-1.897-1.48-3.091.212-1.195 1.198-2.214 2.36-2.459 1.092-.211 2.43.105 3.134-.773.634-.773.14-1.827.423-3.092.281-1.229 1.373-1.862 2.57-1.826 1.197.035 2.324.807 2.923 1.826.598 1.054.986 2.635.845 3.829-.317 2.741-1.796 4.146-3.592 5.305-1.83 1.159-5.282 1.405-7.183.281" fill="url(#i)"/></g><mask id="j" style="mask-type:luminance" maskUnits="userSpaceOnUse" x="20" y="72" width="140" height="90"><path d="M157.924 161.138H21.933a1.764 1.764 0 0 1-1.761-1.757V74.719c0-.984.81-1.757 1.76-1.757h135.992c.985 0 1.76.808 1.76 1.757v84.662c0 .984-.81 1.757-1.76 1.757" fill="#fff"/></mask><g mask="url(#j)"><path d="M106.059 102.998c.88-1.686 2.852-2.705 4.718-2.459s3.522 1.721 3.979 3.548c.388 1.686 0 3.794 1.409 4.813 1.268.913 2.887.141 4.859.492 1.937.351 2.993 2.002 3.028 3.864s-1.091 3.654-2.711 4.637c-1.62.984-4.085 1.686-5.951 1.546-4.296-.351-6.585-2.529-8.486-5.305-1.902-2.74-2.5-8.08-.845-11.136" fill="url(#k)"/></g><mask id="l" style="mask-type:luminance" maskUnits="userSpaceOnUse" x="20" y="72" width="140" height="90"><path d="M157.924 161.138H21.933a1.764 1.764 0 0 1-1.761-1.757V74.719c0-.984.81-1.757 1.76-1.757h135.992c.985 0 1.76.808 1.76 1.757v84.662c0 .984-.81 1.757-1.76 1.757" fill="#fff"/></mask><g mask="url(#l)"><path d="M74.046 97.412c-.74.316-1.62 1.405-1.55 2.6.07 1.581 1.69 2.881 3.24 2.635 1.55-.281 2.64-2.073 2.148-3.584-.493-1.51-2.43-2.353-3.838-1.65" fill="url(#m)"/></g></g><path d="M85.59 68.114c-3.029 1.44-4.437 5.586-2.853 8.572.634 1.159 1.655 2.213 1.796 3.513.211 2.037-1.725 3.618-2.289 5.55-.704 2.284.81 4.989 3.134 5.586 1.056.28 2.289.21 2.993 1.054.88 1.053.247 2.775 1.021 3.934.705 1.019 2.29 1.09 3.31.387 1.021-.668 1.62-1.862 2.007-3.057.423-1.159.705-2.389 1.409-3.407.775-1.124 1.972-1.897 2.887-2.88 2.254-2.39 2.958-5.938 2.465-9.17s-2.077-6.218-3.873-8.958z" fill="#FFD235"/><path d="M88.264 69.835c-2.57 1.125-3.697 4.708-2.253 7.097.88 1.475 2.606 2.81 2.183 4.461-.282 1.124-1.514 1.827-1.831 2.916-.458 1.475.95 3.056 2.465 3.232 1.55.175 3.028-.632 4.19-1.651 4.05-3.548 4.719-11.066 2.183-15.809z" fill="#F4C042"/><path d="M101.544 47.212s12.782 8.431 11.866 23.08a.378.378 0 0 1-.634.246c-1.056-.913-3.415-2.88-5.387-3.759-2.641-1.194-6.233-1.16-6.233-1.16z" fill="#88BEFF"/><path d="M79.54 65.304s1.795 4.988 2.992 4.988h15.6c1.197 0 2.992-4.672 2.992-4.672z" fill="#5B94FF"/><path d="M89.539 15.103c-6.163.422-10.916 5.586-10.81 11.769l.81 38.713h21.62l.739-38.748c.141-6.745-5.563-12.19-12.36-11.734" fill="#C4E6FF"/><path d="M89.539 15.103c-6.163.422-10.916 5.586-10.81 11.769l.81 38.713h21.62l.739-38.748c.141-6.745-5.563-12.19-12.36-11.734" fill="#C4E6FF"/><mask id="n" style="mask-type:luminance" maskUnits="userSpaceOnUse" x="78" y="15" width="24" height="51"><path d="M89.539 15.103c-6.163.422-10.916 5.586-10.81 11.769l.81 38.713h21.62l.739-38.748c.141-6.745-5.563-12.19-12.36-11.734" fill="#fff"/></mask><g mask="url(#n)"><path opacity=".6" d="M97.673 67.06s.634-31.617.634-43.947S89.68 5.162 89.68 5.162L93.412.735l23.593 18.62-7.712 43.279z" fill="#939393"/></g><path d="M79.148 47.212S66.542 55.538 67.28 69.94c.035.456.564.703.916.421 1.232-1.018 3.521-2.81 5.176-3.407 3.028-1.09 6.127-1.335 6.127-1.335z" fill="#88BEFF"/><path d="M78.87 25.572c4.577-4.005 18.944-3.9 22.782-.668C100.666 10.572 89.68 5.162 89.68 5.162c-11.268 7.798-10.81 20.41-10.81 20.41" fill="#DCF1FF"/><mask id="o" style="mask-type:luminance" maskUnits="userSpaceOnUse" x="78" y="5" width="24" height="21"><path d="M78.87 25.572c4.577-4.005 18.944-3.9 22.782-.668C100.666 10.572 89.68 5.162 89.68 5.162c-11.268 7.798-10.81 20.41-10.81 20.41" fill="#fff"/></mask><g mask="url(#o)"><path opacity=".6" d="M97.673 67.06s.634-31.617.634-43.947S89.68 5.162 89.68 5.162L93.412.735l23.593 18.62-7.712 43.279z" fill="#939393"/></g><path d="M90.765 28.663c2.852.633 4.648 3.654 3.944 6.71-.67 3.056-3.557 5.059-6.409 4.427s-4.648-3.619-3.944-6.71c.67-3.057 3.557-5.059 6.409-4.427" fill="#DCF1FF"/><path d="M84.075 33.37c0 .071-1.233.036-2.676.317-1.48.246-2.606.703-2.641.632 0-.035.246-.175.74-.351a11 11 0 0 1 1.865-.527 10.6 10.6 0 0 1 1.937-.176c.458.035.775.106.775.106m17.467-.001c0 .036-.387 0-.986-.105-.599-.07-1.409-.175-2.324-.245-.916-.07-1.726-.07-2.324-.106-.599 0-.986 0-.986-.035s.352-.07.986-.105a18 18 0 0 1 2.36.035c.915.07 1.76.175 2.323.28.599.141.951.247.951.282m.142 22.167h-.246c-.176 0-.387-.035-.669-.035-.599-.035-1.409-.106-2.395-.176-2.042-.14-4.824-.281-7.922-.281-3.1 0-5.916.14-7.923.281-.986.07-1.796.14-2.395.176a5 5 0 0 1-.669.035h-.246s.07-.035.211-.035q.264-.052.634-.106c.563-.07 1.373-.175 2.394-.246a94 94 0 0 1 7.958-.351c3.1 0 5.916.176 7.958.351 1.022.106 1.831.176 2.395.246.246.035.493.07.634.106.176 0 .281.035.281.035M84.643 38.921c0 .035-.141.035-.211.211a.37.37 0 0 0-.036.281c.036.106.141.176.247.176s.246-.035.282-.14a.4.4 0 0 0 0-.282c-.07-.175-.212-.21-.176-.246 0-.035.176-.07.316.14.07.106.106.247.036.422-.07.176-.282.281-.458.281a.42.42 0 0 1-.423-.35.55.55 0 0 1 .106-.422c.14-.14.317-.07.317-.07m4.719 2.564c0 .035-.141.035-.212.21a.37.37 0 0 0-.035.282.265.265 0 0 0 .247.175c.105 0 .246-.035.281-.14a.4.4 0 0 0 0-.281c-.07-.176-.211-.211-.176-.246 0-.035.176-.07.317.14.07.106.106.246.035.422-.07.175-.281.28-.457.28a.42.42 0 0 1-.423-.35.55.55 0 0 1 .106-.422c.14-.176.317-.105.317-.07m5.211-2.178c0 .035-.141.035-.212.21-.035.07-.07.176-.035.282s.14.175.247.175c.105 0 .246-.035.281-.14a.4.4 0 0 0 0-.281c-.07-.176-.211-.211-.176-.246 0-.035.176-.07.317.14.07.106.106.246.035.422-.07.175-.281.28-.457.28a.42.42 0 0 1-.423-.35.55.55 0 0 1 .106-.422c.14-.14.317-.105.317-.07m1.687-3.864c0 .035-.14.035-.211.21a.37.37 0 0 0-.035.281c.035.106.14.176.246.176s.246-.035.282-.14a.4.4 0 0 0 0-.281c-.07-.176-.212-.211-.176-.246 0-.036.176-.07.317.14.07.105.105.246.035.422-.07.175-.282.28-.458.28a.42.42 0 0 1-.422-.35.55.55 0 0 1 .105-.422c.141-.176.317-.106.317-.07m-13.344-.387c0 .035-.14.035-.211.21a.37.37 0 0 0-.035.282c.035.105.14.175.246.175s.247-.035.282-.14a.4.4 0 0 0 0-.281c-.07-.176-.211-.21-.176-.246 0-.035.176-.07.317.14.07.106.106.246.035.422s-.282.281-.458.281a.42.42 0 0 1-.422-.351.55.55 0 0 1 .105-.422c.141-.14.352-.105.317-.07m11.619-5.304c0-.036.141-.036.212-.211.035-.07.07-.176.035-.281a.265.265 0 0 0-.247-.176c-.105 0-.246.035-.281.14a.4.4 0 0 0 0 .282c.07.175.21.21.176.245 0 .036-.177.07-.317-.14a.43.43 0 0 1-.035-.421c.07-.176.281-.282.457-.282.212 0 .388.14.423.352a.55.55 0 0 1-.106.421c-.14.14-.317.07-.317.07m-5.172-2.318c0-.035.141-.035.212-.21a.37.37 0 0 0 .035-.282.265.265 0 0 0-.247-.175c-.105 0-.246.035-.281.14a.4.4 0 0 0 0 .281c.07.176.21.21.176.246 0 .035-.176.07-.317-.14a.43.43 0 0 1-.035-.422c.07-.176.281-.281.457-.281.212 0 .388.14.423.351a.55.55 0 0 1-.106.422c-.176.175-.352.105-.317.07m-5.148 2.319c0-.036.14-.036.211-.211.035-.07.07-.176.035-.281a.265.265 0 0 0-.246-.176c-.106 0-.247.035-.282.14a.4.4 0 0 0 0 .282c.07.175.211.21.176.245 0 .036-.176.07-.317-.14a.43.43 0 0 1-.035-.421c.07-.176.282-.282.458-.282.211 0 .387.14.422.352a.55.55 0 0 1-.105.421c-.176.14-.352.07-.317.07" fill="#88BEFF"/><path d="m88.688 48.793.457 23.115c0 .668.564 1.194 1.233 1.194s1.197-.526 1.197-1.194c.035-4.18.211-18.197.211-23.15 0-.949-.845-1.687-1.796-1.546a1.62 1.62 0 0 0-1.302 1.58" fill="#88BEFF"/><path d="M89.394 6.497c-4.578 4.918-7.324 9.976-8.909 16.51-.07-5.304 4.437-13.7 8.909-16.51m-10.74 42.998c-4.788 3.549-9.26 9.872-10 16.265-.352 2.354-.317 4.708-.528 2.46-.317-7.307 3.979-15.352 10.528-18.725" fill="#F2F9FF"/><path d="M116.159 130.54c-.352.175-.809.702-.774 1.3.035.772.845 1.44 1.619 1.299.775-.14 1.339-1.053 1.092-1.791s-1.232-1.159-1.937-.808" fill="#E8505B"/><path d="M116.159 130.54c-.352.175-.809.702-.774 1.3.035.772.845 1.44 1.619 1.299.775-.14 1.339-1.053 1.092-1.791s-1.232-1.159-1.937-.808" fill="#fff" opacity=".8"/><path d="M103.061 130.751H81.159c-2.148 0-3.909-1.757-3.909-3.9v-.878c0-2.143 1.76-3.9 3.909-3.9h21.902c2.148 0 3.908 1.757 3.908 3.9v.878c0 2.178-1.76 3.9-3.908 3.9" fill="#fff"/><path d="M130.211 167.145s.176-.527.458-.703c.281-.175.669.211.598.633-.07.421-1.056.07-1.056.07m-7.996 6.218s-.282-.07-.352.246c-.071.351-.141.597-.036.737.106.141 1.303 1.16 3.029 1.546s4.331.141 4.436.07c.106-.07.036-.351.106-.386.035-.035.81-.105 1.232-.211.423-.105 1.057-.035 1.127-.035s.035.632.071.703 1.021.14 1.76.105c.74 0 1.62-.211 1.691-.281.035-.035.105-1.44.105-1.581 0-.14-.246-.527-.246-.527z" fill="#282525"/><path d="M135.169 173.784s-.739.527-2.817.633h-.246c-1.937.14-3.31.773-5.282.597-2.078-.141-3.521-.597-4.613-1.651 0 0 .211-.808 1.056-.949s1.937.035 3.099-.702c.528-.352 1.021-.703 1.409-1.089a9.7 9.7 0 0 0 1.091-1.335c.564-.843 1.021-1.932 1.233-2.178.211-.246.774-.352 1.514-.141.704.211 3.345.703 3.415.843.036.141-.141 1.546-.141 2.495 0 .491.036.878.071 1.264.035.176.035.352.07.527s.071.316.106.492c.07.597.035 1.194.035 1.194" fill="#C4A4FF"/><path d="M134.852 170.342c0 .702.036 1.299.141 1.791-.528.106-1.056.211-1.056.246-.071.035-1.585.387-2.571.457-.563.035-1.443.211-2.113.316-.492.105-.88.176-.95.176-.141 0-.035-.176-.388-.668-.352-.492-.387-.456-.457-1.089-.036-.246.14-.597.352-.913a9.6 9.6 0 0 0 1.091-1.335c.564-.843 1.022-1.932 1.233-2.178s.774-.351 1.514-.141h.035c.775.211 3.31.703 3.381.843-.036.141-.212 1.546-.212 2.495" fill="#9D67FF"/><path d="M135.173 173.784s-.74.527-2.817.633h-.247c.106-.141.212-.387.529-1.124.528-1.195 1.619-1.687 2.253-1.722.035.176.035.352.071.527s.07.316.105.492c.141.597.106 1.194.106 1.194m-5.951-.632c-.493.105-.88.176-.951.176-.14 0-.035-.176-.387-.668s-.387-.456-.458-1.089c-.035-.246.141-.597.353-.913a9.6 9.6 0 0 0 1.091-1.335c.564-.843 1.021-1.932 1.233-2.178.211-.246.774-.351 1.514-.141h.035c-.423 1.862-2.5 4.04-2.711 4.883-.177.562.07 1.019.281 1.265" fill="#8845FF"/><path d="M131.545 169.182c-.211-.316-.247-.491-.176-.632.07-.14.141-.175.141-.386s.141-.176.176-.316 0-.352.141-.422a.55.55 0 0 0 .211-.281c.035-.105.176-.07.246-.141s.106-.281.353-.14c.246.105.176.211.422.14.247-.07.352 0 .458.071s.317-.106.528 0c.211.105.211.21.423.21.211 0 .317-.035.457.176.176.211.247.035.423.141s.106.351.141.527c.035.175.246.281.07.597s-.176.351-.105.632c.035.281.176.527-.141.632-.317.106-.352-.035-.564 0s-.387.211-.634.036c-.246-.176-.352.035-.633 0s-.141-.211-.458-.211-.458.14-.634 0-.282-.387-.458-.387c-.105-.105-.281-.105-.387-.246" fill="#EBE1FF"/><path d="M130.559 167.883c-.071.07-.141.07-.212.035-.07-.07-.07-.141-.035-.211.071-.07.141-.07.211-.035s.106.141.036.211" fill="#C78442"/><path d="M130.176 168.585c-.071.07-.141.07-.211.035-.071-.07-.071-.14-.036-.21.071-.071.141-.071.212-.036.07.036.105.141.035.211m-.391.668c-.07.07-.141.07-.211.035-.07-.07-.07-.141-.035-.211.07-.07.141-.07.211-.035.07.07.106.14.035.211m-.32.597c-.07.07-.141.07-.211.035s-.071-.14-.036-.211c.071-.07.141-.07.212-.035.07.035.07.141.035.211m-.524.667c-.07.071-.14.071-.211.035-.07-.07-.07-.14-.035-.21.07-.071.141-.071.211-.035s.106.14.035.21m-.421.527c-.071.071-.141.071-.212.036-.07-.071-.07-.141-.035-.211s.141-.071.211-.035.071.14.036.21" fill="#D8C2FF"/><path d="M128.343 169.885c.141-.176.598.351.493.527-.071.211-.634-.316-.493-.527m.457-.597c.07-.176.634.456.634.527-.036.105-.74-.352-.634-.527m.319-.527c.035-.176.704.281.598.457-.105.175-.633-.352-.598-.457m.347-.633c.071-.21.705.211.634.387s-.704-.246-.634-.387" fill="#C4A4FF"/><path d="M129.857 167.321c.035-.141.598.386.598.527.035.14-.669-.246-.598-.527" fill="#282525"/><path d="M127.848 170.412c.035-.07.598.387.563.562s-.669-.246-.563-.562" fill="#C4A4FF"/><path d="M154.432 167.286s-.387-.352-.422-.703c-.036-.316.457-.492.774-.246.352.246-.352.949-.352.949m1.197 7.517s-.423 1.019.105 1.019c.141 0 2.078.316 3.909-.386 1.197-.457 2.183-3.619 2.148-3.759 0-.106-.317-.211-.317-.246 0-.071.247-.773.317-1.16.07-.421.387-.948.423-.983s.563.211.633.211.529-.844.81-1.476.493-1.51.458-1.581-1.197-.667-1.338-.737c-.141-.071-.563 0-.563 0z" fill="#282525"/><path d="M162.248 165.705s.141.843-.599 2.705a.5.5 0 0 0-.07.211c-.669 1.756-.669 3.161-1.62 4.812-.986 1.722-2.958.843-4.296 1.37 0 0-.176-.562.071-1.124.317-.773 1.162-.773 1.162-1.475 0-.597-.212-.878-.388-1.37a9.6 9.6 0 0 0-.704-1.476c-.493-.843-1.268-1.686-1.408-1.967-.141-.281 0-.808.493-1.37.492-.527 2.007-2.635 2.112-2.6.141 0 1.303.738 2.113 1.124.423.211.775.352 1.127.457.176.07.317.106.493.141.141.035.317.07.458.105a6 6 0 0 1 1.056.457" fill="#C4A4FF"/><path d="M159.114 164.581c.634.281 1.127.491 1.585.597-.106.492-.247.983-.247 1.019 0 .07-.317 1.545-.634 2.424a45 45 0 0 0-.598 1.967c-.141.456-.212.843-.247.878-.07.105-.176-.035-.739.07-.564.106-.564.141-1.127-.035-.211-.07-.458-.351-.669-.667a9.7 9.7 0 0 0-.704-1.476c-.493-.843-1.268-1.686-1.409-1.967s0-.808.493-1.37c0 0 0-.035.035-.035.529-.562 1.972-2.6 2.113-2.565s1.303.773 2.148 1.16" fill="#9D67FF"/><path d="M162.249 165.705s.141.843-.599 2.705a.5.5 0 0 0-.07.21c-.071-.14-.247-.351-.74-.913-.81-.949-.81-2.073-.563-2.67.176.07.317.105.493.141.141.035.317.07.458.105a5 5 0 0 1 1.021.422m-2.99 4.918c-.141.456-.211.843-.247.878-.07.105-.176-.035-.739.07-.564.106-.564.141-1.127-.035-.211-.07-.458-.351-.669-.667a9.7 9.7 0 0 0-.704-1.476c-.493-.843-1.268-1.686-1.409-1.967s0-.808.493-1.37c0 0 0-.035.035-.035 1.444 1.124 2.465 3.829 3.134 4.356.423.351.916.316 1.233.246" fill="#8845FF"/><path d="M156.759 166.934c-.352.07-.528 0-.634-.105-.106-.106-.07-.211-.282-.281s-.07-.211-.211-.281-.317-.176-.317-.281c0-.141-.07-.211-.176-.316-.07-.106 0-.176 0-.281s-.176-.211.035-.387c.212-.176.282-.07.282-.316.035-.246.176-.316.282-.387.105-.07.035-.316.211-.456s.282-.106.352-.281.106-.281.352-.316c.247-.071.141-.211.317-.317.141-.105.352.071.528.071.176.035.352-.071.529.175.211.281.246.281.493.352.281.07.528.07.492.386-.035.316-.176.281-.246.457-.07.211.035.421-.246.562-.247.14-.106.316-.282.527-.141.211-.247.035-.388.316-.14.281-.07.457-.281.562s-.458.105-.528.246c-.036.176-.106.351-.282.351" fill="#EBE1FF"/><path d="M155.241 167.285c.035.071 0 .176-.071.211s-.176 0-.211-.07 0-.176.071-.211.176 0 .211.07m.422.598c.035.07 0 .175-.071.21s-.176 0-.211-.07 0-.176.07-.211a.17.17 0 0 1 .212.071" fill="#C78442"/><path d="M156.124 168.515c.035.07 0 .176-.071.211s-.176 0-.211-.071a.17.17 0 0 1 .07-.21.17.17 0 0 1 .212.07m.382.527c.036.07 0 .176-.07.211s-.176 0-.211-.07 0-.176.07-.211.141 0 .211.07m.321.703c.035.07 0 .175-.071.21s-.176 0-.211-.07 0-.175.07-.211c.106-.035.177 0 .212.071m.281.597c.035.07 0 .175-.07.211a.17.17 0 0 1-.212-.071.17.17 0 0 1 .071-.21c.07-.036.176 0 .211.07" fill="#D8C2FF"/><path d="M156.05 170.026c-.105-.211.564-.352.669-.211s-.528.421-.669.211m-.353-.633c-.105-.14.669-.386.74-.316s-.599.457-.74.316" fill="#C4A4FF"/><path d="M155.387 168.901c-.141-.105.528-.491.633-.351.141.141-.528.387-.633.351m-.389-.562c-.141-.14.458-.527.598-.421.106.14-.528.527-.598.421m-.565-.667c-.106-.07.564-.351.704-.316s-.493.492-.704.316" fill="#282525"/><path d="M156.302 170.658c-.07-.07.564-.351.705-.246.14.105-.458.492-.705.246" fill="#C4A4FF"/><path d="M157.32 162.789c-.422-1.089-13.697-5.094-13.697-5.094l14.402-2.002.739-6.991-26.938 2.354-3.803 5.445.986 6.85s24.896 6.358 25.882 5.621c.986-.738 2.852-5.094 2.429-6.183" fill="#88BEFF"/><mask id="p" style="mask-type:luminance" maskUnits="userSpaceOnUse" x="128" y="148" width="31" height="22"><path d="M157.32 162.789c-.422-1.089-13.697-5.094-13.697-5.094l14.402-2.002.739-6.991-26.938 2.354-3.803 5.445.986 6.85s24.896 6.358 25.882 5.621c.986-.738 2.852-5.094 2.429-6.183" fill="#fff"/></mask><g mask="url(#p)"><path opacity=".6" d="M140.314 150.002c9.049 6.464 17.254 7.201 17.254 7.201l.704-3.618-17.078-5.726s-9.895-4.321-.88 2.143" fill="#939393"/></g><mask id="q" style="mask-type:luminance" maskUnits="userSpaceOnUse" x="128" y="148" width="31" height="22"><path d="M157.32 162.789c-.422-1.089-13.697-5.094-13.697-5.094l14.402-2.002.739-6.991-26.938 2.354-3.803 5.445.986 6.85s24.896 6.358 25.882 5.621c.986-.738 2.852-5.094 2.429-6.183" fill="#fff"/></mask><g mask="url(#q)"><path opacity=".6" d="M137.003 149.334s1.972 14.825.704 18.478c-.88 2.53-5.105-5.691-5.105-5.691l1.584-12.154z" fill="#939393"/></g><path d="M128.272 167.672c-1.303-.913-1.303-25.012-1.303-25.012.07-2.424 1.408-4.673 3.521-5.867a7.08 7.08 0 0 1 5.775-.597l17.465 5.796 9.578 2.459s1.62 4.005.669 7.132c-.951 3.056-5.246 4.812-7.606 4.461-3.767-.562-20.141-8.572-20.141-8.572s1.232 19.392 0 20.376c-1.268 1.018-6.656.772-7.958-.176" fill="#88BEFF"/><mask id="r" style="mask-type:luminance" maskUnits="userSpaceOnUse" x="126" y="135" width="39" height="34"><path d="M128.272 167.672c-1.303-.913-1.303-25.012-1.303-25.012.07-2.424 1.408-4.673 3.521-5.867a7.08 7.08 0 0 1 5.775-.597l17.465 5.796 9.578 2.459s1.62 4.005.669 7.132c-.951 3.056-5.246 4.812-7.606 4.461-3.767-.562-20.141-8.572-20.141-8.572s1.232 19.392 0 20.376c-1.268 1.018-6.656.772-7.958-.176" fill="#fff"/></mask><g mask="url(#r)"><path opacity=".6" d="M151.969 123.514s6.48 16.651 6.057 18.373c-.634 2.424-3.028 4.075-6.303 3.583-3.31-.457-18.135-8.15-18.98-8.15s-5.141 1.756-5.211 1.265 5.352-4.286 5.352-4.286l13.874 4.391 5.352-.105z" fill="#939393"/></g><mask id="s" style="mask-type:luminance" maskUnits="userSpaceOnUse" x="126" y="135" width="39" height="34"><path d="M128.272 167.672c-1.303-.913-1.303-25.012-1.303-25.012.07-2.424 1.408-4.673 3.521-5.867a7.08 7.08 0 0 1 5.775-.597l17.465 5.796 9.578 2.459s1.62 4.005.669 7.132c-.951 3.056-5.246 4.812-7.606 4.461-3.767-.562-20.141-8.572-20.141-8.572s1.232 19.392 0 20.376c-1.268 1.018-6.656.772-7.958-.176" fill="#fff"/></mask><g mask="url(#s)"><path opacity=".6" d="M136.198 147.507s-.599-2.424-1.479-3.126c0 0 3.768 2.178 4.542 3.478.775 1.3 0 1.335 0 1.335z" fill="#939393"/></g><path opacity=".6" d="M139.259 157.028c0-.036 1.479-.808 2.465-.527s1.901 1.229 1.901 1.229c-.035.035-.951-.351-2.183-.667-1.233-.281-2.218 0-2.183-.035" fill="#939393"/><path d="M134.713 133.104s-2.253-.772-3.098-.562c-.846.211-3.24 2.635-3.24 3.302s.599 2.108.599 2.108l3.767-1.405zm-28.555-7.517 3.521-.773 5.669.878-.211 3.583s-1.761.246-2.394.035c-.634-.21-1.162-.035-1.162-.035s.352.703-.247.808-1.549.351-1.761-.492c0 0-.457.071-.669-.491 0 0-.457.175-.669-.633-.211-.808-.105-2.002 1.515-2.389.07-.035.105-.21-.036-.21l-2.5.456c0 .071-1.69.141-1.056-.737" fill="#F9A885"/><path d="M109.153 128.081c0-.035.211-.071.598-.106.176 0 .388-.07.669-.07.141 0 .282.07.388.176.105.14.105.351.035.491-.176.317-.493.387-.704.457-.247.07-.458.106-.634.141-.387.07-.599.035-.599.035 0-.035.247-.035.599-.141.176-.035.387-.105.634-.175.105-.035.246-.071.352-.141s.211-.14.282-.246.07-.246 0-.316-.177-.14-.282-.14c-.211 0-.458.035-.634.035-.458.035-.704.035-.704 0" fill="#D37F62"/><path d="M109.783 127.308c0 .035-.176.14-.317.351s-.141.422-.211.422c-.035 0-.106-.246.07-.492.176-.281.423-.316.458-.281m.949 1.3h.106c.07.035.105.105.176.175.07.106.106.246.07.387-.035.175-.211.281-.352.316-.281.07-.563.14-.774.176s-.317 0-.317-.036.105-.035.317-.07c.176-.035.457-.14.739-.211.141-.035.246-.105.282-.21.035-.106.035-.211-.036-.281-.035-.106-.07-.176-.105-.176-.071-.07-.106-.07-.106-.07" fill="#D37F62"/><path d="M110.984 129.205s.036-.07.141-.07c.106 0 .247.035.388.105.176.106.176.281.211.387 0 .105 0 .175-.035.175s-.036-.07-.071-.14-.07-.211-.176-.246c-.106-.07-.246-.106-.317-.141-.105-.07-.141-.035-.141-.07" fill="#D37F62"/><path d="m112.7 126.395-1.584.632-1.514 1.054s0 .351.845.246c.845-.141 1.479-.562 1.479-.562s1.091.702 2.077.527" fill="#F9A885"/><path d="M114.042 128.291s-.035.035-.141.035-.246.035-.457 0c-.388-.035-.916-.176-1.514-.527h.07c-.493.316-1.127.597-1.866.632-.106 0-.212 0-.317-.035s-.247-.105-.247-.281v-.035l.036-.035c.563-.387 1.056-.738 1.514-1.054q.74-.264 1.162-.422c.281-.105.422-.14.457-.14s-.14.07-.422.211c-.282.105-.669.281-1.162.492-.423.316-.951.667-1.479 1.053l.035-.07c0 .035.071.106.141.141s.176.035.282.035a3.64 3.64 0 0 0 1.796-.597l.035-.036.035.036a5.2 5.2 0 0 0 1.444.562c.387.035.598 0 .598.035m-3.62-1.967c0 .035-.176.035-.388-.07-.176-.105-.281-.281-.246-.281.035-.035.141.07.317.176.176.07.317.14.317.175" fill="#D37F62"/><path d="M140.838 117.858c0 .316-1.338 10.223-1.338 12.225 0 2.038 3.873 4.216 3.873 4.216l4.261 8.993s5.81-.281 10.423.246c3.24.386 5.212 1.335 5.458 1.475 2.113-3.724-1.232-7.096-2.606-9.801-2.148-4.286-6.373-13.314-8.275-15.492-1.901-2.178-4.929-2.494-4.929-2.494z" fill="#F4C042"/><mask id="t" style="mask-type:luminance" maskUnits="userSpaceOnUse" x="139" y="117" width="26" height="29"><path d="M140.838 117.858c0 .316-1.338 10.223-1.338 12.225 0 2.038 3.873 4.216 3.873 4.216l4.261 8.993s5.81-.281 10.423.246c3.24.386 5.212 1.335 5.458 1.475 2.113-3.724-1.232-7.096-2.606-9.801-2.148-4.286-6.373-13.314-8.275-15.492-1.901-2.178-4.929-2.494-4.929-2.494z" fill="#fff"/></mask><g mask="url(#t)"><path opacity=".6" d="M151.962 123.514s6.479 16.651 6.056 18.373c-.634 2.424-3.028 4.075-6.303 3.583-3.31-.457-18.134-8.15-18.979-8.15-.846 0-5.141 1.756-5.212 1.265s5.352-4.286 5.352-4.286l13.874 4.391 5.352-.105z" fill="#939393"/></g><mask id="u" style="mask-type:luminance" maskUnits="userSpaceOnUse" x="139" y="117" width="26" height="29"><path d="M140.838 117.858c0 .316-1.338 10.223-1.338 12.225 0 2.038 3.873 4.216 3.873 4.216l4.261 8.993s5.81-.281 10.423.246c3.24.386 5.212 1.335 5.458 1.475 2.113-3.724-1.232-7.096-2.606-9.801-2.148-4.286-6.373-13.314-8.275-15.492-1.901-2.178-4.929-2.494-4.929-2.494z" fill="#fff"/></mask><g mask="url(#u)"><path opacity=".6" d="M145.243 125.657s.035 1.194.387 3.759c.352 2.353 1.057 6.077 0 5.62-1.584-.667-3.239-1.124-3.239-1.124l.845 3.197 8.803 1.897-3.909-14.403z" fill="#939393"/></g><path d="M115.028 130.224c.774.843 13.416 1.932 13.416 1.932 1.338.421 2.781.316 4.014-.352l11.937-6.112-3.557-7.834c-.493.176-1.091.421-1.338.562l-9.824 7.061s-13.627-1.194-14.261-.492c-.669.703-1.162 4.391-.387 5.235" fill="#F4C042"/><mask id="v" style="mask-type:luminance" maskUnits="userSpaceOnUse" x="114" y="117" width="31" height="16"><path d="M115.028 130.224c.774.843 13.416 1.932 13.416 1.932 1.338.421 2.781.316 4.014-.352l11.937-6.112-3.557-7.834c-.493.176-1.091.421-1.338.562l-9.824 7.061s-13.627-1.194-14.261-.492c-.669.703-1.162 4.391-.387 5.235" fill="#fff"/></mask><g mask="url(#v)"><path opacity=".6" fill-rule="evenodd" clip-rule="evenodd" d="M140.273 122.354c-.422 1.335-.317 2.6-.669 5.797-.352 3.302-4.12 2.283-4.12 2.283s.775-1.791 1.726-2.494c.986-.703 2.676-5.972 3.063-5.586" fill="#939393"/></g><path d="m145.239 125.657.211.878s2.254 8.607 2.324 9.766-11.726-4.251-12.817-3.618c-1.092.632-2.184 3.864-2.184 3.864l16.691 7.588c2.043.949 4.472.281 5.775-1.581.775-1.124 1.056-2.529.704-3.864l-3.732-14.579c-.528-2.002-2.641-3.162-4.578-2.494-1.69.597-2.711 2.318-2.394 4.04" fill="#F4C042"/><path d="M147.848 102.647c.247 1.335 2.183 1.862 2.395 3.232.07.597-.212 1.159-.176 1.756.035.773.563 1.44.845 2.178.563 1.511-.071 3.302-1.303 4.391-1.233 1.089-2.888 1.511-4.507 1.546m-8.166-11.733c.176.702-.211 1.44-.599 2.037-.387.633-.845 1.265-.845 2.003 0 1.3 1.444 2.283 1.409 3.583-.036.703-.493 1.335-.493 2.038 0 .667.457 1.264.986 1.686s1.021.281 1.479.773a5.9 5.9 0 0 0 1.936 1.229c1.514.527 3.029-.843 3.662-1.124" fill="#996629"/><path d="M148.238 103.349c-.07-.667-.774-1.054-1.408-1.229-.634-.141-1.338-.141-1.937-.422-.528-.246-.95-.702-1.408-1.054-1.162-.843-2.782-1.018-4.12-.421-1.303.597-2.254 1.932-2.395 3.372-.07.984.247 2.038 1.092 2.565.986.597 2.218.211 3.275-.176 1.056-.386 2.253-.808 3.275-.316.598.316 1.021.878 1.443 1.405s.951 1.054 1.62 1.195c.669.105 1.479-.387 1.409-1.09" fill="#996629"/><path d="M147.709 117.226c-.564-1.441-.035-9.731-1.726-12.261-1.69-2.494-4.894-.492-6.303-.773-.528-.105-1.584.703-2.007 1.511-.458.843-.704 1.792-.563 2.881.07.562.669 1.475.669 2.213 0 1.089-.071 1.862.211 2.88.564 2.143 1.55 2.635 3.451 3.057.07.843.387 1.054.07 3.161-.14 1.089.81 2.143 1.444 2.073 3.486-.492 5.282-3.443 4.754-4.742" fill="#F9A885"/><mask id="w" style="mask-type:luminance" maskUnits="userSpaceOnUse" x="137" y="103" width="11" height="19"><path d="M147.709 117.226c-.564-1.441-.035-9.731-1.726-12.261-1.69-2.494-4.894-.492-6.303-.773-.528-.105-1.584.703-2.007 1.511-.458.843-.704 1.792-.563 2.881.07.562.669 1.475.669 2.213 0 1.089-.071 1.862.211 2.88.564 2.143 1.55 2.635 3.451 3.057.07.843.387 1.054.07 3.161-.14 1.089.81 2.143 1.444 2.073 3.486-.492 5.282-3.443 4.754-4.742" fill="#fff"/></mask><g mask="url(#w)"><path d="M139.578 104.157s2.5.597 2.888 1.546c.387.948.246 1.581.809 2.002.634.492 1.972.843 2.254 1.546.282.667-.211 2.108 0 2.74.176.527.88 2.529 2.465 3.056s.387-3.688.387-3.688l-2.782-5.586-3.31-2.951h-2.57z" fill="#D37F62"/></g><path d="M141.477 116.734s1.584-.07 2.957-1.932c-.035 0 .74 3.302-2.817 4.25 0-1.616-.14-2.318-.14-2.318" fill="#D37F62"/><path d="M148.66 114.134c-.845.316-.985-.105-1.725-.597-.739-.492-1.197-1.37-1.232-2.248-.036-.773.281-1.616-.106-2.319-.493-.913-1.901-.984-2.394-1.897-.282-.527-.212-1.194-.529-1.721-.317-.492-.88-.703-1.443-.808s-1.127-.141-1.62-.422-.88-.878-.669-1.405a28.5 28.5 0 0 1 7.113.597c.528.106 1.127.246 1.479.668.387.421.493 1.053.528 1.616.317 2.81.634 5.655.951 8.466" fill="#996629"/><path d="M138.907 109.883c-.035-.245-.176-.456-.352-.421-.176 0-.282.211-.282.492.036.246.177.456.353.421s.281-.246.281-.492m3.032-.281c-.036-.246-.177-.456-.353-.421s-.281.211-.281.492c.035.246.176.456.352.421s.282-.246.282-.492" fill="#5E2A04"/><path d="M138.659 108.408c.035-.246-.211-.211-.423-.211a1.57 1.57 0 0 0-.88.387c-.246.21-.352.351-.387.527.105-.106.176-.246.528-.457.176-.105.599-.176.81-.176.176.035.317.106.352-.07m2.082-.035c-.141-.211.07-.281.282-.351.352-.141.704-.141.95-.035.317.105.493.21.564.386-.141-.035-.282-.176-.669-.211-.212 0-.634.07-.81.176-.141.035-.247.14-.317.035" fill="#996629"/><path d="M141.512 113.326s-.247 1.476-1.303 1.581c-.916.07-1.162-1.159-1.162-1.159s.211-.387.458-.422c.211 0 .563.176.563.176s.211-.281.423-.316c.211-.035.88.07 1.021.14" fill="#EF5B5B"/><path d="M141.516 113.326c-1.338.738-2.5.422-2.5.422s.317.632 1.056.597c.775-.035 1.444-1.019 1.444-1.019" fill="#fff"/><path d="M140.138 110.165s.07.491-.246.913c-.212.281-.493.316-.564.597-.07.316.352.492.564.527" stroke="#D37F62" stroke-width=".954" stroke-miterlimit="10" stroke-linecap="round" stroke-linejoin="round"/><path d="M149.615 107.46c-.071-1.054.633-2.073 1.619-2.424.986-.352 2.184.035 2.782.878.564.808.599 1.897.317 2.88-.317 1.125-1.162 2.284-2.324 2.389-1.092.141-2.148-.702-2.641-1.686-.493-1.019-.528-2.143-.563-3.267" fill="#996629"/><path d="M150.913 111.64s.07-.07.141-.211.141-.386.141-.667-.071-.633-.176-.984c-.106-.351-.317-.738-.458-1.124s-.247-.773-.247-1.159c0-.352.141-.668.141-.949.035-.281 0-.527-.07-.667s-.141-.211-.141-.211l.105.211c.071.14.071.351.036.632-.036.281-.176.597-.176.984-.036.386.105.808.246 1.194.141.387.352.773.458 1.124q.211.528.211.949c0 .562-.246.878-.211.878" fill="#8C5B25"/><path d="M150.352 107.881s.176.211.563.387c.387.175.951.351 1.62.245a3.06 3.06 0 0 0 1.479-.702c.317-.281.422-.527.422-.527-.035 0-.176.211-.493.457s-.81.527-1.443.632c-.634.07-1.198-.035-1.55-.211-.387-.14-.563-.281-.598-.281m.25.457s.105.211.352.457c.246.245.634.562 1.126.737.493.211.986.246 1.339.246.352 0 .563-.07.563-.07 0-.035-.211 0-.563 0-.353 0-.81-.105-1.303-.281-.493-.211-.881-.457-1.127-.703-.247-.21-.387-.386-.387-.386m-.107 4.426.035-.035c0-.035.036-.07.071-.141.035-.14.106-.316.106-.562s-.036-.597-.212-.913c-.141-.316-.457-.667-.88-.878s-.916-.316-1.303-.668a.98.98 0 0 1-.282-.702c0-.281.071-.562.141-.843.141-.598.035-1.3-.352-1.862a2.15 2.15 0 0 0-.775-.703c-.316-.176-.669-.211-1.021-.246s-.704 0-1.021-.07a2.2 2.2 0 0 1-.915-.316c-.247-.176-.388-.457-.493-.773-.106-.281-.176-.597-.282-.878a3.17 3.17 0 0 0-1.092-1.335 2.5 2.5 0 0 0-1.443-.457c-.458 0-.881.141-1.198.387-.317.21-.493.491-.598.702-.106.246-.141.422-.176.562v.211c.035 0-.036-.281.211-.738.106-.211.317-.456.599-.667s.704-.352 1.126-.352c.458 0 .951.141 1.374.457.422.316.81.773 1.021 1.3.105.281.176.562.282.878s.246.633.528.843c.281.211.634.316.95.352.353.035.705.035 1.022.07.352.035.669.07.95.246.282.14.529.386.705.632.352.527.457 1.195.317 1.757-.071.281-.141.597-.141.878 0 .316.105.597.317.773.422.386.95.492 1.338.667.422.176.704.492.845.808.176.316.211.632.211.878.176.492 0 .738.035.738" fill="#8C5B25"/><path d="M148.904 104.087s.036-.035 0-.14a.54.54 0 0 0-.176-.387c-.105-.14-.317-.281-.598-.351-.282-.07-.599 0-.916.105-.317.106-.634.281-.986.422s-.774.211-1.162 0-.598-.597-.845-1.019c-.246-.421-.528-.843-.915-1.159-.775-.703-1.726-1.089-2.606-1.159-.458-.036-.88.035-1.233.245a2.07 2.07 0 0 0-.809.738 1.36 1.36 0 0 0-.212.878c.036.281.106.492.212.668.105.176.211.246.281.316s.141.07.141.07-.176-.105-.387-.421c-.106-.141-.176-.387-.176-.633s.035-.562.211-.808a1.8 1.8 0 0 1 .775-.667 2.3 2.3 0 0 1 1.197-.211c.845.07 1.796.457 2.535 1.124.388.352.669.738.916 1.124.246.387.493.844.915 1.054.212.106.423.141.669.141.212 0 .423-.07.599-.141.387-.14.669-.316.986-.456.317-.106.598-.176.845-.141a.9.9 0 0 1 .563.316c.141.141.176.281.176.352z" fill="#8C5B25"/><path d="M83.584 127.483c-.282 0-.493-.035-.704-.14a.96.96 0 0 1-.458-.457c-.105-.175-.14-.421-.14-.667 0-.176.035-.352.07-.527.07-.141.14-.281.246-.422a.85.85 0 0 1 .423-.246 1.4 1.4 0 0 1 .528-.105c.105 0 .246 0 .352.035s.211.07.317.141c.07.035.106.07.106.14.035.035.035.106.035.141a.27.27 0 0 1-.07.14c-.036.035-.071.07-.106.07s-.106 0-.176-.035l-.212-.105c-.07-.035-.14-.035-.246-.035a.7.7 0 0 0-.387.105.65.65 0 0 0-.247.281c-.07.106-.07.246-.07.422 0 .175.035.316.07.421.07.106.14.211.247.281a.7.7 0 0 0 .387.106c.07 0 .14 0 .246-.035.07-.036.141-.036.212-.106.07-.035.105-.035.176-.035.035 0 .07.035.105.07.036.035.036.071.07.141v.14q-.052.054-.105.106c-.106.07-.211.105-.317.14-.105.035-.211.035-.352.035m2.003 0a1.1 1.1 0 0 1-.493-.105.7.7 0 0 1-.316-.316 1 1 0 0 1-.106-.492c0-.14.035-.281.07-.386a.8.8 0 0 1 .176-.281.8.8 0 0 1 .282-.176c.106-.035.247-.07.387-.07.176 0 .352.035.493.105q.212.106.317.316c.07.141.106.281.106.492 0 .141-.035.281-.07.387a.8.8 0 0 1-.177.281.8.8 0 0 1-.281.175c-.141.035-.247.07-.388.07m0-.421c.07 0 .141-.035.212-.07.07-.035.105-.106.14-.176s.036-.176.036-.281a.63.63 0 0 0-.106-.386.4.4 0 0 0-.282-.106c-.07 0-.14.035-.21.07-.071.036-.106.106-.142.176s-.035.176-.035.281c0 .176.035.316.106.387a.4.4 0 0 0 .281.105m1.515.386c-.07 0-.14-.035-.211-.07-.035-.035-.07-.105-.07-.211v-1.264c0-.071.035-.141.07-.211.035-.035.105-.07.211-.07.07 0 .14.035.176.07s.07.105.07.211v.21l-.035-.14a.54.54 0 0 1 .212-.281.6.6 0 0 1 .352-.106c.14 0 .246.036.352.106s.14.175.176.281h-.035c.035-.106.14-.211.246-.281a.68.68 0 0 1 .67-.035c.07.035.14.14.21.246s.07.246.07.421v.808a.5.5 0 0 1-.07.211c-.035.035-.105.07-.21.07a.5.5 0 0 1-.212-.07c-.035-.035-.07-.105-.07-.211v-.773c0-.105-.036-.21-.07-.246a.27.27 0 0 0-.177-.07.32.32 0 0 0-.247.106c-.07.07-.07.175-.07.316v.702a.5.5 0 0 1-.07.211c-.035.035-.106.07-.212.07-.105 0-.14-.035-.21-.07-.036-.035-.071-.105-.071-.211v-.773c0-.105-.035-.21-.07-.245-.036-.071-.106-.071-.177-.071a.32.32 0 0 0-.246.106c-.07.07-.07.175-.07.316v.702c.07.176-.036.246-.212.246m3.141 0a.5.5 0 0 1-.212-.07c-.035-.035-.07-.105-.07-.211v-1.264c0-.071.035-.141.07-.211.036-.035.106-.07.212-.07.07 0 .14.035.176.07s.07.105.07.211v.21l-.035-.14a.54.54 0 0 1 .211-.281.6.6 0 0 1 .352-.106c.141 0 .247.036.352.106.106.07.141.175.177.281h-.036c.035-.106.141-.211.247-.281a.68.68 0 0 1 .669-.035c.07.035.14.14.211.246.035.105.07.246.07.421v.808a.5.5 0 0 1-.07.211c-.035.035-.106.07-.211.07-.07 0-.141-.035-.212-.07-.035-.035-.07-.105-.07-.211v-.773c0-.105-.035-.21-.07-.246-.035-.07-.106-.07-.176-.07a.32.32 0 0 0-.247.106c-.07.07-.07.175-.07.316v.702a.5.5 0 0 1-.07.211c-.036.035-.106.07-.212.07-.07 0-.14-.035-.211-.07-.035-.035-.07-.105-.07-.211v-.773c0-.105-.036-.21-.071-.245-.035-.071-.106-.071-.176-.071a.32.32 0 0 0-.247.106c-.07.07-.07.175-.07.316v.702c.07.176-.035.246-.211.246m3.767.036q-.318 0-.529-.106a1 1 0 0 1-.352-.316 1 1 0 0 1-.106-.492c0-.176.036-.351.106-.457a.7.7 0 0 1 .317-.316 1 1 0 0 1 .458-.105c.14 0 .246.035.352.07s.176.106.246.176.141.175.176.281c.036.105.07.246.07.351 0 .035 0 .07-.034.106-.036.035-.07.035-.141.035H93.48v-.281h.88l-.07.035c0-.106 0-.176-.035-.246a.5.5 0 0 0-.106-.141c-.07-.035-.105-.035-.211-.035a.4.4 0 0 0-.211.07c-.07.036-.106.106-.141.176s-.035.176-.035.281v.035c0 .176.035.316.14.387.106.07.212.14.388.14.07 0 .106 0 .176-.035.07 0 .14-.035.211-.07s.106-.035.141-.035.07.035.106.07.035.07.035.105 0 .071-.035.106l-.106.105c-.07.035-.176.07-.282.106-.105-.036-.211 0-.317 0m1.336-.036c-.07 0-.14-.035-.211-.07-.035-.035-.07-.105-.07-.211v-1.264c0-.071.035-.141.07-.211.035-.035.106-.07.211-.07.07 0 .141.035.176.07s.07.105.07.211v.21l-.035-.105a.63.63 0 0 1 .247-.281.7.7 0 0 1 .352-.105c.14 0 .247.035.352.07.106.07.141.14.212.246.035.105.07.246.07.421v.808a.5.5 0 0 1-.07.211c-.036.035-.106.07-.212.07-.07 0-.14-.035-.211-.07-.035-.035-.07-.105-.07-.211v-.773c0-.105-.036-.21-.07-.245-.036-.036-.106-.071-.212-.071a.4.4 0 0 0-.282.106.4.4 0 0 0-.106.281v.737c.036.176-.035.246-.21.246m2.68.035a1.1 1.1 0 0 1-.493-.105.7.7 0 0 1-.317-.316 1 1 0 0 1-.106-.492c0-.14.036-.281.07-.386a.8.8 0 0 1 .177-.281.8.8 0 0 1 .282-.176c.105-.035.246-.07.387-.07.07 0 .14 0 .246.035.07 0 .177.035.247.07l.106.106c.035.035.035.07.035.105s-.035.07-.035.105c-.036.035-.07.071-.106.071s-.07 0-.141-.036c-.035-.035-.106-.035-.14-.07-.036 0-.106-.035-.142-.035-.07 0-.14 0-.176.035a.5.5 0 0 0-.14.106.27.27 0 0 0-.071.14c-.035.07-.035.141-.035.211 0 .14.035.281.105.351.07.106.176.141.317.141h.141a.26.26 0 0 0 .141-.071.11.11 0 0 1 .14 0c.036 0 .071.036.107.071.035.035.035.07.035.105s0 .07-.035.105q0 .054-.106.106c-.07.035-.141.07-.247.105-.105.035-.176.07-.246.07m1.719.001q-.318 0-.528-.106a1 1 0 0 1-.353-.316 1 1 0 0 1-.105-.492c0-.176.035-.351.105-.457a.7.7 0 0 1 .317-.316 1 1 0 0 1 .458-.105c.141 0 .247.035.352.07.106.035.176.106.247.176a.8.8 0 0 1 .176.281c.035.105.07.246.07.351 0 .035 0 .07-.035.106s-.07.035-.141.035h-1.091v-.281h.88l-.071.035c0-.106 0-.176-.035-.246a.5.5 0 0 0-.105-.141c-.07-.035-.106-.035-.212-.035a.4.4 0 0 0-.21.07c-.071.036-.107.106-.142.176s-.035.176-.035.281v.035c0 .176.035.316.14.387.106.07.212.14.388.14.07 0 .106 0 .176-.035.071 0 .141-.035.212-.07.07-.035.105-.035.14-.035s.071.035.106.07.035.07.035.105 0 .071-.035.106l-.106.105c-.07.035-.176.07-.281.106-.106-.036-.212 0-.317 0m1.342-.036c-.105 0-.14-.035-.211-.07-.035-.035-.07-.105-.07-.211v-1.264c0-.071.035-.141.07-.211.035-.035.106-.07.211-.07.071 0 .141.035.176.07s.071.105.071.211v.175h-.035c.035-.14.07-.246.176-.316a1 1 0 0 1 .387-.14c.07 0 .106 0 .141.035s.035.105.07.175c0 .071 0 .141-.035.176a.27.27 0 0 1-.176.07h-.07c-.141 0-.247.035-.282.106s-.106.175-.106.281v.667c0 .07-.035.141-.07.211-.106.105-.176.105-.247.105" fill="#3D68FF"/></g><defs><linearGradient id="c" x1="130.123" y1="130.29" x2="49.904" y2="49.881" gradientUnits="userSpaceOnUse"><stop stop-color="#4A94FF"/><stop offset="1" stop-color="#C86FFF"/></linearGradient><linearGradient id="e" x1="89.974" y1="161.621" x2="89.974" y2="86.126" gradientUnits="userSpaceOnUse"><stop stop-color="#9140FF"/><stop offset=".374" stop-color="#6E4EFF"/><stop offset="1" stop-color="#2D69FF"/></linearGradient><linearGradient id="g" x1="90.049" y1="161.884" x2="90.049" y2="86.126" gradientUnits="userSpaceOnUse"><stop stop-color="#D569FF"/><stop offset="1" stop-color="#2495FF"/></linearGradient><linearGradient id="i" x1="60.117" y1="119.635" x2="72.426" y2="119.635" gradientUnits="userSpaceOnUse"><stop stop-color="#9140FF"/><stop offset=".374" stop-color="#6E4EFF"/><stop offset="1" stop-color="#2D69FF"/></linearGradient><linearGradient id="k" x1="105.098" y1="109.987" x2="124.061" y2="109.987" gradientUnits="userSpaceOnUse"><stop stop-color="#D569FF"/><stop offset="1" stop-color="#2495FF"/></linearGradient><linearGradient id="m" x1="72.476" y1="99.904" x2="78.006" y2="99.904" gradientUnits="userSpaceOnUse"><stop stop-color="#9140FF"/><stop offset=".374" stop-color="#6E4EFF"/><stop offset="1" stop-color="#2D69FF"/></linearGradient><clipPath id="a"><path fill="#fff" d="M2 2h176.415v176H2z"/></clipPath></defs></svg>
