<svg width="180" height="180" viewBox="0 0 180 180" fill="none" xmlns="http://www.w3.org/2000/svg"><path d="m142.844 91.005 4.79 1.216-2.243 14.774 20.708-1.58 2.213-22.04-19.95 1.52zm-71.584.456-2.425-.547-30.653 2.34-2.213 22.01 29.5-2.219z" fill="#C9C7E4"/><path d="m71.268 91.461-5.791 21.584 79.922-6.05 2.243-14.774-4.79-1.216 5.518-6.11-79.528 6.019z" fill="#FFEB86"/><path d="m68.586 90.913-9.095-4.894-16.01-5.563-16.372 1.216 11.067 11.582 30.653-2.34zm82.863-11.096-3.093 5.077 19.951-1.52-11.067-11.552-9.49.73z" fill="#6269AE"/><path d="m59.493 86.019 9.096 4.894h.243l79.527-6.019 3.093-5.077-3.699-7.265-104.269 7.904z" fill="#CAAA2B"/><path d="m147.543 110.765 7.216 6.293 7.701.456-2.941 2.614 15.554-1.155-8.974-13.558-20.708 1.58zm-81.224 4.682 2.031-1.034-2.668-.821-.212-.547-29.501 2.219 8.974 13.559 22.043-1.672z" fill="#6269AE"/><path d="m65.689 113.593 2.668.82-2.031 1.034.667 11.704 92.535-7.022 2.941-2.615-7.702-.456-7.216-6.293-2.152-3.769-79.922 6.049z" fill="#CAAA2B"/><path d="m42.118 79.209-8.61-.03-4.124-12.769 9.369-.151 2.728-1.46 3.881.183 2.971 3.04 12.25 1.337-3.275-11.825-33.745 2.553 3.547 21.584 16.342-1.216zm33.36-20.033.03-3.04-13.219 1.003.546.972zm58.877.304 1.485 3.495 15.706 3.314-3.578 2.98-.212 3.282 9.49-.73-3.548-21.583-36.807 2.766z" fill="#C9C7E4"/><path d="m48.325 68.022-2.972-3.04-3.88-.182-2.73 1.459-9.368.152 4.123 12.768 8.611.03 1.334 1.247 104.299-7.904.213-3.284 3.577-2.979-15.705-3.313-1.486-3.496-17.464-6.476-41.386 3.132-.03 3.04-12.644-1.064-.545-.973-4.973.395 3.275 11.826z" fill="#FFEB86"/><path d="m3.602 45.131 20.283 14.927 33.746-2.554-3.184-2.189 5.822.67 2.334 1.154 13.22-1.003-.364-.425 9.884-3.04-4.184-6.293 6.155-1.155 22.891 6.87 7.004.882 36.808-2.767-20.284-14.926z" fill="#6269AE"/><path d="m60.282 55.984-5.821-.669 3.184 2.19 4.972-.366zm49.925-3.891-22.891-6.87-6.155 1.155 4.184 6.292-9.884 3.04.364.426 41.386-3.162z" fill="#CAAA2B"/><path d="m94.673 62.398 1.94-.517a.29.29 0 0 0 .213-.273l.09-4.469c0-.122-.09-.213-.211-.182l-1.94.516a.29.29 0 0 0-.213.274l-.091 4.469c0 .152.09.213.212.182" fill="#01015B"/><path d="m94.46 62.247.092-4.47c0-.12.09-.242.212-.273l.212-.06a.29.29 0 0 0-.212.273l-.09 4.469c0 .121.09.213.211.182l-.212.061c-.121 0-.212-.06-.212-.182" fill="#01015B"/><path d="m93.265 61.82.819 1.095a771 771 0 0 1 4.426 6.11c.152.183.273.396.273.639 0 .365-.424.638-.788.638s-.728-.213-1.03-.425a22 22 0 0 1-6.004-5.959z" fill="#9F714F"/><path d="M98.024 61.03c-.122-.243-.304-.517-.576-.456-.243.03-.364.334-.425.578-.516 2.067-.212 8.299.515 8.907.698.577 1.304.456 1.577-.395.546-1.733-.606-7.692-1.091-8.634" fill="#9F714F"/><path d="M98.056 60.756c-.091-.547-.364-1.064-.819-1.337-.364-.213-.849-.243-1.273-.183-.182.03-.425.122-.425.304 0 .183.152.274.273.426.243.304.182.73.212 1.125.06.425.303.82.667 1.064.273.182 1 .486 1.274.182.242-.304.151-1.216.09-1.58m-.079 40.949-.334 3.374-1.728.061.06-3.223z" fill="#9F714F"/><path fill-rule="evenodd" clip-rule="evenodd" d="M94.908 105.901c.06-.456.09-.943.272-1.368s.304-.851.698-1.095c.06.244.333.578.576.639.182.03 1.182-.304 1.334-.213.121.061 0 2.006.485 2.493.485.486 1.092.79 1.668 1.185.181.122.394.274.515.487s.182.486.061.669c0 .03-.031.03-.031.06l-4.032-.699c-.06-.152-.121-.334-.182-.486-.182-.578-.394-1.155-.576-1.733a7.6 7.6 0 0 0-.546 2.006l-.455-.091a35 35 0 0 0 .213-1.854" fill="#01015B"/><path d="m104.602 99.638 2.213.03c0 1.095-.03 2.22-.091 3.314-.03.365-.061.791-.364.943-.364.182-1-.122-1.061-.608a78 78 0 0 0-.697-3.679" fill="#9F714F"/><path fill-rule="evenodd" clip-rule="evenodd" d="M104.943 105.567c-.09-.426-.151-.821-.09-1.247.06-.395.151-.821.424-1.125.091.183.334.426.546.426.182 0 .97-.456 1.122-.426.121.031.485 1.642 1.03 1.916.546.273 1.153.395 1.759.608.212.06.424.152.576.273s.273.365.212.578c0 .03 0 .03-.03.061l-3.669.425-.273-.365c-.303-.456-.636-.912-.939-1.368-.061.608-.061 1.247.06 1.855l-.424.061a38 38 0 0 0-.304-1.672" fill="#01015B"/><path fill-rule="evenodd" clip-rule="evenodd" d="M97.323 88.42c.515.396 1.182.791 1.88.7.484-.06 1.515-1.155 1.697-1.52.152-.334-5.124-12.13-5.943-12.646-1.121-.7-6.64 2.918-5.79 4.53 1.091 2.097 2.789 4.103 4.608 5.867 1.061 1.124 2.274 2.127 3.547 3.07" fill="#5E2A2B"/><path fill-rule="evenodd" clip-rule="evenodd" d="M104.635 83.922c-.939-1.46-3.153-2.432-4.062.121-1.365 3.892 3.213 11.097 3.971 15.778l2.396-.03c.06-.426-1.789-15.048-2.305-15.87" fill="#5E2A2B"/><path fill-rule="evenodd" clip-rule="evenodd" d="M101.66 85.898c.758-.03 1.638-.122 2.001-.73.243-.395-.273-2.128-.576-2.553-.303-.426-14.007-6.567-15.16-6.415-1.515.182-2.728 1.246-3.244 2.493-.758 1.824-.697 4.165 1.668 5.046 3.032 1.095 6.367 1.672 9.55 1.976 1.941.183 3.851.243 5.761.183" fill="#5E2A2B"/><path fill-rule="evenodd" clip-rule="evenodd" d="M100.877 87.326c-.455-1.398-2.547-2.614-3.85-.121-2.123 4.012-1.244 10.214-1.153 14.956l2.274.122c.182-.426 3.002-14.166 2.729-14.957" fill="#5E2A2B"/><path d="M81.363 65.955c.122-.334.243-.668.394-1.003l3.032 1.429c-.06.152-.151.304-.212.426a320 320 0 0 0-2.243 4.59c-.273.578-.486 1.307-1.122 1.55-.485.183-1.061.061-1.395-.334-.303-.334-.364-.82-.333-1.246.03-.456.212-.882.363-1.277.486-1.368 1-2.767 1.516-4.135" fill="#9F714F"/><path d="M78.91 80.912c-.091.365-.334 1.277-.728 1.186-.303-.061-.394-.882-.364-1.186.121-2.098 1.364-8.877 1.607-9.302.394-.7 2.395-.76 2.577.365.152 1.155-2.213 5.502-3.093 8.937" fill="#9F714F"/><path d="M78.028 82.341c-.485.395-.97.76-1.425 1.155-.12 0-.181-.182-.12-.304.06-.121.181-.182.272-.304.091-.09.121-.273.03-.364-.12-.092-.242 0-.364.09-.485.396-.97.76-1.455 1.156-.424-.243-.576-.82-.424-1.277.121-.456.485-.851.879-1.155a5.4 5.4 0 0 1 1.789-.973c.364-.121.788-.213 1.152-.03.819.425.152 1.611-.334 2.006" fill="#9F714F"/><path d="M86.475 72.947c.394-3.405-3.214-6.323-2.82-9.759.273-2.34 2.608-4.134 4.942-4.073s4.457 1.793 5.276 4.013c.394 1.033.485 2.188.333 3.283-.121.76-.182 1.55-.485 2.28-1.607 3.77 1.82 6.475 3.184 7.995-3.154 2.98-10.885 2.523-12.583.517 1.577-1.55 2.032-3.283 2.153-4.256" fill="#01015B"/><path d="M82.765 62.976c.607-.943 1.456-1.764 2.517-2.128.273-.091.576-.152.788.03.212.152.212.456.212.73-.06 1.702-.758 3.283-1.516 4.803l-3.032-1.429c.304-.7.607-1.368 1.031-2.006" fill="#01015B"/><path d="M90.707 56.714a5.9 5.9 0 0 0 .122 2.614c.06.274.151.578 0 .79-.152.213-.455.244-.698.244-.424 0-.88 0-1.273-.122-.394-.121-.789-.425-.94-.82-.121-.335-.03-.7.06-1.065l.455-2.006c.03-.182.091-.395.243-.547.242-.243.636-.243.94-.091.303.151.515.456.697.699z" fill="#9F714F"/><path fill-rule="evenodd" clip-rule="evenodd" d="M87.187 59.328c1.213-.578.637 1.246.728-.882.06-1.246 2.91-1.337 3.274-2.493.213-.638 0-1.337.06-2.037.062-.668.425-1.124.85-1.58a2.93 2.93 0 0 0 .606-1.368c.06-.365.03-.76-.121-1.095a2.17 2.17 0 0 0-1.728-1.368c-.758-.09-1.577.243-2.032.851-.242.304-.394.7-.697.943-.424.304-1 .243-1.486.365a2.19 2.19 0 0 0-1.576 1.58c-.364 1.55 1.03 3.101.727 4.682-.151.7-.636 1.307-1.121 1.824-.03 0-.061 1.794 2.516.578" fill="#444871"/><path d="M91.977 56.44c.212-.426.273-.912.334-1.398.09-.67.151-1.338.06-2.007-.09-.669-.424-1.307-.94-1.702-.667-.456-1.546-.456-2.304-.213-.667.213-1.304.638-1.577 1.277-.151.365-.181.73-.181 1.125-.03.486-.061 1.003.09 1.459.152.517.516.973.94 1.307.425.334.94.578 1.425.79.304.122.576.244.91.274.576.06.97-.395 1.243-.912" fill="#9F714F"/><path d="M28.961 109.853c-.94-.517-2.88-.395-2.971.973-.06.79.394 1.672.697 2.401.334.821.728 1.581 1.183 2.341.03.031.03.061.06.091l3.942-1.641c-.88-1.125-1.698-3.527-2.91-4.165" fill="#FDD247"/><path d="M51.45 149.343c.212.304.485.638.849.638.637 0 .667-.912.515-1.52-.182-.669-.333-1.307-.515-1.976l-1.97.578c.181.821.727 1.702 1.12 2.28" fill="#0067E2"/><path fill-rule="evenodd" clip-rule="evenodd" d="M50.554 147.944c.121.213.697.304.91.335.181 0 1.03-.365 1.212-.304.121.03.637 1.824 1.243 2.189.607.364 1.274.577 1.94.851.213.091.456.213.637.395.182.182.304.426.273.638 0 .031 0 .031-.03.061h-4.002c-.122-.121-.212-.273-.334-.425a72 72 0 0 1-1.091-1.581c-.121.577-.212 1.246-.334 2.006h-.394c-.152-.608-.546-3.526-.03-4.165" fill="#01015B"/><path d="M21.63 113.106h.151c.546 0 1 .426 1.061.973l1.82 19.031a.76.76 0 0 0 .758.699h11.43c.576 0 1.061.486 1.061 1.064s-.485 1.064-1.061 1.064H25.42c-.88 0-1.668-.395-2.184-1.003-.636.061-3.062.243-3.062.243l-2.486-.79-2.274-21.281z" fill="#01015B"/><path d="M19.01 133.778a.76.76 0 0 1-.759-.699l-1.819-19.03a1.08 1.08 0 0 0-1.061-.973 1.06 1.06 0 0 0-1.061 1.155l1.819 19.031a2.897 2.897 0 0 0 2.88 2.614h11.43c.577 0 1.062-.486 1.062-1.064s-.485-1.064-1.061-1.064H19.01zm8.18 2.128h-1.73v16.143h1.73z" fill="#01015B"/><path d="M27.142 137.578h-1.577a1.59 1.59 0 0 1-1.334-.729l-.606-.943h5.458l-.607.943a1.59 1.59 0 0 1-1.334.729" fill="#01015B"/><path fill-rule="evenodd" clip-rule="evenodd" d="M46.46 130.403c-1.577-1.763-11.553-3.952-16.222-5.38-3.486-1.064-7.094-1.672-7.61 3.07-.242 2.037.819 4.134 2.547 5.198 1.91 1.156 4.275 1.064 6.519.912 4.244-.273 6.852-.456 11.066-.729.394 5.563 5.124 7.539 7.216 13.71l3.184-.638c-1.91-2.919-5.912-15.139-6.7-16.143" fill="#E1000F"/><path d="M33.99 148.826c-.061.365-.122.791.15 1.034.456.425 1.123-.183 1.426-.73.333-.577.667-1.185 1-1.763l-2.183-.608c-.12.73-.242 1.398-.394 2.067" fill="#0067E2"/><path fill-rule="evenodd" clip-rule="evenodd" d="M21.832 133.261c1.91 1.156 4.275 1.064 6.519.912 4.396-.304 8.792-.577 13.158-.881.698-.061 1.486-.122 1.91-.699.516-.639.273-1.642-.303-2.22-.576-.577-1.394-.851-2.183-1.094-4.669-1.429-9.369-2.858-14.038-4.317-3.486-1.064-7.094-1.672-7.61 3.071-.242 2.067.788 4.164 2.547 5.228" fill="#E1000F"/><path fill-rule="evenodd" clip-rule="evenodd" d="M43.48 130.738c-1.729-2.615-5.943 4.712-6.55 6.536a94 94 0 0 0-2.516 9.515l2.79 1.216c.636-3.435 2.91-6.779 4.669-9.88.576-1.003 1.152-2.067 1.364-3.222.182-1.125.546-3.679.243-4.165" fill="#E1000F"/><path d="M21.924 113.38c.243 1.793.94 3.526.91 5.32a6.9 6.9 0 0 1-2.123 4.833c-.818.76-1.91 1.642-1.637 2.706.273.973 1.455 1.246 2.456 1.368 2.183.243 4.639.395 6.246-1.095.97-.912 1.394-2.28 1.698-3.556a37 37 0 0 0 .97-7.053c.06-2.007-.06-4.165-1.213-5.837-1.152-1.642-2.456-2.736-4.336-2.159-2.183 2.159-3.213 3.709-2.971 5.473" fill="#FDD247"/><path fill-rule="evenodd" clip-rule="evenodd" d="M33.082 151.167c0-.456.03-.912.182-1.338s.364-.821.697-1.094c.061.212.243.547.486.577.181.031 1.121-.273 1.303-.182.122.061.152 1.611.546 2.158 0 0 1.061.426 1.577.608.212.091.424.183.606.335a.63.63 0 0 1 .212.638c0 .03-.03.03-.03.061l-3.487.334-.485-.061a3 3 0 0 1-.212-.456c-.212-.547-.455-1.094-.667-1.641-.212.638-.364 1.307-.394 1.976l-.455-.031a14 14 0 0 0 .121-1.884" fill="#01015B"/><path d="M28.56 112.163c-.425-.912-1-1.824-1.88-2.31-.94-.517-2.88-.395-2.971.973-.061.79.394 1.672.697 2.401.334.821.728 1.581 1.182 2.341.03.031.03.061.061.091l3.942-1.641c-.213-.547-.789-1.338-1.031-1.855" fill="#FDD247"/><path d="M51.154 121.952h-2.607l-1.274-5.259h2.578z" fill="#01015B"/><path d="M50.858 121.952H48.28l-1.303-5.259h2.607z" fill="#01015B"/><path d="M51.214 121.253h-4.67a.337.337 0 0 0-.333.335c0 .182.151.334.333.334h4.67a.337.337 0 0 0 .333-.334.337.337 0 0 0-.333-.335m-7.48-2.766c-.485 0-.819-.7-.758-1.551l1.122-14.197c.06-.851.515-1.55 1-1.55h10.248c.485 0 .819.699.758 1.55l-1.122 14.197c-.06.851-.515 1.551-1 1.551z" fill="#01015B"/><path d="M43.242 118.487c-.485 0-.819-.7-.758-1.551l1.121-14.197c.061-.851.516-1.55 1.001-1.55h10.248c.485 0 .819.699.758 1.55l-1.122 14.197c-.06.851-.515 1.551-1 1.551z" fill="#01015B"/><path d="M43.333 117.331c-.273 0-.485-.395-.424-.912l1.061-13.224c.03-.486.303-.912.576-.912h10.248c.273 0 .485.396.425.912l-1.062 13.224c-.03.487-.303.912-.576.912z" fill="#000090"/><path d="M41.42 120.159c-.848-.396-5.639-1.064-6.487-1.429-1.183-.517-2.062-1.885-2.638-3.04a22 22 0 0 1-.819-1.946l-3.578 1.915a26 26 0 0 0 1.607 2.402c.91 1.155 1.971 2.25 3.275 2.949 1.364.729 6.973.821 8.49.577 1.273-.273 1-1.033.15-1.428" fill="#8E4344"/><path d="M44.871 119.855c.304.304.546.699.546 1.124s-.333 1.308-.667 1.004c-.273-.244-.333-.639-.697-.639s-.667.213-1 .335c-.971.395-3.942-.152-2.7-1.703 1.001-1.155 3.457-1.125 4.518-.121" fill="#8E4344"/><path d="M39.14 119.946c-.85-.395-5.64-.851-6.489-1.216-1.182-.517-2.061-1.885-2.638-3.04a22 22 0 0 1-.818-1.946l-3.578 1.915a25 25 0 0 0 1.607 2.402c.91 1.155 1.97 2.25 3.275 2.949 1.364.729 6.973.608 8.49.365 1.242-.274 1-1.034.15-1.429" fill="#8E4344"/><path d="M42.555 118.274c.394.182.758.486.91.881.151.395.121 1.338-.273 1.186-.334-.122-.516-.487-.849-.365-.334.122-.576.426-.849.669-.788.699-3.76 1.216-3.093-.669.486-1.459 2.82-2.28 4.154-1.702m-17.327-14.471c.182-.304 2 .639 2.122.852s.212 2.797.606 4.408c.091.334-3.335-.699-3.092-1.125.394-.669.819-3.253.364-4.135" fill="#8E4344"/><path d="M30.536 101.493c-.637-2.645-4.214-2.067-5.063-1.824-.85.274-.88 1.459-.97 2.371-.061.547.151 1.095.485 1.52.303.426 1.667 1.064 1.758 1.064.516.882 1.334 1.885 2.183 1.855.364 0 .728-.244.94-.548s.334-.668.455-1.033c.333-1.095.485-2.25.212-3.405" fill="#8E4344"/><path fill-rule="evenodd" clip-rule="evenodd" d="M24.321 103.043c-.303-.364-.546-.82-.606-1.307-.061-.577.121-1.155.454-1.641.576-.852 2.062-1.976 3.275-2.007 1.304-.03 3.517 1.247 3.305 2.858-.06.486-.334.486-.788.638-.607.213-1.395.335-1.91.73-.607.456-.334 1.611-1.547 1.976-.394.121-.788.821-1.061 1.368-.364-.395-.85-2.25-1.122-2.615" fill="#000"/><path fill-rule="evenodd" clip-rule="evenodd" d="M22.502 106.327c-.121.486.06 1.003.03 1.52-.06 1.185-1.152 2.037-1.516 3.131-.151.426-.151.912.03 1.338.213.395.668.699 1.092.608.485-.092.819-.578 1-1.034.183-.456.304-.973.637-1.338.546-.547 1.456-.608 1.971-1.185.485-.547.85-2.098.85-3.253 0-2.189-.698-4.195-1.76-3.891-.636.182-.818 1.337-.97 1.824-.272.881-1.182 1.429-1.364 2.28" fill="#000"/><path d="M25.926 103.226c-.06.06-.09.152-.121.243-.06.273 0 .547.121.79.152.243.395.395.667.456.122.031.213.031.303-.03.334-.183.152-.882 0-1.125-.12-.274-.697-.578-.97-.334" fill="#8E4344"/><path d="m47.037 120.979-5.094.396c-.182 0-.334.182-.334.364a.35.35 0 0 0 .364.365h5.094a.35.35 0 0 0 .364-.365v-.395c0-.213-.182-.395-.394-.365" fill="#01015B"/><path d="M12.466 34.826c-.424-.274-1-.426-1.455-.213-.425.182-.728.669-.758 1.155s.182.943.485 1.338c.303.364 1.364 1.033 2.365.608.606-.274.637-.7.485-1.277-.152-.639-.576-1.277-1.122-1.611" fill="#C0806F"/><path d="m12.293 36.072 1.637-.09c.06.425.03.911 0 1.276-.03.456-1.637.82-1.728.486-.091-.304 0-1.155.09-1.672" fill="#C0806F"/><path d="m13.25 36.802-1.971.304c-.121.03-.243-.061-.303-.183l-1.82-4.013c-.06-.121 0-.212.122-.243l1.97-.304c.122-.03.243.061.304.183l1.819 4.013c.06.121 0 .212-.121.243" fill="#ABB8DF"/><path d="m13.46 36.772-1.97.303c-.121.03-.243-.06-.303-.182l-1.82-4.013c-.06-.121 0-.213.122-.243l1.97-.304c.122-.03.243.06.304.182l1.819 4.013c.03.122-.03.213-.121.244" fill="#01015B"/><path fill-rule="evenodd" clip-rule="evenodd" d="m13.258 36.558-1.759.274c-.09.03-.212-.061-.273-.152L9.59 33.062c-.03-.091 0-.182.121-.213l1.759-.273c.09-.03.212.06.273.152l1.637 3.617c.03.122 0 .213-.121.213" fill="#01015B"/><path d="M21.716 35.585c.212 2.615.09 5.35-1.061 7.722-.243.517-.637 1.064-1.183 1.094-.333 0-.636-.182-.849-.425s-.333-.578-.454-.882c-.85-2.462-.455-5.168-.061-7.721.151-1.064.334-2.919 1.273-3.618 1-.73 1.79.942 2.002 1.642.181.73.272 1.459.333 2.188" fill="#C0806F"/><path d="M13.645 37.045c-.334-.183-.758-.365-1.122-.183-.303.152-.394.548-.333.852.06.334 4.942 6.17 6.7 6.596.88.213 1.456-.364 1.698-1.124.303-1.095-5.67-5.503-6.943-6.141m-.14-.973c-.455-.426-1.122-1.125-1.394-1.399a1.6 1.6 0 0 1-.243-.182c-.06-.091-.09-.213-.03-.273.09-.092.242-.061.364 0 .576.243 1.212.516 1.546 1.063.121.183.182.426.212.67-.03.03-.485.212-.455.12m-1.791.701a1 1 0 0 1 .151.304c.03.121.03.243-.06.304-.121.09-.273.06-.425.03-.667-.213-1.243-.73-1.576-1.368-.152-.304-.243-.7-.03-.942.212-.244.575-.244.848-.092.728.426.698 1.125 1.092 1.764" fill="#C0806F"/><path fill-rule="evenodd" clip-rule="evenodd" d="M8.59 47.564c.91-1.612 3.245-2.797 4.367-.092 1.697 4.135-2.82 12.13-3.336 17.207l-2.577.091c-.09-.486 1.061-16.325 1.546-17.206M2.007 68.995c-.061-.365.303-.7.636-.79.364-.092.728-.061 1.122-.061a3.02 3.02 0 0 0 2.517-1.703c.06-.121.121-.273.242-.364.152-.092.394-.03.546.09.152.122.273.274.425.426.242.244.606.365.97.335.303-.03.606-.243.879-.122.243.122.334.456.394.7.121.425.243.82.364 1.246a.9.9 0 0 1 .06.273l-2.03.092c-.092-.122-.183-.517-.243-.67 0 .153-.061.548-.152.7l-5.548.213a.7.7 0 0 1-.182-.365" fill="#01015B"/><path d="M9.134 67.415a4.65 4.65 0 0 1-2.243-.092c.12-.911.272-1.793.394-2.705.03-.122.03-.243.09-.334.092-.153.274-.213.456-.244.636-.121 1.576-.213 1.516.578-.061.912-.122 1.854-.213 2.797m9.453 3.557a5.2 5.2 0 0 1-2.274.152c-.091-.882-.152-1.794-.243-2.676 0-.121-.03-.243.03-.334.061-.152.243-.243.395-.274.606-.212 1.515-.364 1.667.396.152.912.303 1.824.425 2.736" fill="#D38742"/><path fill-rule="evenodd" clip-rule="evenodd" d="M11.148 52.002c.364-1.642 2.577-3.253 4.335-.578 2.85 4.317 2.547 11.4 2.941 16.811l-2.546.395c-.273-.456-4.943-15.716-4.73-16.628m4.394 20.763c-.06-.365.03-.7.182-.79.152-.122.303-.76.485-1.703.091-.426.91-.669 1.425-.03.182.212.304.334.455.303.122-.03.243-.273.364-.151.121.121.212.456.273.699.121.395.212.82.334 1.246a.9.9 0 0 1 .06.274l-3.456.517c-.06-.122-.091-.244-.122-.365" fill="#01015B"/><path fill-rule="evenodd" clip-rule="evenodd" d="M10.038 49.782c-.637-.365-1.304-.881-1.334-1.611-.03-.517 1.182-1.915 1.607-2.22.424-.273 14.583 0 15.463.64 1.182.85 1.697 2.431 1.576 3.89-.212 2.128-1.304 4.378-3.669 4.135-3.001-.304-6.033-1.277-8.823-2.432-1.637-.669-3.274-1.46-4.82-2.402" fill="#01015B"/><path fill-rule="evenodd" clip-rule="evenodd" d="M12.85 54.312c-.697-.152-1.516-.426-1.759-1.125-.182-.486.546-2.189.85-2.614.302-.395 13.855-4.56 14.916-4.226 1.395.456 2.396 1.794 2.699 3.223.455 2.097.09 4.56-2.213 5.046-2.942.638-6.155.669-9.127.456-1.819-.091-3.608-.365-5.366-.76" fill="#01015B"/><path d="M21.28 31.876c-.121-.426-.303-.912-.728-1.034-.454-.121-.849.213-1.152.548-1.698 2.097-2.061 4.712-2.031 7.448l4.79-.426a25.5 25.5 0 0 0-.879-6.536" fill="#ABB8DF"/><path d="M18.308 33.214c-.454.942-.06 2.128.243 3.07.606 2.067 1.637 3.982 2.365 6.02.727 2.036-.182 1.093-.758 3.191-.091.335-.213.669-.182 1.003.03.335.212.67.576.79.212.062.424.031.667 0 2.94-.455 5.457 2.16 8.429 1.703.182-.03.394-.06.546-.182.333-.274.12-.73-.061-1.095-1.213-2.34.91-5.076 1.304-7.66s.879-5.776.09-8.3c-1.273-1.155-3.85-3.8-8.064-3.161-2.972.425-4.76 3.77-5.155 4.62" fill="#ABB8DF"/><path d="M33.695 36.619a12.3 12.3 0 0 0-4.487-5.38c-.364-.244-.82-.457-1.183-.244-.212.121-.303.365-.333.578s0 .456.06.699c.516 2.675 1.395 5.259 2.274 7.813.273.79.546 1.58 1 2.28.456.699 1.122 1.276 1.941 1.459.425.09 1.092.09 1.425-.274.273-.273.212-.881.243-1.216.09-1.246 0-2.493-.303-3.709q-.228-1.049-.637-2.006" fill="#C0806F"/><path d="M26.469 36.497c-.424.03-.728.456-.758.882-.03.425 5.76 6.202 7.065 6.931.394.213.879.456 1.273.274.364-.152.546-.608.606-1.004.152-.668.182-1.49-.06-2.127-.152-.457-.607-.517-.97-.76-1.395-.79-6.883-4.196-7.156-4.196" fill="#C0806F"/><path d="M24.46 32.09c-.152-.092-.334-.183-.455-.092-.09.061-.09.183-.09.304.03.091.09.213.12.304.243.487.213 1.095.273 1.642a6.5 6.5 0 0 0 1.395 3.435c.667.82 1.425-.76 1.273-1.398-.212-1.034-.606-2.098-1.243-2.95a5 5 0 0 0-1.273-1.246" fill="#C0806F"/><path fill-rule="evenodd" clip-rule="evenodd" d="M18.936 22.149c.242.365.667.304.727-.091.182-1.277.152-1.49 1.274-2.554.606-.578 5.427-.274 1.092-2.28-1.426-.669-5.155 1.885-3.093 4.925" fill="#EEE"/><path d="M21.88 25.371c.15-2.006 1.545-2.675 2.485-2.34 1.092 3.556 1.88 5.076 3.608 6.87-1.607 1.398-4.639 1.641-5.427.82-.09-.303-.728-4.316-.667-5.35" fill="#C0806F"/><path d="M23.71 19.109c-1.303-1.307-4.244-.152-4.76 1.763-.394 1.52.576 4.256 1.304 5.381.121.182.243.304.334.395 1.303 1.125 3.395-.638 3.577-1.641.243-1.46.637-4.804-.454-5.898" fill="#C0806F"/><path fill-rule="evenodd" clip-rule="evenodd" d="M22.604 21.024c.85 1.49.607 3.587.789 3.587 3.153-.243.818-1.49 1.697-1.854.273-.122.759-.122.516-.67-.425-1.002-.212-2.492-.697-2.978-1.152-1.186-2.972-.335-3.154-.244-.485.365.516 1.581.85 2.159" fill="#EEE"/><path d="M25.669 22.666c.12.486.03 1.003-.213 1.428-.727 1.217-1.819-.121-1.758-1.064.09-1.124 1.637-1.672 1.97-.364" fill="#C0806F"/><path d="M21.573 26.314c.819.03.455 1.246.091 1.307-.394.03-1.152.243-1.486-.973-.333-1.216.425-1.216.425-1.216s.091.852.97.882" fill="#EEE"/><path d="M27.496 30.965c-.03-.426-.03-.943.334-1.186s1.182 0 1.577.243c2.334 1.46 3.88 3.71 4.79 6.324l-5.215 1.064a26 26 0 0 1-1.486-6.445" fill="#ABB8DF"/><path d="M151.824 59.541c-.03.152-.061.335 0 .456.061.183.273.274.455.335.394.182.818.364 1.213.516.121.061.273.092.394.03.091-.06.121-.212.151-.334.031-.395.091-.79.122-1.155.03-.334.06-.699-.061-1.033-.182-.456-1.061-1.095-1.577-.79-.545.334-.606 1.52-.697 1.975" fill="#FFC29E"/><path fill-rule="evenodd" clip-rule="evenodd" d="M157.172 64.283c.181-.304.03-.699-.213-.942-.273-.243-.606-.334-.909-.517-.879-.486-1.456-1.459-1.425-2.462 0-.152 0-.274-.061-.395-.091-.152-.303-.183-.485-.152-.182.03-.334.121-.515.182-.304.091-.667.06-.94-.122-.243-.121-.425-.456-.698-.456s-.454.244-.636.426l-.819.912c-.061.06-.121.152-.182.213l1.668.912c.151-.061.363-.365.485-.456-.061.152-.182.486-.152.638l4.609 2.493c.091-.091.212-.152.273-.274m.001-13.133c.395-.151.728-.425 1.122-.607.758-.334 1.607-.243 2.395-.486.849-.274 1.547-.943 1.82-1.794.06-.182.091-.395 0-.547s-.304-.183-.486-.183c-1.364-.06-1.697.517-3.062.639-.364.03-1.88-.122-2.638.213-.818.364-.727.699-.727 1.033s.091 1.398.394 1.611c.303.274.819.274 1.182.122" fill="#5E3A44"/><path d="M155.556 48.202c-.03-.152-.091-.334-.03-.456.061-.182.273-.274.424-.365l1.183-.547c.121-.06.273-.122.394-.03.091.06.121.212.152.334.06.395.091.79.151 1.155.031.335.091.7-.03 1.034-.182.456-1.061 1.125-1.577.82-.455-.303-.545-1.489-.667-1.945" fill="#FFC29E"/><path d="M155.541 36.467c-.212-.639-.424-1.307-.819-1.824l-3.699 4.104c.819.213 1.759 1.49 2.214 2.857 1.637 5.047 2.213 6.932 2.607 7.388.303.364 2.062.03 2.214-.456.333-1.277-1.547-8.938-2.517-12.07" fill="#BF7330"/><path d="M136.431 43.49c.698.85 5.185 2.218 6.246 2.431l4.73.912c.758.152 2.729.03 3.214.639.637.82.819 9.606 1.243 10.853.152.395 2.031 1.124 2.426.577.394-.547 1.061-7.326 1.303-10.032.091-1.034.213-2.067.091-3.1-.121-1.034-.454-2.068-1.122-2.858-.939-1.095-12.4-3.71-13.007-3.588-.849.183-5.851 3.284-5.124 4.165" fill="#BF7330"/><path d="M133.889 36.801c-.515.547-.758 1.307-.849 2.067-.212 2.007.97 4.104 2.79 4.956 1.819.85 5.912-.122 7.822-2.524 1.243-1.58-.455-2.28-1.334-4.104-.455-.912-1.243-1.702-2.244-1.854-1.273-.182-2.304.7-3.517.82-1.031.092-1.758-.334-2.668.64" fill="#BF7330"/><path d="M154.103 34.065c-2.395-1.58-15.221.7-17.707 4.135-.818 1.124-.455 2.644.061 3.83.818 1.885 2.729 1.672 4.366 1.094 2.607-.912 5.184-1.976 7.64-3.252 1.304-.67 3.851-2.068 4.548-.973l1.698-4.287c-.182-.182-.394-.395-.606-.547" fill="#BF7330"/><path d="M134.139 37.318c-.97-.76-2.274-.942-3.457-1.185-1.212-.274-2.486-.73-3.122-1.763-.455-.73-.516-1.642-.395-2.493l-4.184-.426c-.273 1.247-.364 2.584.061 3.77.667 1.854 2.456 3.131 4.336 3.648 1.879.547 3.881.456 5.851.365.576-.03 1.334-.152 1.486-.73.152-.456-.212-.912-.576-1.186" fill="#FFC29E"/><path fill-rule="evenodd" clip-rule="evenodd" d="M127.313 31.056c.273-1.095.758-2.159.91-3.283.091-.67.03-1.399-.273-2.007-.243-.456-.879-1.216-1.486-1.125-.606.092-1.091 1.156-1.364 1.642a17.4 17.4 0 0 0-1.941 4.5c-.06.212-.091.394-.151.607l4.184.426c0-.243.061-.517.121-.76" fill="#37635F"/><path fill-rule="evenodd" clip-rule="evenodd" d="M126.345 24.702c-.485.486-.727 1.186-.879 1.885-.667 3.1.334 6.384 2.062 9.029s4.123 4.803 6.549 6.84c.485.395 1 .82 1.607.79.879-.03 1.425-.942 1.819-1.763.546-1.125 1.061-2.22 1.607-3.344.273-.578.576-1.216.485-1.855-.121-1.003-1.061-1.672-1.849-2.28-2.244-1.641-4.154-3.739-5.64-6.08-.515-.82-.97-1.641-1.607-2.37-.97-1.156-2.88-2.16-4.154-.852" fill="#37635F"/><path d="M126.86 24.033c-.091.182-.182.365-.212.578s.03.425.212.547c.122.06.273.06.425.06.788 0 1.576-.03 2.365-.03a3.97 3.97 0 0 1 .758-2.614c.151-.183.303-.395.303-.639-.03-.243-.243-.456-.455-.577-.485-.304-1-.578-1.546-.76-.607-.213-.91-.456-1.031.213-.212 1.094-.273 2.128-.819 3.222" fill="#FFC29E"/><path fill-rule="evenodd" clip-rule="evenodd" d="M131.695 17.832s.485.881.819.972c.333.122-.182 1.095-.182 1.095z" fill="#FFC29E"/><path d="M126.714 18.105c-.515.638-.697 1.611-.212 2.25.273.395.728.608 1.152.79.758.365 1.547.7 2.305 1.064.454.213 1.728.213 2.152-.06.94-.548.121-4.348-1.395-5.625-1.121-.942-3.213.578-4.002 1.581" fill="#FFC29E"/><path fill-rule="evenodd" clip-rule="evenodd" d="M126.284 20.143c.152.425-.364 1.003-.06 1.337.303.334.727 1.064 1.152.912.545-.182.788-.82.94-1.398.182-.67.667-.213.879-.912.091-.304-.152-1.733 0-1.976.364-.639.94-2.068 1.455-1.581.485.426 1.122.365.303-.365-.667-.578-2.183-.82-2.668-.091-.364.547-.849-.091-1.273.395-.334.426-.334 1.247-.788 1.49-1.365.73-.364 1.094.06 2.188" fill="#5E3A44"/><path d="M127.251 20.143c-.03-.487.425-.943.91-.943s.91 1.672.728 1.824c-.88.061-1.516-.304-1.638-.881" fill="#FFC29E"/><path d="m137.855 22.97 6.185-.608c.364-.03.728-.213.819-.396l3.153-6.657c.091-.183-.152-.304-.515-.274l-6.186.608c-.363.03-.727.213-.818.395l-3.154 6.688c-.09.183.152.304.516.244" fill="#01015B"/><path d="m137.604 22.94 6.185-.609c.364-.03.728-.213.819-.395l3.153-6.658c.091-.182-.152-.304-.516-.273l-6.185.608c-.364.03-.727.213-.818.395l-3.154 6.658c-.06.212.152.334.516.273" fill="#C9C7E4"/><path d="m138.093 22.544 5.549-.547c.333-.03.667-.183.727-.365l2.85-5.989c.091-.152-.121-.273-.455-.243l-5.548.547c-.334.03-.667.183-.728.365l-2.85 5.989c-.091.182.122.304.455.243" fill="#01015B"/><path d="M142.823 22.544c-.788 1.55-2.122 3.86-3.547 4.864-1.425 1.003-3.335 1.46-4.942.76-.758-.334-1.364-.851-1.94-1.429l-1.941 4.074c.697.425 1.455.79 2.213 1.064 2.123.76 4.579.851 6.549-.243 1.274-.7 2.274-1.855 3.002-3.132.728-1.276 1.607-3.83 2.092-5.198.121-.395-1.304-1.094-1.486-.76" fill="#FFC29E"/><path d="M143.404 20.386c.122-.244.698-.882 1.062-1.52.485-.092.06 1.216-.122 1.368.576-.03 1.698-.487 2.062-1.46.091.092.334.578.303.7-.03.486-.424.881-.455 1.368-.03.364.122.577-.06.912-.243.516-.789.85-1.304 1.124a2.9 2.9 0 0 1-.849.335c-1.637.243-1.031-2.067-.637-2.827" fill="#FFC29E"/><path fill-rule="evenodd" clip-rule="evenodd" d="M131.65 26.07c-.819-.79-1.729-1.55-2.85-1.733-2.547-.395-3.214 2.372-1.82 4.044.546.638 1.365 1.094 2.062 1.58.455.305.91.609 1.365.882l2.607-3.77c-.212-.243-1.122-.79-1.364-1.003" fill="#37635F"/><path d="M19.648 153.447c0-1.064.85-1.916 1.91-1.916h9.794c1.06 0 1.91.852 1.91 1.916z" fill="#01015B"/><path d="m147.956 131.316-21.132-5.533-5.003.729-5.488 5.716-.364 9.393-14.887-.334-34.14-13.893.061-.243-22.042 1.672 2.91 30.065 130.132-9.849-2.911-30.066-15.554 1.155z" fill="#C9C7E4"/><path d="m66.945 127.394 34.14 13.893 14.887.334.364-9.393 5.488-5.716 5.002-.729 21.133 5.533 11.582-11.188-92.535 7.023z" fill="#FFEB86"/><path d="M92.532 145.816c-.06.638-.121 1.337.212 1.915.303.578 1.122.973 1.728.669.334-.183.546-.517.698-.851 1-1.855 1.97-3.679 2.971-5.533.819-1.52 1.668-3.131 1.546-4.834-.06-.79-.303-1.581-.818-2.189-.425-.547-1.395-1.428-2.032-.79-.667.638-1.091 1.763-1.516 2.554-.94 1.824-1.698 3.769-2.183 5.745a25 25 0 0 0-.606 3.314" fill="#D38742"/><path fill-rule="evenodd" clip-rule="evenodd" d="M99.693 137.547c-.06-.881-.333-1.763-.91-2.462-.484-.608-.757-2.159-1.485-1.429-.728.699-2.001 2.523-2.456 3.405a31 31 0 0 0-1.576 3.587l4.76 2.189c.88-1.672 1.789-3.435 1.667-5.29" fill="#01015B"/><path d="M92.683 145.694c.485-.547 1.303-.76 2.061-.668s1.456.395 2.153.699c1.273.577 2.517 1.125 3.76 1.702 1.303.578 2.607 1.186 3.881 1.763.212.092.424.213.485.396.06.212-.091.456-.304.577-.212.122-.454.122-.697.152a21.8 21.8 0 0 1-5.79-.517 17.6 17.6 0 0 1-2.82-.851c-.789-.304-1.91-.638-2.547-1.185-.576-.487-.728-1.429-.182-2.068" fill="#D38742"/><path fill-rule="evenodd" clip-rule="evenodd" d="M100.924 149.859c1.364-.212 7.883-.212 9.247 0 1.698.244 1.456 2.372 1.243 3.648-.242 1.399-.515 2.888-1.546 3.861-1 .943-7.64.943-8.641 0-1.031-.973-1.304-2.462-1.546-3.861-.212-1.276-.455-3.404 1.243-3.648" fill="#8E4344"/><path fill-rule="evenodd" clip-rule="evenodd" d="M124.39 154.085c.728.79 1.182 2.097.576 2.918-.515.699-14.796.942-16.979.942-1.546-1.976-1.486-4.955 2.486-6.992.849-.425 1.698-1.003 2.638-.82 8.004 1.763 9.49 1.976 11.279 3.952m-31.34-12.434c-1.062-.091-2.245.335-2.76 1.247-.425.76-.334 1.732.03 2.523.364.79.94 1.459 1.516 2.097 8.399 9.394 8.52 9.82 9.945 10.215 2.395.638 5.276 0 3.153-5.503-.333-.912-9.247-10.366-11.885-10.579" fill="#8E4344"/><path d="M100.503 160.864c-.546-.334-1.668-1.763-2.972-3.678l2.456-.852c.819 2.828 1.122 4.864.516 4.53" fill="#D38742"/><path fill-rule="evenodd" clip-rule="evenodd" d="M90.919 141.803c1.485-.73 2.971-.547 4.154 1.398 1.606 2.615 3.76 8.968 4.942 13.133l-3.305 1.399c-1.759-4.044-5.488-8.604-6.852-10.975-.789-1.337-.122-4.408 1.06-4.955" fill="#8E4344"/><path d="m107.921 158.219 1.213 2.28c-1.819.122-3.274.152-3.881-.121-.636-.274.607-1.155 2.668-2.159" fill="#D38742"/><path fill-rule="evenodd" clip-rule="evenodd" d="M121.854 154.024c2.274 0 3.396 1.155 3.396 1.976 0 1.399-1.273 3.131-3.426 3.131-2.729 0-8.732 1.277-12.916 1.581l-.97-2.523c3.092-1.459 10.611-4.165 13.916-4.165" fill="#8E4344"/><path fill-rule="evenodd" clip-rule="evenodd" d="M104.352 160.043c.091-.06.697-.972 1.121-1.124.243-.092.546-.244.819-.122.273.152.303.547.485.79.121.183.303.335.516.426l.394-.547c1.394.638.303 2.28 1.698 2.949.333.152.697.273 1 .516.303.244.485.669.273 1.004a.47.47 0 0 1-.333.243l-4.518-2.219s-.03-.912.091-1.034c-.152.061-.516.243-.667.243zm-6.914.942c0-.364.151-.699.303-.76.151-.06.424-.729.758-1.641.151-.426 1-.547 1.425.182.151.243.273.395.424.395.121 0 .273-.243.394-.091.122.122.152.487.182.73.061.425.091.851.152 1.277 0 .091.03.182.03.304h-3.547a1.5 1.5 0 0 1-.121-.396" fill="#01015B"/><path d="M118.933 145.816c.06.638.121 1.337-.213 1.915-.303.578-1.121.973-1.728.669-.333-.183-.546-.517-.697-.851-1.001-1.855-1.971-3.679-2.971-5.533-.819-1.52-1.668-3.131-1.547-4.834.061-.79.303-1.581.819-2.189.424-.547 1.395-1.428 2.031-.79.667.638 1.092 1.763 1.516 2.554.94 1.824 1.698 3.769 2.183 5.745.273 1.095.455 2.219.607 3.314" fill="#D38742"/><path fill-rule="evenodd" clip-rule="evenodd" d="M111.777 137.547c.061-.881.333-1.763.909-2.462.486-.608.758-2.159 1.486-1.429.728.699 2.001 2.523 2.456 3.405a32 32 0 0 1 1.577 3.587l-4.761 2.189c-.909-1.672-1.788-3.435-1.667-5.29" fill="#01015B"/><path d="M118.627 146.029c-.485-.547-1.304-.76-2.062-.669s-1.455.395-2.152.699c-1.274.578-2.517 1.125-3.76 1.703-1.304.577-2.608 1.185-3.881 1.763-.212.091-.424.213-.485.395-.061.213.091.456.303.578s.455.121.697.152a21.8 21.8 0 0 0 5.791-.517 18 18 0 0 0 2.82-.851c.788-.304 1.91-.639 2.547-1.186.576-.517.728-1.459.182-2.067" fill="#D38742"/><path fill-rule="evenodd" clip-rule="evenodd" d="M97.097 133.868c.454-.547 1.152-.82 1.85-1.064 2-.699 6.609-2.523 6.791-2.523s4.79 1.824 6.791 2.523c.698.244 1.395.517 1.85 1.064.606.7.697 1.733.485 2.615-.212.912-1.395 1.246-1.819 2.097-.516 1.034-.243 4.986-.576 6.081-.607 2.006-.971 1.641-.971 3.739 0 .638.364 1.702.152 2.31-.273.76-1.637.912-2.335 1.003-1.182.152-2.395.183-3.577.152-1.183.061-2.396 0-3.578-.152-.697-.091-2.062-.243-2.335-1.003-.212-.608.152-1.672.152-2.31 0-2.067-.394-1.946-1-3.922-.334-1.094-.152-4.925-.698-5.989-.424-.821-1.455-1.094-1.667-2.006-.213-.882-.122-1.915.485-2.615" fill="#01015B"/><path d="M103.615 129.947c.212-.577.546-1.52.94-1.915.242-.243 1.546-.243 1.789 0 .424.395.758 1.368.97 1.946.242.638.606 1.55.364 2.188-.182.456-.91.943-1.274 1.034-.303.061-1.546.061-1.849 0-.364-.091-1.031-.669-1.213-1.125-.273-.638.03-1.489.273-2.128" fill="#D38742"/><path d="M103.026 125.235c.061-2.979 4.639-3.283 5.185 0 .151.882.364 1.763.182 2.614a5.1 5.1 0 0 1-1.062 2.189c-.363.426-.818 1.034-1.303 1.247h-.819c-.515-.213-.97-.821-1.304-1.247a5.1 5.1 0 0 1-1.061-2.189c-.151-.851.182-1.732.182-2.614" fill="#D38742"/><path fill-rule="evenodd" clip-rule="evenodd" d="M103.037 128.002c-.061-.244-.152-.396-.213-.639-.06-.243-.03-.608.182-.79.182.76.122 1.459.395 2.189.06.152.333 1.033.848 1.033.243 0 .546-.851 1.395-.851s1.152.851 1.395.851c.728 0 .728-.821.788-.973.273-.729.152-1.52.334-2.28.212.183.212.456.182.7-.061.243-.182.486-.213.729v.061c-.03.152-.03.334.061.486.03.061.334.031.334.122a.6.6 0 0 1-.061.213 5.2 5.2 0 0 1-.303.973c-.152.304-.303.608-.516.912-.091.152-.212.273-.303.425-.061.061-.515.456-.606.456l-.849.213h-.394l-.849-.213c-.061 0-.485-.273-.516-.334-.121-.122-.212-.274-.303-.426a11 11 0 0 1-.606-1.216 3.6 3.6 0 0 1-.304-.973c0-.06-.06-.152-.06-.212 0-.061.091.06.121 0 .061-.152.182-.244.152-.396-.091-.03-.091-.03-.091-.06" fill="#01015B"/><path d="M108.96 127.88c.091-.183.182-.365.151-.578-.03-.213-.212-.395-.424-.365-.122 0-.243.091-.303.213-.061.122-.091.243-.122.365-.06.213-.091.425-.151.638-.031.183-.061.395.091.517.273.182.636-.608.758-.79m-6.74-.061c-.091-.182-.182-.365-.152-.578.031-.212.213-.395.425-.364.121 0 .242.091.303.212.061.122.091.244.121.365.061.213.091.426.152.639.03.182.061.395-.091.516-.273.183-.637-.608-.758-.79" fill="#D38742"/><path d="M99.645 152.504h12.036c.576 0 1.031-.426 1.092-1.003l.637-7.448a1.094 1.094 0 0 0-1.092-1.186h-13.28c-.637 0-1.122.547-1.091 1.186l.636 7.448c.03.577.486 1.003 1.061 1.003" fill="#D1D2DE"/><path d="M113.344 144.357a1.076 1.076 0 0 0-1.061-.821h-13.28c-.516 0-.94.365-1.062.821l-.03-.304a1.093 1.093 0 0 1 1.092-1.186h13.28c.636 0 1.121.547 1.091 1.186z" fill="#A3A6BC"/></svg>
