<svg width="180" height="180" viewBox="0 0 180 180" fill="none" xmlns="http://www.w3.org/2000/svg"><mask id="a" maskUnits="userSpaceOnUse" x="157.492" y="148.274" width="16" height="31" fill="#000"><path fill="#fff" d="M157.492 148.274h16v31h-16z"/><path fill-rule="evenodd" clip-rule="evenodd" d="M160.43 168.447h-.235v-.233h-.234v-.233h.469-.235.704v-.233h.234a.235.235 0 0 0-.234-.233v-.233l.234-.233h.469v-.233h.234-.234.234a.234.234 0 0 0 .235-.233h-.235.235l-.235-.233h-.234v-.233h-.235c0-.128.106-.233.235-.233l-.235-.233h-.468v.233-.233a.235.235 0 0 0-.235-.233h-.234v-.233h-.235v.233-.233l-.234.233v-.233.233-.233.233-.233l.068-.067a.097.097 0 0 0-.068-.166h-.234.234v-.466.233-.233.233h-.234v-.233h.234v-.466h-.234v-.233.233-.233.233h.234v-.233h-.234v-.233h-.235.235l.234-.233h.469v-.233.233h.234v-.233h.703v-.232l-.234-.233v.233-.233.233-.301a.069.069 0 0 0-.117-.049.069.069 0 0 1-.117-.049v-.067h-.469v-.233.233h-.235v-.466h.235v-.233h-.235v-.233h-.234v.233h-.234.234-.234v.233h-.235v-.233h.235-.235v-.233.233-.233h.235-.235.235-.235.235-.235.235-.235v-.233.233-.466.233h.469v-.233h-.234.468v-.466h.235v-.233.233-.233l.234.233h.235v-.233.233-.466h-.235.235-.235.235l.234-.233h-.234.234-.234.234v-.466h-.234v.115a.12.12 0 0 1-.118.118.116.116 0 1 1 0-.233h.118v-.466l.234-.233v.233-.233h.469v-.233.233-.932h.234-.234.234v.233h.469-.234c0 .128.105.233.234.233l.234-.233h.235v-.233h-.235.235v-.466h.703l.234-.233h-.234.234v-.233h1.172c0-.086.104-.13.166-.069l.069.069v-.233.233-.233.233-.233h.234v.233-.233h.235v-.233.233l.234-.233h.234-.234v-.699l.234.233v-.233h.235v-.233h.234v-.233h1.641v.233h.234v.233h.235v.466h.234v-.233h.235v-.466h.234v-.233h.234v-.233l-.234-.233v-.466a.234.234 0 0 0 .234-.233h-.234v-.233a.234.234 0 0 1-.234-.233v-.466h.234v-.699h-.234.234v-.233h.234v-.233h.235-.235v-.932h-.234.234v-.233h-.234.234-.234l.234-.233h.704l.234-.233v.233h.234v.233h.235v.233h-.235.235v.233h-.235.235v.932l.234.233h-.234.234-.234.234v.233h-.234l.234.233v.932h.235v.233h-.235v.466h-.234v1.165h-.235.235-.235v.233-.233.815c0 .064.053.117.118.117.064 0 .117.052.117.117v.116l.234.233v.233h.235v.233c.128 0 .234.104.234.233v.233l.234.233v3.961h.235v3.494l-.235.233a.233.233 0 0 1-.234.233v.233l-.234.233a.234.234 0 0 1-.235.233v.233a.234.234 0 0 0-.234.233.234.234 0 0 1-.235.233v.233h-.234v.233l-.234.233v1.165l-.235.233c.129 0 .235.105.235.233v.932h-.235.235-.235v.233h.235-.235.235v.233h-.235.235v1.398h-.235a.233.233 0 0 0-.234.233c0 .086.104.13.165.069l.069-.069v.466-.233.233h-.234v.233h-.235v.233h-.468.234-.234v-.233.233h-.235.235-.235.235-.235v.233h-.234l.234.233h-.234.234v.233-.233h.235v-.233h.234v.233h.469-.235v.466h-.234a.234.234 0 0 1-.234.233v.233-.233h-.235v.233c0 .086-.104.13-.165.069l-.069-.069v.233-.233.699h.234-.234.234-.234v.233h.234-.234v.233h-.235.235-.235v.233h-.234v.233h-.234v.466h-.235.469v-.233h.234v.233l-.234.233v.233h-.234V178h-.469v-.233h-.235.235-.469.234v-.233.233-.233l-.234.233v-.233.233-.233h-.234.234-.703v-.233h.234v-.466h.235-.235v-.233.233h-.234v-.233.233h-.235v-.699.233h-.234v.233-.233.233h-.234v-.233h-.235.235-.235v-.233h-.703v-.233h-.469v-.233h-.469v-.233h-.468v-.233h.234-.234v-.233.233-.233h-.704v-.233l.235-.233h-.235v-.233.233-.233.233-.233h-.234.234v-.699h.704v-.233h.468v-.466h.469v-.233h-.937a.234.234 0 0 0-.235-.233l-.234-.233v.233h-.469v-.233.233-.233a.097.097 0 0 0 .068-.165l-.068-.068h.234-.234v-.233.233h-.469l-.234.233h-.235v-.233h.235-.235v-.233h-.468v.233-.233h.468v-.233h.235v-.233h.234v-.233h-.234v-.233h.469v-.233.233-.233.233l.234-.233v.233-.466h.234-.234v-.233h-.234.468v-.699h-.234.469v-.233h-.235v-.233a.234.234 0 0 0-.234-.233v.233l-.234-.233.234.233v-.233h-.469v.233h-.703v.233h-.234v-.233h-.235l-.234.233h-.235.235l-.235-.233v.233-.233h.235z"/></mask><path fill-rule="evenodd" clip-rule="evenodd" d="M160.43 168.447h-.235v-.233h-.234v-.233h.469-.235.704v-.233h.234a.235.235 0 0 0-.234-.233v-.233l.234-.233h.469v-.233h.234-.234.234a.234.234 0 0 0 .235-.233h-.235.235l-.235-.233h-.234v-.233h-.235c0-.128.106-.233.235-.233l-.235-.233h-.468v.233-.233a.235.235 0 0 0-.235-.233h-.234v-.233h-.235v.233-.233l-.234.233v-.233.233-.233.233-.233l.068-.067a.097.097 0 0 0-.068-.166h-.234.234v-.466.233-.233.233h-.234v-.233h.234v-.466h-.234v-.233.233-.233.233h.234v-.233h-.234v-.233h-.235.235l.234-.233h.469v-.233.233h.234v-.233h.703v-.232l-.234-.233v.233-.233.233-.301a.069.069 0 0 0-.117-.049.069.069 0 0 1-.117-.049v-.067h-.469v-.233.233h-.235v-.466h.235v-.233h-.235v-.233h-.234v.233h-.234.234-.234v.233h-.235v-.233h.235-.235v-.233.233-.233h.235-.235.235-.235.235-.235.235-.235v-.233.233-.466.233h.469v-.233h-.234.468v-.466h.235v-.233.233-.233l.234.233h.235v-.233.233-.466h-.235.235-.235.235l.234-.233h-.234.234-.234.234v-.466h-.234v.115a.12.12 0 0 1-.118.118.116.116 0 1 1 0-.233h.118v-.466l.234-.233v.233-.233h.469v-.233.233-.932h.234-.234.234v.233h.469-.234c0 .128.105.233.234.233l.234-.233h.235v-.233h-.235.235v-.466h.703l.234-.233h-.234.234v-.233h1.172c0-.086.104-.13.166-.069l.069.069v-.233.233-.233.233-.233h.234v.233-.233h.235v-.233.233l.234-.233h.234-.234v-.699l.234.233v-.233h.235v-.233h.234v-.233h1.641v.233h.234v.233h.235v.466h.234v-.233h.235v-.466h.234v-.233h.234v-.233l-.234-.233v-.466a.234.234 0 0 0 .234-.233h-.234v-.233a.234.234 0 0 1-.234-.233v-.466h.234v-.699h-.234.234v-.233h.234v-.233h.235-.235v-.932h-.234.234v-.233h-.234.234-.234l.234-.233h.704l.234-.233v.233h.234v.233h.235v.233h-.235.235v.233h-.235.235v.932l.234.233h-.234.234-.234.234v.233h-.234l.234.233v.932h.235v.233h-.235v.466h-.234v1.165h-.235.235-.235v.233-.233.815c0 .064.053.117.118.117.064 0 .117.052.117.117v.116l.234.233v.233h.235v.233c.128 0 .234.104.234.233v.233l.234.233v3.961h.235v3.494l-.235.233a.233.233 0 0 1-.234.233v.233l-.234.233a.234.234 0 0 1-.235.233v.233a.234.234 0 0 0-.234.233.234.234 0 0 1-.235.233v.233h-.234v.233l-.234.233v1.165l-.235.233c.129 0 .235.105.235.233v.932h-.235.235-.235v.233h.235-.235.235v.233h-.235.235v1.398h-.235a.233.233 0 0 0-.234.233c0 .086.104.13.165.069l.069-.069v.466-.233.233h-.234v.233h-.235v.233h-.468.234-.234v-.233.233h-.235.235-.235.235-.235v.233h-.234l.234.233h-.234.234v.233-.233h.235v-.233h.234v.233h.469-.235v.466h-.234a.234.234 0 0 1-.234.233v.233-.233h-.235v.233c0 .086-.104.13-.165.069l-.069-.069v.233-.233.699h.234-.234.234-.234v.233h.234-.234v.233h-.235.235-.235v.233h-.234v.233h-.234v.466h-.235.469v-.233h.234v.233l-.234.233v.233h-.234V178h-.469v-.233h-.235.235-.469.234v-.233.233-.233l-.234.233v-.233.233-.233h-.234.234-.703v-.233h.234v-.466h.235-.235v-.233.233h-.234v-.233.233h-.235v-.699.233h-.234v.233-.233.233h-.234v-.233h-.235.235-.235v-.233h-.703v-.233h-.469v-.233h-.469v-.233h-.468v-.233h.234-.234v-.233.233-.233h-.704v-.233l.235-.233h-.235v-.233.233-.233.233-.233h-.234.234v-.699h.704v-.233h.468v-.466h.469v-.233h-.937a.234.234 0 0 0-.235-.233l-.234-.233v.233h-.469v-.233.233-.233a.097.097 0 0 0 .068-.165l-.068-.068h.234-.234v-.233.233h-.469l-.234.233h-.235v-.233h.235-.235v-.233h-.468v.233-.233h.468v-.233h.235v-.233h.234v-.233h-.234v-.233h.469v-.233.233-.233.233l.234-.233v.233-.466h.234-.234v-.233h-.234.468v-.699h-.234.469v-.233h-.235v-.233a.234.234 0 0 0-.234-.233v.233l-.234-.233.234.233v-.233h-.469v.233h-.703v.233h-.234v-.233h-.235l-.234.233h-.235.235l-.235-.233v.233-.233h.235z" fill="#C9C9FC"/><path d="M159.727 164.328a.625.625 0 0 0 0 1.249zm0-.308h-.625c0 .345.28.625.625.625zm-.235-1.09a.624.624 0 0 0 0 1.249zm0-1.239h-.624c0 .344.279.624.624.624zm1.407-2.489a.625.625 0 0 0 0 1.249zm8.204-7.455a.624.624 0 1 0 0 1.248zm.234-1.631a.624.624 0 1 0 0 1.248zm1.406.466a.624.624 0 0 0 0 1.248zm0 5.051v-.625a.625.625 0 0 0-.624.625zm-.703 14.52a.624.624 0 1 0 0 1.249zm0 .466a.624.624 0 1 0 0 1.249zm-1.406 3.029a.624.624 0 1 0 0 1.248zm-.235 2.097a.624.624 0 0 0 0 1.248zm-1.406 2.022h-.624c0 .345.279.624.624.624zm-.234-.857a.624.624 0 1 0 0 1.248zm-1.407-1.165a.624.624 0 1 0 0 1.248zm-3.047-2.097a.624.624 0 1 0 0 1.248zm-1.406-1.939v-.624a.624.624 0 0 0-.625.624zm1.172-2.255a.624.624 0 1 0 0 1.249zm.234-.699a.624.624 0 1 0 0 1.249zm0 .158-.44.443a.624.624 0 0 0 1.064-.443zm-2.11.233h-.624c0 .345.28.625.624.625zm0-.54h.235v-1.249h-.235zm1.407-1.165h.234v-1.249h-.234zm.469-1.482h-.235v1.249h.235zm-1.797-.308v.233h1.249v-.233zm-.703-.466v.233h1.249v-.233zm1.014.233v-.233h-1.248v.233zm-.624-1.09h-.234v1.249h.234zm.624.391v-.233h-1.248v.233zm-.624-1.323h-.234v1.249h.234zm.39.624v-.233h-1.249v.233zm-.624-1.09h-.235v1.249h.235zm1.327.391v-.233h-1.249v.233zm-.545-.698v.233h1.248v-.233zm.545-.233v-.233h-1.249v.233zm-1.093-1.324h-.234v1.249h.234zm-.469 1.249h.235v-1.249h-.235zm.625-.624v-.233h-1.249v.233zm-.625.391h.235v-1.249h-.235zm.625-.624v-.233h-1.249v.233zm0-.233v-.233h-1.249v.233zm-.156-.858h-.234v1.249h.234zm1.093.159v-.233h-1.249v.233zm.469 0v-.233h-1.249v.233zm-.624-1.091h-.235v1.249h.235zm.234-.233h-.234v1.249h.234zm-.624-.54v.233h1.248v-.233zm1.717 0v-.233h-1.249v.233zm-.624-.308h.234v-1.249h-.234zm.469.233h.234v-1.249h-.234zm.703-1.482h-.235v1.249h.235zm.937-.699h-.234v1.249h.234zm2.031.392v-.233h-1.249v.233zm-1.014-.233v.233h1.249v-.233zm1.483 0v-.233h-1.249v.233zm-.39.391h.234v-1.249h-.234zm3.516-5.209h-.234v1.248h.234zm.234.782h.235v-1.248h-.235zm0-2.18h-.234v1.248h.234zm0-.233h-.234v1.248h.234zm1.407.233h-.235v1.248h.235zm0 .233h-.235v1.248h.235zm.234 1.165h-.234v1.248h.234zm-.234 3.261h-.235v1.249h.235zm-.859.625v.233h1.249v-.233zm.156 14.52h-.235v1.249h.235zm-.235 1.482h.235v-1.249h-.235zm.235-1.016h-.235v1.249h.235zm-.859 2.488v.233h1.248v-.233zm-.079.075h-.234v1.248h.234zm.39.624v-.233h-1.249v.233zm-.624-.624h-.235v1.248h.235zm-.235.466h-.234v1.248h.234zm-.624.624v.233h1.249v-.233zm1.327.624h.235v-1.248h-.235zm-1.093.075v.233h1.249v-.233zm-.469.233v.233h1.249v-.233zm.625 1.323h.234v-1.248h-.234zm0 .233h.234v-1.248h-.234zm0-1.015h-.235v1.248h.235zm-.703.932h-.235v1.248h.235zm-.469.466h-.235v1.248h.235zm-.235 0h-.234v1.248h.234zm.625.624v-.233h-1.249v.233zm-.235 0v-.233h-1.248v.233zm-.624-.857h-.234v1.248h.234zm-.469.549h.235v-1.248h-.235zm.625-.624v-.233H165.9v.233zm-.235 0v-.233h-1.249v.233zm-.234-.466v-.233h-1.249v.233zm-1.483 0v.233h1.248v-.233zm.39-.624h-.235v1.248h.235zm-2.344.083h.234v-1.248h-.234zm.624-.624v-.233h-1.249v.233zm-.703-.699v-.233h-1.249v.233zm-.625-.857h-.234v1.248h.234zm.39-1.24v-.233h-1.248v.233zm-.624.159h.234v-1.249h-.234zm.624-.625v-.233h-1.248v.233zm-1.562.625h.235v-1.249h-.235zm0-1.482h-.234v1.249h.234zm-.234 0h-.234v1.249h.234zm-.859.624v.233h1.249v-.233zm2.421-.932v-.233h-1.249v.233zm-1.014-.233v.233h1.248v-.233zm.624.392h.234v-1.249h-.234zm0-1.482h-.234v1.249h.234zm.234-.699h-.234v1.249h.234zm-.858-.075v.233h1.248v-.233zm1.064-.21-.234-.233-.881.886.235.233zm-2.315.052h-.235v1.249h.235zm-.859.391v.233h1.249v-.233zm.859-.466h1.248c0-.689-.559-1.248-1.248-1.248zm-.235 0h-1.248c0 .69.559 1.249 1.248 1.249zm0-.233h1.249c0-.689-.559-1.248-1.249-1.248zm-.234 0h-1.249c0 .69.559 1.249 1.249 1.249zm0-.233v-1.248c-.69 0-1.249.559-1.249 1.248zm.938 0v1.249c.689 0 1.248-.559 1.248-1.249zm0-.233V166.5c-.69 0-1.249.559-1.249 1.248zm0-.466-.881-.885a1.25 1.25 0 0 0-.368.885zm.234-.233v-1.248c-.33 0-.646.13-.88.363zm.469 0v1.249c.689 0 1.248-.559 1.248-1.249zm.234-.699.88-.885a1.24 1.24 0 0 0-.88-.363zm-.234 0h-1.249c0 .69.559 1.249 1.249 1.249zm0-.233h1.248c0-.689-.559-1.248-1.248-1.248zm-.235-1.248a1.248 1.248 0 0 0 0 2.497zm0 .782.881-.885a1.25 1.25 0 0 0-.881-.363zm-.468-1.248a1.249 1.249 0 1 0 0 2.497zm-.469 1.015h-1.249c0 .69.559 1.249 1.249 1.249zm0-.233h1.248c0-.689-.559-1.248-1.248-1.248zm-.235 0v-1.248c-.329 0-.646.13-.88.363zm-.234-.466h1.249c0-.689-.559-1.248-1.249-1.248zm0-.233v1.249c.69 0 1.249-.559 1.249-1.249zm-.234.233h-1.249c0 .69.559 1.249 1.249 1.249zm0-.233v-1.248c-.69 0-1.249.559-1.249 1.248zm0-.699h-1.249c0 .69.559 1.249 1.249 1.249zm.234 0h1.249c0-.689-.559-1.248-1.249-1.248zm-.234-.233-.881-.885a1.25 1.25 0 0 0-.368.885zm.234-.233v-1.248c-.33 0-.646.13-.88.363zm.703 0v1.249c.69 0 1.249-.559 1.249-1.249zm0-.233v-1.248a1.25 1.25 0 0 0-1.249 1.248zm.703 0v1.249c.69 0 1.249-.559 1.249-1.249zm0-.232h1.249c0-.333-.133-.652-.368-.886zm-.234-.233h-1.249c0 .332.133.651.369.885zm-.234-.233h1.248c0-.69-.559-1.249-1.248-1.249zm-.704 0h-1.248c0 .689.559 1.248 1.248 1.248zm.235-.466v1.248c.689 0 1.248-.559 1.248-1.248zm0-.233h1.248c0-.69-.559-1.249-1.248-1.249zm-.235 0h-1.248c0 .689.559 1.248 1.248 1.248zm0-.233h1.249c0-.69-.559-1.249-1.249-1.249zm-.234 0v-1.249c-.69 0-1.249.559-1.249 1.249zm-.234.466v1.248c.689 0 1.248-.559 1.248-1.248zm-.235 0h-1.249c0 .689.56 1.248 1.249 1.248zm.469-.699v1.248c.69 0 1.249-.559 1.249-1.248zm0-.233v-1.249c-.69 0-1.249.559-1.249 1.249zm.234 0v1.248c.69 0 1.249-.559 1.249-1.248zm0-.466v-1.249c-.689 0-1.248.559-1.248 1.249zm.469 0-.88.885c.234.233.55.363.88.363zm.235-.466-.881-.886a1.25 1.25 0 0 0-.368.886zm.234-.233.88.885c.236-.234.369-.553.369-.885zm0-.466h1.249c0-.69-.559-1.249-1.249-1.249zm-.234-.466-.881-.886a1.25 1.25 0 0 0-.368.886zm.234-.233v-1.249c-.33 0-.646.13-.88.363zm.703-.699h-1.249c0 .689.56 1.248 1.249 1.248zm.703 0v-1.249c-.329 0-.646.13-.88.363zm.235-.699v-1.249c-.69 0-1.249.559-1.249 1.249zm.703 0v1.248c.33 0 .646-.13.88-.363zm.234-.233.881.885a1.25 1.25 0 0 0 .368-.885zm0-.233v-1.249c-.689 0-1.248.559-1.248 1.249zm1.876-.233v1.248c.329 0 .646-.13.88-.363zm.234-.233.88.885c.236-.234.369-.553.369-.885zm.234-.466-.88.885a1.25 1.25 0 0 0 2.129-.885zm0-.233v-1.249c-.689 0-1.248.559-1.248 1.249zm.235 0v1.248c.689 0 1.248-.559 1.248-1.248zm0-.233v-1.249c-.69 0-1.249.559-1.249 1.249zm.234 0v1.248c.69 0 1.249-.559 1.249-1.248zm0-.233v-1.249a1.25 1.25 0 0 0-1.249 1.249zm1.641.233h-1.249c0 .689.559 1.248 1.249 1.248zm.234 0h1.249c0-.69-.559-1.249-1.249-1.249zm0 .233h-1.248c0 .689.559 1.248 1.248 1.248zm.235 0h1.248c0-.69-.559-1.249-1.248-1.249zm0 .466h-1.249c0 .689.559 1.248 1.249 1.248zm.234 0v1.248c.69 0 1.249-.559 1.249-1.248zm0-.233v-1.249a1.25 1.25 0 0 0-1.249 1.249zm.235 0v1.248c.689 0 1.248-.559 1.248-1.248zm0-.466v-1.249c-.69 0-1.249.559-1.249 1.249zm.234 0v1.248c.69 0 1.249-.559 1.249-1.248zm0-.233v-1.249c-.69 0-1.249.559-1.249 1.249zm.234 0v1.248c.69 0 1.249-.559 1.249-1.248zm0-.233h1.249c0-.333-.133-.651-.368-.886zm-.234-.233h-1.249c0 .332.133.651.369.885zm0-.699h-1.249a1.25 1.25 0 0 0 1.249 1.249zm0-.932v1.249c.69 0 1.249-.56 1.249-1.249zm0-.932v-1.249c-.69 0-1.249.559-1.249 1.249zm.234 0v1.249c.69 0 1.249-.559 1.249-1.249zm0-1.631v-1.249c-.33 0-.646.131-.88.363zm.704 0v1.249c.329 0 .646-.131.88-.363zm.234-.233h1.249a1.25 1.25 0 0 0-2.129-.886zm0 .233h-1.249c0 .69.559 1.249 1.249 1.249zm.234 0h1.249c0-.69-.559-1.249-1.249-1.249zm0 .233h-1.248c0 .69.559 1.249 1.248 1.249zm.235 0h1.248c0-.69-.559-1.249-1.248-1.249zm0 1.398h-1.249c0 .332.133.651.368.885zm.234.233h1.249a1.25 1.25 0 0 0-.369-.886zm0 .233v1.249c.69 0 1.249-.56 1.249-1.249zm-.234 0v-1.249a1.25 1.25 0 0 0-.881 2.134zm.234.233h1.249a1.25 1.25 0 0 0-.369-.886zm0 .932h-1.249c0 .689.56 1.249 1.249 1.249zm0 .233v-1.249a1.25 1.25 0 0 0-1.249 1.249zm0 .466v1.248c.69 0 1.249-.559 1.249-1.248zm-.234 0v-1.249c-.69 0-1.249.559-1.249 1.249zm0 2.33h-1.249c0 .332.133.651.368.885zm.234.233h1.249c0-.333-.133-.652-.369-.886zm.235.233h1.248c0-.69-.559-1.249-1.248-1.249zm.234.699h-1.249c0 .332.133.651.369.885zm.234.233h1.249c0-.333-.133-.652-.368-.886zm-1.406 9.552V166.5c-.69 0-1.249.559-1.249 1.248zm0 .233.88.886c.236-.234.369-.553.369-.886zm-.234.233-.881-.885a1.25 1.25 0 0 0-.368.885zm0 1.165.88.886c.236-.234.368-.553.368-.886zm0 3.262v1.249c.689 0 1.248-.559 1.248-1.249zm-.235-1.249a1.25 1.25 0 0 0 0 2.498zm0 1.482h1.249a1.25 1.25 0 0 0-2.129-.885zm-.234.466v-1.249c-.69 0-1.249.56-1.249 1.249zm0 .233v1.249c.689 0 1.248-.559 1.248-1.249zm-.235 0v-1.249a1.25 1.25 0 0 0-1.248 1.249zm0 .233v1.249c.69 0 1.249-.559 1.249-1.249zm-.703.233v1.249c.69 0 1.249-.559 1.249-1.249zm-.234 0v-1.249a1.25 1.25 0 0 0-.881 2.135zm.234.233-.88.886c.234.232.55.363.88.363zm.235 0v1.249c.689 0 1.248-.559 1.248-1.249zm0-.233v-1.249c-.69 0-1.249.559-1.249 1.249zm.234 0h1.249c0-.69-.559-1.249-1.249-1.249zm0 .233h-1.249c0 .69.559 1.249 1.249 1.249zm.234 0h1.249c0-.69-.559-1.249-1.249-1.249zm0 .466v1.249c.69 0 1.249-.559 1.249-1.249zm-.234-1.249a1.249 1.249 0 1 0 0 2.498zm-.469 1.482v-1.249a1.25 1.25 0 0 0-1.249 1.249zm-.469 1.631v1.249c.69 0 1.249-.559 1.249-1.249zm-.234 0v-1.249c-.69 0-1.249.559-1.249 1.249zm0 .233v1.249c.69 0 1.249-.559 1.249-1.249zm-.234 0v-1.249c-.69 0-1.249.559-1.249 1.249zm0 .466h-1.249c0 .69.559 1.249 1.249 1.249zm.234 0v1.249c.69 0 1.249-.559 1.249-1.249zm0-.233v-1.249c-.69 0-1.249.559-1.249 1.249zm.234 0h1.249c0-.69-.559-1.249-1.249-1.249zm0 .233.881.886c.235-.235.368-.554.368-.886zm-.234.233-.88-.886a1.25 1.25 0 0 0-.369.886zm0 .233v1.249c.69 0 1.249-.559 1.249-1.249zm-.234 0v-1.249c-.69 0-1.249.559-1.249 1.249zm0 .233v1.249c.689 0 1.248-.559 1.248-1.249zm-.469 0h-1.249c0 .69.559 1.249 1.249 1.249zm-1.172-.466h-1.249c0 .69.559 1.249 1.249 1.249zm0-.233v-1.249c-.69 0-1.249.559-1.249 1.249zm.234 0v1.249c.69 0 1.249-.559 1.249-1.249zm0-.466h1.249c0-.69-.559-1.249-1.249-1.249zm-.469 0h-1.248c0 .69.559 1.249 1.248 1.249zm0-.466h1.249c0-.69-.559-1.249-1.249-1.249zm-.468.233h-1.249c0 .69.559 1.249 1.249 1.249zm-.235-.466h1.249c0-.69-.559-1.249-1.249-1.249zm-.703 0H163.4c0 .69.559 1.249 1.249 1.249zm0-.233h1.249c0-.69-.559-1.249-1.249-1.249zm-.469 0h-1.249c0 .69.56 1.249 1.249 1.249zm0-.233h1.249c0-.69-.559-1.249-1.249-1.249zm-.469 0h-1.248c0 .69.559 1.249 1.248 1.249zm0-.233h1.249c0-.69-.559-1.249-1.249-1.249zm-.468 0h-1.249c0 .69.559 1.249 1.249 1.249zm-.704-.466h-1.248c0 .69.559 1.249 1.248 1.249zm0-.233-.88-.886a1.25 1.25 0 0 0-.368.886zm.235-.233.88.886a1.248 1.248 0 0 0-.88-2.135zm-.235-.932v-1.249a1.25 1.25 0 0 0-1.248 1.249zm.704-.233v-1.249c-.69 0-1.249.56-1.249 1.249zm.468 0v1.249c.69 0 1.249-.559 1.249-1.249zm0-.466v-1.249a1.25 1.25 0 0 0-1.248 1.249zm.469 0v1.249c.69 0 1.249-.559 1.249-1.249zm0-.233h1.249a1.25 1.25 0 0 0-1.249-1.249zm-.937-1.249a1.25 1.25 0 0 0 0 2.498zm-.469.783.88-.885a1.25 1.25 0 0 0-2.129.885zm0 .233v1.249c.689 0 1.248-.559 1.248-1.249zm-.469-.466.88-.885a1.25 1.25 0 0 0-.88-.364zm-.469 0v-1.249c-.33 0-.646.131-.88.364zm-.234.233v1.249c.33 0 .646-.131.88-.363zm-.235 0h-1.248c0 .69.559 1.249 1.248 1.249zm0-.699v-1.248c-.689 0-1.248.559-1.248 1.248zm.235 0v1.249c.689 0 1.248-.559 1.248-1.249zm0-.233v-1.248c-.69 0-1.249.559-1.249 1.248zm.234 0v1.249c.69 0 1.249-.559 1.249-1.249zm0-.233h1.249c0-.689-.559-1.248-1.249-1.248zm-.234 0h-1.249c0 .69.559 1.249 1.249 1.249zm0-.233v-1.248c-.69 0-1.249.559-1.249 1.248zm.469 0v1.249c.329 0 .646-.131.88-.363zm.234-.233.88.886a1.25 1.25 0 0 0 .369-.886zm0-.466v-1.248c-.69 0-1.249.559-1.249 1.248zm.234 0v1.249c.69 0 1.249-.559 1.249-1.249zm0-.699v-1.248c-.689 0-1.248.559-1.248 1.248zm.235-.233h1.248c0-.689-.559-1.248-1.248-1.248zm-.235 0h-1.248c0 .69.559 1.249 1.248 1.249zm-.703-.466v-1.248a1.25 1.25 0 0 0-1.249 1.248zm0 .233v1.249c.69 0 1.249-.559 1.249-1.249zm-.703 0v-1.248c-.69 0-1.249.559-1.249 1.248zm0 .233v1.249c.69 0 1.249-.559 1.249-1.249zm-.234 0h-1.249c0 .69.559 1.249 1.249 1.249zm0-.233h1.248c0-.689-.559-1.248-1.248-1.248zm-.235 0v-1.248c-.33 0-.646.13-.88.363zm-.234.233-.881.886a1.25 1.25 0 0 0 1.761 0zm-.235-.233v-1.248a1.25 1.25 0 0 0-.88 2.134zm2.178 3.097.88-.886zm7.598.933.88.886zm-4.922-16.214.88-.886zm3.654 18.544-.88.885zm-8.674-10.155-.88-.886zm.401 2.081h-.235v2.497h.235zm1.014 1.248v-.233h-2.497v.233zm-1.249-1.481h-.234v2.497h.234zm1.015 1.248v-.233h-2.498v.233zm-1.249 1.016h.234v-2.497h-.234zm.469 0h.234v-2.497h-.234zm.234 0h.235v-2.497h-.235zm1.483-1.249v-.233h-2.497v.233zm-1.248 1.016h.234V166.5h-.234zm1.248-1.482v-.233h-2.497v.233zm-.368.653.234-.233-1.76-1.771-.235.233zm-.646.13h.234v-2.497h-.234zm.234 0h.235v-2.497h-.235zm1.483-1.249v-.233h-2.497v.233zm.101-1.351-.235-.233-1.76 1.771.234.233zm-1.115-.596h-.234v2.497h.234zm1.014 1.248v-.233h-2.497v.233zm-1.248-1.481h-.235v2.497h.235zm.88.13-.234-.233-1.761 1.771.234.233zm-1.115-.596h-.234v2.497h.234zm-.234 0h-.234v2.497h.234zm-.469-.233h-.234v2.497h.234zm1.014 1.248v-.233h-2.497v.233zm-1.248-1.481h-.235v2.497h.235zm-1.115.363-.234.233 1.76 1.771.235-.233zm1.526 1.771.068-.068-1.76-1.771-.068.068zm.369-1.119v-.233h-2.498v.233zm-1.249-1.481h-.234v2.497h.234zm1.014 1.248v-.233h-2.497v.233zm-1.248 1.016h.234v-2.497h-.234zm1.483-1.249v-.233h-2.498v.233zm0-.233v-.233h-2.498v.233zm0-.233v-.233h-2.498v.233zm-1.249-1.481h-.234v2.497h.234zm1.014 1.248v-.233h-2.497v.233zm-.368.653.234-.233-1.76-1.771-.235.233zm-.646.13h.234v-2.497h-.234zm.234 0h.235v-2.497h-.235zm.235 0h.234v-2.497h-.234zm1.483-1.249v-.233h-2.498v.233zm-1.249 1.016h.235v-2.497h-.235zm.235 0h.234v-2.497h-.234zm.234 0h.234v-2.497h-.234zm1.483-1.249v-.232h-2.497v.232zm-.368-1.118-.235-.233-1.76 1.771.234.233zm.134.653v-.068h-2.498v.068zm-.235-.166v-.067h-2.497v.067zm-1.248-1.316h-.235v2.497h.235zm-.235 0h-.234v2.497h.234zm-.234 0h-.235v2.497h.235zm1.014 1.249v-.233h-2.497v.233zm0-.233v-.233h-2.497v.233zm-1.249 1.015h.235v-2.497h-.235zm1.483-1.248v-.233h-2.497v.233zm-1.248-1.482h-.235v2.497h.235zm1.014 1.249v-.233h-2.497v.233zm-1.249-1.482h-.234v2.497h.234zm-1.483 1.249v.233h2.498v-.233zm-.234.233v.233h2.497v-.233zm1.249-1.016h-.235v2.497h.235zm1.014 1.249v-.233h-2.498v.233zm-1.249.549h.235v-2.497h-.235zm.235 0h.234v-2.497h-.234zm1.483-1.248v-.233h-2.498v.233zm-1.249 1.015h.234v-2.497h-.234zm1.483-1.248v-.233h-2.497v.233zm0-.233v-.233h-2.497v.233zm-1.249 1.015h.235v-2.497h-.235zm-.646-.596.235.233 1.76-1.771-.234-.233zm1.115.596h.235v-2.497h-.235zm1.483-1.481v-.233h-2.497v.233zm-.368.652.234-.233-1.76-1.771-.235.233zm.603-1.118v-.233h-2.498v.233zm0-.233v-.233h-2.498v.233zm-1.249-1.482h-.234v2.497h.234zm-1.483 1.249v.115h2.497v-.115zm1.131 1.248h.118v-2.497h-.118zm1.366-1.248v-.233h-2.497v.233zm0-.233v-.233h-2.497v.233zm-.368.652.234-.233-1.76-1.771-.235.233zm-.646.13h.234v-2.497h-.234zm.234 0h.235v-2.497h-.235zm1.483-1.481v-.233h-2.497v.233zm0-.233v-.233h-2.497v.233zm0-.233v-.233h-2.497v.233zm-2.263-.233v.233h2.498v-.233zm1.249 1.481h.235v-2.497h-.235zm1.349-.13.235-.233-1.761-1.771-.234.233zm-.646.13h.235v-2.497h-.235zm1.483-1.248v-.233h-2.497v.233zm0-.233v-.233h-2.497v.233zm0-.233v-.233h-2.497v.233zm-1.248 1.015h.234v-2.497h-.234zm.234 0h.235v-2.497h-.235zm.235 0h.234v-2.497h-.234zm1.114-.363.235-.233-1.761-1.771-.234.233zm.603-1.118v-.233h-2.497v.233zm-1.249 1.015h.235v-2.497h-.235zm.235 0h.234v-2.497h-.234zm.234 0h.235v-2.497h-.235zm.235 0h.234v-2.497h-.234zm.234 0h.234v-2.497h-.234zm-.481-.431.069.068 1.761-1.771-.069-.069zm.95.198h.234v-2.497h-.234zm.234 0h.235v-2.497h-.235zm1.115-.363.234-.233-1.76-1.771-.235.233zm.603-1.118v-.233h-2.498v.233zm0-.233v-.233h-2.498v.233zm0-.233v-.233h-2.498v.233zm-2.129.652.234.233 1.761-1.771-.235-.233zm2.363-.652v-.233h-2.497v.233zm-1.249 1.015h.235v-2.497h-.235zm1.483-1.248v-.233h-2.497v.233zm-1.248 1.015h.234v-2.497h-.234zm1.483-1.248v-.233h-2.498v.233zm-1.249 1.015h.235v-2.497h-.235zm.235 0h.234v-2.497h-.234zm.234 0h.234v-2.497h-.234zm.234 0h.235v-2.497h-.235zm.235 0h.234v-2.497h-.234zm.234 0h.235v-2.497h-.235zm.235 0h.234v-2.497h-.234zm-1.015-1.248v.233h2.498v-.233zm1.249 1.481h.234v-2.497h-.234zm-1.014-1.248v.233h2.497v-.233zm1.248 1.481h.235v-2.497h-.235zm-1.014-1.248v.233h2.497v-.233zm0 .233v.233h2.497v-.233zm1.249 1.481h.234v-2.497h-.234zm1.483-1.248v-.233h-2.498v.233zm-1.249 1.015h.235v-2.497h-.235zm1.483-1.248v-.233h-2.497v.233zm0-.233v-.233h-2.497v.233zm-1.248 1.015h.234v-2.497h-.234zm1.483-1.248v-.233h-2.498v.233zm-1.249 1.015h.234v-2.497h-.234zm1.483-1.248v-.233h-2.497v.233zm-.368-1.119-.235-.233-1.76 1.771.234.233zm.134.653v-.233h-2.498v.233zm0-.233v-.233h-2.498v.233zm-1.015-1.715h-.234v2.498h.234zm1.015 1.249v-.233h-2.498v.233zm-.235-.466v-.233h-2.497v.233zm0-.233v-.233h-2.497v.233zm-1.248 1.016h.234v-2.498h-.234zm1.483-1.249v-.233h-2.498v.233zm0-.233v-.233h-2.498v.233zm0-.233v-.233h-2.498v.233zm0-.233v-.233h-2.498v.233zm-1.249 1.016h.234v-2.498h-.234zm1.483-1.249v-.233h-2.497v.233zm0-.233v-.233h-2.497v.233zm0-.233v-.233h-2.497v.233zm0-.233v-.233h-2.497v.233zm0-.233v-.233h-2.497v.233zm0-.233v-.233h-2.497v.233zm-.603.653.235-.233-1.761-1.772-.234.233zm-.646.13h.235v-2.498h-.235zm.235 0h.234v-2.498h-.234zm.234 0h.235v-2.498h-.235zm1.115-.363.234-.233-1.76-1.772-.235.233zm-1.895-1.119v.233h2.498v-.233zm1.249 1.482h.234v-2.498h-.234zm-1.014-1.249v.233h2.497v-.233zm1.248 1.482h.235v-2.498h-.235zm-1.014-1.249v.233h2.497v-.233zm0 .233v.233h2.497v-.233zm0 .233v.233h2.497v-.233zm0 .233v.233h2.497v-.233zm0 .233v.233h2.497v-.233zm0 .233v.233h2.497v-.233zm.368 1.118.235.233 1.76-1.771-.234-.233zm-.134-.652v.233h2.498v-.233zm1.249-1.016h-.234v2.498h.234zm-1.115 2.134.235.233 1.76-1.771-.234-.233zm-.134-.652v.233h2.498v-.233zm0 .233v.233h2.498v-.233zm0 .233v.233h2.498v-.233zm0 .233v.233h2.498v-.233zm1.249 1.482h.235v-2.498h-.235zm-1.014-1.249v.233h2.497v-.233zm1.249-1.016h-.235v2.498h.235zm-1.484 1.249v.233h2.498v-.233zm0 .233v.233h2.498v-.233zm1.249-1.016h-.234v2.497h.234zm-1.483 1.249v.233h2.497v-.233zm0 .233v.233h2.497v-.233zm0 .233v.233h2.497v-.233zm0 .233v.233h2.497v-.233zm0 .233v.233h2.497v-.233zm-.234.466v.233h2.497v-.233zm0 .233v.233h2.497v-.233zm0 .233v.116h2.497v-.116zm.234.35v.116h2.497v-.116zm.368 1.001.235.233 1.76-1.771-.234-.233zm-.134-.652v.233h2.498v-.233zm1.249 1.481h.235v-2.497h-.235zm-1.014-1.248v.233h2.497v-.233zm.234.466v.233h2.498v-.233zm.369 1.118.234.233 1.761-1.771-.235-.233zm-.134-.652v.233h2.497v-.233zm0 .233v.233h2.497v-.233zm0 .233v.233h2.497v-.233zm0 .233v.233h2.497v-.233zm0 .233v.233h2.497v-.233zm0 .233v.233h2.497v-.233zm0 .233v.233h2.497v-.233zm0 .233v.233h2.497v-.233zm0 .233v.233h2.497v-.233zm0 .233v.233h2.497v-.233zm0 .233v.233h2.497v-.233zm0 .233v.233h2.497v-.233zm0 .233v.233h2.497v-.233zm0 .233v.233h2.497v-.233zm0 .233v.233h2.497v-.233zm0 .233v.233h2.497v-.233zm0 .233v.233h2.497v-.233zm1.248 1.481h.235v-2.497h-.235zm-1.014-1.248v.233h2.497v-.233zm0 .233v.233h2.497v-.233zm0 .233v.233h2.497v-.233zm0 .233v.232h2.497v-.232zm0 .232v.233h2.497v-.233zm0 .233v.233h2.497v-.233zm0 .233v.233h2.497v-.233zm0 .233v.233h2.497v-.233zm0 .233v.233h2.497v-.233zm0 .233v.233h2.497v-.233zm0 .233v.233h2.497v-.233zm0 .233v.233h2.497v-.233zm0 .233v.233h2.497v-.233zm0 .233v.233h2.497v-.233zm0 .233v.233h2.497v-.233zm.368-.652-.234.233 1.761 1.771.234-.233zm-.837 1.351v.233h2.498v-.233zm.369-.652-.235.233 1.761 1.771.234-.233zm-.838 1.351v.233h2.498v-.233zm-.468.699v.233h2.497v-.233zm1.248-1.015h-.234v2.497h.234zm-1.483 1.248v.233h2.498v-.233zm.369-.652-.235.233 1.761 1.771.234-.233zm-.603 1.118v.233h2.497v-.233zm0 .233v.233h2.497v-.233zm0 .233v.233h2.497v-.233zm0 .233v.233h2.497v-.233zm0 .233v.233h2.497v-.233zm.368-.652-.234.233 1.76 1.771.235-.233zm-.368 1.351v.233h2.497v-.233zm0 .233v.233h2.497v-.233zm0 .233v.233h2.497v-.233zm0 .233v.233h2.497v-.233zm-.235.233v.233h2.498v-.233zm.235.233v.233h2.497v-.233zm0 .233v.233h2.497v-.233zm0 .233v.233h2.497v-.233zm0 .233v.233h2.497v-.233zm0 .233v.233h2.497v-.233zm0 .233v.233h2.497v-.233zm0 .233v.233h2.497v-.233zm1.249-1.016h-.235v2.498h.235zm.576 2.437.069-.069-1.76-1.771-.069.068zm-2.06-.955v.233h2.498v-.233zm1.249-.783h-.234v2.498h.234zm-1.483 1.249v.233h2.497v-.233zm1.249-1.016h-.235v2.498h.235zm-1.483 1.249v.233h2.497v-.233zm1.248-1.016h-.234v2.498h.234zm-1.952 1.249v.233h2.498v-.233zm1.249-1.016h-.234v2.498h.234zm-1.115 2.135.235.233 1.76-1.771-.234-.233zm1.115.596h.235v-2.498h-.235zm1.483-1.249v-.233h-2.497v.233zm-1.248 1.016h.234v-2.498h-.234zm-1.015-1.249v.233h2.498v-.233zm1.249 1.482h.234v-2.498h-.234zm-1.014-1.249v.233h2.497v-.233zm0 .233v.233h2.497v-.233zm1.248-1.016h-.234v2.498h.234zm-.468.233h-.235v2.498h.235zm-1.484 1.249v.233h2.498v-.233zm1.964-.584-.069-.069-1.761 1.772.07.068zm-2.198 1.05v.233h2.497v-.233zm0 .233v.233h2.497v-.233zm0 .233v.233h2.497v-.233zm0 .233v.233h2.497v-.233zm-.234.233v.233h2.497v-.233zm1.248-1.016h-.234v2.498h.234zm-1.483 1.249v.233h2.498v-.233zm1.249-1.016h-.234v2.498h.234zm-1.483 1.249v.233h2.497v-.233zm0 .233v.233h2.497v-.233zm1.249 1.482h.234v-2.498h-.234zm1.483-1.249v-.233h-2.498v.233zm-1.249 1.016h.234v-2.498h-.234zm-1.014-1.249v.233h2.497v-.233zm.368-.653-.234.233 1.76 1.772.235-.233zm-.603 1.119v.233h2.498v-.233zm1.249-1.016h-.234v2.498h.234zm-1.483 1.249V178h2.497v-.233zm1.249-1.016h-.235v2.498h.235zm-.235 0h-.234v2.498h.234zM168.71 178v-.233h-2.497V178zm-2.363-1.352-.234.233 1.76 1.772.235-.233zm.412-.363h-.235v2.498h.235zm-.235 0h-.234v2.498h.234zm1.014 1.249v-.233h-2.497v.233zm-1.248 1.016h.234v-2.498h-.234zm1.483-1.249v-.233h-2.498v.233zm0-.233v-.233h-2.498v.233zm-1.249-1.482h-.234v2.498h.234zm-.234 0h-.235v2.498h.235zm1.014 1.249v-.233h-2.497v.233zm0-.233v-.233h-2.497v.233zm-1.249-1.482h-.234v2.498h.234zm-.234.233h-.234v2.498h.234zm1.014 1.249v-.233h-2.497v.233zm-.234-.233v-.233h-2.498v.233zm-1.249-1.482h-.234v2.498h.234zm-.234 0h-.235v2.498h.235zm-.235 0h-.234v2.498h.234zm1.015 1.249v-.233H163.4v.233zm-1.249-1.482h-.234v2.498h.234zm-.234 0h-.235v2.498h.235zm1.014 1.249v-.233h-2.498v.233zm-1.249-1.482h-.234v2.498h.234zm-.234 0h-.235v2.498h.235zm1.014 1.249v-.233h-2.497v.233zm-1.249-1.482h-.234v2.498h.234zm-.234 0h-.234v2.498h.234zm1.014 1.249v-.233h-2.497v.233zm-1.248-1.715h-.235v2.498h.235zm-.235 0h-.234v2.498h.234zm-.234 0h-.235v2.498h.235zm1.014 1.249v-.233h-2.497v.233zm-.368.653.234-.233-1.761-1.772-.234.233zm-.646-2.368h-.235v2.498h.235zm1.014 1.016v-.233h-2.497v.233zm0-.233v-.233h-2.497v.233zm0-.233v-.233h-2.497v.233zm-1.249 1.016h.235v-2.498h-.235zm.235 0h.234v-2.498h-.234zm.234 0h.235v-2.498h-.235zm1.483-1.249v-.233h-2.497v.233zm-1.248 1.016h.234v-2.498h-.234zm.234 0h.234v-2.498h-.234zm1.483-1.249v-.233h-2.497v.233zm0-.233v-.233h-2.497v.233zm-1.249 1.016h.235v-2.498h-.235zm.235 0h.234v-2.498h-.234zm1.483-1.249v-.233h-2.498v.233zm-1.249-1.482h-.234v2.498h.234zm-.234 0h-.235v2.498h.235zm-.235 0h-.234v2.498h.234zm-.234 0h-.234v2.498h.234zm.411.131-.234-.233-1.761 1.771.235.233zm-2.363.652v.233h2.497v-.233zm1.249-1.016h-.235v2.498h.235zm-.235 0h-.234v2.498h.234zm.714-.035-.068-.067-1.76 1.771.068.068zm-.948-.431h-.234v2.498h.234zm-.234 0h-.235v2.498h.235zm-1.115.364-.235.233 1.761 1.771.234-.233zm.646-.131h-.235v2.498h.235zm1.014 1.249v-.233h-2.497v.233zm0-.233v-.233h-2.497v.233zm0-.233v-.233h-2.497v.233zm-1.249 1.016h.235v-2.497h-.235zm1.483-1.249v-.233h-2.497v.233zm-1.248 1.016h.234v-2.497h-.234zm1.483-1.249v-.233h-2.498v.233zm-1.249-1.481h-.234v2.497h.234zm1.014 1.248v-.233h-2.497v.233zm-1.248 1.016h.234v-2.497h-.234zm.234 0h.235v-2.497h-.235zm1.115-.363.234-.233-1.76-1.771-.235.233zm.603-1.119v-.233h-2.498v.233zm0-.233v-.233h-2.498v.233zm-1.249 1.016h.234v-2.497h-.234zm1.483-1.249v-.233h-2.497v.233zm0-.233v-.233h-2.497v.233zm0-.233v-.233h-2.497v.233zm-1.249 1.016h.235v-2.497h-.235zm1.483-1.249v-.233h-2.497v.233zm-1.248-1.481h-.235v2.497h.235zm1.014 1.248v-.233h-2.497v.233zm-1.483-1.714h-.234v2.497h.234zm-.234 0h-.235v2.497h.235zm-1.484 1.248v.233h2.498v-.233zm1.249-1.015h-.234v2.497h.234zm-.234 0h-.235v2.497h.235zm-.235 0h-.234v2.497h.234zm-1.483 1.248v.233h2.498v-.233zm1.249-1.015h-.234v2.497h.234zm1.014 1.248v-.233h-2.497v.233zm-1.248-1.481h-.235v2.497h.235zm-1.115.363-.235.233 1.761 1.771.234-.233zm1.526.233-.234-.233-1.761 1.771.234.233zm-1.115 1.901h.235v-2.497h-.235zm1.483-1.249v-.233h-2.497v.233zm0-.233v-.233h-2.497v.233zm2.11.233c0-.828-.675-1.481-1.483-1.481v2.497a1.014 1.014 0 0 1-1.014-1.016zm-1.483 4.511c1.201 0 1.8-1.453.948-2.3l-1.76 1.772c-.729-.725-.216-1.97.812-1.97zm5.783 1.314c0-.571.463-1.016 1.015-1.016v2.498c.808 0 1.483-.654 1.483-1.482zm.469-1.864c0 1.197 1.445 1.798 2.294.955l-1.76-1.772c.726-.722 1.963-.207 1.963.817zm1.483-1.482c-.808 0-1.483.654-1.483 1.482h2.497c0 .571-.463 1.016-1.014 1.016zm1.172-5.591c-.808 0-1.483.653-1.483 1.481h2.497c0 .571-.463 1.016-1.014 1.016zm-8.83-3.246c0-1.172-1.415-1.761-2.247-.935l1.761 1.772c-.744.74-2.012.212-2.012-.837zm-.546 5.51c.809 0 1.483-.654 1.483-1.482h-2.497c0-.57.463-1.015 1.014-1.015zm8.362-1.482c0-.57.463-1.015 1.014-1.015v2.497c.809 0 1.483-.654 1.483-1.482zm.663-8.77a1.13 1.13 0 0 1-1.132-1.131h2.497c0-.754-.611-1.366-1.365-1.366zm-1.366-1.365c0 .754.611 1.365 1.366 1.365v-2.497c.624 0 1.131.507 1.131 1.132zm1.952 2.297a1.014 1.014 0 0 1-1.015-1.015h2.498c0-.828-.675-1.482-1.483-1.482zm-1.718 8.537c0-.57.463-1.015 1.014-1.015v2.497c.809 0 1.483-.654 1.483-1.482zm-.392-14.762c.551 0 1.014.445 1.014 1.016h-2.497c0 .828.674 1.482 1.483 1.482zm-3.205 4.278c0 1.024-1.237 1.539-1.964.817l1.761-1.772c-.849-.843-2.294-.242-2.294.955zm-6.482 2.678c0-.629.511-1.131 1.131-1.131v2.497c.75 0 1.366-.606 1.366-1.366zm1.131-1.131c.62 0 1.132.502 1.132 1.132h-2.498c0 .759.617 1.365 1.366 1.365zm9.886 7.539c0-.57.463-1.015 1.014-1.015v2.497c.808 0 1.483-.654 1.483-1.482zm-10.532-4.264c.745-.739 2.012-.212 2.012.837h-2.497c0 1.172 1.415 1.761 2.246.935zm4.356 11.021c0-.828-.674-1.482-1.483-1.482v2.498a1.014 1.014 0 0 1-1.014-1.016zm3.128 2.563c0-1.024 1.238-1.539 1.964-.817l-1.76 1.771c.848.844 2.294.243 2.294-.954zm-6.71-9.201c.852-.846.253-2.299-.948-2.299v2.497c-1.028 0-1.541-1.244-.812-1.969zm1.238-.352c0-.828-.674-1.481-1.483-1.481v2.497a1.014 1.014 0 0 1-1.014-1.016zm7.893 5.21a1.014 1.014 0 0 1-1.014-1.016h2.497c0-.828-.674-1.481-1.483-1.481zm-9.218-12.898c0 .828.674 1.481 1.483 1.481v-2.497c.551 0 1.014.445 1.014 1.016zm8.515-2.48c.808 0 1.483-.653 1.483-1.481h-2.497c0-.571.463-1.016 1.014-1.016zm-6.721 10.634c0 .571-.463 1.016-1.014 1.016v-2.497c-.809 0-1.483.653-1.483 1.481zm-.703-6.64c0 .625-.507 1.132-1.132 1.132v-2.497c-.754 0-1.366.611-1.366 1.365zm.469 8.271c0-.828-.675-1.481-1.483-1.481v2.497a1.015 1.015 0 0 1-1.015-1.016z" fill="#fff" mask="url(#a)"/><path fill-rule="evenodd" clip-rule="evenodd" d="M119.285 142.606c-1.292-.268-1.58-1.486-1.165-.933.046-.484-.44-1.077-1.233-.864-1.093.437-.836.102-2.494 1.564-1.128 1.248-1.503.663-1.631 1.165-.239.078-1.01.259-1.703 1.39-.623 1.497-1.71-.093-2.723.942-1.73.836-3.09 2.549-3.495 4.431-.166 1.574-.388 4.012-.233 5.129-.69 1.606.51 3.723 1.165 3.032-.699.568.963 1.494 0 1.399-1.16.204-2.598-1.157-3.261-.233-.463.34-2.33.479-2.563 1.166-.125.794-1.871 1.011-2.727.398-.327-.949-2.04-.793-2.631-1.331-1.163.137-1.6 1.358-2.795 1.399-.669.254-.987-2.329-1.631-1.632-.963-.949-2.736-.12-1.862-1.866 1.402-.341-1.54-1.07-1.631-1.166-.854-1.2-2.32 1.631-2.563-.699-.507-.8-1.614-1.176-2.795-.467-.497-1.224-1.47-1.26-2.737-1.722-.66.345-2.088-.922-3.087-.842-.837.132-.802 1.555-.466 2.32-.138.934-1.473-.116-2.33.478-.555.12-1.813-1.13-2.329.233-.137-.444-1.44-1.376-1.864-.7-1.613.204-2.742.901-3.494-.699-.305-.956-1.299-.65-2.097-1.399-.603.798-2.717.246-3.028.932-.565-.336-.915-1.2-2.165-1.797.01-1.915-2.078-.917-2.95-1.001-.695-.914-2.204-1.09-2.795-1.399-1.955.13-.926-1.746-2.107-1.166.918 2.295-2.72.438-1.165-.233.459-.184 1.092-2.156.466-2.798-1.75-.874-2.19 1.302-2.796-.455-1.043-.265-1.49.323-1.864-1.177.516-.29 1.71-.218 2.329-1.166.75-1.387.999-1.656 1.796-3.43.097-1.667.46-2.998 1-4.731.005-1.012.525-3.647.932-5.13.172-2.193.366-4.04.699-6.296.441-2.347 1.416-.956 1.863-1.399-.042.433.299-.23.699.233.717-.318-1.128-1.382 0-.933-.99-1.14-1.91-1.675-2.329-.466-.334 2.216-.628 1.851-.233-.699.22-4.035 1.016-7.758.931-11.892.029-1.236 1.12-2.906 1.398-2.099-.318.16-.192 1.127 1.398 1.865.236.616 1.831 1.572 2.329 3.032-.016 1.825.552 2.902.932 3.497 1.315 1.491.657.97.466.233.698 1.107-.118-.53-.466-1.62-.12-1.665-.395-3.204-.863-4.442-.503-1.171-.591-1.23-1.466-1.866-.19-.287-.753-.936-1.398-.932-.524-1.432-.896-1.026-1.631-1.399-1.643-1.846-1.14.194-1.63-1.155-.6-2.678 1.77-1.373 2.562-.478.676.934 1.155.252-.233 0-.759-.585-1.288-2.401-1.398-2.331 1.653-.019.798-1.702.699-1.866 1.452-.386 1.717 1.53 1.165.467 1.101-.44-2.644-.875-.71-.933.557-.827-.687-1.911-.688-2.099-1.129-1.122.31-.629-1.397-.932 1.096-.57 1.76-4.033.466-2.11-.355.51-2.433-2.12-1.165-.688.862 1.72-.839-1.433-2.262-.535-.237-1.7-2.39-.942-2.63-1.797-.33-.404-1.88-.501-1.864-2.332-.529-1.386-1.564-2.038-1.864-2.798-.466-.664-2.53-1.383-2.096-3.032.809-.447 2.053-2.033 1.863-3.031-.565-1.176-2.798-.759-2.795-1.632 1.134-.09.584-1.269.795-2.195-.154-1.636-.817 1.386-1.96.33-.18-.308-1.202-.247-1.863-.467-1.892-.546.966-.136-.466-.921-1.429-1.467 1.018-1.018.699-2.343-2.316-.082 2.633-1.163.01-.933-.13-.792-2.606-.062-1.874 0-.447-.573 1.07-.53.244-.933.63-.811-.366.941-.477 0 .25.507-.955.213-.466.234.389.641-.01.48-1.165.932-1.538.347-1.38-1.243-2.085-.932.161-.39.403-.574.687 0 .66-.273.994.015 1.398 0 .802-1.174.427-.696.932-1.633-.776-.184-.18.533-.466.7-1.127-.363.152-.986-.699-.7.124-1.082-1.423.93-1.397.7-.546.15-.82-.05-.797-.427-.388-1.274-.368.126.098 1.126-.461-.292-.628.02-1.165-1.165-.197-1.348.376 1.546-.233.699-1.162-.025-1.064-.583-.699 1.632.659 1.188-1.143-.37-.466-.699.524-1.06-1.48-2.517-.583-2.534.904-.641.303-.626.583-.731.595-.618-.17-.013-.222-.466.376-.416-.74-.183-.011.466-.74.425-.275-.1-.699.933.4.001-2.493-.963-1.63-.7 2.189.104-1.149.095.466-.932.51-1.26.771-1.575-.233-.233-.237.717-1.252-2.746-.466 0 .518.763-1.411 1.871-1.631.244-.632-.584-.3-1.565-.233-.944.176.7-1.534.735-1.631.01-.205.69-1.47-.633-.233-.476-.202.29-1.39-.679-.931-.234.559.687-1.76 1.266-1.864-.233-.188-.016-.289-.804-.932-1.166-.374-.424.388 1.793-1.398.933.443.244-1.458-1.235-.233-1.399.205-.087-.182-1.63-.465.233-1.084.292.803.684-.233 1.166-.634-.56-1 .105 0 .466-.525.989-.367-.013-1.61.7.264.113-1.947-.165-.72-1.155-.56-1.466-1.007-2.323-2.33-2.809 1.18-1.03-.527-.61 0-.233-.544.753-1.483-.426-1.748-.117-1.062.36-.393-1.061-.349-.583 2.17-.535 1.71-.614 3.472-.699.86.128 2.348.088 1.42-1.166.879-.638-1.387-1.108-1.895-1.516-.834-.158-.986 2.19-1.367.583.607-.871-1.3-1.272-.232-1.399.502-1.718.288-.378.931-.233-.113-.064 1.545.55 3.029 0-.43.853.478.638 1.63 1.166.975.653-.166-.574-1.397-.467-.306-.857 1.233-.76 0-.932-.43.056.185-.568-1.165 0 1.258-1.18.064-.626 0-.933-.967.9-1.046.65-1.165 0 .45-.798 3.04-1.841 1.864-1.631-.264.92-3.166 1.285-2.563.933-.47.876-1.907 1.07-1.629 1.165-1-.536-1.926.068-2.097-.699.84-.343-.744-2.234.932-1.866-.15.318-1.452-1.477.222-1.633.054-1.03 1.173.233 2.086 0 .806.09-.953.191-.91-.932.435.263 2.983 1.03.465 0-.031-1.001.789-.289 1.631-.467-.145-.174 1.395-1.431 1.631-.466.053 1.01 1.32-.562 1.63-.467 1.915-.046 1.12-.241 2.097-.699 1.083-.17.153 1.513.932 2.332-.763-.074.57-2.524.233-1.167 1.003 1.07 1.018 1.383.699.01.033-.471-.075-1.466 1.165-.943 1.423-.621 1.224 2.067 1.63.245.978.865.65-.801.932-1.178-.634-.2-.493-.563.233-1.165.186-.387.48-.58.932-.001.52.282 1.477-.157 2.097-.466 1.337-1.088 1.404.737.465.933.386.828-.08 1.248.63-.301.852-1.58 2.117-1.327 1.467-1.098-.086.888.055.41 0 1.166-.7.561-.686 2.015-.233 1.632-1.027-.63 1.127-1.93.932-2.099.575.995-.848.786.688 1.166.672-.1.684 1.65 1.408 1.632.898.583.163 2.04 1.631 2.099.094 1.094.577 1.199 1.165.933.161-.137.828-1.823 1.748-1.662.535-1.33.703-.36 1.735-.902.994-1.325.8.316.477.932.56-1.4 1.635.158 1.165.7.18.265.447-.446 1.165-.934-.532.012 1.025-.817.931-.233.6.25.575.728.699 1.399.855.158-.546 1.622.699.701-.315-.61-.396-1.432-.233-1.166-1.116.098-.572-2.427.233-1.867-.066-.54.745-.016 1.398-.699.12.4-1.328 1.652.688 2.098 2.235-.249 3.801-.225 5.136-.699.231-.04-.753-.64-1.165-.7-1.018-.158-1.281-1.487-1.631-2.798-.504.429.373-1.945.699-2.098-1.042-1.481 1.15-2.448-.466-1.398-.525.274-.24-2.103-.466-3.265 1.13-1.252-1.338-.575-.698-2.098-.706-.051-.112-1.446-.699-.7-.016-.6-1.054-.615-1.165-1.388-.091-1.53-.354-1.584-.932-2.576 2.115-1.671-1.216-2.458-.699-3.731 1.254.308 1.744.895 3.484 1.166.629.466.032.39 1.852.233.511-1.111 2.855-1.328 3.517 0 .195 1.927-1.751 1.262-.233 3.381 1.006.877 1.483 2.14.699 2.915.72-.588 1.007-.556 2.562-1.166.254-.591 2.732 1.371 3.494.7 2.144.349 3.939.132 5.697 1.166 1.972.844 4.043-1.591 5.718-2.565 3.504-.104.64-.255-1.106-.67-.776-1.181-.42-1.713.106-2.663.615-1.769-.212-.717.534-1.786.655-.54 2.927-1.266 3.262-1.877 1.046-.444 2.027-1.452 3.494-1.632.815.557 2.87-1.278 3.96-.7 1.55-.783 2.307-1.316 2.796-1.632 1.225-1.462 1.534-1.026 2.329-2.098.18-1.001 1.723-3.058 1.631-1.866 2.054 1.244.87-.719.668-.35-.079-.064-1.738-1.324-.901-2.914 1.745.466.815.166.233-.467-.012-1.688-.17-3.808 1.154-2.33 1.412.813-.994-.362-.72-.817-.928-.56-.171-3.868-.434-3.382 1.096.372-.366-3.272.466-3.031.576.156 1.716-1.83 3.028-1.865.003-.035.73-.304 1.399-.233 1.071-1.107 2.544.334 1.864-.467.287-.621.683-.07.931-.232-.972-.467 1.91-.61 2.785-.7 1.862-1.576 1.696.403 2.574 1.399-.022.83-.09 1.946-.234 2.565 1.01.522 1.975 1.61 2.288 1.967.233.954 1.702 1.558 2.139.364-.571-.421 1.378-.653 2.096-1.165.58.343 1.247 1.706 1.631 2.332-.107.937.461 2.273.466 2.565.06.933 1.861 1.197 2.784.233-.996 1.77 2.595-.185 1.875 2.565-.11-.065.363 2.46.466 1.633.577.44.246-1.253 1.864-.7.66 1.113 2.37-.861 2.795.7.673.584.767 1.3 1.62.932.244.877-1.114 1.488-.921 2.787.996-.431 1.087.28.932 1.41-1.404.384-.681 1.677-.233 1.866 1.808-.451 1.984.481 3.668.262 1.16-.42 3.176-1.168 2.622-2.361-.057-1.522 3.277-2.327 2.096-.933.31.41-.666.904-.466 2.332-.97.934 1.777 1.85.466 2.565-.494 1.39.402 1.415 1.864 1.399 1.302.749 1.468 1.648 2.562 2.099.982-1.192 1.225 2.047 1.631.933 1.687.3.963 2.69 1.631 2.331 1.735.083 2.26-1.063 3.494-.466.82-1.115.884 1.08 2.563.933.491 1.675 1.967-.115 2.398-.028 1.135-1.197 1.464.365 2.716.494.082-.272 1.563-.082 2.107.7-.273-.627.836 1.764.602 1.36-1.078.268 1.285 1.319.796 1.671.768.556.36 2.2 2.086 2.098.41-.69.57-1.8 2.107-.699.647.835.95 1.305 1.398 1.155.983.05.737.371 2.329.244.079-.042 2.015-1.762 1.864-.933.926-.202.494 1.717 2.097 1.866 1.254.896 1.362.02 3.017.466.873-.006 1.355-.116 2.574.933.939.765 2.856.11 1.431 1.2-.57 1.267-1.03 2.594-1.897 3.23-.604.117-1.695 1.95-2.33 2.798-.862.953-.435 2.521-1.048 3.497-.204 1.666-.617 2.916-1.514 4.663-1.14.994-.681 3.132-.117 3.964-.88 1.013-1.008 3.205-.98 4.5-.935 1.365 1.878 2.859-.534 3.429.749.167.014 1.564-.932.932.904 1.32-1.549.795-2.165 1.33-1.22-.154-.396-1.867-1.795-1.33-1.804-.705-1.342.529-2.097 1.621-1.703 1.156.436.747 1.398.711.29 1.478-1.849.803-1.165 2.099-.187.351-1.523 1.509-1.63 2.098-2.022.599-.851 1.227-2.33 2.332-.782.71-3.396.784-2.097 2.332-.311 1.306-.582 2.789-1.397 2.798-.781.861-2.606 1.96-3.029 2.798.972.755-.768 1.74-.699 2.798 2.397.617.148 2.034.699 3.02-.329.409-1.782-.133-1.63 1.177-.655 1.532.376.361 1.863.933.906-1.551 1.55-.77 2.097-2.087-1.392.21-.343-3.324 1.165-1.644 1.217-1.119 2.292-1.244 4.605-1.166.481.695.13 1.536 1.218 2.565-1.64 1.38-.286 2.574.233 3.032-.506 1.708.761-.37 1.165 1.62 1.171.315.483 1.742.466 2.11-.855.943-1.903.763-2.562 1.166-.324 1.892.387 2.246 1.63 3.032 1.156-.53-.067 2.847 1.387 2.798.234.794 2.615 1.686.943 2.798-.139.932.479 1.36-.497 2.215-1.53-.326-1.61.487-2.532 1.282-.137.078-2.629-.38-3.028.467-.509 1.304 1.402 1.418 1.398 2.332.197.772-.307 1.466.932 1.865 1.323.59 2.909.517 2.329 1.865 1.194 1.653-.075.777-.699 2.543.354.458-2.094 1.844-.699 2.82 1.072.966-.945 1.71.466 2.565.752 1.097 1.503 1.84 2.796 1.866 1.044.89 2.422 1.993 3.716 1.399 1.283.041 2.48-1.627 2.642-.262.856 1.063.171 1.977-.301 3.06-1.261.424-2.371 2.017-1.398 3.264-.853-.065-1.481 1.06-1.853.933-.855.59-.749.647-.943.7-.637-.708-1.307.726-2.096.932-.413 1.565.208 1.656-.466.933-.325.539-2.756.692-1.864 1.166-.475.694-.67 1.865-2.329 1.632-.637-.114-1.028 2.056-1.853 1.866-1.223 1.084.875.11.921.921-.617.61-.624 2.32-1.631.944-.72 1.43-2.134.046-2.562 1.399.195.72-.456.28-.932 0-1.414-.814-2.315 2.577-1.864 1.166-.279-1.08-2.106-.36-1.863-1.166-.785.53-.444-.46-.932 0-.42-.295-.208.656.233.7.444-.332-1.91.733-1.515.031.196-.702-.651-1.376-.815-.964-.807-.196-.285-1.103-1.631-.933-.74.339-1.042-.808-2.096-.466-.826.386-1.5-.454-.932-1.854-.47-.339-.398-1.328-1.398-.245-2.74-.101-2.801.581-3.261-1.154-.472-.662-1.726-.149-1.398-.245-.287-1.122-.504.336-.466.467-.236.281 1.321.052.398.63-.693.51-4.108.001-3.892-.63 1.682-1.121-2.352-1.355-1.864-1.166-.251.188-1.387-.11-2.329 0m-28.188 17.022c1.126 1.034.138-1.782 0 0" fill="#c9c9fc"/><mask id="b" fill="#fff"><path fill-rule="evenodd" clip-rule="evenodd" d="M61.703 61.61a4 4 0 0 0-4 4v13.57a4 4 0 0 0 4 4h8.661l4.37 5.675 4.368-5.675h7.52a4 4 0 0 0 4-4V65.61a4 4 0 0 0-4-4z"/></mask><path fill-rule="evenodd" clip-rule="evenodd" d="M61.703 61.61a4 4 0 0 0-4 4v13.57a4 4 0 0 0 4 4h8.661l4.37 5.675 4.368-5.675h7.52a4 4 0 0 0 4-4V65.61a4 4 0 0 0-4-4z" fill="#C7C7FA"/><path d="m70.364 83.179.793-.61-.3-.39h-.493zm4.37 5.675-.793.61.792 1.03.793-1.03zm4.368-5.675v-1h-.492l-.3.39zM58.703 65.61a3 3 0 0 1 3-3v-2a5 5 0 0 0-5 5zm0 13.568V65.61h-2v13.568zm3 3a3 3 0 0 1-3-3h-2a5 5 0 0 0 5 5zm8.661 0h-8.66v2h8.66zm5.162 6.065-4.37-5.675-1.584 1.22 4.369 5.675zm2.784-5.675-4.37 5.675 1.586 1.22 4.369-5.675zm8.313-.39h-7.52v2h7.52zm3-3a3 3 0 0 1-3 3v2a5 5 0 0 0 5-5zm0-13.568v13.568h2V65.61zm-3-3a3 3 0 0 1 3 3h2a5 5 0 0 0-5-5zm-24.92 0h24.92v-2h-24.92z" fill="#FEFEFE" mask="url(#b)"/><path fill="#fff" d="M63.383 65.016h21.568v13.622H63.383z"/><path fill="#fff" d="M63.383 65.016h21.568v13.622H63.383z"/><path fill="#fff" d="M63.383 65.016h21.568v13.622H63.383z"/><path fill="#fff" d="M63.383 65.016h21.568v13.622H63.383z"/><path fill="#fff" d="M63.383 65.016h21.568v13.622H63.383z"/><path d="M63.383 65.016H84.95v3.405H63.383z" fill="#000091"/><circle cx="66.216" cy="66.719" fill="#CE0500" r=".568"/><circle cx="68.466" cy="66.719" fill="#B34000" r=".568"/><circle cx="70.763" cy="66.719" fill="#169B62" r=".568"/><path d="M74.723 75.8s-2.27-2.27-2.27-2.838c0-.349.227-1.135 1.135-1.135s1.135.946 1.135 1.135c0-.19.228-1.135 1.136-1.135.73 0 1.135.508 1.135 1.135 0 .568-2.27 2.838-2.27 2.838" fill="#FF5655" stroke="#FF5655" stroke-width=".5" stroke-linecap="round" stroke-linejoin="round"/><rect x="70.195" y="69.557" width="9.081" height="7.946" rx="1" stroke="#8585F6" stroke-width=".3" stroke-linecap="round" stroke-linejoin="round" stroke-dasharray="0.6 0.6"/><path d="m80.979 75.233-2.838-1.135m0 0 1.135 2.838m-1.135-2.838 2.837 2.838" stroke="#000091" stroke-width=".5" stroke-linecap="round" stroke-linejoin="round"/><mask id="c" fill="#fff"><path fill-rule="evenodd" clip-rule="evenodd" d="M100 98.089a4 4 0 0 0-4 4v13.568a4 4 0 0 0 4 4h8.661l4.369 5.676 4.369-5.676h7.521a4 4 0 0 0 4-4v-13.568a4 4 0 0 0-4-4z"/></mask><path fill-rule="evenodd" clip-rule="evenodd" d="M100 98.089a4 4 0 0 0-4 4v13.568a4 4 0 0 0 4 4h8.661l4.369 5.676 4.369-5.676h7.521a4 4 0 0 0 4-4v-13.568a4 4 0 0 0-4-4z" fill="#C7C7FA"/><path d="m108.661 119.657.792-.61-.3-.39h-.492zm4.369 5.676-.792.61.792 1.029.793-1.029zm4.369-5.676v-1h-.492l-.3.39zM97 102.089a3 3 0 0 1 3-3v-2a5 5 0 0 0-5 5zm0 13.568v-13.568h-2v13.568zm3 3a3 3 0 0 1-3-3h-2a5 5 0 0 0 5 5zm8.661 0H100v2h8.661zm5.162 6.066-4.37-5.676-1.584 1.22 4.369 5.676zm2.784-5.676-4.369 5.676 1.585 1.22 4.369-5.676zm8.313-.39h-7.521v2h7.521zm3-3a3 3 0 0 1-3 3v2a5 5 0 0 0 5-5zm0-13.568v13.568h2v-13.568zm-3-3a3 3 0 0 1 3 3h2a5 5 0 0 0-5-5zm-24.92 0h24.92v-2H100z" fill="#FEFEFE" mask="url(#c)"/><path fill="#fff" d="M101.68 101.494h21.568v13.622H101.68z"/><path fill="#fff" d="M101.68 101.494h21.568v13.622H101.68z"/><path fill="#fff" d="M101.68 101.494h21.568v13.622H101.68z"/><path fill="#fff" d="M101.68 101.494h21.568v13.622H101.68z"/><path fill="#fff" d="M101.68 101.494h21.568v13.622H101.68z"/><path d="M101.68 101.494h21.568v3.406H101.68z" fill="#000091"/><circle cx="104.497" cy="103.197" fill="#CE0500" r=".568"/><circle cx="106.771" cy="103.197" fill="#B34000" r=".568"/><circle cx="109.052" cy="103.197" fill="#169B62" r=".568"/><path d="M113.013 112.278s-2.271-2.27-2.271-2.838c0-.348.227-1.135 1.135-1.135s1.136.946 1.136 1.135c0-.189.227-1.135 1.135-1.135.73 0 1.135.508 1.135 1.135 0 .568-2.27 2.838-2.27 2.838" fill="#FF5655" stroke="#FF5655" stroke-width=".5" stroke-linecap="round" stroke-linejoin="round"/><rect x="108.484" y="106.035" width="9.081" height="7.946" rx="1" stroke="#8585F6" stroke-width=".3" stroke-linecap="round" stroke-linejoin="round" stroke-dasharray="0.6 0.6"/><path d="m119.268 111.711-2.838-1.135m0 0 1.135 2.838m-1.135-2.838 2.838 2.838" stroke="#000091" stroke-width=".5" stroke-linecap="round" stroke-linejoin="round"/><mask id="d" fill="#fff"><path fill-rule="evenodd" clip-rule="evenodd" d="M107.109 38.479a4 4 0 0 0-4 4v13.568a4 4 0 0 0 4 4h8.662l4.369 5.675 4.368-5.675h7.521a4 4 0 0 0 4-4V42.479a4 4 0 0 0-4-4z"/></mask><path fill-rule="evenodd" clip-rule="evenodd" d="M107.109 38.479a4 4 0 0 0-4 4v13.568a4 4 0 0 0 4 4h8.662l4.369 5.675 4.368-5.675h7.521a4 4 0 0 0 4-4V42.479a4 4 0 0 0-4-4z" fill="#C7C7FA"/><path d="m115.771 60.047.792-.61-.3-.39h-.492zm4.369 5.675-.793.61.793 1.03.792-1.03zm4.368-5.675v-1h-.492l-.3.39zm-20.399-17.568a3 3 0 0 1 3-3v-2a5 5 0 0 0-5 5zm0 13.568V42.479h-2v13.568zm3 3a3 3 0 0 1-3-3h-2a5 5 0 0 0 5 5zm8.662 0h-8.662v2h8.662zm5.161 6.065-4.369-5.675-1.585 1.22 4.369 5.675zm2.784-5.675-4.369 5.675 1.585 1.22 4.369-5.675zm8.313-.39h-7.521v2h7.521zm3-3a3 3 0 0 1-3 3v2a5 5 0 0 0 5-5zm0-13.568v13.568h2V42.479zm-3-3a3 3 0 0 1 3 3h2a5 5 0 0 0-5-5zm-24.92 0h24.92v-2h-24.92z" fill="#FEFEFE" mask="url(#d)"/><path fill="#fff" d="M108.789 41.884h21.568v13.622h-21.568z"/><path fill="#fff" d="M108.789 41.884h21.568v13.622h-21.568z"/><path fill="#fff" d="M108.789 41.884h21.568v13.622h-21.568z"/><path fill="#fff" d="M108.789 41.884h21.568v13.622h-21.568z"/><path fill="#fff" d="M108.789 41.884h21.568v13.622h-21.568z"/><path d="M108.789 41.884h21.568v3.405h-21.568z" fill="#000091"/><circle cx="111.607" cy="43.586" fill="#CE0500" r=".568"/><circle cx="113.872" cy="43.586" fill="#B34000" r=".568"/><circle cx="116.154" cy="43.586" fill="#169B62" r=".568"/><path d="M120.122 52.668s-2.27-2.27-2.27-2.838c0-.349.227-1.135 1.135-1.135s1.135.946 1.135 1.135c0-.19.227-1.135 1.135-1.135.731 0 1.135.508 1.135 1.135 0 .567-2.27 2.838-2.27 2.838" fill="#FF5655" stroke="#FF5655" stroke-width=".5" stroke-linecap="round" stroke-linejoin="round"/><rect x="115.586" y="46.424" width="9.081" height="7.946" rx="1" stroke="#8585F6" stroke-width=".3" stroke-linecap="round" stroke-linejoin="round" stroke-dasharray="0.6 0.6"/><path d="m126.369 52.1-2.838-1.135m0 0 1.135 2.837m-1.135-2.837 2.838 2.837" stroke="#000091" stroke-width=".5" stroke-linecap="round" stroke-linejoin="round"/></svg>
