<svg width="180" height="180" viewBox="0 0 180 180" fill="none" xmlns="http://www.w3.org/2000/svg"><path d="M52.925 158.128C10.746 135.039 6.944 88.326 6.807 86.181 5.262 61.89 13.784 27.15 40.666 13.138c3.107-1.618 20.85-10.867 36.592-4.307 12.531 5.224 24.623 20.813 28.707 34.317.577 1.914 1.031 3.905 2.838 5.953 6.981 7.903 20.706 1.427 31.579 3.945 18.521 4.29 34.374 35.98 28.759 63.993-6.763 33.73-41.563 46.731-47.029 48.664-33.632 11.888-63.122-4.254-69.187-7.575" fill="#DEE5FD" fill-opacity=".5"/><path d="M43.269 47.616a7.06 7.06 0 0 1-4.948 8.677 7.07 7.07 0 0 1-8.685-4.944 7.06 7.06 0 0 1 4.948-8.676c3.765-1.031 7.654 1.181 8.685 4.943" fill="#fff"/><path d="M36.463 42.713c-.6 0-1.206.08-1.8.245a6.72 6.72 0 0 0-4.093 3.175 6.7 6.7 0 0 0-.647 5.137 6.72 6.72 0 0 0 3.178 4.091 6.73 6.73 0 0 0 5.143.645 6.73 6.73 0 0 0 4.093-3.174 6.72 6.72 0 0 0 .647-5.138 6.72 6.72 0 0 0-3.18-4.09 6.74 6.74 0 0 0-3.341-.892m-.02 14.13a7.3 7.3 0 0 1-3.635-.97 7.3 7.3 0 0 1-3.457-4.445 7.3 7.3 0 0 1 .703-5.588 7.32 7.32 0 0 1 4.451-3.452 7.32 7.32 0 0 1 5.593.703 7.3 7.3 0 0 1 3.456 4.446 7.3 7.3 0 0 1-.703 5.587 7.33 7.33 0 0 1-4.451 3.454 7.5 7.5 0 0 1-1.958.264" fill="#000"/><path d="M36.777 52.884a.3.3 0 0 1-.219-.095l-3.371-3.696a.294.294 0 0 1 .019-.416.296.296 0 0 1 .418.019l2.84 3.112c-.024-2.634.312-4.693 1.022-6.274a.3.3 0 0 1 .392-.15.297.297 0 0 1 .148.392c-.733 1.63-1.054 3.917-.954 6.803a.293.293 0 0 1-.295.305" fill="#000"/><path d="M117.157 163.881H42.708c-3.208 0-5.48-2.592-5.075-5.787L55.965 13.41c.404-3.195 3.333-5.784 6.541-5.784l70.712-.825c8.117 0 9.218 3.414 8.813 6.609l-18.332 144.684c-.405 3.195-3.334 5.787-6.542 5.787" fill="#6A6AF4"/><path d="M112.674 163.881H38.225c-3.208 0-5.48-2.599-5.077-5.805L51.482 12.932c.403-3.205 3.331-5.803 6.541-5.803h74.449c3.207 0 5.479 2.598 5.076 5.803l-18.334 145.144c-.403 3.206-3.332 5.805-6.54 5.805" fill="#fff"/><path d="M37.394 158.276 54.899 19.687c.091-.74.768-1.338 1.509-1.338h74.848c.741 0 1.266.598 1.172 1.338l-17.503 138.589c-.092.741-.769 1.341-1.511 1.341H38.566c-.741 0-1.266-.6-1.172-1.341M94.317 14.51c-1.202 0-2.053-.974-1.901-2.174s1.249-2.173 2.45-2.173c1.203 0 2.054.973 1.902 2.173s-1.249 2.175-2.45 2.175" fill="#DEE5FD"/><path d="M112.673 164.175H38.224c-1.63 0-3.086-.634-4.1-1.783-1.026-1.163-1.478-2.708-1.27-4.352l1.813-14.349a.296.296 0 1 1 .587.075l-1.813 14.347c-.186 1.474.214 2.856 1.125 3.889.902 1.02 2.201 1.582 3.658 1.582h74.449c3.058 0 5.863-2.488 6.249-5.544l13.707-108.523a.293.293 0 0 1 .33-.257c.161.02.275.169.256.33l-13.706 108.523c-.424 3.343-3.489 6.062-6.836 6.062M45.326 61.958l-.037-.002a.295.295 0 0 1-.255-.33l6.153-48.732c.422-3.343 3.488-6.061 6.837-6.061h74.448c1.628 0 3.085.633 4.099 1.783 1.028 1.162 1.478 2.707 1.271 4.352l-.148 1.164a.296.296 0 0 1-.587-.073l.147-1.165c.187-1.473-.212-2.853-1.125-3.888-.902-1.02-2.2-1.583-3.657-1.583H58.024c-3.06 0-5.864 2.488-6.25 5.544L45.62 61.7a.294.294 0 0 1-.293.259" fill="#000"/><mask id="a" style="mask-type:luminance" maskUnits="userSpaceOnUse" x="45" y="80" width="81" height="4"><path d="M45.938 80.359h79.944v2.95H45.938z" fill="#fff"/></mask><g mask="url(#a)"><mask id="b" style="mask-type:luminance" maskUnits="userSpaceOnUse" x="37" y="18" width="96" height="142"><path d="M37.386 158.276 54.889 19.687c.094-.74.77-1.338 1.511-1.338h74.848c.741 0 1.266.598 1.172 1.338l-17.503 138.589c-.092.741-.769 1.341-1.509 1.341h-74.85c-.74 0-1.266-.6-1.172-1.341" fill="#fff"/></mask><g mask="url(#b)"><path d="M125.543 83.295H45.984l.265-2.884h79.558z" fill="#BFCCFB"/></g></g><mask id="c" style="mask-type:luminance" maskUnits="userSpaceOnUse" x="37" y="149" width="80" height="4"><path d="M37.523 149.586h79.229v2.951H37.523z" fill="#fff"/></mask><g mask="url(#c)"><mask id="d" style="mask-type:luminance" maskUnits="userSpaceOnUse" x="37" y="18" width="96" height="142"><path d="M37.394 158.276 54.897 19.688c.093-.741.77-1.34 1.511-1.34h74.848c.741 0 1.266.599 1.172 1.34l-17.503 138.588c-.092.741-.769 1.341-1.509 1.341h-74.85c-.741 0-1.266-.6-1.172-1.341" fill="#fff"/></mask><g mask="url(#d)"><path d="M116.421 152.503h-78.82l.263-2.883h78.819z" fill="#BFCCFB"/></g></g><mask id="e" style="mask-type:luminance" maskUnits="userSpaceOnUse" x="99" y="92" width="7" height="10"><path d="M99.477 92.612h6.088v9.212h-6.088z" fill="#fff"/></mask><g mask="url(#e)"><mask id="f" style="mask-type:luminance" maskUnits="userSpaceOnUse" x="37" y="18" width="96" height="142"><path d="M37.394 158.276 54.897 19.687c.093-.74.77-1.338 1.511-1.338h74.848c.741 0 1.266.598 1.172 1.338l-17.503 138.589c-.092.741-.769 1.341-1.509 1.341h-74.85c-.741 0-1.266-.6-1.172-1.341" fill="#fff"/></mask><g mask="url(#f)"><path d="M104.631 101.741c1.123-2.323 1.108-5.35.516-8.73l-2.41 2.063-2.833-2.46c.966 3.98 1.416 7.531-.373 9.206z" fill="#fff"/></g></g><mask id="g" style="mask-type:luminance" maskUnits="userSpaceOnUse" x="87" y="99" width="22" height="51"><path d="M87.21 99.409h21.128v50.177H87.211z" fill="#fff"/></mask><g mask="url(#g)"><mask id="h" style="mask-type:luminance" maskUnits="userSpaceOnUse" x="37" y="18" width="96" height="142"><path d="M37.394 158.276 54.897 19.687c.093-.74.77-1.338 1.511-1.338h74.848c.741 0 1.266.598 1.172 1.338l-17.503 138.589c-.092.741-.769 1.341-1.509 1.341h-74.85c-.741 0-1.266-.6-1.172-1.341" fill="#fff"/></mask><g mask="url(#h)"><path d="M90.188 149.557h10.257c1.77 0 3.339-1.427 3.515-3.197l4.358-43.655c.178-1.793-1.138-3.253-2.933-3.253H93.854c-1.808 0-3.397 1.483-3.525 3.288l-3.079 43.658c-.124 1.755 1.183 3.159 2.938 3.159" fill="#6A6AF4"/></g></g><mask id="i" style="mask-type:luminance" maskUnits="userSpaceOnUse" x="92" y="104" width="14" height="3"><path d="M92.672 104.149h12.712v2.683H92.672z" fill="#fff"/></mask><g mask="url(#i)"><mask id="j" style="mask-type:luminance" maskUnits="userSpaceOnUse" x="37" y="18" width="96" height="142"><path d="M37.394 158.276 54.897 19.687c.093-.74.77-1.338 1.511-1.338h74.848c.741 0 1.266.598 1.172 1.338l-17.503 138.589c-.092.741-.769 1.341-1.509 1.341h-74.85c-.741 0-1.266-.6-1.172-1.341" fill="#fff"/></mask><g mask="url(#j)"><path d="M93.908 106.82h9.93c.739 0 1.391-.596 1.459-1.335a1.2 1.2 0 0 0-1.215-1.335H94.15c-.739 0-1.391.599-1.457 1.335a1.198 1.198 0 0 0 1.215 1.335" fill="#BFCCFB"/></g></g><mask id="k" style="mask-type:luminance" maskUnits="userSpaceOnUse" x="91" y="108" width="14" height="6"><path d="M91.96 108.174h12.802v5.277H91.961z" fill="#fff"/></mask><g mask="url(#k)"><mask id="l" style="mask-type:luminance" maskUnits="userSpaceOnUse" x="37" y="18" width="96" height="142"><path d="M37.394 158.276 54.897 19.687c.093-.74.77-1.338 1.511-1.338h74.848c.741 0 1.266.598 1.172 1.338l-17.503 138.589c-.092.741-.769 1.341-1.509 1.341h-74.85c-.741 0-1.266-.6-1.172-1.341" fill="#fff"/></mask><g mask="url(#l)"><path d="M93.958 113.447h8.366c1.172 0 2.205-.947 2.312-2.115l.09-.996c.107-1.168-.755-2.115-1.925-2.115h-8.369c-1.17 0-2.205.947-2.31 2.115l-.09.996c-.106 1.168.756 2.115 1.926 2.115" fill="#BFCCFB"/></g></g><mask id="m" style="mask-type:luminance" maskUnits="userSpaceOnUse" x="37" y="99" width="21" height="51"><path d="M37.703 99.409h19.873v50.177H37.703z" fill="#fff"/></mask><g mask="url(#m)"><mask id="n" style="mask-type:luminance" maskUnits="userSpaceOnUse" x="37" y="18" width="96" height="142"><path d="M37.394 158.276 54.897 19.687c.093-.74.77-1.338 1.511-1.338h74.848c.741 0 1.266.598 1.172 1.338l-17.503 138.589c-.092.741-.769 1.341-1.509 1.341h-74.85c-.741 0-1.266-.6-1.172-1.341" fill="#fff"/></mask><g mask="url(#n)"><path d="M40.412 149.557h9.497c1.639 0 3.101-1.427 3.278-3.195l4.327-43.657c.176-1.791-1.033-3.253-2.693-3.253H44.144c-1.674 0-3.155 1.483-3.285 3.29l-3.146 43.656c-.126 1.755 1.074 3.159 2.7 3.159" fill="#6A6AF4"/></g></g><mask id="o" style="mask-type:luminance" maskUnits="userSpaceOnUse" x="43" y="102" width="12" height="4"><path d="M43.523 102.24h11.37v3.341h-11.37z" fill="#fff"/></mask><g mask="url(#o)"><mask id="p" style="mask-type:luminance" maskUnits="userSpaceOnUse" x="37" y="18" width="96" height="142"><path d="M37.394 158.276 54.897 19.687c.093-.74.77-1.338 1.511-1.338h74.848c.741 0 1.266.598 1.172 1.338l-17.503 138.589c-.092.741-.769 1.341-1.509 1.341h-74.85c-.741 0-1.266-.6-1.172-1.341" fill="#fff"/></mask><g mask="url(#p)"><path d="M44.76 105.534h8.612c.738 0 1.39-.598 1.458-1.335l.055-.607a1.2 1.2 0 0 0-1.215-1.337h-8.612c-.739 0-1.391.598-1.459 1.337l-.054.607a1.2 1.2 0 0 0 1.215 1.335" fill="#BFCCFB"/></g></g><mask id="q" style="mask-type:luminance" maskUnits="userSpaceOnUse" x="42" y="107" width="13" height="7"><path d="M42.719 107.19h11.548v6.529H42.719z" fill="#fff"/></mask><g mask="url(#q)"><mask id="r" style="mask-type:luminance" maskUnits="userSpaceOnUse" x="37" y="18" width="96" height="142"><path d="M37.394 158.276 54.897 19.687c.093-.74.77-1.338 1.511-1.338h74.848c.741 0 1.266.598 1.172 1.338l-17.503 138.589c-.092.741-.769 1.341-1.509 1.341h-74.85c-.741 0-1.266-.6-1.172-1.341" fill="#fff"/></mask><g mask="url(#r)"><path d="M44.692 113.67h7.05c1.17 0 2.204-.947 2.31-2.117l.2-2.184c.104-1.168-.758-2.115-1.927-2.115h-7.05c-1.17 0-2.204.947-2.31 2.115l-.198 2.184c-.107 1.17.755 2.117 1.925 2.117" fill="#BFCCFB"/></g></g><mask id="s" style="mask-type:luminance" maskUnits="userSpaceOnUse" x="53" y="99" width="22" height="51"><path d="M53.46 99.499h21.487v50.261H53.46z" fill="#fff"/></mask><g mask="url(#s)"><mask id="t" style="mask-type:luminance" maskUnits="userSpaceOnUse" x="37" y="18" width="96" height="142"><path d="M37.394 158.276 54.897 19.688c.093-.741.77-1.34 1.511-1.34h74.848c.741 0 1.266.599 1.172 1.34l-17.503 138.588c-.092.741-.769 1.341-1.509 1.341h-74.85c-.741 0-1.266-.6-1.172-1.341" fill="#fff"/></mask><g mask="url(#t)"><path d="m71.99 99.617-10.246-.08c-1.77-.014-3.349 1.4-3.54 3.168l-4.7 43.654c-.194 1.792 1.11 3.264 2.902 3.277l11.524.092c1.805.015 3.406-1.458 3.547-3.264l3.426-43.663c.137-1.753-1.155-3.169-2.912-3.184" fill="#6A6AF4"/></g></g><mask id="u" style="mask-type:luminance" maskUnits="userSpaceOnUse" x="56" y="139" width="14" height="8"><path d="M56.234 139.031h12.884v7.692H56.234z" fill="#fff"/></mask><g mask="url(#u)"><mask id="v" style="mask-type:luminance" maskUnits="userSpaceOnUse" x="37" y="18" width="96" height="142"><path d="M37.394 158.276 54.897 19.687c.093-.74.77-1.338 1.511-1.338h74.848c.741 0 1.266.598 1.172 1.338l-17.503 138.589c-.092.741-.769 1.341-1.509 1.341h-74.85c-.741 0-1.266-.6-1.172-1.341" fill="#fff"/></mask><g mask="url(#v)"><path d="m66.666 139.151-7.253-.058c-1.475-.011-2.79 1.176-2.936 2.651l-.214 2.175c-.146 1.474.932 2.68 2.408 2.693l7.252.056c1.476.011 2.788-1.174 2.935-2.649l.215-2.175c.147-1.476-.932-2.682-2.407-2.693" fill="#BFCCFB"/></g></g><mask id="w" style="mask-type:luminance" maskUnits="userSpaceOnUse" x="57" y="134" width="14" height="4"><path d="M57.219 134.111H70.02v3.042h-12.8z" fill="#fff"/></mask><g mask="url(#w)"><mask id="x" style="mask-type:luminance" maskUnits="userSpaceOnUse" x="37" y="18" width="96" height="142"><path d="M37.394 158.276 54.897 19.688c.093-.741.77-1.34 1.511-1.34h74.848c.741 0 1.266.599 1.172 1.34l-17.503 138.588c-.092.741-.769 1.341-1.509 1.341h-74.85c-.741 0-1.266-.6-1.172-1.341" fill="#fff"/></mask><g mask="url(#x)"><path d="m69.077 134.203-10.587-.084a1.12 1.12 0 0 0-1.102.996l-.094.93a.904.904 0 0 0 .906 1.012l10.586.083a1.125 1.125 0 0 0 1.104-.996l.092-.93a.902.902 0 0 0-.906-1.011" fill="#BFCCFB"/></g></g><mask id="y" style="mask-type:luminance" maskUnits="userSpaceOnUse" x="57" y="131" width="14" height="3"><path d="M57.492 131.04h12.713v2.089H57.492z" fill="#fff"/></mask><g mask="url(#y)"><mask id="z" style="mask-type:luminance" maskUnits="userSpaceOnUse" x="37" y="18" width="96" height="142"><path d="M37.394 158.276 54.897 19.688c.093-.741.77-1.34 1.511-1.34h74.848c.741 0 1.266.599 1.172 1.34l-17.503 138.588c-.092.741-.769 1.341-1.509 1.341h-74.85c-.741 0-1.266-.6-1.172-1.341" fill="#fff"/></mask><g mask="url(#z)"><path d="m69.297 131.153-10.678-.085a1.07 1.07 0 0 0-1.052.951.86.86 0 0 0 .863.965l10.678.085a1.07 1.07 0 0 0 1.054-.951.86.86 0 0 0-.865-.965" fill="#BFCCFB"/></g></g><mask id="A" style="mask-type:luminance" maskUnits="userSpaceOnUse" x="104" y="99" width="22" height="51"><path d="M104.492 99.23h21.486v50.356h-21.486z" fill="#fff"/></mask><g mask="url(#A)"><mask id="B" style="mask-type:luminance" maskUnits="userSpaceOnUse" x="37" y="18" width="96" height="142"><path d="M37.394 158.276 54.897 19.688c.093-.741.77-1.34 1.511-1.34h74.848c.741 0 1.266.599 1.172 1.34l-17.503 138.588c-.092.741-.769 1.341-1.509 1.341h-74.85c-.741 0-1.266-.6-1.172-1.341" fill="#fff"/></mask><g mask="url(#B)"><path d="m123.006 99.396-10.246-.08c-1.769-.016-3.349 1.4-3.54 3.168l-4.701 43.654c-.193 1.79 1.112 3.262 2.902 3.275l11.524.092c1.806.015 3.405-1.457 3.548-3.262l3.425-43.664c.139-1.755-1.157-3.17-2.912-3.183" fill="#6A6AF4"/></g></g><mask id="C" style="mask-type:luminance" maskUnits="userSpaceOnUse" x="107" y="138" width="14" height="9"><path d="M107.266 138.851h12.89v7.603h-12.89z" fill="#fff"/></mask><g mask="url(#C)"><mask id="D" style="mask-type:luminance" maskUnits="userSpaceOnUse" x="37" y="18" width="96" height="142"><path d="M37.394 158.276 54.897 19.688c.093-.741.77-1.34 1.511-1.34h74.848c.741 0 1.266.599 1.172 1.34l-17.503 138.588c-.092.741-.769 1.341-1.509 1.341h-74.85c-.741 0-1.266-.6-1.172-1.341" fill="#fff"/></mask><g mask="url(#D)"><path d="m117.681 138.928-7.252-.056c-1.476-.011-2.788 1.174-2.934 2.649l-.216 2.175c-.146 1.476.932 2.682 2.407 2.693l7.253.056c1.476.013 2.79-1.174 2.936-2.649l.214-2.175c.146-1.476-.932-2.68-2.408-2.693" fill="#BFCCFB"/></g></g><mask id="E" style="mask-type:luminance" maskUnits="userSpaceOnUse" x="108" y="133" width="14" height="4"><path d="M108.25 133.843h12.803v3.131H108.25z" fill="#fff"/></mask><g mask="url(#E)"><mask id="F" style="mask-type:luminance" maskUnits="userSpaceOnUse" x="37" y="18" width="96" height="142"><path d="M37.394 158.276 54.897 19.687c.093-.74.77-1.338 1.511-1.338h74.848c.741 0 1.266.598 1.172 1.338l-17.503 138.589c-.092.741-.769 1.341-1.509 1.341h-74.85c-.741 0-1.266-.6-1.172-1.341" fill="#fff"/></mask><g mask="url(#F)"><path d="m120.092 133.98-10.588-.084a1.125 1.125 0 0 0-1.103.997l-.091.928a.903.903 0 0 0 .903 1.013l10.587.084a1.123 1.123 0 0 0 1.104-.997l.092-.929a.902.902 0 0 0-.904-1.012" fill="#BFCCFB"/></g></g><mask id="G" style="mask-type:luminance" maskUnits="userSpaceOnUse" x="108" y="130" width="14" height="3"><path d="M108.516 130.802h12.71v2.057h-12.71z" fill="#fff"/></mask><g mask="url(#G)"><mask id="H" style="mask-type:luminance" maskUnits="userSpaceOnUse" x="37" y="18" width="96" height="142"><path d="M37.386 158.276 54.889 19.688c.094-.741.77-1.34 1.511-1.34h74.848c.741 0 1.266.599 1.172 1.34l-17.503 138.588c-.092.741-.769 1.341-1.509 1.341h-74.85c-.74 0-1.266-.6-1.172-1.341" fill="#fff"/></mask><g mask="url(#H)"><path d="m120.305 130.931-10.678-.086a1.07 1.07 0 0 0-1.052.951.86.86 0 0 0 .864.965l10.679.086a1.07 1.07 0 0 0 1.051-.95.86.86 0 0 0-.864-.966" fill="#BFCCFB"/></g></g><mask id="I" style="mask-type:luminance" maskUnits="userSpaceOnUse" x="72" y="99" width="18" height="51"><path d="M72.086 99.767H89.99v50.175H72.086z" fill="#fff"/></mask><g mask="url(#I)"><mask id="J" style="mask-type:luminance" maskUnits="userSpaceOnUse" x="37" y="18" width="96" height="142"><path d="M37.394 158.276 54.897 19.687c.093-.74.77-1.338 1.511-1.338h74.848c.741 0 1.266.598 1.172 1.338l-17.503 138.589c-.092.741-.769 1.341-1.509 1.341h-74.85c-.741 0-1.266-.6-1.172-1.341" fill="#fff"/></mask><g mask="url(#J)"><path d="M74.475 149.938h8.295c1.432 0 2.726-1.425 2.9-3.195l4.281-43.658c.176-1.79-.864-3.25-2.314-3.25H78.31c-1.46 0-2.773 1.482-2.908 3.288l-3.25 43.657c-.129 1.755.903 3.158 2.324 3.158" fill="#6A6AF4"/></g></g><mask id="K" style="mask-type:luminance" maskUnits="userSpaceOnUse" x="76" y="102" width="13" height="7"><path d="M76.914 102.808h11.37v5.276h-11.37z" fill="#fff"/></mask><g mask="url(#K)"><mask id="L" style="mask-type:luminance" maskUnits="userSpaceOnUse" x="37" y="18" width="96" height="142"><path d="M37.394 158.276 54.897 19.687c.093-.74.77-1.338 1.511-1.338h74.848c.741 0 1.266.598 1.172 1.338l-17.503 138.589c-.092.741-.769 1.341-1.509 1.341h-74.85c-.741 0-1.266-.6-1.172-1.341" fill="#fff"/></mask><g mask="url(#L)"><path d="M78.123 108.017h8.521c.681 0 1.281-.55 1.343-1.228l.244-2.685a1.105 1.105 0 0 0-1.118-1.23h-8.522c-.68 0-1.28.551-1.342 1.23l-.244 2.685a1.103 1.103 0 0 0 1.118 1.228" fill="#BFCCFB"/></g></g><mask id="M" style="mask-type:luminance" maskUnits="userSpaceOnUse" x="76" y="109" width="12" height="5"><path d="M76.383 109.785h11.19v3.846h-11.19z" fill="#fff"/></mask><g mask="url(#M)"><mask id="N" style="mask-type:luminance" maskUnits="userSpaceOnUse" x="37" y="18" width="96" height="142"><path d="M37.394 158.276 54.897 19.687c.093-.74.77-1.338 1.511-1.338h74.848c.741 0 1.266.598 1.172 1.338l-17.503 138.589c-.092.741-.769 1.341-1.509 1.341h-74.85c-.741 0-1.266-.6-1.172-1.341" fill="#fff"/></mask><g mask="url(#N)"><path d="M77.682 113.561h8.203c.769 0 1.445-.621 1.517-1.387l.082-.921a1.248 1.248 0 0 0-1.263-1.389h-8.202c-.769 0-1.447.622-1.517 1.389l-.082.921a1.246 1.246 0 0 0 1.262 1.387" fill="#BFCCFB"/></g></g><mask id="O" style="mask-type:luminance" maskUnits="userSpaceOnUse" x="74" y="22" width="8" height="11"><path d="M74.5 22.939h6.714v9.302H74.5z" fill="#fff"/></mask><g mask="url(#O)"><mask id="P" style="mask-type:luminance" maskUnits="userSpaceOnUse" x="37" y="18" width="96" height="142"><path d="M37.394 158.276 54.897 19.687c.093-.74.77-1.338 1.511-1.338h74.848c.741 0 1.266.598 1.172 1.338l-17.503 138.589c-.092.741-.769 1.341-1.509 1.341h-74.85c-.741 0-1.266-.6-1.172-1.341" fill="#fff"/></mask><g mask="url(#P)"><path d="M74.814 32.092c-.701-2.32-.137-5.347 1.07-8.728l2.035 2.063 3.281-2.46c-1.69 3.98-2.784 7.532-1.301 9.206z" fill="#fff"/></g></g><mask id="Q" style="mask-type:luminance" maskUnits="userSpaceOnUse" x="63" y="30" width="23" height="51"><path d="M63.938 30.094h21.665v50.175H63.938z" fill="#fff"/></mask><g mask="url(#Q)"><mask id="R" style="mask-type:luminance" maskUnits="userSpaceOnUse" x="37" y="18" width="96" height="142"><path d="M37.394 158.276 54.897 19.687c.093-.74.77-1.338 1.511-1.338h74.848c.741 0 1.266.598 1.172 1.338l-17.503 138.589c-.092.741-.769 1.341-1.509 1.341h-74.85c-.741 0-1.266-.6-1.172-1.341" fill="#fff"/></mask><g mask="url(#R)"><path d="M77.164 80.24H66.908c-1.77 0-3.08-1.424-2.936-3.194l3.577-43.656c.147-1.793 1.73-3.253 3.522-3.253H82.6c1.808 0 3.128 1.483 2.928 3.288l-4.853 43.658c-.193 1.755-1.755 3.157-3.512 3.157" fill="#6A6AF4"/></g></g><mask id="S" style="mask-type:luminance" maskUnits="userSpaceOnUse" x="66" y="68" width="14" height="3"><path d="M66.531 68.106h12.713v2.683H66.53z" fill="#fff"/></mask><g mask="url(#S)"><mask id="T" style="mask-type:luminance" maskUnits="userSpaceOnUse" x="37" y="18" width="96" height="142"><path d="M37.394 158.276 54.897 19.688c.093-.741.77-1.34 1.511-1.34h74.848c.741 0 1.266.599 1.172 1.34l-17.503 138.588c-.092.741-.769 1.341-1.509 1.341h-74.85c-.741 0-1.266-.6-1.172-1.341" fill="#fff"/></mask><g mask="url(#T)"><path d="M77.744 70.78h-9.93a1.2 1.2 0 0 1-1.215-1.337 1.493 1.493 0 0 1 1.457-1.335h9.932a1.2 1.2 0 0 1 1.215 1.335c-.067.737-.72 1.337-1.459 1.337" fill="#BFCCFB"/></g></g><mask id="U" style="mask-type:luminance" maskUnits="userSpaceOnUse" x="66" y="72" width="13" height="6"><path d="M66.172 72.13h12.8v5.278h-12.8z" fill="#fff"/></mask><g mask="url(#U)"><mask id="V" style="mask-type:luminance" maskUnits="userSpaceOnUse" x="37" y="18" width="96" height="142"><path d="M37.394 158.276 54.897 19.688c.093-.741.77-1.34 1.511-1.34h74.848c.741 0 1.266.599 1.172 1.34l-17.503 138.588c-.092.741-.769 1.341-1.509 1.341h-74.85c-.741 0-1.266-.6-1.172-1.341" fill="#fff"/></mask><g mask="url(#V)"><path d="M76.49 77.406h-8.366c-1.17 0-2.033-.947-1.928-2.117l.09-.994c.107-1.17 1.142-2.117 2.312-2.117h8.368c1.17 0 2.033.947 1.926 2.117l-.09.994c-.107 1.17-1.142 2.117-2.312 2.117" fill="#BFCCFB"/></g></g><mask id="W" style="mask-type:luminance" maskUnits="userSpaceOnUse" x="116" y="30" width="17" height="51"><path d="M116.125 30.094h16.352v50.175h-16.352z" fill="#fff"/></mask><g mask="url(#W)"><mask id="X" style="mask-type:luminance" maskUnits="userSpaceOnUse" x="37" y="18" width="96" height="142"><path d="M37.394 158.276 54.897 19.687c.093-.74.77-1.338 1.511-1.338h74.848c.741 0 1.266.598 1.172 1.338l-17.503 138.589c-.092.741-.769 1.341-1.509 1.341h-74.85c-.741 0-1.266-.6-1.172-1.341" fill="#fff"/></mask><g mask="url(#X)"><path d="M128.354 80.24h-9.495c-1.641 0-2.845-1.424-2.699-3.194l3.606-43.656c.146-1.793 1.622-3.253 3.281-3.253h10.678c1.675 0 2.886 1.483 2.689 3.288l-4.787 43.658c-.193 1.755-1.648 3.157-3.273 3.157" fill="#6A6AF4"/></g></g><mask id="Y" style="mask-type:luminance" maskUnits="userSpaceOnUse" x="119" y="65" width="12" height="5"><path d="M119.086 65.959h11.458v3.4h-11.458z" fill="#fff"/></mask><g mask="url(#Y)"><mask id="Z" style="mask-type:luminance" maskUnits="userSpaceOnUse" x="37" y="18" width="96" height="142"><path d="M37.394 158.276 54.897 19.687c.093-.74.77-1.338 1.511-1.338h74.848c.741 0 1.266.598 1.172 1.338l-17.503 138.589c-.092.741-.769 1.341-1.509 1.341h-74.85c-.741 0-1.266-.6-1.172-1.341" fill="#fff"/></mask><g mask="url(#Z)"><path d="M129.004 69.27h-8.61a1.2 1.2 0 0 1-1.216-1.335l.054-.608a1.496 1.496 0 0 1 1.459-1.337h8.612c.738 0 1.282.599 1.216 1.337l-.056.608a1.494 1.494 0 0 1-1.459 1.335" fill="#BFCCFB"/></g></g><mask id="aa" style="mask-type:luminance" maskUnits="userSpaceOnUse" x="118" y="70" width="13" height="8"><path d="M118.562 70.967h11.624v6.44h-11.624z" fill="#fff"/></mask><g mask="url(#aa)"><mask id="ab" style="mask-type:luminance" maskUnits="userSpaceOnUse" x="37" y="18" width="96" height="142"><path d="M37.394 158.276 54.897 19.687c.093-.74.77-1.338 1.511-1.338h74.848c.741 0 1.266.598 1.172 1.338l-17.503 138.589c-.092.741-.769 1.341-1.509 1.341h-74.85c-.741 0-1.266-.6-1.172-1.341" fill="#fff"/></mask><g mask="url(#ab)"><path d="M127.602 77.404h-7.05c-1.17 0-2.033-.947-1.926-2.115l.197-2.185c.107-1.168 1.142-2.117 2.312-2.117h7.048c1.17 0 2.033.95 1.928 2.117l-.199 2.185c-.107 1.168-1.142 2.115-2.31 2.115" fill="#BFCCFB"/></g></g><mask id="ac" style="mask-type:luminance" maskUnits="userSpaceOnUse" x="97" y="30" width="22" height="51"><path d="M97.242 30.24h21.664v50.209H97.242z" fill="#fff"/></mask><g mask="url(#ac)"><mask id="ad" style="mask-type:luminance" maskUnits="userSpaceOnUse" x="37" y="18" width="96" height="142"><path d="M37.394 158.276 54.897 19.687c.093-.74.77-1.338 1.511-1.338h74.848c.741 0 1.266.598 1.172 1.338l-17.503 138.589c-.092.741-.769 1.341-1.509 1.341h-74.85c-.741 0-1.266-.6-1.172-1.341" fill="#fff"/></mask><g mask="url(#ad)"><path d="M110.512 80.368h-10.254c-1.77 0-3.08-1.427-2.934-3.195l3.575-43.657c.147-1.793 1.727-3.253 3.522-3.253h11.531c1.807 0 3.129 1.483 2.929 3.288l-4.855 43.658c-.195 1.755-1.755 3.16-3.514 3.16" fill="#6A6AF4"/></g></g><mask id="ae" style="mask-type:luminance" maskUnits="userSpaceOnUse" x="102" y="33" width="14" height="8"><path d="M102.969 33.223h12.892v7.603h-12.892z" fill="#fff"/></mask><g mask="url(#ae)"><mask id="af" style="mask-type:luminance" maskUnits="userSpaceOnUse" x="37" y="18" width="96" height="142"><path d="M37.394 158.276 54.897 19.688c.093-.741.77-1.34 1.511-1.34h74.848c.741 0 1.266.599 1.172 1.34l-17.503 138.588c-.092.741-.769 1.341-1.509 1.341h-74.85c-.741 0-1.266-.6-1.172-1.341" fill="#fff"/></mask><g mask="url(#af)"><path d="M112.684 40.82h-7.258c-1.476 0-2.565-1.195-2.43-2.67l.197-2.174c.133-1.476 1.44-2.672 2.917-2.672h7.256c1.478 0 2.565 1.196 2.43 2.672l-.197 2.175c-.133 1.474-1.44 2.67-2.915 2.67" fill="#BFCCFB"/></g></g><mask id="ag" style="mask-type:luminance" maskUnits="userSpaceOnUse" x="102" y="42" width="14" height="4"><path d="M102.609 42.793h12.803v3.041h-12.803z" fill="#fff"/></mask><g mask="url(#ag)"><mask id="ah" style="mask-type:luminance" maskUnits="userSpaceOnUse" x="37" y="18" width="96" height="142"><path d="M37.394 158.276 54.897 19.688c.093-.741.77-1.34 1.511-1.34h74.848c.741 0 1.266.599 1.172 1.34l-17.503 138.588c-.092.741-.769 1.341-1.509 1.341h-74.85c-.741 0-1.266-.6-1.172-1.341" fill="#fff"/></mask><g mask="url(#ah)"><path d="M114.154 45.786h-10.596a.9.9 0 0 1-.913-1.003l.084-.93a1.12 1.12 0 0 1 1.095-1.003h10.596a.9.9 0 0 1 .913 1.003l-.084.93a1.12 1.12 0 0 1-1.095 1.003" fill="#BFCCFB"/></g></g><mask id="ai" style="mask-type:luminance" maskUnits="userSpaceOnUse" x="102" y="46" width="13" height="3"><path d="M102.164 46.909h12.711v1.967h-12.711z" fill="#fff"/></mask><g mask="url(#ai)"><mask id="aj" style="mask-type:luminance" maskUnits="userSpaceOnUse" x="37" y="18" width="96" height="142"><path d="M37.394 158.276 54.897 19.687c.093-.74.77-1.338 1.511-1.338h74.848c.741 0 1.266.598 1.172 1.338l-17.503 138.589c-.092.741-.769 1.341-1.509 1.341h-74.85c-.741 0-1.266-.6-1.172-1.341" fill="#fff"/></mask><g mask="url(#aj)"><path d="M113.798 48.836H103.11a.863.863 0 0 1-.872-.96 1.07 1.07 0 0 1 1.047-.956h10.687a.86.86 0 0 1 .872.956c-.049.53-.517.96-1.046.96" fill="#BFCCFB"/></g></g><mask id="ak" style="mask-type:luminance" maskUnits="userSpaceOnUse" x="82" y="30" width="19" height="51"><path d="M82.914 30.452h17.546v50.175H82.914z" fill="#fff"/></mask><g mask="url(#ak)"><mask id="al" style="mask-type:luminance" maskUnits="userSpaceOnUse" x="37" y="18" width="96" height="142"><path d="M37.394 158.276 54.897 19.688c.093-.741.77-1.34 1.511-1.34h74.848c.741 0 1.266.599 1.172 1.34l-17.503 138.588c-.092.741-.769 1.341-1.509 1.341h-74.85c-.741 0-1.266-.6-1.172-1.341" fill="#fff"/></mask><g mask="url(#al)"><path d="M93.145 80.623H85.21c-1.37 0-2.36-1.427-2.22-3.195l3.493-43.657c.144-1.793 1.391-3.253 2.779-3.253h8.925c1.398 0 2.396 1.483 2.21 3.29l-4.48 43.656c-.18 1.755-1.41 3.16-2.772 3.16" fill="#6A6AF4"/></g></g><mask id="am" style="mask-type:luminance" maskUnits="userSpaceOnUse" x="87" y="33" width="12" height="5"><path d="M87.75 33.491h10.744v3.936H87.75z" fill="#fff"/></mask><g mask="url(#am)"><mask id="an" style="mask-type:luminance" maskUnits="userSpaceOnUse" x="37" y="18" width="96" height="142"><path d="M37.394 158.276 54.897 19.687c.093-.74.77-1.338 1.511-1.338h74.848c.741 0 1.266.598 1.172 1.338l-17.503 138.589c-.092.741-.769 1.341-1.509 1.341h-74.85c-.741 0-1.266-.6-1.172-1.341" fill="#fff"/></mask><g mask="url(#an)"><path d="M97.048 37.421h-8.154c-.649 0-1.127-.55-1.069-1.228l.122-1.406c.058-.677.634-1.228 1.282-1.228h8.155c.65 0 1.129.55 1.07 1.228l-.123 1.406c-.056.679-.632 1.228-1.283 1.228" fill="#BFCCFB"/></g></g><mask id="ao" style="mask-type:luminance" maskUnits="userSpaceOnUse" x="87" y="38" width="12" height="4"><path d="M87.477 38.77H98.13v2.86H87.477z" fill="#fff"/></mask><g mask="url(#ao)"><mask id="ap" style="mask-type:luminance" maskUnits="userSpaceOnUse" x="37" y="18" width="96" height="142"><path d="M37.386 158.276 54.889 19.687c.094-.74.77-1.338 1.511-1.338h74.848c.741 0 1.266.598 1.172 1.338l-17.503 138.589c-.092.741-.769 1.341-1.509 1.341h-74.85c-.74 0-1.266-.6-1.172-1.341" fill="#fff"/></mask><g mask="url(#ap)"><path d="M96.618 41.586H88.77c-.735 0-1.275-.623-1.209-1.39s.716-1.387 1.451-1.387h7.85c.732 0 1.272.62 1.207 1.387-.066.767-.717 1.39-1.45 1.39" fill="#BFCCFB"/></g></g><mask id="aq" style="mask-type:luminance" maskUnits="userSpaceOnUse" x="49" y="30" width="19" height="51"><path d="M49.344 30.272H67.07v50.177H49.344z" fill="#fff"/></mask><g mask="url(#aq)"><mask id="ar" style="mask-type:luminance" maskUnits="userSpaceOnUse" x="37" y="18" width="96" height="142"><path d="M37.394 158.276 54.897 19.688c.093-.741.77-1.34 1.511-1.34h74.848c.741 0 1.266.599 1.172 1.34l-17.503 138.588c-.092.741-.769 1.341-1.509 1.341h-74.85c-.741 0-1.266-.6-1.172-1.341" fill="#fff"/></mask><g mask="url(#ar)"><path d="M59.627 80.4h-8.025c-1.386 0-2.387-1.425-2.245-3.193L52.89 33.55c.144-1.793 1.408-3.254 2.81-3.254h9.025c1.415 0 2.424 1.483 2.237 3.291L62.43 77.243c-.182 1.755-1.427 3.157-2.803 3.157" fill="#6A6AF4"/></g></g><mask id="as" style="mask-type:luminance" maskUnits="userSpaceOnUse" x="54" y="33" width="12" height="5"><path d="M54.242 33.313h10.77v3.936h-10.77z" fill="#fff"/></mask><g mask="url(#as)"><mask id="at" style="mask-type:luminance" maskUnits="userSpaceOnUse" x="37" y="18" width="96" height="142"><path d="M37.394 158.276 54.897 19.688c.093-.741.77-1.34 1.511-1.34h74.848c.741 0 1.266.599 1.172 1.34l-17.503 138.588c-.092.741-.769 1.341-1.509 1.341h-74.85c-.741 0-1.266-.6-1.172-1.341" fill="#fff"/></mask><g mask="url(#at)"><path d="M63.583 37.2h-8.246c-.658 0-1.142-.55-1.082-1.228l.124-1.404c.06-.681.641-1.23 1.297-1.23h8.246c.657 0 1.142.549 1.082 1.23l-.123 1.404c-.06.679-.642 1.228-1.298 1.228" fill="#BFCCFB"/></g></g><mask id="au" style="mask-type:luminance" maskUnits="userSpaceOnUse" x="53" y="38" width="12" height="4"><path d="M53.906 38.501h10.742v2.861H53.906z" fill="#fff"/></mask><g mask="url(#au)"><mask id="av" style="mask-type:luminance" maskUnits="userSpaceOnUse" x="37" y="18" width="96" height="142"><path d="M37.386 158.276 54.889 19.687c.094-.74.77-1.338 1.511-1.338h74.848c.741 0 1.266.598 1.172 1.338l-17.503 138.589c-.092.741-.769 1.341-1.509 1.341h-74.85c-.74 0-1.266-.6-1.172-1.341" fill="#fff"/></mask><g mask="url(#av)"><path d="M63.142 41.362h-7.937c-.743 0-1.29-.622-1.223-1.39.068-.766.724-1.387 1.466-1.387h7.937c.743 0 1.29.621 1.223 1.388-.068.767-.724 1.39-1.466 1.39" fill="#BFCCFB"/></g></g><path d="M159.758 74.6a.294.294 0 0 1-.18-.529l.453-.348c.418-.319.921-.97.925-.975a.295.295 0 0 1 .414-.052.29.29 0 0 1 .054.414c-.02.028-.553.714-1.033 1.082l-.455.349a.3.3 0 0 1-.178.06m-.775-.867a.29.29 0 0 1-.262-.159.3.3 0 0 1 .125-.4l.508-.262c.469-.244 1.075-.795 1.08-.8a.296.296 0 1 1 .4.434c-.026.025-.67.612-1.206.89l-.508.264a.3.3 0 0 1-.137.033" fill="#000"/><path d="M141.517 64.305c-1.395.18-8.974 1.712-9.617 10.245a.51.51 0 0 0 .257.48l4.384 2.522a.51.51 0 0 1 .256.461c-.048 1.558-.298 8.65-.961 11.629a141 141 0 0 0-1.047 5.162.51.51 0 0 0 .55.602c1.074-.1 3.202-.336 4.605-.767 1.76-.54 2.538-1.575 6.797.19a3.24 3.24 0 0 0 2.765-.132c2.331-1.232 7.187-3.42 10.534-2.316a.512.512 0 0 0 .664-.596c-.49-2.19-1.512-6.414-1.622-8.646-.135-2.786 1.47-12.073.724-13.044-.711-.923-3.842-3.045-5.957-3.626-.775-.212-1.59-.233-2.245-.396-1.638-.403-6.182-2.272-10.087-1.768" fill="#000"/><path d="M134.029 85.09c1.303 1.942 2.81 2.563 6.099 1.715 3.285-.846 10.256-5.831 13.701-10.579 0 0 .238-.437.911-.356.673.079 3.444 1.147 5.503-.673 2.061-1.819 1.567-3.126 1.466-3.371-.174-.418-3.247.116-4.078-.255-.832-.37-.823-.945-.199-1.795.745-1.012-.915-1.245-2.177.555-.768 1.093-2.058 2.531-3.228 3.122-1.208.611-13.483 5.025-14.119 4.828-.632-.197-4.62-2.602-4.62-2.602s-.681 7.292.741 9.41" fill="#fff"/><path d="M133.545 76.178c-.12 1.635-.414 7.042.729 8.745 1.142 1.708 2.404 2.467 5.779 1.597 3.287-.847 10.174-5.839 13.53-10.459.073-.112.418-.575 1.191-.485.12.015.283.052.487.099 1.026.24 3.162.737 4.787-.7 1.669-1.475 1.568-2.538 1.412-2.977-.231-.075-1.029-.043-1.569-.02-.938.035-1.907.073-2.382-.137-.435-.194-.701-.46-.789-.792-.105-.4.043-.862.474-1.447.126-.17.132-.268.126-.285-.006-.004-.064-.034-.195-.024-.381.03-1.035.363-1.627 1.207-.769 1.095-2.102 2.593-3.338 3.218-.735.37-12.774 4.856-14.239 4.858a.3.3 0 0 1-.099-.012c-.548-.17-3.206-1.745-4.277-2.386m4.118 11.293c-1.707 0-2.862-.7-3.88-2.219-1.462-2.18-.817-9.298-.789-9.601l.043-.47.405.245c1.567.947 4.044 2.394 4.534 2.567h.002c.933 0 12.47-4.073 13.916-4.802 1.136-.576 2.39-1.992 3.118-3.03.759-1.082 1.691-1.514 2.271-1.455.273.024.483.159.579.369.079.176.107.469-.191.876-.308.418-.435.737-.379.947.039.15.195.286.459.403.347.155 1.328.116 2.117.086 1.35-.055 1.952-.062 2.115.324.214.516.491 1.91-1.543 3.707-1.854 1.639-4.191 1.095-5.312.834a5 5 0 0 0-.424-.09c-.442-.052-.603.184-.62.21l-.015.027c-3.422 4.717-10.487 9.821-13.87 10.693-.969.25-1.803.379-2.536.379" fill="#000"/><path d="m159.588 75.662-.047.439-.272 2.518c-.281 2.218-.064 4.025-.064 4.025-.004.698.42 1.52.943 1.979.602.532.919.64 1.408.819 1.849.671 2.655.465 3.327-1.442.671-1.909.435-3.092-1.146-9.006 0 0-.433-1.194.789-1.996 1.088-.715.73-2.425-.273-3.722-1.6-2.068-4.952 6.11-4.665 6.386" fill="#fff"/><path d="m159.864 75.525.027.024-.336 3.103c-.274 2.162-.066 3.94-.064 3.959l.004.016v.02c-.004.573.358 1.329.844 1.754.551.486.828.587 1.29.756l.022.007c.962.35 1.545.417 1.95.225.392-.185.7-.645.996-1.488.639-1.815.431-2.9-1.148-8.82-.174-.493-.204-1.602.91-2.331q.416-.274.506-.806c.118-.703-.208-1.654-.853-2.488-.201-.26-.377-.244-.535-.186-1.406.499-3.506 5.392-3.613 6.255m3.218 10.562c-.431 0-.953-.12-1.631-.368l-.025-.007c-.491-.18-.845-.308-1.479-.866-.615-.542-1.041-1.439-1.045-2.185-.024-.206-.206-1.944.066-4.08l.311-2.876c-.033-.139.004-.343.107-.688.36-1.208 2.374-6.038 4.076-6.353.272-.052.672-.018 1.019.43.74.96 1.111 2.09.969 2.947-.086.516-.353.93-.767 1.204-1.016.666-.688 1.609-.673 1.65l.007.023c1.6 5.99 1.829 7.214 1.137 9.18-.353 1.003-.754 1.567-1.3 1.824-.23.11-.48.165-.772.165" fill="#000"/><path d="M160.685 71.786s-2.715.29-3.557-.37c-.623-.494.54-1.964.626-2.078.739-.97 2.456-3.231 2.713-3.552.233-.29.673-.982 1.253-.932.577.053 3.778.578 4.012.681.488.216.281.89-.075 1.266-.358.373-4.972 4.985-4.972 4.985" fill="#BFCCFB"/><path d="M138.059 94.352s-2.621 21.778-2.944 25.98c-.324 4.202-.81 18.905 0 26.177.523 4.71.885 7.862 1.077 9.497a1.504 1.504 0 0 0 1.494 1.329h5.344a.497.497 0 0 0 .498-.491c.025-1.962.199-9.433 1.452-15.831 1.455-7.431 3.073-19.065 3.881-23.752.27-1.564.497-3.302.69-5.005l.604 1.772c.605 1.776 2.912 13.736 3.558 18.422.589 4.264 1.579 21.36 1.754 24.416a.494.494 0 0 0 .496.469h6.842a.496.496 0 0 0 .495-.448c.319-3.169 2.192-22.318 1.896-30.9-.323-9.371-4.526-20.522-5.336-23.591-.808-3.072-1.894-10.857-1.894-10.857s-16.401.248-19.907 2.813" fill="#6A6AF4"/><path d="M149.557 111.96c.125 0 .238.081.281.201l.604 1.773c.609 1.782 2.912 13.697 3.572 18.475.585 4.243 1.565 21.103 1.755 24.44.005.105.093.19.202.19h6.842a.203.203 0 0 0 .201-.182c.369-3.664 2.188-22.367 1.895-30.861-.259-7.455-3.009-16.119-4.489-20.775-.378-1.188-.675-2.13-.84-2.75-.72-2.734-1.666-9.248-1.863-10.632-2.087.047-16.026.435-19.373 2.68-.219 1.82-2.621 21.857-2.929 25.835-.356 4.617-.783 19.073-.001 26.121.538 4.826.907 8.021 1.078 9.495a1.21 1.21 0 0 0 1.202 1.069h5.343c.111 0 .201-.09.203-.199.026-2.115.208-9.512 1.457-15.883.948-4.841 1.965-11.471 2.782-16.798.437-2.852.816-5.316 1.097-6.947.242-1.395.465-3.026.688-4.989a.3.3 0 0 1 .261-.261zm13.256 45.669h-6.842a.793.793 0 0 1-.793-.746c-.189-3.334-1.168-20.173-1.751-24.394-.64-4.633-2.959-16.648-3.544-18.365l-.186-.538a78 78 0 0 1-.536 3.725c-.281 1.628-.66 4.088-1.097 6.938-.817 5.332-1.837 11.968-2.788 16.822-1.237 6.323-1.419 13.673-1.446 15.775a.795.795 0 0 1-.793.783h-5.343a1.8 1.8 0 0 1-1.789-1.59c-.173-1.475-.542-4.67-1.078-9.498-.788-7.086-.358-21.598-.002-26.233.32-4.159 2.921-25.774 2.947-25.992a.3.3 0 0 1 .118-.202c3.542-2.592 19.405-2.86 20.078-2.87h.004c.15 0 .273.108.292.254.013.077 1.093 7.804 1.888 10.823.162.607.458 1.541.833 2.722 1.487 4.682 4.254 13.399 4.513 20.933.296 8.531-1.526 27.27-1.896 30.939a.79.79 0 0 1-.789.714" fill="#000"/><path d="m149.56 112.494-.034-.002a.294.294 0 0 1-.258-.326c.108-.973.215-2.006.315-3.077a5.67 5.67 0 0 1 3.66-4.757l1.181-.436a.296.296 0 1 1 .204.555l-1.181.436a5.08 5.08 0 0 0-3.276 4.259 162 162 0 0 1-.317 3.086.296.296 0 0 1-.294.262" fill="#000"/><path d="M161.307 157.333h-4.36a.76.76 0 0 0-.705.471c-.386.939-1.173 3.133-1.068 5.216a1.07 1.07 0 0 0 1.072 1.014h12.791a.93.93 0 0 0 .917-1.113c-.14-.69-.626-1.596-2.029-2.412-2.27-1.32-5.124-2.64-6.026-3.048a1.4 1.4 0 0 0-.592-.128" fill="#fff"/><path d="M156.947 157.627a.46.46 0 0 0-.433.289c-.349.848-1.151 3.041-1.046 5.089a.777.777 0 0 0 .776.733h12.791a.64.64 0 0 0 .499-.236.62.62 0 0 0 .129-.521c-.17-.831-.821-1.596-1.888-2.217-2.274-1.322-5.167-2.657-6-3.033a1.1 1.1 0 0 0-.47-.104zm12.088 6.702h-12.791a1.367 1.367 0 0 1-1.367-1.296c-.11-2.164.726-4.457 1.091-5.342.162-.397.546-.654.979-.654h4.358q.375 0 .716.155c.838.381 3.754 1.725 6.051 3.062 1.537.893 2.028 1.911 2.171 2.608.075.359-.019.728-.25 1.013a1.23 1.23 0 0 1-.958.454" fill="#000"/><path d="M161.897 160.487a.3.3 0 0 1-.212-.088.3.3 0 0 1 .004-.418l1.836-1.804a.295.295 0 1 1 .414.422l-1.835 1.802a.3.3 0 0 1-.207.086m1.187.739a.295.295 0 0 1-.206-.507l1.834-1.803a.295.295 0 1 1 .414.422l-1.833 1.803a.3.3 0 0 1-.209.085" fill="#000"/><path d="M142.071 157.333h-4.36a.76.76 0 0 0-.705.471c-.386.939-1.173 3.133-1.066 5.216a1.07 1.07 0 0 0 1.07 1.014h12.791a.93.93 0 0 0 .917-1.113c-.14-.689-.626-1.596-2.028-2.412-2.271-1.32-5.125-2.64-6.027-3.048a1.4 1.4 0 0 0-.592-.128" fill="#fff"/><path d="M137.711 157.627a.47.47 0 0 0-.431.289c-.349.848-1.15 3.041-1.047 5.089a.777.777 0 0 0 .779.733h12.789a.64.64 0 0 0 .499-.236.62.62 0 0 0 .129-.521c-.171-.831-.823-1.596-1.888-2.217-2.273-1.322-5.166-2.657-5.998-3.033a1.1 1.1 0 0 0-.471-.104zm12.09 6.702h-12.789c-.73 0-1.332-.568-1.369-1.296-.111-2.164.725-4.457 1.091-5.342.163-.397.548-.654.977-.654h4.361q.373 0 .715.155c.84.381 3.753 1.727 6.05 3.062 1.536.893 2.029 1.911 2.171 2.608.075.359-.016.728-.249 1.013a1.23 1.23 0 0 1-.958.454" fill="#000"/><path d="M142.171 160.329a.295.295 0 0 1-.208-.506l1.834-1.804a.296.296 0 0 1 .418.004.295.295 0 0 1-.004.418l-1.833 1.804a.3.3 0 0 1-.207.084m1.188.739a.296.296 0 0 1-.208-.506l1.834-1.804a.296.296 0 0 1 .416.422l-1.836 1.804a.3.3 0 0 1-.206.084m3.738-107.529q.143.047.305.125s.242.149.462.552.59 1.655 1.068 1.582c.478-.075 1.069-2.023 1.069-2.023s.184-.958 1.658-.589c1.471.368 2.611.992 3.054 1.251a2.08 2.08 0 0 0 1.288.294c.443-.037 1.879-.883 1.62-2.244-.257-1.361-1.509-2.288-2.614-2.282-1.149.008-2.797-.735-3.093-.881-.295-.148-2.027-.859-2.972-.332-.842.47-1.549 1.215-1.935 2.503-.246.821-.055 1.575-.03 1.823.011.097.026.189.12.22" fill="#000"/><path d="M154.898 54.574c.03.015.045.043.043.075-.015.225-.066 1.155.075 1.993.078.463.375 1.586.249 1.819-.124.23-.589.249-.802.23-.214-.017-.57.071-.66.25-.089.18-.357 1.837-.464 2.229-.106.392-.465.857-1.125.785a8 8 0 0 1-.523-.11.245.245 0 0 0-.298.2c-.319 2.016 1.718 4.283 2.209 4.802a.107.107 0 0 1-.036.171c-4.517 1.969-9.163-1.43-10.432-2.488-.056-.047 2.372-.703 3.532-3.493.512-1.228.34-3.137.358-3.896a.39.39 0 0 0-.219-.359c-.306-.138-.75-.607-.877-1.066-.184-.662-.113-2.774 1.64-1.926 0 0 .24.146.461.551s.589 1.654 1.067 1.58c.48-.072 1.069-2.022 1.069-2.022s.184-.957 1.658-.59c1.327.333 2.801 1.115 3.075 1.265" fill="#fff"/><path d="M143.681 64.594c1.584 1.23 5.565 3.804 9.517 2.255-.757-.843-2.405-2.934-2.102-4.848a.54.54 0 0 1 .658-.442c.385.09.473.1.488.102.606.064.778-.461.808-.568.041-.161.122-.58.197-.984.167-.887.227-1.181.287-1.3.163-.324.652-.435.949-.41.24.018.453-.03.511-.073.027-.19-.112-.848-.18-1.169-.039-.181-.075-.346-.095-.466-.126-.745-.105-1.55-.086-1.922-.449-.236-1.727-.881-2.888-1.172-.459-.114-.823-.098-1.056.05a.56.56 0 0 0-.238.308l-.007.03c-.295.971-.758 2.147-1.305 2.231-.593.09-.93-.71-1.204-1.355-.064-.15-.124-.295-.171-.38a1.4 1.4 0 0 0-.35-.434q-.62-.293-.917-.045c-.392.326-.396 1.252-.291 1.637.107.382.495.774.717.877a.67.67 0 0 1 .393.634c-.003.148 0 .341.004.566.019.955.049 2.395-.384 3.433-.643 1.545-1.737 2.702-3.255 3.445m6.935 3.326c-3.538 0-6.635-2.297-7.676-3.161l-.128-.107.025-.165c.022-.173.148-.227.304-.296 1.532-.67 2.625-1.769 3.249-3.269.384-.924.356-2.29.339-3.194-.003-.235-.009-.44-.003-.595a.09.09 0 0 0-.051-.082c-.381-.175-.885-.705-1.039-1.255-.144-.523-.153-1.72.482-2.248.27-.227.765-.416 1.573-.024l.027.013c.031.02.315.202.568.662.058.11.122.259.195.433.107.255.39.922.564.995.191-.127.572-.95.829-1.801.022-.094.125-.44.499-.677.375-.24.886-.282 1.515-.124 1.363.34 2.861 1.134 3.148 1.29.129.07.204.21.195.354-.012.178-.064 1.107.071 1.924.021.113.054.27.09.443.187.88.261 1.322.129 1.565-.232.433-.947.398-1.087.385-.135-.01-.323.048-.371.093-.047.137-.158.737-.235 1.139-.082.436-.159.847-.208 1.03-.154.56-.658 1.086-1.442 1-.03-.004-.114-.011-.506-.103-.244 1.813 1.573 3.898 2.139 4.498a.4.4 0 0 1-.129.645 7.6 7.6 0 0 1-3.066.632" fill="#000"/><path d="M151.571 62.108a.3.3 0 0 1-.085-.014 10 10 0 0 1-2.298-1.06.294.294 0 0 1-.085-.408.3.3 0 0 1 .411-.086 9 9 0 0 0 2.139.988.3.3 0 0 1 .201.368.3.3 0 0 1-.283.212" fill="#000"/><path d="M45.11 158.831s-.528 3.756.688 5.344l.37.671-6.145-.722.342-.654a7.7 7.7 0 0 0 .888-3.701z" fill="#6A6AF4"/><path d="m45.91 162.097.613.717a11.55 11.55 0 0 0 4.491 3.215l1.335.533c.128.05.221.161.25.294l.014.068c.167.755-.733 2.447-3.485 2.975-1.703.327-5.672.473-10.418-1.457a.735.735 0 0 1-.457-.746c.103-1.174.457-3.971 1.55-5.338a.327.327 0 0 1 .486-.034l1.335 1.313a1.52 1.52 0 0 0 2.15-.025l1.499-1.537a.43.43 0 0 1 .637.022" fill="#fff"/><path d="M40.07 162.527q-.01-.001-.027.017c-1.046 1.305-1.389 4.057-1.488 5.179a.44.44 0 0 0 .275.446c5.413 2.201 9.488 1.586 10.249 1.44 1.854-.356 2.659-1.208 2.972-1.684.27-.409.322-.752.281-.937l-.015-.068a.11.11 0 0 0-.071-.082l-1.333-.533a11.9 11.9 0 0 1-4.607-3.3l-.613-.716a.14.14 0 0 0-.098-.049.14.14 0 0 0-.103.041l-1.498 1.538a1.8 1.8 0 0 1-1.279.547c-.48.008-.943-.18-1.29-.519l-1.337-1.313a.03.03 0 0 0-.017-.007m6.659 7.86c-1.922 0-4.78-.311-8.123-1.671a1.03 1.03 0 0 1-.641-1.046c.103-1.176.467-4.063 1.614-5.496a.623.623 0 0 1 .923-.06l1.337 1.311c.232.229.538.353.87.349.326-.004.631-.133.86-.368l1.498-1.537a.74.74 0 0 1 .546-.22.74.74 0 0 1 .529.255l.613.719a11.3 11.3 0 0 0 4.376 3.133l1.333.532c.22.086.379.276.43.505l.015.067c.088.398-.045.904-.366 1.389-.364.555-1.286 1.544-3.352 1.939-.317.06-1.182.199-2.462.199" fill="#000"/><path d="M45.41 167.929h-.008a14.7 14.7 0 0 1-5.92-1.296l-1.042-.469c-.148-.065-.216-.24-.148-.39a.297.297 0 0 1 .392-.148l1.042.469a14.1 14.1 0 0 0 5.682 1.243.11.11 0 0 0 .093-.047.11.11 0 0 0 .017-.105l-.174-.536a.64.64 0 0 1 .185-.686.64.64 0 0 1 .705-.103l.52.242a6 6 0 0 0 4.682.135l.301-.119a.294.294 0 0 1 .383.165.3.3 0 0 1-.167.385l-.3.118a6.57 6.57 0 0 1-5.147-.15l-.521-.24c-.01-.004-.034-.017-.062.009-.03.025-.02.053-.017.06l.175.537a.71.71 0 0 1-.102.637.71.71 0 0 1-.57.289" fill="#000"/><path d="M18.018 151.506s-2.586 2.868-2.597 4.905l-.114.776-4.455-4.821.7-.213c1.135-.638 2.303-.975 3.025-2.057z" fill="#6A6AF4"/><path d="m16.34 155.475-.158.945a11.7 11.7 0 0 0 .43 5.599l.455 1.386a.42.42 0 0 1-.066.386l-.043.056c-.478.623-2.387 1.029-4.597-.769-1.369-1.112-4.078-4.104-5.676-9.056a.75.75 0 0 1 .281-.846c.985-.686 3.396-2.24 5.177-2.283a.33.33 0 0 1 .343.354l-.15 1.899a1.543 1.543 0 0 0 1.425 1.658l2.18.161a.44.44 0 0 1 .399.51" fill="#fff"/><path d="M12.15 151.189c-1.704.039-4.074 1.573-5.013 2.231a.45.45 0 0 0-.171.51c1.824 5.655 4.969 8.423 5.58 8.919 1.492 1.214 2.683 1.281 3.259 1.214.498-.059.8-.242.918-.396l.044-.056a.13.13 0 0 0 .02-.115l-.457-1.385a12.1 12.1 0 0 1-.44-5.74l.158-.945a.14.14 0 0 0-.03-.112.14.14 0 0 0-.1-.055l-2.178-.161a1.82 1.82 0 0 1-1.26-.635 1.83 1.83 0 0 1-.438-1.341l.15-1.898c0-.005 0-.015-.01-.022q-.006-.011-.032-.013m3.343 13.481c-.742 0-1.929-.232-3.32-1.363-.634-.514-3.895-3.383-5.77-9.195a1.034 1.034 0 0 1 .394-1.176c.983-.69 3.473-2.295 5.338-2.338a.63.63 0 0 1 .477.197.62.62 0 0 1 .168.476l-.148 1.898a1.24 1.24 0 0 0 1.151 1.34l2.177.16a.74.74 0 0 1 .672.855l-.16.945a11.46 11.46 0 0 0 .418 5.456l.458 1.386a.71.71 0 0 1-.113.66l-.043.056c-.251.326-.731.555-1.318.622a3 3 0 0 1-.38.021" fill="#000"/><path d="M16.867 163.192a.3.3 0 0 1-.14-.035l-.29-.156a6.68 6.68 0 0 1-3.247-4.1l-.152-.563q-.012-.039-.053-.047-.041-.005-.063.03l-.304.488a.717.717 0 0 1-1.157.077 14.9 14.9 0 0 1-2.86-5.453l-.316-1.117a.295.295 0 0 1 .568-.162l.317 1.118a14.3 14.3 0 0 0 2.747 5.237.12.12 0 0 0 .103.045.12.12 0 0 0 .096-.058l.303-.488a.65.65 0 0 1 .653-.302c.26.04.467.223.536.478l.154.563a6.1 6.1 0 0 0 2.957 3.735l.288.155a.3.3 0 0 1 .12.402.3.3 0 0 1-.26.153m18.293-58.37s-3.252 4.954-3.294 13.445c-.047 9.608-13.001 18.621-17.835 31.347a5.59 5.59 0 0 0 3.133 4.078l.045.02s13.01-5.231 18.094-13.346c2.933-4.68 6.786-14.327 6.786-14.327l-1.8-18.227-.426-.116c-1.104-.304-2.137-.757-3.14-1.292a3.7 3.7 0 0 1-1.562-1.582" fill="#000"/><path d="M36.5 106.403s-1.505 7.623 2.173 14.023c3.68 6.399 3.096 12.825 2.271 16.02s-2.942 12.793-.829 23.255c0 0 2.445 1.161 5.412.193 0 0 8.148-16.905 8.88-27.446.729-10.541-3.195-25.01-3.195-25.01s-8.976 2.34-14.712-1.035" fill="#000"/><path d="M75.755 71.033c-4.811 0-9.506-2.453-12.144-6.872-2.753-4.61-2.623-10.493.332-14.982a.294.294 0 0 1 .408-.084c.137.09.175.274.087.41-2.834 4.302-2.957 9.935-.32 14.354a13.43 13.43 0 0 0 8.3 6.174 13.45 13.45 0 0 0 10.24-1.496 13.4 13.4 0 0 0 4.452-4.301.295.295 0 0 1 .409-.088c.139.086.178.27.09.407a14 14 0 0 1-4.648 4.49 14.04 14.04 0 0 1-7.206 1.988m13.073-9.393a.296.296 0 0 1-.281-.39 13.4 13.4 0 0 0 .656-5.53.294.294 0 0 1 .268-.321.3.3 0 0 1 .323.268 14.1 14.1 0 0 1-.686 5.773.29.29 0 0 1-.28.2" fill="#fff"/><path d="M67.06 80.833a.943.943 0 0 0 1.247-.497l2.945-6.91-1.745-.76-2.946 6.909a.963.963 0 0 0 .499 1.258" fill="#000"/><path d="M61.153 60.246c-1.85-8.076 3.138-16.105 11.145-17.937 8.004-1.832 15.995 3.229 17.848 11.303 1.85 8.073-3.14 16.104-11.145 17.936-8.006 1.832-15.998-3.229-17.848-11.303m-2.202.502c2.132 9.3 11.337 15.13 20.558 13.02s14.968-11.36 12.836-20.66S81.01 37.98 71.79 40.088c-9.224 2.112-14.97 11.36-12.84 20.66" fill="#000"/><path d="M67.304 83.91c.218.075.91-.829 1.07-.988.638-.628 2.12-1.363 2.42-2.674.388-1.697-.351-3.52-.784-3.463s-.983 3.278-2.678 3.396c0 0-.382-.045-.34-1.635a.3.3 0 0 0-.432-.276c-.272.142-.619.444-.902 1.091-.364.827-.294 1.778-.236 2.35.037.377-.1 1.51.19 1.61z" fill="#fff"/><path d="m65.763 83.063 1.559.54c.165-.107.508-.507.643-.666.09-.103.16-.186.202-.227.182-.178.422-.36.675-.553.653-.499 1.466-1.118 1.661-1.974.312-1.36-.153-2.712-.438-3.044a8 8 0 0 0-.293.638c-.442 1.039-1.11 2.608-2.42 2.698l-.029.002-.028-.002c-.296-.036-.64-.4-.6-1.937-.208.103-.51.356-.768.943-.355.803-.255 1.782-.212 2.2.01.125.01.298.003.498-.003.24-.013.722.045.883m1.57 1.147a.4.4 0 0 1-.128-.022l-1.693-.587c-.409-.143-.397-.77-.384-1.435a4 4 0 0 0-.002-.425c-.073-.724-.11-1.66.259-2.498.264-.598.613-1.012 1.038-1.236a.58.58 0 0 1 .582.027.59.59 0 0 1 .28.52c-.022.864.09 1.201.145 1.317.88-.167 1.43-1.459 1.797-2.325.277-.654.43-1.012.744-1.053.12-.015.307.01.506.23.465.51.947 2.085.604 3.593-.244 1.065-1.151 1.755-1.88 2.31a7 7 0 0 0-.62.506 4 4 0 0 0-.166.19c-.518.601-.812.888-1.082.888" fill="#000"/><path d="m68.401 83.565-3.408-1.25c-1.34 2.39-2.777 4.443-4.38 5.73a14 14 0 0 1-3.034 1.852.92.92 0 0 1-1.238-.499c-.532-1.352-1.415-3.482-2.98-5.992-1.178-1.887-3.132-3.434-4.754-4.238-2.52-1.249-5.449-1.852-8.24-1.296-5.387 1.075-9.07 4.212-9.07 4.212-2.93 2.338-8.344 10.487-6.414 14.413 2.366 4.813 8.747 1.997 8.747 1.997s.13 2.223-1.2 5.295c-1.617 3.733-.029 4.698-.029 4.698 6.567 6.929 21.118.387 19.888-2.583-1.316-3.18-1.338-7.212-1.338-7.212 1.82 1.799 4.305 1.517 4.305 1.517s1.436-.108 2.428-.515C66.304 96.836 68.4 83.565 68.4 83.565" fill="#fff"/><path d="m33.902 98.051.027.426c.005.093.12 2.329-1.225 5.43-1.474 3.401-.16 4.32-.144 4.329l.034.021.026.028c4.804 5.068 13.742 2.674 17.46.266 1.453-.943 2.197-1.914 1.939-2.535-1.324-3.195-1.36-7.155-1.362-7.322l-.003-.714.508.502c1.699 1.68 4.04 1.437 4.063 1.433.024-.002 1.414-.11 2.35-.495l.018-.008c7.72-2.559 10.14-13.865 10.477-15.656l-2.941-1.078c-1.49 2.625-2.907 4.457-4.328 5.597a14.2 14.2 0 0 1-3.097 1.89 1.24 1.24 0 0 1-.968.019 1.2 1.2 0 0 1-.667-.677c-.599-1.52-1.476-3.57-2.957-5.944-1.22-1.957-3.193-3.416-4.633-4.13-2.669-1.323-5.526-1.773-8.052-1.27-5.25 1.046-8.9 4.116-8.936 4.146-2.844 2.268-8.177 10.322-6.34 14.057 2.215 4.507 8.301 1.884 8.363 1.858zm6.523 13.802c-3.009 0-6.014-.832-8.214-3.139-.264-.191-1.627-1.4-.05-5.042.956-2.208 1.141-3.978 1.173-4.747-1.498.532-6.611 1.976-8.715-2.299-2.038-4.144 3.645-12.5 6.495-14.775.146-.122 3.799-3.191 9.197-4.267 2.651-.53 5.646-.06 8.43 1.32 1.513.748 3.587 2.283 4.871 4.346 1.51 2.415 2.398 4.496 3.006 6.04a.63.63 0 0 0 .843.336 13.7 13.7 0 0 0 2.97-1.81c1.4-1.126 2.808-2.972 4.306-5.646l.124-.221 3.873 1.423-.037.24c-.006.034-.55 3.395-2.149 7.063-2.128 4.884-5.156 8.098-8.758 9.294-1.024.418-2.449.529-2.509.535-.088.009-2.197.23-4.007-1.144.07 1.269.326 4.101 1.292 6.431.384.928-.405 2.115-2.166 3.255-2.175 1.41-6.08 2.807-9.974 2.807" fill="#000"/><path d="M33.716 96.306a.295.295 0 0 1-.28-.197c-1.819-5.256-1-9.379-.964-9.551a.3.3 0 0 1 .351-.231c.16.034.263.191.229.349-.008.04-.818 4.145.943 9.238a.297.297 0 0 1-.184.377.3.3 0 0 1-.096.015m17.128 2.711a.3.3 0 0 1-.206-.084c-2.848-2.78-4.822-9.205-4.905-9.479a.297.297 0 0 1 .197-.369.3.3 0 0 1 .37.199c.018.064 2.011 6.553 4.75 9.225a.296.296 0 0 1-.206.508" fill="#000"/><path d="M43.45 65.852a3.08 3.08 0 0 1 2.637 1.534c.253.435.484.842.529.958.107.26.34 1.138 1.196 1.984a.233.233 0 0 1 .023.309l-.548.701a.2.2 0 0 0-.043.169c.066.375.392 1.73.294 1.974-.204.52-1.445.66-1.813.69a.2.2 0 0 0-.163.105c-.12.216-.435.83-.692 2.367-.393 2.341 1.84 2.705 1.384 2.934-3.172 1.601-9.017 1.237-8.677.572.279-.548 3.485-1.965 3.783-5.817.186-2.4-3.18-2.598-.753-7.168.562-1.06 1.783-1.316 2.842-1.312" fill="#fff"/><path d="M37.95 80.166c.866.332 5.077.532 7.863-.707-.511-.36-1.524-1.155-1.237-2.865.186-1.099.43-1.926.726-2.462a.5.5 0 0 1 .397-.255c.926-.077 1.487-.311 1.562-.504.03-.167-.154-1.047-.233-1.424-.033-.165-.063-.303-.078-.391a.5.5 0 0 1 .103-.404l.512-.654a4.95 4.95 0 0 1-1.18-1.927l-.045-.119c-.015-.039-.097-.206-.512-.92a2.79 2.79 0 0 0-2.383-1.386c-1.299-.01-2.169.383-2.58 1.155-1.455 2.741-.76 3.737-.026 4.79.437.63.89 1.281.814 2.264-.238 3.086-2.308 4.706-3.302 5.484-.142.11-.298.233-.401.325m2.392.85c-1.462 0-2.63-.192-2.942-.505a.42.42 0 0 1-.088-.497c.094-.186.312-.356.673-.64 1-.78 2.86-2.235 3.08-5.064.06-.77-.299-1.284-.712-1.879-.766-1.098-1.635-2.345-.01-5.403.513-.97 1.587-1.482 3.104-1.47a3.38 3.38 0 0 1 2.893 1.68c.48.826.531.948.55.995l.052.14a4.4 4.4 0 0 0 1.077 1.745c.19.189.211.49.046.7l-.525.674c.015.082.04.2.068.337.216 1.032.296 1.529.204 1.761-.243.619-1.348.812-2.017.872-.315.596-.52 1.537-.636 2.231-.238 1.421.576 1.99 1.061 2.329.227.16.405.283.389.512-.006.075-.042.215-.224.307-1.663.84-4.11 1.176-6.043 1.176" fill="#000"/><path d="m45.297 69.553 1.271-1.586a1.704 1.704 0 0 0-.478-2.539 8 8 0 0 0-.872-.44c-3.26-1.403-6.996.913-7 4.458-.001 1.451.97 3.135 3.034 4.63 0 0 1.452-1.142 1.433-2.38 0 0-1.052-1.247.431-1.879.283-.12.608-.11.885.027.447.217.986.1 1.296-.29" fill="#000"/><path d="M43.368 72.568c-.5 0-1.091-.232-1.513-1.03a.295.295 0 1 1 .523-.275c.545 1.03 1.36.653 1.451.608a.296.296 0 0 1 .274.523c-.18.095-.44.174-.735.174m-3.453-6.488s-1.1-3.804-5.117-3.09c-2.507.449-4.696 2.133-5.9 4.88-2.329 5.317-.221 10.376-4.015 14.992-.857 1.043-.157 2.627 1.191 2.674 2.55.088 5.989-.527 8.378-3.806 1.957-2.687.727-15.04 5.034-14.854zm-24.722 61.769a1.72 1.72 0 0 0-1.718 1.717c0 .947.77 1.718 1.718 1.718a1.72 1.72 0 0 0 1.72-1.718 1.72 1.72 0 0 0-1.72-1.717m0 4.025a2.31 2.31 0 0 1-2.31-2.308 2.312 2.312 0 0 1 4.622 0 2.31 2.31 0 0 1-2.312 2.308M45.357 16.455c-.949 0-1.72.77-1.72 1.717a1.719 1.719 0 0 0 3.44 0c0-.947-.773-1.717-1.72-1.717m0 4.027a2.313 2.313 0 0 1-2.31-2.31 2.313 2.313 0 0 1 2.31-2.308 2.313 2.313 0 0 1 2.31 2.308 2.313 2.313 0 0 1-2.31 2.31M17.608 133.611a.994.994 0 1 0 0 1.983.994.994 0 0 0 0-1.983m0 2.576a1.585 1.585 0 1 1 0-3.17 1.585 1.585 0 0 1 0 3.17m146.681-82.074a.994.994 0 1 0 .001 1.984.994.994 0 0 0-.001-1.984m0 2.576c-.873 0-1.586-.71-1.586-1.583s.713-1.584 1.586-1.584 1.585.71 1.585 1.584c0 .872-.711 1.583-1.585 1.583m-1.913-7.881a1.308 1.308 0 1 0 .002 2.615 1.308 1.308 0 0 0-.002-2.615m0 3.206a1.9 1.9 0 0 1-1.899-1.897 1.9 1.9 0 0 1 3.798 0 1.9 1.9 0 0 1-1.899 1.898M11.874 121.172a.294.294 0 0 1-.296-.294v-1.53a.296.296 0 1 1 .59 0v1.53a.293.293 0 0 1-.294.294m0 3.564a.296.296 0 0 1-.296-.296v-1.53c0-.163.131-.294.296-.294.163 0 .295.131.295.294v1.53a.295.295 0 0 1-.295.296m-1.024-2.546H9.318a.296.296 0 0 1 0-.593h1.532a.297.297 0 0 1 0 .593m3.57 0h-1.532a.295.295 0 0 1-.294-.296c0-.163.131-.297.294-.297h1.532a.297.297 0 0 1 0 .593M37.828 20.603a.297.297 0 0 1-.297-.297v-1.528a.297.297 0 0 1 .593 0v1.528a.297.297 0 0 1-.297.297m.001 3.562a.295.295 0 0 1-.297-.294v-1.53a.297.297 0 0 1 .593 0v1.53a.295.295 0 0 1-.297.294m-1.017-2.546h-1.53a.295.295 0 1 1 0-.59h1.53a.296.296 0 1 1 0 .59m3.565 0h-1.532a.295.295 0 1 1 0-.59h1.532a.295.295 0 0 1 0 .59M16.714 104.43a.3.3 0 0 1-.279-.201c-5.766-16.633-5.087-29.465-3.502-37.303 1.719-8.509 4.86-13.151 4.89-13.198a.3.3 0 0 1 .412-.077.3.3 0 0 1 .077.413c-.032.045-3.115 4.61-4.808 13.014-1.561 7.759-2.225 20.47 3.49 36.96a.293.293 0 0 1-.28.392" fill="#000"/><path d="M10.947 98.128a.296.296 0 0 1-.287-.227c-4.167-17.062-2.38-29.63-.149-37.168 2.427-8.188 5.9-12.397 5.933-12.439a.295.295 0 1 1 .454.38c-.034.04-3.44 4.179-5.83 12.262-2.203 7.462-3.963 19.908.165 36.827a.294.294 0 0 1-.217.356.3.3 0 0 1-.07.01M137.922 47.25h17.844c.58 0 1.107-.47 1.176-1.05l2.964-24.53c.072-.58-.245-1.323-1.177-1.323l-17.588.274z" fill="#000"/><path d="M138.256 46.956h17.508c.428 0 .831-.362.882-.792l2.966-24.528a.95.95 0 0 0-.206-.73q-.236-.262-.679-.264l-17.323.27zm17.508.588h-17.842a.294.294 0 0 1-.295-.33l3.218-26.628a.3.3 0 0 1 .291-.26l17.587-.273c.593-.002.938.25 1.127.462.272.307.401.751.349 1.19l-2.965 24.53c-.088.723-.746 1.31-1.47 1.31" fill="#000"/><path d="M121.102 47.25h16.806l3.219-26.629h-16.806c-.579 0-1.106.47-1.175 1.049l-2.967 24.53c-.069.58.344 1.05.923 1.05" fill="#000"/><path d="M124.322 20.916c-.428 0-.833.361-.885.789l-2.965 24.53a.64.64 0 0 0 .148.514.64.64 0 0 0 .482.205h16.543l3.147-26.038zm13.584 26.628h-16.804a1.21 1.21 0 0 1-.924-.403 1.22 1.22 0 0 1-.293-.977l2.965-24.53c.086-.722.748-1.309 1.472-1.309h16.803a.296.296 0 0 1 .295.332l-3.22 26.629a.295.295 0 0 1-.294.258" fill="#000"/><path d="M137.664 46.976h17.841c.581 0 1.108-.469 1.177-1.05l2.965-24.529c.071-.58-.342-1.05-.923-1.05h-17.842z" fill="#BFCCFB"/><path d="M137.997 46.68h17.507c.429 0 .833-.36.885-.79l2.966-24.53a.64.64 0 0 0-.15-.512.62.62 0 0 0-.48-.206h-17.58zm17.507.593h-17.841a.3.3 0 0 1-.221-.102.3.3 0 0 1-.073-.23l3.219-26.63a.3.3 0 0 1 .295-.26h17.842c.364 0 .692.145.923.403.234.265.337.612.292.977l-2.964 24.53c-.088.723-.746 1.312-1.472 1.312" fill="#000"/><path d="M120.457 46.976h17.134l3.281-26.629h-17.134c-.59 0-1.127.47-1.2 1.05l-3.022 24.53c-.072.578.35 1.05.941 1.05" fill="#BFCCFB"/><path d="M123.738 20.642c-.439 0-.854.364-.906.791l-3.024 24.53a.63.63 0 0 0 .148.507c.12.135.298.21.5.21h16.87l3.21-26.038zm13.85 26.63h-17.132c-.375 0-.71-.146-.945-.41a1.23 1.23 0 0 1-.29-.971l3.022-24.529c.09-.722.76-1.309 1.495-1.309h17.131a.3.3 0 0 1 .224.1c.054.063.08.148.071.23l-3.281 26.629a.3.3 0 0 1-.295.26" fill="#000"/><path d="M138.337 45.926h16.965l.048-2.503-1.713-.76-13.193.479zm17.253.59h-17.848a.3.3 0 0 1-.266-.162.3.3 0 0 1 .028-.311l2.552-3.37a.29.29 0 0 1 .225-.116l13.404-.486a.3.3 0 0 1 .132.025l1.953.868a.29.29 0 0 1 .175.275l-.058 2.99a.295.295 0 0 1-.297.288" fill="#fff"/><path d="m158.454 17.528.345 2.146-3.208 26.547-.357-2.065z" fill="#BFCCFB"/><path d="m155.532 44.149.006.034 2.962-24.501-.005-.036zm.058 2.368a.296.296 0 0 1-.292-.244l-.357-2.066a.3.3 0 0 1-.001-.084l3.219-26.631a.294.294 0 0 1 .289-.259.3.3 0 0 1 .296.248l.347 2.147q.005.043 0 .082l-3.208 26.546a.295.295 0 0 1-.287.26z" fill="#fff"/><path d="M137.75 46.22c1.284-1.31 3.021-2.064 4.751-2.064h12.735l3.22-26.628h-12.737c-1.729 0-3.463.753-4.751 2.064z" fill="#fff"/><path d="M139.641 43.241a8 8 0 0 1 3.045-.615h11.205l2.85-23.57h-11.205c-1.107 0-2.215.414-3.111 1.15z" fill="#DEE5FD"/><path d="M137.828 45.9q-.019 0-.036-.002a.295.295 0 0 1-.259-.328l3.145-26.014a.3.3 0 0 1 .082-.17c1.343-1.37 3.152-2.155 4.963-2.155h12.735a.294.294 0 0 1 .293.332l-3.218 26.629a.296.296 0 0 1-.294.26h-1.817a.297.297 0 0 1 0-.592h1.556l3.147-26.038h-12.402c-1.622 0-3.245.694-4.47 1.905l-3.133 25.912a.29.29 0 0 1-.292.261" fill="#000"/><path d="M121.36 45.924h15.95l-8.415-21.556-7.833 19.82zm16.384.593h-16.632a.295.295 0 0 1-.292-.246l-.355-2.066a.3.3 0 0 1 .015-.157l8.142-20.597a.296.296 0 0 1 .551.002l8.846 22.66a.3.3 0 0 1-.032.275.3.3 0 0 1-.243.129" fill="#fff"/><path d="M137.739 46.22c-.969-1.31-2.521-2.064-4.252-2.064H120.75l3.221-26.628h12.735c1.729 0 3.283.753 4.251 2.064z" fill="#fff"/><path d="M139.353 20.207c-.718-.737-1.723-1.151-2.831-1.151h-11.203l-2.85 23.57h11.205a6.95 6.95 0 0 1 2.895.615z" fill="#DEE5FD"/><path d="m138.033 44.102-.035-.002a.293.293 0 0 1-.257-.328l2.912-24.098c-.917-1.179-2.348-1.852-3.944-1.852h-12.472l-3.101 25.922a.293.293 0 0 1-.328.257.295.295 0 0 1-.259-.329l3.131-26.18a.296.296 0 0 1 .294-.26h12.735c1.827 0 3.464.796 4.489 2.184a.3.3 0 0 1 .056.212l-2.926 24.215a.295.295 0 0 1-.295.259" fill="#000"/><path d="M144.466 27.797h9.377a.34.34 0 0 0 .341-.341v-.08a.34.34 0 0 0-.341-.344h-9.377a.343.343 0 0 0-.341.343v.08c0 .188.154.342.341.342m-1.914-1.747h9.377a.34.34 0 0 0 .341-.342v-.082a.34.34 0 0 0-.341-.342h-9.377a.343.343 0 0 0-.341.342v.082c0 .188.154.341.341.341m-.328 3.443h9.379a.343.343 0 0 0 .341-.341v-.083a.343.343 0 0 0-.341-.341h-9.379a.343.343 0 0 0-.341.341v.083c0 .187.155.34.341.34m1.859 1.639h9.377a.345.345 0 0 0 .343-.342v-.081a.34.34 0 0 0-.343-.341h-9.377a.34.34 0 0 0-.341.341v.08c0 .188.152.344.341.344m-16.351-7.757h8.593a.344.344 0 0 0 .343-.343v-.083a.343.343 0 0 0-.343-.34h-8.593a.34.34 0 0 0-.341.34v.082c0 .19.153.344.341.344m-1.295 1.693h8.428a.345.345 0 0 0 .345-.341v-.083a.345.345 0 0 0-.345-.341h-8.428a.344.344 0 0 0-.343.341v.082c0 .188.155.342.343.342m-.877 1.639h10.361a.34.34 0 0 0 .341-.342v-.082a.34.34 0 0 0-.341-.341H125.56a.343.343 0 0 0-.341.34v.083c0 .188.154.342.341.342" fill="#BFCCFB"/></svg>
