<?xml version="1.0" encoding="UTF-8" standalone="no"?>
<svg
   width="404"
   height="430.07404"
   viewBox="0 0 404 430.07404"
   fill="none"
   version="1.1"
   id="svg106"
   sodipodi:docname="france-numerique-ensemble.svg"
   inkscape:version="1.1.2 (0a00cf5339, 2022-02-04)"
   xmlns:inkscape="http://www.inkscape.org/namespaces/inkscape"
   xmlns:sodipodi="http://sodipodi.sourceforge.net/DTD/sodipodi-0.dtd"
   xmlns="http://www.w3.org/2000/svg"
   xmlns:svg="http://www.w3.org/2000/svg">
  <defs
     id="defs110" />
  <sodipodi:namedview
     id="namedview108"
     pagecolor="#ffffff"
     bordercolor="#000000"
     borderopacity="0.25"
     inkscape:pageshadow="2"
     inkscape:pageopacity="0.0"
     inkscape:pagecheckerboard="0"
     showgrid="false"
     fit-margin-top="0"
     fit-margin-left="0"
     fit-margin-right="0"
     fit-margin-bottom="0"
     inkscape:zoom="1.2486111"
     inkscape:cx="145.36151"
     inkscape:cy="255.48387"
     inkscape:window-width="2560"
     inkscape:window-height="1363"
     inkscape:window-x="0"
     inkscape:window-y="0"
     inkscape:window-maximized="1"
     inkscape:current-layer="svg106" />
  <mask
     id="a"
     maskUnits="userSpaceOnUse"
     x="157.492"
     y="148.274"
     width="16"
     height="31"
     fill="#000000">
    <path
       fill="#ffffff"
       d="m 157.492,148.274 h 16 v 31 h -16 z"
       id="path2" />
    <path
       fill-rule="evenodd"
       clip-rule="evenodd"
       d="m 160.43,168.447 h -0.235 v -0.233 h -0.234 v -0.233 h 0.469 -0.235 0.704 v -0.233 h 0.234 a 0.235,0.235 0 0 0 -0.234,-0.233 v -0.233 l 0.234,-0.233 h 0.469 v -0.233 h 0.234 -0.234 0.234 a 0.234,0.234 0 0 0 0.235,-0.233 h -0.235 0.235 l -0.235,-0.233 h -0.234 v -0.233 h -0.235 c 0,-0.128 0.106,-0.233 0.235,-0.233 l -0.235,-0.233 h -0.468 v 0.233 -0.233 a 0.235,0.235 0 0 0 -0.235,-0.233 h -0.234 v -0.233 h -0.235 v 0.233 -0.233 l -0.234,0.233 v -0.233 0.233 -0.233 0.233 -0.233 l 0.068,-0.067 a 0.097,0.097 0 0 0 -0.068,-0.166 h -0.234 0.234 v -0.466 0.233 -0.233 0.233 h -0.234 v -0.233 h 0.234 v -0.466 h -0.234 v -0.233 0.233 -0.233 0.233 h 0.234 v -0.233 h -0.234 v -0.233 h -0.235 0.235 l 0.234,-0.233 h 0.469 v -0.233 0.233 h 0.234 v -0.233 h 0.703 v -0.232 l -0.234,-0.233 v 0.233 -0.233 0.233 -0.301 a 0.069,0.069 0 0 0 -0.117,-0.049 0.069,0.069 0 0 1 -0.117,-0.049 v -0.067 h -0.469 v -0.233 0.233 h -0.235 v -0.466 h 0.235 v -0.233 h -0.235 v -0.233 h -0.234 v 0.233 h -0.234 0.234 -0.234 v 0.233 h -0.235 v -0.233 h 0.235 -0.235 v -0.233 0.233 -0.233 h 0.235 -0.235 0.235 -0.235 0.235 -0.235 0.235 -0.235 v -0.233 0.233 -0.466 0.233 h 0.469 v -0.233 h -0.234 0.468 v -0.466 h 0.235 v -0.233 0.233 -0.233 l 0.234,0.233 h 0.235 v -0.233 0.233 -0.466 h -0.235 0.235 -0.235 0.235 l 0.234,-0.233 h -0.234 0.234 -0.234 0.234 v -0.466 h -0.234 v 0.115 a 0.12,0.12 0 0 1 -0.118,0.118 0.1165,0.1165 0 1 1 0,-0.233 h 0.118 v -0.466 l 0.234,-0.233 v 0.233 -0.233 h 0.469 v -0.233 0.233 -0.932 h 0.234 -0.234 0.234 v 0.233 h 0.469 -0.234 c 0,0.128 0.105,0.233 0.234,0.233 l 0.234,-0.233 h 0.235 v -0.233 h -0.235 0.235 v -0.466 h 0.703 l 0.234,-0.233 h -0.234 0.234 v -0.233 h 1.172 c 0,-0.086 0.104,-0.13 0.166,-0.069 l 0.069,0.069 v -0.233 0.233 -0.233 0.233 -0.233 h 0.234 v 0.233 -0.233 h 0.235 v -0.233 0.233 l 0.234,-0.233 h 0.234 -0.234 v -0.699 l 0.234,0.233 v -0.233 h 0.235 V 155.4 h 0.234 v -0.233 h 1.641 v 0.233 h 0.234 v 0.233 h 0.235 v 0.466 h 0.234 v -0.233 h 0.235 V 155.4 h 0.234 v -0.233 h 0.234 v -0.233 l -0.234,-0.233 v -0.466 a 0.234,0.234 0 0 0 0.234,-0.233 h -0.234 v -0.233 a 0.234,0.234 0 0 1 -0.234,-0.233 v -0.466 h 0.234 v -0.699 h -0.234 0.234 v -0.233 h 0.234 v -0.233 h 0.235 -0.235 v -0.932 h -0.234 0.234 v -0.233 h -0.234 0.234 -0.234 l 0.234,-0.233 h 0.704 l 0.234,-0.233 v 0.233 h 0.234 v 0.233 h 0.235 v 0.233 h -0.235 0.235 v 0.233 h -0.235 0.235 v 0.932 l 0.234,0.233 h -0.234 0.234 -0.234 0.234 v 0.233 h -0.234 l 0.234,0.233 v 0.932 h 0.235 v 0.233 h -0.235 v 0.466 h -0.234 v 1.165 h -0.235 0.235 -0.235 v 0.233 -0.233 0.815 c 0,0.064 0.053,0.117 0.118,0.117 0.064,0 0.117,0.052 0.117,0.117 v 0.116 l 0.234,0.233 v 0.233 h 0.235 v 0.233 c 0.128,0 0.234,0.104 0.234,0.233 v 0.233 l 0.234,0.233 v 3.961 h 0.235 v 3.494 l -0.235,0.233 a 0.233,0.233 0 0 1 -0.234,0.233 v 0.233 l -0.234,0.233 a 0.234,0.234 0 0 1 -0.235,0.233 v 0.233 a 0.234,0.234 0 0 0 -0.234,0.233 0.234,0.234 0 0 1 -0.235,0.233 v 0.233 h -0.234 v 0.233 l -0.234,0.233 v 1.165 l -0.235,0.233 c 0.129,0 0.235,0.105 0.235,0.233 v 0.932 h -0.235 0.235 -0.235 v 0.233 h 0.235 -0.235 0.235 v 0.233 h -0.235 0.235 v 1.398 h -0.235 a 0.233,0.233 0 0 0 -0.234,0.233 c 0,0.086 0.104,0.13 0.165,0.069 l 0.069,-0.069 v 0.466 -0.233 0.233 h -0.234 v 0.233 h -0.235 v 0.233 h -0.468 0.234 -0.234 v -0.233 0.233 h -0.235 0.235 -0.235 0.235 -0.235 v 0.233 h -0.234 l 0.234,0.233 h -0.234 0.234 v 0.233 -0.233 h 0.235 v -0.233 h 0.234 v 0.233 h 0.469 -0.235 v 0.466 h -0.234 a 0.234,0.234 0 0 1 -0.234,0.233 v 0.233 -0.233 h -0.235 v 0.233 c 0,0.086 -0.104,0.13 -0.165,0.069 l -0.069,-0.069 v 0.233 -0.233 0.699 h 0.234 -0.234 0.234 -0.234 v 0.233 h 0.234 -0.234 v 0.233 h -0.235 0.235 -0.235 v 0.233 h -0.234 v 0.233 h -0.234 v 0.466 h -0.235 0.469 v -0.233 h 0.234 v 0.233 l -0.234,0.233 v 0.233 h -0.234 V 178 h -0.469 v -0.233 h -0.235 0.235 -0.469 0.234 v -0.233 0.233 -0.233 l -0.234,0.233 v -0.233 0.233 -0.233 h -0.234 0.234 -0.703 v -0.233 h 0.234 v -0.466 h 0.235 -0.235 v -0.233 0.233 h -0.234 v -0.233 0.233 h -0.235 v -0.699 0.233 h -0.234 v 0.233 -0.233 0.233 h -0.234 v -0.233 h -0.235 0.235 -0.235 v -0.233 h -0.703 v -0.233 h -0.469 v -0.233 h -0.469 v -0.233 h -0.468 v -0.233 h 0.234 -0.234 v -0.233 0.233 -0.233 h -0.704 v -0.233 l 0.235,-0.233 h -0.235 v -0.233 0.233 -0.233 0.233 -0.233 h -0.234 0.234 v -0.699 h 0.704 v -0.233 h 0.468 v -0.466 h 0.469 v -0.233 h -0.937 a 0.234,0.234 0 0 0 -0.235,-0.233 l -0.234,-0.233 v 0.233 h -0.469 v -0.233 0.233 -0.233 a 0.097,0.097 0 0 0 0.068,-0.165 l -0.068,-0.068 h 0.234 -0.234 v -0.233 0.233 h -0.469 l -0.234,0.233 h -0.235 v -0.233 h 0.235 -0.235 v -0.233 h -0.468 v 0.233 -0.233 h 0.468 v -0.233 h 0.235 v -0.233 h 0.234 v -0.233 h -0.234 v -0.233 h 0.469 v -0.233 0.233 -0.233 0.233 l 0.234,-0.233 v 0.233 -0.466 h 0.234 -0.234 v -0.233 h -0.234 0.468 v -0.699 h -0.234 0.469 v -0.233 h -0.235 v -0.233 a 0.234,0.234 0 0 0 -0.234,-0.233 v 0.233 l -0.234,-0.233 0.234,0.233 v -0.233 h -0.469 v 0.233 h -0.703 v 0.233 h -0.234 v -0.233 h -0.235 l -0.234,0.233 h -0.235 0.235 l -0.235,-0.233 v 0.233 -0.233 h 0.235 z"
       id="path4" />
  </mask>
  <path
     fill-rule="evenodd"
     clip-rule="evenodd"
     d="m 372.51481,403.8477 h -0.57056 v -0.5657 h -0.56813 v -0.5657 h 1.13869 -0.57056 1.70926 v -0.56571 h 0.56813 a 0.57055974,0.57055974 0 0 0 -0.56813,-0.5657 v -0.56571 l 0.56813,-0.5657 h 1.13869 v -0.5657 h 0.56813 -0.56813 0.56813 a 0.56813183,0.56813183 0 0 0 0.57056,-0.56571 h -0.57056 0.57056 l -0.57056,-0.5657 h -0.56813 v -0.56571 h -0.57056 c 0,-0.31077 0.25736,-0.5657 0.57056,-0.5657 l -0.57056,-0.5657 h -1.13626 v 0.5657 -0.5657 a 0.57055974,0.57055974 0 0 0 -0.57056,-0.56571 h -0.56814 v -0.5657 h -0.57056 v 0.5657 -0.5657 l -0.56813,0.5657 v -0.5657 0.5657 -0.5657 0.5657 -0.5657 l 0.1651,-0.16267 a 0.23550764,0.23550764 0 0 0 -0.1651,-0.40304 h -0.56813 0.56813 v -1.1314 0.5657 -0.5657 0.5657 h -0.56813 v -0.5657 h 0.56813 v -1.13141 h -0.56813 v -0.56571 0.56571 -0.56571 0.56571 h 0.56813 v -0.56571 h -0.56813 v -0.5657 h -0.57056 0.57056 l 0.56813,-0.5657 h 1.13869 v -0.56571 0.56571 h 0.56814 v -0.56571 h 1.70682 v -0.56327 l -0.56813,-0.56571 v 0.56571 -0.56571 0.56571 -0.73081 a 0.16752605,0.16752605 0 0 0 -0.28407,-0.11896 0.16752605,0.16752605 0 0 1 -0.28406,-0.11897 v -0.16267 h -1.1387 v -0.5657 0.5657 h -0.57056 v -1.13141 h 0.57056 v -0.5657 h -0.57056 v -0.56571 h -0.56813 v 0.56571 h -0.56813 0.56813 -0.56813 v 0.5657 h -0.57056 v -0.5657 h 0.57056 -0.57056 v -0.56571 0.56571 -0.56571 h 0.57056 -0.57056 0.57056 -0.57056 0.57056 -0.57056 0.57056 -0.57056 v -0.5657 0.5657 -1.1314 0.5657 h 1.13869 v -0.5657 h -0.56813 1.13626 v -1.13141 h 0.57056 v -0.56571 0.56571 -0.56571 l 0.56814,0.56571 h 0.57056 v -0.56571 0.56571 -1.13141 h -0.57056 0.57056 -0.57056 0.57056 l 0.56813,-0.5657 h -0.56813 0.56813 -0.56813 0.56813 v -1.13141 h -0.56813 v 0.27921 a 0.29134966,0.29134966 0 0 1 -0.2865,0.28649 0.28285196,0.28285196 0 1 1 0,-0.5657 h 0.2865 v -1.13141 l 0.56813,-0.5657 v 0.5657 -0.5657 h 1.13869 v -0.56571 0.56571 -2.26282 h 0.56813 -0.56813 0.56813 v 0.5657 h 1.13869 -0.56813 c 0,0.31078 0.25493,0.56571 0.56813,0.56571 l 0.56813,-0.56571 h 0.57056 v -0.5657 h -0.57056 0.57056 v -1.13141 h 1.70683 l 0.56813,-0.5657 h -0.56813 0.56813 v -0.5657 h 2.84551 c 0,-0.20881 0.25251,-0.31563 0.40304,-0.16753 l 0.16752,0.16753 v -0.56571 0.56571 -0.56571 0.56571 -0.56571 h 0.56814 v 0.56571 -0.56571 h 0.57056 v -0.5657 0.5657 l 0.56813,-0.5657 h 0.56813 -0.56813 v -1.69711 l 0.56813,0.5657 v -0.5657 h 0.57056 v -0.56571 h 0.56813 v -0.5657 h 3.98421 v 0.5657 h 0.56813 v 0.56571 h 0.57056 v 1.1314 h 0.56813 v -0.5657 h 0.57056 v -1.13141 h 0.56813 v -0.5657 h 0.56813 v -0.56571 l -0.56813,-0.5657 v -1.13141 a 0.56813183,0.56813183 0 0 0 0.56813,-0.5657 h -0.56813 v -0.56571 a 0.56813183,0.56813183 0 0 1 -0.56813,-0.5657 v -1.13141 h 0.56813 v -1.69711 h -0.56813 0.56813 v -0.5657 h 0.56813 v -0.56571 h 0.57056 -0.57056 v -2.26281 h -0.56813 0.56813 v -0.56571 h -0.56813 0.56813 -0.56813 l 0.56813,-0.5657 h 1.70926 l 0.56813,-0.5657 v 0.5657 h 0.56813 v 0.5657 h 0.57056 v 0.56571 h -0.57056 0.57056 v 0.5657 h -0.57056 0.57056 v 2.26282 l 0.56813,0.5657 h -0.56813 0.56813 -0.56813 0.56813 v 0.5657 h -0.56813 l 0.56813,0.56571 v 2.26281 h 0.57056 v 0.56571 h -0.57056 v 1.13141 h -0.56813 v 2.82852 h -0.57056 0.57056 -0.57056 v 0.5657 -0.5657 1.97875 c 0,0.15538 0.12868,0.28406 0.28649,0.28406 0.15539,0 0.28407,0.12625 0.28407,0.28407 v 0.28164 l 0.56813,0.5657 v 0.5657 h 0.57056 v 0.56571 c 0.31077,0 0.56813,0.2525 0.56813,0.5657 v 0.5657 l 0.56813,0.56571 v 9.61697 h 0.57056 v 8.48313 l -0.57056,0.5657 a 0.56570391,0.56570391 0 0 1 -0.56813,0.5657 v 0.56571 l -0.56813,0.5657 a 0.56813183,0.56813183 0 0 1 -0.57056,0.56571 v 0.5657 a 0.56813183,0.56813183 0 0 0 -0.56813,0.5657 0.56813183,0.56813183 0 0 1 -0.57056,0.56571 v 0.5657 h -0.56813 v 0.56571 l -0.56813,0.5657 v 2.82852 l -0.57056,0.5657 c 0.3132,0 0.57056,0.25493 0.57056,0.56571 v 2.26281 h -0.57056 0.57056 -0.57056 v 0.56571 h 0.57056 -0.57056 0.57056 v 0.5657 h -0.57056 0.57056 v 3.39422 h -0.57056 a 0.56570391,0.56570391 0 0 0 -0.56814,0.56571 c 0,0.2088 0.25251,0.31563 0.40061,0.16752 l 0.16753,-0.16752 v 1.13141 -0.56571 0.56571 h -0.56814 v 0.5657 h -0.57056 v 0.5657 h -1.13626 0.56813 -0.56813 v -0.5657 0.5657 h -0.57056 0.57056 -0.57056 0.57056 -0.57056 v 0.56571 h -0.56813 l 0.56813,0.5657 h -0.56813 0.56813 v 0.5657 -0.5657 h 0.57056 v -0.5657 h 0.56813 v 0.5657 h 1.13869 -0.57056 v 1.13141 h -0.56813 a 0.56813183,0.56813183 0 0 1 -0.56813,0.5657 v 0.56571 -0.56571 h -0.57056 v 0.56571 c 0,0.2088 -0.2525,0.31563 -0.40061,0.16752 l -0.16752,-0.16752 v 0.5657 -0.5657 1.69711 h 0.56813 -0.56813 0.56813 -0.56813 v 0.5657 h 0.56813 -0.56813 v 0.56571 h -0.57056 0.57056 -0.57056 v 0.5657 h -0.56813 v 0.5657 h -0.56813 v 1.13141 h -0.57056 1.13869 v -0.5657 h 0.56813 v 0.5657 l -0.56813,0.56571 v 0.5657 h -0.56813 v 0.5657 h -1.1387 v -0.5657 h -0.57056 0.57056 -1.13869 0.56813 v -0.5657 0.5657 -0.5657 l -0.56813,0.5657 v -0.5657 0.5657 -0.5657 h -0.56813 0.56813 -1.70682 v -0.56571 h 0.56813 v -1.13141 h 0.57056 -0.57056 v -0.5657 0.5657 h -0.56813 v -0.5657 0.5657 h -0.57056 v -1.69711 0.56571 h -0.56813 v 0.5657 -0.5657 0.5657 h -0.56813 v -0.5657 h -0.57056 0.57056 -0.57056 v -0.56571 h -1.70683 v -0.5657 h -1.13869 v -0.56571 h -1.13869 v -0.5657 h -1.13626 v -0.5657 h 0.56813 -0.56813 v -0.56571 0.56571 -0.56571 h -1.70926 v -0.5657 l 0.57056,-0.56571 h -0.57056 v -0.5657 0.5657 -0.5657 0.5657 -0.5657 h -0.56813 0.56813 v -1.69711 h 1.70926 v -0.5657 h 1.13626 v -1.13141 h 1.13869 v -0.56571 h -2.27495 a 0.56813183,0.56813183 0 0 0 -0.57056,-0.5657 l -0.56814,-0.5657 v 0.5657 h -1.13869 v -0.5657 0.5657 -0.5657 a 0.23550764,0.23550764 0 0 0 0.1651,-0.40061 l -0.1651,-0.1651 h 0.56813 -0.56813 v -0.5657 0.5657 h -1.13869 l -0.56813,0.56571 h -0.57056 v -0.56571 h 0.57056 -0.57056 v -0.5657 h -1.13626 v 0.5657 -0.5657 h 1.13626 v -0.56571 h 0.57056 v -0.5657 h 0.56813 v -0.5657 h -0.56813 v -0.56571 h 1.13869 v -0.5657 0.5657 -0.5657 0.5657 l 0.56813,-0.5657 v 0.5657 -1.13141 h 0.56813 -0.56813 v -0.5657 h -0.56813 1.13626 v -1.69711 h -0.56813 1.13869 v -0.56571 h -0.57056 v -0.5657 a 0.56813183,0.56813183 0 0 0 -0.56813,-0.5657 v 0.5657 l -0.56813,-0.5657 0.56813,0.5657 v -0.5657 h -1.13869 v 0.5657 h -1.70682 v 0.5657 h -0.56813 v -0.5657 h -0.57056 l -0.56814,0.5657 h -0.57056 0.57056 l -0.57056,-0.5657 v 0.5657 -0.5657 h 0.57056 z"
     fill="#c9c9fc"
     id="path7"
     style="stroke-width:2.42791" />
  <path
     d="m 159.727,164.328 a 0.625,0.625 0 0 0 0,1.249 z m 0,-0.308 h -0.625 c 0,0.345 0.28,0.625 0.625,0.625 z m -0.235,-1.09 a 0.6245,0.6245 0 0 0 0,1.249 z m 0,-1.239 h -0.624 c 0,0.344 0.279,0.624 0.624,0.624 z m 1.407,-2.489 a 0.625,0.625 0 0 0 0,1.249 z m 8.204,-7.455 a 0.624,0.624 0 1 0 0,1.248 z m 0.234,-1.631 a 0.624,0.624 0 1 0 0,1.248 z m 1.406,0.466 a 0.624,0.624 0 0 0 0,1.248 z m 0,5.051 v -0.625 a 0.625,0.625 0 0 0 -0.624,0.625 z m -0.703,14.52 a 0.6245,0.6245 0 1 0 0,1.249 z m 0,0.466 a 0.6245,0.6245 0 1 0 0,1.249 z m -1.406,3.029 a 0.624,0.624 0 1 0 0,1.248 z m -0.235,2.097 a 0.624,0.624 0 0 0 0,1.248 z m -1.406,2.022 h -0.624 c 0,0.345 0.279,0.624 0.624,0.624 z m -0.234,-0.857 a 0.624,0.624 0 1 0 0,1.248 z m -1.407,-1.165 a 0.624,0.624 0 1 0 0,1.248 z m -3.047,-2.097 a 0.624,0.624 0 1 0 0,1.248 z m -1.406,-1.939 v -0.624 a 0.624,0.624 0 0 0 -0.625,0.624 z m 1.172,-2.255 a 0.6245,0.6245 0 1 0 0,1.249 z m 0.234,-0.699 a 0.6245,0.6245 0 1 0 0,1.249 z m 0,0.158 -0.44,0.443 a 0.624,0.624 0 0 0 1.064,-0.443 z m -2.11,0.233 h -0.624 c 0,0.345 0.28,0.625 0.624,0.625 z m 0,-0.54 h 0.235 v -1.249 h -0.235 z m 1.407,-1.165 h 0.234 v -1.249 h -0.234 z m 0.469,-1.482 h -0.235 v 1.249 h 0.235 z m -1.797,-0.308 v 0.233 h 1.249 v -0.233 z m -0.703,-0.466 v 0.233 h 1.249 v -0.233 z m 1.014,0.233 v -0.233 h -1.248 v 0.233 z m -0.624,-1.09 h -0.234 v 1.249 h 0.234 z m 0.624,0.391 v -0.233 h -1.248 v 0.233 z m -0.624,-1.323 h -0.234 v 1.249 h 0.234 z m 0.39,0.624 v -0.233 h -1.249 v 0.233 z m -0.624,-1.09 h -0.235 v 1.249 h 0.235 z m 1.327,0.391 v -0.233 h -1.249 v 0.233 z m -0.545,-0.698 v 0.233 h 1.248 v -0.233 z m 0.545,-0.233 v -0.233 h -1.249 v 0.233 z m -1.093,-1.324 h -0.234 v 1.249 h 0.234 z m -0.469,1.249 h 0.235 v -1.249 h -0.235 z m 0.625,-0.624 v -0.233 h -1.249 v 0.233 z m -0.625,0.391 h 0.235 v -1.249 h -0.235 z m 0.625,-0.624 v -0.233 h -1.249 v 0.233 z m 0,-0.233 v -0.233 h -1.249 v 0.233 z m -0.156,-0.858 h -0.234 v 1.249 h 0.234 z m 1.093,0.159 v -0.233 h -1.249 v 0.233 z m 0.469,0 v -0.233 h -1.249 v 0.233 z m -0.624,-1.091 h -0.235 v 1.249 h 0.235 z m 0.234,-0.233 h -0.234 v 1.249 h 0.234 z m -0.624,-0.54 v 0.233 h 1.248 v -0.233 z m 1.717,0 v -0.233 h -1.249 v 0.233 z m -0.624,-0.308 h 0.234 v -1.249 h -0.234 z m 0.469,0.233 h 0.234 v -1.249 h -0.234 z m 0.703,-1.482 h -0.235 v 1.249 h 0.235 z m 0.937,-0.699 h -0.234 v 1.249 h 0.234 z m 2.031,0.392 v -0.233 h -1.249 v 0.233 z m -1.014,-0.233 v 0.233 h 1.249 v -0.233 z m 1.483,0 v -0.233 h -1.249 v 0.233 z m -0.39,0.391 h 0.234 v -1.249 h -0.234 z m 3.516,-5.209 h -0.234 v 1.248 h 0.234 z m 0.234,0.782 h 0.235 v -1.248 h -0.235 z m 0,-2.18 h -0.234 v 1.248 h 0.234 z m 0,-0.233 h -0.234 v 1.248 h 0.234 z m 1.407,0.233 h -0.235 v 1.248 h 0.235 z m 0,0.233 h -0.235 v 1.248 h 0.235 z m 0.234,1.165 h -0.234 v 1.248 h 0.234 z m -0.234,3.261 h -0.235 v 1.249 h 0.235 z m -0.859,0.625 v 0.233 h 1.249 v -0.233 z m 0.156,14.52 h -0.235 v 1.249 h 0.235 z m -0.235,1.482 h 0.235 v -1.249 h -0.235 z m 0.235,-1.016 h -0.235 v 1.249 h 0.235 z m -0.859,2.488 v 0.233 h 1.248 v -0.233 z m -0.079,0.075 h -0.234 v 1.248 h 0.234 z m 0.39,0.624 v -0.233 h -1.249 v 0.233 z m -0.624,-0.624 h -0.235 v 1.248 h 0.235 z m -0.235,0.466 h -0.234 v 1.248 h 0.234 z m -0.624,0.624 v 0.233 h 1.249 v -0.233 z m 1.327,0.624 h 0.235 v -1.248 h -0.235 z m -1.093,0.075 v 0.233 h 1.249 v -0.233 z m -0.469,0.233 v 0.233 h 1.249 v -0.233 z m 0.625,1.323 h 0.234 v -1.248 h -0.234 z m 0,0.233 h 0.234 v -1.248 h -0.234 z m 0,-1.015 h -0.235 v 1.248 h 0.235 z m -0.703,0.932 h -0.235 v 1.248 h 0.235 z m -0.469,0.466 h -0.235 v 1.248 h 0.235 z m -0.235,0 h -0.234 v 1.248 h 0.234 z m 0.625,0.624 v -0.233 h -1.249 v 0.233 z m -0.235,0 v -0.233 h -1.248 v 0.233 z m -0.624,-0.857 h -0.234 v 1.248 h 0.234 z m -0.469,0.549 h 0.235 v -1.248 h -0.235 z m 0.625,-0.624 v -0.233 H 165.9 v 0.233 z m -0.235,0 v -0.233 h -1.249 v 0.233 z m -0.234,-0.466 v -0.233 h -1.249 v 0.233 z m -1.483,0 v 0.233 h 1.248 v -0.233 z m 0.39,-0.624 h -0.235 v 1.248 h 0.235 z m -2.344,0.083 h 0.234 v -1.248 h -0.234 z m 0.624,-0.624 v -0.233 h -1.249 v 0.233 z m -0.703,-0.699 v -0.233 h -1.249 v 0.233 z m -0.625,-0.857 h -0.234 v 1.248 h 0.234 z m 0.39,-1.24 v -0.233 h -1.248 v 0.233 z m -0.624,0.159 h 0.234 v -1.249 h -0.234 z m 0.624,-0.625 v -0.233 h -1.248 v 0.233 z m -1.562,0.625 h 0.235 v -1.249 h -0.235 z m 0,-1.482 h -0.234 v 1.249 h 0.234 z m -0.234,0 h -0.234 v 1.249 h 0.234 z m -0.859,0.624 v 0.233 h 1.249 v -0.233 z m 2.421,-0.932 v -0.233 h -1.249 v 0.233 z m -1.014,-0.233 v 0.233 h 1.248 v -0.233 z m 0.624,0.392 h 0.234 v -1.249 h -0.234 z m 0,-1.482 h -0.234 v 1.249 h 0.234 z m 0.234,-0.699 h -0.234 v 1.249 h 0.234 z m -0.858,-0.075 v 0.233 h 1.248 v -0.233 z m 1.064,-0.21 -0.234,-0.233 -0.881,0.886 0.235,0.233 z m -2.315,0.052 h -0.235 v 1.249 h 0.235 z m -0.859,0.391 v 0.233 h 1.249 v -0.233 z m 0.859,-0.466 h 1.248 c 0,-0.689 -0.559,-1.248 -1.248,-1.248 z m -0.235,0 h -1.248 c 0,0.69 0.559,1.249 1.248,1.249 z m 0,-0.233 h 1.249 c 0,-0.689 -0.559,-1.248 -1.249,-1.248 z m -0.234,0 h -1.249 c 0,0.69 0.559,1.249 1.249,1.249 z m 0,-0.233 v -1.248 c -0.69,0 -1.249,0.559 -1.249,1.248 z m 0.938,0 v 1.249 c 0.689,0 1.248,-0.559 1.248,-1.249 z m 0,-0.233 V 166.5 c -0.69,0 -1.249,0.559 -1.249,1.248 z m 0,-0.466 -0.881,-0.885 a 1.25,1.25 0 0 0 -0.368,0.885 z m 0.234,-0.233 v -1.248 c -0.33,0 -0.646,0.13 -0.88,0.363 z m 0.469,0 v 1.249 c 0.689,0 1.248,-0.559 1.248,-1.249 z m 0.234,-0.699 0.88,-0.885 a 1.24,1.24 0 0 0 -0.88,-0.363 z m -0.234,0 h -1.249 c 0,0.69 0.559,1.249 1.249,1.249 z m 0,-0.233 h 1.248 c 0,-0.689 -0.559,-1.248 -1.248,-1.248 z m -0.235,-1.248 a 1.2485,1.2485 0 0 0 0,2.497 z m 0,0.782 0.881,-0.885 a 1.25,1.25 0 0 0 -0.881,-0.363 z m -0.468,-1.248 a 1.249,1.249 0 1 0 0,2.497 z m -0.469,1.015 h -1.249 c 0,0.69 0.559,1.249 1.249,1.249 z m 0,-0.233 h 1.248 c 0,-0.689 -0.559,-1.248 -1.248,-1.248 z m -0.235,0 v -1.248 c -0.329,0 -0.646,0.13 -0.88,0.363 z m -0.234,-0.466 h 1.249 c 0,-0.689 -0.559,-1.248 -1.249,-1.248 z m 0,-0.233 v 1.249 c 0.69,0 1.249,-0.559 1.249,-1.249 z m -0.234,0.233 h -1.249 c 0,0.69 0.559,1.249 1.249,1.249 z m 0,-0.233 v -1.248 c -0.69,0 -1.249,0.559 -1.249,1.248 z m 0,-0.699 h -1.249 c 0,0.69 0.559,1.249 1.249,1.249 z m 0.234,0 h 1.249 c 0,-0.689 -0.559,-1.248 -1.249,-1.248 z m -0.234,-0.233 -0.881,-0.885 a 1.25,1.25 0 0 0 -0.368,0.885 z m 0.234,-0.233 v -1.248 c -0.33,0 -0.646,0.13 -0.88,0.363 z m 0.703,0 v 1.249 c 0.69,0 1.249,-0.559 1.249,-1.249 z m 0,-0.233 v -1.248 a 1.25,1.25 0 0 0 -1.249,1.248 z m 0.703,0 v 1.249 c 0.69,0 1.249,-0.559 1.249,-1.249 z m 0,-0.232 h 1.249 c 0,-0.333 -0.133,-0.652 -0.368,-0.886 z m -0.234,-0.233 h -1.249 c 0,0.332 0.133,0.651 0.369,0.885 z m -0.234,-0.233 h 1.248 c 0,-0.69 -0.559,-1.249 -1.248,-1.249 z m -0.704,0 h -1.248 c 0,0.689 0.559,1.248 1.248,1.248 z m 0.235,-0.466 v 1.248 c 0.689,0 1.248,-0.559 1.248,-1.248 z m 0,-0.233 h 1.248 c 0,-0.69 -0.559,-1.249 -1.248,-1.249 z m -0.235,0 h -1.248 c 0,0.689 0.559,1.248 1.248,1.248 z m 0,-0.233 h 1.249 c 0,-0.69 -0.559,-1.249 -1.249,-1.249 z m -0.234,0 v -1.249 c -0.69,0 -1.249,0.559 -1.249,1.249 z m -0.234,0.466 v 1.248 c 0.689,0 1.248,-0.559 1.248,-1.248 z m -0.235,0 h -1.249 c 0,0.689 0.56,1.248 1.249,1.248 z m 0.469,-0.699 v 1.248 c 0.69,0 1.249,-0.559 1.249,-1.248 z m 0,-0.233 v -1.249 c -0.69,0 -1.249,0.559 -1.249,1.249 z m 0.234,0 v 1.248 c 0.69,0 1.249,-0.559 1.249,-1.248 z m 0,-0.466 v -1.249 c -0.689,0 -1.248,0.559 -1.248,1.249 z m 0.469,0 -0.88,0.885 c 0.234,0.233 0.55,0.363 0.88,0.363 z m 0.235,-0.466 -0.881,-0.886 a 1.25,1.25 0 0 0 -0.368,0.886 z m 0.234,-0.233 0.88,0.885 c 0.236,-0.234 0.369,-0.553 0.369,-0.885 z m 0,-0.466 h 1.249 c 0,-0.69 -0.559,-1.249 -1.249,-1.249 z m -0.234,-0.466 -0.881,-0.886 a 1.25,1.25 0 0 0 -0.368,0.886 z m 0.234,-0.233 v -1.249 c -0.33,0 -0.646,0.13 -0.88,0.363 z m 0.703,-0.699 h -1.249 c 0,0.689 0.56,1.248 1.249,1.248 z m 0.703,0 v -1.249 c -0.329,0 -0.646,0.13 -0.88,0.363 z m 0.235,-0.699 v -1.249 c -0.69,0 -1.249,0.559 -1.249,1.249 z m 0.703,0 v 1.248 c 0.33,0 0.646,-0.13 0.88,-0.363 z m 0.234,-0.233 0.881,0.885 a 1.25,1.25 0 0 0 0.368,-0.885 z m 0,-0.233 v -1.249 c -0.689,0 -1.248,0.559 -1.248,1.249 z m 1.876,-0.233 v 1.248 c 0.329,0 0.646,-0.13 0.88,-0.363 z m 0.234,-0.233 0.88,0.885 c 0.236,-0.234 0.369,-0.553 0.369,-0.885 z m 0.234,-0.466 -0.88,0.885 a 1.25,1.25 0 0 0 2.129,-0.885 z m 0,-0.233 v -1.249 c -0.689,0 -1.248,0.559 -1.248,1.249 z m 0.235,0 v 1.248 c 0.689,0 1.248,-0.559 1.248,-1.248 z m 0,-0.233 v -1.249 c -0.69,0 -1.249,0.559 -1.249,1.249 z m 0.234,0 v 1.248 c 0.69,0 1.249,-0.559 1.249,-1.248 z m 0,-0.233 v -1.249 a 1.25,1.25 0 0 0 -1.249,1.249 z m 1.641,0.233 h -1.249 c 0,0.689 0.559,1.248 1.249,1.248 z m 0.234,0 h 1.249 c 0,-0.69 -0.559,-1.249 -1.249,-1.249 z m 0,0.233 h -1.248 c 0,0.689 0.559,1.248 1.248,1.248 z m 0.235,0 h 1.248 c 0,-0.69 -0.559,-1.249 -1.248,-1.249 z m 0,0.466 h -1.249 c 0,0.689 0.559,1.248 1.249,1.248 z m 0.234,0 v 1.248 c 0.69,0 1.249,-0.559 1.249,-1.248 z m 0,-0.233 v -1.249 a 1.25,1.25 0 0 0 -1.249,1.249 z m 0.235,0 v 1.248 c 0.689,0 1.248,-0.559 1.248,-1.248 z m 0,-0.466 v -1.249 c -0.69,0 -1.249,0.559 -1.249,1.249 z m 0.234,0 v 1.248 c 0.69,0 1.249,-0.559 1.249,-1.248 z m 0,-0.233 v -1.249 c -0.69,0 -1.249,0.559 -1.249,1.249 z m 0.234,0 v 1.248 c 0.69,0 1.249,-0.559 1.249,-1.248 z m 0,-0.233 h 1.249 c 0,-0.333 -0.133,-0.651 -0.368,-0.886 z m -0.234,-0.233 h -1.249 c 0,0.332 0.133,0.651 0.369,0.885 z m 0,-0.699 h -1.249 a 1.25,1.25 0 0 0 1.249,1.249 z m 0,-0.932 v 1.249 c 0.69,0 1.249,-0.56 1.249,-1.249 z m 0,-0.932 v -1.249 c -0.69,0 -1.249,0.559 -1.249,1.249 z m 0.234,0 v 1.249 c 0.69,0 1.249,-0.559 1.249,-1.249 z m 0,-1.631 v -1.249 c -0.33,0 -0.646,0.131 -0.88,0.363 z m 0.704,0 v 1.249 c 0.329,0 0.646,-0.131 0.88,-0.363 z m 0.234,-0.233 h 1.249 a 1.25,1.25 0 0 0 -2.129,-0.886 z m 0,0.233 h -1.249 c 0,0.69 0.559,1.249 1.249,1.249 z m 0.234,0 h 1.249 c 0,-0.69 -0.559,-1.249 -1.249,-1.249 z m 0,0.233 h -1.248 c 0,0.69 0.559,1.249 1.248,1.249 z m 0.235,0 h 1.248 c 0,-0.69 -0.559,-1.249 -1.248,-1.249 z m 0,1.398 h -1.249 c 0,0.332 0.133,0.651 0.368,0.885 z m 0.234,0.233 h 1.249 a 1.25,1.25 0 0 0 -0.369,-0.886 z m 0,0.233 v 1.249 c 0.69,0 1.249,-0.56 1.249,-1.249 z m -0.234,0 v -1.249 a 1.25,1.25 0 0 0 -0.881,2.134 z m 0.234,0.233 h 1.249 a 1.25,1.25 0 0 0 -0.369,-0.886 z m 0,0.932 h -1.249 c 0,0.689 0.56,1.249 1.249,1.249 z m 0,0.233 v -1.249 a 1.25,1.25 0 0 0 -1.249,1.249 z m 0,0.466 v 1.248 c 0.69,0 1.249,-0.559 1.249,-1.248 z m -0.234,0 v -1.249 c -0.69,0 -1.249,0.559 -1.249,1.249 z m 0,2.33 h -1.249 c 0,0.332 0.133,0.651 0.368,0.885 z m 0.234,0.233 h 1.249 c 0,-0.333 -0.133,-0.652 -0.369,-0.886 z m 0.235,0.233 h 1.248 c 0,-0.69 -0.559,-1.249 -1.248,-1.249 z m 0.234,0.699 h -1.249 c 0,0.332 0.133,0.651 0.369,0.885 z m 0.234,0.233 h 1.249 c 0,-0.333 -0.133,-0.652 -0.368,-0.886 z m -1.406,9.552 V 166.5 c -0.69,0 -1.249,0.559 -1.249,1.248 z m 0,0.233 0.88,0.886 c 0.236,-0.234 0.369,-0.553 0.369,-0.886 z m -0.234,0.233 -0.881,-0.885 a 1.25,1.25 0 0 0 -0.368,0.885 z m 0,1.165 0.88,0.886 c 0.236,-0.234 0.368,-0.553 0.368,-0.886 z m 0,3.262 v 1.249 c 0.689,0 1.248,-0.559 1.248,-1.249 z m -0.235,-1.249 a 1.25,1.25 0 0 0 0,2.498 z m 0,1.482 h 1.249 a 1.25,1.25 0 0 0 -2.129,-0.885 z m -0.234,0.466 v -1.249 c -0.69,0 -1.249,0.56 -1.249,1.249 z m 0,0.233 v 1.249 c 0.689,0 1.248,-0.559 1.248,-1.249 z m -0.235,0 v -1.249 a 1.25,1.25 0 0 0 -1.248,1.249 z m 0,0.233 v 1.249 c 0.69,0 1.249,-0.559 1.249,-1.249 z m -0.703,0.233 v 1.249 c 0.69,0 1.249,-0.559 1.249,-1.249 z m -0.234,0 v -1.249 a 1.25,1.25 0 0 0 -0.881,2.135 z m 0.234,0.233 -0.88,0.886 c 0.234,0.232 0.55,0.363 0.88,0.363 z m 0.235,0 v 1.249 c 0.689,0 1.248,-0.559 1.248,-1.249 z m 0,-0.233 v -1.249 c -0.69,0 -1.249,0.559 -1.249,1.249 z m 0.234,0 h 1.249 c 0,-0.69 -0.559,-1.249 -1.249,-1.249 z m 0,0.233 h -1.249 c 0,0.69 0.559,1.249 1.249,1.249 z m 0.234,0 h 1.249 c 0,-0.69 -0.559,-1.249 -1.249,-1.249 z m 0,0.466 v 1.249 c 0.69,0 1.249,-0.559 1.249,-1.249 z m -0.234,-1.249 a 1.249,1.249 0 1 0 0,2.498 z m -0.469,1.482 v -1.249 a 1.25,1.25 0 0 0 -1.249,1.249 z m -0.469,1.631 v 1.249 c 0.69,0 1.249,-0.559 1.249,-1.249 z m -0.234,0 v -1.249 c -0.69,0 -1.249,0.559 -1.249,1.249 z m 0,0.233 v 1.249 c 0.69,0 1.249,-0.559 1.249,-1.249 z m -0.234,0 v -1.249 c -0.69,0 -1.249,0.559 -1.249,1.249 z m 0,0.466 h -1.249 c 0,0.69 0.559,1.249 1.249,1.249 z m 0.234,0 v 1.249 c 0.69,0 1.249,-0.559 1.249,-1.249 z m 0,-0.233 v -1.249 c -0.69,0 -1.249,0.559 -1.249,1.249 z m 0.234,0 h 1.249 c 0,-0.69 -0.559,-1.249 -1.249,-1.249 z m 0,0.233 0.881,0.886 c 0.235,-0.235 0.368,-0.554 0.368,-0.886 z m -0.234,0.233 -0.88,-0.886 a 1.25,1.25 0 0 0 -0.369,0.886 z m 0,0.233 v 1.249 c 0.69,0 1.249,-0.559 1.249,-1.249 z m -0.234,0 v -1.249 c -0.69,0 -1.249,0.559 -1.249,1.249 z m 0,0.233 v 1.249 c 0.689,0 1.248,-0.559 1.248,-1.249 z m -0.469,0 h -1.249 c 0,0.69 0.559,1.249 1.249,1.249 z m -1.172,-0.466 h -1.249 c 0,0.69 0.559,1.249 1.249,1.249 z m 0,-0.233 v -1.249 c -0.69,0 -1.249,0.559 -1.249,1.249 z m 0.234,0 v 1.249 c 0.69,0 1.249,-0.559 1.249,-1.249 z m 0,-0.466 h 1.249 c 0,-0.69 -0.559,-1.249 -1.249,-1.249 z m -0.469,0 h -1.248 c 0,0.69 0.559,1.249 1.248,1.249 z m 0,-0.466 h 1.249 c 0,-0.69 -0.559,-1.249 -1.249,-1.249 z m -0.468,0.233 h -1.249 c 0,0.69 0.559,1.249 1.249,1.249 z m -0.235,-0.466 h 1.249 c 0,-0.69 -0.559,-1.249 -1.249,-1.249 z m -0.703,0 H 163.4 c 0,0.69 0.559,1.249 1.249,1.249 z m 0,-0.233 h 1.249 c 0,-0.69 -0.559,-1.249 -1.249,-1.249 z m -0.469,0 h -1.249 c 0,0.69 0.56,1.249 1.249,1.249 z m 0,-0.233 h 1.249 c 0,-0.69 -0.559,-1.249 -1.249,-1.249 z m -0.469,0 h -1.248 c 0,0.69 0.559,1.249 1.248,1.249 z m 0,-0.233 h 1.249 c 0,-0.69 -0.559,-1.249 -1.249,-1.249 z m -0.468,0 h -1.249 c 0,0.69 0.559,1.249 1.249,1.249 z m -0.704,-0.466 h -1.248 c 0,0.69 0.559,1.249 1.248,1.249 z m 0,-0.233 -0.88,-0.886 a 1.25,1.25 0 0 0 -0.368,0.886 z m 0.235,-0.233 0.88,0.886 a 1.248,1.248 0 0 0 -0.88,-2.135 z m -0.235,-0.932 v -1.249 a 1.25,1.25 0 0 0 -1.248,1.249 z m 0.704,-0.233 v -1.249 c -0.69,0 -1.249,0.56 -1.249,1.249 z m 0.468,0 v 1.249 c 0.69,0 1.249,-0.559 1.249,-1.249 z m 0,-0.466 v -1.249 a 1.25,1.25 0 0 0 -1.248,1.249 z m 0.469,0 v 1.249 c 0.69,0 1.249,-0.559 1.249,-1.249 z m 0,-0.233 h 1.249 a 1.25,1.25 0 0 0 -1.249,-1.249 z m -0.937,-1.249 a 1.25,1.25 0 0 0 0,2.498 z m -0.469,0.783 0.88,-0.885 a 1.25,1.25 0 0 0 -2.129,0.885 z m 0,0.233 v 1.249 c 0.689,0 1.248,-0.559 1.248,-1.249 z m -0.469,-0.466 0.88,-0.885 a 1.25,1.25 0 0 0 -0.88,-0.364 z m -0.469,0 v -1.249 c -0.33,0 -0.646,0.131 -0.88,0.364 z m -0.234,0.233 v 1.249 c 0.33,0 0.646,-0.131 0.88,-0.363 z m -0.235,0 h -1.248 c 0,0.69 0.559,1.249 1.248,1.249 z m 0,-0.699 v -1.248 c -0.689,0 -1.248,0.559 -1.248,1.248 z m 0.235,0 v 1.249 c 0.689,0 1.248,-0.559 1.248,-1.249 z m 0,-0.233 v -1.248 c -0.69,0 -1.249,0.559 -1.249,1.248 z m 0.234,0 v 1.249 c 0.69,0 1.249,-0.559 1.249,-1.249 z m 0,-0.233 h 1.249 c 0,-0.689 -0.559,-1.248 -1.249,-1.248 z m -0.234,0 h -1.249 c 0,0.69 0.559,1.249 1.249,1.249 z m 0,-0.233 v -1.248 c -0.69,0 -1.249,0.559 -1.249,1.248 z m 0.469,0 v 1.249 c 0.329,0 0.646,-0.131 0.88,-0.363 z m 0.234,-0.233 0.88,0.886 a 1.25,1.25 0 0 0 0.369,-0.886 z m 0,-0.466 v -1.248 c -0.69,0 -1.249,0.559 -1.249,1.248 z m 0.234,0 v 1.249 c 0.69,0 1.249,-0.559 1.249,-1.249 z m 0,-0.699 v -1.248 c -0.689,0 -1.248,0.559 -1.248,1.248 z m 0.235,-0.233 h 1.248 c 0,-0.689 -0.559,-1.248 -1.248,-1.248 z m -0.235,0 h -1.248 c 0,0.69 0.559,1.249 1.248,1.249 z m -0.703,-0.466 v -1.248 a 1.25,1.25 0 0 0 -1.249,1.248 z m 0,0.233 v 1.249 c 0.69,0 1.249,-0.559 1.249,-1.249 z m -0.703,0 v -1.248 c -0.69,0 -1.249,0.559 -1.249,1.248 z m 0,0.233 v 1.249 c 0.69,0 1.249,-0.559 1.249,-1.249 z m -0.234,0 h -1.249 c 0,0.69 0.559,1.249 1.249,1.249 z m 0,-0.233 h 1.248 c 0,-0.689 -0.559,-1.248 -1.248,-1.248 z m -0.235,0 v -1.248 c -0.33,0 -0.646,0.13 -0.88,0.363 z m -0.234,0.233 -0.881,0.886 a 1.25,1.25 0 0 0 1.761,0 z m -0.235,-0.233 v -1.248 a 1.25,1.25 0 0 0 -0.88,2.134 z m 2.178,3.097 0.88,-0.886 z m 7.598,0.933 0.88,0.886 z m -4.922,-16.214 0.88,-0.886 z m 3.654,18.544 -0.88,0.885 z m -8.674,-10.155 -0.88,-0.886 z m 0.401,2.081 h -0.235 v 2.497 h 0.235 z m 1.014,1.248 v -0.233 h -2.497 v 0.233 z m -1.249,-1.481 h -0.234 v 2.497 h 0.234 z m 1.015,1.248 v -0.233 h -2.498 v 0.233 z m -1.249,1.016 h 0.234 v -2.497 h -0.234 z m 0.469,0 h 0.234 v -2.497 h -0.234 z m 0.234,0 h 0.235 v -2.497 h -0.235 z m 1.483,-1.249 v -0.233 h -2.497 v 0.233 z m -1.248,1.016 h 0.234 V 166.5 h -0.234 z m 1.248,-1.482 v -0.233 h -2.497 v 0.233 z m -0.368,0.653 0.234,-0.233 -1.76,-1.771 -0.235,0.233 z m -0.646,0.13 h 0.234 v -2.497 h -0.234 z m 0.234,0 h 0.235 v -2.497 h -0.235 z m 1.483,-1.249 v -0.233 h -2.497 v 0.233 z m 0.101,-1.351 -0.235,-0.233 -1.76,1.771 0.234,0.233 z m -1.115,-0.596 h -0.234 v 2.497 h 0.234 z m 1.014,1.248 v -0.233 h -2.497 v 0.233 z m -1.248,-1.481 h -0.235 v 2.497 h 0.235 z m 0.88,0.13 -0.234,-0.233 -1.761,1.771 0.234,0.233 z m -1.115,-0.596 h -0.234 v 2.497 h 0.234 z m -0.234,0 h -0.234 v 2.497 h 0.234 z m -0.469,-0.233 h -0.234 v 2.497 h 0.234 z m 1.014,1.248 v -0.233 h -2.497 v 0.233 z m -1.248,-1.481 h -0.235 v 2.497 h 0.235 z m -1.115,0.363 -0.234,0.233 1.76,1.771 0.235,-0.233 z m 1.526,1.771 0.068,-0.068 -1.76,-1.771 -0.068,0.068 z m 0.369,-1.119 v -0.233 h -2.498 v 0.233 z m -1.249,-1.481 h -0.234 v 2.497 h 0.234 z m 1.014,1.248 v -0.233 h -2.497 v 0.233 z m -1.248,1.016 h 0.234 v -2.497 h -0.234 z m 1.483,-1.249 v -0.233 h -2.498 v 0.233 z m 0,-0.233 v -0.233 h -2.498 v 0.233 z m 0,-0.233 v -0.233 h -2.498 v 0.233 z m -1.249,-1.481 h -0.234 v 2.497 h 0.234 z m 1.014,1.248 v -0.233 h -2.497 v 0.233 z m -0.368,0.653 0.234,-0.233 -1.76,-1.771 -0.235,0.233 z m -0.646,0.13 h 0.234 v -2.497 h -0.234 z m 0.234,0 h 0.235 v -2.497 h -0.235 z m 0.235,0 h 0.234 v -2.497 h -0.234 z m 1.483,-1.249 v -0.233 h -2.498 v 0.233 z m -1.249,1.016 h 0.235 v -2.497 h -0.235 z m 0.235,0 h 0.234 v -2.497 h -0.234 z m 0.234,0 h 0.234 v -2.497 h -0.234 z m 1.483,-1.249 v -0.232 h -2.497 v 0.232 z m -0.368,-1.118 -0.235,-0.233 -1.76,1.771 0.234,0.233 z m 0.134,0.653 v -0.068 h -2.498 v 0.068 z m -0.235,-0.166 v -0.067 h -2.497 v 0.067 z m -1.248,-1.316 h -0.235 v 2.497 h 0.235 z m -0.235,0 h -0.234 v 2.497 h 0.234 z m -0.234,0 h -0.235 v 2.497 h 0.235 z m 1.014,1.249 v -0.233 h -2.497 v 0.233 z m 0,-0.233 v -0.233 h -2.497 v 0.233 z m -1.249,1.015 h 0.235 v -2.497 h -0.235 z m 1.483,-1.248 v -0.233 h -2.497 v 0.233 z m -1.248,-1.482 h -0.235 v 2.497 h 0.235 z m 1.014,1.249 v -0.233 h -2.497 v 0.233 z m -1.249,-1.482 h -0.234 v 2.497 h 0.234 z m -1.483,1.249 v 0.233 h 2.498 v -0.233 z m -0.234,0.233 v 0.233 h 2.497 v -0.233 z m 1.249,-1.016 h -0.235 v 2.497 h 0.235 z m 1.014,1.249 v -0.233 h -2.498 v 0.233 z m -1.249,0.549 h 0.235 v -2.497 h -0.235 z m 0.235,0 h 0.234 v -2.497 h -0.234 z m 1.483,-1.248 v -0.233 h -2.498 v 0.233 z m -1.249,1.015 h 0.234 v -2.497 h -0.234 z m 1.483,-1.248 v -0.233 h -2.497 v 0.233 z m 0,-0.233 v -0.233 h -2.497 v 0.233 z m -1.249,1.015 h 0.235 v -2.497 h -0.235 z m -0.646,-0.596 0.235,0.233 1.76,-1.771 -0.234,-0.233 z m 1.115,0.596 h 0.235 v -2.497 h -0.235 z m 1.483,-1.481 v -0.233 h -2.497 v 0.233 z m -0.368,0.652 0.234,-0.233 -1.76,-1.771 -0.235,0.233 z m 0.603,-1.118 v -0.233 h -2.498 v 0.233 z m 0,-0.233 v -0.233 h -2.498 v 0.233 z m -1.249,-1.482 h -0.234 v 2.497 h 0.234 z m -1.483,1.249 v 0.115 h 2.497 v -0.115 z m 1.131,1.248 h 0.118 v -2.497 h -0.118 z m 1.366,-1.248 v -0.233 h -2.497 v 0.233 z m 0,-0.233 v -0.233 h -2.497 v 0.233 z m -0.368,0.652 0.234,-0.233 -1.76,-1.771 -0.235,0.233 z m -0.646,0.13 h 0.234 v -2.497 h -0.234 z m 0.234,0 h 0.235 v -2.497 h -0.235 z m 1.483,-1.481 v -0.233 h -2.497 v 0.233 z m 0,-0.233 v -0.233 h -2.497 v 0.233 z m 0,-0.233 v -0.233 h -2.497 v 0.233 z m -2.263,-0.233 v 0.233 h 2.498 v -0.233 z m 1.249,1.481 h 0.235 v -2.497 h -0.235 z m 1.349,-0.13 0.235,-0.233 -1.761,-1.771 -0.234,0.233 z m -0.646,0.13 h 0.235 v -2.497 h -0.235 z m 1.483,-1.248 v -0.233 h -2.497 v 0.233 z m 0,-0.233 v -0.233 h -2.497 v 0.233 z m 0,-0.233 v -0.233 h -2.497 v 0.233 z m -1.248,1.015 h 0.234 v -2.497 h -0.234 z m 0.234,0 h 0.235 v -2.497 h -0.235 z m 0.235,0 h 0.234 v -2.497 h -0.234 z m 1.114,-0.363 0.235,-0.233 -1.761,-1.771 -0.234,0.233 z m 0.603,-1.118 v -0.233 h -2.497 v 0.233 z m -1.249,1.015 h 0.235 v -2.497 h -0.235 z m 0.235,0 h 0.234 v -2.497 h -0.234 z m 0.234,0 h 0.235 v -2.497 h -0.235 z m 0.235,0 h 0.234 v -2.497 h -0.234 z m 0.234,0 h 0.234 v -2.497 h -0.234 z m -0.481,-0.431 0.069,0.068 1.761,-1.771 -0.069,-0.069 z m 0.95,0.198 h 0.234 v -2.497 h -0.234 z m 0.234,0 h 0.235 v -2.497 h -0.235 z m 1.115,-0.363 0.234,-0.233 -1.76,-1.771 -0.235,0.233 z m 0.603,-1.118 v -0.233 h -2.498 v 0.233 z m 0,-0.233 v -0.233 h -2.498 v 0.233 z m 0,-0.233 v -0.233 h -2.498 v 0.233 z m -2.129,0.652 0.234,0.233 1.761,-1.771 -0.235,-0.233 z m 2.363,-0.652 v -0.233 h -2.497 v 0.233 z m -1.249,1.015 h 0.235 v -2.497 h -0.235 z m 1.483,-1.248 V 155.4 h -2.497 v 0.233 z m -1.248,1.015 h 0.234 v -2.497 h -0.234 z m 1.483,-1.248 v -0.233 h -2.498 v 0.233 z m -1.249,1.015 h 0.235 v -2.497 h -0.235 z m 0.235,0 h 0.234 v -2.497 h -0.234 z m 0.234,0 h 0.234 v -2.497 h -0.234 z m 0.234,0 h 0.235 v -2.497 h -0.235 z m 0.235,0 h 0.234 v -2.497 h -0.234 z m 0.234,0 h 0.235 v -2.497 h -0.235 z m 0.235,0 h 0.234 v -2.497 h -0.234 z m -1.015,-1.248 v 0.233 h 2.498 v -0.233 z m 1.249,1.481 h 0.234 v -2.497 h -0.234 z m -1.014,-1.248 v 0.233 h 2.497 V 155.4 Z m 1.248,1.481 h 0.235 v -2.497 h -0.235 z m -1.014,-1.248 v 0.233 h 2.497 v -0.233 z m 0,0.233 v 0.233 h 2.497 v -0.233 z m 1.249,1.481 h 0.234 v -2.497 h -0.234 z m 1.483,-1.248 v -0.233 h -2.498 v 0.233 z m -1.249,1.015 h 0.235 v -2.497 h -0.235 z m 1.483,-1.248 v -0.233 h -2.497 v 0.233 z m 0,-0.233 V 155.4 h -2.497 v 0.233 z m -1.248,1.015 h 0.234 v -2.497 h -0.234 z m 1.483,-1.248 v -0.233 h -2.498 v 0.233 z m -1.249,1.015 h 0.234 v -2.497 h -0.234 z m 1.483,-1.248 v -0.233 h -2.497 v 0.233 z m -0.368,-1.119 -0.235,-0.233 -1.76,1.771 0.234,0.233 z m 0.134,0.653 v -0.233 h -2.498 v 0.233 z m 0,-0.233 v -0.233 h -2.498 v 0.233 z m -1.015,-1.715 h -0.234 v 2.498 h 0.234 z m 1.015,1.249 v -0.233 h -2.498 v 0.233 z m -0.235,-0.466 v -0.233 h -2.497 v 0.233 z m 0,-0.233 v -0.233 h -2.497 v 0.233 z m -1.248,1.016 h 0.234 v -2.498 h -0.234 z m 1.483,-1.249 v -0.233 h -2.498 v 0.233 z m 0,-0.233 v -0.233 h -2.498 v 0.233 z m 0,-0.233 v -0.233 h -2.498 v 0.233 z m 0,-0.233 v -0.233 h -2.498 v 0.233 z m -1.249,1.016 h 0.234 v -2.498 h -0.234 z m 1.483,-1.249 v -0.233 h -2.497 v 0.233 z m 0,-0.233 v -0.233 h -2.497 v 0.233 z m 0,-0.233 v -0.233 h -2.497 v 0.233 z m 0,-0.233 v -0.233 h -2.497 v 0.233 z m 0,-0.233 v -0.233 h -2.497 v 0.233 z m 0,-0.233 v -0.233 h -2.497 v 0.233 z m -0.603,0.653 0.235,-0.233 -1.761,-1.772 -0.234,0.233 z m -0.646,0.13 h 0.235 v -2.498 h -0.235 z m 0.235,0 h 0.234 v -2.498 h -0.234 z m 0.234,0 h 0.235 v -2.498 h -0.235 z m 1.115,-0.363 0.234,-0.233 -1.76,-1.772 -0.235,0.233 z m -1.895,-1.119 v 0.233 h 2.498 v -0.233 z m 1.249,1.482 h 0.234 v -2.498 h -0.234 z m -1.014,-1.249 v 0.233 h 2.497 v -0.233 z m 1.248,1.482 h 0.235 v -2.498 h -0.235 z m -1.014,-1.249 v 0.233 h 2.497 v -0.233 z m 0,0.233 v 0.233 h 2.497 v -0.233 z m 0,0.233 v 0.233 h 2.497 v -0.233 z m 0,0.233 v 0.233 h 2.497 v -0.233 z m 0,0.233 v 0.233 h 2.497 v -0.233 z m 0,0.233 v 0.233 h 2.497 v -0.233 z m 0.368,1.118 0.235,0.233 1.76,-1.771 -0.234,-0.233 z m -0.134,-0.652 v 0.233 h 2.498 v -0.233 z m 1.249,-1.016 h -0.234 v 2.498 h 0.234 z m -1.115,2.134 0.235,0.233 1.76,-1.771 -0.234,-0.233 z m -0.134,-0.652 v 0.233 h 2.498 v -0.233 z m 0,0.233 v 0.233 h 2.498 v -0.233 z m 0,0.233 v 0.233 h 2.498 v -0.233 z m 0,0.233 v 0.233 h 2.498 v -0.233 z m 1.249,1.482 h 0.235 v -2.498 h -0.235 z m -1.014,-1.249 v 0.233 h 2.497 v -0.233 z m 1.249,-1.016 h -0.235 v 2.498 h 0.235 z m -1.484,1.249 v 0.233 h 2.498 v -0.233 z m 0,0.233 v 0.233 h 2.498 v -0.233 z m 1.249,-1.016 h -0.234 v 2.497 h 0.234 z m -1.483,1.249 v 0.233 h 2.497 v -0.233 z m 0,0.233 v 0.233 h 2.497 v -0.233 z m 0,0.233 v 0.233 h 2.497 v -0.233 z m 0,0.233 v 0.233 h 2.497 v -0.233 z m 0,0.233 v 0.233 h 2.497 V 155.4 Z m -0.234,0.466 v 0.233 h 2.497 v -0.233 z m 0,0.233 v 0.233 h 2.497 v -0.233 z m 0,0.233 v 0.116 h 2.497 v -0.116 z m 0.234,0.35 v 0.116 h 2.497 v -0.116 z m 0.368,1.001 0.235,0.233 1.76,-1.771 -0.234,-0.233 z m -0.134,-0.652 v 0.233 h 2.498 v -0.233 z m 1.249,1.481 h 0.235 v -2.497 h -0.235 z m -1.014,-1.248 v 0.233 h 2.497 v -0.233 z m 0.234,0.466 v 0.233 h 2.498 v -0.233 z m 0.369,1.118 0.234,0.233 1.761,-1.771 -0.235,-0.233 z m -0.134,-0.652 v 0.233 h 2.497 v -0.233 z m 0,0.233 v 0.233 h 2.497 v -0.233 z m 0,0.233 v 0.233 h 2.497 v -0.233 z m 0,0.233 v 0.233 h 2.497 v -0.233 z m 0,0.233 v 0.233 h 2.497 v -0.233 z m 0,0.233 v 0.233 h 2.497 v -0.233 z m 0,0.233 v 0.233 h 2.497 v -0.233 z m 0,0.233 v 0.233 h 2.497 v -0.233 z m 0,0.233 v 0.233 h 2.497 v -0.233 z m 0,0.233 v 0.233 h 2.497 v -0.233 z m 0,0.233 v 0.233 h 2.497 v -0.233 z m 0,0.233 v 0.233 h 2.497 v -0.233 z m 0,0.233 v 0.233 h 2.497 v -0.233 z m 0,0.233 v 0.233 h 2.497 v -0.233 z m 0,0.233 v 0.233 h 2.497 v -0.233 z m 0,0.233 v 0.233 h 2.497 v -0.233 z m 0,0.233 v 0.233 h 2.497 v -0.233 z m 1.248,1.481 h 0.235 v -2.497 h -0.235 z m -1.014,-1.248 v 0.233 h 2.497 v -0.233 z m 0,0.233 v 0.233 h 2.497 v -0.233 z m 0,0.233 v 0.233 h 2.497 v -0.233 z m 0,0.233 v 0.232 h 2.497 v -0.232 z m 0,0.232 v 0.233 h 2.497 v -0.233 z m 0,0.233 v 0.233 h 2.497 v -0.233 z m 0,0.233 v 0.233 h 2.497 v -0.233 z m 0,0.233 v 0.233 h 2.497 v -0.233 z m 0,0.233 v 0.233 h 2.497 v -0.233 z m 0,0.233 v 0.233 h 2.497 v -0.233 z m 0,0.233 v 0.233 h 2.497 v -0.233 z m 0,0.233 v 0.233 h 2.497 v -0.233 z m 0,0.233 v 0.233 h 2.497 v -0.233 z m 0,0.233 v 0.233 h 2.497 v -0.233 z m 0,0.233 v 0.233 h 2.497 v -0.233 z m 0.368,-0.652 -0.234,0.233 1.761,1.771 0.234,-0.233 z m -0.837,1.351 v 0.233 h 2.498 v -0.233 z m 0.369,-0.652 -0.235,0.233 1.761,1.771 0.234,-0.233 z m -0.838,1.351 v 0.233 h 2.498 v -0.233 z m -0.468,0.699 v 0.233 h 2.497 v -0.233 z m 1.248,-1.015 h -0.234 v 2.497 h 0.234 z m -1.483,1.248 v 0.233 h 2.498 v -0.233 z m 0.369,-0.652 -0.235,0.233 1.761,1.771 0.234,-0.233 z m -0.603,1.118 v 0.233 h 2.497 v -0.233 z m 0,0.233 v 0.233 h 2.497 v -0.233 z m 0,0.233 v 0.233 h 2.497 v -0.233 z m 0,0.233 v 0.233 h 2.497 v -0.233 z m 0,0.233 v 0.233 h 2.497 v -0.233 z m 0.368,-0.652 -0.234,0.233 1.76,1.771 0.235,-0.233 z m -0.368,1.351 v 0.233 h 2.497 v -0.233 z m 0,0.233 v 0.233 h 2.497 v -0.233 z m 0,0.233 v 0.233 h 2.497 v -0.233 z m 0,0.233 v 0.233 h 2.497 v -0.233 z m -0.235,0.233 v 0.233 h 2.498 v -0.233 z m 0.235,0.233 v 0.233 h 2.497 v -0.233 z m 0,0.233 v 0.233 h 2.497 v -0.233 z m 0,0.233 v 0.233 h 2.497 v -0.233 z m 0,0.233 v 0.233 h 2.497 v -0.233 z m 0,0.233 v 0.233 h 2.497 v -0.233 z m 0,0.233 v 0.233 h 2.497 v -0.233 z m 0,0.233 v 0.233 h 2.497 v -0.233 z m 1.249,-1.016 h -0.235 v 2.498 h 0.235 z m 0.576,2.437 0.069,-0.069 -1.76,-1.771 -0.069,0.068 z m -2.06,-0.955 v 0.233 h 2.498 v -0.233 z m 1.249,-0.783 h -0.234 v 2.498 h 0.234 z m -1.483,1.249 v 0.233 h 2.497 v -0.233 z m 1.249,-1.016 h -0.235 v 2.498 h 0.235 z m -1.483,1.249 v 0.233 h 2.497 v -0.233 z m 1.248,-1.016 h -0.234 v 2.498 h 0.234 z m -1.952,1.249 v 0.233 h 2.498 v -0.233 z m 1.249,-1.016 h -0.234 v 2.498 h 0.234 z m -1.115,2.135 0.235,0.233 1.76,-1.771 -0.234,-0.233 z m 1.115,0.596 h 0.235 v -2.498 h -0.235 z m 1.483,-1.249 v -0.233 h -2.497 v 0.233 z m -1.248,1.016 h 0.234 v -2.498 h -0.234 z m -1.015,-1.249 v 0.233 h 2.498 v -0.233 z m 1.249,1.482 h 0.234 v -2.498 h -0.234 z m -1.014,-1.249 v 0.233 h 2.497 v -0.233 z m 0,0.233 v 0.233 h 2.497 v -0.233 z m 1.248,-1.016 h -0.234 v 2.498 h 0.234 z m -0.468,0.233 h -0.235 v 2.498 h 0.235 z m -1.484,1.249 v 0.233 h 2.498 v -0.233 z m 1.964,-0.584 -0.069,-0.069 -1.761,1.772 0.07,0.068 z m -2.198,1.05 v 0.233 h 2.497 v -0.233 z m 0,0.233 v 0.233 h 2.497 v -0.233 z m 0,0.233 v 0.233 h 2.497 v -0.233 z m 0,0.233 v 0.233 h 2.497 v -0.233 z m -0.234,0.233 v 0.233 h 2.497 v -0.233 z m 1.248,-1.016 h -0.234 v 2.498 h 0.234 z m -1.483,1.249 v 0.233 h 2.498 v -0.233 z m 1.249,-1.016 h -0.234 v 2.498 h 0.234 z m -1.483,1.249 v 0.233 h 2.497 v -0.233 z m 0,0.233 v 0.233 h 2.497 v -0.233 z m 1.249,1.482 h 0.234 v -2.498 h -0.234 z m 1.483,-1.249 v -0.233 h -2.498 v 0.233 z m -1.249,1.016 h 0.234 v -2.498 h -0.234 z m -1.014,-1.249 v 0.233 h 2.497 v -0.233 z m 0.368,-0.653 -0.234,0.233 1.76,1.772 0.235,-0.233 z m -0.603,1.119 v 0.233 h 2.498 v -0.233 z m 1.249,-1.016 h -0.234 v 2.498 h 0.234 z m -1.483,1.249 V 178 h 2.497 v -0.233 z m 1.249,-1.016 h -0.235 v 2.498 h 0.235 z m -0.235,0 h -0.234 v 2.498 h 0.234 z M 168.71,178 v -0.233 h -2.497 V 178 Z m -2.363,-1.352 -0.234,0.233 1.76,1.772 0.235,-0.233 z m 0.412,-0.363 h -0.235 v 2.498 h 0.235 z m -0.235,0 h -0.234 v 2.498 h 0.234 z m 1.014,1.249 v -0.233 h -2.497 v 0.233 z m -1.248,1.016 h 0.234 v -2.498 h -0.234 z m 1.483,-1.249 v -0.233 h -2.498 v 0.233 z m 0,-0.233 v -0.233 h -2.498 v 0.233 z m -1.249,-1.482 h -0.234 v 2.498 h 0.234 z m -0.234,0 h -0.235 v 2.498 h 0.235 z m 1.014,1.249 v -0.233 h -2.497 v 0.233 z m 0,-0.233 v -0.233 h -2.497 v 0.233 z m -1.249,-1.482 h -0.234 v 2.498 h 0.234 z m -0.234,0.233 h -0.234 v 2.498 h 0.234 z m 1.014,1.249 v -0.233 h -2.497 v 0.233 z m -0.234,-0.233 v -0.233 h -2.498 v 0.233 z m -1.249,-1.482 h -0.234 v 2.498 h 0.234 z m -0.234,0 h -0.235 v 2.498 h 0.235 z m -0.235,0 h -0.234 v 2.498 h 0.234 z m 1.015,1.249 v -0.233 H 163.4 v 0.233 z m -1.249,-1.482 h -0.234 v 2.498 h 0.234 z m -0.234,0 h -0.235 v 2.498 h 0.235 z m 1.014,1.249 v -0.233 h -2.498 v 0.233 z m -1.249,-1.482 h -0.234 v 2.498 h 0.234 z m -0.234,0 h -0.235 v 2.498 h 0.235 z m 1.014,1.249 v -0.233 h -2.497 v 0.233 z m -1.249,-1.482 h -0.234 v 2.498 h 0.234 z m -0.234,0 h -0.234 v 2.498 h 0.234 z m 1.014,1.249 v -0.233 h -2.497 v 0.233 z m -1.248,-1.715 h -0.235 v 2.498 h 0.235 z m -0.235,0 h -0.234 v 2.498 h 0.234 z m -0.234,0 h -0.235 v 2.498 h 0.235 z m 1.014,1.249 v -0.233 h -2.497 v 0.233 z m -0.368,0.653 0.234,-0.233 -1.761,-1.772 -0.234,0.233 z m -0.646,-2.368 h -0.235 v 2.498 h 0.235 z m 1.014,1.016 v -0.233 h -2.497 v 0.233 z m 0,-0.233 v -0.233 h -2.497 v 0.233 z m 0,-0.233 v -0.233 h -2.497 v 0.233 z m -1.249,1.016 h 0.235 v -2.498 h -0.235 z m 0.235,0 h 0.234 v -2.498 h -0.234 z m 0.234,0 h 0.235 v -2.498 h -0.235 z m 1.483,-1.249 v -0.233 h -2.497 v 0.233 z m -1.248,1.016 h 0.234 v -2.498 h -0.234 z m 0.234,0 h 0.234 v -2.498 h -0.234 z m 1.483,-1.249 v -0.233 h -2.497 v 0.233 z m 0,-0.233 v -0.233 h -2.497 v 0.233 z m -1.249,1.016 h 0.235 v -2.498 h -0.235 z m 0.235,0 h 0.234 v -2.498 h -0.234 z m 1.483,-1.249 v -0.233 h -2.498 v 0.233 z m -1.249,-1.482 h -0.234 v 2.498 h 0.234 z m -0.234,0 h -0.235 v 2.498 h 0.235 z m -0.235,0 h -0.234 v 2.498 h 0.234 z m -0.234,0 h -0.234 v 2.498 h 0.234 z m 0.411,0.131 -0.234,-0.233 -1.761,1.771 0.235,0.233 z m -2.363,0.652 v 0.233 h 2.497 v -0.233 z m 1.249,-1.016 h -0.235 v 2.498 h 0.235 z m -0.235,0 h -0.234 v 2.498 h 0.234 z m 0.714,-0.035 -0.068,-0.067 -1.76,1.771 0.068,0.068 z m -0.948,-0.431 h -0.234 v 2.498 h 0.234 z m -0.234,0 h -0.235 v 2.498 h 0.235 z m -1.115,0.364 -0.235,0.233 1.761,1.771 0.234,-0.233 z m 0.646,-0.131 h -0.235 v 2.498 h 0.235 z m 1.014,1.249 v -0.233 h -2.497 v 0.233 z m 0,-0.233 v -0.233 h -2.497 v 0.233 z m 0,-0.233 v -0.233 h -2.497 v 0.233 z m -1.249,1.016 h 0.235 v -2.497 h -0.235 z m 1.483,-1.249 v -0.233 h -2.497 v 0.233 z m -1.248,1.016 h 0.234 v -2.497 h -0.234 z m 1.483,-1.249 v -0.233 h -2.498 v 0.233 z m -1.249,-1.481 h -0.234 v 2.497 h 0.234 z m 1.014,1.248 v -0.233 h -2.497 v 0.233 z m -1.248,1.016 h 0.234 v -2.497 h -0.234 z m 0.234,0 h 0.235 v -2.497 h -0.235 z m 1.115,-0.363 0.234,-0.233 -1.76,-1.771 -0.235,0.233 z m 0.603,-1.119 v -0.233 h -2.498 v 0.233 z m 0,-0.233 v -0.233 h -2.498 v 0.233 z m -1.249,1.016 h 0.234 v -2.497 h -0.234 z m 1.483,-1.249 v -0.233 h -2.497 v 0.233 z m 0,-0.233 v -0.233 h -2.497 v 0.233 z m 0,-0.233 v -0.233 h -2.497 v 0.233 z m -1.249,1.016 h 0.235 v -2.497 h -0.235 z m 1.483,-1.249 v -0.233 h -2.497 v 0.233 z m -1.248,-1.481 h -0.235 v 2.497 h 0.235 z m 1.014,1.248 v -0.233 h -2.497 v 0.233 z m -1.483,-1.714 h -0.234 v 2.497 h 0.234 z m -0.234,0 h -0.235 v 2.497 h 0.235 z m -1.484,1.248 v 0.233 h 2.498 v -0.233 z m 1.249,-1.015 h -0.234 v 2.497 h 0.234 z m -0.234,0 h -0.235 v 2.497 h 0.235 z m -0.235,0 h -0.234 v 2.497 h 0.234 z m -1.483,1.248 v 0.233 h 2.498 v -0.233 z m 1.249,-1.015 h -0.234 v 2.497 h 0.234 z m 1.014,1.248 v -0.233 h -2.497 v 0.233 z m -1.248,-1.481 h -0.235 v 2.497 h 0.235 z m -1.115,0.363 -0.235,0.233 1.761,1.771 0.234,-0.233 z m 1.526,0.233 -0.234,-0.233 -1.761,1.771 0.234,0.233 z m -1.115,1.901 h 0.235 v -2.497 h -0.235 z m 1.483,-1.249 v -0.233 h -2.497 v 0.233 z m 0,-0.233 v -0.233 h -2.497 v 0.233 z m 2.11,0.233 c 0,-0.828 -0.675,-1.481 -1.483,-1.481 v 2.497 a 1.014,1.014 0 0 1 -1.014,-1.016 z m -1.483,4.511 c 1.201,0 1.8,-1.453 0.948,-2.3 l -1.76,1.772 c -0.729,-0.725 -0.216,-1.97 0.812,-1.97 z m 5.783,1.314 c 0,-0.571 0.463,-1.016 1.015,-1.016 v 2.498 c 0.808,0 1.483,-0.654 1.483,-1.482 z m 0.469,-1.864 c 0,1.197 1.445,1.798 2.294,0.955 l -1.76,-1.772 c 0.726,-0.722 1.963,-0.207 1.963,0.817 z m 1.483,-1.482 c -0.808,0 -1.483,0.654 -1.483,1.482 h 2.497 c 0,0.571 -0.463,1.016 -1.014,1.016 z m 1.172,-5.591 c -0.808,0 -1.483,0.653 -1.483,1.481 h 2.497 c 0,0.571 -0.463,1.016 -1.014,1.016 z m -8.83,-3.246 c 0,-1.172 -1.415,-1.761 -2.247,-0.935 l 1.761,1.772 c -0.744,0.74 -2.012,0.212 -2.012,-0.837 z m -0.546,5.51 c 0.809,0 1.483,-0.654 1.483,-1.482 h -2.497 c 0,-0.57 0.463,-1.015 1.014,-1.015 z m 8.362,-1.482 c 0,-0.57 0.463,-1.015 1.014,-1.015 v 2.497 c 0.809,0 1.483,-0.654 1.483,-1.482 z m 0.663,-8.77 a 1.13,1.13 0 0 1 -1.132,-1.131 h 2.497 c 0,-0.754 -0.611,-1.366 -1.365,-1.366 z m -1.366,-1.365 c 0,0.754 0.611,1.365 1.366,1.365 v -2.497 c 0.624,0 1.131,0.507 1.131,1.132 z m 1.952,2.297 a 1.014,1.014 0 0 1 -1.015,-1.015 h 2.498 c 0,-0.828 -0.675,-1.482 -1.483,-1.482 z m -1.718,8.537 c 0,-0.57 0.463,-1.015 1.014,-1.015 v 2.497 c 0.809,0 1.483,-0.654 1.483,-1.482 z m -0.392,-14.762 c 0.551,0 1.014,0.445 1.014,1.016 h -2.497 c 0,0.828 0.674,1.482 1.483,1.482 z m -3.205,4.278 c 0,1.024 -1.237,1.539 -1.964,0.817 l 1.761,-1.772 c -0.849,-0.843 -2.294,-0.242 -2.294,0.955 z m -6.482,2.678 c 0,-0.629 0.511,-1.131 1.131,-1.131 v 2.497 c 0.75,0 1.366,-0.606 1.366,-1.366 z m 1.131,-1.131 c 0.62,0 1.132,0.502 1.132,1.132 h -2.498 c 0,0.759 0.617,1.365 1.366,1.365 z m 9.886,7.539 c 0,-0.57 0.463,-1.015 1.014,-1.015 v 2.497 c 0.808,0 1.483,-0.654 1.483,-1.482 z m -10.532,-4.264 c 0.745,-0.739 2.012,-0.212 2.012,0.837 h -2.497 c 0,1.172 1.415,1.761 2.246,0.935 z m 4.356,11.021 c 0,-0.828 -0.674,-1.482 -1.483,-1.482 v 2.498 a 1.014,1.014 0 0 1 -1.014,-1.016 z m 3.128,2.563 c 0,-1.024 1.238,-1.539 1.964,-0.817 l -1.76,1.771 c 0.848,0.844 2.294,0.243 2.294,-0.954 z m -6.71,-9.201 c 0.852,-0.846 0.253,-2.299 -0.948,-2.299 v 2.497 c -1.028,0 -1.541,-1.244 -0.812,-1.969 z m 1.238,-0.352 c 0,-0.828 -0.674,-1.481 -1.483,-1.481 v 2.497 a 1.014,1.014 0 0 1 -1.014,-1.016 z m 7.893,5.21 a 1.014,1.014 0 0 1 -1.014,-1.016 h 2.497 c 0,-0.828 -0.674,-1.481 -1.483,-1.481 z m -9.218,-12.898 c 0,0.828 0.674,1.481 1.483,1.481 v -2.497 c 0.551,0 1.014,0.445 1.014,1.016 z m 8.515,-2.48 c 0.808,0 1.483,-0.653 1.483,-1.481 h -2.497 c 0,-0.571 0.463,-1.016 1.014,-1.016 z m -6.721,10.634 c 0,0.571 -0.463,1.016 -1.014,1.016 v -2.497 c -0.809,0 -1.483,0.653 -1.483,1.481 z m -0.703,-6.64 c 0,0.625 -0.507,1.132 -1.132,1.132 v -2.497 c -0.754,0 -1.366,0.611 -1.366,1.365 z m 0.469,8.271 c 0,-0.828 -0.675,-1.481 -1.483,-1.481 v 2.497 a 1.015,1.015 0 0 1 -1.015,-1.016 z"
     fill="#ffffff"
     mask="url(#a)"
     id="path9"
     transform="matrix(2.4279138,0,0,2.4279138,-16.995397,-5.1270961)" />
  <path
     fill-rule="evenodd"
     clip-rule="evenodd"
     d="m 272.6183,341.10798 c -3.13686,-0.65068 -3.8361,-3.60788 -2.82852,-2.26524 0.11169,-1.17511 -1.06828,-2.61486 -2.99362,-2.09772 -2.65371,1.061 -2.02973,0.24765 -6.05521,3.79726 -2.73869,3.03004 -3.64916,1.60971 -3.95993,2.82852 -0.58027,0.18938 -2.45219,0.62883 -4.13474,3.3748 -1.51259,3.63459 -4.15173,-0.2258 -6.61121,2.28709 -4.20029,2.02974 -7.50225,6.18876 -8.48556,10.75809 -0.40303,3.82154 -0.94203,9.74079 -0.5657,12.45277 -1.67526,3.89923 1.23824,9.03912 2.82852,7.36143 -1.69711,1.37906 2.33808,3.62731 0,3.39666 -2.81638,0.49529 -6.30772,-2.8091 -7.91743,-0.56571 -1.12412,0.82549 -5.65704,1.16297 -6.22274,2.83095 -0.30349,1.92776 -4.54263,2.45462 -6.62092,0.96631 -0.79393,-2.30409 -4.95295,-1.92534 -6.38784,-3.23155 -2.82367,0.33262 -3.88466,3.2971 -6.78602,3.39665 -1.62428,0.61669 -2.39635,-5.65461 -3.95993,-3.96236 -2.33808,-2.30409 -6.64277,-0.29135 -4.52077,-4.53049 3.40393,-0.82791 -3.73899,-2.59786 -3.95993,-2.83094 -2.07344,-2.9135 -5.63276,3.95992 -6.22275,-1.69712 -1.23095,-1.94233 -3.91865,-2.85522 -6.78601,-1.13383 -1.20668,-2.97177 -3.56904,-3.05917 -6.6452,-4.18087 -1.60243,0.83763 -5.06949,-2.23854 -7.49497,-2.0443 -2.03217,0.32048 -1.94719,3.7754 -1.13141,5.63276 -0.33505,2.26767 -3.57632,-0.28164 -5.65704,1.16054 -1.34749,0.29135 -4.40181,-2.74354 -5.65461,0.5657 -0.33263,-1.07799 -3.4962,-3.3408 -4.52563,-1.69953 -3.91623,0.49529 -6.65734,2.18755 -8.48313,-1.69712 -0.74052,-2.32108 -3.15386,-1.57814 -5.09134,-3.39665 -1.46403,1.93748 -6.59664,0.59727 -7.35172,2.26282 -1.37177,-0.81578 -2.22154,-2.9135 -5.25644,-4.36296 0.0243,-4.64946 -5.0452,-2.2264 -7.16234,-2.43035 -1.6874,-2.21911 -5.35112,-2.64642 -6.78602,-3.39665 -4.74657,0.31563 -2.24825,-4.23913 -5.11562,-2.83094 2.22883,5.57206 -6.60392,1.06342 -2.82851,-0.56571 1.11441,-0.44673 2.65128,-5.23458 1.1314,-6.7933 -4.24885,-2.122 -5.31713,3.16114 -6.78844,-1.1047 -2.53232,-0.6434 -3.617595,0.78421 -4.525635,-2.85766 1.252803,-0.70409 4.151735,-0.52928 5.654615,-2.83094 1.82093,-3.36752 2.42548,-4.02063 4.36053,-8.32775 0.23551,-4.04733 1.11684,-7.27888 2.42791,-11.48646 0.0121,-2.45705 1.27466,-8.8546 2.26282,-12.4552 0.4176,-5.32441 0.88862,-9.80877 1.69711,-15.28614 1.07071,-5.69831 3.43793,-2.32109 4.5232,-3.39665 -0.10197,1.05128 0.72595,-0.55842 1.69712,0.5657 1.74081,-0.77208 -2.73869,-3.35538 0,-2.26524 -2.40364,-2.76782 -4.63732,-4.06676 -5.65462,-1.13141 -0.81092,5.38026 -1.52473,4.49407 -0.5657,-1.69711 0.53414,-9.79663 2.46676,-18.83576 2.26039,-28.87275 0.0704,-3.0009 2.71926,-7.05552 3.39422,-5.09619 -0.77207,0.38846 -0.46616,2.73626 3.39423,4.52806 0.57298,1.49559 4.44551,3.81668 5.65461,7.36143 -0.0388,4.43094 1.3402,7.04581 2.26281,8.49041 3.19271,3.62002 1.59514,2.35508 1.13141,0.56571 1.69468,2.6877 -0.28649,-1.2868 -1.13141,-3.93322 -0.29135,-4.04248 -0.95902,-7.77904 -2.09529,-10.78479 -1.22124,-2.84309 -1.43489,-2.98634 -3.55932,-4.53049 -0.4613,-0.69681 -1.82822,-2.27253 -3.39422,-2.26282 -1.27223,-3.47677 -2.17541,-2.49104 -3.95993,-3.39665 -3.98906,-4.48193 -2.76782,0.47102 -3.9575,-2.80424 -1.45675,-6.50195 4.29741,-3.33353 6.22032,-1.16054 1.64127,2.26767 2.80424,0.61183 -0.56571,0 -1.84278,-1.42033 -3.12715,-5.82942 -3.39422,-5.65947 4.01334,-0.0461 1.93747,-4.13231 1.69711,-4.53049 3.52533,-0.93717 4.16873,3.71471 2.82852,1.13384 2.67313,-1.06828 -6.4194,-2.12443 -1.72382,-2.26524 1.35235,-2.00789 -1.66798,-4.63975 -1.6704,-5.0962 -2.74112,-2.72411 0.75265,-1.52715 -3.3918,-2.26281 2.66099,-1.38391 4.27313,-9.79178 1.13141,-5.1229 -0.86191,1.23824 -5.90712,-5.14718 -2.82852,-1.6704 2.09286,4.17601 -2.03702,-3.4792 -5.49194,-1.29894 -0.57542,-4.12745 -5.80272,-2.28709 -6.38542,-4.36296 -0.80121,-0.98088 -4.564473,-1.21638 -4.525627,-5.66189 -1.284366,-3.36509 -3.797257,-4.94809 -4.525631,-6.79331 -1.131408,-1.61213 -6.142622,-3.3578 -5.088908,-7.36143 1.964183,-1.08528 4.984508,-4.93595 4.523204,-7.35901 -1.371771,-2.85522 -6.793303,-1.84278 -6.786019,-3.96235 2.753254,-0.21852 1.417901,-3.08103 1.930191,-5.32927 -0.373898,-3.97207 -1.983605,3.36508 -4.758711,0.80121 -0.437024,-0.7478 -2.918352,-0.5997 -4.523203,-1.13384 -4.593613,-1.32564 2.345365,-0.33019 -1.131408,-2.23611 -3.469489,-3.56175 2.471616,-2.47161 1.697112,-5.6886 -5.623049,-0.19909 6.392697,-2.82366 0.02428,-2.26524 -0.315629,-1.92291 -6.327143,-0.15053 -4.549911,0 -1.085277,-1.3912 2.597868,-1.2868 0.592411,-2.26525 1.529586,-1.96903 -0.888616,2.28467 -1.158114,0 0.606978,1.23096 -2.318658,0.51715 -1.131408,0.56814 0.944458,1.55629 -0.02428,1.16539 -2.82852,2.26281 -3.734131,0.84249 -3.350521,-3.0179 -5.0622,-2.26281 0.390894,-0.94689 0.978449,-1.39363 1.667977,0 1.602423,-0.66282 2.413346,0.0364 3.394223,0 1.947187,-2.85037 1.036719,-1.68983 2.262816,-3.96479 -1.884061,-0.44673 -0.437025,1.29408 -1.131408,1.69954 -2.736259,-0.88133 0.369043,-2.39392 -1.697112,-1.69954 0.301062,-2.627 -3.454921,2.25796 -3.391795,1.69954 -1.325641,0.36419 -1.99089,-0.12139 -1.935048,-1.03672 -0.94203,-3.09316 -0.893472,0.30592 0.237936,2.73383 -1.119268,-0.70895 -1.52473,0.0486 -2.82852,-2.82852 -0.478299,-3.27282 0.912896,3.75356 -0.565704,1.69712 -2.821235,-0.0607 -2.5833,-1.41548 -1.697111,3.96235 1.599995,2.88436 -2.775106,-0.89833 -1.131408,-1.69711 1.272227,-2.57359 -3.593313,-6.11106 -1.415474,-6.15233 2.194834,-1.5563 0.735658,-1.51988 1.415474,-1.77481 1.444609,-1.50045 -0.412746,-0.0316 -0.538997,-1.13141 0.912896,-1.01001 -1.796656,-0.4443 -0.02671,1.13141 -1.796656,1.03186 -0.667676,-0.24279 -1.697112,2.26524 0.971166,0.002 -6.052789,-2.33808 -3.957499,-1.69953 5.314703,0.2525 -2.789673,0.23065 1.131408,-2.26282 1.238236,-3.05917 1.871921,-3.82396 -0.565704,-0.5657 -0.575416,1.74081 -3.039748,-6.66706 -1.131408,0 1.257659,1.85249 -3.425787,4.54262 -3.959928,0.59241 -1.534441,-1.41791 -0.728374,-3.79969 -0.565704,-2.29195 0.427313,1.69954 -3.724419,1.78451 -3.959927,0.0243 -0.497722,1.67526 -3.569033,-1.53687 -0.565704,-1.15569 -0.490438,0.70409 -3.3748,-1.64856 -2.260388,-0.56813 1.357204,1.66797 -4.273128,3.07374 -4.525631,-0.56571 -0.456448,-0.0388 -0.701667,-1.95204 -2.262816,-2.83095 -0.908039,-1.02943 0.942031,4.35325 -3.394223,2.26525 1.075566,0.59241 -3.539898,-2.99848 -0.565704,-3.39665 0.497722,-0.21123 -0.44188,-3.9575 -1.12898,0.5657 -2.631858,0.70895 1.949615,1.66069 -0.565704,2.83095 -1.539297,-1.35963 -2.427914,0.25493 0,1.13141 -1.274655,2.4012 -0.891044,-0.0316 -3.908941,1.69954 0.640969,0.27435 -4.727148,-0.40061 -1.748098,-2.80424 -1.359632,-3.55933 -2.444909,-5.64005 -5.657039,-6.82001 2.864938,-2.50076 -1.279511,-1.48103 0,-0.56571 -1.320785,1.82822 -3.600596,-1.03429 -4.243993,-0.28406 -2.5784449,0.87404 -0.9541705,-2.57602 -0.8473423,-1.41548 5.2685733,-1.29893 4.1517323,-1.49074 8.4297163,-1.69711 2.088006,0.31077 5.700742,0.21366 3.447638,-2.83095 2.134136,-1.54901 -3.367516,-2.69013 -4.600897,-3.68071 -2.02488,-0.38361 -2.393923,5.31713 -3.318958,1.41547 1.473744,-2.11471 -3.156288,-3.08831 -0.563276,-3.39665 1.218813,-4.17116 0.699239,-0.91775 2.260388,-0.56571 -0.274354,-0.15538 3.751127,1.33536 7.354151,0 -1.044003,2.07101 1.160543,1.54901 3.957499,2.83095 2.367216,1.58543 -0.403033,-1.39362 -3.391795,-1.13383 -0.742942,-2.08073 2.993617,-1.84522 0,-2.26282 -1.044003,0.13596 0.449164,-1.37906 -2.82852,0 3.054316,-2.86494 0.155387,-1.51987 0,-2.26524 -2.347793,2.18512 -2.539598,1.57814 -2.828519,0 1.092561,-1.93748 7.380857,-4.46979 4.525631,-3.95993 -0.640969,2.23368 -7.686775,3.11987 -6.222743,2.26524 -1.14112,2.12686 -4.630032,2.59787 -3.955072,2.82852 C 2.6634214,127.50741 0.4151733,128.97387 0,127.11166 c 2.0394476,-0.83277 -1.8063679,-5.42396 2.2628157,-4.53049 -0.3641871,0.77208 -3.5253309,-3.58603 0.5389968,-3.96478 0.1311074,-2.50075 2.8479425,0.5657 5.0646285,0 1.956898,0.21851 -2.313802,0.46373 -2.209402,-2.26282 1.056143,0.63855 7.242467,2.50076 1.12898,0 -0.07526,-2.43034 1.915624,-0.70166 3.959927,-1.13383 -0.352047,-0.42246 3.38694,-3.47435 3.959928,-1.13141 0.128679,2.45219 3.204846,-1.36449 3.957499,-1.13383 4.649455,-0.11169 2.719264,-0.58513 5.091336,-1.69712 2.62943,-0.41274 0.37147,3.67344 2.262815,5.6619 -1.852498,-0.17967 1.383911,-6.12806 0.565704,-2.83338 2.435198,2.59787 2.471616,3.35781 1.697112,0.0243 0.08012,-1.14355 -0.182094,-3.55932 2.828519,-2.28952 3.454922,-1.50774 2.971767,5.0185 3.9575,0.59484 2.3745,2.10014 1.578144,-1.94476 2.262816,-2.86008 -1.539298,-0.48559 -1.196962,-1.36692 0.565704,-2.82852 0.451592,-0.93961 1.165398,-1.40819 2.262815,-0.002 1.262515,0.68467 3.586029,-0.38118 5.091335,-1.13141 3.246121,-2.64157 3.408791,1.78937 1.12898,2.26524 0.937175,2.01032 -0.194233,3.03004 1.529586,-0.7308 2.068583,-3.8361 5.139894,-3.22184 3.56175,-2.66585 -0.208801,2.15599 0.133535,0.99545 0,2.83095 -1.69954,1.36206 -1.665549,4.89225 -0.565704,3.96236 -2.493468,-1.52959 2.736259,-4.68588 2.262815,-5.0962 1.396051,2.41578 -2.058871,1.90834 1.670405,2.83095 1.631558,-0.24279 1.660693,4.00606 3.418503,3.96236 2.180266,1.41547 0.39575,4.95294 3.959927,5.09619 0.228224,2.65614 1.400906,2.91107 2.82852,2.26524 0.390894,-0.33262 2.010312,-4.42609 4.243993,-4.03519 1.298934,-3.22913 1.706823,-0.87405 4.21243,-2.18998 2.413347,-3.21698 1.942331,0.76722 1.158115,2.26282 1.359632,-3.39908 3.969639,0.38361 2.82852,1.69954 0.437024,0.64339 1.085277,-1.08285 2.828519,-2.26768 -1.29165,0.0291 2.488612,-1.9836 2.260388,-0.5657 1.456748,0.60698 1.396051,1.76752 1.697112,3.39665 2.075866,0.38361 -1.325641,3.93808 1.697112,1.70197 -0.764793,-1.48103 -0.961454,-3.47677 -0.565704,-2.83095 -2.709552,0.23794 -1.388767,-5.89254 0.565704,-4.53291 -0.160243,-1.31108 1.808795,-0.0388 3.394223,-1.69711 0.29135,0.97116 -3.224269,4.01091 1.670405,5.09376 5.426392,-0.60455 9.228502,-0.54628 12.469762,-1.69711 0.56085,-0.0971 -1.82822,-1.55387 -2.82852,-1.69954 -2.47161,-0.38361 -3.11015,-3.61031 -3.95992,-6.79331 -1.22367,1.04158 0.90561,-4.72229 1.69711,-5.09376 -2.52989,-3.595743 2.7921,-5.943536 -1.13141,-3.394226 -1.27465,0.665252 -0.5827,-5.105903 -1.13141,-7.927139 2.74354,-3.039748 -3.248546,-1.39605 -1.69468,-5.093763 -1.714109,-0.123824 -0.27193,-3.510763 -1.697113,-1.69954 -0.03885,-1.456748 -2.559022,-1.493167 -2.82852,-3.369944 -0.22094,-3.714708 -0.859481,-3.845815 -2.262816,-6.254306 5.135038,-4.057044 -2.952343,-5.967812 -1.697111,-9.058546 3.044604,0.747797 4.234281,2.172983 8.45885,2.830947 1.52716,1.131408 0.0777,0.946887 4.4965,0.565704 1.24066,-2.697412 6.93169,-3.224269 8.53897,0 0.47344,4.67859 -4.25128,3.064027 -0.5657,8.208777 2.44248,2.12928 3.60059,5.195735 1.69711,7.077368 1.7481,-1.427613 2.44491,-1.34992 6.22031,-2.830947 0.61669,-1.434897 6.63306,3.32867 8.48313,1.69954 5.20545,0.847341 9.56356,0.320484 13.83183,2.830947 4.78785,2.049159 9.81605,-3.862811 13.88281,-6.227599 8.50741,-0.252503 1.55387,-0.619118 -2.68527,-1.626702 -1.88406,-2.867366 -1.01973,-4.159016 0.25736,-6.465535 1.49316,-4.294979 -0.51472,-1.740814 1.2965,-4.336254 1.59029,-1.311073 7.10651,-3.073738 7.91986,-4.557194 2.5396,-1.077994 4.92138,-3.525331 8.48313,-3.962355 1.97875,1.352348 6.96811,-3.102874 9.61454,-1.69954 3.76326,-1.901056 5.60119,-3.195134 6.78844,-3.962355 2.9742,-3.54961 3.72442,-2.49104 5.65461,-5.093763 0.43703,-2.430342 4.1833,-7.424561 3.95993,-4.530487 4.98694,3.020324 2.11229,-1.74567 1.62185,-0.84977 -0.19181,-0.155387 -4.21972,-3.214558 -2.18755,-7.074941 4.23671,1.131408 1.97875,0.403034 0.5657,-1.133836 -0.0291,-4.098318 -0.41274,-9.245495 2.80181,-5.657039 3.42822,1.973894 -2.41334,-0.878905 -1.74809,-1.983605 -2.25311,-1.359632 -0.41518,-9.391171 -1.05372,-8.211205 2.661,0.903184 -0.88861,-7.9441337 1.13141,-7.3590067 1.39848,0.3787547 4.1663,-4.4430819 7.35172,-4.5280589 0.007,-0.084977 1.77238,-0.7380858 3.39665,-0.5657039 2.6003,-2.6877006 6.17662,0.8109232 4.52564,-1.1338357 0.69681,-1.5077345 1.65826,-0.169954 2.26038,-0.563276 -2.35993,-1.1338358 4.63732,-1.4810274 6.76174,-1.6995397 4.52078,-3.8263922 4.11775,0.9784493 6.24945,3.3966514 -0.0534,2.0151685 -0.21851,4.7247198 -0.56813,6.2275985 2.45219,1.267371 4.79513,3.908941 5.55507,4.775707 0.5657,2.316229 4.13231,3.782689 5.19331,0.88376 -1.38634,-1.022152 3.34566,-1.585428 5.0889,-2.828519 1.40819,0.832774 3.02761,4.142021 3.95993,5.661895 -0.25979,2.274955 1.11927,5.518648 1.13141,6.227598 0.14567,2.265244 4.51835,2.906213 6.75931,0.565704 -2.4182,4.297408 6.30044,-0.449164 4.55234,6.227599 -0.26707,-0.157814 0.88133,5.972668 1.13141,3.964783 1.4009,1.068283 0.59726,-3.042175 4.52563,-1.699539 1.60242,2.702268 5.75415,-2.090434 6.78602,1.699539 1.63398,1.417902 1.86221,3.156288 3.93322,2.262816 0.59241,2.129281 -2.7047,3.612736 -2.23611,6.766596 2.4182,-1.046431 2.63914,0.679816 2.26281,3.423358 -3.40879,0.932319 -1.6534,4.071612 -0.5657,4.530488 4.38967,-1.09499 4.81698,1.167826 8.90559,0.636113 2.81638,-1.019724 7.71105,-2.835803 6.36599,-5.732305 -0.13839,-3.695284 7.95627,-5.649755 5.08891,-2.265243 0.75265,0.995445 -1.61699,2.194834 -1.13141,5.661895 -2.35508,2.267671 4.3144,4.49164 1.13141,6.227599 -1.19939,3.3748 0.97602,3.435498 4.52563,3.396651 3.16114,1.818508 3.56417,4.001202 6.22031,5.096191 2.38421,-2.894073 2.9742,4.96994 3.95993,2.265244 4.09589,0.728374 2.33808,6.531088 3.95993,5.659467 4.21243,0.201517 5.48708,-2.580873 8.48313,-1.131408 1.99089,-2.707124 2.14627,2.622147 6.22274,2.265244 1.19211,4.066755 4.77571,-0.279211 5.82214,-0.06798 2.75568,-2.906213 3.55446,0.886189 6.59421,1.199389 0.19909,-0.660392 3.79483,-0.199089 5.11562,1.69954 -0.66282,-1.522302 2.02973,4.28284 1.4616,3.301963 -2.61729,0.650681 3.11987,3.202418 1.93262,4.057044 1.86464,1.34992 0.87405,5.34141 5.06463,5.093763 0.99544,-1.675261 1.38391,-4.370245 5.11561,-1.697112 1.57086,2.027308 2.30652,3.168428 3.39423,2.804241 2.38664,0.121395 1.78937,0.900756 5.65461,0.592411 0.1918,-0.101973 4.89224,-4.277985 4.52563,-2.265244 2.24825,-0.490439 1.19939,4.168728 5.09133,4.530487 3.04461,2.175411 3.30682,0.04856 7.32502,1.131408 2.11957,-0.01457 3.28982,-0.281638 6.24945,2.265242 2.27981,1.857354 6.93412,0.26707 3.47434,2.913504 -1.38391,3.07616 -2.50075,6.298 -4.60575,7.84216 -1.46646,0.28406 -4.11531,4.73443 -5.65704,6.7933 -2.09286,2.3138 -1.05614,6.12077 -2.54445,8.49042 -0.4953,4.0449 -1.49802,7.07979 -3.67586,11.32136 -2.76782,2.41334 -1.65341,7.60422 -0.28407,9.62425 -2.13656,2.45947 -2.44734,7.78146 -2.37935,10.92561 -2.2701,3.3141 4.55962,6.9414 -1.29651,8.32532 1.81851,0.40546 0.034,3.79725 -2.26282,2.26281 2.19484,3.20485 -3.76083,1.93019 -5.25643,3.22913 -2.96205,-0.3739 -0.96145,-4.53292 -4.3581,-3.22913 -4.37996,-1.71168 -3.25826,1.28437 -5.09134,3.93565 -4.13474,2.80667 1.05857,1.81365 3.39422,1.72625 0.7041,3.58845 -4.48921,1.94961 -2.82852,5.09619 -0.45402,0.8522 -3.69771,3.66372 -3.95749,5.09376 -4.90925,1.45432 -2.06616,2.97905 -5.65704,5.6619 -1.89863,1.72381 -8.2452,1.90348 -5.09134,5.66189 -0.75508,3.17086 -1.41304,6.77145 -3.39179,6.7933 -1.89621,2.09044 -6.32715,4.75871 -7.35416,6.79331 2.35994,1.83307 -1.86463,4.22457 -1.69711,6.7933 5.81971,1.49802 0.35933,4.93838 1.69711,7.3323 -0.79878,0.99302 -4.32654,-0.32291 -3.9575,2.85765 -1.59028,3.71957 0.9129,0.87648 4.52321,2.26525 2.19969,-3.7657 3.76326,-1.8695 5.09133,-5.06706 -3.37965,0.50986 -0.83277,-8.07038 2.82852,-3.99149 2.95477,-2.71684 5.56478,-3.02032 11.18055,-2.83095 1.16782,1.6874 0.31562,3.72928 2.9572,6.2276 -3.98178,3.35052 -0.69439,6.24945 0.5657,7.36144 -1.22853,4.14687 1.84764,-0.89833 2.82852,3.93322 2.84309,0.76479 1.17268,4.22942 1.13141,5.12289 -2.07587,2.28953 -4.62032,1.8525 -6.22032,2.83095 -0.78664,4.59362 0.9396,5.4531 3.9575,7.36144 2.80667,-1.2868 -0.16267,6.91227 3.36752,6.7933 0.56813,1.92776 6.34899,4.09346 2.28952,6.7933 -0.33748,2.26282 1.16297,3.30197 -1.20667,5.37783 -3.71471,-0.7915 -3.90894,1.1824 -6.14748,3.11259 -0.33263,0.18937 -6.38299,-0.92261 -7.35172,1.13383 -1.23581,3.166 3.40393,3.44278 3.39422,5.6619 0.4783,1.87435 -0.74537,3.55932 2.26282,4.52806 3.21213,1.43247 7.0628,1.25523 5.65461,4.52806 2.89893,4.01334 -0.1821,1.88649 -1.69712,6.17418 0.85949,1.11199 -5.08405,4.47707 -1.69711,6.84672 2.60273,2.34536 -2.29438,4.15173 1.13141,6.2276 1.82579,2.66342 3.64916,4.46736 6.78845,4.53048 2.53474,2.16085 5.88041,4.83884 9.02213,3.39666 3.11501,0.0995 6.02122,-3.95022 6.41454,-0.63612 2.0783,2.58087 0.41518,4.79999 -0.7308,7.42942 -3.0616,1.02943 -5.75658,4.8971 -3.39422,7.92471 -2.07101,-0.15782 -3.59574,2.57359 -4.49893,2.26524 -2.07586,1.43247 -1.8185,1.57086 -2.28952,1.69954 -1.54658,-1.71896 -3.17328,1.76267 -5.08891,2.26282 -1.00272,3.79968 0.50501,4.02062 -1.1314,2.26524 -0.78908,1.30865 -6.69133,1.68012 -4.52564,2.83095 -1.15325,1.68497 -1.6267,4.52806 -5.65461,3.96235 -1.54658,-0.27678 -2.49589,4.9918 -4.49892,4.53049 -2.96934,2.63186 2.12442,0.26707 2.23611,2.23611 -1.49802,1.48103 -1.51502,5.63276 -3.95993,2.29195 -1.7481,3.47192 -5.18117,0.11168 -6.22031,3.39665 0.47344,1.7481 -1.10713,0.67982 -2.26282,0 -3.43307,-1.97632 -5.62062,6.25674 -4.52563,2.83095 -0.67739,-2.62215 -5.11319,-0.87405 -4.52321,-2.83095 -1.90591,1.2868 -1.07799,-1.11684 -2.26281,0 -1.01972,-0.71623 -0.50501,1.59271 0.5657,1.69954 1.078,-0.80607 -4.63731,1.77966 -3.67829,0.0753 0.47587,-1.7044 -1.58057,-3.34081 -1.97875,-2.34051 -1.95932,-0.47587 -0.69195,-2.67799 -3.95992,-2.26525 -1.79666,0.82307 -2.52989,-1.96175 -5.08891,-1.1314 -2.00546,0.93717 -3.64187,-1.10228 -2.26282,-4.50136 -1.14112,-0.82306 -0.96631,-3.22426 -3.39422,-0.59483 -6.65248,-0.24522 -6.80059,1.41061 -7.91743,-2.80182 -1.14597,-1.60728 -4.19058,-0.36176 -3.39422,-0.59484 -0.69681,-2.72412 -1.22367,0.81578 -1.13141,1.13384 -0.57299,0.68224 3.20728,0.12625 0.96631,1.52959 -1.68254,1.23823 -9.97387,0.002 -9.44944,-1.52959 4.08375,-2.72169 -5.71045,-3.28982 -4.52563,-2.83095 -0.60941,0.45645 -3.36752,-0.26707 -5.65461,0 m -68.43804,41.32795 c 2.73384,2.51046 0.33506,-4.32654 0,0"
     fill="#c9c9fc"
     id="path11"
     style="stroke-width:2.42791" />
  <mask
     id="b"
     fill="#ffffff">
    <path
       fill-rule="evenodd"
       clip-rule="evenodd"
       d="m 61.703,61.61 a 4,4 0 0 0 -4,4 v 13.57 a 4,4 0 0 0 4,4 h 8.661 l 4.37,5.675 4.368,-5.675 h 7.52 a 4,4 0 0 0 4,-4 V 65.61 a 4,4 0 0 0 -4,-4 z"
       id="path13" />
  </mask>
  <path
     fill-rule="evenodd"
     clip-rule="evenodd"
     d="m 132.81417,144.45668 a 9.7116552,9.7116552 0 0 0 -9.71166,9.71165 v 32.94679 a 9.7116552,9.7116552 0 0 0 9.71166,9.71166 h 21.02816 l 10.60998,13.77841 10.60513,-13.77841 h 18.25791 a 9.7116552,9.7116552 0 0 0 9.71166,-9.71166 v -32.94679 a 9.7116552,9.7116552 0 0 0 -9.71166,-9.71165 z"
     fill="#c7c7fa"
     id="path16"
     style="stroke-width:2.42791" />
  <path
     d="m 70.364,83.179 0.793,-0.61 -0.3,-0.39 h -0.493 z m 4.37,5.675 -0.793,0.61 0.792,1.03 0.793,-1.03 z m 4.368,-5.675 v -1 H 78.61 l -0.3,0.39 z M 58.703,65.61 a 3,3 0 0 1 3,-3 v -2 a 5,5 0 0 0 -5,5 z m 0,13.568 V 65.61 h -2 v 13.568 z m 3,3 a 3,3 0 0 1 -3,-3 h -2 a 5,5 0 0 0 5,5 z m 8.661,0 h -8.66 v 2 h 8.66 z m 5.162,6.065 -4.37,-5.675 -1.584,1.22 4.369,5.675 z m 2.784,-5.675 -4.37,5.675 1.586,1.22 4.369,-5.675 z m 8.313,-0.39 h -7.52 v 2 h 7.52 z m 3,-3 a 3,3 0 0 1 -3,3 v 2 a 5,5 0 0 0 5,-5 z m 0,-13.568 v 13.568 h 2 V 65.61 Z m -3,-3 a 3,3 0 0 1 3,3 h 2 a 5,5 0 0 0 -5,-5 z m -24.92,0 h 24.92 v -2 h -24.92 z"
     fill="#fefefe"
     mask="url(#b)"
     id="path18"
     transform="matrix(2.4279138,0,0,2.4279138,-16.995397,-5.1270961)" />
  <path
     fill="#ffffff"
     d="m 136.89306,152.72615 h 52.36525 v 33.07304 h -52.36525 z"
     id="path20"
     style="stroke-width:2.42791" />
  <path
     fill="#ffffff"
     d="m 136.89306,152.72615 h 52.36525 v 33.07304 h -52.36525 z"
     id="path22"
     style="stroke-width:2.42791" />
  <path
     fill="#ffffff"
     d="m 136.89306,152.72615 h 52.36525 v 33.07304 h -52.36525 z"
     id="path24"
     style="stroke-width:2.42791" />
  <path
     fill="#ffffff"
     d="m 136.89306,152.72615 h 52.36525 v 33.07304 h -52.36525 z"
     id="path26"
     style="stroke-width:2.42791" />
  <path
     fill="#ffffff"
     d="m 136.89306,152.72615 h 52.36525 v 33.07304 h -52.36525 z"
     id="path28"
     style="stroke-width:2.42791" />
  <path
     d="m 136.89306,152.72615 h 52.36282 v 8.26705 h -52.36282 z"
     fill="#000091"
     id="path30"
     style="stroke-width:2.42791" />
  <circle
     cx="143.77135"
     cy="156.86089"
     fill="#ce0500"
     r="1.379055"
     id="circle32"
     style="stroke-width:2.42791" />
  <circle
     cx="149.23416"
     cy="156.86089"
     fill="#b34000"
     r="1.379055"
     id="circle34"
     style="stroke-width:2.42791" />
  <circle
     cx="154.81107"
     cy="156.86089"
     fill="#169b62"
     r="1.379055"
     id="circle36"
     style="stroke-width:2.42791" />
  <path
     d="m 164.42561,178.90877 c 0,0 -5.51137,-5.51136 -5.51137,-6.89042 0,-0.84734 0.55114,-2.75568 2.75568,-2.75568 2.20455,0 2.75569,2.29681 2.75569,2.75568 0,-0.4613 0.55356,-2.75568 2.75811,-2.75568 1.77237,0 2.75568,1.23338 2.75568,2.75568 0,1.37906 -5.51137,6.89042 -5.51137,6.89042"
     fill="#ff5655"
     stroke="#ff5655"
     stroke-width="0.5"
     stroke-linecap="round"
     stroke-linejoin="round"
     id="path38" />
  <rect
     x="153.43201"
     y="163.7513"
     width="22.047886"
     height="19.292204"
     rx="2.4279139"
     stroke="#8585f6"
     stroke-width="0.3"
     stroke-linecap="round"
     stroke-linejoin="round"
     stroke-dasharray="0.6, 0.6"
     id="rect40" />
  <path
     d="m 179.61463,177.53215 -6.89041,-2.75569 m 0,0 2.75568,6.89042 m -2.75568,-6.89042 6.88799,6.89042"
     stroke="#000091"
     stroke-width="1.21396"
     stroke-linecap="round"
     stroke-linejoin="round"
     id="path42" />
  <mask
     id="c"
     fill="#ffffff">
    <path
       fill-rule="evenodd"
       clip-rule="evenodd"
       d="m 100,98.089 a 4,4 0 0 0 -4,4 v 13.568 a 4,4 0 0 0 4,4 h 8.661 l 4.369,5.676 4.369,-5.676 h 7.521 a 4,4 0 0 0 4,-4 v -13.568 a 4,4 0 0 0 -4,-4 z"
       id="path44" />
  </mask>
  <path
     fill-rule="evenodd"
     clip-rule="evenodd"
     d="m 225.79598,233.02454 a 9.7116552,9.7116552 0 0 0 -9.71165,9.71166 v 32.94193 a 9.7116552,9.7116552 0 0 0 9.71165,9.71166 h 21.02816 l 10.60756,13.78084 10.60756,-13.78084 h 18.26033 a 9.7116552,9.7116552 0 0 0 9.71166,-9.71166 V 242.7362 a 9.7116552,9.7116552 0 0 0 -9.71166,-9.71166 z"
     fill="#c7c7fa"
     id="path47"
     style="stroke-width:2.42791" />
  <path
     d="m 108.661,119.657 0.792,-0.61 -0.3,-0.39 h -0.492 z m 4.369,5.676 -0.792,0.61 0.792,1.029 0.793,-1.029 z m 4.369,-5.676 v -1 h -0.492 l -0.3,0.39 z M 97,102.089 a 3,3 0 0 1 3,-3 v -2 a 5,5 0 0 0 -5,5 z m 0,13.568 v -13.568 h -2 v 13.568 z m 3,3 a 3,3 0 0 1 -3,-3 h -2 a 5,5 0 0 0 5,5 z m 8.661,0 H 100 v 2 h 8.661 z m 5.162,6.066 -4.37,-5.676 -1.584,1.22 4.369,5.676 z m 2.784,-5.676 -4.369,5.676 1.585,1.22 4.369,-5.676 z m 8.313,-0.39 h -7.521 v 2 h 7.521 z m 3,-3 a 3,3 0 0 1 -3,3 v 2 a 5,5 0 0 0 5,-5 z m 0,-13.568 v 13.568 h 2 v -13.568 z m -3,-3 a 3,3 0 0 1 3,3 h 2 a 5,5 0 0 0 -5,-5 z m -24.92,0 h 24.92 v -2 H 100 Z"
     fill="#fefefe"
     mask="url(#c)"
     id="path49"
     transform="matrix(2.4279138,0,0,2.4279138,-16.995397,-5.1270961)" />
  <path
     fill="#ffffff"
     d="m 229.87488,241.29159 h 52.36524 v 33.07304 h -52.36524 z"
     id="path51"
     style="stroke-width:2.42791" />
  <path
     fill="#ffffff"
     d="m 229.87488,241.29159 h 52.36524 v 33.07304 h -52.36524 z"
     id="path53"
     style="stroke-width:2.42791" />
  <path
     fill="#ffffff"
     d="m 229.87488,241.29159 h 52.36524 v 33.07304 h -52.36524 z"
     id="path55"
     style="stroke-width:2.42791" />
  <path
     fill="#ffffff"
     d="m 229.87488,241.29159 h 52.36524 v 33.07304 h -52.36524 z"
     id="path57"
     style="stroke-width:2.42791" />
  <path
     fill="#ffffff"
     d="m 229.87488,241.29159 h 52.36524 v 33.07304 h -52.36524 z"
     id="path59"
     style="stroke-width:2.42791" />
  <path
     d="m 229.87488,241.29159 h 52.36524 v 8.26947 h -52.36524 z"
     fill="#000091"
     id="path61"
     style="stroke-width:2.42791" />
  <circle
     cx="236.71431"
     cy="245.42632"
     fill="#ce0500"
     r="1.379055"
     id="circle63"
     style="stroke-width:2.42791" />
  <circle
     cx="242.2354"
     cy="245.42632"
     fill="#b34000"
     r="1.379055"
     id="circle65"
     style="stroke-width:2.42791" />
  <circle
     cx="247.77347"
     cy="245.42632"
     fill="#169b62"
     r="1.379055"
     id="circle67"
     style="stroke-width:2.42791" />
  <path
     d="m 257.39043,267.47421 c 0,0 -5.5138,-5.51136 -5.5138,-6.89042 0,-0.84491 0.55114,-2.75568 2.75569,-2.75568 2.20454,0 2.75811,2.29681 2.75811,2.75568 0,-0.45887 0.55113,-2.75568 2.75568,-2.75568 1.77237,0 2.75568,1.23338 2.75568,2.75568 0,1.37906 -5.51136,6.89042 -5.51136,6.89042"
     fill="#ff5655"
     stroke="#ff5655"
     stroke-width="0.5"
     stroke-linecap="round"
     stroke-linejoin="round"
     id="path69" />
  <rect
     x="246.39441"
     y="252.31674"
     width="22.047886"
     height="19.292204"
     rx="2.4279139"
     stroke="#8585f6"
     stroke-width="0.3"
     stroke-linecap="round"
     stroke-linejoin="round"
     stroke-dasharray="0.6, 0.6"
     id="rect71" />
  <path
     d="m 272.57703,266.09759 -6.89042,-2.75569 m 0,0 2.75568,6.89042 m -2.75568,-6.89042 6.89042,6.89042"
     stroke="#000091"
     stroke-width="1.21396"
     stroke-linecap="round"
     stroke-linejoin="round"
     id="path73" />
  <mask
     id="d"
     fill="#ffffff">
    <path
       fill-rule="evenodd"
       clip-rule="evenodd"
       d="m 107.109,38.479 a 4,4 0 0 0 -4,4 v 13.568 a 4,4 0 0 0 4,4 h 8.662 l 4.369,5.675 4.368,-5.675 h 7.521 a 4,4 0 0 0 4,-4 V 42.479 a 4,4 0 0 0 -4,-4 z"
       id="path75" />
  </mask>
  <path
     fill-rule="evenodd"
     clip-rule="evenodd"
     d="m 243.05602,88.296599 a 9.7116552,9.7116552 0 0 0 -9.71165,9.711657 v 32.941934 a 9.7116552,9.7116552 0 0 0 9.71165,9.71166 h 21.03059 l 10.60756,13.77841 10.60512,-13.77841 h 18.26034 a 9.7116552,9.7116552 0 0 0 9.71166,-9.71166 V 98.008256 a 9.7116552,9.7116552 0 0 0 -9.71166,-9.711657 z"
     fill="#c7c7fa"
     id="path78"
     style="stroke-width:2.42791" />
  <path
     d="m 115.771,60.047 0.792,-0.61 -0.3,-0.39 h -0.492 z m 4.369,5.675 -0.793,0.61 0.793,1.03 0.792,-1.03 z m 4.368,-5.675 v -1 h -0.492 l -0.3,0.39 z M 104.109,42.479 a 3,3 0 0 1 3,-3 v -2 a 5,5 0 0 0 -5,5 z m 0,13.568 V 42.479 h -2 v 13.568 z m 3,3 a 3,3 0 0 1 -3,-3 h -2 a 5,5 0 0 0 5,5 z m 8.662,0 h -8.662 v 2 h 8.662 z m 5.161,6.065 -4.369,-5.675 -1.585,1.22 4.369,5.675 z m 2.784,-5.675 -4.369,5.675 1.585,1.22 4.369,-5.675 z m 8.313,-0.39 h -7.521 v 2 h 7.521 z m 3,-3 a 3,3 0 0 1 -3,3 v 2 a 5,5 0 0 0 5,-5 z m 0,-13.568 v 13.568 h 2 V 42.479 Z m -3,-3 a 3,3 0 0 1 3,3 h 2 a 5,5 0 0 0 -5,-5 z m -24.92,0 h 24.92 v -2 h -24.92 z"
     fill="#fefefe"
     mask="url(#d)"
     id="path80"
     transform="matrix(2.4279138,0,0,2.4279138,-16.995397,-5.1270961)" />
  <path
     fill="#ffffff"
     d="m 247.13492,96.563645 h 52.36524 v 33.073045 h -52.36524 z"
     id="path82"
     style="stroke-width:2.42791" />
  <path
     fill="#ffffff"
     d="m 247.13492,96.563645 h 52.36524 v 33.073045 h -52.36524 z"
     id="path84"
     style="stroke-width:2.42791" />
  <path
     fill="#ffffff"
     d="m 247.13492,96.563645 h 52.36524 v 33.073045 h -52.36524 z"
     id="path86"
     style="stroke-width:2.42791" />
  <path
     fill="#ffffff"
     d="m 247.13492,96.563645 h 52.36524 v 33.073045 h -52.36524 z"
     id="path88"
     style="stroke-width:2.42791" />
  <path
     fill="#ffffff"
     d="m 247.13492,96.563645 h 52.36524 v 33.073045 h -52.36524 z"
     id="path90"
     style="stroke-width:2.42791" />
  <path
     d="m 247.13492,96.563645 h 52.36524 v 8.267055 h -52.36524 z"
     fill="#000091"
     id="path92"
     style="stroke-width:2.42791" />
  <circle
     cx="253.97678"
     cy="100.69596"
     fill="#ce0500"
     r="1.379055"
     id="circle94"
     style="stroke-width:2.42791" />
  <circle
     cx="259.47601"
     cy="100.69596"
     fill="#b34000"
     r="1.379055"
     id="circle96"
     style="stroke-width:2.42791" />
  <circle
     cx="265.01651"
     cy="100.69596"
     fill="#169b62"
     r="1.379055"
     id="circle98"
     style="stroke-width:2.42791" />
  <path
     d="m 274.65046,122.74627 c 0,0 -5.51136,-5.51136 -5.51136,-6.89042 0,-0.84734 0.55114,-2.75568 2.75568,-2.75568 2.20455,0 2.75568,2.29681 2.75568,2.75568 0,-0.4613 0.55114,-2.75568 2.75569,-2.75568 1.7748,0 2.75568,1.23338 2.75568,2.75568 0,1.37663 -5.51137,6.89042 -5.51137,6.89042"
     fill="#ff5655"
     stroke="#ff5655"
     stroke-width="0.5"
     stroke-linecap="round"
     stroke-linejoin="round"
     id="path100" />
  <rect
     x="263.63745"
     y="107.58636"
     width="22.047886"
     height="19.292204"
     rx="2.4279139"
     stroke="#8585f6"
     stroke-width="0.3"
     stroke-linecap="round"
     stroke-linejoin="round"
     stroke-dasharray="0.6, 0.6"
     id="rect102" />
  <path
     d="m 289.81764,121.36722 -6.89042,-2.75569 m 0,0 2.75568,6.888 m -2.75568,-6.888 6.89042,6.888"
     stroke="#000091"
     stroke-width="1.21396"
     stroke-linecap="round"
     stroke-linejoin="round"
     id="path104" />
</svg>
