<svg width="476" height="437" viewBox="0 0 476 437" fill="none" xmlns="http://www.w3.org/2000/svg"><g clip-path="url(#a)"><path d="M476 0H0v437h476z" fill="#E3E3FD"/><mask id="b" style="mask-type:luminance" maskUnits="userSpaceOnUse" x="0" y="0" width="476" height="64"><path d="M0 0h476v64H0z" fill="#fff"/></mask><g mask="url(#b)"><path d="M0 0h476v64H0z" fill="#fff"/><path d="M476 0H0v64h476z" fill="#fff"/><path fill-rule="evenodd" clip-rule="evenodd" d="M81 29.332c.368 0 .666.299.666.667v9l-2.97-2.334H73a.667.667 0 0 1-.667-.666v-.667h6.825l1.175.923v-6.923zm-2.667-4c.368 0 .667.299.667.667v8h-8.364l-2.97 2.333V25.999c0-.368.299-.667.667-.667zm-.666 1.333H69v6.924l1.175-.924h7.492z" fill="#000091"/><path d="M92.876 38v-9.8h2.072l5.04 7.741V28.2h1.609V38h-2.085l-5.04-7.742V38zm14.588-7.337c2.296 0 3.836 1.722 3.836 3.808s-1.54 3.808-3.836 3.808c-2.282 0-3.836-1.722-3.836-3.808s1.554-3.808 3.836-3.808m.014 6.258c1.33 0 2.31-1.106 2.31-2.45 0-1.372-.98-2.45-2.31-2.45-1.358 0-2.338 1.092-2.338 2.45s.98 2.45 2.338 2.45m10.412-1.946v-4.032h1.456v3.962c0 2.114-1.218 3.374-3.192 3.374-1.988 0-3.206-1.26-3.206-3.374v-3.962h1.456v4.032c0 1.218.644 1.946 1.75 1.946 1.078 0 1.736-.728 1.736-1.946m2.906 2.03.994-.868c.462.588 1.022.966 1.722.966.686 0 1.064-.42 1.064-.952 0-1.428-3.458-.91-3.458-3.402 0-1.162.98-2.086 2.394-2.086 1.036 0 1.946.504 2.45 1.176l-.98.854c-.378-.504-.868-.854-1.456-.854-.672 0-1.008.392-1.008.868 0 1.414 3.458.938 3.458 3.36-.014 1.386-1.134 2.212-2.45 2.212-1.19 0-2.072-.476-2.73-1.274m14.067-.084a2.23 2.23 0 0 0 1.834-.938l1.134.868c-.644.868-1.68 1.428-2.982 1.428-2.366 0-3.85-1.75-3.85-3.808s1.484-3.808 3.85-3.808c1.288 0 2.338.56 2.982 1.428l-1.134.868a2.24 2.24 0 0 0-1.848-.938c-1.358 0-2.338 1.064-2.338 2.45 0 1.4.98 2.45 2.352 2.45m7.478-6.258c2.296 0 3.836 1.722 3.836 3.808s-1.54 3.808-3.836 3.808c-2.282 0-3.836-1.722-3.836-3.808s1.554-3.808 3.836-3.808m.014 6.258c1.33 0 2.31-1.106 2.31-2.45 0-1.372-.98-2.45-2.31-2.45-1.358 0-2.338 1.092-2.338 2.45s.98 2.45 2.338 2.45M147.979 38v-7.056h1.442v.686c.532-.56 1.232-.966 2.24-.966 1.554 0 2.744 1.05 2.744 3.094V38h-1.456v-4.186c0-1.12-.616-1.792-1.624-1.792-.966 0-1.54.602-1.904 1.218V38zm9.088-2.45v-3.304h-1.33v-1.302h1.33V29.18h1.456v1.764h2.338v1.302h-2.338v3.304c0 .952.504 1.26 1.288 1.26.476 0 .798-.056 1.05-.154v1.274c-.336.14-.728.21-1.274.21-1.652 0-2.52-.868-2.52-2.59m7.459 2.66c-1.4 0-2.352-.798-2.352-2.044 0-1.064.826-1.834 2.324-2.086l2.282-.378v-.364c0-.868-.644-1.4-1.554-1.4-.77 0-1.372.35-1.778.924l-1.078-.826c.63-.84 1.638-1.372 2.898-1.372 1.904 0 2.954 1.12 2.954 2.674V38h-1.442v-.798c-.504.616-1.386 1.008-2.254 1.008m-.896-2.1c0 .546.434.924 1.162.924.882 0 1.568-.42 1.988-1.092v-1.218l-1.904.322c-.882.154-1.246.532-1.246 1.064m10.157.812a2.23 2.23 0 0 0 1.834-.938l1.134.868c-.644.868-1.68 1.428-2.982 1.428-2.366 0-3.85-1.75-3.85-3.808s1.484-3.808 3.85-3.808c1.288 0 2.338.56 2.982 1.428l-1.134.868a2.24 2.24 0 0 0-1.848-.938c-1.358 0-2.338 1.064-2.338 2.45 0 1.4.98 2.45 2.352 2.45m4.909-1.372v-3.304h-1.33v-1.302h1.33V29.18h1.456v1.764h2.338v1.302h-2.338v3.304c0 .952.504 1.26 1.288 1.26.476 0 .798-.056 1.05-.154v1.274c-.336.14-.728.21-1.274.21-1.652 0-2.52-.868-2.52-2.59m11.746 1.302c-.658.882-1.736 1.428-3.052 1.428-2.436 0-3.878-1.75-3.878-3.808 0-2.114 1.344-3.808 3.584-3.808 1.946 0 3.206 1.33 3.206 3.122 0 .322-.042.644-.098.854h-5.208c.098 1.54 1.036 2.338 2.394 2.338.854 0 1.568-.378 2.002-.966zm-3.374-4.984c-1.05 0-1.778.602-2.002 1.694h3.794c-.028-.882-.658-1.694-1.792-1.694M192.194 38v-7.056h1.442v.798c.49-.546 1.106-.938 1.974-.938.224 0 .434.042.616.098v1.414a3 3 0 0 0-.742-.098c-.896 0-1.484.476-1.848 1.078V38z" fill="#000091"/><path fill-rule="evenodd" clip-rule="evenodd" d="M233 38.665a6.667 6.667 0 1 1 0-13.333 6.667 6.667 0 0 1 0 13.333m0-1.333a5.333 5.333 0 1 0 0-10.667 5.333 5.333 0 0 0 0 10.667m-.667-3.333h1.334v1.333h-1.334zm1.334-1.097v.43h-1.334v-1c0-.368.299-.667.667-.667a1 1 0 1 0-.981-1.196l-1.308-.262a2.335 2.335 0 1 1 2.956 2.695" fill="#000091"/><path d="m249.387 38 3.822-9.8h2.128l3.822 9.8h-1.722l-1.036-2.744h-4.27L251.095 38zm3.276-4.116h3.206l-1.596-4.228zm9.039-4.508a.99.99 0 0 1-.98-.98c0-.532.448-.98.98-.98s.98.448.98.98-.448.98-.98.98M260.974 38v-7.056h1.442V38zm3.241-3.528c0-2.058 1.386-3.808 3.612-3.808 1.008 0 1.764.364 2.352.994V27.5h1.47V38h-1.47v-.714c-.588.63-1.344.994-2.352.994-2.226 0-3.612-1.75-3.612-3.808m1.526 0c0 1.386.91 2.45 2.268 2.45.91 0 1.694-.434 2.17-1.176v-2.548c-.518-.77-1.288-1.176-2.17-1.176-1.358 0-2.268 1.064-2.268 2.45m14.605 2.38c-.658.882-1.736 1.428-3.052 1.428-2.436 0-3.878-1.75-3.878-3.808 0-2.114 1.344-3.808 3.584-3.808 1.946 0 3.206 1.33 3.206 3.122 0 .322-.042.644-.098.854H274.9c.098 1.54 1.036 2.338 2.394 2.338.854 0 1.568-.378 2.002-.966zm-3.374-4.984c-1.05 0-1.778.602-2.002 1.694h3.794c-.028-.882-.658-1.694-1.792-1.694" fill="#000091"/><path fill-rule="evenodd" clip-rule="evenodd" d="M301 44V20h1v24z" fill="#DDD"/><path d="M444 16H310v32h134z" fill="#000" fill-opacity=".08"/><path d="M323.709 38v-9.8h2.072l5.04 7.741V28.2h1.61V38h-2.086l-5.04-7.742V38zm14.589-7.337c2.296 0 3.836 1.722 3.836 3.808s-1.54 3.808-3.836 3.808c-2.282 0-3.836-1.722-3.836-3.808s1.554-3.808 3.836-3.808m.014 6.258c1.33 0 2.31-1.106 2.31-2.45 0-1.372-.98-2.45-2.31-2.45-1.358 0-2.338 1.092-2.338 2.45s.98 2.45 2.338 2.45M343.936 38v-7.056h1.442v.658c.504-.546 1.162-.938 2.1-.938.966 0 1.778.434 2.226 1.274.546-.7 1.246-1.274 2.464-1.274 1.47 0 2.604 1.008 2.604 2.954V38h-1.456v-4.326c0-1.036-.574-1.652-1.484-1.652-.84 0-1.386.532-1.764 1.204.014.126.014.252.014.392V38h-1.456v-4.326c0-1.036-.56-1.652-1.484-1.652-.896 0-1.428.616-1.764 1.218V38zm17.18 0v-9.8h3.01c2.058 0 3.318 1.092 3.318 2.828s-1.26 2.828-3.318 2.828h-1.414V38zm3.08-8.442h-1.484v2.94h1.484c.994 0 1.582-.56 1.582-1.498 0-.882-.588-1.442-1.582-1.442M368.955 38v-7.056h1.442v.798c.49-.546 1.106-.938 1.974-.938.224 0 .434.042.616.098v1.414a3 3 0 0 0-.742-.098c-.896 0-1.484.476-1.848 1.078V38zm11.62-1.148c-.658.882-1.736 1.428-3.052 1.428-2.436 0-3.878-1.75-3.878-3.808 0-2.114 1.344-3.808 3.584-3.808 1.946 0 3.206 1.33 3.206 3.122 0 .322-.042.644-.098.854h-5.208c.098 1.54 1.036 2.338 2.394 2.338.854 0 1.568-.378 2.002-.966zm-3.374-4.984c-1.05 0-1.778.602-2.002 1.694h3.794c-.028-.882-.658-1.694-1.792-1.694M382.326 38v-7.056h1.442v.686c.532-.56 1.232-.966 2.24-.966 1.554 0 2.744 1.05 2.744 3.094V38h-1.456v-4.186c0-1.12-.616-1.792-1.624-1.792-.966 0-1.54.602-1.904 1.218V38zm11.944-7.336c2.296 0 3.836 1.722 3.836 3.808s-1.54 3.808-3.836 3.808c-2.282 0-3.836-1.722-3.836-3.808s1.554-3.808 3.836-3.808m.014 6.258c1.33 0 2.31-1.106 2.31-2.45 0-1.372-.98-2.45-2.31-2.45-1.358 0-2.338 1.092-2.338 2.45s.98 2.45 2.338 2.45M399.908 38v-7.056h1.442v.658c.504-.546 1.162-.938 2.1-.938.966 0 1.778.434 2.226 1.274.546-.7 1.246-1.274 2.464-1.274 1.47 0 2.604 1.008 2.604 2.954V38h-1.456v-4.326c0-1.036-.574-1.652-1.484-1.652-.84 0-1.386.532-1.764 1.204.014.126.014.252.014.392V38h-1.456v-4.326c0-1.036-.56-1.652-1.484-1.652-.896 0-1.428.616-1.764 1.218V38z" fill="#000091"/><path fill-rule="evenodd" clip-rule="evenodd" d="m428 31.217-3.3 3.3-.943-.942L428 29.332l4.243 4.243-.943.942z" fill="#000091"/></g><mask id="c" style="mask-type:luminance" maskUnits="userSpaceOnUse" x="0" y="0" width="476" height="64"><path d="M0 0h476v64H0z" fill="#fff"/></mask><g mask="url(#c)"><path d="M476 63H0v2h476z" fill="#DDD"/></g><g filter="url(#d)"><mask id="e" style="mask-type:luminance" maskUnits="userSpaceOnUse" x="144" y="52" width="300" height="309"><path d="M144 52h300v309H144z" fill="#fff"/></mask><g mask="url(#e)"><path d="M144 52h300v309H144z" fill="#fff"/><path d="M444 60H144v64h300z" fill="#fff"/><path d="M161.442 86v-9.8h2.548l4.382 7.083V76.2h1.988V86h-2.548l-4.382-7.084V86zm14.685-7.337c2.296 0 3.864 1.694 3.864 3.808s-1.568 3.808-3.864 3.808-3.864-1.694-3.864-3.808 1.568-3.808 3.864-3.808m.028 5.936c1.134 0 1.988-.91 1.988-2.128 0-1.232-.854-2.128-1.988-2.128-1.176 0-2.044.896-2.044 2.128s.868 2.128 2.044 2.128m5.458 1.4v-7.056h1.778v.532c.476-.462 1.078-.812 1.946-.812.896 0 1.68.392 2.142 1.148.504-.616 1.176-1.148 2.366-1.148 1.456 0 2.604 1.008 2.604 2.996V86h-1.792v-4.27c0-.854-.462-1.386-1.26-1.386-.77 0-1.19.532-1.47 1.008.014.098.014.196.014.308V86h-1.792v-4.27c0-.854-.462-1.386-1.26-1.386-.812 0-1.232.602-1.498 1.05V86zm17.017 0v-9.8h3.234c2.156 0 3.472 1.106 3.472 2.926 0 1.806-1.316 2.912-3.472 2.912h-1.246V86zm3.318-8.148h-1.33v2.534h1.33c.84 0 1.344-.49 1.344-1.288 0-.742-.504-1.246-1.344-1.246M206.714 86v-7.056h1.778v.7c.462-.476 1.064-.84 1.862-.84.238 0 .448.042.616.098v1.75a3 3 0 0 0-.784-.098c-.868 0-1.428.476-1.694.924V86zm11.883-1.148c-.658.882-1.75 1.428-3.08 1.428-2.506 0-3.92-1.75-3.92-3.808 0-2.086 1.316-3.808 3.626-3.808 1.96 0 3.248 1.33 3.248 3.178 0 .392-.056.756-.112.994h-4.942c.168 1.316.98 1.848 2.086 1.848.77 0 1.442-.336 1.82-.84zm-3.416-4.732c-.91 0-1.512.504-1.708 1.428h3.248c-.028-.714-.546-1.428-1.54-1.428m5.028 5.88v-7.056h1.778v.56a2.87 2.87 0 0 1 2.086-.84c1.526 0 2.744 1.05 2.744 3.136V86h-1.792v-4.13c0-.938-.532-1.526-1.4-1.526-.896 0-1.372.602-1.638 1.05V86zm11.986-7.336c2.296 0 3.864 1.694 3.864 3.808s-1.568 3.808-3.864 3.808-3.864-1.694-3.864-3.808 1.568-3.808 3.864-3.808m.028 5.936c1.134 0 1.988-.91 1.988-2.128 0-1.232-.854-2.128-1.988-2.128-1.176 0-2.044.896-2.044 2.128s.868 2.128 2.044 2.128m5.458 1.4v-7.056h1.778v.532c.476-.462 1.078-.812 1.946-.812.896 0 1.68.392 2.142 1.148.504-.616 1.176-1.148 2.366-1.148 1.456 0 2.604 1.008 2.604 2.996V86h-1.792v-4.27c0-.854-.462-1.386-1.26-1.386-.77 0-1.19.532-1.47 1.008.014.098.014.196.014.308V86h-1.792v-4.27c0-.854-.462-1.386-1.26-1.386-.812 0-1.232.602-1.498 1.05V86z" fill="#161616"/><path d="M161.176 110v-7.056h1.442v.686c.532-.56 1.232-.966 2.24-.966 1.554 0 2.744 1.05 2.744 3.094V110h-1.456v-4.186c0-1.12-.616-1.792-1.624-1.792-.966 0-1.54.602-1.904 1.218V110zm11.944-7.336c2.296 0 3.836 1.722 3.836 3.808s-1.54 3.808-3.836 3.808c-2.282 0-3.836-1.722-3.836-3.808s1.554-3.808 3.836-3.808m.014 6.258c1.33 0 2.31-1.106 2.31-2.45 0-1.372-.98-2.45-2.31-2.45-1.358 0-2.338 1.092-2.338 2.45s.98 2.45 2.338 2.45m5.624 1.078v-7.056h1.442v.658c.504-.546 1.162-.938 2.1-.938.966 0 1.778.434 2.226 1.274.546-.7 1.246-1.274 2.464-1.274 1.47 0 2.604 1.008 2.604 2.954V110h-1.456v-4.326c0-1.036-.574-1.652-1.484-1.652-.84 0-1.386.532-1.764 1.204.014.126.014.252.014.392V110h-1.456v-4.326c0-1.036-.56-1.652-1.484-1.652-.896 0-1.428.616-1.764 1.218V110zm13.798.168c-.588 0-1.05-.462-1.05-1.036a1.043 1.043 0 0 1 2.086 0c0 .574-.462 1.036-1.036 1.036m3.046 3.276v-10.5h1.442v.728c.602-.644 1.358-1.008 2.38-1.008 2.212 0 3.598 1.75 3.598 3.808s-1.386 3.808-3.598 3.808c-1.022 0-1.778-.364-2.38-1.008v4.172zm3.64-9.422c-.924 0-1.694.434-2.198 1.204v2.492c.518.784 1.288 1.204 2.198 1.204 1.358 0 2.268-1.064 2.268-2.45s-.91-2.45-2.268-2.45m5.575 5.978v-7.056h1.442v.798c.49-.546 1.106-.938 1.974-.938.224 0 .434.042.616.098v1.414a3 3 0 0 0-.742-.098c-.896 0-1.484.476-1.848 1.078V110zm11.62-1.148c-.658.882-1.736 1.428-3.052 1.428-2.436 0-3.878-1.75-3.878-3.808 0-2.114 1.344-3.808 3.584-3.808 1.946 0 3.206 1.33 3.206 3.122 0 .322-.042.644-.098.854h-5.208c.098 1.54 1.036 2.338 2.394 2.338.854 0 1.568-.378 2.002-.966zm-3.374-4.984c-1.05 0-1.778.602-2.002 1.694h3.794c-.028-.882-.658-1.694-1.792-1.694m5.125 6.132v-7.056h1.442v.686c.532-.56 1.232-.966 2.24-.966 1.554 0 2.744 1.05 2.744 3.094V110h-1.456v-4.186c0-1.12-.616-1.792-1.624-1.792-.966 0-1.54.602-1.904 1.218V110zm11.944-7.336c2.296 0 3.836 1.722 3.836 3.808s-1.54 3.808-3.836 3.808c-2.282 0-3.836-1.722-3.836-3.808s1.554-3.808 3.836-3.808m.014 6.258c1.33 0 2.31-1.106 2.31-2.45 0-1.372-.98-2.45-2.31-2.45-1.358 0-2.338 1.092-2.338 2.45s.98 2.45 2.338 2.45M235.77 110v-7.056h1.442v.658c.504-.546 1.162-.938 2.1-.938.966 0 1.778.434 2.226 1.274.546-.7 1.246-1.274 2.464-1.274 1.47 0 2.604 1.008 2.604 2.954V110h-1.456v-4.326c0-1.036-.574-1.652-1.484-1.652-.84 0-1.386.532-1.764 1.204.014.126.014.252.014.392V110h-1.456v-4.326c0-1.036-.56-1.652-1.484-1.652-.896 0-1.428.616-1.764 1.218V110zm15.114-3.5c0-1.372.924-2.534 2.38-2.534.616 0 1.134.224 1.554.644v-.462h1.134v3.276c0 .406.252.672.616.672.658 0 1.148-.854 1.148-2.142 0-2.086-1.736-3.752-4.116-3.752-2.492 0-4.256 1.96-4.256 4.284 0 2.338 1.764 4.298 4.256 4.298 1.204 0 2.142-.294 3.178-1.19l.546.826c-1.12.882-2.268 1.246-3.738 1.246-3.136 0-5.264-2.38-5.264-5.18s2.128-5.18 5.264-5.18c3.038 0 5.124 2.1 5.124 4.648 0 1.75-.854 3.066-2.226 3.066-.728 0-1.232-.35-1.456-.854-.434.546-.994.854-1.764.854-1.456 0-2.38-1.148-2.38-2.52m1.232 0c0 .826.532 1.47 1.344 1.47.574 0 1.022-.322 1.358-.812v-1.288c-.336-.518-.784-.84-1.358-.84-.812 0-1.344.63-1.344 1.47m8.427 3.5v-7.056h1.442v.658c.504-.546 1.162-.938 2.1-.938.966 0 1.778.434 2.226 1.274.546-.7 1.246-1.274 2.464-1.274 1.47 0 2.604 1.008 2.604 2.954V110h-1.456v-4.326c0-1.036-.574-1.652-1.484-1.652-.84 0-1.386.532-1.764 1.204.014.126.014.252.014.392V110h-1.456v-4.326c0-1.036-.56-1.652-1.484-1.652-.896 0-1.428.616-1.764 1.218V110zm15.017.21c-1.4 0-2.352-.798-2.352-2.044 0-1.064.826-1.834 2.324-2.086l2.282-.378v-.364c0-.868-.644-1.4-1.554-1.4-.77 0-1.372.35-1.778.924l-1.078-.826c.63-.84 1.638-1.372 2.898-1.372 1.904 0 2.954 1.12 2.954 2.674V110h-1.442v-.798c-.504.616-1.386 1.008-2.254 1.008m-.896-2.1c0 .546.434.924 1.162.924.882 0 1.568-.42 1.988-1.092v-1.218l-1.904.322c-.882.154-1.246.532-1.246 1.064m7.58-6.734a.99.99 0 0 1-.98-.98c0-.532.448-.98.98-.98s.98.448.98.98-.448.98-.98.98m-.728 8.624v-7.056h1.442V110zm3.801 0V99.5h1.442V110zm4.528.168c-.588 0-1.05-.462-1.05-1.036a1.043 1.043 0 0 1 2.086 0c0 .574-.462 1.036-1.036 1.036m2.136-7.224h1.33v-.812c0-1.498.98-2.632 2.618-2.632.644 0 1.176.168 1.582.392l-.616 1.218a1.5 1.5 0 0 0-.938-.308c-.714 0-1.19.49-1.19 1.288v.854h2.338v1.302h-2.338V110h-1.456v-5.754h-1.33zm6.242 7.056v-7.056h1.442v.798c.49-.546 1.106-.938 1.974-.938.224 0 .434.042.616.098v1.414a3 3 0 0 0-.742-.098c-.896 0-1.484.476-1.848 1.078V110z" fill="#666"/><g filter="url(#f)"><path d="M444 124H144v47h300z" fill="#fff"/><path fill-rule="evenodd" clip-rule="evenodd" d="M168 154.665a6.666 6.666 0 1 1 0-13.333 6.667 6.667 0 0 1 0 13.333m-3.325-2.496a5.3 5.3 0 0 0 3.325 1.163 5.32 5.32 0 0 0 3.445-1.261 4.66 4.66 0 0 0-3.338-1.406 4.66 4.66 0 0 0-3.432 1.504m-.931-.957a5.98 5.98 0 0 1 4.363-1.88 5.98 5.98 0 0 1 4.241 1.756 5.333 5.333 0 0 0-7.979-6.996 5.335 5.335 0 0 0-.625 7.121zm4.256-2.547a2.667 2.667 0 1 1 0-5.333 2.667 2.667 0 0 1 0 5.333m0-1.333a1.333 1.333 0 1 0 0-2.667 1.333 1.333 0 0 0 0 2.667" fill="#000091"/><path d="M420 140H194a8 8 0 0 0 0 16h226a8 8 0 0 0 0-16" fill="#F6F6F6"/></g><g filter="url(#g)"><path d="M444 171H144v47h300z" fill="#F6F6F6"/><path fill-rule="evenodd" clip-rule="evenodd" d="M174.005 189a.66.66 0 0 1 .662.669v3.998H174v6.667a.663.663 0 0 1-.662.666h-10.676a.666.666 0 0 1-.662-.666v-6.667h-.667v-3.998a.67.67 0 0 1 .662-.669zm-1.338 4.667h-9.334v6h9.334zM170 195v1.333h-4V195zm3.333-4.667h-10.666v2h10.666z" fill="#000091"/><path d="M187.554 200.999v-9.8h1.68l2.996 4.942 2.996-4.942h1.68v9.8h-1.316v-8.036l-2.856 4.676h-1.008l-2.856-4.676v8.036zm18.365-1.162c-.658.882-1.708 1.442-3.024 1.442-2.38 0-3.85-1.75-3.85-3.808 0-2.142 1.372-3.808 3.556-3.808 1.918 0 3.164 1.344 3.164 3.08 0 .28-.042.546-.084.742h-5.418c.042 1.694 1.12 2.716 2.632 2.716.91 0 1.68-.42 2.142-1.05zm-3.346-5.166c-1.162 0-1.974.686-2.226 1.904h4.228c-.042-1.036-.756-1.904-2.002-1.904m4.398 5.362.84-.714c.49.616 1.078.966 1.792.966.784 0 1.232-.476 1.232-1.092 0-1.582-3.528-1.022-3.528-3.514 0-1.106.938-2.016 2.296-2.016 1.008 0 1.876.476 2.366 1.162l-.826.7c-.378-.532-.91-.868-1.526-.868-.756 0-1.162.448-1.162.994 0 1.582 3.542 1.078 3.542 3.486-.014 1.316-1.064 2.142-2.38 2.142-1.12 0-2.002-.448-2.646-1.246m12.654 1.162c-1.386 0-2.324-.77-2.324-1.974 0-1.064.812-1.82 2.31-2.072l2.38-.392v-.49c0-.98-.7-1.54-1.708-1.54a2.29 2.29 0 0 0-1.904.98l-.896-.686c.616-.84 1.61-1.358 2.842-1.358 1.792 0 2.856 1.05 2.856 2.604v4.732h-1.19v-.896c-.532.686-1.456 1.092-2.366 1.092m-1.12-2.016c0 .602.49 1.036 1.316 1.036.938 0 1.708-.448 2.17-1.204v-1.386l-2.086.35c-.966.168-1.4.602-1.4 1.204m7.064 1.82v-7.056h1.19v.882c.518-.616 1.162-1.022 2.058-1.022.224 0 .434.028.602.084v1.162a2.6 2.6 0 0 0-.7-.084c-.924 0-1.526.476-1.96 1.19v4.844zm8.388-.84c.868 0 1.582-.42 2.016-1.036l.938.714c-.658.882-1.68 1.442-2.968 1.442-2.338 0-3.836-1.75-3.836-3.808s1.498-3.808 3.836-3.808c1.274 0 2.31.574 2.968 1.442l-.938.714a2.44 2.44 0 0 0-2.03-1.036c-1.512 0-2.59 1.19-2.59 2.688 0 1.512 1.078 2.688 2.604 2.688m4.586.84v-10.5h1.19v4.242c.574-.63 1.302-1.078 2.352-1.078 1.582 0 2.758 1.064 2.758 3.066v4.27h-1.19v-4.228c0-1.26-.7-1.988-1.806-1.988-1.036 0-1.666.602-2.114 1.33v4.886zm9.298-8.89a.84.84 0 0 1-.84-.84.84.84 0 0 1 .84-.826c.462 0 .826.378.826.826a.83.83 0 0 1-.826.84m-.602 8.89v-7.056h1.19v7.056zm2.641-7.056h1.288l2.254 5.81 2.254-5.81h1.288l-2.758 7.056h-1.568zm14.705 5.894c-.658.882-1.708 1.442-3.024 1.442-2.38 0-3.85-1.75-3.85-3.808 0-2.142 1.372-3.808 3.556-3.808 1.918 0 3.164 1.344 3.164 3.08 0 .28-.042.546-.084.742h-5.418c.042 1.694 1.12 2.716 2.632 2.716.91 0 1.68-.42 2.142-1.05zm-3.346-5.166c-1.162 0-1.974.686-2.226 1.904h4.228c-.042-1.036-.756-1.904-2.002-1.904m4.398 5.362.84-.714c.49.616 1.078.966 1.792.966.784 0 1.232-.476 1.232-1.092 0-1.582-3.528-1.022-3.528-3.514 0-1.106.938-2.016 2.296-2.016 1.008 0 1.876.476 2.366 1.162l-.826.7c-.378-.532-.91-.868-1.526-.868-.756 0-1.162.448-1.162.994 0 1.582 3.542 1.078 3.542 3.486-.014 1.316-1.064 2.142-2.38 2.142-1.12 0-2.002-.448-2.646-1.246m9.456-3.192h3.78v1.148h-3.78zm13.392 3.206a3.66 3.66 0 0 0 3.052-1.596l1.05.812c-.896 1.218-2.338 2.016-4.102 2.016-3.066 0-5.152-2.38-5.152-5.18s2.086-5.18 5.152-5.18c1.764 0 3.206.812 4.102 2.016l-1.05.812a3.66 3.66 0 0 0-3.052-1.596c-2.212 0-3.794 1.764-3.794 3.948s1.582 3.948 3.794 3.948m9.073-6.384c2.268 0 3.822 1.75 3.822 3.808s-1.554 3.808-3.822 3.808c-2.282 0-3.822-1.75-3.822-3.808s1.54-3.808 3.822-3.808m.014 6.496c1.47 0 2.548-1.232 2.548-2.688 0-1.47-1.078-2.688-2.548-2.688-1.512 0-2.59 1.218-2.59 2.688s1.078 2.688 2.59 2.688m9.01-6.496c2.268 0 3.822 1.75 3.822 3.808s-1.554 3.808-3.822 3.808c-2.282 0-3.822-1.75-3.822-3.808s1.54-3.808 3.822-3.808m.014 6.496c1.47 0 2.548-1.232 2.548-2.688 0-1.47-1.078-2.688-2.548-2.688-1.512 0-2.59 1.218-2.59 2.688s1.078 2.688 2.59 2.688m5.721 4.284v-10.5h1.19v.84c.63-.714 1.456-1.12 2.506-1.12 2.212 0 3.626 1.75 3.626 3.808s-1.414 3.808-3.626 3.808c-1.05 0-1.876-.406-2.506-1.12v4.284zm3.556-9.66c-.98 0-1.834.476-2.366 1.316v2.744c.546.854 1.4 1.316 2.366 1.316 1.498 0 2.52-1.19 2.52-2.688s-1.022-2.688-2.52-2.688m8.577-3.584h1.4l3.388 8.47 3.388-8.47h1.4l-3.92 9.8h-1.736zm10.331 9.954a.894.894 0 0 1-.91-.882c0-.49.406-.896.91-.896s.896.406.896.896-.392.882-.896.882m3.519-.154v-8.526l-2.59 1.4-.644-.896 3.22-1.778h1.26v9.8z" fill="#161616"/></g><g filter="url(#h)"><path d="M444 218H144v47h300z" fill="#fff"/><path d="m168.448 235.076 5.419 4.925h-1.983L168 236.47l-4 3.636v6.562h3.333v1.333h-4a.666.666 0 0 1-.666-.666v-6h-2l6.885-6.259a.666.666 0 0 1 .896 0m.885 6.259h6v4.666h-6zm1.334 1.333v2H174v-2zm5.333 5.333h-7.333v-1.333H176z" fill="#000091"/><path d="M420 234H194a8 8 0 0 0 0 16h226a8 8 0 0 0 0-16" fill="#F6F6F6"/></g><path fill-rule="evenodd" clip-rule="evenodd" d="M444 266H144v-1h300z" fill="#DDD"/><g filter="url(#i)"><path d="M444 266H144v47h300z" fill="#fff"/><path d="M172.667 294.665v-6.134L168 284.85l-4.667 3.681v6.134zm1.333.667a.667.667 0 0 1-.667.667h-10.666a.667.667 0 0 1-.667-.667v-7.124a.67.67 0 0 1 .254-.524l5.333-4.207a.67.67 0 0 1 .826 0l5.333 4.207a.67.67 0 0 1 .254.524zm-9.333-5.333H166a2 2 0 0 0 4 0h1.333a3.333 3.333 0 1 1-6.666 0" fill="#000091"/><path d="M420 282H194a8 8 0 0 0 0 16h226a8 8 0 0 0 0-16" fill="#F6F6F6"/></g><path fill-rule="evenodd" clip-rule="evenodd" d="M444 314H144v-1h300z" fill="#DDD"/><g filter="url(#j)"><path d="M444 314H144v47h300z" fill="#fff"/><path d="M163.333 344.665a.667.667 0 0 1-.666-.666v-12a.67.67 0 0 1 .666-.667h9.334a.667.667 0 0 1 .666.667v2H172v-1.334h-8v10.667h8v-1.333h1.333v2a.667.667 0 0 1-.666.666zm8.667-4v-2h-4.667v-1.333H172v-2l3.333 2.667z" fill="#000091"/><path d="M420 330H194a8 8 0 0 0 0 16h226a8 8 0 0 0 0-16" fill="#F6F6F6"/></g></g><mask id="k" style="mask-type:luminance" maskUnits="userSpaceOnUse" x="144" y="52" width="300" height="309"><path d="M144 52h300v309H144z" fill="#fff"/></mask><g mask="url(#k)"><path d="M144 53h300v-2H144z" fill="#E3E3FD"/></g></g><g filter="url(#l)"><path d="M371.38 216.726c.241.273.468.526.69.786q1.735 2.02 3.469 4.043c.133.154.275.299.406.453.532.626.486 1.514-.106 2.068q-1.097 1.024-2.198 2.043c-.653.605-1.465.556-2.056-.131-1.096-1.275-2.189-2.557-3.283-3.834-.378-.442-.762-.875-1.141-1.316-.076-.089-.115-.082-.172.02q-1.01 1.754-2.026 3.507c-.162.28-.374.504-.698.561-.435.075-.815-.181-.979-.661q-.48-1.4-.948-2.806-.603-1.796-1.203-3.592-.579-1.74-1.161-3.478l-1.206-3.592q-.52-1.553-1.035-3.111c-.2-.602-.409-1.202-.59-1.81-.137-.467.056-.877.466-1.061a.7.7 0 0 1 .577-.009q.495.214.979.453c1.806.898 3.611 1.802 5.417 2.7q3.117 1.55 6.235 3.094 2.122 1.048 4.247 2.086.392.191.59.589c.164.329.024.814-.341 1.058-.259.172-.542.306-.822.441-1.005.486-2.01.964-3.017 1.445-.024.012-.048.028-.095.054z" fill="#6A6AF4"/></g></g><rect x=".5" y=".5" width="475" height="436" rx="15.5" stroke="#DDD"/><defs><filter id="d" x="132" y="44" width="324" height="333" filterUnits="userSpaceOnUse" color-interpolation-filters="sRGB"><feFlood flood-opacity="0" result="BackgroundImageFix"/><feColorMatrix in="SourceAlpha" values="0 0 0 0 0 0 0 0 0 0 0 0 0 0 0 0 0 0 127 0" result="hardAlpha"/><feOffset dy="4"/><feGaussianBlur stdDeviation="6"/><feColorMatrix values="0 0 0 0 0 0 0 0 0 0 0 0 0 0 0.0705882 0 0 0 0.16 0"/><feBlend in2="BackgroundImageFix" result="effect1_dropShadow_13957_4717"/><feBlend in="SourceGraphic" in2="effect1_dropShadow_13957_4717" result="shape"/></filter><filter id="f" x="144" y="124" width="300" height="47" filterUnits="userSpaceOnUse" color-interpolation-filters="sRGB"><feFlood flood-opacity="0" result="BackgroundImageFix"/><feColorMatrix in="SourceAlpha" values="0 0 0 0 0 0 0 0 0 0 0 0 0 0 0 0 0 0 127 0" result="hardAlpha"/><feOffset/><feColorMatrix values="0 0 0 0 0.0392157 0 0 0 0 0.462745 0 0 0 0 0.964706 0 0 0 1 0"/><feBlend in2="BackgroundImageFix" result="effect1_dropShadow_13957_4717"/><feColorMatrix in="SourceAlpha" values="0 0 0 0 0 0 0 0 0 0 0 0 0 0 0 0 0 0 127 0" result="hardAlpha"/><feOffset/><feColorMatrix values="0 0 0 0 1 0 0 0 0 1 0 0 0 0 1 0 0 0 1 0"/><feBlend in2="effect1_dropShadow_13957_4717" result="effect2_dropShadow_13957_4717"/><feBlend in="SourceGraphic" in2="effect2_dropShadow_13957_4717" result="shape"/></filter><filter id="g" x="144" y="171" width="300" height="47" filterUnits="userSpaceOnUse" color-interpolation-filters="sRGB"><feFlood flood-opacity="0" result="BackgroundImageFix"/><feColorMatrix in="SourceAlpha" values="0 0 0 0 0 0 0 0 0 0 0 0 0 0 0 0 0 0 127 0" result="hardAlpha"/><feOffset/><feColorMatrix values="0 0 0 0 0.0392157 0 0 0 0 0.462745 0 0 0 0 0.964706 0 0 0 1 0"/><feBlend in2="BackgroundImageFix" result="effect1_dropShadow_13957_4717"/><feColorMatrix in="SourceAlpha" values="0 0 0 0 0 0 0 0 0 0 0 0 0 0 0 0 0 0 127 0" result="hardAlpha"/><feOffset/><feColorMatrix values="0 0 0 0 1 0 0 0 0 1 0 0 0 0 1 0 0 0 1 0"/><feBlend in2="effect1_dropShadow_13957_4717" result="effect2_dropShadow_13957_4717"/><feBlend in="SourceGraphic" in2="effect2_dropShadow_13957_4717" result="shape"/></filter><filter id="h" x="144" y="218" width="300" height="47" filterUnits="userSpaceOnUse" color-interpolation-filters="sRGB"><feFlood flood-opacity="0" result="BackgroundImageFix"/><feColorMatrix in="SourceAlpha" values="0 0 0 0 0 0 0 0 0 0 0 0 0 0 0 0 0 0 127 0" result="hardAlpha"/><feOffset/><feColorMatrix values="0 0 0 0 0.0392157 0 0 0 0 0.462745 0 0 0 0 0.964706 0 0 0 1 0"/><feBlend in2="BackgroundImageFix" result="effect1_dropShadow_13957_4717"/><feColorMatrix in="SourceAlpha" values="0 0 0 0 0 0 0 0 0 0 0 0 0 0 0 0 0 0 127 0" result="hardAlpha"/><feOffset/><feColorMatrix values="0 0 0 0 1 0 0 0 0 1 0 0 0 0 1 0 0 0 1 0"/><feBlend in2="effect1_dropShadow_13957_4717" result="effect2_dropShadow_13957_4717"/><feBlend in="SourceGraphic" in2="effect2_dropShadow_13957_4717" result="shape"/></filter><filter id="i" x="144" y="266" width="300" height="47" filterUnits="userSpaceOnUse" color-interpolation-filters="sRGB"><feFlood flood-opacity="0" result="BackgroundImageFix"/><feColorMatrix in="SourceAlpha" values="0 0 0 0 0 0 0 0 0 0 0 0 0 0 0 0 0 0 127 0" result="hardAlpha"/><feOffset/><feColorMatrix values="0 0 0 0 0.0392157 0 0 0 0 0.462745 0 0 0 0 0.964706 0 0 0 1 0"/><feBlend in2="BackgroundImageFix" result="effect1_dropShadow_13957_4717"/><feColorMatrix in="SourceAlpha" values="0 0 0 0 0 0 0 0 0 0 0 0 0 0 0 0 0 0 127 0" result="hardAlpha"/><feOffset/><feColorMatrix values="0 0 0 0 1 0 0 0 0 1 0 0 0 0 1 0 0 0 1 0"/><feBlend in2="effect1_dropShadow_13957_4717" result="effect2_dropShadow_13957_4717"/><feBlend in="SourceGraphic" in2="effect2_dropShadow_13957_4717" result="shape"/></filter><filter id="j" x="144" y="314" width="300" height="47" filterUnits="userSpaceOnUse" color-interpolation-filters="sRGB"><feFlood flood-opacity="0" result="BackgroundImageFix"/><feColorMatrix in="SourceAlpha" values="0 0 0 0 0 0 0 0 0 0 0 0 0 0 0 0 0 0 127 0" result="hardAlpha"/><feOffset/><feColorMatrix values="0 0 0 0 0.0392157 0 0 0 0 0.462745 0 0 0 0 0.964706 0 0 0 1 0"/><feBlend in2="BackgroundImageFix" result="effect1_dropShadow_13957_4717"/><feColorMatrix in="SourceAlpha" values="0 0 0 0 0 0 0 0 0 0 0 0 0 0 0 0 0 0 127 0" result="hardAlpha"/><feOffset/><feColorMatrix values="0 0 0 0 1 0 0 0 0 1 0 0 0 0 1 0 0 0 1 0"/><feBlend in2="effect1_dropShadow_13957_4717" result="effect2_dropShadow_13957_4717"/><feBlend in="SourceGraphic" in2="effect2_dropShadow_13957_4717" result="shape"/></filter><filter id="l" x="351.099" y="200.748" width="31.216" height="33.791" filterUnits="userSpaceOnUse" color-interpolation-filters="sRGB"><feFlood flood-opacity="0" result="BackgroundImageFix"/><feColorMatrix in="SourceAlpha" values="0 0 0 0 0 0 0 0 0 0 0 0 0 0 0 0 0 0 127 0" result="hardAlpha"/><feOffset dy="2"/><feGaussianBlur stdDeviation="3"/><feColorMatrix values="0 0 0 0 0 0 0 0 0 0 0 0 0 0 0.0705882 0 0 0 0.16 0"/><feBlend in2="BackgroundImageFix" result="effect1_dropShadow_13957_4717"/><feBlend in="SourceGraphic" in2="effect1_dropShadow_13957_4717" result="shape"/></filter><clipPath id="a"><rect width="476" height="437" rx="16" fill="#fff"/></clipPath></defs></svg>
