<svg width="541" height="538" viewBox="0 0 541 538" fill="none" xmlns:xlink="http://www.w3.org/1999/xlink" xmlns="http://www.w3.org/2000/svg"><rect style="fill:#fff;stroke-width:4.81829;stroke-opacity:.474506;paint-order:markers fill stroke" width="541" height="538" rx="0"/><rect x="127" y="48" width="40" height="40" rx="8" fill="#F5F5FE"/><path d="M69.595 123v-11.2h3.44c2.352 0 3.792 1.248 3.792 3.232s-1.44 3.232-3.792 3.232H71.42V123zm3.52-9.648H71.42v3.36h1.696c1.136 0 1.808-.64 1.808-1.712 0-1.008-.672-1.648-1.808-1.648m5.44 9.648v-8.064h1.648v.912c.56-.624 1.264-1.072 2.256-1.072.256 0 .496.048.704.112v1.616a3.3 3.3 0 0 0-.848-.112c-1.024 0-1.696.544-2.112 1.232V123zm7.254-9.856c-.608 0-1.12-.512-1.12-1.12s.512-1.12 1.12-1.12 1.12.512 1.12 1.12-.512 1.12-1.12 1.12M84.977 123v-8.064h1.648V123zm3.45-1.136 1.136-.992c.528.672 1.168 1.104 1.968 1.104.784 0 1.216-.48 1.216-1.088 0-1.632-3.952-1.04-3.952-3.888 0-1.328 1.12-2.384 2.736-2.384 1.184 0 2.224.576 2.8 1.344l-1.12.976c-.432-.576-.992-.976-1.664-.976-.768 0-1.152.448-1.152.992 0 1.616 3.952 1.072 3.952 3.84-.016 1.584-1.296 2.528-2.8 2.528-1.36 0-2.368-.544-3.12-1.456m15.205-.176c-.752 1.008-1.984 1.632-3.488 1.632-2.784 0-4.432-2-4.432-4.352 0-2.416 1.536-4.352 4.096-4.352 2.224 0 3.664 1.52 3.664 3.568 0 .368-.048.736-.112.976h-5.952c.112 1.76 1.184 2.672 2.736 2.672.976 0 1.792-.432 2.288-1.104zm-3.856-5.696c-1.2 0-2.032.688-2.288 1.936h4.336c-.032-1.008-.752-1.936-2.048-1.936m9.53 2.976c0-2.352 1.584-4.352 4.128-4.352 1.152 0 2.016.416 2.688 1.136V111h1.68v12h-1.68v-.816c-.672.72-1.536 1.136-2.688 1.136-2.544 0-4.128-2-4.128-4.352m1.744 0c0 1.584 1.04 2.8 2.592 2.8 1.04 0 1.936-.496 2.48-1.344v-2.912c-.592-.88-1.472-1.344-2.48-1.344-1.552 0-2.592 1.216-2.592 2.8m16.691 2.72c-.752 1.008-1.984 1.632-3.488 1.632-2.784 0-4.432-2-4.432-4.352 0-2.416 1.536-4.352 4.096-4.352 2.224 0 3.664 1.52 3.664 3.568 0 .368-.048.736-.112.976h-5.952c.112 1.76 1.184 2.672 2.736 2.672.976 0 1.792-.432 2.288-1.104zm-3.856-5.696c-1.2 0-2.032.688-2.288 1.936h4.336c-.032-1.008-.752-1.936-2.048-1.936m10.17 7.008v-8.064h1.648v.912c.56-.624 1.264-1.072 2.256-1.072.256 0 .496.048.704.112v1.616a3.3 3.3 0 0 0-.848-.112c-1.024 0-1.696.544-2.112 1.232V123zm13.28-1.312c-.752 1.008-1.984 1.632-3.488 1.632-2.784 0-4.432-2-4.432-4.352 0-2.416 1.536-4.352 4.096-4.352 2.224 0 3.664 1.52 3.664 3.568 0 .368-.048.736-.112.976h-5.952c.112 1.76 1.184 2.672 2.736 2.672.976 0 1.792-.432 2.288-1.104zm-3.856-5.696c-1.2 0-2.032.688-2.288 1.936h4.336c-.032-1.008-.752-1.936-2.048-1.936m5.857 7.008v-8.064h1.648v.784c.608-.64 1.408-1.104 2.56-1.104 1.776 0 3.136 1.2 3.136 3.536V123h-1.664v-4.784c0-1.28-.704-2.048-1.856-2.048-1.104 0-1.76.688-2.176 1.392V123zm9.266-4.032c0-2.352 1.584-4.352 4.128-4.352 1.152 0 2.016.416 2.688 1.136V111h1.68v12h-1.68v-.816c-.672.72-1.536 1.136-2.688 1.136-2.544 0-4.128-2-4.128-4.352m1.744 0c0 1.584 1.04 2.8 2.592 2.8 1.04 0 1.936-.496 2.48-1.344v-2.912c-.592-.88-1.472-1.344-2.48-1.344-1.552 0-2.592 1.216-2.592 2.8m16.692 2.72c-.752 1.008-1.984 1.632-3.488 1.632-2.784 0-4.432-2-4.432-4.352 0-2.416 1.536-4.352 4.096-4.352 2.224 0 3.664 1.52 3.664 3.568 0 .368-.048.736-.112.976h-5.952c.112 1.76 1.184 2.672 2.736 2.672.976 0 1.792-.432 2.288-1.104zm-3.856-5.696c-1.2 0-2.032.688-2.288 1.936h4.336c-.032-1.008-.752-1.936-2.048-1.936m5.252 7.008v-1.488l4.48-5.088h-4.368v-1.488h6.4v1.488l-4.48 5.088h4.592V123zm7.769-4.896h4.32v1.6h-4.32zm4.637-3.168h1.776l2.368 6.272 2.352-6.272h1.792L196.072 123h-2.192zm13.412-.32c2.624 0 4.384 1.968 4.384 4.352s-1.76 4.352-4.384 4.352c-2.608 0-4.384-1.968-4.384-4.352s1.776-4.352 4.384-4.352m.016 7.152c1.52 0 2.64-1.264 2.64-2.8 0-1.568-1.12-2.8-2.64-2.8-1.552 0-2.672 1.248-2.672 2.8s1.12 2.8 2.672 2.8m11.9-2.224v-4.608h1.664v4.528c0 2.416-1.392 3.856-3.648 3.856-2.272 0-3.664-1.44-3.664-3.856v-4.528h1.664v4.608c0 1.392.736 2.224 2 2.224 1.232 0 1.984-.832 1.984-2.224m3.321 2.32 1.136-.992c.528.672 1.168 1.104 1.968 1.104.784 0 1.216-.48 1.216-1.088 0-1.632-3.952-1.04-3.952-3.888 0-1.328 1.12-2.384 2.736-2.384 1.184 0 2.224.576 2.8 1.344l-1.12.976c-.432-.576-.992-.976-1.664-.976-.768 0-1.152.448-1.152.992 0 1.616 3.952 1.072 3.952 3.84-.016 1.584-1.296 2.528-2.8 2.528-1.36 0-2.368-.544-3.12-1.456m-94.006 23.824c-.752 1.008-1.984 1.632-3.488 1.632-2.784 0-4.432-2-4.432-4.352 0-2.416 1.536-4.352 4.096-4.352 2.224 0 3.664 1.52 3.664 3.568 0 .368-.048.736-.112.976h-5.952c.112 1.76 1.184 2.672 2.736 2.672.976 0 1.792-.432 2.288-1.104zm-3.856-5.696c-1.2 0-2.032.688-2.288 1.936h4.336c-.032-1.008-.752-1.936-2.048-1.936m5.858 7.008v-8.064h1.648v.784c.608-.64 1.408-1.104 2.56-1.104 1.776 0 3.136 1.2 3.136 3.536V147h-1.664v-4.784c0-1.28-.704-2.048-1.856-2.048-1.104 0-1.76.688-2.176 1.392V147zm14.218 0v-12h1.648v12zm5.176-9.856c-.608 0-1.12-.512-1.12-1.12s.512-1.12 1.12-1.12 1.12.512 1.12 1.12-.512 1.12-1.12 1.12m-.832 9.856v-8.064h1.648V147zm3.48 1.44c0-.816.4-1.456 1.152-2.016a1.53 1.53 0 0 1-.528-1.152c0-.64.304-1.152.928-1.584a2.77 2.77 0 0 1-1.104-2.24c0-1.552 1.2-2.832 3.168-2.832.608 0 1.136.112 1.584.32h2.976v1.408h-1.584c.144.336.224.72.224 1.104 0 1.568-1.2 2.864-3.2 2.864-.352 0-.672-.048-.976-.112-.256.208-.4.448-.4.688 0 .336.176.528.608.528h2.192c2.08 0 3.12 1.072 3.12 2.528 0 1.744-1.696 3.056-4.144 3.056-2.48 0-4.016-.912-4.016-2.56m3.632-5.392c1.04 0 1.648-.688 1.648-1.6 0-.896-.608-1.568-1.648-1.568s-1.648.672-1.648 1.568c0 .912.608 1.6 1.648 1.6m-2.064 5.168c0 .896.896 1.44 2.416 1.44 1.6 0 2.528-.624 2.528-1.568 0-.688-.4-1.232-1.632-1.232h-2.56c-.448.352-.752.784-.752 1.36m8.202-1.216v-8.064h1.648v.784c.608-.64 1.408-1.104 2.56-1.104 1.776 0 3.136 1.2 3.136 3.536V147h-1.664v-4.784c0-1.28-.704-2.048-1.856-2.048-1.104 0-1.76.688-2.176 1.392V147zm17.186-1.312c-.752 1.008-1.984 1.632-3.488 1.632-2.784 0-4.432-2-4.432-4.352 0-2.416 1.536-4.352 4.096-4.352 2.224 0 3.664 1.52 3.664 3.568 0 .368-.048.736-.112.976h-5.952c.112 1.76 1.184 2.672 2.736 2.672.976 0 1.792-.432 2.288-1.104zm-3.856-5.696c-1.2 0-2.032.688-2.288 1.936h4.336c-.032-1.008-.752-1.936-2.048-1.936" fill="#666"/><path fill-rule="evenodd" clip-rule="evenodd" d="M270 140V60h1v80z" fill="#DDD"/><rect x="374" y="48" width="40" height="40" rx="8" fill="#F5F5FE"/><path d="m393.637 79.61-11.194-8.707a.274.274 0 0 1 .002-.435l1.683-1.275a.276.276 0 0 1 .334.002l9.175 7.116a.275.275 0 0 0 .336 0l9.176-7.116a.27.27 0 0 1 .333-.002l1.683 1.275a.274.274 0 0 1 .002.435l-11.194 8.706a.274.274 0 0 1-.336 0m0-6.534-11.198-8.71a.274.274 0 0 1 0-.432l11.198-8.71a.274.274 0 0 1 .336 0l11.198 8.71a.274.274 0 0 1 0 .433l-11.198 8.71a.274.274 0 0 1-.336 0m.336-3.298 6.992-5.411a.275.275 0 0 0 0-.433l-6.992-5.411a.275.275 0 0 0-.336 0l-6.992 5.41a.273.273 0 0 0 0 .434l6.992 5.41a.275.275 0 0 0 .336 0" fill="#000091"/><path d="M311.916 123v-11.2h3.44c2.352 0 3.792 1.248 3.792 3.232s-1.44 3.232-3.792 3.232h-1.616V123zm3.52-9.648h-1.696v3.36h1.696c1.136 0 1.808-.64 1.808-1.712 0-1.008-.672-1.648-1.808-1.648m10.911 6.192v-4.608h1.664v4.528c0 2.416-1.392 3.856-3.648 3.856-2.272 0-3.664-1.44-3.664-3.856v-4.528h1.664v4.608c0 1.392.736 2.224 2 2.224 1.232 0 1.984-.832 1.984-2.224m12.649-.576c0 2.352-1.584 4.352-4.112 4.352-1.168 0-2.032-.416-2.72-1.152V123h-1.648v-12h1.648v4.768c.688-.736 1.552-1.152 2.72-1.152 2.528 0 4.112 2 4.112 4.352m-4.32-2.8a2.92 2.92 0 0 0-2.512 1.36v2.88c.592.88 1.472 1.36 2.512 1.36 1.552 0 2.592-1.216 2.592-2.8s-1.04-2.8-2.592-2.8m6.387 6.832v-12h1.648v12zm5.176-9.856a1.135 1.135 0 0 1-1.121-1.12c0-.608.513-1.12 1.121-1.12s1.12.512 1.12 1.12-.512 1.12-1.12 1.12m-.832 9.856v-8.064h1.648V123zm8.119-1.232a2.55 2.55 0 0 0 2.096-1.072l1.296.992c-.736.992-1.92 1.632-3.408 1.632-2.704 0-4.4-2-4.4-4.352s1.696-4.352 4.4-4.352c1.472 0 2.672.64 3.408 1.632l-1.296.992a2.56 2.56 0 0 0-2.112-1.072c-1.552 0-2.672 1.216-2.672 2.8 0 1.6 1.12 2.8 2.688 2.8m7.214 1.472c-1.6 0-2.688-.912-2.688-2.336 0-1.216.944-2.096 2.656-2.384l2.608-.432v-.416c0-.992-.736-1.6-1.776-1.6-.88 0-1.568.4-2.032 1.056l-1.232-.944c.72-.96 1.872-1.568 3.312-1.568 2.176 0 3.376 1.28 3.376 3.056V123h-1.648v-.912c-.576.704-1.584 1.152-2.576 1.152m-1.024-2.4c0 .624.496 1.056 1.328 1.056 1.008 0 1.792-.48 2.272-1.248v-1.392l-2.176.368c-1.008.176-1.424.608-1.424 1.216m8.311-.64v-3.776h-1.52v-1.488h1.52v-2.016h1.664v2.016h2.672v1.488h-2.672v3.776c0 1.088.576 1.44 1.472 1.44.544 0 .912-.064 1.2-.176v1.456c-.384.16-.832.24-1.456.24-1.888 0-2.88-.992-2.88-2.96m7.133-7.056c-.608 0-1.12-.512-1.12-1.12s.512-1.12 1.12-1.12 1.12.512 1.12 1.12-.512 1.12-1.12 1.12m-.832 9.856v-8.064h1.648V123zm8.088-8.384c2.624 0 4.384 1.968 4.384 4.352s-1.76 4.352-4.384 4.352c-2.608 0-4.384-1.968-4.384-4.352s1.776-4.352 4.384-4.352m.016 7.152c1.52 0 2.64-1.264 2.64-2.8 0-1.568-1.12-2.8-2.64-2.8-1.552 0-2.672 1.248-2.672 2.8s1.12 2.8 2.672 2.8M388.86 123v-8.064h1.648v.784c.608-.64 1.408-1.104 2.56-1.104 1.776 0 3.136 1.2 3.136 3.536V123h-1.664v-4.784c0-1.28-.704-2.048-1.856-2.048-1.104 0-1.76.688-2.176 1.392V123zm24.41 0h-2.144l-1.024-.976c-.896.816-2.032 1.296-3.472 1.296-2.32 0-3.984-1.344-3.984-3.552 0-1.488.928-2.528 2.096-3.04-.64-.784-.976-1.504-.976-2.432 0-1.616 1.232-2.816 3.104-2.816 1.728 0 3.008 1.088 3.008 2.768 0 1.52-1.04 2.448-2.416 2.928l2.48 2.48c.432-.736.768-1.632 1.008-2.656h1.696c-.368 1.472-.864 2.784-1.536 3.824zm-7.808-8.608c0 .848.464 1.28 1.024 1.808 1.28-.368 1.824-.96 1.824-1.888 0-.72-.528-1.344-1.392-1.344-.928 0-1.456.608-1.456 1.424m-1.088 5.376c0 1.296 1.04 2.048 2.352 2.048.832 0 1.584-.32 2.224-.912l-3.104-3.008-.112-.112c-.832.368-1.36 1.056-1.36 1.984m14.908 7.168v-12h1.648v.832c.688-.736 1.552-1.152 2.72-1.152 2.528 0 4.112 2 4.112 4.352s-1.584 4.352-4.112 4.352c-1.168 0-2.032-.416-2.72-1.152v4.768zm4.16-10.768c-1.056 0-1.936.496-2.512 1.376v2.848c.592.896 1.472 1.376 2.512 1.376 1.552 0 2.592-1.216 2.592-2.8s-1.04-2.8-2.592-2.8m8.423 7.072c-1.6 0-2.688-.912-2.688-2.336 0-1.216.944-2.096 2.656-2.384l2.608-.432v-.416c0-.992-.736-1.6-1.776-1.6-.88 0-1.568.4-2.032 1.056l-1.232-.944c.72-.96 1.872-1.568 3.312-1.568 2.176 0 3.376 1.28 3.376 3.056V123h-1.648v-.912c-.576.704-1.584 1.152-2.576 1.152m-1.024-2.4c0 .624.496 1.056 1.328 1.056 1.008 0 1.792-.48 2.272-1.248v-1.392l-2.176.368c-1.008.176-1.424.608-1.424 1.216m7.831 2.16v-8.064h1.648v.912c.56-.624 1.264-1.072 2.256-1.072.256 0 .496.048.704.112v1.616a3.3 3.3 0 0 0-.848-.112c-1.024 0-1.696.544-2.112 1.232V123zm7.34-2.8v-3.776h-1.52v-1.488h1.52v-2.016h1.664v2.016h2.672v1.488h-2.672v3.776c0 1.088.576 1.44 1.472 1.44.544 0 .912-.064 1.2-.176v1.456c-.384.16-.832.24-1.457.24-1.887 0-2.879-.992-2.879-2.96m8.525 3.04c-1.6 0-2.688-.912-2.688-2.336 0-1.216.944-2.096 2.656-2.384l2.608-.432v-.416c0-.992-.736-1.6-1.776-1.6-.88 0-1.568.4-2.032 1.056l-1.232-.944c.72-.96 1.872-1.568 3.312-1.568 2.176 0 3.376 1.28 3.376 3.056V123h-1.648v-.912c-.576.704-1.584 1.152-2.576 1.152m-1.024-2.4c0 .624.496 1.056 1.328 1.056 1.008 0 1.792-.48 2.272-1.248v-1.392l-2.176.368c-1.008.176-1.424.608-1.424 1.216m6.967 3.6c0-.816.4-1.456 1.152-2.016a1.53 1.53 0 0 1-.528-1.152c0-.64.304-1.152.928-1.584a2.77 2.77 0 0 1-1.104-2.24c0-1.552 1.2-2.832 3.168-2.832.608 0 1.136.112 1.584.32h2.976v1.408h-1.584c.144.336.224.72.224 1.104 0 1.568-1.2 2.864-3.2 2.864-.352 0-.672-.048-.976-.112-.256.208-.4.448-.4.688 0 .336.176.528.608.528h2.192c2.08 0 3.12 1.072 3.12 2.528 0 1.744-1.696 3.056-4.144 3.056-2.48 0-4.016-.912-4.016-2.56m3.632-5.392c1.04 0 1.648-.688 1.648-1.6 0-.896-.608-1.568-1.648-1.568s-1.648.672-1.648 1.568c0 .912.608 1.6 1.648 1.6m-2.064 5.168c0 .896.896 1.44 2.416 1.44 1.6 0 2.528-.624 2.528-1.568 0-.688-.4-1.232-1.632-1.232h-2.56c-.448.352-.752.784-.752 1.36m15.107-2.528c-.752 1.008-1.984 1.632-3.488 1.632-2.784 0-4.432-2-4.432-4.352 0-2.416 1.536-4.352 4.096-4.352 2.224 0 3.664 1.52 3.664 3.568 0 .368-.048.736-.112.976h-5.952c.112 1.76 1.184 2.672 2.736 2.672.976 0 1.792-.432 2.288-1.104zm-3.856-5.696c-1.2 0-2.032.688-2.288 1.936h4.336c-.032-1.008-.752-1.936-2.048-1.936m-130.743 26.976c0-2.352 1.584-4.352 4.128-4.352 1.152 0 2.016.416 2.688 1.136V135h1.68v12h-1.68v-.816c-.672.72-1.536 1.136-2.688 1.136-2.544 0-4.128-2-4.128-4.352m1.744 0c0 1.584 1.04 2.8 2.592 2.8 1.04 0 1.936-.496 2.48-1.344v-2.912c-.592-.88-1.472-1.344-2.48-1.344-1.552 0-2.592 1.216-2.592 2.8m16.691 2.72c-.752 1.008-1.984 1.632-3.488 1.632-2.784 0-4.432-2-4.432-4.352 0-2.416 1.536-4.352 4.096-4.352 2.224 0 3.664 1.52 3.664 3.568 0 .368-.048.736-.112.976h-5.952c.112 1.76 1.184 2.672 2.736 2.672.976 0 1.792-.432 2.288-1.104zm-3.856-5.696c-1.2 0-2.032.688-2.288 1.936h4.336c-.032-1.008-.752-1.936-2.048-1.936m10.17 7.008v-8.064h1.648v.912c.56-.624 1.264-1.072 2.256-1.072.256 0 .496.048.704.112v1.616a3.3 3.3 0 0 0-.848-.112c-1.024 0-1.696.544-2.112 1.232V147zm13.28-1.312c-.752 1.008-1.984 1.632-3.488 1.632-2.784 0-4.432-2-4.432-4.352 0-2.416 1.536-4.352 4.096-4.352 2.224 0 3.664 1.52 3.664 3.568 0 .368-.048.736-.112.976h-5.952c.112 1.76 1.184 2.672 2.736 2.672.976 0 1.792-.432 2.288-1.104zm-3.856-5.696c-1.2 0-2.032.688-2.288 1.936h4.336c-.032-1.008-.752-1.936-2.048-1.936m4.963 5.872 1.136-.992c.528.672 1.168 1.104 1.968 1.104.784 0 1.216-.48 1.216-1.088 0-1.632-3.952-1.04-3.952-3.888 0-1.328 1.12-2.384 2.736-2.384 1.184 0 2.224.576 2.8 1.344l-1.12.976c-.432-.576-.992-.976-1.664-.976-.768 0-1.152.448-1.152.992 0 1.616 3.952 1.072 3.952 3.84-.016 1.584-1.296 2.528-2.8 2.528-1.36 0-2.368-.544-3.12-1.456m7.094 0 1.136-.992c.528.672 1.168 1.104 1.968 1.104.784 0 1.216-.48 1.216-1.088 0-1.632-3.952-1.04-3.952-3.888 0-1.328 1.12-2.384 2.736-2.384 1.184 0 2.224.576 2.8 1.344l-1.12.976c-.432-.576-.992-.976-1.664-.976-.768 0-1.152.448-1.152.992 0 1.616 3.952 1.072 3.952 3.84-.016 1.584-1.296 2.528-2.8 2.528-1.36 0-2.368-.544-3.12-1.456m11.669-7.248c2.624 0 4.384 1.968 4.384 4.352s-1.76 4.352-4.384 4.352c-2.608 0-4.384-1.968-4.384-4.352s1.776-4.352 4.384-4.352m.016 7.152c1.52 0 2.64-1.264 2.64-2.8 0-1.568-1.12-2.8-2.64-2.8-1.552 0-2.672 1.248-2.672 2.8s1.12 2.8 2.672 2.8m11.9-2.224v-4.608h1.664v4.528c0 2.416-1.392 3.856-3.648 3.856-2.272 0-3.664-1.44-3.664-3.856v-4.528h1.664v4.608c0 1.392.736 2.224 2 2.224 1.232 0 1.984-.832 1.984-2.224m4.168 3.456v-8.064h1.648v.912c.56-.624 1.264-1.072 2.256-1.072.256 0 .496.048.704.112v1.616a3.3 3.3 0 0 0-.848-.112c-1.024 0-1.696.544-2.112 1.232V147zm9.776-1.232a2.55 2.55 0 0 0 2.096-1.072l1.296.992c-.736.992-1.92 1.632-3.408 1.632-2.704 0-4.4-2-4.4-4.352s1.696-4.352 4.4-4.352c1.472 0 2.672.64 3.408 1.632l-1.296.992a2.56 2.56 0 0 0-2.112-1.072c-1.552 0-2.672 1.216-2.672 2.8 0 1.6 1.12 2.8 2.688 2.8m12.082-.08c-.752 1.008-1.984 1.632-3.488 1.632-2.784 0-4.432-2-4.432-4.352 0-2.416 1.536-4.352 4.096-4.352 2.224 0 3.664 1.52 3.664 3.568 0 .368-.048.736-.112.976h-5.952c.112 1.76 1.184 2.672 2.736 2.672.976 0 1.792-.432 2.288-1.104zm-3.856-5.696c-1.2 0-2.032.688-2.288 1.936h4.336c-.032-1.008-.752-1.936-2.048-1.936m4.964 5.872 1.136-.992c.528.672 1.168 1.104 1.968 1.104.784 0 1.216-.48 1.216-1.088 0-1.632-3.952-1.04-3.952-3.888 0-1.328 1.12-2.384 2.736-2.384 1.184 0 2.224.576 2.8 1.344l-1.12.976c-.432-.576-.992-.976-1.664-.976-.768 0-1.152.448-1.152.992 0 1.616 3.952 1.072 3.952 3.84-.016 1.584-1.296 2.528-2.8 2.528-1.36 0-2.368-.544-3.12-1.456" fill="#666"/><path fill-rule="evenodd" clip-rule="evenodd" d="M493 185H48v-1h445z" fill="#DDD"/><rect x="127" y="217" width="40" height="40" rx="8" fill="#F5F5FE"/><path d="M66.656 290.592c1.408 0 2.544-.688 3.248-1.696l1.472 1.136c-1.04 1.376-2.688 2.288-4.72 2.288-3.52 0-5.904-2.72-5.904-5.92s2.384-5.92 5.904-5.92c2.032 0 3.68.912 4.72 2.288l-1.472 1.136c-.704-1.008-1.84-1.696-3.248-1.696-2.336 0-4.016 1.856-4.016 4.192 0 2.352 1.68 4.192 4.016 4.192m8.74 1.648c-1.6 0-2.688-.912-2.688-2.336 0-1.216.944-2.096 2.656-2.384l2.608-.432v-.416c0-.992-.736-1.6-1.776-1.6-.88 0-1.568.4-2.032 1.056l-1.232-.944c.72-.96 1.872-1.568 3.312-1.568 2.176 0 3.376 1.28 3.376 3.056V292h-1.648v-.912c-.576.704-1.584 1.152-2.576 1.152m-1.024-2.4c0 .624.496 1.056 1.328 1.056 1.008 0 1.792-.48 2.272-1.248v-1.392l-2.176.368c-1.008.176-1.424.608-1.424 1.216m7.831 2.16v-8.064h1.648v.912c.56-.624 1.264-1.072 2.256-1.072.256 0 .496.048.704.112v1.616a3.3 3.3 0 0 0-.848-.112c-1.024 0-1.696.544-2.112 1.232V292zm7.34-2.8v-3.776h-1.52v-1.488h1.52v-2.016h1.664v2.016h2.672v1.488h-2.672v3.776c0 1.088.576 1.44 1.472 1.44.544 0 .912-.064 1.2-.176v1.456c-.384.16-.832.24-1.456.24-1.888 0-2.88-.992-2.88-2.96m9.889-5.584c2.624 0 4.384 1.968 4.384 4.352s-1.76 4.352-4.384 4.352c-2.608 0-4.384-1.968-4.384-4.352s1.776-4.352 4.384-4.352m.016 7.152c1.52 0 2.64-1.264 2.64-2.8 0-1.568-1.12-2.8-2.64-2.8-1.552 0-2.672 1.248-2.672 2.8s1.12 2.8 2.672 2.8m5.47 2.672c0-.816.4-1.456 1.152-2.016a1.53 1.53 0 0 1-.528-1.152c0-.64.304-1.152.928-1.584a2.77 2.77 0 0 1-1.104-2.24c0-1.552 1.2-2.832 3.168-2.832.607 0 1.136.112 1.584.32h2.976v1.408h-1.584c.144.336.224.72.224 1.104 0 1.568-1.2 2.864-3.2 2.864-.352 0-.672-.048-.976-.112-.256.208-.4.448-.4.688 0 .336.176.528.608.528h2.192c2.08 0 3.12 1.072 3.12 2.528 0 1.744-1.696 3.056-4.144 3.056-2.48 0-4.016-.912-4.016-2.56m3.631-5.392c1.041 0 1.649-.688 1.649-1.6 0-.896-.608-1.568-1.649-1.568-1.039 0-1.647.672-1.647 1.568 0 .912.608 1.6 1.647 1.6m-2.063 5.168c0 .896.896 1.44 2.416 1.44 1.6 0 2.528-.624 2.528-1.568 0-.688-.4-1.232-1.632-1.232h-2.56c-.449.352-.752.784-.752 1.36m8.202-1.216v-8.064h1.648v.912c.56-.624 1.264-1.072 2.256-1.072.256 0 .496.048.704.112v1.616a3.3 3.3 0 0 0-.848-.112c-1.024 0-1.696.544-2.112 1.232V292zm8.271.24c-1.6 0-2.688-.912-2.688-2.336 0-1.216.944-2.096 2.656-2.384l2.608-.432v-.416c0-.992-.736-1.6-1.776-1.6-.88 0-1.568.4-2.032 1.056l-1.232-.944c.72-.96 1.872-1.568 3.312-1.568 2.176 0 3.376 1.28 3.376 3.056V292h-1.648v-.912c-.576.704-1.584 1.152-2.576 1.152m-1.024-2.4c0 .624.496 1.056 1.328 1.056 1.008 0 1.792-.48 2.272-1.248v-1.392l-2.176.368c-1.008.176-1.424.608-1.424 1.216m7.831 6.096v-12h1.648v.832c.688-.736 1.552-1.152 2.72-1.152 2.528 0 4.112 2 4.112 4.352s-1.584 4.352-4.112 4.352c-1.168 0-2.032-.416-2.72-1.152v4.768zm4.16-10.768c-1.056 0-1.936.496-2.512 1.376v2.848c.592.896 1.472 1.376 2.512 1.376 1.552 0 2.592-1.216 2.592-2.8s-1.04-2.8-2.592-2.8m6.371 6.832v-12h1.648v4.72c.608-.64 1.408-1.104 2.56-1.104 1.792 0 3.136 1.2 3.136 3.536V292h-1.664v-4.784c0-1.28-.704-2.048-1.856-2.048-1.104 0-1.744.688-2.176 1.392V292zm10.738-9.856c-.608 0-1.12-.512-1.12-1.12s.512-1.12 1.12-1.12 1.12.512 1.12 1.12-.512 1.12-1.12 1.12m-.832 9.856v-8.064h1.648V292zm11.624-1.312c-.752 1.008-1.984 1.632-3.488 1.632-2.784 0-4.432-2-4.432-4.352 0-2.416 1.536-4.352 4.096-4.352 2.224 0 3.664 1.52 3.664 3.568 0 .368-.048.736-.112.976h-5.952c.112 1.76 1.184 2.672 2.736 2.672.976 0 1.792-.432 2.288-1.104zm-3.856-5.696c-1.2 0-2.032.688-2.288 1.936h4.336c-.032-1.008-.752-1.936-2.048-1.936m9.53 2.976c0-2.352 1.584-4.352 4.128-4.352 1.152 0 2.016.416 2.688 1.136V280h1.68v12h-1.68v-.816c-.672.72-1.536 1.136-2.688 1.136-2.544 0-4.128-2-4.128-4.352m1.744 0c0 1.584 1.04 2.8 2.592 2.8 1.04 0 1.936-.496 2.48-1.344v-2.912c-.592-.88-1.472-1.344-2.48-1.344-1.552 0-2.592 1.216-2.592 2.8m16.692 2.72c-.752 1.008-1.984 1.632-3.488 1.632-2.785 0-4.432-2-4.432-4.352 0-2.416 1.536-4.352 4.096-4.352 2.224 0 3.664 1.52 3.664 3.568 0 .368-.048.736-.112.976h-5.952c.112 1.76 1.184 2.672 2.736 2.672.976 0 1.792-.432 2.288-1.104zm-3.856-5.696c-1.2 0-2.032.688-2.288 1.936h4.336c-.032-1.008-.752-1.936-2.048-1.936m4.963 5.872 1.136-.992c.528.672 1.168 1.104 1.968 1.104.784 0 1.216-.48 1.216-1.088 0-1.632-3.952-1.04-3.952-3.888 0-1.328 1.12-2.384 2.736-2.384 1.184 0 2.224.576 2.8 1.344l-1.12.976c-.432-.576-.992-.976-1.664-.976-.768 0-1.152.448-1.152.992 0 1.616 3.952 1.072 3.952 3.84-.016 1.584-1.296 2.528-2.8 2.528-1.36 0-2.368-.544-3.12-1.456m12.3 1.136v-12h1.648v12zm5.176-9.856c-.608 0-1.12-.512-1.12-1.12s.512-1.12 1.12-1.12 1.12.512 1.12 1.12-.512 1.12-1.12 1.12m-.832 9.856v-8.064h1.648V292zm11.624-1.312c-.752 1.008-1.984 1.632-3.488 1.632-2.785 0-4.432-2-4.432-4.352 0-2.416 1.536-4.352 4.096-4.352 2.224 0 3.664 1.52 3.664 3.568 0 .368-.048.736-.112.976h-5.952c.112 1.76 1.184 2.672 2.736 2.672.976 0 1.792-.432 2.288-1.104zm-3.856-5.696c-1.2 0-2.032.688-2.288 1.936h4.336c-.032-1.008-.752-1.936-2.048-1.936m11.219 3.552v-4.608h1.664v4.528c0 2.416-1.392 3.856-3.648 3.856-2.272 0-3.664-1.44-3.664-3.856v-4.528h1.664v4.608c0 1.392.736 2.224 2 2.224 1.232 0 1.984-.832 1.984-2.224M227.6 292h-1.92l2.912-4.16-2.72-3.904h1.904l1.904 2.768 1.904-2.768h1.904l-2.736 3.904 2.912 4.16h-1.888l-2.096-3.04zM61.696 311.968c0-2.352 1.584-4.352 4.128-4.352 1.152 0 2.016.416 2.688 1.136V304h1.68v12h-1.68v-.816c-.672.72-1.536 1.136-2.688 1.136-2.544 0-4.128-2-4.128-4.352m1.744 0c0 1.584 1.04 2.8 2.592 2.8 1.04 0 1.936-.496 2.48-1.344v-2.912c-.592-.88-1.472-1.344-2.48-1.344-1.552 0-2.592 1.216-2.592 2.8m10.21-2.736h-1.52l1.392-4.432h1.872zm4.534-3.088c-.608 0-1.12-.512-1.12-1.12s.512-1.12 1.12-1.12 1.12.512 1.12 1.12-.512 1.12-1.12 1.12M77.352 316v-8.064H79V316zm4.344 0v-8.064h1.648v.784c.608-.64 1.408-1.104 2.56-1.104 1.776 0 3.136 1.2 3.136 3.536V316h-1.664v-4.784c0-1.28-.704-2.048-1.856-2.048-1.104 0-1.76.688-2.176 1.392V316zm13.682-1.232a2.55 2.55 0 0 0 2.096-1.072l1.296.992c-.736.992-1.92 1.632-3.408 1.632-2.704 0-4.4-2-4.4-4.352s1.696-4.352 4.4-4.352c1.472 0 2.672.64 3.408 1.632l-1.296.992a2.56 2.56 0 0 0-2.112-1.072c-1.552 0-2.672 1.216-2.672 2.8 0 1.6 1.12 2.8 2.688 2.8m5.114 1.232v-12h1.648v12zm9.816-3.456v-4.608h1.664v4.528c0 2.416-1.392 3.856-3.648 3.856-2.272 0-3.664-1.44-3.664-3.856v-4.528h1.664v4.608c0 1.392.736 2.224 2 2.224 1.232 0 1.984-.832 1.984-2.224m3.322 2.32 1.136-.992c.528.672 1.168 1.104 1.968 1.104.784 0 1.216-.48 1.216-1.088 0-1.632-3.952-1.04-3.952-3.888 0-1.328 1.12-2.384 2.736-2.384 1.184 0 2.224.576 2.8 1.344l-1.12.976c-.432-.576-.992-.976-1.664-.976-.768 0-1.152.448-1.152.992 0 1.616 3.952 1.072 3.952 3.84-.016 1.584-1.296 2.528-2.8 2.528-1.36 0-2.368-.544-3.12-1.456m8.819-8.72c-.608 0-1.12-.512-1.12-1.12s.512-1.12 1.12-1.12 1.12.512 1.12 1.12-.512 1.12-1.12 1.12m-.832 9.856v-8.064h1.648V316zm8.088-8.384c2.624 0 4.384 1.968 4.384 4.352s-1.76 4.352-4.384 4.352c-2.608 0-4.384-1.968-4.384-4.352s1.776-4.352 4.384-4.352m.016 7.152c1.52 0 2.64-1.264 2.64-2.8 0-1.568-1.12-2.8-2.64-2.8-1.552 0-2.672 1.248-2.672 2.8s1.12 2.8 2.672 2.8m6.428 1.232v-8.064h1.648v.784c.608-.64 1.408-1.104 2.56-1.104 1.776 0 3.136 1.2 3.136 3.536V316h-1.664v-4.784c0-1.28-.704-2.048-1.856-2.048-1.104 0-1.76.688-2.176 1.392V316zm14.218 0v-8.064h1.648v.784c.608-.64 1.408-1.104 2.56-1.104 1.776 0 3.136 1.2 3.136 3.536V316h-1.664v-4.784c0-1.28-.704-2.048-1.856-2.048-1.104 0-1.76.688-2.176 1.392V316zm15.379-3.456v-4.608h1.664v4.528c0 2.416-1.392 3.856-3.648 3.856-2.272 0-3.664-1.44-3.664-3.856v-4.528h1.664v4.608c0 1.392.736 2.224 2 2.224 1.232 0 1.984-.832 1.984-2.224m4.168 3.456v-8.064h1.648v.752c.576-.624 1.328-1.072 2.4-1.072 1.104 0 2.032.496 2.544 1.456.624-.8 1.424-1.456 2.816-1.456 1.68 0 2.976 1.152 2.976 3.376V316h-1.664v-4.944c0-1.184-.656-1.888-1.696-1.888-.96 0-1.584.608-2.016 1.376.016.144.016.288.016.448V316h-1.664v-4.944c0-1.184-.64-1.888-1.696-1.888-1.024 0-1.632.704-2.016 1.392V316zm19.29-9.344h-1.6l1.664-2.656h1.824zm2.928 8.032c-.752 1.008-1.984 1.632-3.488 1.632-2.784 0-4.432-2-4.432-4.352 0-2.416 1.536-4.352 4.096-4.352 2.224 0 3.664 1.52 3.664 3.568 0 .368-.048.736-.112.976h-5.952c.112 1.76 1.184 2.672 2.736 2.672.976 0 1.792-.432 2.288-1.104zm-3.856-5.696c-1.2 0-2.032.688-2.288 1.936h4.336c-.032-1.008-.752-1.936-2.048-1.936m5.857 7.008v-8.064h1.648v.912c.56-.624 1.264-1.072 2.256-1.072.256 0 .496.048.704.112v1.616a3.3 3.3 0 0 0-.848-.112c-1.024 0-1.696.544-2.112 1.232V316zm7.254-9.856c-.608 0-1.12-.512-1.12-1.12s.512-1.12 1.12-1.12 1.12.512 1.12 1.12-.512 1.12-1.12 1.12m-.832 9.856v-8.064h1.648V316zm3.704-4.032c0-2.352 1.584-4.352 4.112-4.352 1.168 0 2.032.416 2.704 1.152v-.832h1.68v12h-1.68v-4.768c-.672.736-1.536 1.152-2.704 1.152-2.528 0-4.112-2-4.112-4.352m1.728 0c0 1.584 1.04 2.8 2.592 2.8 1.056 0 1.952-.496 2.496-1.344v-2.912c-.592-.88-1.472-1.344-2.496-1.344-1.552 0-2.592 1.216-2.592 2.8m14.915.576v-4.608h1.664v4.528c0 2.416-1.392 3.856-3.648 3.856-2.272 0-3.664-1.44-3.664-3.856v-4.528h1.664v4.608c0 1.392.736 2.224 2 2.224 1.232 0 1.984-.832 1.984-2.224m11.449 2.144c-.752 1.008-1.984 1.632-3.488 1.632-2.784 0-4.432-2-4.432-4.352 0-2.416 1.536-4.352 4.096-4.352 2.224 0 3.664 1.52 3.664 3.568 0 .368-.048.736-.112.976h-5.952c.112 1.76 1.184 2.672 2.736 2.672.976 0 1.792-.432 2.288-1.104zm-3.856-5.696c-1.2 0-2.032.688-2.288 1.936h4.336c-.032-1.008-.752-1.936-2.048-1.936" fill="#666"/><path fill-rule="evenodd" clip-rule="evenodd" d="M270 309v-80h1v80z" fill="#DDD"/><g clip-path="url(#a)"><path d="M406.727 217h-25.454a7.273 7.273 0 0 0-7.273 7.273v25.454a7.273 7.273 0 0 0 7.273 7.273h25.454a7.273 7.273 0 0 0 7.273-7.273v-25.454a7.273 7.273 0 0 0-7.273-7.273" fill="#F5F5FE"/><path d="m394.036 222.454-12.646 7.273v14.545l12.646 7.273 12.574-7.273v-14.545z" fill="#E1000F"/><path d="M397.623 234.907h4.76v-2.767l-8.348-4.825-8.418 4.825v9.65l8.418 4.896 8.348-4.896v-2.732h-4.76z" fill="#fff"/><path d="M397.623 239.058v-4.15l-3.587-2.094-3.659 2.094v4.15l3.659 2.093z" fill="#000091"/></g><path d="M321.384 292v-11.2h4.352c3.52 0 5.904 2.576 5.904 5.6s-2.384 5.6-5.904 5.6zm4.368-9.52h-2.544v7.84h2.544c2.32 0 3.984-1.744 3.984-3.92 0-2.192-1.664-3.92-3.984-3.92m11.805 1.136c2.624 0 4.384 1.968 4.384 4.352s-1.76 4.352-4.384 4.352c-2.608 0-4.384-1.968-4.384-4.352s1.776-4.352 4.384-4.352m.016 7.152c1.52 0 2.64-1.264 2.64-2.8 0-1.568-1.12-2.8-2.64-2.8-1.552 0-2.672 1.248-2.672 2.8s1.12 2.8 2.672 2.8M344 292v-8.064h1.648v.784c.608-.64 1.408-1.104 2.56-1.104 1.776 0 3.136 1.2 3.136 3.536V292h-1.664v-4.784c0-1.28-.704-2.048-1.856-2.048-1.104 0-1.76.688-2.176 1.392V292zm9.907 0v-8.064h1.648v.784c.608-.64 1.408-1.104 2.56-1.104 1.776 0 3.136 1.2 3.136 3.536V292h-1.664v-4.784c0-1.28-.704-2.048-1.856-2.048-1.104 0-1.76.688-2.176 1.392V292zm14.258-9.344h-1.6l1.664-2.656h1.824zm2.928 8.032c-.752 1.008-1.984 1.632-3.488 1.632-2.784 0-4.432-2-4.432-4.352 0-2.416 1.536-4.352 4.096-4.352 2.224 0 3.664 1.52 3.664 3.568 0 .368-.048.736-.112.976h-5.952c.112 1.76 1.184 2.672 2.736 2.672.976 0 1.792-.432 2.288-1.104zm-3.856-5.696c-1.2 0-2.032.688-2.288 1.936h4.336c-.032-1.008-.752-1.936-2.048-1.936m13.09 5.696c-.752 1.008-1.984 1.632-3.488 1.632-2.784 0-4.432-2-4.432-4.352 0-2.416 1.536-4.352 4.096-4.352 2.224 0 3.664 1.52 3.664 3.568 0 .368-.048.736-.112.976h-5.952c.112 1.76 1.184 2.672 2.736 2.672.976 0 1.792-.432 2.288-1.104zm-3.856-5.696c-1.2 0-2.032.688-2.288 1.936h4.336c-.032-1.008-.752-1.936-2.048-1.936m4.964 5.872 1.136-.992c.528.672 1.168 1.104 1.968 1.104.784 0 1.216-.48 1.216-1.088 0-1.632-3.952-1.04-3.952-3.888 0-1.328 1.12-2.384 2.736-2.384 1.184 0 2.224.576 2.8 1.344l-1.12.976c-.432-.576-.992-.976-1.664-.976-.768 0-1.152.448-1.152.992 0 1.616 3.952 1.072 3.952 3.84-.016 1.584-1.296 2.528-2.8 2.528-1.36 0-2.368-.544-3.12-1.456m12.3 5.072v-12h1.648v.832c.688-.736 1.552-1.152 2.72-1.152 2.528 0 4.112 2 4.112 4.352s-1.584 4.352-4.112 4.352c-1.168 0-2.032-.416-2.72-1.152v4.768zm4.16-10.768c-1.056 0-1.936.496-2.512 1.376v2.848c.592.896 1.472 1.376 2.512 1.376 1.552 0 2.592-1.216 2.592-2.8s-1.04-2.8-2.592-2.8m11.843 3.376v-4.608h1.664v4.528c0 2.416-1.392 3.856-3.648 3.856-2.272 0-3.664-1.44-3.664-3.856v-4.528h1.664v4.608c0 1.392.736 2.224 2 2.224 1.232 0 1.984-.832 1.984-2.224m12.649-.576c0 2.352-1.584 4.352-4.112 4.352-1.168 0-2.032-.416-2.72-1.152V292h-1.648v-12h1.648v4.768c.688-.736 1.552-1.152 2.72-1.152 2.528 0 4.112 2 4.112 4.352m-4.32-2.8a2.92 2.92 0 0 0-2.512 1.36v2.88c.592.88 1.472 1.36 2.512 1.36 1.552 0 2.592-1.216 2.592-2.8s-1.04-2.8-2.592-2.8m6.386 6.832v-12h1.648v12zm5.176-9.856c-.608 0-1.12-.512-1.12-1.12s.512-1.12 1.12-1.12 1.12.512 1.12 1.12-.512 1.12-1.12 1.12m-.832 9.856v-8.064h1.648V292zm3.704-4.032c0-2.352 1.584-4.352 4.112-4.352 1.168 0 2.032.416 2.704 1.152v-.832h1.68v12h-1.68v-4.768c-.672.736-1.536 1.152-2.704 1.152-2.528 0-4.112-2-4.112-4.352m1.728 0c0 1.584 1.04 2.8 2.592 2.8 1.056 0 1.952-.496 2.496-1.344v-2.912c-.592-.88-1.472-1.344-2.496-1.344-1.552 0-2.592 1.216-2.592 2.8m14.915.576v-4.608h1.664v4.528c0 2.416-1.392 3.856-3.648 3.856-2.272 0-3.664-1.44-3.664-3.856v-4.528h1.664v4.608c0 1.392.736 2.224 2 2.224 1.232 0 1.984-.832 1.984-2.224m11.449 2.144c-.752 1.008-1.984 1.632-3.488 1.632-2.784 0-4.432-2-4.432-4.352 0-2.416 1.536-4.352 4.096-4.352 2.224 0 3.664 1.52 3.664 3.568 0 .368-.048.736-.112.976h-5.952c.112 1.76 1.184 2.672 2.736 2.672.976 0 1.792-.432 2.288-1.104zm-3.856-5.696c-1.2 0-2.032.688-2.288 1.936h4.336c-.032-1.008-.752-1.936-2.048-1.936m4.963 5.872 1.136-.992c.528.672 1.168 1.104 1.968 1.104.784 0 1.216-.48 1.216-1.088 0-1.632-3.952-1.04-3.952-3.888 0-1.328 1.12-2.384 2.736-2.384 1.184 0 2.224.576 2.8 1.344l-1.12.976c-.432-.576-.992-.976-1.664-.976-.768 0-1.152.448-1.152.992 0 1.616 3.952 1.072 3.952 3.84-.016 1.584-1.296 2.528-2.8 2.528-1.36 0-2.368-.544-3.12-1.456M332.875 316v-12h1.648v12zm8.088-8.384c2.624 0 4.384 1.968 4.384 4.352s-1.76 4.352-4.384 4.352c-2.608 0-4.384-1.968-4.384-4.352s1.776-4.352 4.384-4.352m.016 7.152c1.52 0 2.64-1.264 2.64-2.8 0-1.568-1.12-2.8-2.64-2.8-1.552 0-2.672 1.248-2.672 2.8s1.12 2.8 2.672 2.8m10.282 0a2.55 2.55 0 0 0 2.096-1.072l1.296.992c-.736.992-1.92 1.632-3.408 1.632-2.704 0-4.4-2-4.4-4.352s1.696-4.352 4.4-4.352c1.472 0 2.672.64 3.408 1.632l-1.296.992a2.56 2.56 0 0 0-2.112-1.072c-1.552 0-2.672 1.216-2.672 2.8 0 1.6 1.12 2.8 2.688 2.8m7.213 1.472c-1.6 0-2.688-.912-2.688-2.336 0-1.216.944-2.096 2.656-2.384l2.608-.432v-.416c0-.992-.736-1.6-1.776-1.6-.88 0-1.568.4-2.032 1.056l-1.232-.944c.72-.96 1.872-1.568 3.312-1.568 2.176 0 3.376 1.28 3.376 3.056V316h-1.648v-.912c-.576.704-1.584 1.152-2.576 1.152m-1.024-2.4c0 .624.496 1.056 1.328 1.056 1.008 0 1.792-.48 2.272-1.248v-1.392l-2.176.368c-1.008.176-1.424.608-1.424 1.216m7.832 2.16v-12h1.648v12zm15.936-1.312c-.752 1.008-1.984 1.632-3.488 1.632-2.784 0-4.432-2-4.432-4.352 0-2.416 1.536-4.352 4.096-4.352 2.224 0 3.664 1.52 3.664 3.568 0 .368-.048.736-.112.976h-5.952c.112 1.76 1.184 2.672 2.736 2.672.976 0 1.792-.432 2.288-1.104zm-3.856-5.696c-1.2 0-2.032.688-2.288 1.936h4.336c-.032-1.008-.752-1.936-2.048-1.936m6.306 4.208v-3.776h-1.52v-1.488h1.52v-2.016h1.664v2.016h2.672v1.488h-2.672v3.776c0 1.088.576 1.44 1.472 1.44.544 0 .912-.064 1.2-.176v1.456c-.384.16-.832.24-1.456.24-1.888 0-2.88-.992-2.88-2.96m10.614 2.8v-8.064h1.648v.784c.608-.64 1.408-1.104 2.56-1.104 1.776 0 3.136 1.2 3.136 3.536V316h-1.664v-4.784c0-1.28-.704-2.048-1.856-2.048-1.104 0-1.76.688-2.176 1.392V316zm12.13.24c-1.6 0-2.688-.912-2.688-2.336 0-1.216.944-2.096 2.656-2.384l2.608-.432v-.416c0-.992-.736-1.6-1.776-1.6-.88 0-1.568.4-2.032 1.056l-1.232-.944c.72-.96 1.872-1.568 3.312-1.568 2.176 0 3.376 1.28 3.376 3.056V316h-1.648v-.912c-.576.704-1.584 1.152-2.576 1.152m-1.024-2.4c0 .624.496 1.056 1.328 1.056 1.008 0 1.792-.48 2.272-1.248v-1.392l-2.176.368c-1.008.176-1.424.608-1.424 1.216m8.311-.64v-3.776h-1.52v-1.488h1.52v-2.016h1.664v2.016h2.672v1.488h-2.672v3.776c0 1.088.576 1.44 1.472 1.44.544 0 .912-.064 1.2-.176v1.456c-.384.16-.832.24-1.456.24-1.888 0-2.88-.992-2.88-2.96m7.133-7.056c-.608 0-1.12-.512-1.12-1.12s.512-1.12 1.12-1.12 1.12.512 1.12 1.12-.512 1.12-1.12 1.12M420 316v-8.064h1.648V316zm8.088-8.384c2.624 0 4.384 1.968 4.384 4.352s-1.76 4.352-4.384 4.352c-2.608 0-4.384-1.968-4.384-4.352s1.776-4.352 4.384-4.352m.016 7.152c1.52 0 2.64-1.264 2.64-2.8 0-1.568-1.12-2.8-2.64-2.8-1.552 0-2.672 1.248-2.672 2.8s1.12 2.8 2.672 2.8m6.428 1.232v-8.064h1.648v.784c.608-.64 1.408-1.104 2.56-1.104 1.776 0 3.136 1.2 3.136 3.536V316h-1.664v-4.784c0-1.28-.704-2.048-1.856-2.048-1.104 0-1.76.688-2.176 1.392V316zm12.13.24c-1.6 0-2.688-.912-2.688-2.336 0-1.216.944-2.096 2.656-2.384l2.608-.432v-.416c0-.992-.736-1.6-1.776-1.6-.88 0-1.568.4-2.032 1.056l-1.232-.944c.72-.96 1.872-1.568 3.312-1.568 2.176 0 3.376 1.28 3.376 3.056V316h-1.648v-.912c-.576.704-1.584 1.152-2.576 1.152m-1.024-2.4c0 .624.496 1.056 1.328 1.056 1.008 0 1.792-.48 2.272-1.248v-1.392l-2.176.368c-1.008.176-1.424.608-1.424 1.216m7.831 2.16v-12h1.648v12z" fill="#666"/><path fill-rule="evenodd" clip-rule="evenodd" d="M493 354H48v-1h445z" fill="#DDD"/><g clip-path="url(#b)"><path d="M159.727 386h-25.454a7.273 7.273 0 0 0-7.273 7.273v25.454a7.273 7.273 0 0 0 7.273 7.273h25.454a7.273 7.273 0 0 0 7.273-7.273v-25.454a7.273 7.273 0 0 0-7.273-7.273" fill="#F5F5FE"/></g><path d="M71.536 451.48v-1.68h9.04v1.68h-3.6V461h-1.84v-9.52zm17.018 8.208c-.752 1.008-1.984 1.632-3.488 1.632-2.784 0-4.432-2-4.432-4.352 0-2.416 1.536-4.352 4.096-4.352 2.224 0 3.664 1.52 3.664 3.568 0 .368-.048.736-.112.976H82.33c.112 1.76 1.184 2.672 2.736 2.672.976 0 1.792-.432 2.288-1.104zm-3.856-5.696c-1.2 0-2.032.688-2.288 1.936h4.336c-.032-1.008-.752-1.936-2.048-1.936m4.963 5.872 1.136-.992c.528.672 1.168 1.104 1.968 1.104.784 0 1.216-.48 1.216-1.088 0-1.632-3.952-1.04-3.952-3.888 0-1.328 1.12-2.384 2.736-2.384 1.184 0 2.224.576 2.8 1.344l-1.12.976c-.432-.576-.992-.976-1.664-.976-.768 0-1.152.448-1.152.992 0 1.616 3.952 1.072 3.952 3.84-.016 1.584-1.296 2.528-2.8 2.528-1.36 0-2.368-.544-3.12-1.456m8.561-1.664v-3.776h-1.52v-1.488h1.52v-2.016h1.664v2.016h2.672v1.488h-2.672v3.776c0 1.088.576 1.44 1.472 1.44.544 0 .912-.064 1.2-.176v1.456c-.384.16-.832.24-1.456.24-1.888 0-2.88-.992-2.88-2.96m5.502 1.664 1.136-.992c.528.672 1.168 1.104 1.968 1.104.784 0 1.216-.48 1.216-1.088 0-1.632-3.952-1.04-3.952-3.888 0-1.328 1.12-2.384 2.736-2.384 1.184 0 2.224.576 2.8 1.344l-1.12.976c-.432-.576-.992-.976-1.664-.976-.768 0-1.152.448-1.152.992 0 1.616 3.952 1.072 3.952 3.84-.016 1.584-1.296 2.528-2.8 2.528-1.36 0-2.368-.544-3.12-1.456m19.58-.176c-.752 1.008-1.984 1.632-3.488 1.632-2.784 0-4.432-2-4.432-4.352 0-2.416 1.536-4.352 4.096-4.352 2.224 0 3.664 1.52 3.664 3.568 0 .368-.048.736-.112.976h-5.952c.112 1.76 1.184 2.672 2.736 2.672.976 0 1.792-.432 2.288-1.104zm-3.856-5.696c-1.2 0-2.032.688-2.288 1.936h4.336c-.032-1.008-.752-1.936-2.048-1.936m6.306 4.208v-3.776h-1.52v-1.488h1.52v-2.016h1.664v2.016h2.672v1.488h-2.672v3.776c0 1.088.576 1.44 1.472 1.44.544 0 .912-.064 1.2-.176v1.456c-.384.16-.832.24-1.456.24-1.888 0-2.88-.992-2.88-2.96m14.965-6.544h-1.6l1.664-2.656h1.824zm2.928 8.032c-.752 1.008-1.984 1.632-3.488 1.632-2.784 0-4.432-2-4.432-4.352 0-2.416 1.536-4.352 4.096-4.352 2.224 0 3.664 1.52 3.664 3.568 0 .368-.048.736-.112.976h-5.952c.112 1.76 1.184 2.672 2.736 2.672.976 0 1.792-.432 2.288-1.104zm-3.856-5.696c-1.2 0-2.032.688-2.288 1.936h4.336c-.032-1.008-.752-1.936-2.048-1.936m4.627-1.056h1.776l2.368 6.272 2.352-6.272h1.792L149.65 461h-2.192zm11.845 8.304c-1.6 0-2.688-.912-2.688-2.336 0-1.216.944-2.096 2.656-2.384l2.608-.432v-.416c0-.992-.736-1.6-1.776-1.6-.88 0-1.568.4-2.032 1.056l-1.232-.944c.72-.96 1.872-1.568 3.312-1.568 2.176 0 3.376 1.28 3.376 3.056V461h-1.648v-.912c-.576.704-1.584 1.152-2.576 1.152m-1.024-2.4c0 .624.496 1.056 1.328 1.056 1.008 0 1.792-.48 2.272-1.248v-1.392l-2.176.368c-1.008.176-1.424.608-1.424 1.216m7.832 2.16v-12h1.648v12zm9.815-3.456v-4.608h1.664v4.528c0 2.416-1.392 3.856-3.648 3.856-2.272 0-3.664-1.44-3.664-3.856v-4.528h1.664v4.608c0 1.392.736 2.224 2 2.224 1.232 0 1.984-.832 1.984-2.224m6.237 3.696c-1.6 0-2.688-.912-2.688-2.336 0-1.216.944-2.096 2.656-2.384l2.608-.432v-.416c0-.992-.736-1.6-1.776-1.6-.88 0-1.568.4-2.032 1.056l-1.232-.944c.72-.96 1.872-1.568 3.312-1.568 2.176 0 3.376 1.28 3.376 3.056V461h-1.648v-.912c-.576.704-1.584 1.152-2.576 1.152m-1.024-2.4c0 .624.496 1.056 1.328 1.056 1.008 0 1.792-.48 2.272-1.248v-1.392l-2.176.368c-1.008.176-1.424.608-1.424 1.216m8.311-.64v-3.776h-1.52v-1.488h1.52v-2.016h1.664v2.016h2.672v1.488h-2.672v3.776c0 1.088.576 1.44 1.472 1.44.544 0 .912-.064 1.2-.176v1.456c-.384.16-.832.24-1.456.24-1.888 0-2.88-.992-2.88-2.96m7.133-7.056c-.608 0-1.12-.512-1.12-1.12s.512-1.12 1.12-1.12 1.12.512 1.12 1.12-.512 1.12-1.12 1.12m-.832 9.856v-8.064h1.648V461zm8.088-8.384c2.624 0 4.384 1.968 4.384 4.352s-1.76 4.352-4.384 4.352c-2.608 0-4.384-1.968-4.384-4.352s1.776-4.352 4.384-4.352m.016 7.152c1.52 0 2.64-1.264 2.64-2.8 0-1.568-1.12-2.8-2.64-2.8-1.552 0-2.672 1.248-2.672 2.8s1.12 2.8 2.672 2.8m6.427 1.232v-8.064h1.648v.784c.608-.64 1.408-1.104 2.56-1.104 1.776 0 3.136 1.2 3.136 3.536V461h-1.664v-4.784c0-1.28-.704-2.048-1.856-2.048-1.104 0-1.76.688-2.176 1.392V461zm9.107-1.136 1.136-.992c.528.672 1.168 1.104 1.968 1.104.784 0 1.216-.48 1.216-1.088 0-1.632-3.952-1.04-3.952-3.888 0-1.328 1.12-2.384 2.736-2.384 1.184 0 2.224.576 2.8 1.344l-1.12.976c-.432-.576-.992-.976-1.664-.976-.768 0-1.152.448-1.152.992 0 1.616 3.952 1.072 3.952 3.84-.016 1.584-1.296 2.528-2.8 2.528-1.36 0-2.368-.544-3.12-1.456m-136.41 21.104c0-2.352 1.583-4.352 4.127-4.352 1.152 0 2.016.416 2.688 1.136V473h1.68v12h-1.68v-.816c-.672.72-1.536 1.136-2.688 1.136-2.544 0-4.128-2-4.128-4.352m1.743 0c0 1.584 1.04 2.8 2.592 2.8 1.04 0 1.936-.496 2.48-1.344v-2.912c-.592-.88-1.472-1.344-2.48-1.344-1.552 0-2.592 1.216-2.592 2.8m16.692 2.72c-.752 1.008-1.984 1.632-3.488 1.632-2.784 0-4.432-2-4.432-4.352 0-2.416 1.536-4.352 4.096-4.352 2.224 0 3.664 1.52 3.664 3.568 0 .368-.048.736-.112.976H92.15c.112 1.76 1.184 2.672 2.736 2.672.976 0 1.792-.432 2.288-1.104zm-3.856-5.696c-1.2 0-2.032.688-2.288 1.936h4.336c-.032-1.008-.752-1.936-2.048-1.936m4.963 5.872 1.137-.992c.528.672 1.168 1.104 1.968 1.104.784 0 1.216-.48 1.216-1.088 0-1.632-3.953-1.04-3.953-3.888 0-1.328 1.121-2.384 2.737-2.384 1.184 0 2.224.576 2.8 1.344l-1.12.976c-.432-.576-.992-.976-1.664-.976-.768 0-1.152.448-1.152.992 0 1.616 3.952 1.072 3.952 3.84-.016 1.584-1.296 2.528-2.8 2.528-1.36 0-2.368-.544-3.12-1.456m16.077-.096a2.55 2.55 0 0 0 2.096-1.072l1.296.992c-.736.992-1.92 1.632-3.408 1.632-2.704 0-4.4-2-4.4-4.352s1.696-4.352 4.4-4.352c1.472 0 2.672.64 3.408 1.632l-1.296.992a2.56 2.56 0 0 0-2.112-1.072c-1.552 0-2.672 1.216-2.672 2.8 0 1.6 1.12 2.8 2.688 2.8m8.546-7.152c2.624 0 4.384 1.968 4.384 4.352s-1.76 4.352-4.384 4.352c-2.608 0-4.384-1.968-4.384-4.352s1.776-4.352 4.384-4.352m.016 7.152c1.52 0 2.64-1.264 2.64-2.8 0-1.568-1.12-2.8-2.64-2.8-1.552 0-2.672 1.248-2.672 2.8s1.12 2.8 2.672 2.8m6.427 1.232v-8.064h1.648v.752c.576-.624 1.328-1.072 2.4-1.072 1.104 0 2.032.496 2.544 1.456.624-.8 1.424-1.456 2.816-1.456 1.68 0 2.976 1.152 2.976 3.376V485h-1.664v-4.944c0-1.184-.656-1.888-1.696-1.888-.96 0-1.584.608-2.016 1.376.016.144.016.288.016.448V485h-1.664v-4.944c0-1.184-.64-1.888-1.696-1.888-1.024 0-1.632.704-2.016 1.392V485zm14.938 3.936v-12h1.648v.832c.688-.736 1.552-1.152 2.72-1.152 2.528 0 4.112 2 4.112 4.352s-1.584 4.352-4.112 4.352c-1.168 0-2.032-.416-2.72-1.152v4.768zm4.16-10.768c-1.056 0-1.936.496-2.512 1.376v2.848c.592.896 1.472 1.376 2.512 1.376 1.552 0 2.592-1.216 2.592-2.8s-1.04-2.8-2.592-2.8m10.801-2.512h-1.6L160.51 473h1.824zm2.928 8.032c-.752 1.008-1.984 1.632-3.488 1.632-2.784 0-4.432-2-4.432-4.352 0-2.416 1.536-4.352 4.096-4.352 2.224 0 3.664 1.52 3.664 3.568 0 .368-.048.736-.112.976h-5.952c.112 1.76 1.184 2.672 2.736 2.672.976 0 1.792-.432 2.288-1.104zm-3.856-5.696c-1.2 0-2.032.688-2.288 1.936h4.336c-.032-1.008-.752-1.936-2.048-1.936m6.306 4.208v-3.776h-1.52v-1.488h1.52v-2.016h1.664v2.016h2.672v1.488h-2.672v3.776c0 1.088.576 1.44 1.472 1.44.544 0 .912-.064 1.2-.176v1.456c-.384.16-.832.24-1.456.24-1.888 0-2.88-.992-2.88-2.96m13.425 1.488c-.752 1.008-1.984 1.632-3.488 1.632-2.784 0-4.432-2-4.432-4.352 0-2.416 1.536-4.352 4.096-4.352 2.224 0 3.664 1.52 3.664 3.568 0 .368-.048.736-.112.976h-5.952c.112 1.76 1.184 2.672 2.736 2.672.976 0 1.792-.432 2.288-1.104zm-3.856-5.696c-1.2 0-2.032.688-2.288 1.936h4.336c-.032-1.008-.752-1.936-2.048-1.936M181.25 485v-8.064h1.648v.784c.608-.64 1.408-1.104 2.56-1.104 1.776 0 3.136 1.2 3.136 3.536V485h-1.664v-4.784c0-1.28-.704-2.048-1.856-2.048-1.104 0-1.76.688-2.176 1.392V485zm13.683-1.232a2.55 2.55 0 0 0 2.096-1.072l1.296.992c-.736.992-1.92 1.632-3.408 1.632-2.704 0-4.4-2-4.4-4.352s1.696-4.352 4.4-4.352c1.472 0 2.672.64 3.408 1.632l-1.296.992a2.56 2.56 0 0 0-2.112-1.072c-1.552 0-2.672 1.216-2.672 2.8 0 1.6 1.12 2.8 2.688 2.8m12.082-.08c-.752 1.008-1.984 1.632-3.488 1.632-2.784 0-4.432-2-4.432-4.352 0-2.416 1.536-4.352 4.096-4.352 2.224 0 3.664 1.52 3.664 3.568 0 .368-.048.736-.112.976h-5.952c.112 1.76 1.184 2.672 2.736 2.672.976 0 1.792-.432 2.288-1.104zm-3.856-5.696c-1.2 0-2.032.688-2.288 1.936h4.336c-.032-1.008-.752-1.936-2.048-1.936m4.963 5.872 1.136-.992c.528.672 1.168 1.104 1.968 1.104.784 0 1.216-.48 1.216-1.088 0-1.632-3.952-1.04-3.952-3.888 0-1.328 1.12-2.384 2.736-2.384 1.184 0 2.224.576 2.8 1.344l-1.12.976c-.432-.576-.992-.976-1.664-.976-.768 0-1.152.448-1.152.992 0 1.616 3.952 1.072 3.952 3.84-.016 1.584-1.296 2.528-2.8 2.528-1.36 0-2.368-.544-3.12-1.456" fill="#666"/><path fill-rule="evenodd" clip-rule="evenodd" d="M270 478v-80h1v80z" fill="#DDD"/><rect x="374" y="386" width="40" height="40" rx="8" fill="#F5F5FE"/><path d="m315.782 461 4.368-11.2h2.432l4.368 11.2h-1.968l-1.184-3.136h-4.88L317.734 461zm3.744-4.704h3.664l-1.824-4.832zm10.33-5.152c-.608 0-1.12-.512-1.12-1.12s.512-1.12 1.12-1.12 1.12.512 1.12 1.12-.512 1.12-1.12 1.12m-.832 9.856v-8.064h1.648V461zm3.703-4.032c0-2.352 1.584-4.352 4.128-4.352 1.152 0 2.016.416 2.688 1.136V449h1.68v12h-1.68v-.816c-.672.72-1.536 1.136-2.688 1.136-2.544 0-4.128-2-4.128-4.352m1.744 0c0 1.584 1.04 2.8 2.592 2.8 1.04 0 1.936-.496 2.48-1.344v-2.912c-.592-.88-1.472-1.344-2.48-1.344-1.552 0-2.592 1.216-2.592 2.8m16.692 2.72c-.752 1.008-1.984 1.632-3.488 1.632-2.784 0-4.432-2-4.432-4.352 0-2.416 1.536-4.352 4.096-4.352 2.224 0 3.664 1.52 3.664 3.568 0 .368-.048.736-.112.976h-5.952c.112 1.76 1.184 2.672 2.736 2.672.976 0 1.792-.432 2.288-1.104zm-3.856-5.696c-1.2 0-2.032.688-2.288 1.936h4.336c-.032-1.008-.752-1.936-2.048-1.936m12.394 7.248c-1.6 0-2.688-.912-2.688-2.336 0-1.216.944-2.096 2.656-2.384l2.608-.432v-.416c0-.992-.736-1.6-1.776-1.6-.88 0-1.568.4-2.032 1.056l-1.232-.944c.72-.96 1.872-1.568 3.312-1.568 2.176 0 3.376 1.28 3.376 3.056V461h-1.648v-.912c-.576.704-1.584 1.152-2.576 1.152m-1.024-2.4c0 .624.496 1.056 1.328 1.056 1.008 0 1.792-.48 2.272-1.248v-1.392l-2.176.368c-1.008.176-1.424.608-1.424 1.216m13.303-1.296v-4.608h1.664v4.528c0 2.416-1.392 3.856-3.648 3.856-2.272 0-3.664-1.44-3.664-3.856v-4.528h1.664v4.608c0 1.392.736 2.224 2 2.224 1.232 0 1.984-.832 1.984-2.224m4.925 3.456h-1.92l2.912-4.16-2.72-3.904h1.904l1.904 2.768 1.904-2.768h1.904l-2.736 3.904 2.912 4.16h-1.888l-2.096-3.04zm11.432-4.032c0-2.352 1.584-4.352 4.128-4.352 1.152 0 2.016.416 2.688 1.136V449h1.68v12h-1.68v-.816c-.672.72-1.536 1.136-2.688 1.136-2.544 0-4.128-2-4.128-4.352m1.744 0c0 1.584 1.04 2.8 2.592 2.8 1.04 0 1.936-.496 2.48-1.344v-2.912c-.592-.88-1.472-1.344-2.48-1.344-1.552 0-2.592 1.216-2.592 2.8m13.763-5.312h-1.6l1.664-2.656h1.824zm2.928 8.032c-.752 1.008-1.984 1.632-3.488 1.632-2.784 0-4.432-2-4.432-4.352 0-2.416 1.536-4.352 4.096-4.352 2.224 0 3.664 1.52 3.664 3.568 0 .368-.048.736-.112.976h-5.952c.112 1.76 1.184 2.672 2.736 2.672.976 0 1.792-.432 2.288-1.104zm-3.856-5.696c-1.2 0-2.032.688-2.288 1.936h4.336c-.032-1.008-.752-1.936-2.048-1.936m5.858 7.008v-8.064h1.648v.752c.576-.624 1.328-1.072 2.4-1.072 1.104 0 2.032.496 2.544 1.456.624-.8 1.424-1.456 2.816-1.456 1.68 0 2.976 1.152 2.976 3.376V461h-1.664v-4.944c0-1.184-.656-1.888-1.696-1.888-.96 0-1.584.608-2.016 1.376.016.144.016.288.016.448V461h-1.664v-4.944c0-1.184-.64-1.888-1.696-1.888-1.024 0-1.632.704-2.016 1.392V461zm17.161.24c-1.6 0-2.688-.912-2.688-2.336 0-1.216.944-2.096 2.656-2.384l2.608-.432v-.416c0-.992-.736-1.6-1.776-1.6-.88 0-1.568.4-2.032 1.056l-1.232-.944c.72-.96 1.872-1.568 3.312-1.568 2.176 0 3.376 1.28 3.376 3.056V461h-1.648v-.912c-.576.704-1.584 1.152-2.576 1.152m-1.024-2.4c0 .624.496 1.056 1.328 1.056 1.008 0 1.792-.48 2.272-1.248v-1.392l-2.176.368c-1.008.176-1.424.608-1.424 1.216m7.831 2.16v-8.064h1.648v.912c.56-.624 1.264-1.072 2.256-1.072.256 0 .496.048.704.112v1.616a3.3 3.3 0 0 0-.848-.112c-1.024 0-1.696.544-2.112 1.232V461zm9.776-1.232a2.55 2.55 0 0 0 2.096-1.072l1.296.992c-.736.992-1.92 1.632-3.408 1.632-2.704 0-4.4-2-4.4-4.352s1.696-4.352 4.4-4.352c1.472 0 2.672.64 3.408 1.632l-1.296.992a2.56 2.56 0 0 0-2.112-1.072c-1.552 0-2.672 1.216-2.672 2.8 0 1.6 1.12 2.8 2.688 2.8m5.115 1.232v-12h1.648v4.72c.608-.64 1.408-1.104 2.56-1.104 1.792 0 3.136 1.2 3.136 3.536V461h-1.664v-4.784c0-1.28-.704-2.048-1.856-2.048-1.104 0-1.744.688-2.176 1.392V461zm17.186-1.312c-.752 1.008-1.984 1.632-3.488 1.632-2.784 0-4.432-2-4.432-4.352 0-2.416 1.536-4.352 4.096-4.352 2.224 0 3.664 1.52 3.664 3.568 0 .368-.048.736-.112.976h-5.952c.112 1.76 1.184 2.672 2.736 2.672.976 0 1.792-.432 2.288-1.104zm-3.856-5.696c-1.2 0-2.032.688-2.288 1.936h4.336c-.032-1.008-.752-1.936-2.048-1.936m4.964 5.872 1.136-.992c.528.672 1.168 1.104 1.968 1.104.784 0 1.216-.48 1.216-1.088 0-1.632-3.952-1.04-3.952-3.888 0-1.328 1.12-2.384 2.736-2.384 1.184 0 2.224.576 2.8 1.344l-1.12.976c-.432-.576-.992-.976-1.664-.976-.768 0-1.152.448-1.152.992 0 1.616 3.952 1.072 3.952 3.84-.016 1.584-1.296 2.528-2.8 2.528-1.36 0-2.368-.544-3.12-1.456M300.756 485.24c-1.6 0-2.688-.912-2.688-2.336 0-1.216.944-2.096 2.656-2.384l2.608-.432v-.416c0-.992-.736-1.6-1.776-1.6-.88 0-1.568.4-2.032 1.056l-1.232-.944c.72-.96 1.872-1.568 3.312-1.568 2.176 0 3.376 1.28 3.376 3.056V485h-1.648v-.912c-.576.704-1.584 1.152-2.576 1.152m-1.024-2.4c0 .624.496 1.056 1.328 1.056 1.008 0 1.792-.48 2.272-1.248v-1.392l-2.176.368c-1.008.176-1.424.608-1.424 1.216m7.191-1.872c0-2.352 1.584-4.352 4.128-4.352 1.152 0 2.016.416 2.688 1.136V473h1.68v12h-1.68v-.816c-.672.72-1.536 1.136-2.688 1.136-2.544 0-4.128-2-4.128-4.352m1.744 0c0 1.584 1.04 2.8 2.592 2.8 1.04 0 1.936-.496 2.48-1.344v-2.912c-.592-.88-1.472-1.344-2.48-1.344-1.552 0-2.592 1.216-2.592 2.8m9.411 4.032v-8.064h1.648v.752c.576-.624 1.328-1.072 2.4-1.072 1.104 0 2.032.496 2.544 1.456.624-.8 1.424-1.456 2.816-1.456 1.68 0 2.976 1.152 2.976 3.376V485h-1.664v-4.944c0-1.184-.656-1.888-1.696-1.888-.96 0-1.584.608-2.016 1.376.016.144.016.288.016.448V485h-1.664v-4.944c0-1.184-.64-1.888-1.696-1.888-1.024 0-1.632.704-2.016 1.392V485zm15.77-9.856c-.608 0-1.12-.512-1.12-1.12s.512-1.12 1.12-1.12 1.12.512 1.12 1.12-.512 1.12-1.12 1.12m-.832 9.856v-8.064h1.648V485zm4.344 0v-8.064h1.648v.784c.608-.64 1.408-1.104 2.56-1.104 1.776 0 3.136 1.2 3.136 3.536V485h-1.664v-4.784c0-1.28-.704-2.048-1.856-2.048-1.104 0-1.76.688-2.176 1.392V485zm10.738-9.856c-.608 0-1.12-.512-1.12-1.12s.512-1.12 1.12-1.12 1.12.512 1.12 1.12-.512 1.12-1.12 1.12m-.832 9.856v-8.064h1.648V485zm3.45-1.136 1.136-.992c.528.672 1.168 1.104 1.968 1.104.784 0 1.216-.48 1.216-1.088 0-1.632-3.952-1.04-3.952-3.888 0-1.328 1.12-2.384 2.736-2.384 1.184 0 2.224.576 2.8 1.344l-1.12.976c-.432-.576-.992-.976-1.664-.976-.768 0-1.152.448-1.152.992 0 1.616 3.952 1.072 3.952 3.84-.016 1.584-1.296 2.528-2.8 2.528-1.36 0-2.368-.544-3.12-1.456m8.561-1.664v-3.776h-1.52v-1.488h1.52v-2.016h1.664v2.016h2.672v1.488h-2.672v3.776c0 1.088.576 1.44 1.472 1.44.544 0 .912-.064 1.2-.176v1.456c-.384.16-.832.24-1.456.24-1.888 0-2.88-.992-2.88-2.96m6.301 2.8v-8.064h1.648v.912c.56-.624 1.264-1.072 2.256-1.072.256 0 .496.048.704.112v1.616a3.3 3.3 0 0 0-.848-.112c-1.024 0-1.696.544-2.112 1.232V485zm8.271.24c-1.6 0-2.688-.912-2.688-2.336 0-1.216.944-2.096 2.656-2.384l2.608-.432v-.416c0-.992-.736-1.6-1.776-1.6-.88 0-1.568.4-2.032 1.056l-1.232-.944c.72-.96 1.872-1.568 3.312-1.568 2.176 0 3.376 1.28 3.376 3.056V485h-1.648v-.912c-.576.704-1.584 1.152-2.576 1.152m-1.024-2.4c0 .624.496 1.056 1.328 1.056 1.008 0 1.792-.48 2.272-1.248v-1.392l-2.176.368c-1.008.176-1.424.608-1.424 1.216m8.312-.64v-3.776h-1.52v-1.488h1.52v-2.016h1.664v2.016h2.672v1.488h-2.672v3.776c0 1.088.576 1.44 1.472 1.44.544 0 .912-.064 1.2-.176v1.456c-.384.16-.832.24-1.457.24-1.887 0-2.879-.992-2.879-2.96m7.133-7.056c-.608 0-1.12-.512-1.12-1.12s.512-1.12 1.12-1.12 1.12.512 1.12 1.12-.512 1.12-1.12 1.12m-.832 9.856v-8.064h1.648V485zm3.16-8.064h1.776l2.368 6.272 2.352-6.272h1.791L395.83 485h-2.192zm16.948 6.752c-.752 1.008-1.984 1.632-3.488 1.632-2.784 0-4.432-2-4.432-4.352 0-2.416 1.536-4.352 4.096-4.352 2.224 0 3.664 1.52 3.664 3.568 0 .368-.048.736-.112.976h-5.952c.112 1.76 1.184 2.672 2.736 2.672.976 0 1.792-.432 2.288-1.104zm-3.856-5.696c-1.2 0-2.032.688-2.288 1.936h4.336c-.032-1.008-.752-1.936-2.048-1.936m4.963 5.872 1.136-.992c.528.672 1.168 1.104 1.968 1.104.784 0 1.216-.48 1.216-1.088 0-1.632-3.952-1.04-3.952-3.888 0-1.328 1.12-2.384 2.736-2.384 1.184 0 2.224.576 2.8 1.344l-1.12.976c-.432-.576-.992-.976-1.664-.976-.768 0-1.152.448-1.152.992 0 1.616 3.952 1.072 3.952 3.84-.016 1.584-1.296 2.528-2.8 2.528-1.36 0-2.368-.544-3.12-1.456m11.5 0 1.136-.992c.528.672 1.168 1.104 1.968 1.104.784 0 1.216-.48 1.216-1.088 0-1.632-3.952-1.04-3.952-3.888 0-1.328 1.12-2.384 2.736-2.384 1.184 0 2.224.576 2.8 1.344l-1.12.976c-.432-.576-.992-.976-1.664-.976-.768 0-1.152.448-1.152.992 0 1.616 3.952 1.072 3.952 3.84-.016 1.584-1.296 2.528-2.8 2.528-1.36 0-2.368-.544-3.12-1.456m12.277-8.208h-1.6l1.664-2.656h1.824zm2.928 8.032c-.752 1.008-1.984 1.632-3.488 1.632-2.784 0-4.432-2-4.432-4.352 0-2.416 1.536-4.352 4.096-4.352 2.224 0 3.664 1.52 3.664 3.568 0 .368-.048.736-.112.976h-5.952c.112 1.76 1.184 2.672 2.736 2.672.976 0 1.792-.432 2.288-1.104zm-3.856-5.696c-1.2 0-2.032.688-2.288 1.936h4.336c-.032-1.008-.752-1.936-2.048-1.936m9.587 5.776a2.55 2.55 0 0 0 2.096-1.072l1.296.992c-.736.992-1.92 1.632-3.408 1.632-2.704 0-4.4-2-4.4-4.352s1.696-4.352 4.4-4.352c1.472 0 2.672.64 3.408 1.632l-1.296.992a2.56 2.56 0 0 0-2.112-1.072c-1.552 0-2.672 1.216-2.672 2.8 0 1.6 1.12 2.8 2.688 2.8m10.586-2.224v-4.608h1.664v4.528c0 2.416-1.392 3.856-3.648 3.856-2.272 0-3.664-1.44-3.664-3.856v-4.528h1.664v4.608c0 1.392.736 2.224 2 2.224 1.232 0 1.984-.832 1.984-2.224m4.169 3.456v-8.064h1.648v.912c.56-.624 1.264-1.072 2.256-1.072.256 0 .496.048.704.112v1.616a3.3 3.3 0 0 0-.848-.112c-1.024 0-1.696.544-2.112 1.232V485zm7.254-9.856c-.608 0-1.12-.512-1.12-1.12s.512-1.12 1.12-1.12 1.12.512 1.12 1.12-.512 1.12-1.12 1.12m-.832 9.856v-8.064h1.648V485zm3.45-1.136 1.136-.992c.528.672 1.168 1.104 1.968 1.104.784 0 1.216-.48 1.216-1.088 0-1.632-3.952-1.04-3.952-3.888 0-1.328 1.12-2.384 2.736-2.384 1.184 0 2.224.576 2.8 1.344l-1.12.976c-.432-.576-.992-.976-1.664-.976-.768 0-1.152.448-1.152.992 0 1.616 3.952 1.072 3.952 3.84-.016 1.584-1.296 2.528-2.8 2.528-1.36 0-2.368-.544-3.12-1.456m12.277-8.208h-1.6l1.664-2.656h1.824zm2.928 8.032c-.752 1.008-1.984 1.632-3.488 1.632-2.784 0-4.432-2-4.432-4.352 0-2.416 1.536-4.352 4.096-4.352 2.224 0 3.664 1.52 3.664 3.568 0 .368-.048.736-.112.976h-5.952c.112 1.76 1.184 2.672 2.736 2.672.976 0 1.792-.432 2.288-1.104zm-3.856-5.696c-1.2 0-2.032.688-2.288 1.936h4.336c-.032-1.008-.752-1.936-2.048-1.936m13.09 5.696c-.752 1.008-1.984 1.632-3.488 1.632-2.784 0-4.432-2-4.432-4.352 0-2.416 1.536-4.352 4.096-4.352 2.224 0 3.664 1.52 3.664 3.568 0 .368-.048.736-.112.976h-5.952c.112 1.76 1.184 2.672 2.736 2.672.976 0 1.792-.432 2.288-1.104zm-3.856-5.696c-1.2 0-2.032.688-2.288 1.936h4.336c-.032-1.008-.752-1.936-2.048-1.936" fill="#666"/><defs><linearGradient x1="92.644" y1=".006" x2="92.644" y2="54.422" id="g" gradientTransform="scale(.65033 1.53767)" gradientUnits="userSpaceOnUse"><stop stop-color="#12A3FF" offset="0%"/><stop stop-color="#3D68FF" offset="100%"/></linearGradient><linearGradient x1="43.966" y1=".008" x2="43.966" y2="62.791" id="i" gradientTransform="scale(.75033 1.33274)" gradientUnits="userSpaceOnUse"><stop stop-color="#FFBE00" offset="0%"/><stop stop-color="#FF9F00" offset="100%"/></linearGradient><linearGradient x1="69.059" y1="45.676" x2="69.059" y2="115.73" id="j" gradientTransform="scale(.80532 1.24174)" gradientUnits="userSpaceOnUse"><stop stop-color="#12A3FF" offset="0%"/><stop stop-color="#3D68FF" offset="100%"/></linearGradient><linearGradient x1="282.25" y1="23.69" x2="282.25" y2="59.956" id="k" gradientTransform="scale(.42228 2.3681)" gradientUnits="userSpaceOnUse"><stop stop-color="#12A3FF" offset="0%"/><stop stop-color="#3D68FF" offset="100%"/></linearGradient><linearGradient id="l" x1="34.183" y1="54.622" x2="58.913" y2="29.892" gradientUnits="userSpaceOnUse" gradientTransform="translate(-20.432 -21.643)"><stop stop-color="#EFEFEF"/><stop offset="1" stop-color="#929292"/></linearGradient><linearGradient id="m" x1="48.091" y1="19.994" x2="48.091" y2="46.281" gradientUnits="userSpaceOnUse" gradientTransform="translate(-20.432 -21.643)"><stop stop-color="#518FFF"/><stop offset="1" stop-color="#5F5FF1"/></linearGradient><linearGradient id="n" x1="28.44" y1="35.395" x2="28.44" y2="69.481" gradientUnits="userSpaceOnUse" gradientTransform="translate(-20.432 -21.643)"><stop stop-color="#F95C5E"/><stop offset="1" stop-color="#E1000F"/></linearGradient><linearGradient id="q" x1="36.726" y1="50.436" x2="36.726" y2="69.912" gradientUnits="userSpaceOnUse" gradientTransform="translate(-20.432 -21.643)"><stop stop-color="#E1000F"/><stop offset="1" stop-color="#881317"/></linearGradient><linearGradient id="u" x1="56.232" y1="19.684" x2="56.232" y2="59.127" gradientUnits="userSpaceOnUse" gradientTransform="translate(-20.432 -21.643)"><stop stop-color="#5F5FF1"/><stop offset="1" stop-color="#000091"/></linearGradient><linearGradient id="v" x1="61.953" y1="12.961" x2="113.234" y2="12.961" gradientUnits="userSpaceOnUse"><stop stop-color="#F38192" stop-opacity="0"/><stop offset="1" stop-color="#F05B89"/></linearGradient><pattern id="f" patternContentUnits="objectBoundingBox" width="1" height="1"><use xlink:href="#c" transform="scale(.00125)"/></pattern><pattern id="h" patternContentUnits="objectBoundingBox" width="1" height="1"><use xlink:href="#d" transform="scale(.00125)"/></pattern><pattern id="r" patternContentUnits="objectBoundingBox" width="1" height="1"><use xlink:href="#e" transform="scale(.00685 .00917)"/></pattern><clipPath id="a"><path fill="#fff" d="M374 217h40v40h-40z"/></clipPath><clipPath id="b"><path fill="#fff" d="M127 386h40v40h-40z"/></clipPath></defs><g fill-rule="evenodd"><path d="m42.555 61.426 3.097-3.758c2.756-3.178 4.715-6.246 5.876-9.27l23.577 28.787c4.279 5.483 4.075 6.499-3.057 6.499h-2.445c-7.132 0-9.781-1.422-14.06-6.5zm0-39.159L55.543 6.509c4.279-5.078 6.928-6.5 14.06-6.5h2.445c7.132 0 7.336 1.016 3.057 6.5L51.528 35.294c-1.161-3.022-3.12-6.091-5.876-9.269z" fill="url(#f)" transform="translate(149.867 401.173)scale(.11933)" style="fill:url(#g)"/><path d="M41.866 83.684c7.131 0 7.335-1.016 3.056-6.5L20.47 47.33c-1.834-2.234-2.853-4.062-2.853-5.484 0-1.624 1.019-3.452 2.853-5.483L44.922 6.51c4.28-5.484 4.075-6.5-3.056-6.5H39.42c-7.132 0-9.78 1.422-14.06 6.5L6.613 29.255c-7.947 9.139-7.947 16.044 0 25.183L25.36 77.185c4.28 5.077 6.928 6.499 14.06 6.499z" fill="url(#h)" transform="matrix(-.11933 0 0 .11933 155.644 401.173)" style="fill:url(#i)"/><path d="M17 168.22c0 6.063 1.521 7.58 7.605 7.58h2.028c6.083 0 7.604-1.517 7.604-7.58v-35.202c4.563 7.242 12.844 10.948 24.843 10.948 23.49 0 35.15-12.296 35.15-36.718V92.594c0-24.423-12.505-35.876-38.7-35.876-24.335 0-38.53 11.79-38.53 35.876Zm59.824-60.636c0 14.148-4.732 20.044-21.124 20.044-16.73 0-21.463-6.064-21.463-20.044V93.1c0-14.148 5.07-20.212 21.463-20.212 16.73 0 21.124 6.064 21.124 20.212z" fill="url(#a)" style="fill:url(#j)" transform="translate(132.803 394.192)scale(.11933)"/><path d="M110.486 134.402c0 6.063 1.52 7.58 7.605 7.58h2.196c6.084 0 7.605-1.517 7.605-7.58V66.018c0-6.063-1.52-7.579-7.605-7.579h-2.196c-6.084 0-7.605 1.516-7.605 7.58zm1.183-94.153c4.225 4.042 10.984 4.042 15.04 0 4.225-4.211 4.225-10.948 0-14.99-4.056-4.212-10.815-4.212-15.04 0-4.225 4.042-4.225 10.779 0 14.99" fill="url(#b)" style="fill:url(#k)" transform="translate(132.803 394.192)scale(.11933)"/></g><g style="fill:none"><path d="M22.707 28.8c-2.017 0-3.84-1.248-4.608-2.88l-2.784 1.344c1.344 2.784 4.223 4.608 7.39 4.608 3.073 0 6.048-1.825 7.392-4.608l-2.687-1.343c-.96 1.823-2.784 2.879-4.703 2.879M34.705.77h-.48v-2.592h-3.072V.77h-7.007v-2.592H21.17V.77h-7.008v-2.592h-2.975V.77h-.481c-5.183 0-9.503 4.223-9.503 9.407v21.79c0 5.088 4.32 9.311 9.503 9.311H34.8c5.184 0 9.503-4.223 9.503-9.407V10.273C44.209 4.994 39.889.771 34.705.771M10.612 3.747h.48V6.05h2.975V3.747h7.008V6.05h2.975V3.747h7.008V6.05h2.976V3.747h.48c3.647 0 6.527 2.88 6.527 6.431v3.168H3.988v-3.168c.096-3.455 3.072-6.431 6.624-6.431m24.093 34.556H10.612c-3.649 0-6.528-2.784-6.528-6.431V16.417h37.052v15.55c.097 3.457-2.879 6.336-6.43 6.336" style="fill:#222e5c;stroke-width:2.38529" transform="translate(132.743 55.639)scale(.62657)"/></g><g style="fill:none"><path d="M38.886 7.845a21.6 21.6 0 0 0-15.317-6.35c-5.983 0-11.4 2.433-15.317 6.35a21.6 21.6 0 0 0-6.35 15.317c0 5.983 2.434 11.4 6.35 15.316a21.6 21.6 0 0 0 15.317 6.35c5.983 0 11.4-2.433 15.317-6.35a21.6 21.6 0 0 0 6.35-15.316c0-5.984-2.434-11.4-6.35-15.317" fill="url(#f)" style="fill:url(#l)" transform="translate(134.246 224.249)scale(.54574)"/><path d="M16.02 21.862a6.237 6.237 0 0 1 8.832 0l2.217-2.2L45.436 1.296l.75-.75c-.65-.65-1.85-.75-3.467-.134L13.786 11.546c-1.634.616-3.3 1.883-4.667 3.416l4.7 4.7z" fill="url(#h)" style="fill:url(#m)" transform="translate(134.246 224.249)scale(.54574)"/><path d="m13.818 32.912 2.217-2.217a6.237 6.237 0 0 1 0-8.833l-2.217-2.2-4.7-4.7c-1.333 1.483-2.383 3.217-2.817 4.85L.218 42.129c-.45 1.65-.183 2.983.617 3.783l.866-.867z" fill="url(#a)" style="fill:url(#n)" transform="translate(134.246 224.249)scale(.54574)"/><path d="m27.068 32.912-2.216-2.217a6.237 6.237 0 0 1-8.834 0l-2.216 2.217L1.685 45.029l-.867.866c.8.8 2.117 1.067 3.784.617l5.433-1.483 16.883-4.6c1.634-.45 3.367-1.5 4.85-2.817z" fill="url(#b)" style="fill:url(#q)" transform="translate(134.246 224.249)scale(.54574)"/><path d="m46.202.528-.75.75-18.384 18.384-2.216 2.216a6.237 6.237 0 0 1 0 8.834l2.216 2.216 4.7 4.7c1.534-1.366 2.8-3.033 3.417-4.65l10.25-26.666.883-2.3c.617-1.617.534-2.834-.116-3.484" fill="url(#r)" style="fill:url(#u)" transform="translate(134.246 224.249)scale(.54574)"/><path d="M147.817 236.18a3.404 3.404 0 0 0-4.82 0 3.404 3.404 0 0 0 0 4.82 3.404 3.404 0 0 0 4.82 0 3.404 3.404 0 0 0 0-4.82" fill="#fff"/><path d="M146.607 237.39a1.7 1.7 0 0 0-1.21-.5c-.473 0-.9.19-1.21.5a1.7 1.7 0 0 0-.5 1.21 1.706 1.706 0 0 0 1.71 1.71 1.706 1.706 0 0 0 1.71-1.71c0-.473-.19-.901-.5-1.21" fill="#0909b9"/></g><g style="fill:none"><path d="M43.65 67.906H18.059l-3.51 8.066H.814l25.869-63.058h8.464l25.77 63.058H47.178ZM30.864 33.11 22.52 57.485h16.67zm50.51 42.862H68.588V29.537h12.786Zm59.607-70.379v70.38h-11.755v-5.731c-3.231 4.415-8.623 6.85-15.065 6.85-13.262 0-22.737-10.324-22.737-24.298s9.475-24.297 22.737-24.297c5.867 0 10.704 1.963 14.034 5.535V5.593Zm-12.607 47.201c0-8.812-5.967-12.855-11.854-12.855-6.641 0-12.132 4.887-12.132 12.757 0 7.89 5.392 12.855 12.132 12.855 5.887 0 11.854-3.847 11.854-12.757m64.643-4.416v27.594h-11.755v-4.494c-3.311 3.474-8.247 5.633-14.312 5.633-10.229 0-16.216-6.006-16.216-13.896 0-8.439 6.919-13.502 17.722-13.502h11.755v-2.061c0-5.063-2.934-8.164-8.722-8.164-5.015 0-8.524 2.355-12.409 6.378l-6.641-7.791c5.491-6.477 12.231-9.578 20.477-9.578 11.954 0 20.101 6.653 20.101 19.881m-12.806 10.245v-.57h-10.05c-4.163 0-6.542 1.59-6.542 4.692 0 3.199 2.756 5.063 6.72 5.063 5.432 0 9.872-3.749 9.872-9.185m68.25-11.462v28.811h-12.707V48.85c0-5.358-3.509-9.008-8.722-9.008s-8.9 3.65-8.9 9.008v27.123h-12.786V29.537h11.755v4.22c3.231-3.2 7.969-5.26 13.737-5.26 10.982 0 17.623 7.497 17.623 18.664m42.442 18.213v10.598c-2.657.648-5.491 1.12-8.822 1.12-11.556 0-18.772-5.535-18.772-17.448v-19.43h-7.394V29.518h7.394V17.8h12.786v11.736h13.261v10.696h-13.261v18.292c0 5.338 2.834 7.222 8.722 7.222 1.546 0 3.628-.196 6.086-.373m42.084-29.928-6.443 7.791c-3.033-2.806-6.72-4.416-10.526-4.416-3.033 0-5.015 1.04-5.015 3.278 0 1.884 1.507 2.806 4.936 4.121l4.539 1.884c8.425 3.376 13.183 6.948 13.183 14.17 0 9.578-8.049 14.818-18.297 14.818-8.345 0-15.264-3.572-19.426-9.008l6.442-7.694c3.786 3.847 8.147 6.28 13.182 6.28 3.231 0 5.967-1.216 5.967-3.846 0-2.159-1.982-3.003-4.837-4.22l-5.015-2.06c-7.969-3.2-12.786-6.85-12.786-14.17 0-8.91 7.295-13.974 17.246-13.974 6.799 0 12.588 2.355 16.85 7.046M60.936 99.19l-9.674 6.751C47.1 99.367 41.212 95.52 33.342 95.52c-11.656 0-20.18 8.439-20.18 20.45 0 11.913 8.524 20.274 20.18 20.274 7.87 0 13.738-3.847 17.92-10.421l9.674 6.751c-5.392 9.479-15.541 15.387-27.673 15.387C14.689 147.98 0 134.105 0 115.892c0-18.193 14.689-32.089 33.362-32.089 12.033 0 22.083 5.908 27.574 15.387m56.772 24.395c0 13.797-11.378 24.297-25.294 24.297-13.915 0-25.036-10.5-25.036-24.297 0-13.699 11.081-24.199 25.116-24.199 13.836 0 25.214 10.5 25.214 24.199m-37.346.098c0 7.321 5.015 12.581 12.132 12.581 6.918 0 12.131-5.358 12.131-12.581 0-7.32-5.213-12.757-12.131-12.757-7.117 0-12.132 5.437-12.132 12.757m90.908-5.632v28.811h-12.706v-27.123c0-5.358-3.509-9.009-8.722-9.009-5.214 0-8.901 3.651-8.901 9.009v27.123h-12.786v-46.455h11.755v4.219c3.231-3.199 7.969-5.26 13.738-5.26 10.982.02 17.622 7.517 17.622 18.685m54.038 0v28.811h-12.706v-27.123c0-5.358-3.509-9.009-8.722-9.009-5.214 0-8.901 3.651-8.901 9.009v27.123h-12.786v-46.455h11.755v4.219c3.232-3.199 7.969-5.26 13.738-5.26 11.001.02 17.622 7.517 17.622 18.685m55.445 9.852h-32.887c1.507 5.907 6.344 9.205 13.183 9.205 5.114 0 9.297-1.786 13.083-4.691l5.312 8.635c-5.312 4.416-11.556 6.948-18.772 6.948-14.887 0-25.691-10.598-25.691-24.297s10.705-24.297 24.541-24.297c13.183 0 22.083 9.577 22.083 21.589 0 2.59-.476 5.318-.852 6.908m-32.887-8.91h21.33c-.099-5.908-4.738-9.382-10.149-9.382-5.392 0-9.753 3.572-11.181 9.382m86.528-8.165-8.9 6.85c-2.657-3.945-6.066-6.752-11.28-6.752-7.295 0-12.31 5.437-12.31 12.659 0 7.321 5.015 12.757 12.31 12.757 5.115 0 8.524-2.806 11.28-6.653l8.9 6.751c-3.885 6.948-11.081 11.54-20.378 11.54-14.035 0-25.116-10.598-25.116-24.395 0-13.699 11.081-24.199 25.116-24.199 9.376 0 16.493 4.495 20.378 11.442M374 136.264v10.598c-2.656.647-5.491 1.118-8.821 1.118-11.557 0-18.772-5.534-18.772-17.447v-19.43h-7.394v-10.696h7.394V88.671h12.785v11.736h13.262v10.696h-13.262v18.292c0 5.338 2.835 7.222 8.723 7.222 1.546.02 3.627-.177 6.085-.353" fill="#1b4991" style="fill:#003189;fill-opacity:1" transform="translate(378.484 399.86)scale(.08298)"/><path d="M65.495 3.807A13.14 13.14 0 0 1 74.772 0h25.889c3.35 0 6.7 1.256 9.257 3.788a12.867 12.867 0 0 1 0 18.33c-2.577 2.552-5.967 3.808-9.356 3.788h-25.71a13.17 13.17 0 0 1-9.357-3.787 12.845 12.845 0 0 1 0-18.312" fill="url(#f)" style="fill:url(#v)" transform="translate(378.484 399.86)scale(.08298)"/><path d="M386.837 402.01c.6 0 1.085-.482 1.085-1.075s-.486-1.075-1.085-1.075c-.6 0-1.086.481-1.086 1.075a1.08 1.08 0 0 0 1.086 1.075" fill="#ef4056"/></g></svg>
