<svg width="444" height="440" viewBox="0 0 444 440" fill="none" xmlns="http://www.w3.org/2000/svg"><g clip-path="url(#a)"><path d="M428 .5H16C7.44.5.5 7.44.5 16v408c0 8.56 6.94 15.5 15.5 15.5h412c8.56 0 15.5-6.94 15.5-15.5V16c0-8.56-6.94-15.5-15.5-15.5" fill="#fff"/><path d="M428 .5H16C7.44.5.5 7.44.5 16v408c0 8.56 6.94 15.5 15.5 15.5h412c8.56 0 15.5-6.94 15.5-15.5V16c0-8.56-6.94-15.5-15.5-15.5Z" stroke="#DDD"/><mask id="b" style="mask-type:luminance" maskUnits="userSpaceOnUse" x="40" y="40" width="364" height="104"><path d="M396 40H48a8 8 0 0 0-8 8v88a8 8 0 0 0 8 8h348a8 8 0 0 0 8-8V48a8 8 0 0 0-8-8" fill="#fff"/></mask><g mask="url(#b)"><path d="M144 40H40v104h104z" fill="#F5F5FE"/><path fill-rule="evenodd" clip-rule="evenodd" d="M74.648 72.141a4.57 4.57 0 0 0-4.573 4.573 4.572 4.572 0 0 0 8.166 2.829.913.913 0 0 1 1.431 1.133 6.398 6.398 0 0 1-11.423-3.962 6.4 6.4 0 0 1 6.4-6.399 6.4 6.4 0 0 1 6.398 6.399.913.913 0 1 1-1.826 0 4.57 4.57 0 0 0-4.573-4.573m34.695 0a4.57 4.57 0 0 0-4.573 4.573.912.912 0 1 1-1.825 0 6.397 6.397 0 0 1 6.398-6.399 6.4 6.4 0 0 1 6.399 6.399 6.398 6.398 0 0 1-11.456 3.918.912.912 0 1 1 1.443-1.118 4.572 4.572 0 0 0 8.187-2.8 4.57 4.57 0 0 0-4.573-4.573" fill="#E1000F"/><path fill-rule="evenodd" clip-rule="evenodd" d="M81.96 91.338c0-.504.409-.913.913-.913h18.255a.913.913 0 0 1 0 1.825H82.873a.913.913 0 0 1-.913-.912M92 94.037c.504 0 .913.409.913.913v20.135a.912.912 0 1 1-1.825 0V94.95c0-.504.408-.913.912-.913m-25.548-3.621a5.463 5.463 0 0 1 5.467-5.468 5.463 5.463 0 0 1 5.468 5.468v5.458h4.628a4.5 4.5 0 0 1 4.5 4.5v.016q.008.064.009.13l.004.818v.003l.005.84v9.283a4.5 4.5 0 0 1-4.5 4.5h-.128a4.5 4.5 0 0 1-4.5-4.5v-6.444h-6.453a4.5 4.5 0 0 1-4.5-4.5zm18.246 10.236a1 1 0 0 1-.009-.132v-.146a2.675 2.675 0 0 0-2.674-2.674h-5.54a.913.913 0 0 1-.914-.913v-6.371a3.637 3.637 0 0 0-3.642-3.642 3.637 3.637 0 0 0-3.642 3.642v10.104a2.674 2.674 0 0 0 2.675 2.674h7.366c.504 0 .913.409.913.913v7.357a2.674 2.674 0 0 0 2.674 2.674h.128a2.674 2.674 0 0 0 2.674-2.674v-9.283l-.004-.828v-.014zm27.392-13.889a3.637 3.637 0 0 0-3.642 3.642v6.38a.91.91 0 0 1-.912.913h-5.541a2.675 2.675 0 0 0-2.674 2.674v.146a1 1 0 0 1-.01.132c0 .172-.002.426-.004.679v.014l-.004.828v9.282a2.675 2.675 0 0 0 2.674 2.675h.128a2.675 2.675 0 0 0 2.674-2.675v-7.357c0-.504.409-.912.913-.912h7.366a2.675 2.675 0 0 0 2.674-2.675V90.405a3.637 3.637 0 0 0-3.642-3.642M97.495 100.38v-.008a4.5 4.5 0 0 1 4.5-4.5h4.628v-5.467a5.46 5.46 0 0 1 5.467-5.468 5.463 5.463 0 0 1 5.468 5.468v10.104a4.5 4.5 0 0 1-4.5 4.5h-6.453v6.444a4.5 4.5 0 0 1-4.5 4.5h-.128a4.5 4.5 0 0 1-4.5-4.5v-9.282l.005-.841.004-.821q0-.065.01-.129" fill="#000091"/><path d="M404 40H144v104h260z" fill="#fff"/><path d="m164.396 86 4.914-12.6h2.736L176.96 86h-2.214l-1.332-3.528h-5.49L166.592 86zm4.212-5.292h4.122l-2.052-5.436zm14.564 3.906a2.87 2.87 0 0 0 2.358-1.206l1.458 1.116c-.828 1.116-2.16 1.836-3.834 1.836-3.042 0-4.95-2.25-4.95-4.896s1.908-4.896 4.95-4.896c1.656 0 3.006.72 3.834 1.836l-1.458 1.116a2.88 2.88 0 0 0-2.376-1.206c-1.746 0-3.006 1.368-3.006 3.15 0 1.8 1.26 3.15 3.024 3.15m9.651 0a2.87 2.87 0 0 0 2.358-1.206l1.458 1.116c-.828 1.116-2.16 1.836-3.834 1.836-3.042 0-4.95-2.25-4.95-4.896s1.908-4.896 4.95-4.896c1.656 0 3.006.72 3.834 1.836l-1.458 1.116a2.88 2.88 0 0 0-2.376-1.206c-1.746 0-3.006 1.368-3.006 3.15 0 1.8 1.26 3.15 3.024 3.15m9.614-8.046c2.952 0 4.932 2.214 4.932 4.896s-1.98 4.896-4.932 4.896c-2.934 0-4.932-2.214-4.932-4.896s1.998-4.896 4.932-4.896m.018 8.046c1.71 0 2.97-1.422 2.97-3.15 0-1.764-1.26-3.15-2.97-3.15-1.746 0-3.006 1.404-3.006 3.15s1.26 3.15 3.006 3.15M209.686 86v-9.072h1.854v.846c.648-.702 1.494-1.206 2.7-1.206 1.242 0 2.286.558 2.862 1.638.702-.9 1.602-1.638 3.168-1.638 1.89 0 3.348 1.296 3.348 3.798V86h-1.872v-5.562c0-1.332-.738-2.124-1.908-2.124-1.08 0-1.782.684-2.268 1.548.018.162.018.324.018.504V86h-1.872v-5.562c0-1.332-.72-2.124-1.908-2.124-1.152 0-1.836.792-2.268 1.566V86zm16.805 4.428v-13.5h1.854v.936c.774-.828 1.746-1.296 3.06-1.296 2.844 0 4.626 2.25 4.626 4.896s-1.782 4.896-4.626 4.896c-1.314 0-2.286-.468-3.06-1.296v5.364zm4.68-12.114c-1.188 0-2.178.558-2.826 1.548v3.204c.666 1.008 1.656 1.548 2.826 1.548 1.746 0 2.916-1.368 2.916-3.15s-1.17-3.15-2.916-3.15m9.476 7.956c-1.8 0-3.024-1.026-3.024-2.628 0-1.368 1.062-2.358 2.988-2.682l2.934-.486v-.468c0-1.116-.828-1.8-1.998-1.8-.99 0-1.764.45-2.286 1.188l-1.386-1.062c.81-1.08 2.106-1.764 3.726-1.764 2.448 0 3.798 1.44 3.798 3.438V86h-1.854v-1.026c-.648.792-1.782 1.296-2.898 1.296m-1.152-2.7c0 .702.558 1.188 1.494 1.188 1.134 0 2.016-.54 2.556-1.404v-1.566l-2.448.414c-1.134.198-1.602.684-1.602 1.368m7.838 4.05c0-.918.45-1.638 1.296-2.268a1.72 1.72 0 0 1-.594-1.296c0-.72.342-1.296 1.044-1.782a3.11 3.11 0 0 1-1.242-2.52c0-1.746 1.35-3.186 3.564-3.186.684 0 1.278.126 1.782.36h3.348v1.584h-1.782c.162.378.252.81.252 1.242 0 1.764-1.35 3.222-3.6 3.222a5.3 5.3 0 0 1-1.098-.126c-.288.234-.45.504-.45.774 0 .378.198.594.684.594h2.466c2.34 0 3.51 1.206 3.51 2.844 0 1.962-1.908 3.438-4.662 3.438-2.79 0-4.518-1.026-4.518-2.88m4.086-6.066c1.17 0 1.854-.774 1.854-1.8 0-1.008-.684-1.764-1.854-1.764s-1.854.756-1.854 1.764c0 1.026.684 1.8 1.854 1.8m-2.322 5.814c0 1.008 1.008 1.62 2.718 1.62 1.8 0 2.844-.702 2.844-1.764 0-.774-.45-1.386-1.836-1.386h-2.88c-.504.396-.846.882-.846 1.53M258.325 86v-9.072h1.854v.882c.684-.72 1.584-1.242 2.88-1.242 1.998 0 3.528 1.35 3.528 3.978V86h-1.872v-5.382c0-1.44-.792-2.304-2.088-2.304-1.242 0-1.98.774-2.448 1.566V86zm19.334-1.476c-.846 1.134-2.232 1.836-3.924 1.836-3.132 0-4.986-2.25-4.986-4.896 0-2.718 1.728-4.896 4.608-4.896 2.502 0 4.122 1.71 4.122 4.014 0 .414-.054.828-.126 1.098h-6.696c.126 1.98 1.332 3.006 3.078 3.006 1.098 0 2.016-.486 2.574-1.242zm-4.338-6.408c-1.35 0-2.286.774-2.574 2.178h4.878c-.036-1.134-.846-2.178-2.304-2.178M279.91 86v-9.072h1.854v.846c.648-.702 1.494-1.206 2.7-1.206 1.242 0 2.286.558 2.862 1.638.702-.9 1.602-1.638 3.168-1.638 1.89 0 3.348 1.296 3.348 3.798V86h-1.872v-5.562c0-1.332-.738-2.124-1.908-2.124-1.08 0-1.782.684-2.268 1.548.018.162.018.324.018.504V86h-1.872v-5.562c0-1.332-.72-2.124-1.908-2.124-1.152 0-1.836.792-2.268 1.566V86zm24.995-1.476c-.846 1.134-2.232 1.836-3.924 1.836-3.132 0-4.986-2.25-4.986-4.896 0-2.718 1.728-4.896 4.608-4.896 2.502 0 4.122 1.71 4.122 4.014 0 .414-.054.828-.126 1.098h-6.696c.126 1.98 1.332 3.006 3.078 3.006 1.098 0 2.016-.486 2.574-1.242zm-4.338-6.408c-1.35 0-2.286.774-2.574 2.178h4.878c-.036-1.134-.846-2.178-2.304-2.178m6.59 7.884v-9.072h1.854v.882c.684-.72 1.584-1.242 2.88-1.242 1.998 0 3.528 1.35 3.528 3.978V86h-1.872v-5.382c0-1.44-.792-2.304-2.088-2.304-1.242 0-1.98.774-2.448 1.566V86zm11.684-3.15v-4.248h-1.71v-1.674h1.71V74.66h1.872v2.268h3.006v1.674h-3.006v4.248c0 1.224.648 1.62 1.656 1.62.612 0 1.026-.072 1.35-.198v1.638c-.432.18-.936.27-1.638.27-2.124 0-3.24-1.116-3.24-3.33m-152.393 20.062c-.684 0-1.26-.576-1.26-1.26s.576-1.26 1.26-1.26 1.26.576 1.26 1.26-.576 1.26-1.26 1.26M165.512 114v-9.072h1.854V114zm4.887 0v-9.072h1.854v.882c.684-.72 1.584-1.242 2.88-1.242 1.998 0 3.528 1.35 3.528 3.978V114h-1.872v-5.382c0-1.44-.792-2.304-2.088-2.304-1.242 0-1.98.774-2.448 1.566V114zm10.424-4.536c0-2.646 1.782-4.896 4.644-4.896 1.296 0 2.268.468 3.024 1.278V100.5h1.89V114h-1.89v-.918c-.756.81-1.728 1.278-3.024 1.278-2.862 0-4.644-2.25-4.644-4.896m1.962 0c0 1.782 1.17 3.15 2.916 3.15 1.17 0 2.178-.558 2.79-1.512v-3.276c-.666-.99-1.656-1.512-2.79-1.512-1.746 0-2.916 1.368-2.916 3.15m11.524-6.552c-.684 0-1.26-.576-1.26-1.26s.576-1.26 1.26-1.26 1.26.576 1.26 1.26-.576 1.26-1.26 1.26M193.373 114v-9.072h1.854V114zm3.555-9.072h1.998l2.664 7.056 2.646-7.056h2.016L202.814 114h-2.466zm11.936-2.016c-.684 0-1.26-.576-1.26-1.26s.576-1.26 1.26-1.26 1.26.576 1.26 1.26-.576 1.26-1.26 1.26M207.928 114v-9.072h1.854V114zm4.167-4.536c0-2.646 1.782-4.896 4.644-4.896 1.296 0 2.268.468 3.024 1.278V100.5h1.89V114h-1.89v-.918c-.756.81-1.728 1.278-3.024 1.278-2.862 0-4.644-2.25-4.644-4.896m1.962 0c0 1.782 1.17 3.15 2.916 3.15 1.17 0 2.178-.558 2.79-1.512v-3.276c-.666-.99-1.656-1.512-2.79-1.512-1.746 0-2.916 1.368-2.916 3.15m16.744.648v-5.184h1.872v5.094c0 2.718-1.566 4.338-4.104 4.338-2.556 0-4.122-1.62-4.122-4.338v-5.094h1.872v5.184c0 1.566.828 2.502 2.25 2.502 1.386 0 2.232-.936 2.232-2.502m12.88 2.412c-.846 1.134-2.232 1.836-3.924 1.836-3.132 0-4.986-2.25-4.986-4.896 0-2.718 1.728-4.896 4.608-4.896 2.502 0 4.122 1.71 4.122 4.014 0 .414-.054.828-.126 1.098h-6.696c.126 1.98 1.332 3.006 3.078 3.006 1.098 0 2.016-.486 2.574-1.242zm-4.338-6.408c-1.35 0-2.286.774-2.574 2.178h4.878c-.036-1.134-.846-2.178-2.304-2.178m6.589 7.884v-13.5h1.854V114z" fill="#161616"/></g><path d="M396 40.5H48a7.5 7.5 0 0 0-7.5 7.5v88a7.5 7.5 0 0 0 7.5 7.5h348a7.5 7.5 0 0 0 7.5-7.5V48a7.5 7.5 0 0 0-7.5-7.5Z" stroke="#DDD"/><mask id="c" style="mask-type:luminance" maskUnits="userSpaceOnUse" x="40" y="168" width="364" height="104"><path d="M396 168H48a8 8 0 0 0-8 8v88a8 8 0 0 0 8 8h348a8 8 0 0 0 8-8v-88a8 8 0 0 0-8-8" fill="#fff"/></mask><g mask="url(#c)"><path d="M144 168H40v104h104z" fill="#F5F5FE"/><mask id="d" style="mask-type:luminance" maskUnits="userSpaceOnUse" x="60" y="188" width="64" height="64"><path d="M124 188H60v64h64z" fill="#fff"/></mask><g mask="url(#d)" fill-rule="evenodd" clip-rule="evenodd"><path d="m86.632 206.914-.445-.686a.817.817 0 1 0 .889 1.372m0 0 .005-.003.016-.011.069-.043.264-.166c.23-.143.56-.345.96-.58a40 40 0 0 1 2.985-1.601c1.119-.533 2.215-.965 3.074-1.132.432-.084.738-.088.93-.047.161.034.185.081.195.102l.001.002c.116.227.123.475-.174.879-.323.441-.928.936-1.794 1.467-1.719 1.054-4.146 2.063-6.404 2.994a.82.82 0 0 0-.482.954c.155.618.473 2.698.75 4.686a170 170 0 0 1 .384 2.926 3.7 3.7 0 0 0-.657.195 2.25 2.25 0 0 0-.902.637 1.75 1.75 0 0 0-.39 1.271c.032.429.265 2.307.529 4.429.153 1.233.316 2.549.456 3.71a.817.817 0 1 0 1.623-.195c-.147-1.224-.317-2.591-.473-3.851-.255-2.055-.475-3.825-.504-4.215v-.002c-.006-.075.01-.094.022-.109l.001-.001a.65.65 0 0 1 .257-.16c.314-.129.723-.166.924-.166a.82.82 0 0 0 .821-.818 2 2 0 0 0-.003-.128 7 7 0 0 0-.022-.265 43 43 0 0 0-.098-.851c-.086-.701-.21-1.647-.348-2.633-.21-1.505-.456-3.155-.64-4.16 2.065-.855 4.33-1.823 6.01-2.854.92-.563 1.745-1.193 2.26-1.894.54-.738.789-1.65.311-2.588-.286-.563-.79-.852-1.316-.962-.498-.105-1.05-.062-1.58.042-1.066.207-2.314.712-3.465 1.261a42 42 0 0 0-3.11 1.667c-.413.243-.755.452-.994.601q-.181.112-.278.175l-.075.047-.02.013-.006.004.444.687m-10.33 7.81c.497-.675 1.114-1.624 1.745-2.593zm1.745-2.593c.431-.664.87-1.337 1.28-1.939zm1.28-1.939c.523-.768 1.01-1.435 1.423-1.904zm1.423-1.904c.208-.236.377-.396.503-.492zm.503-.492a1 1 0 0 1 .09-.06zm.09-.06a.818.818 0 0 0-.083-1.631c-.417 0-.766.216-.992.386-.251.19-.502.442-.743.715-.486.549-1.02 1.287-1.55 2.065-.461.677-.916 1.378-1.35 2.047-.6.922-1.16 1.784-1.64 2.437-.363.493-.698 1.09-.777 1.717-.04.327-.014.678.13 1.019.144.343.386.627.7.851a.818.818 0 0 0 .949-1.332c-.1-.071-.13-.125-.142-.154a.34.34 0 0 1-.014-.18c.027-.218.171-.545.47-.952m4.363-4.006a.82.82 0 0 1 .626.972l-1.378 6.374c.34.103.65.256.911.439.44.31.966.886.881 1.626v.006c-.04.331-.555 4.734-.915 8.131a.818.818 0 0 1-1.626-.172c.343-3.237.825-7.381.908-8.076a.8.8 0 0 0-.19-.178 1.7 1.7 0 0 0-.951-.286.82.82 0 0 1-.8-.99l1.562-7.22a.817.817 0 0 1 .972-.626" fill="#000091"/><path d="M83.941 199.964a2.657 2.657 0 1 0 0 5.315 2.657 2.657 0 0 0 0-5.315m-4.292 2.657a4.292 4.292 0 1 1 8.585.001 4.292 4.292 0 0 1-8.585-.001" fill="#E1000F"/><path d="M106.712 237.95c0-.451.366-.817.818-.817 3.45 0 5.35 1.087 6.361 2.351.493.616.742 1.235.867 1.705a4 4 0 0 1 .127.76l.002.057.001.019v.012l-.818.001.818-.001a.82.82 0 0 1-.818.819h-13.081a.817.817 0 0 1-.818-.818h.818-.818v-.015l.001-.024.003-.069q.004-.085.022-.221a4 4 0 0 1 .16-.716 4.7 4.7 0 0 1 1.251-1.998.818.818 0 0 1 1.132 1.181 3.1 3.1 0 0 0-.727 1.045h11.031a3 3 0 0 0-.43-.716c-.624-.78-1.995-1.737-5.084-1.737a.82.82 0 0 1-.818-.818m-15.511 0c0-.451.367-.817.818-.817 3.45 0 5.35 1.087 6.362 2.351a4.65 4.65 0 0 1 .867 1.705 4 4 0 0 1 .127.76l.002.057v.031l-.817.001.817-.001a.82.82 0 0 1-.817.819H85.478a.82.82 0 0 1-.817-.818h.817-.817v-.039q0-.027.004-.069.005-.085.021-.221c.024-.182.07-.429.16-.716a4.7 4.7 0 0 1 1.252-1.998.818.818 0 0 1 1.132 1.181 3.1 3.1 0 0 0-.727 1.045h11.03a3 3 0 0 0-.43-.716c-.624-.78-1.994-1.737-5.084-1.737a.82.82 0 0 1-.818-.818m-15.583 0c0-.451.367-.817.818-.817 3.45 0 5.35 1.087 6.362 2.351a4.65 4.65 0 0 1 .867 1.705 4 4 0 0 1 .127.76l.002.057v.031l-.817.001.817-.001a.82.82 0 0 1-.817.819H69.895a.82.82 0 0 1-.817-.818h.817-.817v-.039a2 2 0 0 1 .025-.29c.024-.182.07-.429.16-.716a4.7 4.7 0 0 1 1.252-1.998.818.818 0 0 1 1.132 1.181 3.1 3.1 0 0 0-.727 1.045h11.03a3 3 0 0 0-.43-.716c-.624-.78-1.994-1.737-5.084-1.737a.82.82 0 0 1-.818-.818m15.568-26.153c.451 0 .817.366.817.817v.843h13.074a.817.817 0 0 1 0 1.635H91.186a.82.82 0 0 1-.818-.818v-1.66c0-.451.366-.817.818-.817m-.818-13.867c0-.452.366-.818.818-.818h22.884c.452 0 .818.366.818.818v16.344a.817.817 0 0 1-.818.817h-2.453a.817.817 0 0 1 0-1.635h1.636v-14.708h-21.25v1.627a.817.817 0 0 1-1.635 0z" fill="#000091"/><path d="M75.618 231.034c0-.451.367-.817.818-.817a4.29 4.29 0 0 1 4.292 4.292 4.29 4.29 0 0 1-4.292 4.293 4.29 4.29 0 0 1-4.292-4.293.817.817 0 0 1 1.635 0 2.654 2.654 0 0 0 2.657 2.657 2.654 2.654 0 0 0 2.657-2.657 2.654 2.654 0 0 0-2.657-2.657.82.82 0 0 1-.818-.818m16.402.818a2.657 2.657 0 1 0 0 5.315 2.657 2.657 0 0 0 0-5.315m-4.293 2.657a4.292 4.292 0 1 1 8.585.001 4.292 4.292 0 0 1-8.585-.001m19.802-2.657a2.654 2.654 0 0 0-2.657 2.657 2.654 2.654 0 0 0 2.657 2.657 2.655 2.655 0 0 0 2.658-2.657.817.817 0 0 1 1.635 0 4.29 4.29 0 0 1-4.293 4.293 4.29 4.29 0 0 1-4.292-4.293 4.29 4.29 0 0 1 4.292-4.292.817.817 0 1 1 0 1.635" fill="#E1000F"/></g><path d="M404 168H144v104h260z" fill="#fff"/><path d="m164.396 228 4.914-12.6h2.736l4.914 12.6h-2.214l-1.332-3.528h-5.49L166.592 228zm4.212-5.292h4.122l-2.052-5.436zm10.557 2.142v-4.248h-1.71v-1.674h1.71v-2.268h1.872v2.268h3.006v1.674h-3.006v4.248c0 1.224.648 1.62 1.656 1.62.612 0 1.026-.072 1.35-.198v1.638c-.432.18-.936.27-1.638.27-2.124 0-3.24-1.116-3.24-3.33m15.103 1.674c-.846 1.134-2.232 1.836-3.924 1.836-3.132 0-4.986-2.25-4.986-4.896 0-2.718 1.728-4.896 4.608-4.896 2.502 0 4.122 1.71 4.122 4.014 0 .414-.054.828-.126 1.098h-6.696c.126 1.98 1.332 3.006 3.078 3.006 1.098 0 2.016-.486 2.574-1.242zm-4.338-6.408c-1.35 0-2.286.774-2.574 2.178h4.878c-.036-1.134-.846-2.178-2.304-2.178m6.59 7.884v-13.5h1.854V228zm5.823-11.088c-.684 0-1.26-.576-1.26-1.26s.576-1.26 1.26-1.26 1.26.576 1.26 1.26-.576 1.26-1.26 1.26M201.407 228v-9.072h1.854V228zm13.076-1.476c-.846 1.134-2.232 1.836-3.924 1.836-3.132 0-4.986-2.25-4.986-4.896 0-2.718 1.728-4.896 4.608-4.896 2.502 0 4.122 1.71 4.122 4.014 0 .414-.054.828-.126 1.098h-6.696c.126 1.98 1.332 3.006 3.078 3.006 1.098 0 2.016-.486 2.574-1.242zm-4.338-6.408c-1.35 0-2.286.774-2.574 2.178h4.878c-.036-1.134-.846-2.178-2.304-2.178m6.59 7.884v-9.072h1.854v1.026c.63-.702 1.422-1.206 2.538-1.206.288 0 .558.054.792.126v1.818a3.7 3.7 0 0 0-.954-.126c-1.152 0-1.908.612-2.376 1.386V228zm16.324-1.386a2.87 2.87 0 0 0 2.358-1.206l1.458 1.116c-.828 1.116-2.16 1.836-3.834 1.836-3.042 0-4.95-2.25-4.95-4.896s1.908-4.896 4.95-4.896c1.656 0 3.006.72 3.834 1.836l-1.458 1.116a2.88 2.88 0 0 0-2.376-1.206c-1.746 0-3.006 1.368-3.006 3.15 0 1.8 1.26 3.15 3.024 3.15m9.614-8.046c2.952 0 4.932 2.214 4.932 4.896s-1.98 4.896-4.932 4.896c-2.934 0-4.932-2.214-4.932-4.896s1.998-4.896 4.932-4.896m.018 8.046c1.71 0 2.97-1.422 2.97-3.15 0-1.764-1.26-3.15-2.97-3.15-1.746 0-3.006 1.404-3.006 3.15s1.26 3.15 3.006 3.15m7.231 1.386v-13.5h1.854V228zm4.887 0v-13.5h1.854V228zm13.077-1.476c-.846 1.134-2.232 1.836-3.924 1.836-3.132 0-4.986-2.25-4.986-4.896 0-2.718 1.728-4.896 4.608-4.896 2.502 0 4.122 1.71 4.122 4.014 0 .414-.054.828-.126 1.098h-6.696c.126 1.98 1.332 3.006 3.078 3.006 1.098 0 2.016-.486 2.574-1.242zm-4.338-6.408c-1.35 0-2.286.774-2.574 2.178h4.878c-.036-1.134-.846-2.178-2.304-2.178m10.784 6.498a2.87 2.87 0 0 0 2.358-1.206l1.458 1.116c-.828 1.116-2.16 1.836-3.834 1.836-3.042 0-4.95-2.25-4.95-4.896s1.908-4.896 4.95-4.896c1.656 0 3.006.72 3.834 1.836l-1.458 1.116a2.88 2.88 0 0 0-2.376-1.206c-1.746 0-3.006 1.368-3.006 3.15 0 1.8 1.26 3.15 3.024 3.15m6.312-1.764v-4.248h-1.71v-1.674h1.71v-2.268h1.872v2.268h3.006v1.674h-3.006v4.248c0 1.224.648 1.62 1.656 1.62.612 0 1.026-.072 1.35-.198v1.638c-.432.18-.936.27-1.638.27-2.124 0-3.24-1.116-3.24-3.33m8.025-7.938c-.684 0-1.26-.576-1.26-1.26s.576-1.26 1.26-1.26 1.26.576 1.26 1.26-.576 1.26-1.26 1.26M287.733 228v-9.072h1.854V228zm3.716-9.072h1.71v-1.044c0-1.926 1.26-3.384 3.366-3.384.828 0 1.512.216 2.034.504l-.792 1.566a1.94 1.94 0 0 0-1.206-.396c-.918 0-1.53.63-1.53 1.656v1.098h3.006v1.674h-3.006V228h-1.872v-7.398h-1.71z" fill="#161616"/></g><path d="M396 168.5H48a7.5 7.5 0 0 0-7.5 7.5v88a7.5 7.5 0 0 0 7.5 7.5h348a7.5 7.5 0 0 0 7.5-7.5v-88a7.5 7.5 0 0 0-7.5-7.5Z" stroke="#DDD"/><mask id="e" style="mask-type:luminance" maskUnits="userSpaceOnUse" x="40" y="296" width="364" height="104"><path d="M396 296H48a8 8 0 0 0-8 8v88a8 8 0 0 0 8 8h348a8 8 0 0 0 8-8v-88a8 8 0 0 0-8-8" fill="#fff"/></mask><g mask="url(#e)"><path d="M144 296H40v104h104z" fill="#F5F5FE"/><mask id="f" style="mask-type:luminance" maskUnits="userSpaceOnUse" x="60" y="316" width="64" height="64"><path d="M124 316H60v64h64z" fill="#fff"/></mask><g mask="url(#f)" fill-rule="evenodd" clip-rule="evenodd"><path d="M69.237 327.542c0-.394.32-.714.714-.714h26.123c.394 0 .714.32.714.714v37.609c0 .394-.32.714-.714.714H69.95a.714.714 0 0 1-.714-.714zm1.428.715v36.179H95.36v-36.179z" fill="#000091"/><path d="M100.988 359.514c.394 0 .714.319.714.714v9.812c0 .395-.32.714-.714.714h-9.796a.714.714 0 1 1 0-1.428h9.081v-9.098c0-.395.32-.714.715-.714" fill="#000091"/><path d="M74.143 332.497c0-.394.32-.714.714-.714h16.327a.714.714 0 0 1 0 1.429H74.857a.715.715 0 0 1-.714-.715m0 3.266c0-.395.32-.714.714-.714h13.878a.714.714 0 1 1 0 1.428H74.857a.714.714 0 0 1-.714-.714m0 3.257c0-.395.32-.714.714-.714h11.641a.714.714 0 1 1 0 1.428h-11.64a.714.714 0 0 1-.715-.714" fill="#E1000F"/><path d="M74.135 345.55c0-.394.32-.714.714-.714h16.123a.714.714 0 0 1 0 1.429H74.849a.715.715 0 0 1-.714-.715m27.763 3.274c0-.395.32-.715.714-.715h4.931a.715.715 0 0 1 0 1.429h-4.931a.714.714 0 0 1-.714-.714m-27.763 3.273c0-.394.32-.714.714-.714h14.343a.714.714 0 0 1 0 1.428H74.849a.714.714 0 0 1-.714-.714m0 6.515c0-.395.32-.715.714-.715h10.76a.715.715 0 0 1 0 1.429h-10.76a.714.714 0 0 1-.714-.714" fill="#000091"/><path d="M98.633 337.404c0-.395.32-.715.714-.715h14.686c.394 0 .714.32.714.715v16.318c0 .395-.32.714-.714.714H99.347a.714.714 0 0 1-.714-.714zm1.428.714v14.89h13.257v-14.89z" fill="#000091"/><path d="M110.343 335.467a.92.92 0 0 0-1.162-.585l-9.608 3.2a.715.715 0 0 1-.452-1.356l9.608-3.2a2.35 2.35 0 0 1 2.969 1.488l.726 2.171a.714.714 0 1 1-1.354.454z" fill="#000091"/><path d="M101.898 342.293c0-.394.32-.714.714-.714h6.506a.715.715 0 1 1 0 1.429h-6.506a.715.715 0 0 1-.714-.715" fill="#E1000F"/><path d="M110.775 348.714a.102.102 0 1 0 0 .204.102.102 0 1 0 0-.204m-1.53.102a1.53 1.53 0 1 1 3.06-.002 1.53 1.53 0 0 1-3.06.002" fill="#000091"/></g><path d="M404 296H144v104h260z" fill="#fff"/><path d="m164.396 342 4.914-12.6h2.736l4.914 12.6h-2.214l-1.332-3.528h-5.49L166.592 342zm4.212-5.292h4.122l-2.052-5.436zm11.621-5.796c-.684 0-1.26-.576-1.26-1.26s.576-1.26 1.26-1.26 1.26.576 1.26 1.26-.576 1.26-1.26 1.26M179.293 342v-9.072h1.854V342zm4.167-4.536c0-2.646 1.782-4.896 4.644-4.896 1.296 0 2.268.468 3.024 1.278V328.5h1.89V342h-1.89v-.918c-.756.81-1.728 1.278-3.024 1.278-2.862 0-4.644-2.25-4.644-4.896m1.962 0c0 1.782 1.17 3.15 2.916 3.15 1.17 0 2.178-.558 2.79-1.512v-3.276c-.666-.99-1.656-1.512-2.79-1.512-1.746 0-2.916 1.368-2.916 3.15m18.778 3.06c-.846 1.134-2.232 1.836-3.924 1.836-3.132 0-4.986-2.25-4.986-4.896 0-2.718 1.728-4.896 4.608-4.896 2.502 0 4.122 1.71 4.122 4.014 0 .414-.054.828-.126 1.098h-6.696c.126 1.98 1.332 3.006 3.078 3.006 1.098 0 2.016-.486 2.574-1.242zm-4.338-6.408c-1.35 0-2.286.774-2.574 2.178h4.878c-.036-1.134-.846-2.178-2.304-2.178m13.943 8.154c-1.8 0-3.024-1.026-3.024-2.628 0-1.368 1.062-2.358 2.988-2.682l2.934-.486v-.468c0-1.116-.828-1.8-1.998-1.8-.99 0-1.764.45-2.286 1.188l-1.386-1.062c.81-1.08 2.106-1.764 3.726-1.764 2.448 0 3.798 1.44 3.798 3.438V342h-1.854v-1.026c-.648.792-1.782 1.296-2.898 1.296m-1.152-2.7c0 .702.558 1.188 1.494 1.188 1.134 0 2.016-.54 2.556-1.404v-1.566l-2.448.414c-1.134.198-1.602.684-1.602 1.368m14.966-1.458v-5.184h1.872v5.094c0 2.718-1.566 4.338-4.104 4.338-2.556 0-4.122-1.62-4.122-4.338v-5.094h1.872v5.184c0 1.566.828 2.502 2.25 2.502 1.386 0 2.232-.936 2.232-2.502M233.16 342H231l3.276-4.68-3.06-4.392h2.142l2.142 3.114 2.142-3.114h2.142l-3.078 4.392 3.276 4.68h-2.124l-2.358-3.42zm12.861-4.536c0-2.646 1.782-4.896 4.644-4.896 1.296 0 2.268.468 3.024 1.278V328.5h1.89V342h-1.89v-.918c-.756.81-1.728 1.278-3.024 1.278-2.862 0-4.644-2.25-4.644-4.896m1.962 0c0 1.782 1.17 3.15 2.916 3.15 1.17 0 2.178-.558 2.79-1.512v-3.276c-.666-.99-1.656-1.512-2.79-1.512-1.746 0-2.916 1.368-2.916 3.15m15.484-5.976h-1.8l1.872-2.988h2.052zm3.294 9.036c-.846 1.134-2.232 1.836-3.924 1.836-3.132 0-4.986-2.25-4.986-4.896 0-2.718 1.728-4.896 4.608-4.896 2.502 0 4.122 1.71 4.122 4.014 0 .414-.054.828-.126 1.098h-6.696c.126 1.98 1.332 3.006 3.078 3.006 1.098 0 2.016-.486 2.574-1.242zm-4.338-6.408c-1.35 0-2.286.774-2.574 2.178h4.878c-.036-1.134-.846-2.178-2.304-2.178m6.589 7.884v-9.072h1.854v.846c.648-.702 1.494-1.206 2.7-1.206 1.242 0 2.286.558 2.862 1.638.702-.9 1.602-1.638 3.168-1.638 1.89 0 3.348 1.296 3.348 3.798V342h-1.872v-5.562c0-1.332-.738-2.124-1.908-2.124-1.08 0-1.782.684-2.268 1.548.018.162.018.324.018.504V342h-1.872v-5.562c0-1.332-.72-2.124-1.908-2.124-1.152 0-1.836.792-2.268 1.566V342zm19.307.27c-1.8 0-3.024-1.026-3.024-2.628 0-1.368 1.062-2.358 2.988-2.682l2.934-.486v-.468c0-1.116-.828-1.8-1.998-1.8-.99 0-1.764.45-2.286 1.188l-1.386-1.062c.81-1.08 2.106-1.764 3.726-1.764 2.448 0 3.798 1.44 3.798 3.438V342h-1.854v-1.026c-.648.792-1.782 1.296-2.898 1.296m-1.152-2.7c0 .702.558 1.188 1.494 1.188 1.134 0 2.016-.54 2.556-1.404v-1.566l-2.448.414c-1.134.198-1.602.684-1.602 1.368m8.81 2.43v-9.072h1.854v1.026c.63-.702 1.422-1.206 2.538-1.206.288 0 .558.054.792.126v1.818a3.7 3.7 0 0 0-.954-.126c-1.152 0-1.908.612-2.376 1.386V342zm10.998-1.386a2.87 2.87 0 0 0 2.358-1.206l1.458 1.116c-.828 1.116-2.16 1.836-3.834 1.836-3.042 0-4.95-2.25-4.95-4.896s1.908-4.896 4.95-4.896c1.656 0 3.006.72 3.834 1.836l-1.458 1.116a2.88 2.88 0 0 0-2.376-1.206c-1.746 0-3.006 1.368-3.006 3.15 0 1.8 1.26 3.15 3.024 3.15m5.754 1.386v-13.5h1.854v5.31c.684-.72 1.584-1.242 2.88-1.242 2.016 0 3.528 1.35 3.528 3.978V342h-1.872v-5.382c0-1.44-.792-2.304-2.088-2.304-1.242 0-1.962.774-2.448 1.566V342zm19.334-1.476c-.846 1.134-2.232 1.836-3.924 1.836-3.132 0-4.986-2.25-4.986-4.896 0-2.718 1.728-4.896 4.608-4.896 2.502 0 4.122 1.71 4.122 4.014 0 .414-.054.828-.126 1.098h-6.696c.126 1.98 1.332 3.006 3.078 3.006 1.098 0 2.016-.486 2.574-1.242zm-4.338-6.408c-1.35 0-2.286.774-2.574 2.178h4.878c-.036-1.134-.846-2.178-2.304-2.178m5.584 6.606 1.278-1.116c.594.756 1.314 1.242 2.214 1.242.882 0 1.368-.54 1.368-1.224 0-1.836-4.446-1.17-4.446-4.374 0-1.494 1.26-2.682 3.078-2.682 1.332 0 2.502.648 3.15 1.512l-1.26 1.098c-.486-.648-1.116-1.098-1.872-1.098-.864 0-1.296.504-1.296 1.116 0 1.818 4.446 1.206 4.446 4.32-.018 1.782-1.458 2.844-3.15 2.844-1.53 0-2.664-.612-3.51-1.638M168.014 370.27c-1.8 0-3.024-1.026-3.024-2.628 0-1.368 1.062-2.358 2.988-2.682l2.934-.486v-.468c0-1.116-.828-1.8-1.998-1.8-.99 0-1.764.45-2.286 1.188l-1.386-1.062c.81-1.08 2.106-1.764 3.726-1.764 2.448 0 3.798 1.44 3.798 3.438V370h-1.854v-1.026c-.648.792-1.782 1.296-2.898 1.296m-1.152-2.7c0 .702.558 1.188 1.494 1.188 1.134 0 2.016-.54 2.556-1.404v-1.566l-2.448.414c-1.134.198-1.602.684-1.602 1.368m8.09-2.106c0-2.646 1.782-4.896 4.644-4.896 1.296 0 2.268.468 3.024 1.278V356.5h1.89V370h-1.89v-.918c-.756.81-1.728 1.278-3.024 1.278-2.862 0-4.644-2.25-4.644-4.896m1.962 0c0 1.782 1.17 3.15 2.916 3.15 1.17 0 2.178-.558 2.79-1.512v-3.276c-.666-.99-1.656-1.512-2.79-1.512-1.746 0-2.916 1.368-2.916 3.15M187.502 370v-9.072h1.854v.846c.648-.702 1.494-1.206 2.7-1.206 1.242 0 2.286.558 2.862 1.638.702-.9 1.602-1.638 3.168-1.638 1.89 0 3.348 1.296 3.348 3.798V370h-1.872v-5.562c0-1.332-.738-2.124-1.908-2.124-1.08 0-1.782.684-2.268 1.548.018.162.018.324.018.504V370h-1.872v-5.562c0-1.332-.72-2.124-1.908-2.124-1.152 0-1.836.792-2.268 1.566V370zm17.741-11.088c-.684 0-1.26-.576-1.26-1.26s.576-1.26 1.26-1.26 1.26.576 1.26 1.26-.576 1.26-1.26 1.26M204.307 370v-9.072h1.854V370zm4.887 0v-9.072h1.854v.882c.684-.72 1.584-1.242 2.88-1.242 1.998 0 3.528 1.35 3.528 3.978V370h-1.872v-5.382c0-1.44-.792-2.304-2.088-2.304-1.242 0-1.98.774-2.448 1.566V370zm12.08-11.088c-.684 0-1.26-.576-1.26-1.26s.576-1.26 1.26-1.26 1.26.576 1.26 1.26-.576 1.26-1.26 1.26M220.338 370v-9.072h1.854V370zm3.881-1.278 1.278-1.116c.594.756 1.314 1.242 2.214 1.242.882 0 1.368-.54 1.368-1.224 0-1.836-4.446-1.17-4.446-4.374 0-1.494 1.26-2.682 3.078-2.682 1.332 0 2.502.648 3.15 1.512l-1.26 1.098c-.486-.648-1.116-1.098-1.872-1.098-.864 0-1.296.504-1.296 1.116 0 1.818 4.446 1.206 4.446 4.32-.018 1.782-1.458 2.844-3.15 2.844-1.53 0-2.664-.612-3.51-1.638m9.632-1.872v-4.248h-1.71v-1.674h1.71v-2.268h1.872v2.268h3.006v1.674h-3.006v4.248c0 1.224.648 1.62 1.656 1.62.612 0 1.026-.072 1.35-.198v1.638c-.432.18-.936.27-1.638.27-2.124 0-3.24-1.116-3.24-3.33m7.089 3.15v-9.072h1.854v1.026c.63-.702 1.422-1.206 2.538-1.206.288 0 .558.054.792.126v1.818a3.7 3.7 0 0 0-.954-.126c-1.152 0-1.908.612-2.376 1.386V370zm9.304.27c-1.8 0-3.024-1.026-3.024-2.628 0-1.368 1.062-2.358 2.988-2.682l2.934-.486v-.468c0-1.116-.828-1.8-1.998-1.8-.99 0-1.764.45-2.286 1.188l-1.386-1.062c.81-1.08 2.106-1.764 3.726-1.764 2.448 0 3.798 1.44 3.798 3.438V370h-1.854v-1.026c-.648.792-1.782 1.296-2.898 1.296m-1.152-2.7c0 .702.558 1.188 1.494 1.188 1.134 0 2.016-.54 2.556-1.404v-1.566l-2.448.414c-1.134.198-1.602.684-1.602 1.368m9.351-.72v-4.248h-1.71v-1.674h1.71v-2.268h1.872v2.268h3.006v1.674h-3.006v4.248c0 1.224.648 1.62 1.656 1.62.612 0 1.026-.072 1.35-.198v1.638c-.432.18-.936.27-1.638.27-2.124 0-3.24-1.116-3.24-3.33m8.025-7.938c-.684 0-1.26-.576-1.26-1.26s.576-1.26 1.26-1.26 1.26.576 1.26 1.26-.576 1.26-1.26 1.26M265.532 370v-9.072h1.854V370zm3.554-9.072h1.998l2.664 7.056 2.646-7.056h2.016L274.972 370h-2.466zm19.067 7.596c-.846 1.134-2.232 1.836-3.924 1.836-3.132 0-4.986-2.25-4.986-4.896 0-2.718 1.728-4.896 4.608-4.896 2.502 0 4.122 1.71 4.122 4.014 0 .414-.054.828-.126 1.098h-6.696c.126 1.98 1.332 3.006 3.078 3.006 1.098 0 2.016-.486 2.574-1.242zm-4.338-6.408c-1.35 0-2.286.774-2.574 2.178h4.878c-.036-1.134-.846-2.178-2.304-2.178m5.584 6.606 1.278-1.116c.594.756 1.314 1.242 2.214 1.242.882 0 1.368-.54 1.368-1.224 0-1.836-4.446-1.17-4.446-4.374 0-1.494 1.26-2.682 3.078-2.682 1.332 0 2.502.648 3.15 1.512l-1.26 1.098c-.486-.648-1.116-1.098-1.872-1.098-.864 0-1.296.504-1.296 1.116 0 1.818 4.446 1.206 4.446 4.32-.018 1.782-1.458 2.844-3.15 2.844-1.53 0-2.664-.612-3.51-1.638" fill="#161616"/></g><path d="M396 296.5H48a7.5 7.5 0 0 0-7.5 7.5v88a7.5 7.5 0 0 0 7.5 7.5h348a7.5 7.5 0 0 0 7.5-7.5v-88a7.5 7.5 0 0 0-7.5-7.5Z" stroke="#DDD"/></g><defs><clipPath id="a"><path fill="#fff" d="M0 0h444v440H0z"/></clipPath></defs></svg>
