<svg id="Calque_1" viewBox="0 0 580.14 709.895" version="1.1" width="580.14" height="709.895" xmlns="http://www.w3.org/2000/svg"><defs id="defs14"><linearGradient id="Dégradé_sans_nom_30" x1="879.89" y1="590.4" x2="1061.94" y2="590.4" gradientUnits="userSpaceOnUse" gradientTransform="translate(-669.805 -.005)"><stop offset=".21" stop-color="#615feb" id="stop4"/><stop offset=".82" stop-color="#9b9aff" id="stop6"/></linearGradient><linearGradient id="Dégradé_sans_nom_3" x1="921.16" y1="683.53" x2="1020.68" y2="683.53" gradientUnits="userSpaceOnUse" gradientTransform="translate(-669.805 -.005)"><stop offset="0" stop-color="#0c008a" id="stop9"/><stop offset="1" stop-color="#615feb" id="stop11"/></linearGradient><style id="style2">.cls-2,.cls-3{fill:none;stroke:#000;stroke-width:14.81px;stroke-linecap:round}.cls-2{stroke-miterlimit:10}.cls-3{stroke-linejoin:round}</style></defs><path d="M210.085 523.645h182.05v76.42c0 31.53-25.56 57.09-57.09 57.09h-67.88c-31.53 0-57.09-25.56-57.09-57.09v-76.42z" id="path16" style="stroke-width:0;fill:url(#D%C3%A9grad%C3%A9_sans_nom_30)"/><path d="M251.355 657.145h99.52v45.4c0 4.06-3.3 7.35-7.35 7.35h-84.81c-4.06 0-7.35-3.3-7.35-7.35v-45.4z" id="path18" style="stroke-width:0;fill:url(#D%C3%A9grad%C3%A9_sans_nom_3)"/><path class="cls-2" id="line20" d="M210.085 566.125h41.27"/><path class="cls-2" id="line22" d="M392.135 566.125h-91.02"/><path id="line24" style="stroke-miterlimit:10;fill:none;stroke:#000;stroke-width:14.81px" d="M210.085 600.055h182.05"/><path class="cls-3" id="line26" d="M32.885 465.385v49.76"/><path class="cls-3" id="line28" d="M7.405 490.265h52.18"/><path class="cls-3" id="line30" d="M546.035 116.465v49.76"/><path class="cls-3" id="line32" d="M520.555 141.345h52.18"/><path class="cls-3" id="line34" d="m230.715 38.165 20.64 24.28"/><path class="cls-3" id="line36" d="M301.115 7.405v30.76"/><path class="cls-3" id="line38" d="m377.575 38.165-26.7 24.28"/><path d="M491.665 265.125c-9.71-91.03-95.88-169.92-190.55-169.92s-180.84 78.89-190.55 169.92 49.76 146.86 70.39 169.92 29.13 88.6 29.13 88.6h182.05s8.5-65.54 29.13-88.6 80.1-78.89 70.39-169.92z" id="path40" style="stroke-width:0;fill:#f49a01"/><path d="m212.775 291.075 11.46-12.96c3.6-4.07 9.79-4.5 13.92-.97l31.48 26.88a3.306 3.306 0 0 0 4.46-.16l89.76-88.46c3.97-3.91 10.38-3.8 14.21.24l13.07 13.78c3.65 3.85 3.64 9.89-.02 13.73l-105.09 109.98c-6.55 6.85-17.45 6.97-24.15.27l-48.7-48.7c-3.72-3.72-3.9-9.7-.42-13.64z" id="path42" style="stroke-width:0;fill:#fff"/></svg>
