<svg xmlns="http://www.w3.org/2000/svg" viewBox="0 0 1920 710.41"><path d="M879.89 523.65h182.05v76.42c0 31.53-25.56 57.09-57.09 57.09h-67.88c-31.53 0-57.09-25.56-57.09-57.09v-76.42Z" style="stroke-width:0;fill:url(#Dégradé_sans_nom_30)"/><path d="M921.16 657.15h99.52v45.4c0 4.06-3.3 7.35-7.35 7.35h-84.81c-4.06 0-7.35-3.3-7.35-7.35v-45.4Z" style="fill:url(#Dégradé_sans_nom_3);stroke-width:0"/><path d="M879.89 566.13h41.27m140.78 0h-91.02" style="fill:none;stroke:#000;stroke-width:14.81px;stroke-linecap:round;stroke-miterlimit:10"/><path style="stroke-miterlimit:10;fill:none;stroke:#000;stroke-width:14.81px" d="M879.89 600.06h182.05"/><path d="M702.69 465.39v49.76m-25.48-24.88h52.18m486.45-373.8v49.76m-25.48-24.88h52.18M900.52 38.17l20.64 24.28m49.76-55.04v30.76m76.46 0-26.7 24.28" style="fill:none;stroke:#000;stroke-width:14.81px;stroke-linecap:round;stroke-linejoin:round"/><path d="M1161.47 265.13c-9.71-91.03-95.88-169.92-190.55-169.92S790.08 174.1 780.37 265.13s49.76 146.86 70.39 169.92 29.13 88.6 29.13 88.6h182.05s8.5-65.54 29.13-88.6 80.1-78.89 70.39-169.92Z" style="stroke-width:0;fill:#f49a01"/><path d="m882.58 291.08 11.46-12.96c3.6-4.07 9.79-4.5 13.92-.97l31.48 26.88a3.306 3.306 0 0 0 4.46-.16l89.76-88.46c3.97-3.91 10.38-3.8 14.21.24l13.07 13.78c3.65 3.85 3.64 9.89-.02 13.73L955.83 353.14c-6.55 6.85-17.45 6.97-24.15.27l-48.7-48.7c-3.72-3.72-3.9-9.7-.42-13.64Z" style="stroke-width:0;fill:#fff"/></svg>
