<svg width="588" height="420" viewBox="0 0 588 420" fill="none" xmlns="http://www.w3.org/2000/svg"><g clip-path="url(#a)"><path d="M572 0H16C7.163 0 0 7.163 0 16v388c0 8.837 7.163 16 16 16h556c8.837 0 16-7.163 16-16V16c0-8.837-7.163-16-16-16" fill="#D1D1FF"/><mask id="b" style="mask-type:luminance" maskUnits="userSpaceOnUse" x="56" y="109" width="476" height="191"><path d="M532 109H56v190.4h476z" fill="#fff"/></mask><g mask="url(#b)"><path d="M206.349 109.168H66.237c-5.654 0-10.237 4.592-10.237 10.257v66.756c0 5.665 4.583 10.257 10.237 10.257h140.112c5.654 0 10.237-4.592 10.237-10.257v-66.756c0-5.665-4.583-10.257-10.237-10.257" fill="#FBF5F2"/><path d="M77.49 142.535v-2.503l6.142-8.042h3.235v8.042h1.453v2.503h-1.453v3.816h-2.764v-3.816zm2.846-2.503h3.767v-4.903zm14.795-8.452c3.214 0 4.852 1.846 4.852 3.877 0 1.313-.635 2.442-1.883 3.119 1.638.676 2.518 2.01 2.518 3.754 0 2.502-1.925 4.431-5.487 4.431-3.542 0-5.487-1.929-5.487-4.431 0-1.744.88-3.078 2.539-3.754-1.27-.677-1.904-1.806-1.904-3.119 0-2.031 1.658-3.877 4.852-3.877m.041 5.949c1.187 0 1.965-.697 1.965-1.764 0-1.087-.778-1.805-1.965-1.805-1.29 0-2.047.718-2.047 1.805 0 1.067.778 1.764 2.047 1.764m-.02 6.832c1.617 0 2.62-.862 2.62-2.175 0-1.354-1.003-2.277-2.62-2.277-1.638 0-2.662.923-2.662 2.277 0 1.334 1.024 2.175 2.662 2.175m12.015-12.781c3.767 0 5.528 3.282 5.528 7.59s-1.761 7.591-5.528 7.591-5.528-3.283-5.528-7.591 1.761-7.59 5.528-7.59m0 2.564c-1.822 0-2.702 2.011-2.702 5.026 0 3.037.88 5.026 2.702 5.026 1.802 0 2.682-2.01 2.682-5.026 0-3.036-.88-5.026-2.682-5.026" fill="#161616"/><path d="M178.337 130.94a5.536 5.536 0 0 1 7.54-.28 5.536 5.536 0 0 1 7.54.28 5.564 5.564 0 0 1 .289 7.544l-6.623 6.66a1.703 1.703 0 0 1-2.319.086l-.094-.086-6.623-6.66a5.564 5.564 0 0 1 .29-7.544m1.206 1.209a3.85 3.85 0 0 0-.125 5.308l.125.131 6.334 6.347 4.523-4.534-3.015-3.021-.905.906a2.554 2.554 0 0 1-3.619 0c-1-1.001-1-2.625 0-3.626l1.792-1.797a3.83 3.83 0 0 0-4.979.161zm7.238 2.417a.854.854 0 0 1 1.207 0l3.619 3.626.603-.604a3.85 3.85 0 0 0 0-5.439 3.83 3.83 0 0 0-5.298-.125l-.131.125-2.714 2.72a.855.855 0 0 0-.066 1.134l.066.074a.853.853 0 0 0 1.132.067l.074-.067z" fill="#BB8568"/><path d="m76.666 168.789 3.39-8.976h2.38l3.392 8.976h-1.932l-.858-2.334h-3.582l-.858 2.334zm3.353-3.885h2.456l-1.228-3.372zm10.196 2.602c.64 0 1.151-.294 1.459-.743l1.266.974c-.601.795-1.548 1.308-2.725 1.308-2.227 0-3.557-1.603-3.557-3.487s1.33-3.488 3.557-3.488c1.177 0 2.124.513 2.725 1.308l-1.266.974c-.308-.448-.82-.743-1.485-.743-1.062 0-1.842.82-1.842 1.949 0 1.141.78 1.948 1.868 1.948m6.785 0c.64 0 1.152-.294 1.459-.743l1.267.974c-.602.795-1.549 1.308-2.726 1.308-2.226 0-3.557-1.603-3.557-3.487s1.33-3.488 3.557-3.488c1.177 0 2.124.513 2.726 1.308l-1.267.974c-.307-.448-.82-.743-1.484-.743-1.062 0-1.843.82-1.843 1.949 0 1.141.78 1.948 1.868 1.948m6.76-5.436c2.098 0 3.531 1.551 3.531 3.488 0 1.936-1.433 3.487-3.531 3.487-2.099 0-3.532-1.551-3.532-3.487s1.433-3.488 3.532-3.488m.025 5.436c1.037 0 1.817-.833 1.817-1.948 0-1.129-.78-1.949-1.817-1.949-1.075 0-1.868.82-1.868 1.949 0 1.128.793 1.948 1.868 1.948m4.988 1.283v-6.463h1.626v.488c.435-.423.985-.744 1.778-.744.819 0 1.536.359 1.958 1.051.461-.564 1.075-1.051 2.162-1.051 1.331 0 2.38.923 2.38 2.744v3.975h-1.637v-3.911c0-.782-.423-1.269-1.152-1.269-.704 0-1.088.487-1.344.923.013.09.013.179.013.282v3.975h-1.638v-3.911c0-.782-.422-1.269-1.151-1.269-.742 0-1.126.551-1.369.961v4.219zm11.759 3.154v-9.617h1.625v.526c.499-.5 1.126-.782 2.009-.782 2.048 0 3.276 1.603 3.276 3.488 0 1.884-1.228 3.487-3.276 3.487-.883 0-1.51-.282-2.009-.782v3.68zm3.404-8.334c-.755 0-1.369.333-1.779.936v2.025c.435.616 1.037.936 1.779.936 1.1 0 1.817-.82 1.817-1.948s-.717-1.949-1.817-1.949m6.66 5.372c-1.292 0-2.175-.744-2.175-1.936 0-.975.755-1.705 2.137-1.936l1.97-.334v-.166c0-.68-.512-1.116-1.254-1.116-.627 0-1.113.295-1.458.77l-1.19-.911c.575-.795 1.522-1.282 2.699-1.282 1.869 0 2.828 1.116 2.828 2.539v4.18h-1.625v-.629c-.409.5-1.177.821-1.932.821m-.563-2.013c0 .436.346.718.896.718.742 0 1.279-.346 1.599-.859v-.91l-1.535.256c-.678.115-.96.397-.96.795m5.342 2.949c0-.641.319-1.154.895-1.577a1.35 1.35 0 0 1-.396-.936c0-.513.217-.923.703-1.282-.563-.423-.87-1.065-.87-1.783 0-1.256.973-2.269 2.585-2.269.499 0 .934.09 1.305.256h2.355v1.385h-1.139c.064.205.089.411.089.628 0 1.27-.947 2.296-2.61 2.296-.218 0-.422-.013-.614-.052-.141.128-.218.27-.218.411 0 .256.141.384.435.384h1.625c1.625 0 2.508.872 2.508 2.077 0 1.436-1.369 2.539-3.378 2.539-2.06 0-3.275-.718-3.275-2.077m2.943-4.513c.678 0 1.113-.423 1.113-1.065s-.435-1.051-1.113-1.051c-.704 0-1.126.423-1.126 1.051 0 .642.422 1.065 1.126 1.065m-1.408 4.282c0 .616.589 1 1.727 1 1.178 0 1.779-.436 1.779-1.077 0-.487-.294-.833-1.075-.833h-1.996c-.243.231-.435.513-.435.91m6.239-.897v-6.463h1.625v.513a2.62 2.62 0 0 1 1.907-.769c1.395 0 2.508.962 2.508 2.872v3.847h-1.638v-3.783c0-.859-.486-1.397-1.28-1.397-.819 0-1.254.551-1.497.961v4.219zm13.823-1.052c-.602.808-1.6 1.308-2.815 1.308-2.291 0-3.583-1.603-3.583-3.487 0-1.911 1.203-3.488 3.314-3.488 1.791 0 2.969 1.218 2.969 2.911 0 .359-.052.692-.103.91h-4.517c.154 1.205.896 1.692 1.907 1.692.704 0 1.318-.307 1.663-.769zm-3.122-4.333c-.832 0-1.382.461-1.561 1.307h2.968c-.025-.654-.499-1.307-1.407-1.307m4.595 5.385v-6.463h1.625v.488c.435-.423.985-.744 1.778-.744.819 0 1.536.359 1.958 1.051.461-.564 1.075-1.051 2.162-1.051 1.331 0 2.38.923 2.38 2.744v3.975h-1.637v-3.911c0-.782-.423-1.269-1.152-1.269-.704 0-1.088.487-1.344.923.013.09.013.179.013.282v3.975h-1.638v-3.911c0-.782-.422-1.269-1.151-1.269-.742 0-1.126.551-1.369.961v4.219zm17.695-1.052c-.602.808-1.6 1.308-2.815 1.308-2.291 0-3.583-1.603-3.583-3.487 0-1.911 1.203-3.488 3.314-3.488 1.791 0 2.969 1.218 2.969 2.911 0 .359-.052.692-.103.91h-4.517c.154 1.205.896 1.692 1.907 1.692.704 0 1.318-.307 1.663-.769zm-3.122-4.333c-.832 0-1.382.461-1.561 1.307h2.968c-.025-.654-.499-1.307-1.407-1.307m4.595 5.385v-6.463h1.625v.513a2.62 2.62 0 0 1 1.907-.769c1.395 0 2.508.962 2.508 2.872v3.847h-1.638v-3.783c0-.859-.486-1.397-1.28-1.397-.819 0-1.254.551-1.497.961v4.219zm8.294-2.36v-2.641h-1.202v-1.462h1.202v-1.615h1.638v1.615h1.971v1.462h-1.971v2.641c0 .718.384 1 1.024 1 .448 0 .742-.051.96-.141v1.424c-.32.141-.704.205-1.242.205-1.612 0-2.38-.911-2.38-2.488m4.501 1.424 1.074-.975c.397.5.871.859 1.485.859.524 0 .793-.308.793-.692 0-1.128-3.084-.705-3.084-2.975 0-1.141.96-2 2.304-2 .985 0 1.881.474 2.341 1.103l-1.075.949c-.332-.411-.755-.744-1.254-.744-.511 0-.755.282-.755.615 0 1.103 3.084.718 3.084 2.949-.025 1.359-1.113 2.103-2.329 2.103-1.151 0-1.97-.462-2.584-1.192" fill="#3A3A3A"/><path d="M206.349 211.825H66.237c-5.654 0-10.237 4.593-10.237 10.257v66.756c0 5.665 4.583 10.258 10.237 10.258h140.112c5.654 0 10.237-4.593 10.237-10.258v-66.756c0-5.664-4.583-10.257-10.237-10.257" fill="#FBF5F2"/><path d="M80.954 248.987v-11.508l-2.969 1.682-1.372-1.97 4.422-2.564h2.683v14.36zm6.163.021v-2.503l4.913-4.841c1.106-1.129 1.802-1.908 1.802-3.078 0-1.189-.82-1.887-1.945-1.887-1.372 0-2.211.841-2.969 2.113l-2.252-1.374c1.208-1.97 2.99-3.201 5.487-3.201 2.498 0 4.504 1.6 4.504 4.062 0 1.97-1.29 3.488-2.702 4.862l-3.46 3.344h6.53v2.503zm17.03-14.771c3.214 0 4.852 1.847 4.852 3.878 0 1.312-.634 2.441-1.883 3.118 1.638.677 2.518 2.01 2.518 3.754 0 2.503-1.925 4.431-5.487 4.431-3.542 0-5.487-1.928-5.487-4.431 0-1.744.88-3.077 2.539-3.754-1.27-.677-1.904-1.806-1.904-3.118 0-2.031 1.658-3.878 4.852-3.878m.041 5.95c1.187 0 1.965-.698 1.965-1.765 0-1.087-.778-1.805-1.965-1.805-1.29 0-2.047.718-2.047 1.805 0 1.067.778 1.765 2.047 1.765m-.02 6.831c1.617 0 2.62-.862 2.62-2.175 0-1.354-1.003-2.277-2.62-2.277-1.638 0-2.662.923-2.662 2.277 0 1.334 1.024 2.175 2.662 2.175" fill="#161616"/><path fill-rule="evenodd" clip-rule="evenodd" d="m190.858 243.16.15.152.152-.152a1.919 1.919 0 0 1 3.211.863 1.92 1.92 0 0 1-.496 1.857l-2.867 2.871-2.865-2.871a1.927 1.927 0 0 1 0-2.72 1.917 1.917 0 0 1 2.715 0m-4.983-1.418v1.709a5.124 5.124 0 0 0-5.118 5.129h-1.706c0-3.693 2.927-6.719 6.611-6.834zm0-11.112a5.123 5.123 0 0 1 5.119 5.129 5.123 5.123 0 0 1-4.927 5.125l-.192.003a5.12 5.12 0 0 1-5.118-5.128 5.12 5.12 0 0 1 4.926-5.125zm0 1.71a3.415 3.415 0 0 0-3.412 3.419 3.415 3.415 0 0 0 3.412 3.419 3.414 3.414 0 0 0 3.412-3.419 3.414 3.414 0 0 0-3.412-3.419" fill="#BB8568"/><path d="M77.791 274.01v-8.975h2.636c1.868 0 3.007.923 3.007 2.436a2.05 2.05 0 0 1-.96 1.769c.947.423 1.472 1.193 1.472 2.129 0 1.641-1.267 2.641-3.327 2.641zm2.674-7.462h-.857v2.025h.857c.691 0 1.1-.371 1.1-1.025 0-.629-.409-1-1.1-1m.256 3.538h-1.113v2.411h1.113c.845 0 1.357-.449 1.357-1.205 0-.77-.512-1.206-1.357-1.206m8.67-3.564h-1.56l1.33-2.128h1.766zm2.189 6.436c-.601.808-1.6 1.308-2.815 1.308-2.29 0-3.583-1.603-3.583-3.487 0-1.911 1.203-3.488 3.314-3.488 1.792 0 2.969 1.218 2.969 2.911 0 .359-.051.692-.103.91h-4.516c.153 1.205.895 1.693 1.906 1.693.704 0 1.318-.308 1.664-.77zm-3.122-4.333c-.832 0-1.382.461-1.561 1.307h2.968c-.025-.653-.499-1.307-1.407-1.307m4.595 5.385v-6.462h1.625v.513a2.62 2.62 0 0 1 1.906-.77c1.395 0 2.508.962 2.508 2.872v3.847h-1.638v-3.783c0-.859-.486-1.397-1.28-1.397-.818 0-1.253.551-1.496.961v4.219zm11.634-7.488h-1.561l1.33-2.128h1.766zm2.188 6.436c-.602.808-1.6 1.308-2.815 1.308-2.291 0-3.583-1.603-3.583-3.487 0-1.911 1.203-3.488 3.314-3.488 1.792 0 2.969 1.218 2.969 2.911 0 .359-.051.692-.103.91h-4.517c.154 1.205.896 1.693 1.907 1.693.704 0 1.318-.308 1.663-.77zm-3.122-4.333c-.832 0-1.382.461-1.561 1.307h2.968c-.025-.653-.499-1.307-1.407-1.307m3.801-1.077h1.203v-.68c0-1.372.909-2.474 2.521-2.474a3.15 3.15 0 0 1 1.497.359l-.691 1.359a1.3 1.3 0 0 0-.781-.257c-.55 0-.908.385-.908.975v.718h1.971v1.461h-1.971v5.001h-1.638v-5.001h-1.203zm6.848-1.129a1.08 1.08 0 0 1-1.062-1.064c0-.577.487-1.064 1.062-1.064s1.05.487 1.05 1.064-.474 1.064-1.05 1.064m-.819 7.591v-6.462h1.625v6.462zm6.671-1.282c.639 0 1.151-.295 1.458-.744l1.267.974c-.601.795-1.548 1.308-2.725 1.308-2.227 0-3.557-1.603-3.557-3.487s1.33-3.488 3.557-3.488c1.177 0 2.124.513 2.725 1.308l-1.267.974c-.307-.448-.819-.743-1.484-.743-1.062 0-1.842.82-1.842 1.949 0 1.141.78 1.949 1.868 1.949m4.757-6.309a1.077 1.077 0 0 1-1.062-1.064c0-.577.486-1.064 1.062-1.064s1.049.487 1.049 1.064-.473 1.064-1.049 1.064m-.819 7.591v-6.462h1.625v6.462zm5.391.192c-1.292 0-2.175-.744-2.175-1.936 0-.974.755-1.705 2.137-1.936l1.97-.333v-.167c0-.68-.512-1.116-1.254-1.116-.627 0-1.113.295-1.459.77l-1.19-.911c.576-.795 1.523-1.282 2.7-1.282 1.868 0 2.828 1.116 2.828 2.539v4.18h-1.625v-.629c-.409.501-1.177.821-1.932.821m-.563-2.013c0 .436.345.718.896.718.742 0 1.279-.346 1.599-.859v-.91l-1.535.256c-.679.116-.96.398-.96.795m6.8-5.77a1.077 1.077 0 0 1-1.062-1.064c0-.577.486-1.064 1.062-1.064s1.049.487 1.049 1.064-.473 1.064-1.049 1.064m-.819 7.591v-6.462h1.625v6.462zm3.574 0v-6.462h1.625v.641c.422-.436.973-.77 1.702-.77a1.8 1.8 0 0 1 .563.09v1.603a2.8 2.8 0 0 0-.717-.09c-.793 0-1.305.436-1.548.846v4.142zm10.86-1.052c-.601.808-1.599 1.308-2.815 1.308-2.29 0-3.582-1.603-3.582-3.487 0-1.911 1.202-3.488 3.314-3.488 1.791 0 2.968 1.218 2.968 2.911 0 .359-.051.692-.102.91h-4.517c.154 1.205.896 1.693 1.907 1.693.703 0 1.318-.308 1.663-.77zm-3.122-4.333c-.831 0-1.382.461-1.561 1.307h2.969c-.026-.653-.499-1.307-1.408-1.307m3.945 4.449 1.075-.975c.396.5.87.859 1.484.859.525 0 .793-.307.793-.692 0-1.128-3.083-.705-3.083-2.975 0-1.141.96-2 2.303-2 .985 0 1.881.475 2.342 1.103l-1.075.949c-.333-.411-.755-.744-1.254-.744-.512 0-.755.282-.755.615 0 1.103 3.084.719 3.084 2.949-.026 1.36-1.113 2.103-2.329 2.103-1.152 0-1.971-.461-2.585-1.192" fill="#3A3A3A"/><path d="M521.764 109.489H242.178c-5.476 0-9.916 4.449-9.916 9.937v169.413c0 5.488 4.44 9.937 9.916 9.937h279.586c5.477 0 9.917-4.449 9.917-9.937V119.426c0-5.488-4.44-9.937-9.917-9.937" fill="#fff"/><path fill-rule="evenodd" clip-rule="evenodd" d="M231.762 119.426c0-5.763 4.663-10.437 10.416-10.437h279.586c5.754 0 10.417 4.674 10.417 10.437v169.413c0 5.763-4.663 10.437-10.417 10.437H242.178c-5.753 0-10.416-4.674-10.416-10.437zm10.416-9.437c-5.199 0-9.416 4.224-9.416 9.437v169.413c0 5.213 4.217 9.437 9.416 9.437h279.586c5.2 0 9.417-4.224 9.417-9.437V119.426c0-5.213-4.217-9.437-9.417-9.437z" fill="#DDD"/><path d="M253.6 138.658v-8.077h2.096l3.604 5.839v-5.839h1.635v8.077h-2.096l-3.604-5.838v5.838zm12.079-6.046c1.889 0 3.179 1.396 3.179 3.139s-1.29 3.138-3.179 3.138-3.178-1.396-3.178-3.138c0-1.743 1.29-3.139 3.178-3.139m.023 4.893c.933 0 1.636-.751 1.636-1.754 0-1.016-.703-1.754-1.636-1.754-.967 0-1.681.738-1.681 1.754 0 1.015.714 1.754 1.681 1.754m4.49 1.153v-5.815h1.462v.438c.392-.381.887-.669 1.601-.669.737 0 1.382.323 1.762.946.415-.508.967-.946 1.946-.946 1.198 0 2.142.831 2.142 2.469v3.577h-1.474v-3.519c0-.704-.38-1.142-1.036-1.142-.634 0-.979.438-1.209.83.011.081.011.162.011.254v3.577h-1.474v-3.519c0-.704-.38-1.142-1.036-1.142-.668 0-1.014.496-1.233.865v3.796zm16.801-2.907c0 1.696-1.105 3.138-2.948 3.138-.795 0-1.359-.254-1.808-.704v.473h-1.463v-8.654h1.463v3.312c.449-.45 1.013-.704 1.808-.704 1.843 0 2.948 1.442 2.948 3.139m-3.155-1.754c-.68 0-1.244.3-1.601.83v1.847c.392.542.944.831 1.601.831.99 0 1.635-.739 1.635-1.754s-.645-1.754-1.635-1.754m4.494 4.661v-5.815h1.462v.577c.38-.393.875-.693 1.532-.693.196 0 .368.035.507.081v1.442a2.5 2.5 0 0 0-.645-.08c-.714 0-1.175.392-1.394.761v3.727zm9.774-.946c-.541.727-1.439 1.177-2.533 1.177-2.062 0-3.225-1.442-3.225-3.138 0-1.72 1.083-3.139 2.983-3.139 1.612 0 2.672 1.096 2.672 2.619 0 .323-.046.623-.093.82h-4.065c.138 1.084.806 1.523 1.716 1.523.634 0 1.186-.277 1.497-.693zm-2.81-3.9c-.748 0-1.243.415-1.405 1.177h2.672c-.023-.589-.449-1.177-1.267-1.177m6.826 1.939c0-1.697 1.117-3.139 2.948-3.139.783 0 1.347.242 1.796.692v-3.3h1.474v8.654h-1.474v-.461c-.449.45-1.013.692-1.796.692-1.831 0-2.948-1.442-2.948-3.138m1.531 0c0 1.015.634 1.754 1.624 1.754.656 0 1.198-.277 1.589-.808v-1.893a1.9 1.9 0 0 0-1.589-.807c-.99 0-1.624.738-1.624 1.754m7.221-1.847h-1.358l1.036-3.323h1.658zm3.588 4.928c-1.163 0-1.958-.67-1.958-1.743 0-.877.679-1.535 1.923-1.742l1.774-.3v-.15c0-.612-.461-1.004-1.129-1.004-.564 0-1.002.265-1.313.692l-1.071-.819c.518-.716 1.371-1.154 2.43-1.154 1.681 0 2.545 1.004 2.545 2.285v3.761h-1.462v-.565c-.369.45-1.06.739-1.739.739m-.507-1.812c0 .392.311.646.806.646.668 0 1.152-.311 1.44-.773v-.819l-1.382.23c-.611.104-.864.358-.864.716m8.169.485c.576 0 1.037-.266 1.313-.67l1.14.877c-.541.716-1.393 1.177-2.453 1.177-2.003 0-3.201-1.442-3.201-3.138 0-1.697 1.198-3.139 3.201-3.139 1.06 0 1.912.461 2.453 1.177l-1.14.877c-.276-.404-.737-.669-1.336-.669-.955 0-1.658.738-1.658 1.754 0 1.027.703 1.754 1.681 1.754m6.107 0c.576 0 1.037-.266 1.313-.67l1.14.877c-.541.716-1.393 1.177-2.453 1.177-2.004 0-3.201-1.442-3.201-3.138 0-1.697 1.197-3.139 3.201-3.139 1.06 0 1.912.461 2.453 1.177l-1.14.877c-.276-.404-.737-.669-1.336-.669-.956 0-1.658.738-1.658 1.754 0 1.027.702 1.754 1.681 1.754m6.084-4.893c1.889 0 3.178 1.396 3.178 3.139s-1.289 3.138-3.178 3.138-3.179-1.396-3.179-3.138c0-1.743 1.29-3.139 3.179-3.139m.023 4.893c.933 0 1.635-.751 1.635-1.754 0-1.016-.702-1.754-1.635-1.754-.967 0-1.681.738-1.681 1.754 0 1.015.714 1.754 1.681 1.754m4.489 1.153v-5.815h1.463v.438c.391-.381.887-.669 1.601-.669.737 0 1.382.323 1.762.946.414-.508.967-.946 1.946-.946 1.197 0 2.142.831 2.142 2.469v3.577h-1.474v-3.519c0-.704-.38-1.142-1.037-1.142-.633 0-.979.438-1.209.83.012.081.012.162.012.254v3.577h-1.475v-3.519c0-.704-.38-1.142-1.036-1.142-.668 0-1.013.496-1.232.865v3.796zm10.583 2.839v-8.654h1.463v.473c.449-.45 1.013-.704 1.808-.704 1.842 0 2.948 1.442 2.948 3.139s-1.106 3.138-2.948 3.138c-.795 0-1.359-.254-1.808-.704v3.312zm3.063-7.5c-.679 0-1.232.3-1.6.842v1.823c.391.554.932.843 1.6.843.991 0 1.636-.739 1.636-1.754s-.645-1.754-1.636-1.754m5.995 4.835c-1.163 0-1.958-.67-1.958-1.743 0-.877.68-1.535 1.923-1.742l1.774-.3v-.15c0-.612-.461-1.004-1.129-1.004-.564 0-1.002.265-1.312.692l-1.071-.819c.518-.716 1.37-1.154 2.429-1.154 1.682 0 2.546 1.004 2.546 2.285v3.761h-1.463v-.565c-.369.45-1.06.739-1.739.739m-.507-1.812c0 .392.311.646.806.646.668 0 1.152-.311 1.44-.773v-.819l-1.382.23c-.61.104-.864.358-.864.716m4.808 2.654c0-.577.288-1.039.806-1.419a1.2 1.2 0 0 1-.357-.843c0-.461.196-.831.633-1.154a1.96 1.96 0 0 1-.783-1.604c0-1.131.875-2.042 2.326-2.042.449 0 .841.081 1.175.231h2.119v1.246h-1.025c.058.184.081.369.081.565 0 1.143-.853 2.066-2.35 2.066-.195 0-.38-.012-.552-.046-.127.115-.196.242-.196.369 0 .231.126.346.391.346h1.463c1.462 0 2.257.785 2.257 1.87 0 1.292-1.232 2.284-3.04 2.284-1.854 0-2.948-.646-2.948-1.869m2.648-4.062c.611 0 1.002-.381 1.002-.958s-.391-.946-1.002-.946c-.633 0-1.013.381-1.013.946 0 .577.38.958 1.013.958m-1.266 3.854c0 .554.529.9 1.554.9 1.06 0 1.601-.392 1.601-.969 0-.439-.265-.75-.967-.75h-1.797c-.219.208-.391.461-.391.819m5.615-.808v-5.815h1.463v.461a2.36 2.36 0 0 1 1.715-.692c1.256 0 2.258.865 2.258 2.585v3.461h-1.474v-3.404c0-.773-.438-1.257-1.152-1.257-.737 0-1.129.496-1.347.865v3.796zm12.439-.946c-.541.727-1.439 1.177-2.533 1.177-2.062 0-3.225-1.442-3.225-3.138 0-1.72 1.083-3.139 2.983-3.139 1.612 0 2.672 1.096 2.672 2.619 0 .323-.046.623-.092.82h-4.066c.139 1.084.807 1.523 1.716 1.523.634 0 1.186-.277 1.497-.693zm-2.81-3.9c-.748 0-1.243.415-1.405 1.177h2.672c-.023-.589-.449-1.177-1.267-1.177m4.136 4.846v-5.815h1.463v.438c.391-.381.886-.669 1.6-.669.737 0 1.382.323 1.762.946.415-.508.968-.946 1.946-.946 1.198 0 2.142.831 2.142 2.469v3.577h-1.474v-3.519c0-.704-.38-1.142-1.036-1.142-.633 0-.979.438-1.209.83.011.081.011.162.011.254v3.577h-1.474v-3.519c0-.704-.38-1.142-1.036-1.142-.668 0-1.014.496-1.232.865v3.796zm15.926-.946c-.541.727-1.439 1.177-2.533 1.177-2.062 0-3.225-1.442-3.225-3.138 0-1.72 1.083-3.139 2.983-3.139 1.612 0 2.672 1.096 2.672 2.619 0 .323-.047.623-.093.82h-4.065c.138 1.084.806 1.523 1.716 1.523.633 0 1.186-.277 1.497-.693zm-2.81-3.9c-.748 0-1.244.415-1.405 1.177h2.672c-.023-.589-.449-1.177-1.267-1.177m4.136 4.846v-5.815h1.462v.461a2.36 2.36 0 0 1 1.716-.692c1.255 0 2.257.865 2.257 2.585v3.461h-1.474v-3.404c0-.773-.437-1.257-1.151-1.257-.737 0-1.129.496-1.348.865v3.796zm7.465-2.123v-2.377h-1.083v-1.315h1.083v-1.454h1.474v1.454h1.773v1.315h-1.773v2.377c0 .646.345.9.921.9.403 0 .668-.046.864-.127v1.281c-.288.127-.634.185-1.117.185-1.451 0-2.142-.819-2.142-2.239m4.05 1.281.968-.877c.357.45.783.773 1.336.773.472 0 .713-.277.713-.623 0-1.015-2.775-.635-2.775-2.677 0-1.027.864-1.8 2.073-1.8.887 0 1.693.427 2.107.992l-.967.854c-.299-.369-.679-.669-1.128-.669-.461 0-.68.254-.68.554 0 .992 2.775.646 2.775 2.654-.023 1.223-1.001 1.892-2.095 1.892-1.037 0-1.774-.415-2.327-1.073" fill="#161616"/><path fill-rule="evenodd" clip-rule="evenodd" d="M261.01 253.948h10.22v-20.496a5.116 5.116 0 0 0-5.11-5.12 5.116 5.116 0 0 0-5.11 5.12z" fill="#009099"/><path d="m257.488 278.183-2.285-5.326.684-.686 5.313 2.291-.542.544-1.558-.681-1.747 1.752.678 1.562zm-.407-2.715 1.411-1.414-2.502-1.094zm1.46-3.824.499-.501 3.127 1.382-1.379-3.134.499-.501 1.666 3.815-.608.609zm6.047-.579-2.736-2.741.462-.463.342.343c-.038-.441.054-.849.401-1.197.087-.087.179-.158.266-.202l.451.452a1.4 1.4 0 0 0-.304.24c-.358.359-.407.777-.299 1.223l1.878 1.883zm-1.056-5.851a.46.46 0 0 1-.651 0 .463.463 0 0 1 .005-.648.458.458 0 0 1 .646.648m3.213 3.689-2.735-2.742.461-.463 2.735 2.743zm1.436-1.44-4.07-4.081.461-.462 4.07 4.08z" fill="#161616"/><path fill-rule="evenodd" clip-rule="evenodd" d="M289.752 253.949h10.22v-90.937a5.114 5.114 0 0 0-5.11-5.12 5.115 5.115 0 0 0-5.11 5.12z" fill="#009099"/><path d="m288.395 275.315-3.799-3.81.651-.652 3.077.756-.754-3.085.651-.653 3.799 3.809-.51.511-3.115-3.123.705 2.927-.39.392-2.92-.707 3.115 3.123zm5.508-5.37c-.538.539-1.2.604-1.667.136-.412-.413-.39-1.023.093-1.703l.77-1.078-.19-.19c-.379-.381-.868-.326-1.259.065a1.26 1.26 0 0 0-.358 1.122l-.613.081c-.087-.566.098-1.153.575-1.632.695-.697 1.514-.702 2.116-.098l1.835 1.839-.461.462-.347-.348c.059.473-.142.991-.494 1.344m-1.216-.348c.233.234.591.212.912-.109a1.36 1.36 0 0 0 .374-1.311l-.537-.539-.673.947c-.309.441-.309.778-.076 1.012m.23-5.727a.46.46 0 0 1-.651 0 .46.46 0 0 1 .006-.647.45.45 0 0 1 .64 0 .456.456 0 0 1 .005.647m3.213 3.689-2.735-2.742.462-.463 2.735 2.743z" fill="#161616"/><path fill-rule="evenodd" clip-rule="evenodd" d="M319.135 253.947h10.22v-28.82a5.115 5.115 0 0 0-5.11-5.12 5.115 5.115 0 0 0-5.11 5.12z" fill="#009099"/><path d="M317.983 274.922c.82.822.749 1.567.081 2.236a2 2 0 0 1-.287.245l-.456-.457a1.2 1.2 0 0 0 .233-.18c.364-.364.472-.777-.06-1.311l-3.549-3.558.51-.512zm2.069-3.881-1.563-1.567.461-.462 1.547 1.551c.819.821.825 1.774.082 2.518-.739.741-1.689.735-2.508-.086l-1.547-1.551.462-.463 1.563 1.568c.537.538 1.134.56 1.601.092.455-.457.439-1.061-.098-1.6m-.67-3.888a.46.46 0 0 1-.652 0 .46.46 0 0 1 .006-.647.45.45 0 0 1 .64 0c.18.179.185.468.006.647m3.213 3.69-2.736-2.743.462-.463 2.735 2.743zm1.436-1.441-2.735-2.742.461-.462.309.31c-.022-.468.087-.925.494-1.333.614-.615 1.482-.658 2.258.119l1.656 1.66-.462.462-1.639-1.643c-.489-.49-1.048-.495-1.471-.07-.396.397-.417.875-.304 1.338l1.894 1.899z" fill="#161616"/><path fill-rule="evenodd" clip-rule="evenodd" d="M347.879 253.948h10.22v-74.927a5.115 5.115 0 0 0-5.11-5.121 5.116 5.116 0 0 0-5.11 5.121z" fill="#009099"/><path d="M341.029 279.853c.819.822.748 1.566.081 2.236a1.7 1.7 0 0 1-.288.245l-.456-.457c.082-.049.158-.104.234-.18.363-.364.472-.778-.06-1.311l-3.55-3.559.511-.511zm2.069-3.881-1.564-1.567.462-.462 1.546 1.55c.82.822.826 1.774.082 2.519-.738.741-1.688.735-2.508-.086l-1.546-1.551.461-.463 1.563 1.567c.538.539 1.134.561 1.601.093.456-.457.439-1.061-.097-1.6m-.671-3.888a.46.46 0 0 1-.651 0 .46.46 0 0 1 .006-.647.457.457 0 0 1 .645.647m3.213 3.69-2.735-2.743.461-.462 2.735 2.742zm1.436-1.441-4.07-4.08.461-.463 4.071 4.081zm1.437-1.44-4.071-4.08.462-.463 4.07 4.081zm3.417-4.329c.087.599-.103 1.224-.613 1.736-.923.925-2.171.816-2.969.016-.83-.832-.944-2.013-.098-2.862.744-.745 1.748-.707 2.421-.032.109.109.196.228.255.321l-2.1 2.105c.673.642 1.486.621 2.073.033.353-.354.488-.816.423-1.241zm-3.3-.707c-.45.451-.499 1.033-.124 1.605l1.638-1.644c-.418-.386-1.03-.446-1.514.039m3.697-.626-1.4-1.404-.516.516-.418-.418.516-.518-.684-.685.467-.468.683.685.95-.952.418.42-.949.952 1.4 1.404c.428.429.765.331 1.096 0 .179-.18.282-.327.342-.474l.412.413c-.076.186-.2.354-.396.55-.607.609-1.254.648-1.921-.021" fill="#161616"/><path fill-rule="evenodd" clip-rule="evenodd" d="M376.941 254.1h10.22v-67.243a5.116 5.116 0 0 0-5.11-5.121 5.116 5.116 0 0 0-5.11 5.121z" fill="#009099"/><path d="m370.728 279.437-2.285-5.327.684-.685 5.313 2.29-.542.544-1.558-.68-1.748 1.752.679 1.562zm-.407-2.715 1.411-1.415-2.502-1.093zm3.145-5.732c.879-.881 2.16-.805 2.957-.005.798.8.874 2.084-.005 2.965-.885.888-2.16.805-2.958.006-.798-.8-.879-2.078.006-2.966m2.523 2.52c.57-.571.511-1.469-.054-2.036-.57-.571-1.46-.625-2.03-.053-.586.587-.532 1.479.038 2.05.57.572 1.46.626 2.046.039m3.276-4.983-1.563-1.566.462-.463 1.546 1.551c.82.821.825 1.773.082 2.519-.738.74-1.688.735-2.507-.087l-1.547-1.551.461-.462 1.563 1.567c.537.539 1.134.56 1.601.093.456-.458.44-1.062-.098-1.601m1.805-1.296-1.401-1.404-.516.516-.417-.418.515-.518-.684-.685.467-.468.684.685.95-.952.418.42-.95.952 1.4 1.404c.429.429.765.331 1.097 0 .179-.18.282-.327.341-.474l.413.413c-.076.186-.201.354-.396.55-.608.609-1.254.648-1.921-.021" fill="#161616"/><path fill-rule="evenodd" clip-rule="evenodd" d="M406.484 254.1h10.221v-54.435a5.115 5.115 0 0 0-5.111-5.12 5.115 5.115 0 0 0-5.11 5.12z" fill="#009099"/><path d="m399.108 279.399.032-.729c.597.076 1.08-.05 1.433-.403.423-.424.412-.925.065-1.273-.857-.86-2.475 1.131-3.729-.125-.564-.566-.559-1.497.103-2.16.533-.534 1.167-.681 1.824-.588l-.049.723c-.542-.098-.988-.01-1.313.316-.375.376-.38.849-.054 1.176.851.854 2.453-1.143 3.717.125.657.658.57 1.583-.103 2.257-.559.561-1.183.763-1.926.681m5.834-5.708c.087.598-.103 1.224-.613 1.736-.923.925-2.171.816-2.969.016-.83-.833-.945-2.013-.098-2.862.744-.746 1.748-.707 2.421-.033.108.109.196.229.255.321l-2.1 2.106c.673.642 1.486.62 2.073.033.353-.354.488-.817.423-1.241zm-3.3-.708c-.45.452-.499 1.034-.124 1.606l1.638-1.643c-.418-.387-1.031-.447-1.514.037m5.808 1.774-4.071-4.081.462-.462.325.326a1.76 1.76 0 0 1 .538-1.409c.857-.86 2.084-.729 2.881.071.798.8.929 2.029.071 2.889a1.76 1.76 0 0 1-1.406.539l1.661 1.664zm-2.367-5.137a1.52 1.52 0 0 0-.407 1.432l1.064 1.066a1.5 1.5 0 0 0 1.428-.408c.581-.583.515-1.442-.066-2.024s-1.438-.648-2.019-.066m3.812-.829-1.4-1.403-.515.517-.418-.419.515-.517-.684-.685.467-.468.684.685.95-.952.418.418-.95.953 1.4 1.403c.429.431.765.332 1.096 0 .179-.179.283-.326.342-.473l.413.414c-.076.185-.201.354-.397.549-.607.61-1.253.648-1.921-.022m3.444-1.493a.49.49 0 0 1-.695.011.5.5 0 0 1 .005-.702.49.49 0 1 1 .69.691" fill="#161616"/><path fill-rule="evenodd" clip-rule="evenodd" d="M435.947 254.1h10.22v-79.41a5.116 5.116 0 0 0-5.11-5.121 5.116 5.116 0 0 0-5.11 5.121z" fill="#009099"/><path d="M429.315 271.781c1.183-1.186 2.914-1.072 4 .016s1.199 2.824.016 4.01c-1.189 1.192-2.92 1.078-4.005-.011-1.086-1.087-1.2-2.823-.011-4.015m3.539 3.547c.852-.853.781-2.154-.066-3.003-.846-.849-2.144-.919-2.996-.065-.857.859-.787 2.16.06 3.009s2.144.919 3.002.059m4.09-4.013c.337-.338.451-.779.38-1.187l.641-.087c.087.599-.092 1.213-.592 1.714-.906.909-2.166.811-2.963.011s-.896-2.062.01-2.971a2 2 0 0 1 1.711-.593l-.087.642a1.33 1.33 0 0 0-1.189.387c-.586.587-.543 1.468.038 2.051.586.587 1.46.626 2.051.033m1.334-2.523-1.401-1.404-.516.517-.417-.419.515-.517-.684-.685.467-.468.684.685.95-.952.418.419-.95.952 1.4 1.404c.429.43.765.331 1.097 0 .179-.179.282-.327.341-.474l.413.414c-.076.185-.201.354-.396.55-.608.609-1.254.647-1.921-.022m3.443-1.494a.49.49 0 0 1-.695.011.5.5 0 0 1 .006-.702.49.49 0 0 1 .695 0 .487.487 0 0 1-.006.691" fill="#161616"/><path fill-rule="evenodd" clip-rule="evenodd" d="M464.41 254.1h10.221v-89.656a5.116 5.116 0 0 0-5.11-5.121 5.116 5.116 0 0 0-5.111 5.121z" fill="#009099"/><path d="m459.828 277.842-3.799-3.808.668-.67 5.325 1.029-3.176-3.183.51-.512 3.8 3.809-.668.669-5.324-1.028 3.175 3.183zm2.801-8.51c.879-.881 2.16-.805 2.958-.005.798.799.874 2.083-.005 2.965-.885.887-2.16.805-2.958.006-.798-.8-.88-2.079.005-2.966m2.524 2.52c.57-.572.51-1.47-.054-2.036-.57-.571-1.46-.626-2.03-.054-.586.587-.532 1.48.038 2.051s1.46.626 2.046.039m-.647-4.184.499-.501 3.127 1.382-1.379-3.134.499-.5 1.667 3.814-.608.609zm5.959-.369a.49.49 0 0 1-.694.01.5.5 0 0 1 .005-.702.49.49 0 1 1 .689.692" fill="#161616"/><path fill-rule="evenodd" clip-rule="evenodd" d="M493.334 254.1h10.22v-76.849a5.116 5.116 0 0 0-5.11-5.12 5.116 5.116 0 0 0-5.11 5.12z" fill="#009099"/><path d="m488.471 277.944-3.799-3.81 1.46-1.463c1.189-1.192 2.871-1.127 3.897-.098s1.091 2.715-.098 3.907zm-1.861-4.816-.961.963 2.865 2.873.961-.963c.847-.849.82-2.106.027-2.9-.798-.8-2.046-.822-2.892.027m8.101-2.343c.087.598-.103 1.224-.614 1.735-.922.925-2.171.816-2.968.017-.831-.833-.945-2.014-.098-2.863.744-.744 1.748-.707 2.421-.032.108.109.195.229.255.321l-2.101 2.106c.674.642 1.487.62 2.073.033.354-.354.489-.817.424-1.241zm-3.3-.708c-.451.452-.499 1.034-.125 1.605l1.639-1.643c-.418-.386-1.031-.446-1.514.038m5.395-1.143c.337-.337.45-.778.38-1.186l.64-.087c.087.599-.092 1.213-.591 1.714-.906.908-2.165.81-2.963.011-.798-.8-.896-2.062.011-2.971a2 2 0 0 1 1.709-.593l-.087.642a1.34 1.34 0 0 0-1.189.386c-.586.588-.542 1.469.039 2.051.586.588 1.46.626 2.051.033m2.402-1.635a.49.49 0 0 1-.694.011.5.5 0 0 1 .005-.702.488.488 0 1 1 .689.691" fill="#161616"/></g><mask id="c" style="mask-type:luminance" maskUnits="userSpaceOnUse" x="235" y="315" width="258" height="56"><path d="M492.833 315H235v56h257.833z" fill="#fff"/></mask><g mask="url(#c)"><path d="M478.849 315H248.984c-7.723 0-13.984 6.268-13.984 14v28c0 7.732 6.261 14 13.984 14h229.865c7.723 0 13.984-6.268 13.984-14v-28c0-7.732-6.261-14-13.984-14" fill="#fff"/><path d="M250.893 350v-11.025h6.135v1.527h-4.342v3.119h3.713v1.528h-3.713v3.323h4.342V350zm9.537 0h-1.887l2.863-4.095-2.675-3.843h1.873l1.872 2.724 1.872-2.724h1.872l-2.69 3.843 2.863 4.095h-1.856l-2.061-2.993zm7.63 3.874v-11.812h1.621v.819c.676-.725 1.526-1.134 2.674-1.134 2.486 0 4.043 1.968 4.043 4.284s-1.557 4.284-4.043 4.284c-1.148 0-1.998-.41-2.674-1.134v4.693zm4.091-10.6c-1.039 0-1.904.489-2.47 1.355v2.803c.582.882 1.447 1.355 2.47 1.355 1.526 0 2.548-1.197 2.548-2.756 0-1.56-1.022-2.757-2.548-2.757m10.022-1.527c2.58 0 4.311 1.937 4.311 4.284s-1.731 4.284-4.311 4.284c-2.564 0-4.31-1.938-4.31-4.284s1.746-4.284 4.31-4.284m.016 7.04c1.495 0 2.596-1.244 2.596-2.756 0-1.544-1.101-2.757-2.596-2.757-1.526 0-2.627 1.229-2.627 2.757 0 1.527 1.101 2.756 2.627 2.756m6.32 1.213v-7.938h1.62v.897c.551-.614 1.243-1.055 2.219-1.055.251 0 .487.047.692.11v1.591a3.3 3.3 0 0 0-.834-.11c-1.007 0-1.668.535-2.077 1.213V350zm7.216-2.757v-3.717h-1.494v-1.464h1.494v-1.985h1.637v1.985h2.627v1.464h-2.627v3.717c0 1.071.566 1.418 1.447 1.418.535 0 .897-.063 1.18-.173v1.433c-.378.157-.818.236-1.432.236-1.856 0-2.832-.976-2.832-2.914m11.255-3.039a1.18 1.18 0 0 1-1.18-1.182c0-.63.519-1.149 1.18-1.149.645 0 1.164.519 1.164 1.149 0 .646-.519 1.182-1.164 1.182m0 5.985c-.661 0-1.18-.52-1.18-1.166a1.172 1.172 0 0 1 2.344 0c0 .646-.519 1.166-1.164 1.166" fill="#161616"/><path d="M328.426 349.125v-9.8h3.006c2.056 0 3.315 1.092 3.315 2.828s-1.259 2.828-3.315 2.828h-1.412v4.144zm3.076-8.442h-1.482v2.94h1.482c.993 0 1.581-.56 1.581-1.498 0-.882-.588-1.442-1.581-1.442m5.145 8.442v-9.8h3.803c3.077 0 5.161 2.254 5.161 4.9s-2.084 4.9-5.161 4.9zm3.817-8.33h-2.223v6.86h2.223c2.028 0 3.482-1.526 3.482-3.43 0-1.918-1.454-3.43-3.482-3.43m7.326 8.33v-9.8h5.454v1.358h-3.859v2.772h3.3v1.358h-3.3v4.312z" fill="#000091"/><path fill-rule="evenodd" clip-rule="evenodd" d="M370.182 343a2.333 2.333 0 0 1-2.331 2.334h-2.331v-4.667h2.331a2.333 2.333 0 0 1 2.331 2.333m-3.497 1.167v-2.333h1.166a1.166 1.166 0 0 1 0 2.333z" fill="#000091"/><path fill-rule="evenodd" clip-rule="evenodd" d="M363.188 337.167a.58.58 0 0 0-.583.579v10.509a.585.585 0 0 0 .579.579h9.331a.583.583 0 0 0 .579-.588v-8.162l-2.913-2.917zm.583 1.167h5.827v2.333h2.331v7h-8.158z" fill="#000091"/><path fill-rule="evenodd" clip-rule="evenodd" d="M316.221 343c0-7.766 6.288-14.062 14.047-14.062h37.582c7.758 0 14.048 6.296 14.048 14.062s-6.29 14.062-14.048 14.062h-37.582c-7.759 0-14.047-6.297-14.047-14.062m14.047-13.062c-7.206 0-13.047 5.847-13.047 13.062s5.841 13.062 13.047 13.062h37.582c7.205 0 13.048-5.848 13.048-13.062 0-7.215-5.843-13.062-13.048-13.062zM388.764 343c0-7.766 6.288-14.062 14.047-14.062h62.055c7.758 0 14.047 6.296 14.047 14.062s-6.289 14.062-14.047 14.062h-62.055c-7.759 0-14.047-6.297-14.047-14.062m14.047-13.062c-7.206 0-13.047 5.847-13.047 13.062s5.841 13.062 13.047 13.062h62.055c7.205 0 13.047-5.848 13.047-13.062 0-7.215-5.842-13.062-13.047-13.062z" fill="#DDD"/><path d="M400.199 340.795v-1.47h7.901v1.47h-3.146v8.33h-1.608v-8.33zm10.414 8.54c-1.398 0-2.349-.798-2.349-2.044 0-1.064.825-1.834 2.321-2.086l2.28-.378v-.364c0-.868-.644-1.4-1.553-1.4-.769 0-1.37.35-1.776.924l-1.076-.826c.629-.84 1.636-1.372 2.894-1.372 1.902 0 2.951 1.12 2.951 2.674v4.662h-1.44v-.798c-.504.616-1.385 1.008-2.252 1.008m-.895-2.1c0 .546.434.924 1.161.924.881 0 1.566-.42 1.986-1.092v-1.218l-1.902.322c-.881.154-1.245.532-1.245 1.064m14.257-1.638c0 2.058-1.384 3.808-3.594 3.808-1.021 0-1.776-.364-2.377-1.008v.728h-1.441v-10.5h1.441v4.172c.601-.644 1.356-1.008 2.377-1.008 2.21 0 3.594 1.75 3.594 3.808m-3.776-2.45c-.923 0-1.706.434-2.195 1.19v2.52c.517.77 1.286 1.19 2.195 1.19 1.357 0 2.266-1.064 2.266-2.45s-.909-2.45-2.266-2.45m5.583 5.978v-10.5h1.44v10.5zm10.158-1.148c-.657.882-1.734 1.428-3.048 1.428-2.434 0-3.874-1.75-3.874-3.808 0-2.114 1.342-3.808 3.58-3.808 1.944 0 3.202 1.33 3.202 3.122 0 .322-.042.644-.098.854H430.5c.098 1.54 1.035 2.338 2.392 2.338.853 0 1.566-.378 1.999-.966zm-3.37-4.984c-1.049 0-1.776.602-2 1.694h3.79c-.028-.882-.657-1.694-1.79-1.694m9.806 3.108v-4.032h1.455v3.962c0 2.114-1.217 3.374-3.189 3.374-1.985 0-3.202-1.26-3.202-3.374v-3.962h1.454v4.032c0 1.218.644 1.946 1.748 1.946 1.077 0 1.734-.728 1.734-1.946m3.644 3.024v-7.056h1.441v.798c.489-.546 1.104-.938 1.971-.938.224 0 .434.042.616.098v1.414a3 3 0 0 0-.742-.098c-.895 0-1.482.476-1.845 1.078v4.704z" fill="#000091"/><path fill-rule="evenodd" clip-rule="evenodd" d="M469.526 337.75c.323 0 .583.261.583.583v9.334c0 .322-.26.583-.583.583h-9.322a.583.583 0 0 1-.583-.583v-9.334c0-.322.261-.583.583-.583zm-.582 7.583h-3.496v1.75h3.496zm-4.662 0h-3.496v1.75h3.496zm4.662-3.5h-3.496v2.334h3.496zm-4.662 0h-3.496v2.334h3.496zm4.662-2.916h-3.496v1.75h3.496zm-4.662 0h-3.496v1.75h3.496z" fill="#000091"/></g><path d="M310.292 48H60.481C58.006 48 56 50.015 56 52.5v36c0 2.485 2.006 4.5 4.48 4.5h249.812c2.475 0 4.481-2.015 4.481-4.5v-36c0-2.485-2.006-4.5-4.481-4.5" fill="#000091"/><path fill-rule="evenodd" clip-rule="evenodd" d="M77.657 69.75v-4.5h1.493v4.5h4.481v1.5h-4.48v4.5h-1.494v-4.5h-4.481v-1.5z" fill="#F5F5FE"/><path d="M98.57 78.376v-12.6h6.991v1.746h-4.947v3.564h4.23v1.746h-4.23v3.798h4.947v1.746zm9.757 0v-9.072h1.846v.882c.682-.72 1.578-1.242 2.868-1.242 1.99 0 3.513 1.35 3.513 3.978v5.454h-1.864v-5.382c0-1.44-.788-2.304-2.079-2.304-1.237 0-1.972.774-2.438 1.566v6.12zm11.097 0v-9.072h1.847v1.026c.627-.702 1.416-1.206 2.527-1.206.287 0 .556.054.789.126v1.818a3.7 3.7 0 0 0-.95-.126c-1.148 0-1.9.612-2.366 1.386v6.048zm14.877-1.476c-.842 1.134-2.222 1.836-3.907 1.836-3.119 0-4.965-2.25-4.965-4.896 0-2.718 1.721-4.896 4.588-4.896 2.492 0 4.105 1.71 4.105 4.014 0 .414-.054.828-.126 1.098h-6.667c.125 1.98 1.326 3.006 3.065 3.006 1.093 0 2.007-.486 2.563-1.242zm-4.319-6.408c-1.345 0-2.277.774-2.564 2.178h4.858c-.036-1.134-.843-2.178-2.294-2.178m5.541 9.504c0-.918.448-1.638 1.29-2.268a1.72 1.72 0 0 1-.591-1.296c0-.72.34-1.296 1.039-1.782a3.12 3.12 0 0 1-1.237-2.52c0-1.746 1.345-3.186 3.549-3.186.681 0 1.273.126 1.775.36h3.334v1.584h-1.775c.162.378.251.81.251 1.242 0 1.764-1.344 3.222-3.585 3.222a5.2 5.2 0 0 1-1.093-.126c-.287.234-.448.504-.448.774 0 .378.197.594.681.594h2.456c2.33 0 3.495 1.206 3.495 2.844 0 1.962-1.9 3.438-4.643 3.438-2.778 0-4.498-1.026-4.498-2.88m4.068-6.066c1.165 0 1.846-.774 1.846-1.8 0-1.008-.681-1.764-1.846-1.764s-1.846.756-1.846 1.764c0 1.026.681 1.8 1.846 1.8m-2.312 5.814c0 1.008 1.004 1.62 2.707 1.62 1.792 0 2.832-.702 2.832-1.764 0-.774-.449-1.386-1.829-1.386h-2.867c-.502.396-.843.882-.843 1.53m10.051-12.456a1.273 1.273 0 0 1-1.255-1.26c0-.684.574-1.26 1.255-1.26s1.255.576 1.255 1.26-.574 1.26-1.255 1.26m-.932 11.088v-9.072h1.846v9.072zm3.865-1.278 1.272-1.116c.592.756 1.309 1.242 2.205 1.242.878 0 1.362-.54 1.362-1.224 0-1.836-4.427-1.17-4.427-4.374 0-1.494 1.255-2.682 3.065-2.682 1.326 0 2.491.648 3.137 1.512l-1.255 1.098c-.484-.648-1.111-1.098-1.864-1.098-.86 0-1.291.504-1.291 1.116 0 1.818 4.428 1.206 4.428 4.32-.018 1.782-1.452 2.844-3.137 2.844-1.524 0-2.653-.612-3.495-1.638m9.59-1.872v-4.248h-1.703v-1.674h1.703v-2.268h1.864v2.268h2.993v1.674h-2.993v4.248c0 1.224.645 1.62 1.649 1.62.61 0 1.022-.072 1.344-.198v1.638c-.43.18-.932.27-1.631.27-2.115 0-3.226-1.116-3.226-3.33m7.059 3.15v-9.072h1.846v1.026c.627-.702 1.416-1.206 2.527-1.206.287 0 .556.054.789.126v1.818a3.7 3.7 0 0 0-.95-.126c-1.147 0-1.9.612-2.366 1.386v6.048zm14.876-1.476c-.842 1.134-2.222 1.836-3.907 1.836-3.119 0-4.965-2.25-4.965-4.896 0-2.718 1.721-4.896 4.589-4.896 2.491 0 4.104 1.71 4.104 4.014 0 .414-.054.828-.125 1.098h-6.668c.125 1.98 1.326 3.006 3.065 3.006 1.093 0 2.007-.486 2.563-1.242zm-4.319-6.408c-1.345 0-2.277.774-2.563 2.178h4.857c-.036-1.134-.842-2.178-2.294-2.178m6.561 7.884v-9.072h1.846v1.026c.627-.702 1.416-1.206 2.527-1.206.287 0 .556.054.789.126v1.818a3.7 3.7 0 0 0-.95-.126c-1.147 0-1.9.612-2.366 1.386v6.048zm18.155-3.888v-5.184h1.865v5.094c0 2.718-1.56 4.338-4.087 4.338-2.545 0-4.105-1.62-4.105-4.338v-5.094h1.864v5.184c0 1.566.825 2.502 2.241 2.502 1.38 0 2.222-.936 2.222-2.502m4.67 3.888v-9.072h1.846v.882c.681-.72 1.577-1.242 2.867-1.242 1.99 0 3.514 1.35 3.514 3.978v5.454h-1.865v-5.382c0-1.44-.788-2.304-2.079-2.304-1.236 0-1.971.774-2.437 1.566v6.12zm19.253-1.476c-.842 1.134-2.223 1.836-3.907 1.836-3.119 0-4.965-2.25-4.965-4.896 0-2.718 1.72-4.896 4.588-4.896 2.492 0 4.105 1.71 4.105 4.014 0 .414-.054.828-.126 1.098h-6.667c.125 1.98 1.326 3.006 3.065 3.006 1.093 0 2.007-.486 2.563-1.242zm-4.32-6.408c-1.344 0-2.276.774-2.563 2.178h4.858c-.036-1.134-.843-2.178-2.295-2.178m13.883 8.154c-1.792 0-3.011-1.026-3.011-2.628 0-1.368 1.058-2.358 2.975-2.682l2.922-.486v-.468c0-1.116-.824-1.8-1.989-1.8-.986 0-1.757.45-2.277 1.188l-1.38-1.062c.807-1.08 2.097-1.764 3.71-1.764 2.438 0 3.782 1.44 3.782 3.438v5.994h-1.846V77.35c-.645.792-1.774 1.296-2.886 1.296m-1.147-2.7c0 .702.556 1.188 1.488 1.188 1.129 0 2.007-.54 2.545-1.404v-1.566l-2.438.414c-1.129.198-1.595.684-1.595 1.368m13.004 1.044a2.85 2.85 0 0 0 2.348-1.206l1.452 1.116c-.825 1.116-2.151 1.836-3.818 1.836-3.029 0-4.929-2.25-4.929-4.896s1.9-4.896 4.929-4.896c1.649 0 2.993.72 3.818 1.836l-1.452 1.116a2.86 2.86 0 0 0-2.366-1.206c-1.739 0-2.993 1.368-2.993 3.15 0 1.8 1.254 3.15 3.011 3.15m6.284-1.764v-4.248h-1.702v-1.674h1.702v-2.268h1.864v2.268h2.994v1.674h-2.994v4.248c0 1.224.646 1.62 1.649 1.62.61 0 1.022-.072 1.345-.198v1.638c-.431.18-.932.27-1.631.27-2.115 0-3.227-1.116-3.227-3.33m7.991-7.938a1.273 1.273 0 0 1-1.255-1.26c0-.684.574-1.26 1.255-1.26s1.255.576 1.255 1.26-.574 1.26-1.255 1.26m-.932 11.088v-9.072h1.846v9.072zm3.54-9.072h1.989l2.653 7.056 2.635-7.056h2.007l-3.423 9.072h-2.456zm11.885-2.016a1.27 1.27 0 0 1-1.254-1.26c0-.684.573-1.26 1.254-1.26.682 0 1.255.576 1.255 1.26s-.573 1.26-1.255 1.26m-.932 11.088v-9.072h1.847v9.072zm5.403-3.15v-4.248h-1.702v-1.674h1.702v-2.268h1.864v2.268h2.994v1.674h-2.994v4.248c0 1.224.646 1.62 1.649 1.62.61 0 1.022-.072 1.345-.198v1.638c-.431.18-.932.27-1.631.27-2.115 0-3.227-1.116-3.227-3.33m11.759-7.362h-1.792l1.864-2.988h2.043zm3.28 9.036c-.842 1.134-2.222 1.836-3.907 1.836-3.119 0-4.965-2.25-4.965-4.896 0-2.718 1.721-4.896 4.589-4.896 2.491 0 4.104 1.71 4.104 4.014 0 .414-.054.828-.125 1.098h-6.668c.126 1.98 1.326 3.006 3.065 3.006 1.093 0 2.007-.486 2.563-1.242zm-4.319-6.408c-1.345 0-2.277.774-2.563 2.178h4.857c-.036-1.134-.842-2.178-2.294-2.178" fill="#F5F5FE"/><path d="M353.817 73.283c.399.451.774.872 1.143 1.302 1.917 2.232 3.828 4.464 5.745 6.696.221.255.455.495.673.75.881 1.038.804 2.508-.176 3.425q-1.818 1.697-3.64 3.384c-1.083 1.003-2.425.921-3.405-.216-1.816-2.113-3.626-4.235-5.439-6.351-.625-.731-1.261-1.45-1.889-2.18-.126-.146-.192-.135-.286.034a2401 2401 0 0 1-3.354 5.809c-.27.462-.62.835-1.157.928-.72.125-1.348-.3-1.621-1.095a549 549 0 0 1-1.571-4.647q-.998-2.975-1.992-5.95c-.641-1.92-1.279-3.84-1.923-5.76l-1.997-5.949q-.862-2.573-1.715-5.153c-.331-.998-.677-1.99-.977-2.998-.227-.773.093-1.453.772-1.757a1.16 1.16 0 0 1 .955-.015q.82.354 1.622.75c2.991 1.488 5.981 2.985 8.973 4.472q5.162 2.567 10.327 5.124c2.342 1.158 4.686 2.307 7.033 3.456q.649.316.978.975c.271.546.039 1.349-.565 1.753-.429.284-.898.506-1.362.73-1.664.805-3.329 1.597-4.997 2.393-.04.02-.08.047-.158.09z" fill="#fff"/></g><defs><clipPath id="a"><path fill="#fff" d="M0 0h588v420H0z"/></clipPath></defs></svg>
