<svg width="588" height="420" viewBox="0 0 588 420" fill="none" xmlns="http://www.w3.org/2000/svg"><g clip-path="url(#a)"><mask id="b" style="mask-type:luminance" maskUnits="userSpaceOnUse" x="0" y="0" width="588" height="420"><path d="M572 0H16C7.163 0 0 7.163 0 16v388c0 8.837 7.163 16 16 16h556c8.837 0 16-7.163 16-16V16c0-8.837-7.163-16-16-16" fill="#fff"/></mask><g mask="url(#b)"><mask id="c" style="mask-type:luminance" maskUnits="userSpaceOnUse" x="-80" y="0" width="747" height="420"><path d="M667 0H-80v420h747z" fill="#fff"/></mask><g mask="url(#c)"><path d="M667.109.198h-747v420h747z" fill="#CACFDE"/><path d="M667 0H-80v420h747z" fill="#CDCDFF"/><mask id="d" style="mask-type:luminance" maskUnits="userSpaceOnUse" x="-80" y="0" width="748" height="421"><path d="M667.109.198h-747v420h747z" fill="#fff"/></mask><g mask="url(#d)" fill-rule="evenodd" clip-rule="evenodd" fill="#EDEDF2"><path d="m-98.503 435.902-.979-.132c-.991-.134-.991-.135-.991-.136l.001-.006.003-.018.009-.067.039-.253q.052-.332.169-.962c.157-.838.41-2.058.795-3.607.77-3.097 2.066-7.505 4.18-12.781 4.228-10.55 11.724-24.573 24.806-38.498 26.19-27.878 74.633-55.224 163.615-53.744 44.497.74 81.185 8.803 117.251 19.206 12.686 3.659 25.275 7.601 38.095 11.615 23.668 7.41 48.118 15.066 75.397 21.638 83.98 20.232 194.49 30.1 389.188-10.045l.404 1.958c-194.939 40.195-305.751 30.343-390.06 10.031-27.334-6.585-51.912-14.279-75.626-21.704-12.803-4.008-25.354-7.937-37.952-11.571-35.972-10.376-72.474-18.392-116.73-19.128-88.524-1.472-136.386 25.718-162.124 53.114-12.882 13.712-20.256 27.511-24.407 37.872-2.076 5.181-3.346 9.501-4.096 12.519a62 62 0 0 0-.77 3.494 36 36 0 0 0-.195 1.138l-.008.054-.002.012v.003zM529.244 68.743c-28.768-4.978-56.232-7.15-78.424-4.15-116.58 15.764-206.785 40.75-322.174 109.391-57.977 34.49-116.947 41.442-161.401 39.778-22.23-.833-40.838-3.819-53.894-6.599-6.528-1.389-11.67-2.728-15.183-3.72a147 147 0 0 1-4.018-1.192 68 68 0 0 1-1.037-.333l-.266-.088-.068-.023-.023-.007c-.001-.001-.002-.001.322-.947l.325-.946.004.001.015.005.062.021.253.084q.339.113 1.011.324c.895.281 2.226.685 3.964 1.176 3.474.982 8.573 2.309 15.055 3.689 12.966 2.761 31.459 5.729 53.552 6.556 44.19 1.654 102.749-5.258 160.304-39.498 115.667-68.806 206.14-93.862 322.929-109.654 22.489-3.04 50.188-.83 79.033 4.162 28.86 4.994 58.932 12.786 86.193 20.95 27.264 8.165 51.73 16.708 69.381 23.208a1079 1079 0 0 1 20.864 7.92 699 699 0 0 1 7.131 2.841l.375.153.126.051c.001.001.002.001-.379.926-.38.925-.381.924-.382.924l-.006-.002-.023-.01-.093-.038-.372-.152-1.464-.592a707 707 0 0 0-5.643-2.239 1074 1074 0 0 0-20.826-7.905c-17.623-6.491-42.049-15.019-69.263-23.169-27.216-8.15-57.206-15.92-85.96-20.896M217.73 35.944C180.664 54.818 130.233 78.8 76.788 99.218c-53.646 20.494-105.048 16.655-143.009 7.71-18.983-4.473-34.617-10.226-45.509-14.862-5.447-2.318-9.709-4.358-12.613-5.82a136 136 0 0 1-3.315-1.722q-.564-.306-.853-.466l-.219-.123-.056-.032-.019-.01c-.001 0-.001-.001.495-.87l.498-.867.002.002.012.007.051.028.208.117q.277.154.83.453c.735.397 1.831.975 3.266 1.697 2.869 1.445 7.093 3.466 12.496 5.766 10.809 4.6 26.334 10.313 45.185 14.755 37.708 8.886 88.677 12.677 141.836-7.631 53.357-20.384 103.72-44.333 140.748-63.189 18.513-9.427 33.689-17.58 44.237-23.374 5.273-2.898 9.389-5.206 12.186-6.789a592 592 0 0 0 3.186-1.814l.813-.468.205-.119.064-.037.003-.001.503.864c.503.864.502.865.501.865l-.003.002-.013.008-.26.15-.818.47c-.721.415-1.794 1.027-3.195 1.82a1104 1104 0 0 1-12.209 6.802c-10.563 5.803-25.758 13.966-44.292 23.404"/><path d="M646.607 247.934c-41.129 3.79-98.417 17.889-189.822 59.115-91.725 41.372-158.781 34.107-218.673 17.075-14.957-4.254-29.466-9.116-43.786-13.974l-3.693-1.254c-13.065-4.437-25.989-8.826-39.001-12.712-28.465-8.502-57.289-14.577-88.7-13.435-62.938 2.29-99.635 20.569-120.578 38.173-10.478 8.807-17.033 17.462-20.964 23.899-1.966 3.219-3.276 5.884-4.092 7.736a40 40 0 0 0-.874 2.136 22 22 0 0 0-.242.685l-.01.031-.001.006v.001l-.955-.298a46 46 0 0 1-.954-.3l.001-.004.004-.012.014-.044.053-.16q.071-.21.216-.602c.194-.523.493-1.282.918-2.245.849-1.927 2.2-4.672 4.215-7.972 4.032-6.602 10.724-15.428 21.384-24.388C-37.6 301.459-.457 283.054 62.86 280.751c31.718-1.154 60.778 4.985 89.345 13.517 13.049 3.897 26.007 8.298 39.066 12.733l3.698 1.255c14.32 4.858 28.786 9.705 43.69 13.944 59.55 16.935 126.104 24.161 217.304-16.974 91.525-41.28 149.036-55.467 190.461-59.283 20.714-1.909 37.383-1.222 52.237-.047 4.231.335 8.305.708 12.279 1.072 10.004.916 19.369 1.774 28.987 1.812l-.008 2c-9.711-.039-19.207-.908-29.247-1.828-3.956-.362-7.997-.732-12.168-1.062-14.787-1.17-31.334-1.85-51.897.044"/></g></g><path d="M202 106h-56c-8.837 0-16 7.163-16 16v56c0 8.837 7.163 16 16 16h56c8.837 0 16-7.163 16-16v-56c0-8.837-7.163-16-16-16" fill="#F5F5FE"/><path d="M189.317 134.683a21.6 21.6 0 0 0-15.316-6.35c-5.984 0-11.4 2.433-15.317 6.35a21.6 21.6 0 0 0-6.35 15.317 21.6 21.6 0 0 0 6.35 15.316 21.6 21.6 0 0 0 15.317 6.35 21.6 21.6 0 0 0 15.316-6.35 21.6 21.6 0 0 0 6.35-15.316c0-5.984-2.433-11.4-6.35-15.317" fill="url(#e)"/><path d="M166.451 148.7a6.237 6.237 0 0 1 8.833 0l2.217-2.2 18.366-18.366.75-.75c-.65-.65-1.85-.75-3.466-.134l-28.934 11.134c-1.633.616-3.3 1.883-4.666 3.416l4.7 4.7z" fill="url(#f)"/><path d="m164.25 159.75 2.216-2.217a6.24 6.24 0 0 1 0-8.833l-2.216-2.2-4.7-4.7c-1.334 1.483-2.384 3.216-2.817 4.85l-6.083 22.316c-.45 1.65-.184 2.984.616 3.784l.867-.867z" fill="url(#g)"/><path d="m177.5 159.75-2.217-2.217a6.23 6.23 0 0 1-4.416 1.834c-1.734 0-3.284-.7-4.417-1.834l-2.217 2.217-12.116 12.117-.867.866c.8.8 2.117 1.067 3.783.617l5.434-1.483 16.883-4.6c1.633-.45 3.367-1.5 4.85-2.817z" fill="url(#h)"/><path d="m196.633 127.366-.75.75L177.5 146.5l-2.217 2.216a6.236 6.236 0 0 1 0 8.834l2.217 2.216 4.7 4.7c1.533-1.366 2.8-3.033 3.417-4.65l10.25-26.666.883-2.3c.617-1.617.533-2.834-.117-3.484" fill="url(#i)"/><path d="M175.299 148.7a6.234 6.234 0 0 0-8.833 0 6.237 6.237 0 0 0 0 8.833 6.24 6.24 0 0 0 8.833 0 6.234 6.234 0 0 0 0-8.833" fill="#fff"/><path d="M173.082 150.917a3.12 3.12 0 0 0-2.216-.917c-.867 0-1.65.35-2.217.917a3.12 3.12 0 0 0-.917 2.216c0 .867.35 1.65.917 2.217s1.35.917 2.217.917a3.127 3.127 0 0 0 3.133-3.134c0-.866-.35-1.65-.917-2.216" fill="#0909B9"/><path d="M322 106h-56c-8.837 0-16 7.163-16 16v56c0 8.837 7.163 16 16 16h56c8.837 0 16-7.163 16-16v-56c0-8.837-7.163-16-16-16" fill="#F5F5FE"/><path d="m293.273 173.219-22.388-17.414a.548.548 0 0 1 .005-.869l3.366-2.55a.55.55 0 0 1 .667.003l18.351 14.231a.55.55 0 0 0 .672 0l18.351-14.231a.545.545 0 0 1 .666-.003l3.366 2.55c.287.217.29.647.006.869l-22.389 17.413a.55.55 0 0 1-.673.001m0-13.068-22.396-17.419a.55.55 0 0 1 0-.865l22.396-17.419a.55.55 0 0 1 .673 0l22.395 17.419a.548.548 0 0 1 0 .865l-22.395 17.419a.55.55 0 0 1-.673 0m.672-6.596 13.984-10.822a.548.548 0 0 0 0-.866l-13.984-10.822a.55.55 0 0 0-.671 0l-13.984 10.822a.548.548 0 0 0 0 .866l13.984 10.822a.55.55 0 0 0 .671 0" fill="#000091"/><path d="M442 106h-56c-8.837 0-16 7.163-16 16v56c0 8.837 7.163 16 16 16h56c8.837 0 16-7.163 16-16v-56c0-8.837-7.163-16-16-16" fill="#F5F5FE"/><path d="M413.734 125 392 137.5v25l21.734 12.5 21.612-12.5v-25z" fill="#E1000F"/><path d="M419.901 146.402h8.18v-4.756l-14.346-8.292-14.469 8.292v16.586l14.469 8.414 14.346-8.414v-4.696h-8.18z" fill="#fff"/><path d="M419.9 153.536v-7.134l-6.166-3.597-6.289 3.597v7.134l6.289 3.598z" fill="#000091"/><path d="M202 226h-56c-8.837 0-16 7.163-16 16v56c0 8.837 7.163 16 16 16h56c8.837 0 16-7.163 16-16v-56c0-8.837-7.163-16-16-16" fill="#F5F5FE"/><path d="M187.663 248.025h-.569V245h-3.417v3.025h-7.975V245h-3.417v3.025h-7.976V245h-3.417v3.025h-.568c-5.925 0-10.824 4.883-10.824 10.929v25.234c0 5.929 4.899 10.812 10.824 10.812h27.339c5.925 0 10.824-4.883 10.824-10.929v-25.117c0-6.046-4.899-10.929-10.824-10.929m-27.339 3.487h.568v2.675h3.417v-2.675h7.976v2.675h3.417v-2.675h7.975v2.675h3.417v-2.675h.569c4.102 0 7.407 3.371 7.407 7.442v3.721h-42.153v-3.721c0-4.071 3.305-7.442 7.407-7.442m27.339 40h-27.339c-4.102 0-7.407-3.254-7.407-7.441v-17.909h42.149v18.026c0 4.07-3.305 7.324-7.407 7.324z" fill="#000091"/><path d="M173.98 281.596c-2.541 0-4.825-1.554-5.842-3.758l-3.558 1.683c1.652 3.629 5.335 5.963 9.4 5.963 4.064 0 7.618-2.334 9.399-5.963l-3.429-1.683c-1.142 2.333-3.429 3.758-5.97 3.758" fill="#000091"/><path d="M322 226h-56c-8.837 0-16 7.163-16 16v56c0 8.837 7.163 16 16 16h56c8.837 0 16-7.163 16-16v-56c0-8.837-7.163-16-16-16" fill="#F5F5FE"/><mask id="j" style="mask-type:luminance" maskUnits="userSpaceOnUse" x="266" y="242" width="56" height="56"><path d="M322 242h-56v56h56z" fill="#fff"/></mask><g mask="url(#j)"><mask id="k" style="mask-type:luminance" maskUnits="userSpaceOnUse" x="266" y="258" width="56" height="23"><path d="M322 258.333h-56v22.175h56z" fill="#fff"/></mask><g mask="url(#k)"><path d="M272.535 268.507h-3.832l-.525 1.208h-2.057l3.874-9.447h1.267l3.859 9.447h-2.057zm-1.914-5.214-1.25 3.653h2.496zm7.563 6.423h-1.914v-6.957h1.914zm8.926-10.545v10.545h-1.76v-.859c-.484.662-1.291 1.026-2.256 1.026-1.986 0-3.405-1.546-3.405-3.64s1.419-3.641 3.405-3.641c.878 0 1.603.295 2.101.83v-4.261zm-1.888 7.072c0-1.32-.893-1.926-1.775-1.926-.994 0-1.816.732-1.816 1.911 0 1.182.807 1.926 1.816 1.926.882 0 1.775-.576 1.775-1.911m9.679-.662v4.135h-1.76v-.674c-.495.521-1.234.844-2.143.844-1.531 0-2.428-.9-2.428-2.082 0-1.264 1.036-2.023 2.654-2.023h1.76v-.309c0-.758-.439-1.223-1.306-1.223-.751 0-1.276.353-1.858.956l-.994-1.167c.822-.971 1.831-1.435 3.066-1.435 1.79 0 3.009.996 3.009 2.978m-1.917 1.535v-.085h-1.505c-.623 0-.979.238-.979.703 0 .479.412.758 1.006.758.813 0 1.478-.561 1.478-1.376m10.218-1.717v4.317h-1.903v-4.064c0-.803-.525-1.35-1.306-1.35-.78 0-1.332.547-1.332 1.35v4.064h-1.915v-6.958h1.76v.633c.484-.48 1.193-.788 2.057-.788 1.644 0 2.639 1.123 2.639 2.796m6.355 2.729v1.588a5.4 5.4 0 0 1-1.321.167c-1.73 0-2.811-.829-2.811-2.614v-2.911h-1.107v-1.602h1.107V261h1.915v1.758h1.986v1.603h-1.986v2.741c0 .799.424 1.082 1.306 1.082.231 0 .543-.03.911-.056m6.303-4.484-.965 1.167c-.454-.421-1.006-.662-1.576-.662-.454 0-.751.156-.751.491 0 .283.226.421.739.618l.68.282c1.261.506 1.974 1.041 1.974 2.123 0 1.435-1.205 2.22-2.74 2.22-1.249 0-2.284-.535-2.909-1.349l.965-1.153c.567.576 1.22.941 1.974.941.484 0 .894-.182.894-.576 0-.324-.296-.45-.724-.633l-.752-.308c-1.193-.48-1.914-1.027-1.914-2.123 0-1.335 1.092-2.094 2.582-2.094 1.018 0 1.885.353 2.523 1.056m-40.736 9.55-1.448 1.012c-.624-.985-1.505-1.562-2.684-1.562-1.745 0-3.021 1.265-3.021 3.064 0 1.785 1.276 3.038 3.021 3.038 1.179 0 2.057-.577 2.684-1.562l1.448 1.012c-.807 1.42-2.327 2.305-4.143 2.305-2.782.003-4.981-2.076-4.981-4.805 0-2.725 2.199-4.807 4.995-4.807 1.802 0 3.307.885 4.129 2.305m8.5 3.655c0 2.067-1.704 3.641-3.787 3.641s-3.749-1.574-3.749-3.641c0-2.052 1.659-3.625 3.761-3.625 2.071 0 3.775 1.573 3.775 3.625m-5.592.015c0 1.097.751 1.885 1.817 1.885 1.035 0 1.816-.803 1.816-1.885 0-1.097-.781-1.911-1.816-1.911-1.066 0-1.817.814-1.817 1.911m13.613-.844v4.317h-1.902v-4.064c0-.803-.526-1.35-1.306-1.35-.781 0-1.333.547-1.333 1.35v4.064h-1.915v-6.96h1.761v.632c.483-.48 1.193-.788 2.057-.788 1.644.003 2.638 1.126 2.638 2.799m8.09 0v4.317h-1.902v-4.064c0-.803-.526-1.35-1.306-1.35-.781 0-1.333.547-1.333 1.35v4.064h-1.915v-6.96h1.76v.632c.484-.48 1.194-.788 2.057-.788 1.648.003 2.639 1.126 2.639 2.799m8.302 1.476h-4.924c.226.885.95 1.379 1.974 1.379.766 0 1.392-.267 1.959-.702l.795 1.293c-.795.662-1.73 1.041-2.811 1.041-2.229 0-3.846-1.588-3.846-3.64s1.602-3.64 3.674-3.64c1.974 0 3.307 1.434 3.307 3.234 0 .388-.072.797-.128 1.035m-4.924-1.335h3.194c-.015-.885-.71-1.405-1.52-1.405-.807 0-1.46.535-1.674 1.405m12.957-1.223-1.333 1.026c-.398-.591-.908-1.011-1.689-1.011-1.092 0-1.843.814-1.843 1.896 0 1.097.751 1.912 1.843 1.912.766 0 1.276-.421 1.689-.997l1.333 1.011c-.582 1.041-1.659 1.729-3.052 1.729-2.101 0-3.76-1.588-3.76-3.655 0-2.052 1.659-3.625 3.76-3.625 1.404 0 2.47.673 3.052 1.714m5.93 3.811v1.588a5.4 5.4 0 0 1-1.32.167c-1.731 0-2.811-.829-2.811-2.614v-2.911h-1.107v-1.602h1.107v-1.759h1.914v1.759h1.986v1.602h-1.986v2.741c0 .8.425 1.082 1.306 1.082.232.003.543-.027.911-.053" fill="#000091"/><path d="M275.807 258.903c.383-.379.884-.57 1.389-.57h3.876c.502 0 1.003.188 1.386.568a1.93 1.93 0 0 1 0 2.746c-.386.382-.893.57-1.401.568h-3.849a1.98 1.98 0 0 1-1.401-.568 1.926 1.926 0 0 1 0-2.744" fill="url(#l)"/><path d="M281.072 262.215a1.95 1.95 0 0 0 1.959-1.941 1.95 1.95 0 0 0-1.959-1.941 1.95 1.95 0 0 0-1.959 1.941 1.95 1.95 0 0 0 1.959 1.941" fill="#EF4056"/></g></g><path d="M442 226h-56c-8.837 0-16 7.163-16 16v56c0 8.837 7.163 16 16 16h56c8.837 0 16-7.163 16-16v-56c0-8.837-7.163-16-16-16" fill="#F5F5FE"/><path fill-rule="evenodd" clip-rule="evenodd" d="m430.324 274.828.76-.915c.675-.774 1.155-1.522 1.44-2.258l5.78 7.011c1.049 1.336.999 1.583-.749 1.583h-.6c-1.748 0-2.398-.346-3.447-1.583zm0-9.538 3.184-3.839c1.049-1.237 1.699-1.583 3.447-1.583h.6c1.748 0 1.798.248.749 1.583l-5.78 7.012c-.285-.736-.765-1.484-1.44-2.258z" fill="url(#m)"/><path fill-rule="evenodd" clip-rule="evenodd" d="M421.497 280.249c-1.749 0-1.799-.247-.75-1.583l5.995-7.272c.45-.544.7-.989.7-1.335 0-.396-.25-.841-.7-1.336l-5.995-7.272c-1.049-1.335-.999-1.583.75-1.583h.599c1.749 0 2.398.346 3.447 1.583l4.596 5.541c1.949 2.226 1.949 3.908 0 6.134l-4.596 5.54c-1.049 1.237-1.698 1.583-3.447 1.583z" fill="url(#n)"/><path fill-rule="evenodd" clip-rule="evenodd" d="M389 286.592c0 1.477.373 1.846 1.864 1.846h.498c1.491 0 1.864-.369 1.864-1.846v-8.574c1.119 1.764 3.149 2.666 6.09 2.666 5.759 0 8.618-2.995 8.618-8.943v-3.57c0-5.949-3.066-8.738-9.488-8.738-5.966 0-9.446 2.871-9.446 8.738zm14.667-14.769c0 3.446-1.16 4.882-5.179 4.882-4.102 0-5.262-1.477-5.262-4.882v-3.529c0-3.446 1.243-4.923 5.262-4.923 4.101 0 5.179 1.477 5.179 4.923z" fill="url(#o)"/><path fill-rule="evenodd" clip-rule="evenodd" d="M411.918 278.354c0 1.477.373 1.847 1.865 1.847h.538c1.492 0 1.865-.37 1.865-1.847v-16.656c0-1.477-.373-1.847-1.865-1.847h-.538c-1.492 0-1.865.37-1.865 1.847zm.29-22.933c1.036.984 2.693.984 3.688 0 1.036-1.026 1.036-2.667 0-3.652-.995-1.025-2.652-1.025-3.688 0-1.035.985-1.035 2.626 0 3.652" fill="url(#p)"/></g></g><defs><linearGradient id="e" x1="164.183" y1="159.817" x2="188.913" y2="135.087" gradientUnits="userSpaceOnUse"><stop stop-color="#EFEFEF"/><stop offset="1" stop-color="#929292"/></linearGradient><linearGradient id="f" x1="178.091" y1="125.189" x2="178.091" y2="151.476" gradientUnits="userSpaceOnUse"><stop stop-color="#518FFF"/><stop offset="1" stop-color="#5F5FF1"/></linearGradient><linearGradient id="g" x1="158.44" y1="140.59" x2="158.44" y2="174.676" gradientUnits="userSpaceOnUse"><stop stop-color="#F95C5E"/><stop offset="1" stop-color="#E1000F"/></linearGradient><linearGradient id="h" x1="166.726" y1="155.632" x2="166.726" y2="175.107" gradientUnits="userSpaceOnUse"><stop stop-color="#E1000F"/><stop offset="1" stop-color="#881317"/></linearGradient><linearGradient id="i" x1="186.233" y1="124.879" x2="186.233" y2="164.322" gradientUnits="userSpaceOnUse"><stop stop-color="#5F5FF1"/><stop offset="1" stop-color="#000091"/></linearGradient><linearGradient id="l" x1="275.276" y1="260.275" x2="282.955" y2="260.275" gradientUnits="userSpaceOnUse"><stop stop-color="#F38192" stop-opacity="0"/><stop offset="1" stop-color="#F05B89"/></linearGradient><linearGradient id="m" x1="864.125" y1="259.868" x2="864.125" y2="2298" gradientUnits="userSpaceOnUse"><stop stop-color="#12A3FF"/><stop offset="1" stop-color="#3D68FF"/></linearGradient><linearGradient id="n" x1="-361.175" y1="259.868" x2="-361.175" y2="2298" gradientUnits="userSpaceOnUse"><stop stop-color="#FFBE00"/><stop offset="1" stop-color="#FF9F00"/></linearGradient><linearGradient id="o" x1="1335.7" y1="259.433" x2="1335.7" y2="2378.29" gradientUnits="userSpaceOnUse"><stop stop-color="#12A3FF"/><stop offset="1" stop-color="#3D68FF"/></linearGradient><linearGradient id="p" x1="673.483" y1="1079.19" x2="673.483" y2="3171.07" gradientUnits="userSpaceOnUse"><stop stop-color="#12A3FF"/><stop offset="1" stop-color="#3D68FF"/></linearGradient><clipPath id="a"><path fill="#fff" d="M0 0h588v420H0z"/></clipPath></defs></svg>
