<svg width="588" height="420" viewBox="0 0 588 420" fill="none" xmlns="http://www.w3.org/2000/svg"><g clip-path="url(#a)"><path d="M572 0H16C7.163 0 0 7.163 0 16v388c0 8.837 7.163 16 16 16h556c8.837 0 16-7.163 16-16V16c0-8.837-7.163-16-16-16" fill="#D1D1FF"/><path d="M470 56.5H93c-8.56 0-15.5 6.94-15.5 15.5v252c0 8.56 6.94 15.5 15.5 15.5h377c8.56 0 15.5-6.94 15.5-15.5V72c0-8.56-6.94-15.5-15.5-15.5" fill="#F5F5FE"/><path fill-rule="evenodd" clip-rule="evenodd" d="M93 57c-8.284 0-15 6.716-15 15v252c0 8.284 6.716 15 15 15h377c8.284 0 15-6.716 15-15V72c0-8.284-6.716-15-15-15zM77 72c0-8.837 7.163-16 16-16h377c8.837 0 16 7.163 16 16v252c0 8.837-7.163 16-16 16H93c-8.837 0-16-7.163-16-16z" fill="#DDD"/><path d="M482 68.5H105c-8.56 0-15.5 6.94-15.5 15.5v252c0 8.56 6.94 15.5 15.5 15.5h377c8.56 0 15.5-6.94 15.5-15.5V84c0-8.56-6.94-15.5-15.5-15.5" fill="#F5F5FE"/><path fill-rule="evenodd" clip-rule="evenodd" d="M105 69c-8.284 0-15 6.716-15 15v252c0 8.284 6.716 15 15 15h377c8.284 0 15-6.716 15-15V84c0-8.284-6.716-15-15-15zM89 84c0-8.837 7.163-16 16-16h377c8.837 0 16 7.163 16 16v252c0 8.837-7.163 16-16 16H105c-8.837 0-16-7.163-16-16z" fill="#DDD"/><path d="M494 80.5H117c-8.56 0-15.5 6.94-15.5 15.5v252c0 8.56 6.94 15.5 15.5 15.5h377c8.56 0 15.5-6.94 15.5-15.5V96c0-8.56-6.94-15.5-15.5-15.5" fill="#fff"/><path fill-rule="evenodd" clip-rule="evenodd" d="M117 81c-8.284 0-15 6.716-15 15v252c0 8.284 6.716 15 15 15h377c8.284 0 15-6.716 15-15V96c0-8.284-6.716-15-15-15zm-16 15c0-8.837 7.163-16 16-16h377c8.837 0 16 7.163 16 16v252c0 8.837-7.163 16-16 16H117c-8.837 0-16-7.163-16-16z" fill="#DDD"/><path d="M165 124c0-11.046-8.954-20-20-20s-20 8.954-20 20 8.954 20 20 20 20-8.954 20-20" fill="#E8EDFF"/><path fill-rule="evenodd" clip-rule="evenodd" d="m149.868 127.049.147.147.148-.147a1.873 1.873 0 1 1 2.652 2.652l-2.8 2.799-2.799-2.799a1.876 1.876 0 0 1 2.652-2.652m-4.867-1.383v1.667a5 5 0 0 0-5 5h-1.667a6.666 6.666 0 0 1 6.458-6.663zm0-10.833a5 5 0 0 1 5 5 5 5 0 0 1-4.813 4.997l-.187.003c-2.763 0-5-2.237-5-5a5 5 0 0 1 4.812-4.997zm0 1.667a3.332 3.332 0 1 0 0 6.666 3.33 3.33 0 0 0 3.333-3.333 3.33 3.33 0 0 0-3.333-3.333" fill="#6A6AF4"/><path d="M182.854 132v-12.6h3.708c2.628 0 4.23 1.296 4.23 3.42 0 1.026-.468 1.908-1.35 2.484 1.332.594 2.07 1.674 2.07 2.988 0 2.304-1.782 3.708-4.68 3.708zm3.762-10.476h-1.206v2.844h1.206c.972 0 1.548-.522 1.548-1.44 0-.882-.576-1.404-1.548-1.404m.36 4.968h-1.566v3.384h1.566c1.188 0 1.908-.63 1.908-1.692 0-1.08-.72-1.692-1.908-1.692m12.197-5.004h-2.196l1.872-2.988h2.484zm3.078 9.036c-.846 1.134-2.25 1.836-3.96 1.836-3.222 0-5.04-2.25-5.04-4.896 0-2.682 1.692-4.896 4.662-4.896 2.52 0 4.176 1.71 4.176 4.086 0 .504-.072.972-.144 1.278h-6.354c.216 1.692 1.26 2.376 2.682 2.376.99 0 1.854-.432 2.34-1.08zm-4.392-6.084c-1.17 0-1.944.648-2.196 1.836h4.176c-.036-.918-.702-1.836-1.98-1.836m6.464 7.56v-9.072h2.286v.72c.63-.612 1.476-1.08 2.682-1.08 1.962 0 3.528 1.35 3.528 4.032v5.4h-2.304v-5.31c0-1.206-.684-1.962-1.8-1.962-1.152 0-1.764.774-2.106 1.35V132zm16.366-10.512h-2.196l1.872-2.988h2.484zm3.078 9.036c-.846 1.134-2.25 1.836-3.96 1.836-3.222 0-5.04-2.25-5.04-4.896 0-2.682 1.692-4.896 4.662-4.896 2.52 0 4.176 1.71 4.176 4.086 0 .504-.072.972-.144 1.278h-6.354c.216 1.692 1.26 2.376 2.682 2.376.99 0 1.854-.432 2.34-1.08zm-4.392-6.084c-1.17 0-1.944.648-2.196 1.836h4.176c-.036-.918-.702-1.836-1.98-1.836m5.348-1.512h1.692v-.954c0-1.926 1.278-3.474 3.546-3.474.828 0 1.53.198 2.106.504l-.972 1.908c-.27-.198-.63-.36-1.098-.36-.774 0-1.278.54-1.278 1.368v1.008h2.772v2.052h-2.772V132h-2.304v-7.02h-1.692zm9.633-1.584c-.81 0-1.494-.684-1.494-1.494s.684-1.494 1.494-1.494 1.476.684 1.476 1.494-.666 1.494-1.476 1.494M233.204 132v-9.072h2.286V132zm9.383-1.8c.9 0 1.62-.414 2.052-1.044l1.782 1.368c-.846 1.116-2.178 1.836-3.834 1.836-3.132 0-5.004-2.25-5.004-4.896s1.872-4.896 5.004-4.896c1.656 0 2.988.72 3.834 1.836l-1.782 1.368c-.432-.63-1.152-1.044-2.088-1.044-1.494 0-2.592 1.152-2.592 2.736 0 1.602 1.098 2.736 2.628 2.736m6.693-8.856c-.81 0-1.494-.684-1.494-1.494s.684-1.494 1.494-1.494 1.476.684 1.476 1.494-.666 1.494-1.476 1.494M248.128 132v-9.072h2.286V132zm7.583.27c-1.818 0-3.06-1.044-3.06-2.718 0-1.368 1.062-2.394 3.006-2.718l2.771-.468v-.234c0-.954-.719-1.566-1.763-1.566-.882 0-1.566.414-2.052 1.08l-1.674-1.278c.81-1.116 2.142-1.8 3.798-1.8 2.628 0 3.978 1.566 3.978 3.564V132h-2.287v-.882c-.576.702-1.655 1.152-2.717 1.152m-.792-2.826c0 .612.485 1.008 1.259 1.008 1.044 0 1.8-.486 2.25-1.206v-1.278l-2.159.36c-.954.162-1.35.558-1.35 1.116m9.565-8.1c-.81 0-1.493-.684-1.493-1.494s.683-1.494 1.493-1.494 1.477.684 1.477 1.494-.667 1.494-1.477 1.494M263.333 132v-9.072h2.285V132zm5.026 0v-9.072h2.287v.9c.594-.612 1.368-1.08 2.394-1.08.306 0 .576.054.792.126v2.25a4 4 0 0 0-1.008-.126c-1.116 0-1.836.612-2.178 1.188V132zm15.279-1.476c-.846 1.134-2.25 1.836-3.96 1.836-3.222 0-5.04-2.25-5.04-4.896 0-2.682 1.691-4.896 4.661-4.896 2.52 0 4.177 1.71 4.177 4.086 0 .504-.072.972-.144 1.278h-6.354c.216 1.692 1.26 2.376 2.682 2.376.99 0 1.854-.432 2.34-1.08zm-4.392-6.084c-1.17 0-1.945.648-2.197 1.836h4.177c-.036-.918-.702-1.836-1.98-1.836m10.703 2.484h1.854l.684-2.448h-2.538v-1.854h3.042l.881-3.222h2.052l-.881 3.222h2.519l.883-3.222h2.052l-.882 3.222h1.313v1.854h-1.817l-.684 2.448h2.501v1.854h-3.005L297.04 132h-2.051l.882-3.222h-2.52l-.882 3.222h-2.052l.882-3.222h-1.35zm3.906 0h2.52l.684-2.448h-2.52zm11.706 5.058v-10.098l-2.61 1.476-1.206-1.728 3.888-2.25h2.358v12.6z" fill="#000091"/><path d="M125 160a8 8 0 0 1 8-8h345a8 8 0 0 1 8 8v44a8 8 0 0 1-8 8H133a8 8 0 0 1-8-8z" fill="#fff"/><path d="M157 162h-24a8 8 0 0 0-8 8v24a8 8 0 0 0 8 8h24a8 8 0 0 0 8-8v-24a8 8 0 0 0-8-8" fill="#F5F5FE"/><path fill-rule="evenodd" clip-rule="evenodd" d="M136.324 172.07a2.286 2.286 0 1 0 1.796 3.701.456.456 0 1 1 .716.566 3.199 3.199 0 1 1 .687-1.981.456.456 0 1 1-.912 0 2.286 2.286 0 0 0-2.287-2.286m17.348 0a2.286 2.286 0 0 0-2.287 2.286.456.456 0 1 1-.912 0 3.199 3.199 0 1 1 6.398 0 3.199 3.199 0 0 1-5.728 1.959.456.456 0 0 1 .722-.559 2.286 2.286 0 1 0 1.807-3.686" fill="#E1000F"/><path fill-rule="evenodd" clip-rule="evenodd" d="M139.98 181.668c0-.252.205-.456.457-.456h9.128a.456.456 0 1 1 0 .913h-9.128a.46.46 0 0 1-.457-.457m5.021 1.35c.252 0 .457.204.457.456v10.068a.457.457 0 0 1-.913 0v-10.068c0-.252.204-.456.456-.456m-12.774-1.811a2.73 2.73 0 0 1 2.733-2.733 2.73 2.73 0 0 1 2.734 2.733v2.73h2.314a2.25 2.25 0 0 1 2.25 2.25v.008l.004.065.003.409.002.421v4.642a2.25 2.25 0 0 1-2.25 2.25h-.064a2.25 2.25 0 0 1-2.25-2.25v-3.223h-3.226a2.25 2.25 0 0 1-2.25-2.249zm9.123 5.119-.005-.066v-.073c0-.739-.599-1.338-1.337-1.338h-2.77a.457.457 0 0 1-.457-.456v-3.186a1.82 1.82 0 0 0-1.821-1.821 1.82 1.82 0 0 0-1.821 1.821v5.053c0 .738.599 1.337 1.338 1.337h3.683c.252 0 .456.204.456.456v3.679c0 .738.599 1.337 1.337 1.337h.064c.738 0 1.337-.599 1.337-1.337v-4.642l-.002-.414v-.007zm13.695-6.944a1.82 1.82 0 0 0-1.821 1.82v3.191a.456.456 0 0 1-.456.456h-2.771c-.738 0-1.337.599-1.337 1.337v.073a.4.4 0 0 1-.005.066l-.002.339v.007l-.002.414v4.642c0 .738.599 1.337 1.337 1.337h.064c.738 0 1.337-.599 1.337-1.337v-3.679c0-.252.205-.456.457-.456h3.683c.738 0 1.337-.599 1.337-1.337v-5.053c0-1.007-.813-1.82-1.821-1.82m-7.298 6.808v-.004a2.25 2.25 0 0 1 2.25-2.25h2.314v-2.734a2.73 2.73 0 0 1 2.734-2.733 2.73 2.73 0 0 1 2.734 2.733v5.053a2.25 2.25 0 0 1-2.25 2.25h-3.227v3.222a2.25 2.25 0 0 1-2.25 2.25h-.064a2.25 2.25 0 0 1-2.25-2.25v-4.642l.003-.42.002-.41q0-.033.004-.065" fill="#000091"/><path d="m181.211 178 3.71-9.8h2.604l3.71 9.8h-2.114l-.938-2.548h-3.92l-.938 2.548zm3.668-4.242h2.688l-1.344-3.682zm12.159 2.66c1.12 0 2.002-.546 2.562-1.344l1.568 1.204c-.896 1.218-2.352 2.002-4.13 2.002-3.094 0-5.208-2.38-5.208-5.18s2.114-5.18 5.208-5.18c1.778 0 3.234.798 4.13 1.988l-1.568 1.218c-.56-.798-1.442-1.344-2.562-1.344-1.848 0-3.164 1.442-3.164 3.318s1.316 3.318 3.164 3.318m10.294 0c1.12 0 2.002-.546 2.562-1.344l1.568 1.204c-.896 1.218-2.352 2.002-4.13 2.002-3.094 0-5.208-2.38-5.208-5.18s2.114-5.18 5.208-5.18c1.778 0 3.234.798 4.13 1.988l-1.568 1.218c-.56-.798-1.442-1.344-2.562-1.344-1.848 0-3.164 1.442-3.164 3.318s1.316 3.318 3.164 3.318m10.295-8.498c3.08 0 5.194 2.38 5.194 5.18s-2.114 5.18-5.194 5.18c-3.094 0-5.208-2.38-5.208-5.18s2.114-5.18 5.208-5.18m0 8.498c1.834 0 3.15-1.442 3.15-3.318s-1.316-3.318-3.15-3.318c-1.848 0-3.164 1.442-3.164 3.318s1.316 3.318 3.164 3.318m7.24 1.582v-9.8h2.478l2.394 4.116 2.394-4.116h2.478v9.8h-1.988v-7.028l-2.184 3.668h-1.4l-2.184-3.668V178zm12.619 0v-9.8h3.234c2.156 0 3.472 1.106 3.472 2.926 0 1.806-1.316 2.912-3.472 2.912h-1.246V178zm3.318-8.148h-1.33v2.534h1.33c.84 0 1.344-.49 1.344-1.288 0-.742-.504-1.246-1.344-1.246M243.91 178l3.71-9.8h2.604l3.71 9.8h-2.114l-.938-2.548h-3.92l-.938 2.548zm3.668-4.242h2.688l-1.344-3.682zm12.299 2.66c.924 0 1.722-.322 2.282-.854v-1.708h-2.492v-1.694h4.48v4.116c-.91 1.218-2.436 2.002-4.27 2.002-3.178 0-5.348-2.38-5.348-5.18s2.114-5.18 5.208-5.18c1.778 0 3.234.798 4.13 1.988l-1.568 1.218c-.56-.798-1.442-1.344-2.562-1.344-1.848 0-3.164 1.442-3.164 3.318s1.386 3.318 3.304 3.318m6.621 1.582v-9.8h2.548l4.382 7.084V168.2h1.988v9.8h-2.548l-4.382-7.084V178zm11.799 0v-9.8h5.712v1.652h-3.724v2.324h3.164v1.652h-3.164v2.52h3.724V178zm8.162 0v-9.8h2.478l2.394 4.116 2.394-4.116h2.478v9.8h-1.988v-7.028l-2.184 3.668h-1.4l-2.184-3.668V178zm12.619 0v-9.8h5.712v1.652h-3.724v2.324h3.164v1.652h-3.164v2.52h3.724V178zm8.162 0v-9.8h2.548l4.382 7.084V168.2h1.988v9.8h-2.548l-4.382-7.084V178zm10.791-7.994V168.2h8.036v1.806h-3.024V178h-1.988v-7.994zM331.726 178v-9.8h1.988v9.8zm4.867 0v-9.8h2.548l4.382 7.084V168.2h1.988v9.8h-2.548l-4.382-7.084V178zm11.799 0v-9.8h3.85c3.108 0 5.208 2.254 5.208 4.9s-2.1 4.9-5.208 4.9zm3.878-7.994h-1.89v6.188h1.89c1.82 0 3.136-1.358 3.136-3.094 0-1.75-1.316-3.094-3.136-3.094m7.237 7.994v-9.8h1.988v9.8zm3.636-9.8h2.114l2.898 7.658 2.898-7.658h2.114l-3.71 9.8h-2.604zm11.677 9.8v-9.8h1.988v9.8zm4.867 0v-9.8h3.85c3.108 0 5.208 2.254 5.208 4.9s-2.1 4.9-5.208 4.9zm3.878-7.994h-1.89v6.188h1.89c1.82 0 3.136-1.358 3.136-3.094 0-1.75-1.316-3.094-3.136-3.094m13.017 4.326V168.2h1.988v5.964c0 2.576-1.512 4.116-3.976 4.116-2.45 0-3.962-1.54-3.962-4.116V168.2h1.988v6.132c0 1.316.742 2.086 1.988 2.086 1.218 0 1.974-.77 1.974-2.086m4.597 3.668v-9.8h5.712v1.652h-3.724v2.324h3.164v1.652h-3.164v2.52h3.724V178zm8.162 0v-9.8h1.988v7.994h3.724V178z" fill="#666"/><path d="M323 188H189a8 8 0 0 0 0 16h134a8 8 0 0 0 0-16" fill="#F6F6F6"/><path d="M340.904 199.48c-.588 0-1.05-.462-1.05-1.036a1.043 1.043 0 0 1 2.086 0c0 .574-.462 1.036-1.036 1.036" fill="#666"/><path fill-rule="evenodd" clip-rule="evenodd" d="m358.999 200.173-4.702 2.632 1.05-5.285-3.956-3.659 5.351-.635 2.257-4.893 2.258 4.893 5.351.635-3.957 3.659 1.05 5.285zm20 0-4.702 2.632 1.05-5.285-3.956-3.659 5.351-.635 2.257-4.893 2.258 4.893 5.351.635-3.957 3.659 1.05 5.285zm20 0-4.702 2.632 1.05-5.285-3.956-3.659 5.351-.635 2.257-4.893 2.258 4.893 5.351.635-3.957 3.659 1.05 5.285z" fill="#000091"/><path d="M125 224a8 8 0 0 1 8-8h345a8 8 0 0 1 8 8v44a8 8 0 0 1-8 8H133a8 8 0 0 1-8-8z" fill="#fff"/><path d="M157 226h-24a8 8 0 0 0-8 8v24a8 8 0 0 0 8 8h24a8 8 0 0 0 8-8v-24a8 8 0 0 0-8-8" fill="#F5F5FE"/><mask id="b" style="mask-type:luminance" maskUnits="userSpaceOnUse" x="129" y="230" width="32" height="32"><path d="M161 230h-32v32h32z" fill="#fff"/></mask><g mask="url(#b)" fill-rule="evenodd" clip-rule="evenodd"><path d="m142.316 239.456-.222-.343a.409.409 0 0 0 .444.687m0 0 .003-.002.008-.005.034-.022.132-.083c.115-.071.28-.172.481-.29.401-.236.939-.537 1.492-.8.559-.267 1.107-.483 1.537-.567.216-.042.369-.043.465-.023.08.017.092.04.097.051l.001.001c.058.113.061.237-.087.44-.162.22-.464.468-.897.733-.86.527-2.073 1.031-3.202 1.497a.41.41 0 0 0-.241.477c.077.309.236 1.349.375 2.343.068.49.13.958.172 1.303l.02.16c-.107.022-.22.053-.329.097-.15.062-.32.159-.451.319a.88.88 0 0 0-.195.636c.016.214.133 1.153.265 2.214.076.617.158 1.275.228 1.855a.408.408 0 1 0 .811-.098c-.073-.611-.158-1.295-.236-1.925a95 95 0 0 1-.252-2.108c-.003-.037.005-.048.011-.055v-.001a.3.3 0 0 1 .129-.08c.157-.064.361-.082.462-.082a.41.41 0 0 0 .364-.223c.027-.053.036-.1.039-.113a.5.5 0 0 0 .006-.138l-.011-.132-.049-.425a95 95 0 0 0-.174-1.317 58 58 0 0 0-.32-2.08c1.032-.428 2.164-.912 3.005-1.427.46-.282.872-.596 1.129-.947.27-.369.395-.825.156-1.294a.92.92 0 0 0-.658-.481c-.249-.053-.525-.031-.79.021-.533.104-1.157.356-1.732.631a21 21 0 0 0-2.052 1.134l-.139.087-.038.024-.009.006-.004.002.222.343m-5.165 3.906c.249-.338.557-.812.873-1.297zm.873-1.297c.215-.332.434-.668.639-.969zm.639-.969a10 10 0 0 1 .712-.952zm.712-.952q.157-.176.252-.246zm.252-.246.045-.031zm.045-.031a.409.409 0 0 0-.042-.815c-.208 0-.383.108-.496.193a2.7 2.7 0 0 0-.371.357c-.243.275-.51.644-.775 1.033-.231.339-.458.689-.676 1.023-.299.462-.579.892-.819 1.219-.182.246-.349.545-.389.859a1 1 0 0 0 .065.509 1 1 0 0 0 .35.425.408.408 0 1 0 .475-.665c-.05-.036-.065-.063-.071-.077-.007-.016-.013-.042-.007-.09.013-.11.085-.273.235-.476m2.181-2.004a.41.41 0 0 1 .313.486l-.689 3.188c.171.051.325.127.456.219.22.155.483.443.44.813v.003c-.02.166-.277 2.367-.457 4.065a.409.409 0 1 1-.813-.086c.171-1.618.412-3.69.454-4.038a.4.4 0 0 0-.095-.088.85.85 0 0 0-.476-.143.408.408 0 0 1-.399-.496l.78-3.609a.41.41 0 0 1 .486-.314" fill="#000091"/><path d="M140.97 235.983a1.328 1.328 0 1 0 0 2.656 1.328 1.328 0 0 0 0-2.656m-2.146 1.328a2.146 2.146 0 1 1 4.293 0 2.146 2.146 0 0 1-4.293 0" fill="#E1000F"/><path d="M152.356 254.975c0-.226.183-.409.409-.409 1.726 0 2.676.544 3.181 1.176.246.308.371.617.433.852a2 2 0 0 1 .065.409v.015l-.408.001.408-.001a.41.41 0 0 1-.408.41h-6.541a.4.4 0 0 1-.289-.12.4.4 0 0 1-.12-.289h.409-.409V257l.002-.035q.003-.042.011-.111c.012-.09.035-.214.08-.358.09-.287.27-.658.626-.998a.408.408 0 1 1 .565.59 1.6 1.6 0 0 0-.363.522h5.515a1.5 1.5 0 0 0-.214-.357c-.313-.391-.998-.869-2.543-.869a.41.41 0 0 1-.409-.409m-7.756 0c0-.226.183-.409.409-.409 1.726 0 2.676.544 3.181 1.176.247.308.371.617.434.852a2 2 0 0 1 .064.409v.015l-.408.001.408-.001a.41.41 0 0 1-.408.41h-6.541a.41.41 0 0 1-.409-.409h.409-.409V257l.002-.035q.002-.042.011-.111c.012-.09.035-.214.08-.358.091-.287.271-.658.626-.998a.408.408 0 1 1 .566.59 1.6 1.6 0 0 0-.364.522h5.515a1.5 1.5 0 0 0-.214-.357c-.313-.391-.998-.869-2.543-.869a.41.41 0 0 1-.409-.409m-7.791 0c0-.226.183-.409.409-.409 1.726 0 2.676.544 3.181 1.176.247.308.371.617.434.852a2 2 0 0 1 .064.409v.015l-.408.001.408-.001a.41.41 0 0 1-.408.41h-6.541a.41.41 0 0 1-.409-.409h.409-.409V257l.002-.035q.002-.042.011-.111c.012-.09.035-.214.08-.358.091-.287.271-.658.626-.998a.408.408 0 1 1 .566.59 1.6 1.6 0 0 0-.364.522h5.515a1.5 1.5 0 0 0-.214-.357c-.313-.391-.998-.869-2.543-.869a.41.41 0 0 1-.409-.409m7.783-13.077c.226 0 .409.183.409.409v.421h6.537a.409.409 0 1 1 0 .818h-6.946a.41.41 0 0 1-.408-.409v-.83c0-.226.183-.409.408-.409m-.408-6.933c0-.225.183-.408.408-.408h11.443c.225 0 .408.183.408.408v8.172a.41.41 0 0 1-.408.409h-1.227a.41.41 0 0 1 0-.817h.818v-7.355h-10.625v.814a.409.409 0 1 1-.817 0z" fill="#000091"/><path d="M136.81 251.516c0-.226.183-.409.408-.409a2.145 2.145 0 1 1 0 4.293 2.145 2.145 0 0 1-2.146-2.146.409.409 0 1 1 .818 0 1.327 1.327 0 1 0 1.328-1.329.41.41 0 0 1-.408-.409m8.199.409a1.329 1.329 0 1 0 .002 2.658 1.329 1.329 0 0 0-.002-2.658m-2.146 1.329a2.146 2.146 0 1 1 4.293-.001 2.146 2.146 0 0 1-4.293.001m9.902-1.329c-.735 0-1.328.594-1.328 1.329a1.327 1.327 0 1 0 2.657 0 .409.409 0 1 1 .818 0c0 1.186-.96 2.146-2.147 2.146a2.145 2.145 0 0 1-2.146-2.146c0-1.187.96-2.147 2.146-2.147a.409.409 0 1 1 0 .818" fill="#E1000F"/></g><path d="m181.211 242 3.71-9.8h2.604l3.71 9.8h-2.114l-.938-2.548h-3.92l-.938 2.548zm3.668-4.242h2.688l-1.344-3.682zm6.017-3.752V232.2h8.036v1.806h-3.024V242h-1.988v-7.994zm9.922 7.994v-9.8h5.712v1.652h-3.724v2.324h3.164v1.652h-3.164v2.52h3.724V242zm8.162 0v-9.8h1.988v7.994h3.724V242zm7.602 0v-9.8h1.988v9.8zm4.867 0v-9.8h5.712v1.652h-3.724v2.324h3.164v1.652h-3.164v2.52h3.724V242zm8.162 0v-9.8h2.996c2.156 0 3.486 1.106 3.486 2.926 0 1.19-.574 2.072-1.582 2.534l3.066 4.34h-2.338l-2.618-3.962h-1.022V242zm3.108-8.148h-1.12v2.534h1.12c.84 0 1.33-.49 1.33-1.288 0-.742-.49-1.246-1.33-1.246m14.399 6.566c1.12 0 2.002-.546 2.562-1.344l1.568 1.204c-.896 1.218-2.352 2.002-4.13 2.002-3.094 0-5.208-2.38-5.208-5.18s2.114-5.18 5.208-5.18c1.778 0 3.234.798 4.13 1.988l-1.568 1.218c-.56-.798-1.442-1.344-2.562-1.344-1.848 0-3.164 1.442-3.164 3.318s1.316 3.318 3.164 3.318m10.295-8.498c3.08 0 5.194 2.38 5.194 5.18s-2.114 5.18-5.194 5.18c-3.094 0-5.208-2.38-5.208-5.18s2.114-5.18 5.208-5.18m0 8.498c1.834 0 3.15-1.442 3.15-3.318s-1.316-3.318-3.15-3.318c-1.848 0-3.164 1.442-3.164 3.318s1.316 3.318 3.164 3.318m7.239 1.582v-9.8h1.988v7.994h3.724V242zm7.602 0v-9.8h1.988v7.994h3.724V242zm7.601 0v-9.8h5.712v1.652h-3.724v2.324h3.164v1.652h-3.164v2.52h3.724V242zm12.311-1.582c1.12 0 2.002-.546 2.562-1.344l1.568 1.204c-.896 1.218-2.352 2.002-4.13 2.002-3.094 0-5.208-2.38-5.208-5.18s2.114-5.18 5.208-5.18c1.778 0 3.234.798 4.13 1.988l-1.568 1.218c-.56-.798-1.442-1.344-2.562-1.344-1.848 0-3.164 1.442-3.164 3.318s1.316 3.318 3.164 3.318m4.988-6.412V232.2h8.036v1.806h-3.024V242h-1.988v-7.994zm9.922 7.994v-9.8h1.988v9.8zm4.867 0v-9.8h5.712v1.652h-3.724v2.324h3.164v1.652h-3.164V242z" fill="#666"/><path d="M323 252H189a8 8 0 0 0 0 16h134a8 8 0 0 0 0-16" fill="#F6F6F6"/><path d="M340.904 263.48c-.588 0-1.05-.462-1.05-1.036a1.043 1.043 0 0 1 2.086 0c0 .574-.462 1.036-1.036 1.036" fill="#666"/><path fill-rule="evenodd" clip-rule="evenodd" d="m358.999 264.173-4.702 2.632 1.05-5.285-3.956-3.659 5.351-.635 2.257-4.893 2.258 4.893 5.351.635-3.957 3.659 1.05 5.285zm20 0-4.702 2.632 1.05-5.285-3.956-3.659 5.351-.635 2.257-4.893 2.258 4.893 5.351.635-3.957 3.659 1.05 5.285zm20-11.84 2.258 4.893 5.351.635-3.957 3.659 1.05 5.285-4.702-2.632-4.702 2.632 1.05-5.285-3.956-3.659 5.351-.635zm0 3.183-1.358 2.947-3.222.381 2.382 2.204-.633 3.182 2.831-1.585 2.832 1.585-.633-3.182 2.382-2.204-3.222-.382z" fill="#000091"/><path d="M125 288a8 8 0 0 1 8-8h345a8 8 0 0 1 8 8v44a8 8 0 0 1-8 8H133a8 8 0 0 1-8-8z" fill="#fff"/><path d="M157 290h-24a8 8 0 0 0-8 8v24a8 8 0 0 0 8 8h24a8 8 0 0 0 8-8v-24a8 8 0 0 0-8-8" fill="#F5F5FE"/><mask id="c" style="mask-type:luminance" maskUnits="userSpaceOnUse" x="129" y="294" width="32" height="32"><path d="M161 294h-32v32h32z" fill="#fff"/></mask><g mask="url(#c)" fill-rule="evenodd" clip-rule="evenodd"><path d="M133.619 299.771c0-.197.16-.357.357-.357h13.062c.197 0 .357.16.357.357v18.804c0 .198-.16.357-.357.357h-13.062a.357.357 0 0 1-.357-.357zm.714.357v18.09h12.347v-18.09z" fill="#000091"/><path d="M149.495 315.757c.198 0 .357.16.357.357v4.906a.357.357 0 0 1-.357.357h-4.898a.357.357 0 0 1 0-.714h4.541v-4.549c0-.197.16-.357.357-.357" fill="#000091"/><path d="M136.072 302.249c0-.198.16-.357.357-.357h8.164a.357.357 0 1 1 0 .714h-8.164a.357.357 0 0 1-.357-.357m0 1.632c0-.197.16-.357.357-.357h6.939a.357.357 0 0 1 0 .715h-6.939a.357.357 0 0 1-.357-.358m0 1.629c0-.197.16-.357.357-.357h5.821a.357.357 0 0 1 0 .714h-5.821a.357.357 0 0 1-.357-.357" fill="#E1000F"/><path d="M136.068 308.775c0-.197.16-.357.358-.357h8.061a.357.357 0 0 1 0 .714h-8.061a.357.357 0 0 1-.358-.357m13.881 1.637c0-.197.16-.357.357-.357h2.466a.357.357 0 0 1 0 .714h-2.466a.357.357 0 0 1-.357-.357m-13.881 1.637c0-.198.16-.358.358-.358h7.171a.357.357 0 0 1 0 .715h-7.171a.357.357 0 0 1-.358-.357m0 3.257c0-.197.16-.357.358-.357h5.379a.357.357 0 0 1 0 .715h-5.379a.36.36 0 0 1-.358-.358" fill="#000091"/><path d="M148.316 304.702c0-.197.16-.357.358-.357h7.342c.198 0 .358.16.358.357v8.159c0 .197-.16.357-.358.357h-7.342a.357.357 0 0 1-.358-.357zm.715.357v7.445h6.628v-7.445z" fill="#000091"/><path d="M154.172 303.733a.46.46 0 0 0-.581-.293l-4.805 1.6a.356.356 0 1 1-.225-.677l4.804-1.6a1.173 1.173 0 0 1 1.484.744l.363 1.085a.356.356 0 1 1-.677.227z" fill="#000091"/><path d="M149.949 307.147c0-.197.16-.357.357-.357h3.253a.357.357 0 1 1 0 .714h-3.253a.357.357 0 0 1-.357-.357" fill="#E1000F"/><path d="M154.388 310.357a.05.05 0 0 0-.051.051c0 .028.023.051.051.051a.05.05 0 0 0 .051-.051.05.05 0 0 0-.051-.051m-.765.051a.765.765 0 1 1 1.53 0 .765.765 0 0 1-1.53 0" fill="#000091"/></g><path d="m181.211 306 3.71-9.8h2.604l3.71 9.8h-2.114l-.938-2.548h-3.92l-.938 2.548zm3.668-4.242h2.688l-1.344-3.682zm8.009 4.242v-9.8h1.988v9.8zm4.868 0v-9.8h3.85c3.108 0 5.208 2.254 5.208 4.9s-2.1 4.9-5.208 4.9zm3.878-7.994h-1.89v6.188h1.89c1.82 0 3.136-1.358 3.136-3.094 0-1.75-1.316-3.094-3.136-3.094m7.237 7.994v-9.8h5.712v1.652h-3.724v2.324h3.164v1.652h-3.164v2.52h3.724V306zm10.703 0 3.71-9.8h2.604l3.71 9.8h-2.114l-.938-2.548h-3.92l-.938 2.548zm3.668-4.242h2.688l-1.344-3.682zm13.406.574V296.2h1.988v5.964c0 2.576-1.512 4.116-3.976 4.116-2.45 0-3.962-1.54-3.962-4.116V296.2h1.988v6.132c0 1.316.742 2.086 1.988 2.086 1.218 0 1.974-.77 1.974-2.086m5.679 3.668h-2.366l3.5-5.068-3.262-4.732h2.352l2.296 3.304 2.296-3.304h2.38l-3.29 4.732 3.514 5.068h-2.366l-2.534-3.64zm12.932 0v-9.8h3.85c3.108 0 5.208 2.254 5.208 4.9s-2.1 4.9-5.208 4.9zm3.878-7.994h-1.89v6.188h1.89c1.82 0 3.136-1.358 3.136-3.094 0-1.75-1.316-3.094-3.136-3.094m10.976-2.646h-1.806l1.582-1.89h2.044zM266.375 306v-9.8h5.712v1.652h-3.724v2.324h3.164v1.652h-3.164v2.52h3.724V306zm8.162 0v-9.8h2.478l2.394 4.116 2.394-4.116h2.478v9.8h-1.988v-7.028l-2.184 3.668h-1.4l-2.184-3.668V306zm11.387 0 3.71-9.8h2.604l3.71 9.8h-2.114l-.938-2.548h-3.92l-.938 2.548zm3.668-4.242h2.688l-1.344-3.682zm8.009 4.242v-9.8h2.996c2.156 0 3.486 1.106 3.486 2.926 0 1.19-.574 2.072-1.582 2.534l3.066 4.34h-2.338l-2.618-3.962h-1.022V306zm3.108-8.148h-1.12v2.534h1.12c.84 0 1.33-.49 1.33-1.288 0-.742-.49-1.246-1.33-1.246m10.475 6.566c1.12 0 2.002-.546 2.562-1.344l1.568 1.204c-.896 1.218-2.352 2.002-4.13 2.002-3.094 0-5.208-2.38-5.208-5.18s2.114-5.18 5.208-5.18c1.778 0 3.234.798 4.13 1.988l-1.568 1.218c-.56-.798-1.442-1.344-2.562-1.344-1.848 0-3.164 1.442-3.164 3.318s1.316 3.318 3.164 3.318m5.995 1.582v-9.8h1.988v3.906h4.942V296.2h1.988v9.8h-1.988v-4.088h-4.942V306zm11.799 0v-9.8h5.712v1.652h-3.724v2.324h3.164v1.652h-3.164v2.52h3.724V306zm7.28-1.358 1.442-1.33c.588.756 1.372 1.204 2.17 1.204.784 0 1.26-.42 1.26-1.12 0-1.806-4.452-1.316-4.452-4.634 0-1.554 1.288-2.842 3.164-2.842 1.47 0 2.59.658 3.43 1.652l-1.456 1.316c-.574-.742-1.218-1.232-1.96-1.232-.7 0-1.162.448-1.162 1.036 0 1.778 4.452 1.274 4.452 4.634-.028 1.848-1.456 2.954-3.262 2.954-1.652 0-2.758-.602-3.626-1.638M347.912 306l3.71-9.8h2.604l3.71 9.8h-2.114l-.938-2.548h-3.92l-.938 2.548zm3.668-4.242h2.688l-1.344-3.682zm8.009 4.242v-9.8h3.85c3.108 0 5.208 2.254 5.208 4.9s-2.1 4.9-5.208 4.9zm3.878-7.994h-1.89v6.188h1.89c1.82 0 3.136-1.358 3.136-3.094 0-1.75-1.316-3.094-3.136-3.094m7.238 7.994v-9.8h2.478l2.394 4.116 2.394-4.116h2.478v9.8h-1.988v-7.028l-2.184 3.668h-1.4l-2.184-3.668V306zm12.619 0v-9.8h1.988v9.8zm4.867 0v-9.8h2.548l4.382 7.084V296.2h1.988v9.8h-2.548l-4.382-7.084V306zm11.799 0v-9.8h1.988v9.8zm3.985-1.358 1.442-1.33c.588.756 1.372 1.204 2.17 1.204.784 0 1.26-.42 1.26-1.12 0-1.806-4.452-1.316-4.452-4.634 0-1.554 1.288-2.842 3.164-2.842 1.47 0 2.59.658 3.43 1.652l-1.456 1.316c-.574-.742-1.218-1.232-1.96-1.232-.7 0-1.162.448-1.162 1.036 0 1.778 4.452 1.274 4.452 4.634-.028 1.848-1.456 2.954-3.262 2.954-1.652 0-2.758-.602-3.626-1.638m8.036-6.636V296.2h8.036v1.806h-3.024V306h-1.988v-7.994zm9.922 7.994v-9.8h2.996c2.156 0 3.486 1.106 3.486 2.926 0 1.19-.574 2.072-1.582 2.534l3.066 4.34h-2.338l-2.618-3.962h-1.022V306zm3.108-8.148h-1.12v2.534h1.12c.84 0 1.33-.49 1.33-1.288 0-.742-.49-1.246-1.33-1.246M430.49 306l3.71-9.8h2.604l3.71 9.8H438.4l-.938-2.548h-3.92l-.938 2.548zm3.668-4.242h2.688l-1.344-3.682zm6.017-3.752V296.2h8.036v1.806h-3.024V306h-1.988v-7.994zm9.922 7.994v-9.8h1.988v9.8zm3.635-9.8h2.114l2.898 7.658 2.898-7.658h2.114l-3.71 9.8h-2.604zm11.678 9.8v-9.8h5.712v1.652h-3.724v2.324h3.164v1.652h-3.164v2.52h3.724V306zm7.28-1.358 1.442-1.33c.588.756 1.372 1.204 2.17 1.204.784 0 1.26-.42 1.26-1.12 0-1.806-4.452-1.316-4.452-4.634 0-1.554 1.288-2.842 3.164-2.842 1.47 0 2.59.658 3.43 1.652l-1.456 1.316c-.574-.742-1.218-1.232-1.96-1.232-.7 0-1.162.448-1.162 1.036 0 1.778 4.452 1.274 4.452 4.634-.028 1.848-1.456 2.954-3.262 2.954-1.652 0-2.758-.602-3.626-1.638" fill="#666"/><path d="M323 316H189a8 8 0 0 0 0 16h134a8 8 0 0 0 0-16" fill="#F6F6F6"/><path d="M340.904 327.48c-.588 0-1.05-.462-1.05-1.036a1.043 1.043 0 0 1 2.086 0c0 .574-.462 1.036-1.036 1.036" fill="#666"/><path fill-rule="evenodd" clip-rule="evenodd" d="m358.999 328.173-4.702 2.632 1.05-5.285-3.956-3.659 5.351-.635 2.257-4.893 2.258 4.893 5.351.635-3.957 3.659 1.05 5.285zm20-11.84 2.258 4.893 5.351.635-3.957 3.659 1.05 5.285-4.702-2.632-4.702 2.632 1.05-5.285-3.956-3.659 5.351-.635zm0 3.183-1.358 2.947-3.222.381 2.382 2.204-.633 3.182 2.831-1.585 2.832 1.585-.633-3.182 2.382-2.204-3.222-.382zm20-3.183 2.258 4.893 5.351.635-3.957 3.659 1.05 5.285-4.702-2.632-4.702 2.632 1.05-5.285-3.956-3.659 5.351-.635zm0 3.183-1.358 2.947-3.222.381 2.382 2.204-.633 3.182 2.831-1.585 2.832 1.585-.633-3.182 2.382-2.204-3.222-.382z" fill="#000091"/></g><defs><clipPath id="a"><path fill="#fff" d="M0 0h588v420H0z"/></clipPath></defs></svg>
