<svg xmlns="http://www.w3.org/2000/svg" viewBox="0 0 1920 1080"><defs><clipPath id="clippath"><path style="fill:none" d="M1369.85 1080H177.48l86.46-168.92h990.08z"/></clipPath><style>.cls-2,.cls-3,.cls-4,.cls-5,.cls-6{fill:none}.cls-2{stroke:#000}.cls-2,.cls-3,.cls-4,.cls-5,.cls-6{stroke-miterlimit:10}.cls-2,.cls-3,.cls-4,.cls-6{stroke-width:2px}.cls-2,.cls-4,.cls-5,.cls-6{stroke-linecap:round}.cls-9{fill:#f28499}.cls-10{fill:#da000f}.cls-3{stroke:#9a9aff}.cls-11{fill:#cfcfff}.cls-4{stroke:#f28499}.cls-5{stroke-width:6px}.cls-5,.cls-6{stroke:#f39a00}.cls-13{fill:#ffc0c6}.cls-14{fill:#9a9aff}.cls-16{fill:#fff}.cls-18{fill:#f39a00}.cls-19{fill:#5f5fe8}</style></defs><path style="fill:#ebebf0" id="fond" d="M0 0h1920v1082H0z"/><path style="fill:#d1d1ff" id="fond_-_copie" d="M0 0h1920v1082H0z"/><g id="ombre"><path class="cls-11" d="M974.95 940.62H349.01V751.33c0-59.76 48.44-108.2 108.2-108.2h409.53c59.76 0 108.2 48.44 108.2 108.2v189.29Zm-519.75-640s-57.5 83.54-33.74 171.06c18.71 68.91-33.39 151.02-33.39 151.02h150.97L526.43 304l-71.22-3.39Z"/><path class="cls-11" d="M481.05 442.99s-23.98-40.57-25.85-52.23c0 0 9.12 66.55 17.19 86.51s8.67-34.28 8.67-34.28Zm231.53 93.38 101.9 29.45a145.97 145.97 0 0 1 88.13 77.51l120.97 259.74H463.13l46.28-366.7z"/><path class="cls-11" d="M706.28 585.24s13.55 174.77-60.15 174.77-103.66-178.22-103.66-178.22"/><ellipse class="cls-11" cx="626.56" cy="585.24" rx="79.71" ry="22.03"/><path class="cls-11" d="M706.28 533.44v51.8H546.85zm-196.87 2.93-40.16 11.13c-54.75 15.18-91.98 65.87-90.07 122.65l6.7 199.77.91 27.01s-37.5 71.87 33.84 108.97c46.32 24.09 88.79 1.97 88.79 1.97l29.62-79.33m-11.99-478.53c-16.01-16.13-38.76-19.5-50.82-7.53s-8.86 34.75 7.14 50.88c16.01 16.13 38.76 19.5 50.82 7.53 0 0 8.21-6.86 3.26-18.91"/><path class="cls-11" d="m732.72 410.91-4.5 79.67c-2.27 31.2-10.68 52.67-34.91 71.58l-.74.58a106.2 106.2 0 0 1-63.54 22.49c-32.54.57-72.01-26.98-93.43-52.25l-24.14-32.87-23.13-43.6-25.2-52.99 111.55-126.59 122.83-1.65 35.21 135.64Z"/><path class="cls-11" d="m718.6 402.86-26.37-71.71 24.34-21.91 18.77 82.65z"/><path class="cls-11" d="M706.32 408.62c-.87-22.71 12.19-41.64 29.17-42.29s31.45 17.23 32.32 39.93c.87 22.71-12.19 41.64-29.17 42.29 0 0-10.62 1.32-16.05-10.52"/><path class="cls-11" d="M721.85 408.67c-.43-11.26 6.04-20.64 14.46-20.97 8.42-.32 15.59 8.54 16.02 19.8s-6.04 20.64-14.46 20.97m-128.59-8.33 11.55 20.42c3.01 5.32 7.66 9.49 13.17 11.8l3.35 1.41c10.44 4.39 12.06 19.69 2.2 24.74-.46.24-.95.45-1.45.64l-17.55 6.55m32.46-85.24a8.57 8.57 0 0 1 .87-5.98s4.08-2.41 6.63-2.97c2.14-.46 4.76-1.2 5.16-.43 2.1 1.17 3.7 3.2 4.24 5.73 1.01 4.67-1.96 9.26-6.62 10.27-4.67 1.01-9.26-1.96-10.27-6.62Zm-28.57-13.37s17.26 7.8 46.52-7.81m-108.34 52.39c-.45-2.1-.1-4.18.86-5.92 0 0 4.04-2.39 6.56-2.94 2.12-.46 4.71-1.19 5.11-.43a8.54 8.54 0 0 1 4.2 5.67c1 4.62-1.94 9.17-6.56 10.17s-9.17-1.94-10.17-6.56Zm-36.2-1.41s12.61-19.13 39.58-22.1"/><ellipse class="cls-11" cx="507.36" cy="267.46" rx="68.42" ry="64.32" transform="rotate(-17.88 507.298 267.443)"/><path class="cls-11" d="M460.41 311.81s2.92-57.96 86.43-98.36c0 0 13.09 6.26 23.15 28.13 10.05 21.88-109.57 70.23-109.57 70.23Z"/><path class="cls-11" d="M481.05 442.99s120.25-66.37 111.66-155.14c0 0 28.36 50.46 127.4 57.11 0 0 2.51-54.84-27.88-85.3-37.57-37.64-124.65-67.25-213.5 18.77-70.3 68.07 2.31 164.57 2.31 164.57Zm111.66 80.13s25.32-16.48 57.54-5.83m-13.67 52.36-60.66-34.77a82.6 82.6 0 0 1-14.55-10.59l-40.35-36.7c-5.83-5.3-9.64-9.62-16.81-6.35 0 0-6.35-6.62-12.43-3.58-6.08 3.03-1.96 14.32-.45 17.74l18.08 40.98c2.96 6.71 6.8 13 11.42 18.7l21.64 26.71a69.4 69.4 0 0 1 11.06 45.95l-1.72 15.38 98.92 6.28c9.83-20.02 10.87-54.54-4.1-71.07a54.4 54.4 0 0 0-10.05-8.68"/><path class="cls-11" d="M524 496.01s-12.62-15-16.31-15.31-12.85 1.85-2.12 23.08 38.73 69.59 38.73 69.59"/><path class="cls-11" d="M492.4 497.82s-8.13-16.63-1.65-19.76 12.07 4.01 12.07 4.01m48.99 161.06L399.02 902.55c-30.83 52.35 7.07 118.35 67.83 118.11 33.28-.13 62.85-21.28 73.73-52.74l110.15-318.51z"/><path class="cls-11" d="m559.44 566.76-22.73-30.65-17.76-31.35a5.5 5.5 0 0 1 2.4-7.67c4-1.93 8.77-1.23 12.06 1.76l7.19 6.54 28.42 23.72c4.48 3.74 9.33 7.01 14.48 9.77 12.95 6.94 48.27 17.45 67.24 43.16 0 0 15.34 30.76 0 67.35s-34.58 99.99-34.58 99.99m-23.91-465.81s26.75 53.16 65.7 61.09"/><path class="cls-11" d="M590.56 267.46s5.72 59.24 39.17 80.71m169.88 423.95 61.33 130.96m-39.1-83.49s9.85 62.93-31.67 83.49h70.77z"/></g><g id="table"><path class="cls-19" d="M1369.85 1080H177.48l86.46-168.92h990.08z"/><g style="clip-path:url(#clippath)" id="Calque_32"><path class="cls-3" d="M233.09 927.2s22.77 45.17 106.06 37.77 177.62-83.76 335.06-5.05c157.44 78.72 261.38-76.7 261.38-76.7M710.12 1080s4.94-72.31 114.05-72.31 175.15 60.18 266.23-18.22c91.09-78.4 274.4 45.26 274.4 45.26M223.95 966.7s20.96 50.1 159.06 35.3c138.11-14.8 228.18 30.74 261.13 87.67"/><path class="cls-3" d="M760.42 1091.45s17.92-59.49 134.52-53.9 197.68 48.4 197.68 48.4M943.65 901.27s-50.3 93.3 31.03 94.27 139.12-89.99 207.6-94.27m-22.26 183.45s31.97-55.44 113.09-56.07 117.65 56.07 117.65 56.07m-1191.35-71.37s130.9 18.7 150.7 84.7"/></g></g><path d="M1008.95 911.08H383.01V759.33c0-59.76 48.44-108.2 108.2-108.2h409.53c59.76 0 108.2 48.44 108.2 108.2v151.75Z" id="siege"/><path class="cls-18" d="M489.2 308.62s-57.5 83.54-33.74 171.06c18.71 68.91-33.39 151.02-33.39 151.02h150.97L560.43 312l-71.22-3.39Z" id="perso"/><path d="M515.05 450.99s-23.98-40.57-25.85-52.23c0 0 9.12 66.55 17.19 86.51s8.67-34.28 8.67-34.28Z" id="Calque_59"/><path class="cls-10" d="m746.58 544.37 101.9 29.45a145.97 145.97 0 0 1 88.13 77.51l120.97 259.74H497.13l46.28-366.7z" id="Calque_58"/><path class="cls-13" d="M740.28 593.24s13.55 174.77-60.15 174.77-103.66-178.22-103.66-178.22" id="Calque_57"/><ellipse class="cls-9" cx="660.56" cy="593.24" rx="79.71" ry="22.03" id="Calque_56"/><path class="cls-9" id="Calque_55" d="M740.28 541.44v51.8H580.85z"/><path class="cls-10" d="m543.41 544.37-40.16 11.13c-54.75 15.18-91.98 65.87-90.07 122.65l6.7 199.77.91 27.01s-37.5 71.87 33.84 108.97c46.32 24.09 88.79 1.97 88.79 1.97l29.62-79.33" id="Calque_54"/><path class="cls-9" d="M561.05 458.01c-16.01-16.13-38.76-19.5-50.82-7.53s-8.86 34.75 7.14 50.88c16.01 16.13 38.76 19.5 50.82 7.53 0 0 8.21-6.86 3.26-18.91" id="Calque_53"/><path class="cls-13" d="m766.72 418.91-4.5 79.67c-2.27 31.2-10.68 52.67-34.91 71.58l-.74.58a106.2 106.2 0 0 1-63.54 22.49c-32.54.57-72.01-26.98-93.43-52.25l-24.14-32.87-23.13-43.6-25.2-52.99 111.55-126.59 122.83-1.65 35.21 135.64Z" id="Calque_52"/><path class="cls-18" id="Calque_51" d="m752.6 410.86-26.37-71.71 24.34-21.91 18.77 82.65z"/><g id="Calque_50"><path class="cls-13" d="M740.32 416.62c-.87-22.71 12.19-41.64 29.17-42.29s31.45 17.23 32.32 39.93c.87 22.71-12.19 41.64-29.17 42.29 0 0-10.62 1.32-16.05-10.52"/><path class="cls-4" d="M755.85 416.67c-.43-11.26 6.04-20.64 14.46-20.97 8.42-.32 15.59 8.54 16.02 19.8s-6.04 20.64-14.46 20.97"/></g><path class="cls-4" d="m643.28 428.14 11.55 20.42c3.01 5.32 7.66 9.49 13.17 11.8l3.35 1.41c10.44 4.39 12.06 19.69 2.2 24.74-.46.24-.95.45-1.45.64l-17.55 6.55" id="Calque_49"/><path d="M687.01 408.46a8.57 8.57 0 0 1 .87-5.98s4.08-2.41 6.63-2.97c2.14-.46 4.76-1.2 5.16-.43 2.1 1.17 3.7 3.2 4.24 5.73 1.01 4.67-1.96 9.26-6.62 10.27-4.67 1.01-9.26-1.96-10.27-6.62Z" id="Calque_48"/><path class="cls-5" d="M658.44 395.09s17.26 7.8 46.52-7.81" id="Calque_47"/><path d="M596.62 439.67c-.45-2.1-.1-4.18.86-5.92 0 0 4.04-2.39 6.56-2.94 2.12-.46 4.71-1.19 5.11-.43a8.54 8.54 0 0 1 4.2 5.67c1 4.62-1.94 9.17-6.56 10.17s-9.17-1.94-10.17-6.56Z" id="Calque_46"/><path class="cls-5" d="M560.42 438.26s12.61-19.13 39.58-22.1" id="Calque_45"/><ellipse class="cls-18" cx="541.36" cy="275.46" rx="68.42" ry="64.32" transform="rotate(-17.88 541.284 275.428)" id="Calque_44"/><path d="M494.41 319.81s2.92-57.96 86.43-98.36c0 0 13.09 6.26 23.15 28.13 10.05 21.88-109.57 70.23-109.57 70.23Z" id="Calque_43"/><path class="cls-18" d="M515.05 450.99s120.25-66.37 111.66-155.14c0 0 28.36 50.46 127.4 57.11 0 0 2.51-54.84-27.88-85.3-37.57-37.64-124.65-67.25-213.5 18.77-70.3 68.07 2.31 164.57 2.31 164.57Z" id="Calque_42"/><path class="cls-4" d="M626.71 531.12s25.32-16.48 57.54-5.83" id="Calque_41"/><g id="Calque_40"><path class="cls-13" d="m670.58 577.65-60.66-34.77a82.6 82.6 0 0 1-14.55-10.59l-40.35-36.7c-5.83-5.3-9.64-9.62-16.81-6.35 0 0-6.35-6.62-12.43-3.58-6.08 3.03-1.96 14.32-.45 17.74l18.08 40.98c2.96 6.71 6.8 13 11.42 18.7l21.64 26.71a69.4 69.4 0 0 1 11.06 45.95l-1.72 15.38 98.92 6.28c9.83-20.02 10.87-54.54-4.1-71.07a54.4 54.4 0 0 0-10.05-8.68"/><path class="cls-4" d="M558 504.01s-12.62-15-16.31-15.31-12.85 1.85-2.12 23.08 38.73 69.59 38.73 69.59"/><path class="cls-4" d="M526.4 505.82s-8.13-16.63-1.65-19.76 12.07 4.01 12.07 4.01"/><path class="cls-13" d="M585.81 651.13 433.02 910.55c-30.83 52.35 7.07 118.35 67.83 118.11 33.28-.13 62.85-21.28 73.73-52.74l110.15-318.51z"/><path class="cls-4" d="m593.44 574.76-22.73-30.65-17.76-31.35a5.5 5.5 0 0 1 2.4-7.67h0c4-1.93 8.77-1.23 12.06 1.76l7.19 6.54 28.42 23.72c4.48 3.74 9.33 7.01 14.48 9.77 12.95 6.94 48.27 17.45 67.24 43.16 0 0 15.34 30.76 0 67.35s-34.58 99.99-34.58 99.99"/></g><path class="cls-6" d="M626.25 291.57s26.75 53.16 65.7 61.09" id="Calque_39"/><path class="cls-6" d="M624.56 275.46s5.72 59.24 39.17 80.71" id="Calque_38"/><path class="cls-2" id="Calque_37" d="m833.61 780.12 61.33 130.96"/><path d="M855.84 827.59s9.85 62.93-31.67 83.49h70.77z" id="perso-2" data-name="perso"/><path style="fill:#0c0088" id="coté" d="M1920 221.45 1469.05 1080H1920z"/><circle class="cls-14" cx="1131.02" cy="189.35" r="91.57" id="nuage"/><circle class="cls-14" cx="1033.8" cy="315.35" r="115.36" id="nuage-2" data-name="nuage"/><circle class="cls-14" cx="1065.61" cy="379.77" r="92.49" id="nuage-3" data-name="nuage"/><circle class="cls-14" cx="1180.25" cy="387.28" r="92.49" id="nuage-4" data-name="nuage"/><circle class="cls-14" cx="1344.01" cy="437.41" r="101.51" id="nuage-5" data-name="nuage"/><circle class="cls-14" cx="1457.33" cy="379.88" r="89.78" id="nuage-6" data-name="nuage"/><circle class="cls-14" cx="1569.79" cy="275.46" r="89.78" id="nuage-7" data-name="nuage"/><circle class="cls-14" cx="1469.05" cy="160.29" r="99.33" id="nuage-8" data-name="nuage"/><circle class="cls-14" cx="1353.85" cy="162.22" r="89.78" id="nuage-9" data-name="nuage"/><circle class="cls-14" cx="1232.45" cy="112.54" r="89.78" id="nuage-10" data-name="nuage"/><circle class="cls-14" cx="874.47" cy="319.81" r="38.55" id="nuage-11" data-name="nuage"/><circle class="cls-14" cx="796.15" cy="335.9" r="23.26" id="nuage-12" data-name="nuage"/><g id="ordi"><path class="cls-11" d="M1485.21 407.02h-406.22c-8.48 0-14.76-7.89-12.86-16.16l61.82-268.41a13.19 13.19 0 0 1 12.86-10.23h406.22c8.48 0 14.76 7.89 12.86 16.16l-61.82 268.41a13.19 13.19 0 0 1-12.86 10.23"/><path d="M1476.4 407.02h-406.22c-8.48 0-14.76-7.89-12.86-16.16l61.82-268.41a13.19 13.19 0 0 1 12.86-10.23h406.22c8.48 0 14.76 7.89 12.86 16.16l-61.82 268.41a13.19 13.19 0 0 1-12.86 10.23"/><path class="cls-9" d="M1466.07 398.18h-385.63c-6.03 0-10.5-5.61-9.15-11.49l59.61-258.84a8.74 8.74 0 0 1 8.52-6.78h391.96c4.29 0 7.47 3.99 6.5 8.17l-59.72 259.32c-1.3 5.63-6.31 9.62-12.09 9.62"/><rect class="cls-11" x="1056.99" y="407.02" width="433.3" height="13.19" rx="6.59" ry="6.59"/><rect class="cls-16" x="936.96" y="407.02" width="433.3" height="13.19" rx="6.59" ry="6.59"/><path d="M1331.86 134.8h-23.05c-3.03 0-5.27-2.82-4.59-5.77l1.24-5.36c.31-1.33-.71-2.61-2.07-2.61h-.23l4.69-7.75c.1-.45.51-.77.97-.77h30.68a1 1 0 0 1 .97 1.22l.89 7.31h-.87c-.99 0-1.85.68-2.07 1.65l-.22.96-1.72 7.48a4.71 4.71 0 0 1-4.59 3.65Z"/></g><g id="tel"><path d="m704.16 1032.16 164.55 29.14c5.28.93 10.22-2.08 11.05-6.74l11.51-65.01c.82-4.66-2.78-9.19-8.06-10.13l-164.55-29.14c-5.28-.93-10.22 2.08-11.05 6.74l-11.51 65.01c-.82 4.66 2.78 9.19 8.06 10.13"/><path d="m704.16 1022.67 164.55 29.14c5.28.93 10.22-2.08 11.05-6.74l11.51-65.01c.82-4.66-2.78-9.19-8.06-10.13l-164.55-29.14c-5.28-.93-10.22 2.08-11.05 6.74l-11.51 65.01c-.82 4.66 2.78 9.19 8.06 10.13" style="fill:#c7cddd"/><circle cx="712.75" cy="979.92" r="3.76"/></g><path class="cls-16" d="M1211.38 152.2c0-19.51-8.16-31.13-31.13-31.13 22.78 0 31.13-9.41 31.13-31.13 0 20.32 11.16 31.13 31.13 31.13-20.16 0-31.13 10.78-31.13 31.13" id="etoile"/><path class="cls-16" d="M1426.2 379.88c0-19.51-8.16-31.13-31.13-31.13 22.78 0 31.13-9.41 31.13-31.13 0 20.32 11.16 31.13 31.13 31.13-20.16 0-31.13 10.78-31.13 31.13" id="etoile-2" data-name="etoile"/><g id="feuille"><path class="cls-16" d="M1350.8 355.49h-145.55l44.27-191.73h92.53L1331.6 209h53.02z"/><path class="cls-11" d="m1384.62 209-42.57-45.24L1331.6 209z"/><path class="cls-2" d="M1258.76 180.61h51.61m-54.48 12.42h19.41m-28.33 38.65h104.62"/></g><g id="dossier"><path d="m1302.34 245.2-.31 1.33c-.7 3.03-3.72 5.48-6.74 5.48h-73.28c-3.03 0-6.05 2.45-6.74 5.48l-23.61 102.28c-.7 3.03 1.19 5.48 4.21 5.48h161c3.03 0 6.05-2.45 6.74-5.48l24.88-107.76 1.57-6.81c.7-3.03-1.19-5.48-4.21-5.48h-76.77c-3.03 0-6.05 2.45-6.74 5.48"/><path class="cls-10" d="m1296.34 245.2-.31 1.33c-.7 3.03-3.72 5.48-6.74 5.48h-73.28c-3.03 0-6.05 2.45-6.74 5.48l-23.61 102.28c-.7 3.03 1.19 5.48 4.21 5.48h161c3.03 0 6.05-2.45 6.74-5.48l24.88-107.76 1.57-6.81c.7-3.03-1.19-5.48-4.21-5.48h-76.77c-3.03 0-6.05 2.45-6.74 5.48"/></g><g id="stylo"><path style="fill:none;stroke-miterlimit:10;stroke-linecap:round;stroke:#fff;stroke-width:9px" d="m1194.96 256.75 41.67 63.7"/><path class="cls-2" d="m1193.56 264.63-3.28 2.36 9.76 15"/><path class="cls-16" d="m1233.16 323.58 7.57-5.26 7.17 19.45z"/></g><g id="planete"><circle class="cls-11" cx="1293.38" cy="266.64" r="74.17"/><path class="cls-19" d="m1293.38 340.81 8.18-14.51a12.8 12.8 0 0 0-2.33-15.56l-5.09-4.84c-.51-.48-.97-1-1.39-1.56l-12.95-17.14c-3.99-5.28-11.36-6.65-16.98-3.15a12.82 12.82 0 0 0-5.93 9.27l-.95 7.64a12.8 12.8 0 0 0 1.65 8.05l6.16 10.52c1.56 2.67 2.1 5.81 1.53 8.85l-1.21 6.4s13.9 6.36 29.31 6.02ZM1252.13 205l2.66 7.17c.4 1.06.45 2.23.15 3.32l-2.21 8.18c-.39 1.44-.17 2.98.6 4.25l5.7 9.4c1.33 2.2.95 5.02-.91 6.79l-11.99 11.38a5.44 5.44 0 0 0-1.7 3.96v11.67c0 2.54-1.75 4.75-4.23 5.32-3.25.75-6.4-1.56-6.67-4.88l-.88-11.04a5.46 5.46 0 0 0-2.29-4.02l-9.27-6.55s5.95-29.7 31.03-44.94Zm64.39-8.84-21.47 30.09a8.93 8.93 0 0 0-1.67 5.21v16.44c0 2.61-1.14 5.09-3.11 6.79l-5.23 4.51a8.99 8.99 0 0 0-2.88 8.82l.12.51a8.97 8.97 0 0 0 8.74 6.94h13.92c4.59 0 8.45 3.47 8.92 8.04l1.98 19.09a8.97 8.97 0 0 0 7.38 7.91c3.77.66 7.55-1.16 9.39-4.52l7.63-13.88a8.9 8.9 0 0 0 1.11-4.32v-13.18c0-3.08 1.59-5.95 4.2-7.59l20.91-13.13s-4.38-41.32-49.93-57.72Z"/></g><g id="avion"><path class="cls-16" d="m1405.48 231.15-4.72-4.71-10.51 1.79-38.55-39.41c-.37-.38-.83-.65-1.33-.81l-7.26-2.19c-2.55-.77-4.9 1.65-4.06 4.18l2.81 8.46c.17.51.46.96.86 1.32l40.66 37.03-1.58 9.77 4.38 3.91 6.16-12.73 13.14-6.63Z"/><path class="cls-16" d="m1361.91 200.68 30.35-9.21a2.99 2.99 0 0 1 2.99.77l4.02 4.13c1.29 1.33 1.06 3.51-.48 4.53l-22.75 15.13-14.12-15.36Zm-7.41 9.02-8.49 30.56c-.3 1.07.03 2.21.84 2.97l4.23 3.92c1.36 1.26 3.53.98 4.52-.59l14.59-23.1z"/></g></svg>
