<svg xmlns="http://www.w3.org/2000/svg" viewBox="0 0 1920 1080"><defs><clipPath id="clippath"><path class="cls-1" d="M0 0h1920v1080H0z"/></clipPath><clipPath id="clippath-1"><circle class="cls-1" cx="958.09" cy="720.07" r="472.56"/></clipPath><style>.cls-1,.cls-2,.cls-3,.cls-4,.cls-5,.cls-6{fill:none}.cls-14{fill:#9c9cff}.cls-2{stroke:#000}.cls-16,.cls-2,.cls-3,.cls-4,.cls-5,.cls-6{stroke-miterlimit:10}.cls-16,.cls-17,.cls-2,.cls-3,.cls-5,.cls-6{stroke-linecap:round}.cls-2,.cls-3,.cls-4,.cls-5{stroke-width:2px}.cls-16,.cls-17,.cls-19{fill:#0c008a}.cls-20{fill:#f4869b}.cls-3{stroke:#d1d1ff}.cls-16{stroke-width:7px}.cls-16,.cls-17,.cls-4{stroke:#0c008a}.cls-21{fill:#827ca5}.cls-23{fill:#fff}.cls-17{stroke-linejoin:round;stroke-width:5px}.cls-24{fill:#dc4e73}.cls-5{stroke:#dc4e73}.cls-6{stroke-width:4px;stroke:#fff}.cls-25{fill:#f59c00}.cls-27{fill:#dc000f}.cls-36{letter-spacing:0}.cls-40{fill:#5f5fea}</style></defs><path class="cls-40" id="Calque_7" d="M0 0h1920v1080H0z"/><g style="clip-path:url(#clippath)" id="Calque_6"><circle class="cls-14" cx="958.09" cy="720.07" r="472.56"/><g style="clip-path:url(#clippath-1)"><path class="cls-3" d="M664.03 307.7s36.51 191.93 173.31 203.41 207.26-238.02 401.02-238.02-91.2-13.74-110.62 208.57 157.06 327.53 356.25 226.28M439.81 614.06s195.2-95.28 333.59 19.65 335.76 329.07 651.51 273.71m-956.19-69.91s48.43 64.99 269.75 121.25c221.32 56.25 436.75 207.96 436.75 207.96"/><path class="cls-3" d="M448.57 784.72S558.44 670.77 666.3 682.25s388.35 427.35 597.93 429.13m26.3-780.83s-160.24 74.81-120.91 217.31 275.22 52.49 275.22 52.49"/></g></g><g id="OMBRE"><path class="cls-40" d="M862.45 594.01 792.6 848.9 770.49 1079h429.73l-79.12-484.99z"/><path class="cls-40" d="m1058.97 453.17 4.63 100.82c.79 17.23 13.31 31.66 30.26 34.87l27.24 5.16s-13.03 122.04-145.6 116.59c-120.93-4.97-113.05-116.59-113.05-116.59l18.84-2.69c18.71-2.67 32.99-18.07 34.25-36.93l5.32-79.52 144.88-70.37-6.77 48.67Z"/><path class="cls-40" d="M1036.97 509.45s-75.63 53.24-120.87 32.71l4.46-63.54zm300.1 437.81-66.41-241.69c-18.02-57.91-67.87-100.21-127.95-108.55l-21.61-3 42.59 379.41z"/><path class="cls-40" d="M1101.07 401.95 1073.99 467a88.87 88.87 0 0 1-52.29 49.58l-.72.26a88.9 88.9 0 0 1-55.16 1.42 88.87 88.87 0 0 1-56.52-50.73l-26.47-63.01-4.72-109.9 126.9-35.77 96.06 29.07v114.04ZM935.02 224.99s-24.04-30.04 11.52-59.57c0 0-14.8-29.43 9.48-49.48 14.93-12.33 49.13-18.91 63.7 3.9 0 0 34.78-20.42 50.87.68s.29 39.48.29 39.48 33.33 34.05 15.99 65.14z"/><path class="cls-40" d="M927.08 225.13s74.77-76.97 159.79 0l-143.34 24.1z"/><path class="cls-40" d="M1006.04 283.73s-13.59 26.57-47.5 28.74-48-6.89-48-6.89-5.75 40.45-31.96 46.46c0 0-32.48-26.03-11.56-84.47s69.67-41.56 69.67-41.56 6.59-25.71 44.83-35.08c38.24-9.38 60.45 23.54 60.45 23.54s31.11-16.99 64.72 26.82c18.15 23.65 1.2 56.43 1.2 56.43 10.4 15.87 9.51 36.61-2.21 51.54l-2.19 2.79s-89.19-22.59-97.46-68.31Z"/><path class="cls-40" d="M895.55 372.15v-50.22l-16.97 30.11 2.08 20.11zm191.51 0v-50.22l16.96 30.11-2.08 20.11z"/><path class="cls-40" d="M1078.48 387.79c4.72-16.68 18.65-27.35 31.13-23.82s18.77 19.91 14.05 36.59-18.65 27.35-31.13 23.82c0 0-8.02-1.54-9.17-11.41"/><path class="cls-40" d="M1089.73 391.48c2.34-8.27 9.25-13.56 15.43-11.81s9.3 9.87 6.97 18.14c-2.34 8.27-9.25 13.56-15.43 11.81m-192.67-21.83c-4.72-16.68-18.65-27.35-31.13-23.82s-18.77 19.91-14.05 36.59 18.65 27.35 31.13 23.82c0 0 8.02-1.54 9.17-11.41"/><path class="cls-40" d="M892.78 391.48c-2.34-8.27-9.25-13.56-15.43-11.81s-9.3 9.87-6.97 18.14c2.34 8.27 9.25 13.56 15.43 11.81m102.61-44.12-2.5 20.37c-.65 5.31-3.1 10.24-6.93 13.98l-2.33 2.27c-7.26 7.07-3.19 19.96 6.92 20.69.47.03.96.04 1.45.02l17.13-.67"/><ellipse class="cls-40" cx="987.57" cy="454.46" rx="17.85" ry="7.12"/><path class="cls-40" d="M1026.24 378.35a7.55 7.55 0 0 1-2.34 4.75s-4.05.91-6.33.68c-1.91-.19-4.29-.29-4.42-1.04a7.57 7.57 0 0 1-1.99-5.93c.42-4.16 4.14-7.2 8.31-6.78 4.16.42 7.2 4.14 6.78 8.31Zm-17.47-22.05s19.22 12.5 44.14 8.06m-111 13.99a7.55 7.55 0 0 1-2.34 4.75s-4.05.91-6.33.68c-1.91-.19-4.29-.29-4.42-1.04a7.57 7.57 0 0 1-1.99-5.93c.42-4.16 4.14-7.2 8.31-6.78 4.16.42 7.2 4.14 6.78 8.31Zm-17.46-16.4s7.78 6.5 41.56-8.3m48.55 31.48s9.03 6.02 32.55 2.19m-85.77-2.19s-9.03 6.02-32.55 2.19m213.71 371.26 164.67 135.85a81.4 81.4 0 0 1 26.71 41.26l3.18 11.58c12.7 46.23-30.07 88.56-76.17 75.37l-144.72-41.4 26.31-222.66Z"/><rect class="cls-40" x="853.02" y="712.38" width="286.28" height="148.14" rx="14.09" ry="14.09" transform="rotate(-88.22 996.095 786.454)"/><rect class="cls-40" x="839.69" y="712.12" width="286.8" height="148.14" rx="14.09" ry="14.09" transform="rotate(-88.22 983.03 786.195)"/><ellipse class="cls-40" cx="1116.18" cy="869.29" rx="60.19" ry="111.94"/><path class="cls-40" d="M1107.19 760.93s-49.62 6.87-99.81 13.89c-40.12 5.62-111.86 11.06-118.99 14.83-13.55 7.16-12.01 27.39 1.07 29.05 8.18 1.04 142.59-4.86 142.59-4.86l-121.72 8.88s-20 2.76-19.18 16.21c1.11 18.24 18.46 18.39 18.46 18.39l122.44-1.87-96.98 5.17s-20.16-.2-22.72 14.6c-3.03 17.53 27.21 15.45 27.21 15.45l109.89.07-109.89-.55s-13.71.97-13.71 14.76 16.78 14 16.78 14 94.69 5.95 127.55 7.2c0 0 49.26 9.24 91.96 13.05 45.83-102.33-19.65-180.63-19.65-180.63l-69.22-64.29-1.33 42.7 14.28 26.86-15.53 1.5m-161.08 53.11 122.44-4.6m-122.44 43.48 122.44-1.87M929.3 890.69l109.07-.49"/><path class="cls-40" d="m862.45 594.01-21.61 3c-60.08 8.34-109.93 50.64-127.95 108.55l-109.28 373.43h166.88l78.05-308.36m293.96-12.05s53.01 96.31-16.08 176.54l35.72 4.1s48.94-91.57-19.65-180.63Z"/><circle class="cls-40" cx="940.9" cy="666.67" r="10.64"/><circle class="cls-40" cx="966.83" cy="682.06" r="10.64"/><circle class="cls-40" cx="940.06" cy="697.17" r="10.64"/><circle class="cls-40" cx="939.16" cy="665.8" r="10.64"/><circle class="cls-40" cx="965.09" cy="681.19" r="10.64"/><circle class="cls-40" cx="938.32" cy="696.3" r="10.64"/><path class="cls-40" d="m1147.01 760.59 116.35 94.87m-198.67-300.45c0 31.74-33.63 57.47-75.1 57.47s-75.1-25.73-75.1-57.47"/><circle class="cls-40" cx="989.59" cy="612.49" r="13.13"/></g><path class="cls-19" id="PERSO" d="M837.45 595.01 767.6 849.9 745.49 1080h429.73l-79.12-484.99z"/><path class="cls-20" d="m1033.97 454.17 4.63 100.82c.79 17.23 13.31 31.66 30.26 34.87l27.24 5.16s-13.03 122.04-145.6 116.59c-120.93-4.97-113.05-116.59-113.05-116.59l18.84-2.69c18.71-2.67 32.99-18.07 34.25-36.93l5.32-79.52 144.88-70.37-6.77 48.67Z" id="Calque_65"/><path class="cls-24" d="M1011.97 510.45s-75.63 53.24-120.87 32.71l4.46-63.54z" id="Calque_64"/><path class="cls-19" d="m1312.07 948.26-66.41-241.69c-18.02-57.91-67.87-100.21-127.95-108.55l-21.61-3 42.59 379.41z" id="Calque_63"/><path class="cls-20" d="M1076.07 402.95 1048.99 468a88.87 88.87 0 0 1-52.29 49.58l-.72.26a88.9 88.9 0 0 1-55.16 1.42 88.87 88.87 0 0 1-56.52-50.73l-26.47-63.01-4.72-109.9 126.9-35.77 96.06 29.07v114.04Z" id="Calque_62"/><path class="cls-23" d="M910.02 225.99s-24.04-30.04 11.52-59.57c0 0-14.8-29.43 9.48-49.48 14.93-12.33 49.13-18.91 63.7 3.9 0 0 34.78-20.42 50.87.68s.29 39.48.29 39.48 33.33 34.05 15.99 65.14z" id="Calque_61"/><path d="M902.08 226.13s74.77-76.97 159.79 0l-143.34 24.1z" style="fill:#010234" id="Calque_60"/><path class="cls-23" d="M981.04 284.73s-13.59 26.57-47.5 28.74-48-6.89-48-6.89-5.75 40.45-31.96 46.46c0 0-32.48-26.03-11.56-84.47s69.67-41.56 69.67-41.56 6.59-25.71 44.83-35.08c38.24-9.38 60.45 23.54 60.45 23.54s31.11-16.99 64.72 26.82c18.15 23.65 1.2 56.43 1.2 56.43 10.4 15.87 9.51 36.61-2.21 51.54l-2.19 2.79s-89.19-22.59-97.46-68.31Z" id="Calque_59"/><path class="cls-23" id="Calque_58" d="M870.55 373.15v-50.22l-16.97 30.11 2.08 20.11z"/><path class="cls-23" id="Calque_57" d="M1062.06 373.15v-50.22l16.96 30.11-2.08 20.11z"/><g id="Calque_56"><path class="cls-20" d="M1053.48 388.79c4.72-16.68 18.65-27.35 31.13-23.82s18.77 19.91 14.05 36.59-18.65 27.35-31.13 23.82c0 0-8.02-1.54-9.17-11.41"/><path class="cls-5" d="M1064.73 392.48c2.34-8.27 9.25-13.56 15.43-11.81s9.3 9.87 6.97 18.14c-2.34 8.27-9.25 13.56-15.43 11.81"/></g><g id="Calque_55"><path class="cls-20" d="M879.03 388.79c-4.72-16.68-18.65-27.35-31.13-23.82s-18.77 19.91-14.05 36.59 18.65 27.35 31.13 23.82c0 0 8.02-1.54 9.17-11.41"/><path class="cls-5" d="M867.78 392.48c-2.34-8.27-9.25-13.56-15.43-11.81s-9.3 9.87-6.97 18.14c2.34 8.27 9.25 13.56 15.43 11.81"/></g><path class="cls-5" d="m963.42 366.5-2.5 20.37c-.65 5.31-3.1 10.24-6.93 13.98l-2.33 2.27c-7.26 7.07-3.19 19.96 6.92 20.69.47.03.96.04 1.45.02l17.13-.67" id="Calque_54"/><ellipse class="cls-27" cx="962.57" cy="455.46" rx="17.85" ry="7.12" id="Calque_53"/><path d="M1001.24 379.35a7.55 7.55 0 0 1-2.34 4.75s-4.05.91-6.33.68c-1.91-.19-4.29-.29-4.42-1.04a7.57 7.57 0 0 1-1.99-5.93c.42-4.16 4.14-7.2 8.31-6.78 4.16.42 7.2 4.14 6.78 8.31Z" id="Calque_52"/><path class="cls-6" d="M983.77 357.3s19.22 12.5 44.14 8.06" id="Calque_51"/><path d="M916.91 379.35a7.55 7.55 0 0 1-2.34 4.75s-4.05.91-6.33.68c-1.91-.19-4.29-.29-4.42-1.04a7.57 7.57 0 0 1-1.99-5.93c.42-4.16 4.14-7.2 8.31-6.78 4.16.42 7.2 4.14 6.78 8.31Z" id="Calque_50"/><path class="cls-6" d="M899.45 362.95s7.78 6.5 41.56-8.3" id="Calque_49"/><path class="cls-5" d="M989.56 386.13s9.03 6.02 32.55 2.19" id="Calque_48"/><path class="cls-5" d="M936.34 386.13s-9.03 6.02-32.55 2.19" id="Calque_47"/><path class="cls-19" d="m1117.5 759.58 164.67 135.85a81.4 81.4 0 0 1 26.71 41.26l3.18 11.58c12.7 46.23-30.07 88.56-76.17 75.37l-144.72-41.4 26.31-222.66Z" id="Calque_46"/><g id="Calque_45"><rect class="cls-23" x="828.02" y="713.38" width="286.28" height="148.14" rx="14.09" ry="14.09" transform="rotate(-88.22 971.096 787.452)"/><rect class="cls-27" x="814.69" y="713.12" width="286.8" height="148.14" rx="14.09" ry="14.09" transform="rotate(-88.22 958.031 787.193)"/><ellipse class="cls-14" cx="1091.18" cy="870.29" rx="60.19" ry="111.94"/><path class="cls-20" d="M1082.19 761.93s-49.62 6.87-99.81 13.89c-40.12 5.62-111.86 11.06-118.99 14.83-13.55 7.16-12.01 27.39 1.07 29.05 8.18 1.04 142.59-4.86 142.59-4.86l-121.72 8.88s-20 2.76-19.18 16.21c1.11 18.24 18.46 18.39 18.46 18.39l122.44-1.87-96.98 5.17s-20.16-.2-22.72 14.6c-3.03 17.53 27.21 15.45 27.21 15.45l109.89.07-109.89-.55s-13.71.97-13.71 14.76 16.78 14 16.78 14 94.69 5.95 127.55 7.2c0 0 49.26 9.24 91.96 13.05 45.83-102.33-19.65-180.63-19.65-180.63l-69.22-64.29-1.33 42.7 14.28 26.86-15.53 1.5"/><path class="cls-5" d="m884.61 819.45 122.44-4.6m-122.44 43.48 122.44-1.87M904.3 891.69l109.07-.49"/><circle class="cls-23" cx="915.9" cy="667.67" r="10.64" id="Calque_42"/><circle class="cls-23" cx="941.83" cy="683.06" r="10.64" id="Calque_41"/><circle class="cls-23" cx="915.06" cy="698.17" r="10.64" id="Calque_40"/><circle class="cls-21" cx="914.16" cy="666.8" r="10.64" id="Calque_39"/><circle class="cls-21" cx="940.09" cy="682.19" r="10.64" id="Calque_38"/><circle class="cls-21" cx="913.32" cy="697.3" r="10.64" id="Calque_37"/></g><path class="cls-19" d="m837.45 595.01-21.61 3c-60.08 8.34-109.93 50.64-127.95 108.55l-109.28 373.43h166.88l78.05-308.36" id="Calque_44"/><path class="cls-24" d="M1117.5 759.58s53.01 96.31-16.08 176.54l35.72 4.1s48.94-91.57-19.65-180.63Z" id="Calque_43"/><path class="cls-2" id="Calque_32" d="m745.49 1080 73.33-242.49"/><path class="cls-2" id="Calque_36" d="m1122.01 761.59 116.35 94.87"/><g id="PERSO-2" data-name="PERSO"><path d="M1039.69 556.01c0 31.74-33.63 57.47-75.1 57.47s-75.1-25.73-75.1-57.47" style="fill:none;stroke-miterlimit:10;stroke-linecap:round;stroke-width:2px;stroke:#fff"/><circle class="cls-25" cx="964.59" cy="613.49" r="13.13" id="Calque_34"/></g><path d="M1127.09 249.3s-42.14-36.63-32.71-60.8 78.43 30.06 66.48 60.12-63.58-53.11-48.95-83.7 94.15 31.53 82.7 54.86-97.25-35.17-81.77-71.23 116.53 3.54 104.32 34.38-108.57-33.41-95.23-71.44 133.17-3.36 118.53 27.35c-14.65 30.71-122.34-8.3-114.31-59.44s163.96 16.54 134.95 51.56" style="fill:none;stroke-miterlimit:10;stroke-width:2px;stroke:#fff" id="Calque_33"/><rect class="cls-19" x="158.92" y="141.75" width="452.63" height="452.63" rx="19.38" ry="19.38" id="Calque_31"/><g id="Calque_30"><rect x="183.98" y="120.22" width="452.63" height="452.63" rx="19.38" ry="19.38" style="fill:#ffc2c8"/><path class="cls-23" d="M183.98 167.39v-25.82c0-11.79 9.55-21.34 21.34-21.34h409.95c11.79 0 21.34 9.55 21.34 21.34v25.82z"/><circle class="cls-40" cx="601.29" cy="143.8" r="12.52"/><circle class="cls-25" cx="564.5" cy="143.8" r="12.52"/><circle class="cls-27" cx="527.09" cy="143.8" r="12.52"/></g><rect class="cls-19" x="314.05" y="475.32" width="187.04" height="72.54" rx="36.27" ry="36.27" id="Calque_29"/><text transform="translate(331.41 522.93)" style="font-size:37px;font-family:Marianne-Bold,Marianne;font-weight:700;fill:#9c9cff" id="Calque_28"><tspan x="0" y="0" style="letter-spacing:.01em">A</tspan><tspan x="27.97" y="0">ch</tspan><tspan x="71.11" y="0" style="letter-spacing:0">e</tspan><tspan x="92.5" y="0" style="letter-spacing:-.01em">t</tspan><tspan x="107.96" y="0">er</tspan></text><g id="Calque_27"><path class="cls-40" d="m533.47 552.46-17.4-11.96a3.307 3.307 0 0 1-.68-4.82l5.04-6.15c1.58-1.93.54-4.84-1.9-5.33l-38.36-7.76c-2.62-.53-4.75 2.11-3.68 4.56l15.53 35.62c.99 2.26 4.02 2.68 5.58.77l5.2-6.35a3.31 3.31 0 0 1 4.5-.58l18.4 13.35a3.3 3.3 0 0 0 4.69-.85l3.96-5.96c1-1.5.61-3.53-.88-4.55Z"/><path class="cls-23" d="m536.57 548.71-17.4-11.96a3.307 3.307 0 0 1-.68-4.82l5.04-6.15c1.58-1.93.54-4.84-1.9-5.33l-38.36-7.76c-2.62-.53-4.75 2.11-3.68 4.56l15.53 35.62c.99 2.26 4.02 2.68 5.58.77l5.2-6.35a3.31 3.31 0 0 1 4.5-.58l18.4 13.35a3.3 3.3 0 0 0 4.69-.85l3.96-5.96c1-1.5.61-3.53-.88-4.55Z"/></g><g id="Calque_26"><rect class="cls-14" x="257.32" y="285.24" width="298.19" height="153.74" rx="13.09" ry="13.09" transform="rotate(-7.33 406.253 362.036)"/><rect class="cls-23" x="265.72" y="275.62" width="298.19" height="153.74" rx="13.09" ry="13.09" transform="rotate(-7.33 414.63 352.383)"/><path class="cls-4" d="m448.57 270.64.76 5.95"/><path style="fill:none;stroke-miterlimit:10;stroke-width:2px;stroke:#0c008a;stroke-dasharray:12.89 12.89" d="m450.97 289.37 15.62 121.41"/><path class="cls-4" d="m467.41 417.17.76 5.96"/><rect class="cls-19" x="269.65" y="299.38" width="61.88" height="33.38" rx="7.71" ry="7.71" transform="rotate(-7.33 300.49 315.993)"/><text transform="rotate(-7.33 2691.545 -1980.846)" style="font-family:Marianne-Bold,Marianne;font-weight:700;fill:#fff;font-size:20px"><tspan x="0" y="0">SNCF</tspan></text><text transform="rotate(-7.33 3006.778 -2051.653)" style="font-family:Marianne-Bold,Marianne;font-weight:700;font-size:14px;fill:#0c008a"><tspan x="0" y="0" style="letter-spacing:-.02em">P</tspan><tspan x="8.2" y="0">ar</tspan><tspan class="cls-36" x="21.8" y="0">i</tspan><tspan x="25.61" y="0">s</tspan><tspan x="32" y="0" style="letter-spacing:-.04em"> </tspan><tspan x="35.27" y="0">-</tspan><tspan x="39.61" y="0" style="letter-spacing:0">B</tspan><tspan x="48.58" y="0">o</tspan><tspan x="57.43" y="0" style="letter-spacing:-.02em">r</tspan><tspan x="62.82" y="0">d</tspan><tspan class="cls-36" x="72" y="0">e</tspan><tspan x="80.01" y="0">a</tspan><tspan x="87.92" y="0" style="letter-spacing:-.01em">u</tspan><tspan x="96.12" y="0">x</tspan></text><path class="cls-14" d="m436.93 328.86 10.85 84.38-161.21 20.73-10.85-84.38zm1.73-2.24-165.18 21.24 11.36 88.34 165.18-21.24z"/><path d="M520.56 289.5c-.31.04-.53.33-.49.64l.73 5.66c.04.31.33.53.64.49l5.66-.73c.31-.04.53-.33.49-.64l-.73-5.66a.573.573 0 0 0-.64-.49zm4.68 40.86-.22-1.7a1.713 1.713 0 1 1 3.4-.44l.22 1.7 3.4-.44-.22-1.7a1.713 1.713 0 1 1 3.4-.44l.44 3.4c.12.94-.54 1.8-1.48 1.92l-13.59 1.75c-.94.12-1.8-.54-1.92-1.48l-.44-3.4a1.713 1.713 0 1 1 3.4-.44l.22 1.7 3.4-.44Zm-13.26-22.48 1.7-.22a1.713 1.713 0 1 1 .44 3.4l-6.8.87a1.713 1.713 0 1 1-.44-3.4l1.7-.22-.44-3.4-5.1.66a1.713 1.713 0 1 1-.44-3.4l10.2-1.31a1.713 1.713 0 1 1 .44 3.4l-1.7.22zm17.43 1.21-1.7.22a1.713 1.713 0 1 1-.44-3.4l1.7-.22-.22-1.7a1.713 1.713 0 1 1 3.4-.44l.87 6.8a1.713 1.713 0 1 1-3.4.44l-.22-1.7Zm-16.12 8.98-1.7.22a1.713 1.713 0 1 1-.44-3.4l3.4-.44c.94-.12 1.8.54 1.92 1.48l.87 6.8c.12.94-.54 1.8-1.48 1.92l-10.2 1.31a1.713 1.713 0 1 1-.44-3.4l8.5-1.09-.44-3.4Zm6.83-31.97 5.66-.73a3.997 3.997 0 0 1 4.47 3.46l.73 5.66a3.997 3.997 0 0 1-3.46 4.47l-5.66.73a3.997 3.997 0 0 1-4.47-3.46l-.73-5.66a3.997 3.997 0 0 1 3.46-4.47m-33.98 4.37 5.66-.73a3.997 3.997 0 0 1 4.47 3.46l.73 5.66a3.997 3.997 0 0 1-3.46 4.47l-5.66.73a3.997 3.997 0 0 1-4.47-3.46l-.73-5.66a3.997 3.997 0 0 1 3.46-4.47m.43 3.4c-.31.04-.53.33-.49.64l.73 5.66c.04.31.33.53.64.49l5.66-.73c.31-.04.53-.33.49-.64l-.73-5.66a.573.573 0 0 0-.64-.49zm3.94 30.59 5.66-.73a3.997 3.997 0 0 1 4.47 3.46l.73 5.66a3.997 3.997 0 0 1-3.46 4.47l-5.66.73a3.997 3.997 0 0 1-4.47-3.46l-.73-5.66a3.997 3.997 0 0 1 3.46-4.47m.43 3.4c-.31.04-.53.33-.49.64l.73 5.66c.04.31.33.53.64.49l5.66-.73c.31-.04.53-.33.49-.64l-.73-5.66a.573.573 0 0 0-.64-.49zm18.86-36.98-8.5 1.09a1.713 1.713 0 1 1-.44-3.4l10.2-1.31c.94-.12 1.8.54 1.92 1.48l.87 6.8a1.713 1.713 0 1 1-3.4.44l-.66-5.1Zm-7.63 7.89a1.713 1.713 0 1 1-.44-3.4l3.4-.44a1.713 1.713 0 1 1 .44 3.4zm-14.37 22.58a1.713 1.713 0 1 1-.44-3.4l6.8-.87a1.713 1.713 0 1 1 .44 3.4zm13.6-1.75a1.713 1.713 0 1 1-.44-3.4l3.4-.44a1.713 1.713 0 1 1 .44 3.4zm6.84 12.94.22 1.7a1.713 1.713 0 1 1-3.4.44l-.44-3.4c-.12-.94.54-1.8 1.48-1.92l6.8-.87a1.713 1.713 0 1 1 .44 3.4l-5.1.66Zm-9.85-22.91 1.7-.22a1.713 1.713 0 1 1 .44 3.4l-3.4.44c-.94.12-1.8-.54-1.92-1.48l-.22-1.7-1.7.22a1.713 1.713 0 1 1-.44-3.4l3.4-.44c.94-.12 1.8.54 1.92 1.48zm-13.82.05a1.713 1.713 0 1 1 3.4-.44l.44 3.4a1.713 1.713 0 1 1-3.4.44zm33.99-4.38a1.713 1.713 0 1 1 3.4-.44l.87 6.8a1.713 1.713 0 1 1-3.4.44zm8.76 14.42-.22-1.7c-.12-.94.54-1.8 1.48-1.92l3.4-.44a1.713 1.713 0 1 1 .44 3.4l-1.7.22.22 1.7c.12.94-.54 1.8-1.48 1.92l-6.8.87c-.94.12-1.8-.54-1.92-1.48l-.44-3.4a1.713 1.713 0 1 1 3.4-.44l.22 1.7 3.4-.44Zm-51.29-22.77a1.713 1.713 0 1 1-3.4.44l-.87-6.8c-.6-4.69 2.71-8.99 7.4-9.59l6.8-.87a1.713 1.713 0 1 1 .44 3.4l-6.8.87c-2.82.36-4.8 2.94-4.44 5.75zm47.75-18.23a1.713 1.713 0 1 1-.44-3.4l6.8-.87c4.69-.6 8.99 2.71 9.59 7.4l.87 6.8a1.713 1.713 0 1 1-3.4.44l-.87-6.8a5.135 5.135 0 0 0-5.75-4.44zm-29.52 65.99a1.713 1.713 0 1 1 .44 3.4l-6.8.87c-4.69.6-8.99-2.71-9.59-7.4l-.87-6.8a1.713 1.713 0 1 1 3.4-.44l.87 6.8c.36 2.82 2.94 4.8 5.75 4.44zm47.75-18.24a1.713 1.713 0 1 1 3.4-.44l.87 6.8c.6 4.69-2.71 8.99-7.4 9.59l-6.8.87a1.713 1.713 0 1 1-.44-3.4l6.8-.87c2.82-.36 4.8-2.94 4.44-5.75z"/></g><path class="cls-23" d="M272.8 285.72c0-19.51-8.16-31.13-31.13-31.13 22.78 0 31.13-9.41 31.13-31.13 0 20.32 11.16 31.13 31.13 31.13-20.16 0-31.13 10.78-31.13 31.13" id="Calque_25"/><path class="cls-23" d="M522.49 475.32c0-14.21-5.94-22.67-22.67-22.67 16.59 0 22.67-6.85 22.67-22.67 0 14.8 8.13 22.67 22.67 22.67-14.69 0-22.67 7.85-22.67 22.67" id="Calque_24"/><rect class="cls-19" x="1264.23" y="247.22" width="505.25" height="456.76" rx="19.38" ry="19.38" id="Calque_23"/><g id="Calque_22"><rect x="1292.21" y="225.5" width="505.25" height="456.76" rx="19.38" ry="19.38" style="fill:#d1d1ff"/><path class="cls-23" d="M1292.21 273.09v-26.06c0-11.89 10.66-21.53 23.82-21.53h457.61c13.16 0 23.82 9.64 23.82 21.53v26.06z"/><circle class="cls-40" cx="1762.13" cy="249.08" r="12.52"/><circle class="cls-25" cx="1725.34" cy="249.08" r="12.52"/><circle class="cls-27" cx="1687.94" cy="249.08" r="12.52"/></g><circle class="cls-27" cx="1699.47" cy="461.07" r="58.84" id="Calque_21"/><circle class="cls-40" cx="1390.76" cy="461.07" r="58.84" id="Calque_20"/><g id="Calque_19"><ellipse class="cls-19" cx="1542.07" cy="362.83" rx="29.57" ry="20.42" transform="rotate(-14.15 1542.372 362.867)"/><ellipse class="cls-25" cx="1540.3" cy="355.83" rx="29.57" ry="20.42" transform="rotate(-14.15 1540.583 355.855)"/><path class="cls-19" d="M1545.98 341.89v2c7.48 0 13.2 2.78 14.25 6.92 1.48 5.89-6.39 13.16-17.19 15.88-2.84.72-5.67 1.08-8.42 1.08-7.48 0-13.21-2.78-14.25-6.92-1.48-5.89 6.39-13.16 17.19-15.88 2.84-.72 5.67-1.08 8.42-1.08zm0 0c-2.82 0-5.84.37-8.91 1.14-12.08 3.05-20.42 11.24-18.64 18.31 1.33 5.27 7.92 8.43 16.19 8.43 2.82 0 5.84-.37 8.91-1.14 12.08-3.05 20.42-11.24 18.64-18.31-1.33-5.27-7.92-8.43-16.19-8.43"/></g><g id="Calque_18"><ellipse class="cls-19" cx="1472.03" cy="389" rx="22.58" ry="15.59" transform="rotate(-47.63 1471.964 389.011)"/><ellipse class="cls-25" cx="1467.96" cy="385.29" rx="22.58" ry="15.59" transform="rotate(-47.63 1467.894 385.292)"/><path class="cls-19" d="M1474.7 372.86c1.47 0 2.66.4 3.52 1.18 3.24 2.95 1.27 10.6-4.29 16.69-3.87 4.24-8.86 6.98-12.71 6.98-1.47 0-2.66-.4-3.52-1.18-1.95-1.78-1.62-4.92-1.26-6.64.71-3.34 2.68-6.92 5.55-10.06 3.87-4.24 8.86-6.98 12.71-6.98m0-1.99c-4.3 0-9.75 2.77-14.19 7.63-6.41 7.03-8.27 15.76-4.16 19.52 1.27 1.16 2.95 1.7 4.86 1.7 4.3 0 9.75-2.77 14.19-7.63 6.41-7.03 8.27-15.76 4.16-19.52-1.27-1.16-2.95-1.7-4.86-1.7"/></g><g id="Calque_17"><ellipse class="cls-19" cx="1607.24" cy="386.61" rx="22.58" ry="15.59" transform="rotate(-69.81 1607.187 386.628)"/><ellipse class="cls-25" cx="1602.07" cy="384.7" rx="22.58" ry="15.59" transform="rotate(-69.81 1602.01 384.732)"/><path class="cls-19" d="M1605.88 370.17c.5 0 .99.08 1.44.25 4.11 1.51 5.18 9.33 2.33 17.08-2.46 6.7-7.36 11.75-11.39 11.75-.51 0-.99-.08-1.44-.25-2.47-.91-3.36-3.94-3.67-5.67-.6-3.37-.13-7.42 1.34-11.41 2.46-6.7 7.36-11.75 11.4-11.75m-.01-2c-4.84 0-10.42 5.3-13.27 13.06-3.28 8.93-1.71 17.72 3.52 19.64.69.25 1.4.37 2.13.37 4.84 0 10.42-5.3 13.27-13.06 3.28-8.93 1.71-17.72-3.52-19.64-.69-.25-1.4-.37-2.13-.37"/></g><g id="Calque_16"><ellipse class="cls-19" cx="1440.63" cy="433.51" rx="11.21" ry="16.23" transform="rotate(-53.19 1440.692 433.5)"/><ellipse class="cls-25" cx="1438.25" cy="436.68" rx="11.21" ry="16.23" transform="rotate(-53.19 1438.318 436.671)"/><path class="cls-19" d="M1433.11 429.26c2.49 0 5.59 1.2 8.28 3.22 4.9 3.66 6.65 8.43 5.17 10.42-.74.99-2.13 1.2-3.17 1.2-2.49 0-5.59-1.2-8.28-3.22-4.9-3.66-6.65-8.43-5.17-10.42.74-.99 2.13-1.2 3.17-1.2m0-2c-2.05 0-3.76.65-4.77 2-2.4 3.2.1 9.12 5.57 13.22 3.17 2.37 6.65 3.61 9.48 3.61 2.05 0 3.76-.65 4.77-2 2.4-3.2-.1-9.12-5.57-13.22-3.17-2.37-6.65-3.61-9.48-3.61"/></g><g id="Calque_15"><ellipse class="cls-19" cx="1645.54" cy="429.61" rx="11.21" ry="16.23" transform="rotate(-71.92 1645.592 429.593)"/><ellipse class="cls-25" cx="1646.77" cy="425.85" rx="11.21" ry="16.23" transform="rotate(-71.92 1646.821 425.824)"/><path class="cls-19" d="M1643.01 419.96c1.72 0 3.58.31 5.38.9 2.77.9 5.24 2.42 6.79 4.16 1.29 1.45 1.82 2.93 1.45 4.05-.53 1.62-2.93 2.67-6.11 2.67-1.72 0-3.58-.31-5.38-.9-2.77-.9-5.24-2.42-6.79-4.16-1.29-1.45-1.82-2.93-1.45-4.05.53-1.62 2.93-2.67 6.11-2.67m0-2c-3.99 0-7.16 1.46-8.01 4.05-1.24 3.8 3.02 8.61 9.52 10.73 2.08.68 4.13 1 6.01 1 3.99 0 7.16-1.46 8.01-4.05 1.24-3.8-3.02-8.61-9.52-10.73-2.08-.68-4.13-1-6.01-1"/></g><path class="cls-23" d="M1350.98 458.97h11.48v67.65h-11.48zm22.96 0h11.48v67.65h-11.48zm22.96 0h11.48v67.65h-11.48zm22.27 0h11.48v67.65h-11.48zm-80.46 0h104.1l-52.05-41.6zm0 67.65h104.1v6.93h-104.1z" id="Calque_14"/><path class="cls-23" d="M1659.69 458.97h11.48v67.65h-11.48zm22.96 0h11.48v67.65h-11.48zm22.96 0h11.48v67.65h-11.48zm22.27 0h11.48v67.65h-11.48zm-80.46 0h104.1l-52.05-41.6zm0 67.65h104.1v6.93h-104.1z" id="Calque_13"/><rect class="cls-19" x="1436.82" y="586.83" width="199.02" height="72.54" rx="36.27" ry="36.27" id="Calque_12"/><text transform="translate(1460.17 634.44)" style="font-size:37px;font-family:Marianne-Bold,Marianne;font-weight:700;fill:#ffc2c8" id="Calque_11"><tspan x="0" y="0" style="letter-spacing:0">E</tspan><tspan x="21.5" y="0" style="letter-spacing:0">n</tspan><tspan x="44.1" y="0" style="letter-spacing:0">v</tspan><tspan x="63.94" y="0" style="letter-spacing:-.01em">oy</tspan><tspan x="107" y="0">er</tspan></text><g id="Calque_10"><path class="cls-16" d="M1511.43 496.68h57.76"/><path class="cls-17" d="m1558.46 481.66 14.24 15.02-14.24 14.43z"/></g><g id="Calque_9"><path class="cls-16" d="M1572.7 464.36h-57.75"/><path class="cls-17" d="m1525.67 479.38-14.24-15.02 14.24-14.43z"/></g><g id="Calque_8"><path class="cls-40" d="m1676.08 662.95-17.4-11.96a3.307 3.307 0 0 1-.68-4.82l5.04-6.15c1.58-1.93.54-4.84-1.9-5.33l-38.36-7.76c-2.62-.53-4.75 2.11-3.68 4.56l15.53 35.62c.99 2.26 4.02 2.68 5.58.77l5.2-6.35a3.31 3.31 0 0 1 4.5-.58l18.4 13.35a3.3 3.3 0 0 0 4.69-.85l3.96-5.96c1-1.5.61-3.53-.88-4.55Z"/><path class="cls-23" d="m1679.17 659.2-17.4-11.96a3.307 3.307 0 0 1-.68-4.82l5.04-6.15c1.58-1.93.54-4.84-1.9-5.33l-38.36-7.76c-2.62-.53-4.75 2.11-3.68 4.56l15.53 35.62c.99 2.26 4.02 2.68 5.58.77l5.2-6.35a3.31 3.31 0 0 1 4.5-.58l18.4 13.35a3.3 3.3 0 0 0 4.69-.85l3.96-5.96c1-1.5.61-3.53-.88-4.55Z"/></g></svg>
