<svg xmlns="http://www.w3.org/2000/svg" viewBox="0 0 892.48 1080"><defs><clipPath id="clippath"><path class="cls-1" d="M.24 0h892v1080H.24z"/></clipPath><clipPath id="clippath-1"><path class="cls-1" d="M.24 0h892v1080H.24z"/></clipPath><style>.cls-1,.cls-5{fill:none}.cls-7{fill:#0c0085}.cls-5{stroke-miterlimit:10;stroke-width:2px}.cls-10{fill:#f49b00}.cls-5{stroke-linecap:round}.cls-14{fill:#e7a137}.cls-16{fill:#fff}.cls-18{fill:#f09700}.cls-5{stroke:#fff}</style></defs><g id="Fond"><path style="fill:#9c9cf8" d="M.24 0h892v1080H.24z"/><g style="clip-path:url(#clippath)"><path class="cls-5" d="M1458.31 940.86s-38.82-288.06-495.06-280.47S370.77 975.99-630.71 769.4m32.75 431.6s549.34-371.3 1349.41-165.34c800.07 205.97 852.66-85.75 852.66-85.75m-126.68-550.18s-307.21 105.43-604.16-71.3C576.33 151.71 270.82 13.08 41.15-17.99c-229.68-31.07-671.86 217.08-671.86 217.08"/><path class="cls-5" d="M1532.4 96.74s-254.07 274.38-528.58 169.46c-274.52-104.93-515.8-376.73-515.8-376.73m931.51 839.94s-183.45-188.35-379.58-188.66-711.86 48.36-1002.09-78.33-497.15-141-635.82-140.45"/></g></g><g id="Calque_3"><rect x="213.58" y="359.98" width="418.16" height="378.02" rx="19.38" ry="19.38" style="fill:#0c0089"/><rect x="236.74" y="342" width="418.16" height="378.02" rx="19.38" ry="19.38" style="fill:#d1d1fb"/><path class="cls-16" d="M236.74 381.39v-21.57c0-9.84 8.83-17.82 19.71-17.82h378.73c10.89 0 19.71 7.98 19.71 17.82v21.57z"/><circle cx="625.66" cy="361.52" r="10.36" style="fill:#5f5fe9"/><circle class="cls-10" cx="595.21" cy="361.52" r="10.36"/><circle cx="564.26" cy="361.52" r="10.36" style="fill:#db000f"/><path class="cls-5" d="M293.58 425.13h290.95m-290.95 28.95h290.95M293.58 569.89h290.95m-290.95-57.9h290.95m-290.95 28.95h158.75m18.46 0H583.4m-289.82-57.91h95.47m100.01 0h95.47M293.58 627.8h290.95m-290.95 28.95h122.76m22.71 0h145.48m-290.95-57.91h95.47m18.01 0h177.47"/></g><g id="Calque_1"><path d="M488.24 556.96c-11 6.61-22.55 12.26-33.14 19.6-3.1 2.15-6.72 4.61-10.23 4.82-3.08.19-6.71-2.07-9.43-4.13-8.27-6.25-17.54-10.82-26.54-15.72-5.09-2.77-7.6-5.48-7.44-11.39.34-12.71.38-25.44-.06-38.14-.13-3.69 1.73-4.15 4.06-5.48 11.7-6.66 23.34-13.43 34.84-20.41 3.31-2.01 5.9-2.03 9.18 0 9.55 5.89 19.3 11.46 28.94 17.2 3.32 1.98 6.55 4.11 9.81 6.18v47.47Z" style="fill:#000091"/><path class="cls-7" d="m686.3 245.69 15.12-19.32a8.88 8.88 0 0 1 7-3.41h36.62a8.88 8.88 0 0 0 8.88-8.88V120.9a8.88 8.88 0 0 0-8.88-8.88H610.02a8.88 8.88 0 0 0-8.88 8.88v92.24a8.88 8.88 0 0 0 8.88 8.88h41.82c2.98 0 5.76 1.49 7.41 3.98l12.66 19.12c3.35 5.06 10.67 5.35 14.41.57Z"/><path class="cls-16" d="M639.76 202.71h69.03c5.8 0 10.75-4.19 11.71-9.92l4.66-27.98c1.21-7.23-4.37-13.82-11.71-13.82h-18.61c-1.67 0-3.02-1.35-3.02-3.02v-15.03a6.769 6.769 0 0 0-12.87-2.93l-10.57 22.02h-28.62c-5.71 0-10.34 4.63-10.34 10.34v30c0 5.71 4.63 10.34 10.34 10.34"/><path class="cls-18" d="M647.92 202.71h-11.96c-3.61 0-6.54-2.93-6.54-6.54v-37.6c0-3.61 2.93-6.54 6.54-6.54h11.96z"/><path d="M323.62 926.71h-11.86v-42.52c0-14.9-12.12-27.02-27.02-27.02s-27.02 12.12-27.02 27.02v18.84h-11.86v-18.84c0-21.44 17.44-38.88 38.88-38.88s38.88 17.44 38.88 38.88z" style="fill:#ededf2"/><path d="M281.49 911.61h24.81c22.84 0 41.39 18.55 41.39 41.39v28.37c0 15.58-12.65 28.22-28.22 28.22h-51.15c-15.58 0-28.22-12.65-28.22-28.22V953c0-22.84 18.55-41.39 41.39-41.39" style="fill:#0a0084"/><path d="M270.23 911.61h24.81c22.84 0 41.39 18.55 41.39 41.39v28.37c0 15.58-12.65 28.22-28.22 28.22h-51.15c-15.58 0-28.22-12.65-28.22-28.22V953c0-22.84 18.55-41.39 41.39-41.39" style="fill:#5f5fe8"/><path d="m283.07 951.3 10.12 31.49h-20.24z"/><circle cx="283.07" cy="952.96" r="10.12"/><path class="cls-16" d="M231.36 932.98c0-8.57-3.58-13.68-13.68-13.68 10.01 0 13.68-4.13 13.68-13.68 0 8.93 4.9 13.68 13.68 13.68-8.86 0-13.68 4.74-13.68 13.68m76.21-73.25c0-6.18-2.58-9.86-9.86-9.86 7.22 0 9.86-2.98 9.86-9.86 0 6.44 3.54 9.86 9.86 9.86-6.39 0-9.86 3.42-9.86 9.86"/><circle class="cls-5" cx="297.04" cy="202.79" r="44.38"/><path class="cls-16" d="M163.18 369.38c0-19.51-8.16-31.13-31.13-31.13 22.78 0 31.13-9.41 31.13-31.13 0 20.32 11.16 31.13 31.13 31.13-20.16 0-31.13 10.78-31.13 31.13m542.69 124.59c0-14.21-5.94-22.67-22.67-22.67 16.59 0 22.67-6.85 22.67-22.67 0 14.8 8.13 22.67 22.67 22.67-14.69 0-22.67 7.85-22.67 22.67"/><path style="fill:#5f5fe5" d="M107.43 73.93h308.14V202.9H107.43z"/><path class="cls-18" d="m194.44 95.74 5.02 10.15 11.21 1.63-8.11 7.91 1.91 11.17-10.03-5.28-10.02 5.28 1.91-11.17-8.11-7.91 11.21-1.63z"/><path class="cls-16" d="m234.47 95.74 5.01 10.15 11.21 1.63-8.11 7.91 1.92 11.17-10.03-5.28-10.03 5.28 1.92-11.17-8.11-7.91 11.21-1.63zm38.84 0 5.01 10.15 11.21 1.63-8.11 7.91 1.91 11.17-10.02-5.28-10.03 5.28 1.92-11.17-8.12-7.91 11.21-1.63zm39.63 0 5.01 10.15 11.21 1.63-8.11 7.91 1.92 11.17-10.03-5.28-10.03 5.28 1.92-11.17-8.12-7.91 11.21-1.63zm40.03 0 5.01 10.15 11.21 1.63-8.11 7.91 1.91 11.17-10.02-5.28-10.03 5.28 1.91-11.17-8.11-7.91 11.21-1.63z"/><path d="M123.87 152.8h138.47m-138.47 26.21H392.6" style="fill:none;stroke:#0c0085;stroke-miterlimit:10;stroke-width:2px"/><circle class="cls-7" cx="145.88" cy="115.05" r="18.16"/><circle class="cls-10" cx="107.8" cy="720.37" r="22.71"/><circle class="cls-10" cx="772.8" cy="369.37" r="22.71"/><g style="clip-path:url(#clippath-1)"><path d="M504.56 772.42c-7.56-12.03-3.31-8.74-26.68-66.35-14.27-35.17-19.82-46.16-30-75.18-1.96-5.59-4.67-14.29-7.52-25.1-2.98-11.31-4.52-19.23-6.94-31.72-4.73-24.48-4.44-28.61-1.74-32.21 3.99-5.3 11.68-8.18 18.18-6.84 5.95 1.23 9.86 5.79 20.49 26.88 13.36 26.52 21.25 47.26 24.11 54.92 3.03 8.11 5.1 14.02 5.48 15.1 1.71 4.84 5.36 12.92 13.96 27.02-.69-10.66.05-19.38.91-25.56 1.44-10.36 3.32-14.15 6.46-16.55 3.24-2.49 6.79-2.78 9.53-3.01 13.7-1.14 24.18 8.53 26.09 10.36 5.21 5 8.05 10.59 9.61 14.83-.13-1.57-.78-11.42 6.23-17.91 9.25-8.56 23.12-3.21 25.01-2.49 10.27 3.96 14.9 12.75 16.12 15.27.66-2.55 2.22-6.76 6.05-9.19 7.04-4.47 17.22.69 21.54 2.85 23.62 11.84 53.73 53.97 68.33 101.99 4.09 13.45 9.96 37.89 12.93 52.78 4.83 24.22 4.1 27.28 6.6 36.72 4.35 16.39 14.91 38.74 43.1 62.48-3.69 7.78-9.51 18.56-18.32 30.23-11.53 15.29-19.72 26.15-34.42 33.41-5.88 2.9-17.34 5.83-40.28 11.69a1137 1137 0 0 1-15.56 3.84c-4.74 1.13-8.8 2.06-11.93 2.76-7.55-17.3-19.4-41.3-37.32-67.82-3.52-5.2-19.9-29.2-47.58-59.06-37.44-40.41-46.21-38.32-62.45-64.13Z" style="fill:#f4869b"/><path d="M431.52 552.16c.02 1.27.28 10.55 7.69 15.84.95.67 6.42 4.59 10.86 2.83 5.25-2.07 8.21-11.71 4.75-23.4-.89-.83-4.69-4.18-10.14-3.97-3.94.15-6.72 2.08-8.08 3.04-2.74 1.95-4.29 4.27-5.08 5.66" style="fill:#ffc2c8"/><path class="cls-16" d="M443.54 570.7c1.02.35 4.04 1.4 6.96.12 2.95-1.29 4.87-4.52 5.09-8.22-1.87-.16-5.13-.2-8.89 1.07-3.6 1.22-6.1 3.1-7.49 4.33.78.77 2.22 1.96 4.33 2.7"/><path d="m565.48 635.43 8.13 18.23m-60.95 1.14 8.4 23.11m93.06-44.78 8.13 18.23" style="fill:none;stroke-miterlimit:10;stroke:#dc4e73;stroke-width:2.43px;stroke-linecap:round"/><path class="cls-14" d="M581.35 982.34c1.09-6.56 4.12-11.07 4.91-12.22 24.5-35.67 134.02-134.16 210.35-139.64 5.17-.37 14.97-.66 25.01 4.43 17.1 8.66 30.77 30.79 26.85 46.11-6.3 24.6-51.87 7.63-108.8 41.78-19.34 11.6-85.9 56.64-112.63 95.97-1.68 2.47-6.29 9.47-13.44 10.24-15.03 1.63-35.88-24.84-32.25-46.67"/><path class="cls-14" d="M625.22 1008.8c1.04-5.69 3.95-10.13 3.95-10.13.13-.19.23-.35.31-.46 21.23-30.91 116.12-116.23 182.25-120.98 11.7-.84 19.07 3 21.67 3.84 41.67 13.49 89.92 77.71 80.08 109.53-7 22.63 40.84 78.15-31.23 114.41-62.56 31.47-142.13-12.18-170.16-15.32-48.63-5.44-87.9-75.23-86.87-80.88Z"/><path d="M627.04 1018.76c15.84-22.27 45.44-57.9 93.36-87.43 50.92-31.38 99-41.37 126.61-45.02" style="fill:none;stroke-miterlimit:10;stroke:#5b3400;stroke-width:1.22px"/></g></g></svg>
