<svg width="360" height="360" viewBox="0 0 360 360" fill="none" xmlns="http://www.w3.org/2000/svg">
    <path fill-rule="evenodd" clip-rule="evenodd" d="M324 54C321.519 54 319.5 51.9813 319.5 49.5C319.5 47.0185 321.519 45 324 45C326.481 45 328.5 47.0185 328.5 49.5C328.5 51.9813 326.481 54 324 54Z" fill="#CACAFB"/>
    <path fill-rule="evenodd" clip-rule="evenodd" d="M292.5 108C290.019 108 288 105.981 288 103.5C288 101.018 290.019 99 292.5 99C294.981 99 297 101.018 297 103.5C297 105.981 294.981 108 292.5 108Z" fill="#CACAFB"/>
    <path fill-rule="evenodd" clip-rule="evenodd" d="M58.5 319.5C56.0187 319.5 54 317.481 54 315C54 312.518 56.0187 310.5 58.5 310.5C60.9813 310.5 63 312.518 63 315C63 317.481 60.9813 319.5 58.5 319.5Z" fill="#CACAFB"/>
    <path fill-rule="evenodd" clip-rule="evenodd" d="M301.5 337.5C299.019 337.5 297 335.481 297 333C297 330.518 299.019 328.5 301.5 328.5C303.981 328.5 306 330.518 306 333C306 335.481 303.981 337.5 301.5 337.5Z" fill="#CACAFB"/>
    <path fill-rule="evenodd" clip-rule="evenodd" d="M256.5 36C254.019 36 252 33.9813 252 31.5C252 29.0185 254.019 27 256.5 27C258.981 27 261 29.0185 261 31.5C261 33.9813 258.981 36 256.5 36Z" fill="#CACAFB"/>
    <path fill-rule="evenodd" clip-rule="evenodd" d="M31.5 63C29.0187 63 27 60.9813 27 58.5C27 56.0185 29.0187 54 31.5 54C33.9813 54 36 56.0185 36 58.5C36 60.9813 33.9813 63 31.5 63Z" fill="#CACAFB"/>
    <path fill-rule="evenodd" clip-rule="evenodd" d="M226.671 229.822C228.978 230.745 230.1 233.364 229.177 235.671L211.177 280.671C210.254 282.979 207.636 284.101 205.328 283.178C203.02 282.255 201.898 279.636 202.821 277.329L220.821 232.329C221.744 230.021 224.363 228.899 226.671 229.822ZM262.67 252.322C264.978 253.245 266.1 255.864 265.177 258.171L256.177 280.671C255.254 282.979 252.636 284.101 250.328 283.178C248.02 282.255 246.898 279.636 247.821 277.329L256.821 254.829C257.744 252.521 260.363 251.399 262.67 252.322Z" fill="#E1000F"/>
    <path fill-rule="evenodd" clip-rule="evenodd" d="M159.171 229.822C161.478 230.745 162.6 233.364 161.677 235.671L143.677 280.671C142.754 282.979 140.136 284.101 137.828 283.178C135.52 282.255 134.398 279.636 135.321 277.329L153.321 232.329C154.244 230.021 156.863 228.899 159.171 229.822Z" fill="#E1000F"/>
    <path fill-rule="evenodd" clip-rule="evenodd" d="M91.6705 229.822C93.978 230.745 95.1004 233.364 94.1774 235.671L76.1774 280.671C75.2544 282.979 72.6355 284.101 70.328 283.178C68.0205 282.255 66.8981 279.636 67.8211 277.329L85.8211 232.329C86.7441 230.021 89.363 228.899 91.6705 229.822Z" fill="#E1000F"/>
    <path fill-rule="evenodd" clip-rule="evenodd" d="M143.999 171C151.455 171 157.499 164.956 157.499 157.5C157.499 150.044 151.455 144 143.999 144C136.543 144 130.499 150.044 130.499 157.5C130.499 164.956 136.543 171 143.999 171ZM143.999 180C156.426 180 166.499 169.926 166.499 157.5C166.499 145.074 156.426 135 143.999 135C131.573 135 121.499 145.074 121.499 157.5C121.499 169.926 131.573 180 143.999 180Z" fill="#E1000F"/>
    <path fill-rule="evenodd" clip-rule="evenodd" d="M85.4991 139.5C85.4991 137.015 87.5139 135 89.9991 135H107.999C110.484 135 112.499 137.015 112.499 139.5C112.499 141.985 110.484 144 107.999 144H89.9991C87.5139 144 85.4991 141.985 85.4991 139.5ZM85.4991 157.5C85.4991 155.015 87.5139 153 89.9991 153H107.999C110.484 153 112.499 155.015 112.499 157.5C112.499 159.985 110.484 162 107.999 162H89.9991C87.5139 162 85.4991 159.985 85.4991 157.5ZM85.4991 175.5C85.4991 173.015 87.5139 171 89.9991 171H107.999C110.484 171 112.499 173.015 112.499 175.5C112.499 177.985 110.484 180 107.999 180H89.9991C87.5139 180 85.4991 177.985 85.4991 175.5Z" fill="#E1000F"/>
    <path fill-rule="evenodd" clip-rule="evenodd" d="M220.026 87.0231C221.817 80.7923 227.517 76.5 233.999 76.5C240.482 76.5 246.182 80.7923 247.972 87.0231L271.735 169.713L289.826 228.17L289.852 228.257L294.088 243H310.499C312.985 243 314.999 245.015 314.999 247.5V270C314.999 272.485 312.985 274.5 310.499 274.5H278.999C276.514 274.5 274.499 272.485 274.499 270C274.499 267.515 276.514 265.5 278.999 265.5H305.999V252H290.699C288.693 252 286.929 250.671 286.374 248.743L281.214 230.786L271.182 198.368H229.499C227.014 198.368 224.999 196.353 224.999 193.868C224.999 191.383 227.014 189.368 229.499 189.368H268.396L263.124 172.33L263.098 172.243L258.861 157.5H209.138L204.901 172.243L204.875 172.33L192.341 212.83C191.607 215.205 189.086 216.534 186.712 215.799C184.338 215.064 183.009 212.544 183.744 210.17L189.2 192.538L196.264 169.713L220.026 87.0231ZM211.724 148.5H256.275L247.223 117H220.776L211.724 148.5ZM223.363 108H244.636L239.322 89.5088C238.64 87.1352 236.469 85.5 233.999 85.5C231.53 85.5 229.358 87.1352 228.676 89.5088L223.363 108Z" fill="#000091"/>
    <path fill-rule="evenodd" clip-rule="evenodd" d="M204.17 229.822C206.478 230.745 207.6 233.364 206.677 235.671L188.677 280.671C187.754 282.979 185.135 284.101 182.828 283.178C180.52 282.255 179.398 279.636 180.321 277.329L198.321 232.329C199.244 230.021 201.863 228.899 204.17 229.822ZM249.17 229.822C251.478 230.745 252.6 233.364 251.677 235.671L233.677 280.671C232.754 282.979 230.136 284.101 227.828 283.178C225.52 282.255 224.398 279.636 225.321 277.329L243.321 232.329C244.244 230.021 246.863 228.899 249.17 229.822Z" fill="#000091"/>
    <path fill-rule="evenodd" clip-rule="evenodd" d="M136.671 229.822C138.978 230.745 140.1 233.364 139.177 235.671L121.177 280.671C120.254 282.979 117.636 284.101 115.328 283.178C113.02 282.255 111.898 279.636 112.821 277.329L130.821 232.329C131.744 230.021 134.363 228.899 136.671 229.822ZM181.671 229.822C183.978 230.745 185.1 233.364 184.177 235.671L166.177 280.671C165.254 282.979 162.636 284.101 160.328 283.178C158.02 282.255 156.898 279.636 157.821 277.329L175.821 232.329C176.744 230.021 179.363 228.899 181.671 229.822Z" fill="#000091"/>
    <path fill-rule="evenodd" clip-rule="evenodd" d="M114.171 229.822C116.478 230.745 117.6 233.364 116.677 235.671L98.6774 280.671C97.7544 282.979 95.1355 284.101 92.828 283.178C90.5205 282.255 89.3981 279.636 90.3211 277.329L108.321 232.329C109.244 230.021 111.863 228.899 114.171 229.822ZM64.6705 241.072C66.978 241.995 68.1004 244.614 67.1774 246.921L53.6774 280.671C52.7544 282.979 50.1355 284.101 47.828 283.178C45.5205 282.255 44.3981 279.636 45.3211 277.329L58.8211 243.579C59.7441 241.271 62.363 240.149 64.6705 241.072Z" fill="#000091"/>
    <path fill-rule="evenodd" clip-rule="evenodd" d="M67.4992 81C67.4992 78.5147 69.514 76.5 71.9992 76.5H197.999C200.485 76.5 202.499 78.5147 202.499 81V90C202.499 92.4853 200.485 94.5 197.999 94.5C195.514 94.5 193.499 92.4853 193.499 90V85.5H76.4992V112.5H184.499C186.985 112.5 188.999 114.515 188.999 117C188.999 119.485 186.985 121.5 184.499 121.5H76.4992V216C76.4992 218.485 74.4845 220.5 71.9992 220.5C69.514 220.5 67.4992 218.485 67.4992 216V81Z" fill="#000091"/>
    <path d="M94.4992 99C94.4992 101.485 92.4845 103.5 89.9992 103.5C87.514 103.5 85.4992 101.485 85.4992 99C85.4992 96.5147 87.514 94.5 89.9992 94.5C92.4845 94.5 94.4992 96.5147 94.4992 99Z" fill="#000091"/>
    <path d="M112.499 99C112.499 101.485 110.485 103.5 107.999 103.5C105.514 103.5 103.499 101.485 103.499 99C103.499 96.5147 105.514 94.5 107.999 94.5C110.485 94.5 112.499 96.5147 112.499 99Z" fill="#000091"/>
    <path d="M130.499 99C130.499 101.485 128.485 103.5 125.999 103.5C123.514 103.5 121.499 101.485 121.499 99C121.499 96.5147 123.514 94.5 125.999 94.5C128.485 94.5 130.499 96.5147 130.499 99Z" fill="#000091"/>
    <path d="M215.999 193.5C215.999 195.985 213.985 198 211.499 198C209.014 198 206.999 195.985 206.999 193.5C206.999 191.015 209.014 189 211.499 189C213.985 189 215.999 191.015 215.999 193.5Z" fill="#000091"/>
</svg>
