<svg width="560" height="692" viewBox="0 0 560 692" fill="none" xmlns="http://www.w3.org/2000/svg">
<g clip-path="url(#clip0_6914_29209)">
<g clip-path="url(#clip1_6914_29209)">
<mask id="mask0_6914_29209" style="mask-type:luminance" maskUnits="userSpaceOnUse" x="0" y="0" width="331" height="64">
<path d="M0 5.27828C0 2.36316 2.36529 0 5.28302 0H330.189V63.3393H0V5.27828Z" fill="white"/>
</mask>
<g mask="url(#mask0_6914_29209)">
<path d="M0 5.27828C0 2.36316 2.36529 0 5.28302 0H330.189V63.3393H0V5.27828Z" fill="#EEEEEE"/>
<path d="M22.4531 15.8359V47.5056" stroke="#666666" stroke-width="2"/>
<path d="M0 62.0195H330.189" stroke="#000091" stroke-width="2"/>
</g>
<path d="M330.188 0H554.717C557.634 0 560 2.36316 560 5.27828V63.3393H330.188V0Z" fill="#000091"/>
<path fill-rule="evenodd" clip-rule="evenodd" d="M377.777 37.7608L383.433 43.4112L381.564 45.2784L375.909 39.6267C373.805 41.312 371.187 42.2287 368.49 42.2249C361.929 42.2249 356.604 36.9044 356.604 30.3488C356.604 23.7932 361.929 18.4727 368.49 18.4727C375.052 18.4727 380.377 23.7932 380.377 30.3488C380.381 33.0433 379.463 35.6583 377.777 37.7608ZM375.127 36.7817C376.803 35.0595 377.74 32.7509 377.736 30.3488C377.736 25.2447 373.598 21.1118 368.49 21.1118C363.382 21.1118 359.245 25.2447 359.245 30.3488C359.245 35.4516 363.382 39.5858 368.49 39.5858C370.894 39.5896 373.205 38.6543 374.929 36.9796L375.127 36.7817Z" fill="#F5F5FE"/>
<path d="M399.304 42.2243V25.5978H404.011C407.506 25.5978 409.645 27.4504 409.645 30.3957C409.645 32.4147 408.647 33.9111 406.911 34.6474L412.189 42.2243H408.956L404.32 35.1937C404.201 35.1937 404.106 35.1937 404.011 35.1937H402.014V42.2243H399.304ZM404.154 27.9017H402.014V32.8897H404.154C405.841 32.8897 406.816 31.9396 406.816 30.3482C406.816 28.8518 405.841 27.9017 404.154 27.9017ZM424.988 40.2767C423.871 41.773 422.041 42.6994 419.806 42.6994C415.669 42.6994 413.221 39.7304 413.221 36.2388C413.221 32.6522 415.503 29.7782 419.307 29.7782C422.611 29.7782 424.751 32.0346 424.751 35.0749C424.751 35.6212 424.679 36.1675 424.584 36.5238H415.741C415.907 39.1365 417.5 40.4904 419.806 40.4904C421.256 40.4904 422.468 39.8491 423.205 38.8515L424.988 40.2767ZM419.259 31.8209C417.476 31.8209 416.24 32.8422 415.859 34.6949H422.302C422.254 33.1985 421.185 31.8209 419.259 31.8209ZM433.503 40.3954C434.858 40.3954 435.952 39.7304 436.618 38.804L438.543 40.2767C437.45 41.7493 435.691 42.6994 433.48 42.6994C429.462 42.6994 426.942 39.7304 426.942 36.2388C426.942 32.7472 429.462 29.7782 433.48 29.7782C435.667 29.7782 437.45 30.7283 438.543 32.2009L436.618 33.6735C435.952 32.7472 434.858 32.0821 433.48 32.0821C431.174 32.0821 429.509 33.8873 429.509 36.2388C429.509 38.614 431.174 40.3954 433.503 40.3954ZM441.103 42.2243V24.4102H443.552V31.4171C444.455 30.467 445.644 29.7782 447.355 29.7782C450.018 29.7782 452.015 31.5596 452.015 35.0274V42.2243H449.543V35.1224C449.543 33.2222 448.497 32.0821 446.785 32.0821C445.144 32.0821 444.194 33.1035 443.552 34.1486V42.2243H441.103ZM466.638 40.2767C465.521 41.773 463.691 42.6994 461.456 42.6994C457.319 42.6994 454.871 39.7304 454.871 36.2388C454.871 32.6522 457.153 29.7782 460.957 29.7782C464.261 29.7782 466.401 32.0346 466.401 35.0749C466.401 35.6212 466.329 36.1675 466.234 36.5238H457.391C457.557 39.1365 459.15 40.4904 461.456 40.4904C462.906 40.4904 464.118 39.8491 464.855 38.8515L466.638 40.2767ZM460.909 31.8209C459.126 31.8209 457.89 32.8422 457.509 34.6949H463.952C463.904 33.1985 462.835 31.8209 460.909 31.8209ZM469.613 42.2243V30.2532H472.061V31.6071C472.894 30.6807 473.94 30.0157 475.414 30.0157C475.794 30.0157 476.15 30.0869 476.46 30.182V32.5809C476.079 32.4859 475.699 32.4147 475.2 32.4147C473.678 32.4147 472.68 33.2222 472.061 34.2436V42.2243H469.613ZM484.138 40.3954C485.494 40.3954 486.587 39.7304 487.253 38.804L489.178 40.2767C488.085 41.7493 486.326 42.6994 484.115 42.6994C480.097 42.6994 477.577 39.7304 477.577 36.2388C477.577 32.7472 480.097 29.7782 484.115 29.7782C486.302 29.7782 488.085 30.7283 489.178 32.2009L487.253 33.6735C486.587 32.7472 485.494 32.0821 484.115 32.0821C481.809 32.0821 480.144 33.8873 480.144 36.2388C480.144 38.614 481.809 40.3954 484.138 40.3954ZM491.738 42.2243V24.4102H494.187V31.4171C495.09 30.467 496.279 29.7782 497.99 29.7782C500.653 29.7782 502.65 31.5596 502.65 35.0274V42.2243H500.178V35.1224C500.178 33.2222 499.132 32.0821 497.42 32.0821C495.78 32.0821 494.829 33.1035 494.187 34.1486V42.2243H491.738ZM517.274 40.2767C516.156 41.773 514.326 42.6994 512.091 42.6994C507.954 42.6994 505.506 39.7304 505.506 36.2388C505.506 32.6522 507.788 29.7782 511.592 29.7782C514.896 29.7782 517.036 32.0346 517.036 35.0749C517.036 35.6212 516.964 36.1675 516.869 36.5238H508.026C508.192 39.1365 509.785 40.4904 512.091 40.4904C513.541 40.4904 514.754 39.8491 515.49 38.8515L517.274 40.2767ZM511.544 31.8209C509.761 31.8209 508.525 32.8422 508.144 34.6949H514.587C514.54 33.1985 513.47 31.8209 511.544 31.8209ZM520.248 42.2243V30.2532H522.697V31.6071C523.529 30.6807 524.575 30.0157 526.049 30.0157C526.429 30.0157 526.786 30.0869 527.095 30.182V32.5809C526.714 32.4859 526.334 32.4147 525.835 32.4147C524.313 32.4147 523.315 33.2222 522.697 34.2436V42.2243H520.248Z" fill="#F5F5FE"/>
</g>
<g clip-path="url(#clip2_6914_29209)">
<mask id="mask1_6914_29209" style="mask-type:luminance" maskUnits="userSpaceOnUse" x="0" y="63" width="560" height="794">
<path d="M560 63.3398H0V856.589H560V63.3398Z" fill="white"/>
</mask>
<g mask="url(#mask1_6914_29209)">
<path d="M560 63.3398H0V766.219H560V63.3398Z" fill="white"/>
<path d="M42.249 122.331V108.273H46.5482C49.642 108.273 51.5505 109.86 51.5505 112.471C51.5505 114.178 50.7269 115.443 49.2804 116.106L53.6801 122.331H50.3251L46.5683 116.648H45.1018V122.331H42.249ZM46.7089 110.643H45.1018V114.278H46.7089C47.9143 114.278 48.6175 113.575 48.6175 112.43C48.6175 111.366 47.9143 110.643 46.7089 110.643ZM64.4279 120.684C63.4837 121.949 61.9167 122.733 60.0082 122.733C56.4121 122.733 54.3831 120.222 54.3831 117.27C54.3831 114.278 56.2715 111.808 59.5863 111.808C62.3989 111.808 64.2471 113.716 64.2471 116.367C64.2471 116.929 64.1667 117.451 64.0864 117.792H56.9947C57.2358 119.68 58.401 120.443 59.9881 120.443C61.093 120.443 62.0573 119.961 62.5998 119.238L64.4279 120.684ZM59.526 113.896C58.2202 113.896 57.3563 114.619 57.0751 115.945H61.7359C61.6957 114.921 60.9524 113.896 59.526 113.896ZM65.7189 120.865L67.4065 119.339C68.0292 120.122 68.7726 120.684 69.7369 120.684C70.5605 120.684 70.9824 120.202 70.9824 119.6C70.9824 117.833 66.1408 118.495 66.1408 114.941C66.1408 113.153 67.6475 111.808 69.757 111.808C71.3039 111.808 72.7101 112.551 73.4334 113.535L71.7458 115.021C71.2235 114.378 70.5605 113.856 69.777 113.856C68.9735 113.856 68.5918 114.298 68.5918 114.82C68.5918 116.547 73.4334 115.945 73.4334 119.439C73.3932 121.568 71.6856 122.733 69.777 122.733C67.969 122.733 66.6832 122.01 65.7189 120.865ZM74.7633 120.865L76.4508 119.339C77.0735 120.122 77.8169 120.684 78.7812 120.684C79.6049 120.684 80.0267 120.202 80.0267 119.6C80.0267 117.833 75.1852 118.495 75.1852 114.941C75.1852 113.153 76.6919 111.808 78.8013 111.808C80.3482 111.808 81.7545 112.551 82.4777 113.535L80.7902 115.021C80.2679 114.378 79.6049 113.856 78.8214 113.856C78.0178 113.856 77.6361 114.298 77.6361 114.82C77.6361 116.547 82.4777 115.945 82.4777 119.439C82.4376 121.568 80.7299 122.733 78.8214 122.733C77.0133 122.733 75.7276 122.01 74.7633 120.865ZM89.6111 111.808C92.9058 111.808 95.1558 114.238 95.1558 117.27C95.1558 120.303 92.9058 122.733 89.6111 122.733C86.3164 122.733 84.0663 120.303 84.0663 117.27C84.0663 114.238 86.3164 111.808 89.6111 111.808ZM89.6513 120.323C91.2785 120.323 92.504 119.017 92.504 117.27C92.504 115.503 91.2785 114.218 89.6513 114.218C87.9637 114.218 86.7182 115.503 86.7182 117.27C86.7182 119.038 87.9637 120.323 89.6513 120.323ZM104.153 117.953V112.21H106.724V117.833C106.724 120.865 104.956 122.733 101.983 122.733C99.0098 122.733 97.262 120.865 97.262 117.833V112.21H99.8335V117.953C99.8335 119.419 100.597 120.323 102.003 120.323C103.389 120.323 104.153 119.419 104.153 117.953ZM109.549 122.331V112.21H112.1V113.214C112.763 112.531 113.627 112.009 114.772 112.009C115.113 112.009 115.415 112.069 115.656 112.149V114.66C115.334 114.579 114.993 114.519 114.531 114.519C113.285 114.519 112.482 115.202 112.1 115.844V122.331H109.549ZM122.14 120.323C123.145 120.323 123.948 119.861 124.43 119.158L126.42 120.684C125.475 121.929 123.988 122.733 122.14 122.733C118.644 122.733 116.555 120.222 116.555 117.27C116.555 114.318 118.644 111.808 122.14 111.808C123.988 111.808 125.475 112.611 126.42 113.856L124.43 115.383C123.948 114.68 123.145 114.218 122.1 114.218C120.432 114.218 119.207 115.503 119.207 117.27C119.207 119.058 120.432 120.323 122.14 120.323ZM137.253 120.684C136.309 121.949 134.742 122.733 132.833 122.733C129.237 122.733 127.208 120.222 127.208 117.27C127.208 114.278 129.097 111.808 132.412 111.808C135.224 111.808 137.072 113.716 137.072 116.367C137.072 116.929 136.992 117.451 136.912 117.792H129.82C130.061 119.68 131.226 120.443 132.813 120.443C133.918 120.443 134.883 119.961 135.425 119.238L137.253 120.684ZM132.351 113.896C131.045 113.896 130.182 114.619 129.9 115.945H134.561C134.521 114.921 133.778 113.896 132.351 113.896ZM138.544 120.865L140.231 119.339C140.854 120.122 141.598 120.684 142.562 120.684C143.386 120.684 143.807 120.202 143.807 119.6C143.807 117.833 138.966 118.495 138.966 114.941C138.966 113.153 140.473 111.808 142.582 111.808C144.129 111.808 145.535 112.551 146.258 113.535L144.571 115.021C144.048 114.378 143.386 113.856 142.602 113.856C141.798 113.856 141.417 114.298 141.417 114.82C141.417 116.547 146.258 115.945 146.258 119.439C146.218 121.568 144.511 122.733 142.602 122.733C140.794 122.733 139.508 122.01 138.544 120.865Z" fill="#161616"/>
<path fill-rule="evenodd" clip-rule="evenodd" d="M519.821 143.669H40.1797V142.414H519.821V143.669Z" fill="#DDDDDD"/>
<path d="M70.3142 158.73H40.1797V188.854H70.3142V158.73Z" fill="#E8EDFF"/>
<path fill-rule="evenodd" clip-rule="evenodd" d="M57.7552 165.426L62.7802 170.446V181.318C62.7817 181.54 62.695 181.754 62.5391 181.912C62.3833 182.07 62.1709 182.159 61.9489 182.161H48.5441C48.0853 182.161 47.7134 181.789 47.7129 181.331V166.256C47.7129 165.806 48.0887 165.426 48.5516 165.426H57.7552ZM56.9206 167.099H49.387V180.487H61.1061V171.283H56.9206V167.099ZM51.8982 169.61H54.4094V171.283H51.8982V169.61ZM51.8982 172.957H58.5948V174.63H51.8982V172.957ZM51.8982 176.304H58.5948V177.977H51.8982V176.304Z" fill="#6A6AF4"/>
<path d="M519.821 166.262H82.8701V181.323H519.821V166.262Z" fill="#F6F6F6"/>
<path d="M70.3142 218.977H40.1797V249.1H70.3142V218.977Z" fill="#E8EDFF"/>
<path fill-rule="evenodd" clip-rule="evenodd" d="M57.7552 225.672L62.7802 230.692V241.564C62.7817 241.787 62.695 242 62.5391 242.158C62.3833 242.316 62.1709 242.405 61.9489 242.407H48.5441C48.0853 242.407 47.7134 242.035 47.7129 241.577V226.502C47.7129 226.052 48.0887 225.672 48.5516 225.672H57.7552ZM56.9206 227.345H49.387V240.734H61.1061V231.53H56.9206V227.345ZM51.8982 229.855H54.4094V231.53H51.8982V229.855ZM51.8982 233.203H58.5948V234.876H51.8982V233.203ZM51.8982 236.55H58.5948V238.223H51.8982V236.55Z" fill="#6A6AF4"/>
<path d="M519.821 226.508H82.8701V241.57H519.821V226.508Z" fill="#F6F6F6"/>
<path d="M70.3142 279.223H40.1797V309.346H70.3142V279.223Z" fill="#E8EDFF"/>
<path fill-rule="evenodd" clip-rule="evenodd" d="M57.7552 285.918L62.7802 290.939V301.811C62.7817 302.033 62.695 302.246 62.5391 302.404C62.3833 302.562 62.1709 302.652 61.9489 302.653H48.5441C48.0853 302.653 47.7134 302.281 47.7129 301.823V286.748C47.7129 286.298 48.0887 285.918 48.5516 285.918H57.7552ZM56.9206 287.591H49.387V300.98H61.1061V291.776H56.9206V287.591ZM51.8982 290.101H54.4094V291.776H51.8982V290.101ZM51.8982 293.449H58.5948V295.122H51.8982V293.449ZM51.8982 296.796H58.5948V298.469H51.8982V296.796Z" fill="#6A6AF4"/>
<path d="M519.821 286.754H82.8701V301.816H519.821V286.754Z" fill="#F6F6F6"/>
<path d="M42.249 363.319V349.262H46.3875C49.3206 349.262 51.1086 350.708 51.1086 353.077C51.1086 354.222 50.5862 355.206 49.6019 355.849C51.0885 356.511 51.9122 357.716 51.9122 359.182C51.9122 361.753 49.9233 363.319 46.6888 363.319H42.249ZM46.4478 351.631H45.1018V354.804H46.4478C47.5326 354.804 48.1755 354.222 48.1755 353.198C48.1755 352.214 47.5326 351.631 46.4478 351.631ZM46.8496 357.174H45.1018V360.95H46.8496C48.1755 360.95 48.9791 360.247 48.9791 359.062C48.9791 357.857 48.1755 357.174 46.8496 357.174ZM57.3508 363.621C55.3218 363.621 53.9356 362.456 53.9356 360.588C53.9356 359.062 55.1209 357.917 57.2905 357.556L60.3844 357.034V356.772C60.3844 355.708 59.5808 355.025 58.4156 355.025C57.4312 355.025 56.6678 355.487 56.1253 356.23L54.257 354.804C55.161 353.559 56.6477 352.796 58.4959 352.796C61.429 352.796 62.9358 354.543 62.9358 356.772V363.319H60.3844V362.335C59.7415 363.118 58.5361 363.621 57.3508 363.621ZM56.4669 360.468C56.4669 361.15 57.0093 361.592 57.8731 361.592C59.0384 361.592 59.8821 361.05 60.3844 360.247V358.821L57.9736 359.223C56.9088 359.403 56.4669 359.845 56.4669 360.468ZM64.9735 361.853L66.661 360.327C67.2838 361.11 68.0271 361.673 68.9914 361.673C69.8151 361.673 70.237 361.191 70.237 360.588C70.237 358.821 65.3954 359.484 65.3954 355.929C65.3954 354.142 66.9021 352.796 69.0115 352.796C70.5584 352.796 71.9647 353.539 72.6879 354.523L71.0004 356.009C70.478 355.367 69.8151 354.845 69.0316 354.845C68.228 354.845 67.8463 355.286 67.8463 355.809C67.8463 357.536 72.6879 356.933 72.6879 360.427C72.6477 362.556 70.9401 363.721 69.0316 363.721C67.2235 363.721 65.9378 362.998 64.9735 361.853ZM84.3213 361.673C83.3771 362.938 81.8101 363.721 79.9016 363.721C76.3056 363.721 74.2765 361.211 74.2765 358.259C74.2765 355.266 76.1649 352.796 79.4797 352.796C82.2923 352.796 84.1405 354.704 84.1405 357.355C84.1405 357.917 84.0602 358.439 83.9798 358.781H76.8882C77.1292 360.668 78.2944 361.432 79.8815 361.432C80.9865 361.432 81.9508 360.95 82.4932 360.227L84.3213 361.673ZM79.4195 354.885C78.1136 354.885 77.2498 355.608 76.9685 356.933H81.6293C81.5891 355.909 80.8458 354.885 79.4195 354.885ZM85.6125 361.853L87.3 360.327C87.9228 361.11 88.6661 361.673 89.6304 361.673C90.4541 361.673 90.876 361.191 90.876 360.588C90.876 358.821 86.0344 359.484 86.0344 355.929C86.0344 354.142 87.5411 352.796 89.6505 352.796C91.1974 352.796 92.6037 353.539 93.3269 354.523L91.6394 356.009C91.1171 355.367 90.4541 354.845 89.6706 354.845C88.867 354.845 88.4853 355.286 88.4853 355.809C88.4853 357.536 93.3269 356.933 93.3269 360.427C93.2867 362.556 91.5791 363.721 89.6706 363.721C87.8625 363.721 86.5768 362.998 85.6125 361.853Z" fill="#161616"/>
<path fill-rule="evenodd" clip-rule="evenodd" d="M519.821 384.657H40.1797V383.402H519.821V384.657Z" fill="#DDDDDD"/>
<path d="M60.2694 394.695H50.2245C44.6769 394.695 40.1797 399.191 40.1797 404.736V414.778C40.1797 420.323 44.6769 424.819 50.2245 424.819H60.2694C65.817 424.819 70.3142 420.323 70.3142 414.778V404.736C70.3142 399.191 65.817 394.695 60.2694 394.695Z" fill="#E8EDFF"/>
<path fill-rule="evenodd" clip-rule="evenodd" d="M55.2467 408.921C57.5582 408.921 59.432 410.794 59.432 413.105V418.125H57.7579V413.105C57.7579 411.776 56.7214 410.677 55.394 410.6L55.2467 410.595C53.9169 410.595 52.8176 411.631 52.7397 412.958L52.7355 413.105V418.125H51.0613V413.105C51.0613 410.794 52.9351 408.921 55.2467 408.921ZM49.8057 411.432C50.0392 411.432 50.2661 411.459 50.4837 411.511C50.3407 411.936 50.2559 412.379 50.2318 412.829L50.2243 413.105V413.178C50.128 413.143 50.0279 413.12 49.9262 413.11L49.8057 413.105C49.159 413.105 48.6181 413.597 48.556 414.24L48.5501 414.36V418.125H46.876V414.36C46.876 412.743 48.1877 411.432 49.8057 411.432ZM60.6876 411.432C62.3057 411.432 63.6173 412.743 63.6173 414.36V418.125H61.9432V414.36C61.9432 413.714 61.4519 413.173 60.8082 413.111L60.6876 413.105C60.5411 413.105 60.4005 413.13 60.2691 413.176V413.105C60.2691 412.548 60.1787 412.013 60.0105 411.512C60.2272 411.459 60.4541 411.432 60.6876 411.432ZM49.8057 406.411C50.9615 406.411 51.8984 407.348 51.8984 408.504C51.8984 409.658 50.9615 410.595 49.8057 410.595C48.65 410.595 47.7131 409.658 47.7131 408.504C47.7131 407.348 48.65 406.411 49.8057 406.411ZM60.6876 406.411C61.8434 406.411 62.7804 407.348 62.7804 408.504C62.7804 409.658 61.8434 410.595 60.6876 410.595C59.5319 410.595 58.5949 409.658 58.5949 408.504C58.5949 407.348 59.5319 406.411 60.6876 406.411ZM49.8057 408.084C49.5745 408.084 49.3872 408.273 49.3872 408.504C49.3872 408.734 49.5745 408.921 49.8057 408.921C50.0368 408.921 50.2243 408.734 50.2243 408.504C50.2243 408.273 50.0368 408.084 49.8057 408.084ZM60.6876 408.084C60.4565 408.084 60.2691 408.273 60.2691 408.504C60.2691 408.734 60.4565 408.921 60.6876 408.921C60.9188 408.921 61.1061 408.734 61.1061 408.504C61.1061 408.273 60.9188 408.084 60.6876 408.084ZM55.2467 401.391C57.0958 401.391 58.5949 402.889 58.5949 404.738C58.5949 406.586 57.0958 408.084 55.2467 408.084C53.3975 408.084 51.8984 406.586 51.8984 404.738C51.8984 402.889 53.3975 401.391 55.2467 401.391ZM55.2467 403.064C54.3221 403.064 53.5725 403.813 53.5725 404.738C53.5725 405.662 54.3221 406.411 55.2467 406.411C56.1713 406.411 56.9208 405.662 56.9208 404.738C56.9208 403.813 56.1713 403.064 55.2467 403.064Z" fill="#6A6AF4"/>
<path d="M519.82 402.227H85.3809V417.288H519.82V402.227Z" fill="#F6F6F6"/>
<path d="M60.2694 444.902H50.2245C44.6769 444.902 40.1797 449.398 40.1797 454.943V464.985C40.1797 470.53 44.6769 475.026 50.2245 475.026H60.2694C65.817 475.026 70.3142 470.53 70.3142 464.985V454.943C70.3142 449.398 65.817 444.902 60.2694 444.902Z" fill="#E8EDFF"/>
<path fill-rule="evenodd" clip-rule="evenodd" d="M55.2467 459.129C57.5582 459.129 59.432 461.001 59.432 463.312V468.332H57.7579V463.312C57.7579 461.983 56.7214 460.884 55.394 460.807L55.2467 460.802C53.9169 460.802 52.8176 461.838 52.7397 463.165L52.7355 463.312V468.332H51.0613V463.312C51.0613 461.001 52.9351 459.129 55.2467 459.129ZM49.8057 461.639C50.0392 461.639 50.2661 461.666 50.4837 461.718C50.3407 462.143 50.2559 462.586 50.2318 463.036L50.2243 463.312V463.385C50.128 463.35 50.0279 463.327 49.9262 463.317L49.8057 463.312C49.159 463.312 48.6181 463.804 48.556 464.447L48.5501 464.567V468.332H46.876V464.567C46.876 462.95 48.1877 461.639 49.8057 461.639ZM60.6876 461.639C62.3057 461.639 63.6173 462.95 63.6173 464.567V468.332H61.9432V464.567C61.9432 463.921 61.4519 463.38 60.8082 463.318L60.6876 463.312C60.5411 463.312 60.4005 463.337 60.2691 463.383V463.312C60.2691 462.755 60.1787 462.22 60.0105 461.719C60.2272 461.666 60.4541 461.639 60.6876 461.639ZM49.8057 456.618C50.9615 456.618 51.8984 457.555 51.8984 458.711C51.8984 459.865 50.9615 460.802 49.8057 460.802C48.65 460.802 47.7131 459.865 47.7131 458.711C47.7131 457.555 48.65 456.618 49.8057 456.618ZM60.6876 456.618C61.8434 456.618 62.7804 457.555 62.7804 458.711C62.7804 459.865 61.8434 460.802 60.6876 460.802C59.5319 460.802 58.5949 459.865 58.5949 458.711C58.5949 457.555 59.5319 456.618 60.6876 456.618ZM49.8057 458.291C49.5745 458.291 49.3872 458.48 49.3872 458.711C49.3872 458.941 49.5745 459.129 49.8057 459.129C50.0368 459.129 50.2243 458.941 50.2243 458.711C50.2243 458.48 50.0368 458.291 49.8057 458.291ZM60.6876 458.291C60.4565 458.291 60.2691 458.48 60.2691 458.711C60.2691 458.941 60.4565 459.129 60.6876 459.129C60.9188 459.129 61.1061 458.941 61.1061 458.711C61.1061 458.48 60.9188 458.291 60.6876 458.291ZM55.2467 451.598C57.0958 451.598 58.5949 453.096 58.5949 454.945C58.5949 456.793 57.0958 458.291 55.2467 458.291C53.3975 458.291 51.8984 456.793 51.8984 454.945C51.8984 453.096 53.3975 451.598 55.2467 451.598ZM55.2467 453.271C54.3221 453.271 53.5725 454.02 53.5725 454.945C53.5725 455.869 54.3221 456.618 55.2467 456.618C56.1713 456.618 56.9208 455.869 56.9208 454.945C56.9208 454.02 56.1713 453.271 55.2467 453.271Z" fill="#6A6AF4"/>
<path d="M519.82 452.434H85.3809V467.495H519.82V452.434Z" fill="#F6F6F6"/>
<path d="M60.2694 495.109H50.2245C44.6769 495.109 40.1797 499.605 40.1797 505.151V515.192C40.1797 520.737 44.6769 525.233 50.2245 525.233H60.2694C65.817 525.233 70.3142 520.737 70.3142 515.192V505.151C70.3142 499.605 65.817 495.109 60.2694 495.109Z" fill="#E8EDFF"/>
<path fill-rule="evenodd" clip-rule="evenodd" d="M55.2467 509.336C57.5582 509.336 59.432 511.208 59.432 513.519V518.539H57.7579V513.519C57.7579 512.19 56.7214 511.091 55.394 511.014L55.2467 511.009C53.9169 511.009 52.8176 512.045 52.7397 513.372L52.7355 513.519V518.539H51.0613V513.519C51.0613 511.208 52.9351 509.336 55.2467 509.336ZM49.8057 511.846C50.0392 511.846 50.2661 511.873 50.4837 511.925C50.3407 512.35 50.2559 512.793 50.2318 513.243L50.2243 513.519V513.592C50.128 513.557 50.0279 513.534 49.9262 513.524L49.8057 513.519C49.159 513.519 48.6181 514.011 48.556 514.654L48.5501 514.774V518.539H46.876V514.774C46.876 513.157 48.1877 511.846 49.8057 511.846ZM60.6876 511.846C62.3057 511.846 63.6173 513.157 63.6173 514.774V518.539H61.9432V514.774C61.9432 514.128 61.4519 513.587 60.8082 513.525L60.6876 513.519C60.5411 513.519 60.4005 513.544 60.2691 513.59V513.519C60.2691 512.962 60.1787 512.427 60.0105 511.926C60.2272 511.873 60.4541 511.846 60.6876 511.846ZM49.8057 506.825C50.9615 506.825 51.8984 507.762 51.8984 508.918C51.8984 510.072 50.9615 511.009 49.8057 511.009C48.65 511.009 47.7131 510.072 47.7131 508.918C47.7131 507.762 48.65 506.825 49.8057 506.825ZM60.6876 506.825C61.8434 506.825 62.7804 507.762 62.7804 508.918C62.7804 510.072 61.8434 511.009 60.6876 511.009C59.5319 511.009 58.5949 510.072 58.5949 508.918C58.5949 507.762 59.5319 506.825 60.6876 506.825ZM49.8057 508.498C49.5745 508.498 49.3872 508.687 49.3872 508.918C49.3872 509.149 49.5745 509.336 49.8057 509.336C50.0368 509.336 50.2243 509.149 50.2243 508.918C50.2243 508.687 50.0368 508.498 49.8057 508.498ZM60.6876 508.498C60.4565 508.498 60.2691 508.687 60.2691 508.918C60.2691 509.149 60.4565 509.336 60.6876 509.336C60.9188 509.336 61.1061 509.149 61.1061 508.918C61.1061 508.687 60.9188 508.498 60.6876 508.498ZM55.2467 501.805C57.0958 501.805 58.5949 503.303 58.5949 505.152C58.5949 507 57.0958 508.498 55.2467 508.498C53.3975 508.498 51.8984 507 51.8984 505.152C51.8984 503.303 53.3975 501.805 55.2467 501.805ZM55.2467 503.478C54.3221 503.478 53.5725 504.227 53.5725 505.152C53.5725 506.076 54.3221 506.825 55.2467 506.825C56.1713 506.825 56.9208 506.076 56.9208 505.152C56.9208 504.227 56.1713 503.478 55.2467 503.478Z" fill="#6A6AF4"/>
<path d="M519.82 502.641H85.3809V517.702H519.82V502.641Z" fill="#F6F6F6"/>
<path d="M42.249 574.183V560.126H46.8897C49.9836 560.126 51.872 561.712 51.872 564.323C51.872 566.914 49.9836 568.5 46.8897 568.5H45.1018V574.183H42.249ZM47.0103 562.495H45.1018V566.13H47.0103C48.2157 566.13 48.9389 565.427 48.9389 564.283C48.9389 563.218 48.2157 562.495 47.0103 562.495ZM53.8507 574.183V564.062H56.4021V565.066C57.065 564.383 57.9289 563.861 59.074 563.861C59.4155 563.861 59.7169 563.921 59.958 564.002V566.512C59.6365 566.432 59.295 566.371 58.8329 566.371C57.5874 566.371 56.7838 567.054 56.4021 567.697V574.183H53.8507ZM66.402 563.66C69.6967 563.66 71.9467 566.09 71.9467 569.123C71.9467 572.155 69.6967 574.585 66.402 574.585C63.1073 574.585 60.8572 572.155 60.8572 569.123C60.8572 566.09 63.1073 563.66 66.402 563.66ZM66.4422 572.175C68.0694 572.175 69.2949 570.87 69.2949 569.123C69.2949 567.355 68.0694 566.07 66.4422 566.07C64.7546 566.07 63.5091 567.355 63.5091 569.123C63.5091 570.89 64.7546 572.175 66.4422 572.175ZM72.9107 564.062H74.7991V562.997C74.7991 560.849 76.2255 559.122 78.7568 559.122C79.6809 559.122 80.4644 559.342 81.1073 559.684L80.0224 561.813C79.7211 561.592 79.3193 561.411 78.7969 561.411C77.933 561.411 77.3706 562.013 77.3706 562.937V564.062H80.4644V566.351H77.3706V574.183H74.7991V566.351H72.9107V564.062ZM83.6622 562.295C82.7581 562.295 81.9947 561.531 81.9947 560.628C81.9947 559.724 82.7581 558.961 83.6622 558.961C84.5662 558.961 85.3095 559.724 85.3095 560.628C85.3095 561.531 84.5662 562.295 83.6622 562.295ZM82.3764 574.183V564.062H84.9278V574.183H82.3764ZM87.9875 574.183V559.122H90.5389V574.183H87.9875ZM92.5772 572.717L94.2647 571.191C94.8874 571.974 95.6308 572.537 96.5952 572.537C97.4188 572.537 97.8406 572.055 97.8406 571.452C97.8406 569.685 92.9991 570.348 92.9991 566.793C92.9991 565.006 94.5058 563.66 96.6152 563.66C98.1621 563.66 99.5684 564.403 100.292 565.387L98.6041 566.873C98.0818 566.231 97.4188 565.709 96.6353 565.709C95.8317 565.709 95.45 566.15 95.45 566.673C95.45 568.4 100.292 567.797 100.292 571.291C100.251 573.42 98.5438 574.585 96.6353 574.585C94.8273 574.585 93.5415 573.862 92.5772 572.717Z" fill="#161616"/>
<path fill-rule="evenodd" clip-rule="evenodd" d="M519.821 595.521H40.1797V594.266H519.821V595.521Z" fill="#DDDDDD"/>
<path d="M70.3142 620.624C70.3142 612.306 63.5684 605.562 55.247 605.562C46.9255 605.562 40.1797 612.306 40.1797 620.624C40.1797 628.943 46.9255 635.686 55.247 635.686C63.5684 635.686 70.3142 628.943 70.3142 620.624Z" fill="#E8EDFF"/>
<path fill-rule="evenodd" clip-rule="evenodd" d="M55.2467 628.993C50.6236 628.993 46.876 625.247 46.876 620.626C46.876 616.004 50.6236 612.258 55.2467 612.258C59.8699 612.258 63.6173 616.004 63.6173 620.626C63.6173 625.247 59.8699 628.993 55.2467 628.993ZM51.0722 625.86C52.2571 626.807 53.7297 627.322 55.2467 627.32C56.8957 627.32 58.4049 626.723 59.5718 625.737C58.4705 624.607 56.9586 623.971 55.3806 623.972C53.7434 623.971 52.1804 624.655 51.0722 625.86ZM49.9029 624.659C51.3248 623.15 53.3072 622.296 55.3806 622.299C57.3784 622.296 59.2948 623.09 60.7061 624.503C62.6951 621.704 62.2441 617.856 59.6619 615.593C57.0799 613.33 53.2036 613.385 50.6882 615.722C48.1728 618.059 47.8335 621.92 49.9029 624.66V624.659ZM55.2467 621.462C53.3975 621.462 51.8984 619.963 51.8984 618.116C51.8984 616.267 53.3975 614.768 55.2467 614.768C57.0958 614.768 58.5949 616.267 58.5949 618.116C58.5949 619.963 57.0958 621.462 55.2467 621.462ZM55.2467 619.789C56.1713 619.789 56.9208 619.039 56.9208 618.116C56.9208 617.191 56.1713 616.441 55.2467 616.441C54.3221 616.441 53.5725 617.191 53.5725 618.116C53.5725 619.039 54.3221 619.789 55.2467 619.789Z" fill="#6A6AF4"/>
<path d="M519.82 613.094H85.3809V628.155H519.82V613.094Z" fill="#F6F6F6"/>
<path d="M70.3142 670.827C70.3142 662.509 63.5684 655.766 55.247 655.766C46.9255 655.766 40.1797 662.509 40.1797 670.827C40.1797 679.146 46.9255 685.889 55.247 685.889C63.5684 685.889 70.3142 679.146 70.3142 670.827Z" fill="#E8EDFF"/>
<path fill-rule="evenodd" clip-rule="evenodd" d="M55.2467 679.196C50.6236 679.196 46.876 675.45 46.876 670.829C46.876 666.208 50.6236 662.461 55.2467 662.461C59.8699 662.461 63.6173 666.208 63.6173 670.829C63.6173 675.45 59.8699 679.196 55.2467 679.196ZM51.0722 676.063C52.2571 677.011 53.7297 677.525 55.2467 677.523C56.8957 677.523 58.4049 676.926 59.5718 675.94C58.4705 674.81 56.9586 674.174 55.3806 674.175C53.7434 674.174 52.1804 674.858 51.0722 676.063ZM49.9029 674.862C51.3248 673.353 53.3072 672.5 55.3806 672.502C57.3784 672.5 59.2948 673.293 60.7061 674.706C62.6951 671.907 62.2441 668.059 59.6619 665.796C57.0799 663.533 53.2036 663.588 50.6882 665.925C48.1728 668.262 47.8335 672.123 49.9029 674.863V674.862ZM55.2467 671.665C53.3975 671.665 51.8984 670.166 51.8984 668.319C51.8984 666.47 53.3975 664.971 55.2467 664.971C57.0958 664.971 58.5949 666.47 58.5949 668.319C58.5949 670.166 57.0958 671.665 55.2467 671.665ZM55.2467 669.992C56.1713 669.992 56.9208 669.242 56.9208 668.319C56.9208 667.394 56.1713 666.644 55.2467 666.644C54.3221 666.644 53.5725 667.394 53.5725 668.319C53.5725 669.242 54.3221 669.992 55.2467 669.992Z" fill="#6A6AF4"/>
<path d="M519.82 663.297H85.3809V678.359H519.82V663.297Z" fill="#F6F6F6"/>
</g>
<path d="M559.372 63.9688H0.62793V855.963H559.372V63.9688Z" stroke="#DDDDDD"/>
</g>
</g>
<defs>
<clipPath id="clip0_6914_29209">
<rect width="560" height="692" fill="white"/>
</clipPath>
<clipPath id="clip1_6914_29209">
<rect width="560" height="63.3393" fill="white"/>
</clipPath>
<clipPath id="clip2_6914_29209">
<rect width="560" height="793.25" fill="white" transform="translate(0 63.3398)"/>
</clipPath>
</defs>
</svg>
