<svg width="584" height="772" viewBox="0 0 584 772" fill="none" xmlns="http://www.w3.org/2000/svg">
<g clip-path="url(#clip0_6914_29099)">
<g clip-path="url(#clip1_6914_29099)">
<mask id="mask0_6914_29099" style="mask-type:luminance" maskUnits="userSpaceOnUse" x="0" y="0" width="774" height="1419">
<path d="M774 0H0V1419H774V0Z" fill="white"/>
</mask>
<g mask="url(#mask0_6914_29099)">
<path d="M774 0H0V1419H774V0Z" fill="white"/>
<path d="M774 0H0V240H774V0Z" fill="#F5F5FE"/>
<path d="M272 120C272 89.0721 246.928 64 216 64C185.072 64 160 89.0721 160 120C160 150.928 185.072 176 216 176C246.928 176 272 150.928 272 120Z" fill="#BFCCFB"/>
<path fill-rule="evenodd" clip-rule="evenodd" d="M216 122.664C207.16 122.664 200 115.504 200 106.664C200 97.8241 207.16 90.6641 216 90.6641C224.84 90.6641 232 97.8241 232 106.664C232 115.504 224.84 122.664 216 122.664ZM226.667 106.664C226.667 112.557 221.893 117.331 216 117.331C210.107 117.331 205.333 112.557 205.333 106.664C205.333 100.771 210.107 95.9974 216 95.9974C221.893 95.9974 226.667 100.771 226.667 106.664Z" fill="white"/>
<path d="M194.667 146.665C194.667 134.883 204.218 125.332 216 125.332C227.782 125.332 237.333 134.883 237.333 146.665H232C232 137.828 224.836 130.665 216 130.665C207.163 130.665 200 137.828 200 146.665H194.667Z" fill="white"/>
<path d="M307.296 117.998V95.5982H312.96L318.432 105.006L323.904 95.5982H329.568V117.998H325.024V101.934L320.032 110.318H316.832L311.84 101.934V117.998H307.296ZM342.737 101.23C347.985 101.23 351.569 105.102 351.569 109.934C351.569 114.766 347.985 118.638 342.737 118.638C337.489 118.638 333.905 114.766 333.905 109.934C333.905 105.102 337.489 101.23 342.737 101.23ZM342.801 114.798C345.393 114.798 347.345 112.718 347.345 109.934C347.345 107.118 345.393 105.07 342.801 105.07C340.113 105.07 338.129 107.118 338.129 109.934C338.129 112.75 340.113 114.798 342.801 114.798ZM355.276 117.998V101.87H359.34V103.15C360.46 102.062 361.964 101.23 364.108 101.23C367.596 101.23 370.38 103.63 370.38 108.398V117.998H366.284V108.558C366.284 106.414 365.068 105.07 363.084 105.07C361.036 105.07 359.948 106.446 359.34 107.47V117.998H355.276ZM384.484 117.998V95.5982H391.876C396.804 95.5982 399.812 98.1262 399.812 102.286C399.812 106.414 396.804 108.942 391.876 108.942H389.028V117.998H384.484ZM392.068 99.3742H389.028V105.166H392.068C393.988 105.166 395.14 104.046 395.14 102.222C395.14 100.526 393.988 99.3742 392.068 99.3742ZM402.963 117.998V101.87H407.027V103.47C408.083 102.382 409.459 101.55 411.283 101.55C411.827 101.55 412.307 101.646 412.691 101.774V105.774C412.179 105.646 411.635 105.55 410.899 105.55C408.915 105.55 407.635 106.638 407.027 107.662V117.998H402.963ZM422.956 101.23C428.204 101.23 431.788 105.102 431.788 109.934C431.788 114.766 428.204 118.638 422.956 118.638C417.708 118.638 414.124 114.766 414.124 109.934C414.124 105.102 417.708 101.23 422.956 101.23ZM423.02 114.798C425.612 114.798 427.564 112.718 427.564 109.934C427.564 107.118 425.612 105.07 423.02 105.07C420.332 105.07 418.348 107.118 418.348 109.934C418.348 112.75 420.332 114.798 423.02 114.798ZM433.323 101.87H436.331V100.174C436.331 96.7502 438.603 93.9982 442.635 93.9982C444.107 93.9982 445.355 94.3502 446.379 94.8942L444.651 98.2862C444.171 97.9342 443.531 97.6462 442.699 97.6462C441.323 97.6462 440.427 98.6062 440.427 100.078V101.87H445.355V105.518H440.427V117.998H436.331V105.518H433.323V101.87ZM450.449 99.0542C449.009 99.0542 447.793 97.8382 447.793 96.3982C447.793 94.9582 449.009 93.7422 450.449 93.7422C451.889 93.7422 453.073 94.9582 453.073 96.3982C453.073 97.8382 451.889 99.0542 450.449 99.0542ZM448.401 117.998V101.87H452.465V117.998H448.401ZM457.338 117.998V93.9982H461.402V117.998H457.338Z" fill="#000091"/>
<path fill-rule="evenodd" clip-rule="evenodd" d="M313.998 137.336L318 141.336V149.998C318.001 150.175 317.932 150.345 317.808 150.471C317.684 150.597 317.515 150.668 317.338 150.669H306.662C306.297 150.669 306 150.373 306 150.008V137.997C306 137.639 306.299 137.336 306.668 137.336H313.998ZM313.333 138.669H307.333V149.336H316.667V142.003H313.333V138.669ZM309.333 140.669H311.333V142.003H309.333V140.669ZM309.333 143.336H314.667V144.669H309.333V143.336ZM309.333 146.003H314.667V147.336H309.333V146.003Z" fill="#3A3A3A"/>
<path d="M328.812 150.002V148.294L332.172 144.99C332.928 144.22 333.404 143.688 333.404 142.89C333.404 142.078 332.844 141.602 332.074 141.602C331.136 141.602 330.562 142.176 330.044 143.044L328.504 142.106C329.33 140.762 330.548 139.922 332.256 139.922C333.964 139.922 335.336 141.014 335.336 142.694C335.336 144.038 334.454 145.074 333.488 146.012L331.122 148.294H335.588V150.002H328.812ZM340.458 139.922C342.656 139.922 343.776 141.182 343.776 142.568C343.776 143.464 343.342 144.234 342.488 144.696C343.608 145.158 344.21 146.068 344.21 147.258C344.21 148.966 342.894 150.282 340.458 150.282C338.036 150.282 336.706 148.966 336.706 147.258C336.706 146.068 337.308 145.158 338.442 144.696C337.574 144.234 337.14 143.464 337.14 142.568C337.14 141.182 338.274 139.922 340.458 139.922ZM340.486 143.982C341.298 143.982 341.83 143.506 341.83 142.778C341.83 142.036 341.298 141.546 340.486 141.546C339.604 141.546 339.086 142.036 339.086 142.778C339.086 143.506 339.618 143.982 340.486 143.982ZM340.472 148.644C341.578 148.644 342.264 148.056 342.264 147.16C342.264 146.236 341.578 145.606 340.472 145.606C339.352 145.606 338.652 146.236 338.652 147.16C338.652 148.07 339.352 148.644 340.472 148.644ZM349.98 150.002V140.202H352.584C354.558 140.202 355.776 141.28 355.776 142.96C355.776 144.136 355.174 145.018 354.124 145.438L357.288 150.002H355.734L352.892 145.69C352.794 145.704 352.682 145.704 352.584 145.704H351.296V150.002H349.98ZM352.64 141.322H351.296V144.584H352.64C353.76 144.584 354.418 143.982 354.418 142.932C354.418 141.938 353.76 141.322 352.64 141.322ZM364.845 148.84C364.187 149.722 363.137 150.282 361.821 150.282C359.441 150.282 357.971 148.532 357.971 146.474C357.971 144.332 359.343 142.666 361.527 142.666C363.445 142.666 364.691 144.01 364.691 145.746C364.691 146.026 364.649 146.292 364.607 146.488H359.189C359.231 148.182 360.309 149.204 361.821 149.204C362.731 149.204 363.501 148.784 363.963 148.154L364.845 148.84ZM361.499 143.674C360.337 143.674 359.525 144.36 359.273 145.578H363.501C363.459 144.542 362.745 143.674 361.499 143.674ZM365.897 149.036L366.737 148.322C367.227 148.938 367.815 149.288 368.529 149.288C369.313 149.288 369.761 148.812 369.761 148.196C369.761 146.614 366.233 147.174 366.233 144.682C366.233 143.576 367.171 142.666 368.529 142.666C369.537 142.666 370.405 143.142 370.895 143.828L370.069 144.528C369.691 143.996 369.159 143.66 368.543 143.66C367.787 143.66 367.381 144.108 367.381 144.654C367.381 146.236 370.923 145.732 370.923 148.14C370.909 149.456 369.859 150.282 368.543 150.282C367.423 150.282 366.541 149.834 365.897 149.036ZM372.049 149.036L372.889 148.322C373.379 148.938 373.967 149.288 374.681 149.288C375.465 149.288 375.913 148.812 375.913 148.196C375.913 146.614 372.385 147.174 372.385 144.682C372.385 143.576 373.323 142.666 374.681 142.666C375.689 142.666 376.557 143.142 377.047 143.828L376.221 144.528C375.843 143.996 375.311 143.66 374.695 143.66C373.939 143.66 373.533 144.108 373.533 144.654C373.533 146.236 377.075 145.732 377.075 148.14C377.061 149.456 376.011 150.282 374.695 150.282C373.575 150.282 372.693 149.834 372.049 149.036ZM382.15 142.666C384.418 142.666 385.972 144.416 385.972 146.474C385.972 148.532 384.418 150.282 382.15 150.282C379.868 150.282 378.328 148.532 378.328 146.474C378.328 144.416 379.868 142.666 382.15 142.666ZM382.164 149.162C383.634 149.162 384.712 147.93 384.712 146.474C384.712 145.004 383.634 143.786 382.164 143.786C380.652 143.786 379.574 145.004 379.574 146.474C379.574 147.944 380.652 149.162 382.164 149.162ZM392.799 146.978V142.946H393.989V146.936C393.989 149.05 392.771 150.282 390.853 150.282C388.949 150.282 387.731 149.05 387.731 146.936V142.946H388.921V146.978C388.921 148.364 389.663 149.162 390.867 149.162C392.043 149.162 392.799 148.364 392.799 146.978ZM396.334 150.002V142.946H397.524V143.828C398.042 143.212 398.686 142.806 399.582 142.806C399.806 142.806 400.016 142.834 400.184 142.89V144.052C399.974 143.996 399.764 143.968 399.484 143.968C398.56 143.968 397.958 144.444 397.524 145.158V150.002H396.334ZM404.723 149.162C405.591 149.162 406.305 148.742 406.739 148.126L407.677 148.84C407.019 149.722 405.997 150.282 404.709 150.282C402.371 150.282 400.873 148.532 400.873 146.474C400.873 144.416 402.371 142.666 404.709 142.666C405.983 142.666 407.019 143.24 407.677 144.108L406.739 144.822C406.305 144.206 405.591 143.786 404.709 143.786C403.197 143.786 402.119 144.976 402.119 146.474C402.119 147.986 403.197 149.162 404.723 149.162ZM415.307 148.84C414.649 149.722 413.599 150.282 412.283 150.282C409.903 150.282 408.433 148.532 408.433 146.474C408.433 144.332 409.805 142.666 411.989 142.666C413.907 142.666 415.153 144.01 415.153 145.746C415.153 146.026 415.111 146.292 415.069 146.488H409.651C409.693 148.182 410.771 149.204 412.283 149.204C413.193 149.204 413.963 148.784 414.425 148.154L415.307 148.84ZM411.961 143.674C410.799 143.674 409.987 144.36 409.735 145.578H413.963C413.921 144.542 413.207 143.674 411.961 143.674ZM416.359 149.036L417.199 148.322C417.689 148.938 418.277 149.288 418.991 149.288C419.775 149.288 420.223 148.812 420.223 148.196C420.223 146.614 416.695 147.174 416.695 144.682C416.695 143.576 417.633 142.666 418.991 142.666C419.999 142.666 420.867 143.142 421.357 143.828L420.531 144.528C420.153 143.996 419.621 143.66 419.005 143.66C418.249 143.66 417.843 144.108 417.843 144.654C417.843 146.236 421.385 145.732 421.385 148.14C421.371 149.456 420.321 150.282 419.005 150.282C417.885 150.282 417.003 149.834 416.359 149.036Z" fill="#3A3A3A"/>
<path d="M432.904 147.313C432.4 147.313 431.994 146.921 431.994 146.431C431.994 145.941 432.4 145.535 432.904 145.535C433.408 145.535 433.8 145.941 433.8 146.431C433.8 146.921 433.408 147.313 432.904 147.313Z" fill="#3A3A3A"/>
<path fill-rule="evenodd" clip-rule="evenodd" d="M454.894 146.437L455.011 146.555L455.13 146.437C455.509 146.058 456.061 145.91 456.579 146.048C457.096 146.187 457.501 146.591 457.639 147.109C457.778 147.627 457.63 148.179 457.251 148.558L455.011 150.797L452.773 148.558C452.187 147.972 452.187 147.022 452.773 146.437C453.358 145.851 454.308 145.851 454.894 146.437ZM451 145.331V146.664C448.791 146.664 447 148.455 447 150.664H445.667C445.667 147.783 447.954 145.423 450.833 145.333L451 145.331ZM451 136.664C453.21 136.664 455 138.454 455 140.664C455.001 142.815 453.299 144.581 451.15 144.661L451 144.664C448.79 144.664 447 142.874 447 140.664C446.999 138.513 448.7 136.747 450.85 136.667L451 136.664ZM451 137.997C449.527 137.997 448.333 139.191 448.333 140.664C448.333 142.137 449.527 143.331 451 143.331C452.473 143.331 453.667 142.137 453.667 140.664C453.667 139.191 452.473 137.997 451 137.997Z" fill="#3A3A3A"/>
<path d="M468.26 145.661L468.554 140.201H474.392V141.909H470.36L470.248 143.953H471.004C473.608 143.953 474.756 145.143 474.756 147.047C474.756 149.049 473.188 150.281 471.172 150.281C469.352 150.281 468.148 149.483 467.336 148.069L468.988 147.047C469.548 148.125 470.22 148.601 471.172 148.601C472.138 148.601 472.824 148.027 472.824 147.117C472.824 146.193 472.138 145.661 470.92 145.661H468.26ZM480.085 139.921C481.723 139.921 482.745 140.663 483.389 141.517L481.933 142.721C481.429 142.049 480.855 141.629 480.085 141.629C478.671 141.629 477.915 142.651 477.789 144.569C478.419 144.023 479.217 143.715 480.183 143.715C482.129 143.715 483.361 145.101 483.361 146.893C483.361 148.741 482.031 150.281 479.791 150.281C477.243 150.281 475.829 148.419 475.829 145.143C475.829 142.091 477.089 139.921 480.085 139.921ZM479.833 145.395C479.035 145.395 478.349 145.703 477.845 146.361C478.069 147.957 478.755 148.573 479.749 148.573C480.785 148.573 481.415 147.887 481.415 146.963C481.415 146.053 480.771 145.395 479.833 145.395ZM488.361 148.657L489.341 147.761C490.013 148.629 490.797 149.091 491.707 149.091C492.799 149.091 493.429 148.433 493.429 147.537C493.429 145.325 488.781 145.801 488.781 142.567C488.781 141.111 489.985 139.921 491.693 139.921C493.065 139.921 494.073 140.551 494.801 141.517L493.807 142.385C493.233 141.559 492.547 141.097 491.707 141.097C490.741 141.097 490.125 141.699 490.125 142.539C490.125 144.737 494.759 144.233 494.759 147.495C494.759 149.189 493.457 150.267 491.721 150.267C490.279 150.267 489.215 149.721 488.361 148.657ZM501.871 146.977V142.945H503.061V146.935C503.061 149.049 501.843 150.281 499.925 150.281C498.021 150.281 496.803 149.049 496.803 146.935V142.945H497.993V146.977C497.993 148.363 498.735 149.161 499.939 149.161C501.115 149.161 501.871 148.363 501.871 146.977ZM506.008 141.111C505.546 141.111 505.168 140.733 505.168 140.271C505.168 139.823 505.546 139.445 506.008 139.445C506.47 139.445 506.834 139.823 506.834 140.271C506.834 140.733 506.47 141.111 506.008 141.111ZM505.406 150.001V142.945H506.596V150.001H505.406ZM508.048 142.945H509.336L511.59 148.755L513.844 142.945H515.132L512.374 150.001H510.806L508.048 142.945ZM517.192 141.111C516.73 141.111 516.352 140.733 516.352 140.271C516.352 139.823 516.73 139.445 517.192 139.445C517.654 139.445 518.018 139.823 518.018 140.271C518.018 140.733 517.654 141.111 517.192 141.111ZM516.59 150.001V142.945H517.78V150.001H516.59ZM519.484 149.035L520.324 148.321C520.814 148.937 521.402 149.287 522.116 149.287C522.9 149.287 523.348 148.811 523.348 148.195C523.348 146.613 519.82 147.173 519.82 144.681C519.82 143.575 520.758 142.665 522.116 142.665C523.124 142.665 523.992 143.141 524.482 143.827L523.656 144.527C523.278 143.995 522.746 143.659 522.13 143.659C521.374 143.659 520.968 144.107 520.968 144.653C520.968 146.235 524.51 145.731 524.51 148.139C524.496 149.455 523.446 150.281 522.13 150.281C521.01 150.281 520.128 149.833 519.484 149.035Z" fill="#3A3A3A"/>
<path d="M0 240H774V296H0V240Z" fill="white"/>
<mask id="mask1_6914_29099" style="mask-type:luminance" maskUnits="userSpaceOnUse" x="0" y="240" width="774" height="57">
<path d="M774 240H0V297H774V240Z" fill="white"/>
<path d="M0 240H774V296H0V240Z" fill="black"/>
</mask>
<g mask="url(#mask1_6914_29099)">
<path d="M774 295H0V297H774V295Z" fill="#DDDDDD"/>
</g>
<path d="M123.554 273.999V264.199H125.234L128.23 269.141L131.226 264.199H132.906V273.999H131.59V265.963L128.734 270.639H127.726L124.87 265.963V273.999H123.554ZM141.919 272.837C141.261 273.719 140.211 274.279 138.895 274.279C136.515 274.279 135.045 272.529 135.045 270.471C135.045 268.329 136.417 266.663 138.601 266.663C140.519 266.663 141.765 268.007 141.765 269.743C141.765 270.023 141.723 270.289 141.681 270.485H136.263C136.305 272.179 137.383 273.201 138.895 273.201C139.805 273.201 140.575 272.781 141.037 272.151L141.919 272.837ZM138.573 267.671C137.411 267.671 136.599 268.357 136.347 269.575H140.575C140.533 268.539 139.819 267.671 138.573 267.671ZM142.971 273.033L143.811 272.319C144.301 272.935 144.889 273.285 145.603 273.285C146.387 273.285 146.835 272.809 146.835 272.193C146.835 270.611 143.307 271.171 143.307 268.679C143.307 267.573 144.245 266.663 145.603 266.663C146.611 266.663 147.479 267.139 147.969 267.825L147.143 268.525C146.765 267.993 146.233 267.657 145.617 267.657C144.861 267.657 144.455 268.105 144.455 268.651C144.455 270.233 147.997 269.729 147.997 272.137C147.983 273.453 146.933 274.279 145.617 274.279C144.497 274.279 143.615 273.831 142.971 273.033ZM153.707 273.999V266.943H154.897V267.825C155.415 267.209 156.059 266.803 156.955 266.803C157.179 266.803 157.389 266.831 157.557 266.887V268.049C157.347 267.993 157.137 267.965 156.857 267.965C155.933 267.965 155.331 268.441 154.897 269.155V273.999H153.707ZM165.12 272.837C164.462 273.719 163.412 274.279 162.096 274.279C159.716 274.279 158.246 272.529 158.246 270.471C158.246 268.329 159.618 266.663 161.802 266.663C163.72 266.663 164.966 268.007 164.966 269.743C164.966 270.023 164.924 270.289 164.882 270.485H159.464C159.506 272.179 160.584 273.201 162.096 273.201C163.006 273.201 163.776 272.781 164.238 272.151L165.12 272.837ZM161.774 267.671C160.612 267.671 159.8 268.357 159.548 269.575H163.776C163.734 268.539 163.02 267.671 161.774 267.671ZM166.172 273.033L167.012 272.319C167.502 272.935 168.09 273.285 168.804 273.285C169.588 273.285 170.036 272.809 170.036 272.193C170.036 270.611 166.508 271.171 166.508 268.679C166.508 267.573 167.446 266.663 168.804 266.663C169.812 266.663 170.68 267.139 171.17 267.825L170.344 268.525C169.966 267.993 169.434 267.657 168.818 267.657C168.062 267.657 167.656 268.105 167.656 268.651C167.656 270.233 171.198 269.729 171.198 272.137C171.184 273.453 170.134 274.279 168.818 274.279C167.698 274.279 166.816 273.831 166.172 273.033ZM172.324 273.033L173.164 272.319C173.654 272.935 174.242 273.285 174.956 273.285C175.74 273.285 176.188 272.809 176.188 272.193C176.188 270.611 172.66 271.171 172.66 268.679C172.66 267.573 173.598 266.663 174.956 266.663C175.964 266.663 176.832 267.139 177.322 267.825L176.496 268.525C176.118 267.993 175.586 267.657 174.97 267.657C174.214 267.657 173.808 268.105 173.808 268.651C173.808 270.233 177.35 269.729 177.35 272.137C177.336 273.453 176.286 274.279 174.97 274.279C173.85 274.279 172.968 273.831 172.324 273.033ZM182.425 266.663C184.693 266.663 186.247 268.413 186.247 270.471C186.247 272.529 184.693 274.279 182.425 274.279C180.143 274.279 178.603 272.529 178.603 270.471C178.603 268.413 180.143 266.663 182.425 266.663ZM182.439 273.159C183.909 273.159 184.987 271.927 184.987 270.471C184.987 269.001 183.909 267.783 182.439 267.783C180.927 267.783 179.849 269.001 179.849 270.471C179.849 271.941 180.927 273.159 182.439 273.159ZM193.074 270.975V266.943H194.264V270.933C194.264 273.047 193.046 274.279 191.128 274.279C189.224 274.279 188.006 273.047 188.006 270.933V266.943H189.196V270.975C189.196 272.361 189.938 273.159 191.142 273.159C192.318 273.159 193.074 272.361 193.074 270.975ZM196.61 273.999V266.943H197.8V267.825C198.318 267.209 198.962 266.803 199.858 266.803C200.082 266.803 200.292 266.831 200.46 266.887V268.049C200.25 267.993 200.04 267.965 199.76 267.965C198.836 267.965 198.234 268.441 197.8 269.155V273.999H196.61ZM204.998 273.159C205.866 273.159 206.58 272.739 207.014 272.123L207.952 272.837C207.294 273.719 206.272 274.279 204.984 274.279C202.646 274.279 201.148 272.529 201.148 270.471C201.148 268.413 202.646 266.663 204.984 266.663C206.258 266.663 207.294 267.237 207.952 268.105L207.014 268.819C206.58 268.203 205.866 267.783 204.984 267.783C203.472 267.783 202.394 268.973 202.394 270.471C202.394 271.983 203.472 273.159 204.998 273.159ZM215.583 272.837C214.925 273.719 213.875 274.279 212.559 274.279C210.179 274.279 208.709 272.529 208.709 270.471C208.709 268.329 210.081 266.663 212.265 266.663C214.183 266.663 215.429 268.007 215.429 269.743C215.429 270.023 215.387 270.289 215.345 270.485H209.927C209.969 272.179 211.047 273.201 212.559 273.201C213.469 273.201 214.239 272.781 214.701 272.151L215.583 272.837ZM212.237 267.671C211.075 267.671 210.263 268.357 210.011 269.575H214.239C214.197 268.539 213.483 267.671 212.237 267.671ZM216.635 273.033L217.475 272.319C217.965 272.935 218.553 273.285 219.267 273.285C220.051 273.285 220.499 272.809 220.499 272.193C220.499 270.611 216.971 271.171 216.971 268.679C216.971 267.573 217.909 266.663 219.267 266.663C220.275 266.663 221.143 267.139 221.633 267.825L220.807 268.525C220.429 267.993 219.897 267.657 219.281 267.657C218.525 267.657 218.119 268.105 218.119 268.651C218.119 270.233 221.661 269.729 221.661 272.137C221.647 273.453 220.597 274.279 219.281 274.279C218.161 274.279 217.279 273.831 216.635 273.033Z" fill="#000091"/>
<path d="M239 294H106V296H239V294Z" fill="#000091"/>
<path d="M256.554 274.001V264.201H258.234L261.23 269.143L264.226 264.201H265.906V274.001H264.59V265.965L261.734 270.641H260.726L257.87 265.965V274.001H256.554ZM274.919 272.839C274.261 273.721 273.211 274.281 271.895 274.281C269.515 274.281 268.045 272.531 268.045 270.473C268.045 268.331 269.417 266.665 271.601 266.665C273.519 266.665 274.765 268.009 274.765 269.745C274.765 270.025 274.723 270.291 274.681 270.487H269.263C269.305 272.181 270.383 273.203 271.895 273.203C272.805 273.203 273.575 272.783 274.037 272.153L274.919 272.839ZM271.573 267.673C270.411 267.673 269.599 268.359 269.347 269.577H273.575C273.533 268.541 272.819 267.673 271.573 267.673ZM275.971 273.035L276.811 272.321C277.301 272.937 277.889 273.287 278.603 273.287C279.387 273.287 279.835 272.811 279.835 272.195C279.835 270.613 276.307 271.173 276.307 268.681C276.307 267.575 277.245 266.665 278.603 266.665C279.611 266.665 280.479 267.141 280.969 267.827L280.143 268.527C279.765 267.995 279.233 267.659 278.617 267.659C277.861 267.659 277.455 268.107 277.455 268.653C277.455 270.235 280.997 269.731 280.997 272.139C280.983 273.455 279.933 274.281 278.617 274.281C277.497 274.281 276.615 273.833 275.971 273.035ZM289.955 273.161C290.823 273.161 291.537 272.741 291.971 272.125L292.909 272.839C292.251 273.721 291.229 274.281 289.941 274.281C287.603 274.281 286.105 272.531 286.105 270.473C286.105 268.415 287.603 266.665 289.941 266.665C291.215 266.665 292.251 267.239 292.909 268.107L291.971 268.821C291.537 268.205 290.823 267.785 289.941 267.785C288.429 267.785 287.351 268.975 287.351 270.473C287.351 271.985 288.429 273.161 289.955 273.161ZM297.488 266.665C299.756 266.665 301.31 268.415 301.31 270.473C301.31 272.531 299.756 274.281 297.488 274.281C295.206 274.281 293.666 272.531 293.666 270.473C293.666 268.415 295.206 266.665 297.488 266.665ZM297.502 273.161C298.972 273.161 300.05 271.929 300.05 270.473C300.05 269.003 298.972 267.785 297.502 267.785C295.99 267.785 294.912 269.003 294.912 270.473C294.912 271.943 295.99 273.161 297.502 273.161ZM303.223 274.001V263.501H304.413V274.001H303.223ZM306.928 274.001V263.501H308.118V274.001H306.928ZM316.905 272.839C316.247 273.721 315.197 274.281 313.881 274.281C311.501 274.281 310.031 272.531 310.031 270.473C310.031 268.331 311.403 266.665 313.587 266.665C315.505 266.665 316.751 268.009 316.751 269.745C316.751 270.025 316.709 270.291 316.667 270.487H311.249C311.291 272.181 312.369 273.203 313.881 273.203C314.791 273.203 315.561 272.783 316.023 272.153L316.905 272.839ZM313.559 267.673C312.397 267.673 311.585 268.359 311.333 269.577H315.561C315.519 268.541 314.805 267.673 313.559 267.673ZM321.988 273.161C322.856 273.161 323.57 272.741 324.004 272.125L324.942 272.839C324.284 273.721 323.262 274.281 321.974 274.281C319.636 274.281 318.138 272.531 318.138 270.473C318.138 268.415 319.636 266.665 321.974 266.665C323.248 266.665 324.284 267.239 324.942 268.107L324.004 268.821C323.57 268.205 322.856 267.785 321.974 267.785C320.462 267.785 319.384 268.975 319.384 270.473C319.384 271.985 320.462 273.161 321.988 273.161ZM326.953 271.635V268.023H325.623V266.945H326.953V265.181H328.157V266.945H330.607V268.023H328.157V271.635C328.157 272.741 328.717 273.049 329.571 273.049C330.033 273.049 330.355 272.993 330.621 272.881V273.945C330.285 274.085 329.907 274.141 329.403 274.141C327.835 274.141 326.953 273.357 326.953 271.635ZM333.028 265.111C332.566 265.111 332.188 264.733 332.188 264.271C332.188 263.823 332.566 263.445 333.028 263.445C333.49 263.445 333.854 263.823 333.854 264.271C333.854 264.733 333.49 265.111 333.028 265.111ZM332.426 274.001V266.945H333.616V274.001H332.426ZM339.351 266.665C341.619 266.665 343.173 268.415 343.173 270.473C343.173 272.531 341.619 274.281 339.351 274.281C337.069 274.281 335.529 272.531 335.529 270.473C335.529 268.415 337.069 266.665 339.351 266.665ZM339.365 273.161C340.835 273.161 341.913 271.929 341.913 270.473C341.913 269.003 340.835 267.785 339.365 267.785C337.853 267.785 336.775 269.003 336.775 270.473C336.775 271.943 337.853 273.161 339.365 273.161ZM345.086 274.001V266.945H346.276V267.743C346.85 267.113 347.578 266.665 348.628 266.665C350.21 266.665 351.386 267.729 351.386 269.731V274.001H350.196V269.773C350.196 268.513 349.482 267.785 348.39 267.785C347.368 267.785 346.724 268.373 346.276 269.115V274.001H345.086ZM353.025 273.035L353.865 272.321C354.355 272.937 354.943 273.287 355.657 273.287C356.441 273.287 356.889 272.811 356.889 272.195C356.889 270.613 353.361 271.173 353.361 268.681C353.361 267.575 354.299 266.665 355.657 266.665C356.665 266.665 357.533 267.141 358.023 267.827L357.197 268.527C356.819 267.995 356.287 267.659 355.671 267.659C354.915 267.659 354.509 268.107 354.509 268.653C354.509 270.235 358.051 269.731 358.051 272.139C358.037 273.455 356.987 274.281 355.671 274.281C354.551 274.281 353.669 273.833 353.025 273.035Z" fill="#161616"/>
<path d="M392.554 274V264.2H394.234L397.23 269.142L400.226 264.2H401.906V274H400.59V265.964L397.734 270.64H396.726L393.87 265.964V274H392.554ZM410.919 272.838C410.261 273.72 409.211 274.28 407.895 274.28C405.515 274.28 404.045 272.53 404.045 270.472C404.045 268.33 405.417 266.664 407.601 266.664C409.519 266.664 410.765 268.008 410.765 269.744C410.765 270.024 410.723 270.29 410.681 270.486H405.263C405.305 272.18 406.383 273.202 407.895 273.202C408.805 273.202 409.575 272.782 410.037 272.152L410.919 272.838ZM407.573 267.672C406.411 267.672 405.599 268.358 405.347 269.576H409.575C409.533 268.54 408.819 267.672 407.573 267.672ZM411.971 273.034L412.811 272.32C413.301 272.936 413.889 273.286 414.603 273.286C415.387 273.286 415.835 272.81 415.835 272.194C415.835 270.612 412.307 271.172 412.307 268.68C412.307 267.574 413.245 266.664 414.603 266.664C415.611 266.664 416.479 267.14 416.969 267.826L416.143 268.526C415.765 267.994 415.233 267.658 414.617 267.658C413.861 267.658 413.455 268.106 413.455 268.652C413.455 270.234 416.997 269.73 416.997 272.138C416.983 273.454 415.933 274.28 414.617 274.28C413.497 274.28 412.615 273.832 411.971 273.034ZM430.029 270.472C430.029 272.53 428.615 274.28 426.403 274.28C425.353 274.28 424.527 273.874 423.897 273.16V274H422.707V263.5H423.897V267.784C424.527 267.07 425.353 266.664 426.403 266.664C428.615 266.664 430.029 268.414 430.029 270.472ZM426.263 267.784C425.283 267.784 424.415 268.26 423.897 269.086V271.858C424.443 272.698 425.297 273.16 426.263 273.16C427.761 273.16 428.783 271.97 428.783 270.472C428.783 268.974 427.761 267.784 426.263 267.784ZM433.881 274.196C432.495 274.196 431.557 273.426 431.557 272.222C431.557 271.158 432.369 270.402 433.867 270.15L436.247 269.758V269.268C436.247 268.288 435.547 267.728 434.539 267.728C433.727 267.728 433.069 268.106 432.635 268.708L431.739 268.022C432.355 267.182 433.349 266.664 434.581 266.664C436.373 266.664 437.437 267.714 437.437 269.268V274H436.247V273.104C435.715 273.79 434.791 274.196 433.881 274.196ZM432.761 272.18C432.761 272.782 433.251 273.216 434.077 273.216C435.015 273.216 435.785 272.768 436.247 272.012V270.626L434.161 270.976C433.195 271.144 432.761 271.578 432.761 272.18ZM439.068 273.034L439.908 272.32C440.398 272.936 440.986 273.286 441.7 273.286C442.484 273.286 442.932 272.81 442.932 272.194C442.932 270.612 439.404 271.172 439.404 268.68C439.404 267.574 440.342 266.664 441.7 266.664C442.708 266.664 443.576 267.14 444.066 267.826L443.24 268.526C442.862 267.994 442.33 267.658 441.714 267.658C440.958 267.658 440.552 268.106 440.552 268.652C440.552 270.234 444.094 269.73 444.094 272.138C444.08 273.454 443.03 274.28 441.714 274.28C440.594 274.28 439.712 273.832 439.068 273.034ZM452.221 272.838C451.563 273.72 450.513 274.28 449.197 274.28C446.817 274.28 445.347 272.53 445.347 270.472C445.347 268.33 446.719 266.664 448.903 266.664C450.821 266.664 452.067 268.008 452.067 269.744C452.067 270.024 452.025 270.29 451.983 270.486H446.565C446.607 272.18 447.685 273.202 449.197 273.202C450.107 273.202 450.877 272.782 451.339 272.152L452.221 272.838ZM448.875 267.672C447.713 267.672 446.901 268.358 446.649 269.576H450.877C450.835 268.54 450.121 267.672 448.875 267.672ZM453.274 273.034L454.114 272.32C454.604 272.936 455.192 273.286 455.906 273.286C456.69 273.286 457.138 272.81 457.138 272.194C457.138 270.612 453.61 271.172 453.61 268.68C453.61 267.574 454.548 266.664 455.906 266.664C456.914 266.664 457.782 267.14 458.272 267.826L457.446 268.526C457.068 267.994 456.536 267.658 455.92 267.658C455.164 267.658 454.758 268.106 454.758 268.652C454.758 270.234 458.3 269.73 458.3 272.138C458.286 273.454 457.236 274.28 455.92 274.28C454.8 274.28 453.918 273.832 453.274 273.034Z" fill="#161616"/>
<path d="M492.554 274.001V264.201H494.234L497.23 269.143L500.226 264.201H501.906V274.001H500.59V265.965L497.734 270.641H496.726L493.87 265.965V274.001H492.554ZM510.919 272.839C510.261 273.721 509.211 274.281 507.895 274.281C505.515 274.281 504.045 272.531 504.045 270.473C504.045 268.331 505.417 266.665 507.601 266.665C509.519 266.665 510.765 268.009 510.765 269.745C510.765 270.025 510.723 270.291 510.681 270.487H505.263C505.305 272.181 506.383 273.203 507.895 273.203C508.805 273.203 509.575 272.783 510.037 272.153L510.919 272.839ZM507.573 267.673C506.411 267.673 505.599 268.359 505.347 269.577H509.575C509.533 268.541 508.819 267.673 507.573 267.673ZM511.971 273.035L512.811 272.321C513.301 272.937 513.889 273.287 514.603 273.287C515.387 273.287 515.835 272.811 515.835 272.195C515.835 270.613 512.307 271.173 512.307 268.681C512.307 267.575 513.245 266.665 514.603 266.665C515.611 266.665 516.479 267.141 516.969 267.827L516.143 268.527C515.765 267.995 515.233 267.659 514.617 267.659C513.861 267.659 513.455 268.107 513.455 268.653C513.455 270.235 516.997 269.731 516.997 272.139C516.983 273.455 515.933 274.281 514.617 274.281C513.497 274.281 512.615 273.833 511.971 273.035ZM521.951 273.035L522.791 272.321C523.281 272.937 523.869 273.287 524.583 273.287C525.367 273.287 525.815 272.811 525.815 272.195C525.815 270.613 522.287 271.173 522.287 268.681C522.287 267.575 523.225 266.665 524.583 266.665C525.591 266.665 526.459 267.141 526.949 267.827L526.123 268.527C525.745 267.995 525.213 267.659 524.597 267.659C523.841 267.659 523.435 268.107 523.435 268.653C523.435 270.235 526.977 269.731 526.977 272.139C526.963 273.455 525.913 274.281 524.597 274.281C523.477 274.281 522.595 273.833 521.951 273.035ZM533.828 270.977V266.945H535.018V270.935C535.018 273.049 533.8 274.281 531.882 274.281C529.978 274.281 528.76 273.049 528.76 270.935V266.945H529.95V270.977C529.95 272.363 530.692 273.161 531.896 273.161C533.072 273.161 533.828 272.363 533.828 270.977ZM537.966 265.111C537.504 265.111 537.126 264.733 537.126 264.271C537.126 263.823 537.504 263.445 537.966 263.445C538.428 263.445 538.792 263.823 538.792 264.271C538.792 264.733 538.428 265.111 537.966 265.111ZM537.364 274.001V266.945H538.554V274.001H537.364ZM540.005 266.945H541.293L543.547 272.755L545.801 266.945H547.089L544.331 274.001H542.763L540.005 266.945ZM549.149 265.111C548.687 265.111 548.309 264.733 548.309 264.271C548.309 263.823 548.687 263.445 549.149 263.445C549.611 263.445 549.975 263.823 549.975 264.271C549.975 264.733 549.611 265.111 549.149 265.111ZM548.547 274.001V266.945H549.737V274.001H548.547ZM551.442 273.035L552.282 272.321C552.772 272.937 553.36 273.287 554.074 273.287C554.858 273.287 555.306 272.811 555.306 272.195C555.306 270.613 551.778 271.173 551.778 268.681C551.778 267.575 552.716 266.665 554.074 266.665C555.082 266.665 555.95 267.141 556.44 267.827L555.614 268.527C555.236 267.995 554.704 267.659 554.088 267.659C553.332 267.659 552.926 268.107 552.926 268.653C552.926 270.235 556.468 269.731 556.468 272.139C556.454 273.455 555.404 274.281 554.088 274.281C552.968 274.281 552.086 273.833 551.442 273.035Z" fill="#161616"/>
<path d="M95.8838 358V338.4H100.84L105.628 346.632L110.416 338.4H115.372V358H111.396V343.944L107.028 351.28H104.228L99.8598 343.944V358H95.8838ZM133.167 355.704C131.851 357.468 129.667 358.56 127.007 358.56C121.995 358.56 119.167 355.06 119.167 350.944C119.167 346.772 121.799 343.328 126.419 343.328C130.339 343.328 132.915 345.988 132.915 349.684C132.915 350.468 132.803 351.196 132.691 351.672H122.807C123.143 354.304 124.767 355.368 126.979 355.368C128.519 355.368 129.863 354.696 130.619 353.688L133.167 355.704ZM126.335 346.24C124.515 346.24 123.311 347.248 122.919 349.096H129.415C129.359 347.668 128.323 346.24 126.335 346.24ZM134.966 355.956L137.318 353.828C138.186 354.92 139.222 355.704 140.566 355.704C141.714 355.704 142.302 355.032 142.302 354.192C142.302 351.728 135.554 352.652 135.554 347.696C135.554 345.204 137.654 343.328 140.594 343.328C142.75 343.328 144.71 344.364 145.718 345.736L143.366 347.808C142.638 346.912 141.714 346.184 140.622 346.184C139.502 346.184 138.97 346.8 138.97 347.528C138.97 349.936 145.718 349.096 145.718 353.968C145.662 356.936 143.282 358.56 140.622 358.56C138.102 358.56 136.31 357.552 134.966 355.956ZM156.542 358V343.888H160.098V345.288C161.022 344.336 162.226 343.608 163.822 343.608C164.298 343.608 164.718 343.692 165.054 343.804V347.304C164.606 347.192 164.13 347.108 163.486 347.108C161.75 347.108 160.63 348.06 160.098 348.956V358H156.542ZM180.308 355.704C178.992 357.468 176.808 358.56 174.148 358.56C169.136 358.56 166.308 355.06 166.308 350.944C166.308 346.772 168.94 343.328 173.56 343.328C177.48 343.328 180.056 345.988 180.056 349.684C180.056 350.468 179.944 351.196 179.832 351.672H169.948C170.284 354.304 171.908 355.368 174.12 355.368C175.66 355.368 177.004 354.696 177.76 353.688L180.308 355.704ZM173.476 346.24C171.656 346.24 170.452 347.248 170.06 349.096H176.556C176.5 347.668 175.464 346.24 173.476 346.24ZM182.107 355.956L184.459 353.828C185.327 354.92 186.363 355.704 187.707 355.704C188.855 355.704 189.443 355.032 189.443 354.192C189.443 351.728 182.695 352.652 182.695 347.696C182.695 345.204 184.795 343.328 187.735 343.328C189.891 343.328 191.851 344.364 192.859 345.736L190.507 347.808C189.779 346.912 188.855 346.184 187.763 346.184C186.643 346.184 186.111 346.8 186.111 347.528C186.111 349.936 192.859 349.096 192.859 353.968C192.803 356.936 190.423 358.56 187.763 358.56C185.243 358.56 183.451 357.552 182.107 355.956ZM194.712 355.956L197.064 353.828C197.932 354.92 198.968 355.704 200.312 355.704C201.46 355.704 202.048 355.032 202.048 354.192C202.048 351.728 195.3 352.652 195.3 347.696C195.3 345.204 197.4 343.328 200.34 343.328C202.496 343.328 204.456 344.364 205.464 345.736L203.112 347.808C202.384 346.912 201.46 346.184 200.368 346.184C199.248 346.184 198.716 346.8 198.716 347.528C198.716 349.936 205.464 349.096 205.464 353.968C205.408 356.936 203.028 358.56 200.368 358.56C197.848 358.56 196.056 357.552 194.712 355.956ZM215.407 343.328C219.999 343.328 223.135 346.716 223.135 350.944C223.135 355.172 219.999 358.56 215.407 358.56C210.815 358.56 207.679 355.172 207.679 350.944C207.679 346.716 210.815 343.328 215.407 343.328ZM215.463 355.2C217.731 355.2 219.439 353.38 219.439 350.944C219.439 348.48 217.731 346.688 215.463 346.688C213.111 346.688 211.375 348.48 211.375 350.944C211.375 353.408 213.111 355.2 215.463 355.2ZM235.674 351.896V343.888H239.258V351.728C239.258 355.956 236.794 358.56 232.65 358.56C228.506 358.56 226.07 355.956 226.07 351.728V343.888H229.654V351.896C229.654 353.94 230.718 355.2 232.678 355.2C234.61 355.2 235.674 353.94 235.674 351.896ZM243.194 358V343.888H246.75V345.288C247.674 344.336 248.878 343.608 250.474 343.608C250.95 343.608 251.37 343.692 251.706 343.804V347.304C251.258 347.192 250.782 347.108 250.138 347.108C248.402 347.108 247.282 348.06 246.75 348.956V358H243.194ZM260.744 355.2C262.144 355.2 263.264 354.556 263.936 353.576L266.708 355.704C265.392 357.44 263.32 358.56 260.744 358.56C255.872 358.56 252.96 355.06 252.96 350.944C252.96 346.828 255.872 343.328 260.744 343.328C263.32 343.328 265.392 344.448 266.708 346.184L263.936 348.312C263.264 347.332 262.144 346.688 260.688 346.688C258.364 346.688 256.656 348.48 256.656 350.944C256.656 353.436 258.364 355.2 260.744 355.2ZM281.808 355.704C280.492 357.468 278.308 358.56 275.648 358.56C270.636 358.56 267.808 355.06 267.808 350.944C267.808 346.772 270.44 343.328 275.06 343.328C278.98 343.328 281.556 345.988 281.556 349.684C281.556 350.468 281.444 351.196 281.332 351.672H271.448C271.784 354.304 273.408 355.368 275.62 355.368C277.16 355.368 278.504 354.696 279.26 353.688L281.808 355.704ZM274.976 346.24C273.156 346.24 271.952 347.248 271.56 349.096H278.056C278 347.668 276.964 346.24 274.976 346.24ZM283.607 355.956L285.959 353.828C286.827 354.92 287.863 355.704 289.207 355.704C290.355 355.704 290.943 355.032 290.943 354.192C290.943 351.728 284.195 352.652 284.195 347.696C284.195 345.204 286.295 343.328 289.235 343.328C291.391 343.328 293.351 344.364 294.359 345.736L292.007 347.808C291.279 346.912 290.355 346.184 289.263 346.184C288.143 346.184 287.611 346.8 287.611 347.528C287.611 349.936 294.359 349.096 294.359 353.968C294.303 356.936 291.923 358.56 289.263 358.56C286.743 358.56 284.951 357.552 283.607 355.956ZM305.824 353.324C304.452 353.324 303.36 352.232 303.36 350.888C303.36 349.572 304.452 348.452 305.824 348.452C307.14 348.452 308.288 349.572 308.288 350.888C308.288 352.232 307.14 353.324 305.824 353.324ZM317.694 358V354.584L324.414 347.976C325.926 346.436 326.878 345.372 326.878 343.776C326.878 342.152 325.758 341.2 324.218 341.2C322.342 341.2 321.194 342.348 320.158 344.084L317.078 342.208C318.73 339.52 321.166 337.84 324.582 337.84C327.998 337.84 330.742 340.024 330.742 343.384C330.742 346.072 328.978 348.144 327.046 350.02L322.314 354.584H331.246V358H317.694ZM340.986 337.84C345.382 337.84 347.622 340.36 347.622 343.132C347.622 344.924 346.754 346.464 345.046 347.388C347.286 348.312 348.49 350.132 348.49 352.512C348.49 355.928 345.858 358.56 340.986 358.56C336.142 358.56 333.482 355.928 333.482 352.512C333.482 350.132 334.686 348.312 336.954 347.388C335.218 346.464 334.35 344.924 334.35 343.132C334.35 340.36 336.618 337.84 340.986 337.84ZM341.042 345.96C342.666 345.96 343.73 345.008 343.73 343.552C343.73 342.068 342.666 341.088 341.042 341.088C339.278 341.088 338.242 342.068 338.242 343.552C338.242 345.008 339.306 345.96 341.042 345.96ZM341.014 355.284C343.226 355.284 344.598 354.108 344.598 352.316C344.598 350.468 343.226 349.208 341.014 349.208C338.774 349.208 337.374 350.468 337.374 352.316C337.374 354.136 338.774 355.284 341.014 355.284Z" fill="#161616"/>
<path fill-rule="evenodd" clip-rule="evenodd" d="M681 397H93V396H681V397Z" fill="#E8EDFF"/>
<path d="M109 445C117.837 445 125 437.837 125 429C125 420.163 117.837 413 109 413C100.163 413 93 420.163 93 429C93 437.837 100.163 445 109 445Z" fill="#E8EDFF"/>
<path d="M253 423H133V435H253V423Z" fill="#E8EDFF"/>
<path d="M453 461H93V477H453V461Z" fill="#E8EDFF"/>
<path d="M453 489H93V505H453V489Z" fill="#E8EDFF"/>
<path d="M453 517H93V533H453V517Z" fill="#E8EDFF"/>
<path d="M405 545H93V561H405V545Z" fill="#E8EDFF"/>
<path d="M405 573H93V589H405V573Z" fill="#E8EDFF"/>
<path d="M681 461H501V601H681V461Z" fill="#E8EDFF"/>
<path d="M333 625H93V641H333V625Z" fill="#E8EDFF"/>
<path fill-rule="evenodd" clip-rule="evenodd" d="M681 682H93V681H681V682Z" fill="#E8EDFF"/>
<path d="M109 730C117.837 730 125 722.837 125 714C125 705.163 117.837 698 109 698C100.163 698 93 705.163 93 714C93 722.837 100.163 730 109 730Z" fill="#E8EDFF"/>
<path d="M253 708H133V720H253V708Z" fill="#E8EDFF"/>
<path d="M453 746H93V762H453V746Z" fill="#E8EDFF"/>
<path d="M681 746H501V886H681V746Z" fill="#E8EDFF"/>
</g>
</g>
</g>
<defs>
<clipPath id="clip0_6914_29099">
<rect width="584" height="772" fill="white"/>
</clipPath>
<clipPath id="clip1_6914_29099">
<rect width="774" height="1419" rx="16" fill="white"/>
</clipPath>
</defs>
</svg>
