<svg id="Calque_1" viewBox="0 0 753.551 703.617" version="1.1" width="753.551" height="703.617" xmlns="http://www.w3.org/2000/svg"><defs id="defs9"><linearGradient id="Dégradé_sans_nom_3" x1="687.42" y1="1310.82" x2="826.64" y2="1310.82" gradientTransform="matrix(1 0 0 .92 -776.74 -373.263)" gradientUnits="userSpaceOnUse"><stop offset="0" stop-color="#0c008a" id="stop2"/><stop offset="1" stop-color="#615feb" id="stop4"/></linearGradient><style id="style7">.cls-6{stroke-width:0;fill:#f49a01}</style></defs><rect x="-89.311" y="703.357" width="139.22" height="261.61" rx="5.96" ry="5.96" transform="rotate(-48.52)" style="fill:url(#D%C3%A9grad%C3%A9_sans_nom_3);stroke-width:0" id="rect11"/><path style="fill:#827ca4;stroke-width:0" d="m417.18 451.08 70.68 59.14 52.16-58.98-72.69-60.19z" id="path13"/><path d="M268.24 0C120.09 0 0 120.1 0 268.24s120.1 268.24 268.24 268.24 268.24-120.1 268.24-268.24S416.39 0 268.24 0m0 477.98c-118.47 0-214.5-96.04-214.5-214.5s96.04-214.5 214.5-214.5 214.5 96.04 214.5 214.5-96.04 214.5-214.5 214.5" style="fill:#0c008a;stroke-width:0" id="path15"/><path class="cls-6" d="M120.45 417.09s26.6-122.92 155.2-122.92 140.38 122.92 140.38 122.92-57.01 60.96-147.79 60.88-147.79-60.88-147.79-60.88" id="path17"/><circle class="cls-6" cx="275.65" cy="234.16" r="77.29" id="circle19"/><circle cx="300.2" cy="557.94" r="124.7" style="fill:#dc000f;stroke-width:0" id="circle21"/><path d="M372.54 76.02 77.22 361.08l25.37 38.68 313.44-291.74s-19.61-20.57-43.49-32m70.71 70.7L147.93 431.78l25.37 38.68 313.44-291.74s-19.61-20.57-43.49-32" style="opacity:.18;fill:#fff;stroke-width:0" id="path23"/><circle cx="270.06" cy="557.94" r="124.7" style="fill:#f4849a;stroke-width:0" id="circle25"/><path d="m210.54 553.9 9.01-10.19c2.83-3.2 7.7-3.54 10.95-.77l24.75 21.14c1.03.88 2.55.82 3.51-.13l70.58-69.56c3.12-3.08 8.16-2.99 11.18.19l10.28 10.83a7.84 7.84 0 0 1-.02 10.8l-82.63 86.48c-5.15 5.39-13.72 5.48-18.99.22l-38.29-38.29a7.823 7.823 0 0 1-.33-10.72" style="fill:#fff;stroke-width:0" id="path27"/></svg>
