<svg xmlns="http://www.w3.org/2000/svg" viewBox="0 0 1920 1080"><defs><clipPath id="clippath"><path class="cls-1" d="M945.54 284.34h334.84v255.41H945.54z"/></clipPath><clipPath id="clippath-1"><path class="cls-1" d="M462.01 291.88c107.38 0 194.43 89.36 194.43 199.59s-87.05 199.59-194.43 199.59z"/></clipPath><clipPath id="clippath-2"><path class="cls-1" d="M945.54 545.99h119.67v243.74H945.54z"/></clipPath><clipPath id="clippath-3"><path class="cls-1" d="M-.35 0h1920v1080H-.35z"/></clipPath><clipPath id="clippath-4"><path class="cls-1" d="M-.35 0h1920v1080H-.35z"/></clipPath><style>.cls-1,.cls-3,.cls-5{fill:none}.cls-3,.cls-5{stroke-miterlimit:10;stroke-width:2px}.cls-13{fill:#f4869b}.cls-3{stroke:#c82a23}.cls-18{fill:#0c008a}.cls-19{fill:#fff}.cls-5{stroke:#cfcff9}.cls-21{fill:#ffc2c8}</style></defs><path style="fill:#5f5fe0" id="Calque_15" d="M-.35 0h1920v1080H-.35z"/><path d="M462.01 303.15c0-6.3 5.31-11.3 11.6-10.92 101.98 6.16 182.84 93.01 182.84 199.24S575.6 684.55 473.61 690.71c-6.29.38-11.6-4.62-11.6-10.92V303.14Z" style="fill:#0a0081" id="Calque_14"/><path d="M462.01 284.34c112.91 0 204.44 92.74 204.44 207.13S574.92 698.6 462.01 698.6h466.32c6.04 0 10.93-4.89 10.93-10.93v-392.4c0-6.04-4.89-10.93-10.93-10.93z" style="fill:#9a9af6" id="Calque_13"/><path d="m887.22 866.05 9.77-61.34c.95-5.96-3.11-11.56-9.07-12.51L438.2 720.55c-5.96-.95-11.56 3.11-12.51 9.07l-9.77 61.34c-1.05 6.59 3.44 12.78 10.03 13.83l447.45 71.29c6.59 1.05 12.78-3.44 13.83-10.03Z" style="fill:#c82a23" id="Calque_12"/><rect x="945.54" y="284.34" width="334.84" height="255.41" rx="10.93" ry="10.93" style="fill:#e69e37" id="Calque_11"/><g style="clip-path:url(#clippath)" id="Calque_10"><path class="cls-3" d="M924.86 383.22s30.14-68.17 86.82-68.17 34.44 81.08 97.59 78.21c63.14-2.87 73.91-109.79 195.18-116.96 121.27-7.18-91.13 47.6-88.98 135.74s85.39 79.43 85.39 79.43"/><path class="cls-3" d="M934.34 433.81s42.52-46.06 87.87-41.81 104.16 23.39 150.58 55.28c46.43 31.89 25.87 107.01 25.87 107.01"/><path class="cls-3" d="M932.92 450.82s57.4-36.14 104.88-3.54 3.54 96.38 3.54 96.38m27.7 2.37s21.01-64.74 59.06-64.74 40.32 64.74 40.32 64.74m-127.78-283.72s17.01 81.5 62.36 75.12 74.41-75.12 74.41-75.12"/></g><g style="clip-path:url(#clippath-1)" id="Calque_9"><path style="fill:none;stroke-miterlimit:10;stroke-width:2px;stroke:#5f5fe0" d="m414.1 367.81 228.81-136-189.61 196.8 189.61-84-114.4 142.4 255.2 14.4-348.81 57.6 234.25 50.4-239.85 8 176.81 36.8"/></g><rect class="cls-19" x="945.54" y="545.99" width="119.67" height="243.74" rx="10.93" ry="10.93" id="Calque_8"/><g style="clip-path:url(#clippath-2)" id="Calque_7"><path class="cls-5" d="M939.27 558.74s31.38 7.87 33.63 39.34-23.04 77.09-8.43 106.54 28.02 69.91-4.82 95.2m60.34-2.38s-35.1-44.97-19.74-84.46 76.23-59.23 80.07-86.1-33.14-80.69-83.96-83.91"/><path class="cls-5" d="M978.86 543.51s71.3 38.94 56.49 78.97c-14.81 40.04-48.26 25.23-46.62 0s-4.4-77.33-29.07-78.97m112.52 227.03s-56.84-32.32-42-62 54.58-30.73 54.58-30.73"/></g><g style="clip-path:url(#clippath-3)" id="Calque_6"><path class="cls-13" d="M660.09 1022.43s11.41 19.45 0 38.9c-11.4 19.45-24.53 34.09-46.46 54.35-21.93 20.25-97.64 61.24-135.43 88.62s-133.64 85.06-133.64 85.06l-146.91-177.08 162.95-96.73a54.74 54.74 0 0 0 25.41-34.81c1.97-8.54 4.43-19.01 7.26-30.56 7.45-30.4 43.95-62.87 43.95-62.87l84.2-75.65c22.14-20.14 38.72 7.13 36.17 24.57-4.16 28.45-22.93 54.48-33.06 67.2-3.61 4.53-20.64 28.44-19.4 34.1 0 0 63.28-30.36 99.78-54.46s87.97-60.62 108.78-66.83 34.06-2.02 32.6 12.41-119.83 116.48-142.83 149.34l56.62 44.43"/><path class="cls-21" d="M544.66 812.37c5.71 7.41 3.4 21.08-8.28 34.99-11.73 13.97-22.88 4.46-28.6-2.95-5.71-7.41-6.83-13.46 6.1-25.9 12.94-12.45 25.06-13.55 30.77-6.14Z"/><path class="cls-19" d="M503.75 835.79s11.61-6.24 24.95 17.68c0 0-8.47 4.18-17.24-4.91-8.32-8.63-7.71-12.76-7.71-12.76Z"/><path class="cls-13" d="M615.08 1022.44s59.05-57.3 62.23-79.58-6.3-34.94-6.3-34.94l-75.43 74.58"/><path class="cls-13" d="M623.93 1067s38.19-39.26 44.2-61.19-4.75-37.15-4.75-37.15l-50.55 56.8"/><path d="M604.91 883.08s-33.09-1.24-39.41.35c-9.31 2.35-14.3 17.99-2.31 24.27l41.72-24.63Z" style="fill:#dc4e73"/><path class="cls-21" d="M709.94 848.6c-4.95-5.94-4.3-13.75 4.89-21.41 9.19-7.65 20.65-9.04 25.6-3.1s.97 14.52-8.22 22.17-17.32 8.27-22.27 2.33Z"/><path class="cls-19" d="M707.51 836.9c10.77 5.81 12.54 15.56 12.54 15.56s-6.77 1.69-10.73-4.67-1.8-10.89-1.8-10.89Z"/><path class="cls-18" d="M391.08 1269.56c-3.93 1.8-8.03 3.06-12.25 3.83-42.85 7.74-98.65-36.48-130.47-106.17-34.95-76.55-27.72-154.85 16.16-174.88 43.87-20.03 107.77 25.79 142.72 102.34s27.72 154.85-16.16 174.88"/><path class="cls-18" d="M264.51 992.34-74 1162.59l393.89 192.35 82.73-92.64"/><path d="m671.01 907.91-62.44 61.73m54.35-1.3-50.1 57.11m47.3-3.58L623.93 1067" style="fill:none;stroke-miterlimit:10;stroke-width:2px;stroke-linecap:round;stroke:#dc4e73"/></g><rect x="1350.85" y="284.34" width="169.03" height="505.4" rx="10.93" ry="10.93" transform="rotate(-6.48 1436.14 537.276)" style="fill:#0a0082" id="Calque_5"/><rect x="1072.18" y="545.99" width="208.21" height="243.74" rx="10.93" ry="10.93" style="fill:#cfcff9" id="Calque_4"/><g style="clip-path:url(#clippath-4)" id="Calque_3"><path d="M1386.11 464.89c1.01 8 8.46 13.57 16.42 12.29l22.98-3.71-26.48 6.01c-6.1 1.38-10.19 7.14-9.47 13.36.77 6.73 6.85 11.56 13.58 10.79l190.91-21.78s-61.35 34.24-75.76 40.17c-9.33 3.84-29.43 14.71-42.45 21.9-6.42 3.54-8.24 11.92-3.87 17.81 3.05 4.12 8.36 5.87 13.26 4.37 20.9-6.38 75.83-23.4 93.14-31.17 21.53-9.67 48.62-22.2 48.62-22.2l-75.3 46.82c-5.47 3.4-6.91 10.73-3.14 15.94 2.9 4.01 8.09 5.62 12.74 3.95l193.08-69.04L2083.82 385l-147.81-165.78-202.75 97.79.76-1.19a43.85 43.85 0 0 1-34.49 1.36c-6.56-2.51-14.62-5.54-23.56-8.81-23.54-8.62-61.42 1.16-61.42 1.16l-87.89 22.22c-23.28 5.73-12.54 28.93.19 35.01 20.77 9.93 46.47 9.07 59.44 8.02 4.18-.34 23.77-.9 29.88 1.46-16.99 9.95-42 23.21-63.76 29.3-30.36 8.49-123.02 34.56-156.01 43.84-6.8 1.91-11.16 8.51-10.28 15.51Z" style="fill:#b47a81"/><path style="fill:none;stroke:#000;stroke-miterlimit:10;stroke-width:2px;stroke-linecap:round" d="m1400.7 478.31 179.64-32.17"/><path class="cls-21" d="M1418.03 461.53c1.58 5.63-1.27 10.81-9.97 13.26s-17.03-.13-18.62-5.76c-1.58-5.63 3.81-10.32 12.51-12.76s14.5-.37 16.08 5.26"/><path class="cls-19" d="M1416.1 470.35c-5.64-7.33-3.85-14.6-3.85-14.6s5.19.92 5.97 6.53c.77 5.61-2.11 8.07-2.11 8.07Z"/><path class="cls-21" d="M1421.16 488.17c1.58 5.63-1.27 10.81-9.97 13.26s-17.03-.13-18.62-5.76 3.81-10.32 12.51-12.76 14.5-.37 16.08 5.26"/><path class="cls-19" d="M1419.23 496.99c-5.64-7.33-3.85-14.6-3.85-14.6s5.19.92 5.97 6.53-2.11 8.07-2.11 8.07Z"/><path class="cls-21" d="M1499.07 551.45c1.47 5.23-1.19 10.06-9.28 12.34s-15.85-.12-17.32-5.36c-1.47-5.23 3.54-9.6 11.64-11.87 8.09-2.28 13.49-.34 14.96 4.89"/><path class="cls-19" d="M1497.27 559.65c-5.24-6.82-3.58-13.59-3.58-13.59s4.83.86 5.55 6.08-1.97 7.51-1.97 7.51"/><path class="cls-21" d="M1573.32 563.19c2.22 4.58.56 9.47-6.52 12.89-7.08 3.43-14.62 2.49-16.84-2.09s1.69-9.43 8.77-12.85c7.08-3.43 12.38-2.53 14.59 2.05"/><path class="cls-19" d="M1573.01 571.04c-5.95-5.42-5.53-11.93-5.53-11.93s4.59 0 6.11 4.69-.58 7.24-.58 7.24"/><path class="cls-21" d="M1518.45 347.83c1.75 7.7 12.34 14.13 28.45 15.03 16.19.91 16.14-11.29 14.39-18.99s-5.2-11.84-21.05-11.14-23.54 7.4-21.79 15.1"/><path class="cls-19" d="M1557.76 336.5s-10.88 3.45-2.32 25.22c0 0 7.69-2.73 6.55-13.24-1.08-9.98-4.23-11.97-4.23-11.97Z"/></g><path d="M1858.93 470.6c-5.37 20.21-15.52 34.13-29.46 37.37-29.63 6.87-65.15-37.17-79.34-98.35-14.19-61.19-1.67-116.36 27.96-123.23 5.35-1.24 10.89-.82 16.47 1.06" style="fill:none;stroke-miterlimit:10;stroke-width:2px;stroke:#fff" id="Calque_2"/></svg>
