<svg viewBox="0 0 1920 1080" version="1.1" id="svg150" width="1920" height="1080" xmlns="http://www.w3.org/2000/svg"><defs id="defs10"><clipPath id="clippath"><path class="cls-1" d="m471.43 724.27-16.4 2.05c-4.19.52-7.7 3.92-8.9 8.61l-38.67 150.48c-1.33 5.16-3.87 9.78-7.35 13.33l-16.22 16.58c-5.56 5.68-4.1 16.17 2.71 19.53l64.79 31.95c8.08 3.98 17.28-1.58 19.12-11.56l.73-3.99-2.03 11.04c-1.22 6.6 2.61 13.03 8.35 14.03l41.68 7.27c5.23.91 10.39-2.16 12.81-7.63 2.15-4.86 7.13-6.99 11.48-4.91l63.16 30.25c2.16 1.04 4.48 1.57 6.81 1.57h80.58c7.5 0 12.45-9.09 9.24-16.97l-2.72-6.68c-3.52-8.64-1.28-18.97 5.34-24.64l43.66-37.38c4.99-4.27 11.09-6.43 17.29-6.12l21.99 1.11c4.86.25 9.11-3.8 9.86-9.4l3.79-28.38s.29-1.91 1.13-3.47 2.05-2.5 2.05-2.5 1.37-.8 2.14-1.15 2.08-.47 2.08-.47l40-1-39.44.99c-4.03.1-7.42 3.55-8.04 8.18l-3.75 28.03c-.75 5.58 2.01 10.98 6.57 12.91l74.52 31.39c8.45 3.56 17.76 3.03 25.87-1.48l79.74-44.29c4.34-2.41 7.1-7.5 7.1-13.09v-8.54c0-6.78-4.04-12.66-9.73-14.15l-30.64-8.02c-4.84-1.27-8.22-6.38-8.02-12.15l.57-16.48c.18-5.32-2.68-10.14-7.02-11.83l-37.75-14.64 31.05-8.03c7.54-1.95 11.17-11.98 7.09-19.61l-22.72-42.55c-2.57-4.82-7.24-7.57-12.1-7.12l-38.09 3.45 49.38-60.54c2.7-3.31 2.25-8.64-.96-11.27l2.09 1.71c2.64 2.16 5.59 3.77 8.71 4.74l5.58 1.73c3.91 1.21 8.07-.09 10.92-3.43l1.94-2.27c2.28-2.66 3.47-6.34 3.27-10.09l-1.7-31.82c-.23-4.35 1.11-8.62 3.69-11.78l8.66-10.57c2.89-3.52.99-9.36-3.17-9.79l-72.08-7.4-92.15-26.39c-2.73-.78-5-2.98-6.15-5.96l-2.2-5.67c-1.54-3.98-5.49-5.85-8.99-4.27l-19.94 9.02-63.17-33.62-19.72-13.05c-3.26-2.16-7.05-2.98-10.76-2.35l-35.49 6.09c-4 .69-7.36 3.88-8.72 8.31l-8.06 26.16-60.06 16.93c-2.75.77-4.88 3.29-5.5 6.5l-.52 2.69c-.78 4.03-3.89 6.85-7.44 6.74l-60.42-1.86c-1.72-.05-3.43-.42-5.05-1.08l-25.62-10.49c-3.23-1.32-6.51 1.81-6.04 5.75l.77 6.36 5.99 37.24-57.19 2.44c-3 .13-5.97-.85-8.47-2.79l-9.85-7.64c-2.98-2.31-6.6-3.24-10.14-2.6l-78.67 14.18c-5.36.97-9.32 6.34-9.32 12.65v4.46c0 4.53 2.06 8.73 5.42 11.03l12.18 8.35c1 .69 2.09 1.18 3.23 1.47l89.75 22.88 24.65 43.01c2.51 4.38 6.47 7.36 10.94 8.22l29.37 5.66c2.64.51 5.32.6 7.98.26m401.34 126.52.81 1.05-.84-1.1c-2.31-3.01-1.93-7.67.83-10.11l.04-.04c-2.78 2.46-3.17 7.16-.84 10.19zm.95 1.24c.11.16.22.32.32.48-.1-.16-.2-.32-.32-.48M559.9 696.33l7.29 6.83zm152.67-80.17 22.74 19.58zm-141.59 1.62-.78 5.17zm-77.42 266.76c-6.79 2.96-11.82 9.75-13.34 18l.05-.24c1.49-8.1 6.43-14.76 13.09-17.66l67.78-29.57-67.58 29.48zm357.1-18.79c-.17.03-.34.05-.52.06.18 0 .35-.03.52-.06" id="path2"/></clipPath><clipPath id="clippath-1"><path class="cls-1" d="M1608.58 1157.03h-344.51c-7.2 0-12.52-6.69-10.91-13.7l52.43-227.64a11.19 11.19 0 0 1 10.91-8.68h344.51c7.2 0 12.52 6.69 10.91 13.7l-52.43 227.64a11.19 11.19 0 0 1-10.91 8.68" id="path5"/></clipPath><style id="style8">.cls-1,.cls-6{fill:none}.cls-7,.cls-8{fill:#5f5fe0}.cls-14{fill:#e8a037}.cls-15{fill:#fff}.cls-14,.cls-6,.cls-8{stroke-miterlimit:10;stroke:#fff}.cls-19{fill:#f5c3c9}.cls-14,.cls-6,.cls-8{stroke-width:2px}.cls-24{fill:#ceceff}</style></defs><g id="_x31__x2F_3" transform="translate(0 -286.9)"><g id="Calque_4"><path d="m613.43 606.67-13.05 7.38-6.03-8.64 19.43-11.25h11.79v62.98h-12.15v-50.47zm43.63-16.91h11.61l-20.33 85.2h-11.61zm39.23 69.27c-11.88 0-19.52-5.22-24.65-14.21l10.62-6.57c3.51 6.93 7.74 9.99 13.94 9.99s10.71-3.69 10.71-9.54-4.5-9.36-11.16-9.36H685.4v-10.8h9.54c5.31 0 9.18-2.97 9.18-7.83s-3.6-7.47-8.55-7.47-8.46 2.7-11.07 7.2l-9.9-6.12c4.59-7.47 11.7-11.88 21.86-11.88 11.52 0 20.06 6.57 20.06 16.91 0 5.85-2.52 10.8-7.2 14.03 6.39 3.24 9.9 8.91 9.9 15.83 0 11.97-9.81 19.79-22.94 19.79z" id="path12"/><path class="cls-7" d="M0 286.9h1920v1080H0Z" id="path14"/></g></g><path class="cls-19" id="Calque_44" d="M194.66 136.91h1524.02v806.17H194.66Z"/><path d="M194.66 258.56h1102.76m-1102.76 130h1102.76M194.66 510.29h1102.76m-1102.76 130h1102.76m-1102.76 130h1102.76m-1102.76 130h1102.76M961.7 139.32v803.76M833.02 139.32v803.76m257.86-803.76v803.76M712.52 139.32v803.76M583.84 139.32v803.76M455.16 139.32v803.76M326.48 139.32v803.76" style="fill:none;stroke:#e48b9c;stroke-width:2px;stroke-miterlimit:10" id="Calque_43"/><g id="carte" transform="translate(0 -286.9)"><g id="carte-2" data-name="carte"><path d="M694 1030.02h-80.41c-2.33 0-4.64-.52-6.8-1.52l-63.02-29.3c-4.33-2.01-9.31.05-11.45 4.76-2.42 5.3-7.56 8.28-12.78 7.39l-41.59-7.04c-5.73-.97-9.55-7.2-8.33-13.59l10.99-57.89c1.52-7.99 6.53-14.56 13.31-17.43l67.43-28.55c3.42-1.45 6.48-3.82 8.89-6.91l25.18-32.17c2.67-3.41 6.5-5.36 10.53-5.36h29.34l88.74 4.91 81.35 52.49s-1.2.91-2.04 2.42-1.13 3.37-1.13 3.37l-3.79 27.49c-.75 5.42-4.98 9.34-9.84 9.1l-21.95-1.08c-6.18-.3-12.27 1.79-17.25 5.93l-43.57 36.21c-6.61 5.49-8.84-9.63-5.33-1.26l3.68 1.52s.05 33.5.03 35.19c-.08 5.98-4.37 11.34-10.21 11.34z" id="path20"/><path d="m804.95 945.8 74.36 30.41c8.43 3.45 17.73 2.93 25.81-1.43l79.56-42.9c4.33-2.33 7.08-7.26 7.08-12.68v-37.58c0-6.57-4.03-12.26-9.71-13.71l-30.58 21.54c-4.83-1.23-8.2-6.18-8-11.77l.57-15.97c.18-5.16-.08-15.23-.08-15.23l-44.59-10.4-45.5 39.05c-2.78 2.38-3.16 6.93-.84 9.87l.81 1.02c3.4 4.29.78 11.12-4.32 11.24l-39.35.96c-4.02.1-7.4 3.44-8.02 7.93l-3.74 27.15c-.74 5.4 2 10.64 6.55 12.5zm-353.11 49.28-64.65-30.95c-3.8-1.82-5.93-5.8-6.1-9.91-.13-3.25.16-37.91.16-37.91l19.42 12.84c3.47-3.44 6.01-7.92 7.33-12.91l38.59-145.76c1.2-4.55 4.7-7.83 8.88-8.34l16.36-1.99c4.83-.59 7.79-6.28 5.88-11.32l-3.55-9.41c-2.03-5.39 1.47-11.37 6.66-11.37h66.65c4.59 0 9.05 1.77 12.63 5.03l24.94 22.68c3.89 3.54 8.81 5.32 13.8 4.99l53.1-3.5 7.54 34.12c1.35 6.1.55 12.56-2.22 18.01l-16.91 33.29-35.38-.24c-3.4-.02-6.64 1.61-8.89 4.49L570 880.24c-2.26 2.89-5.11 5.1-8.3 6.45l-67.98 28.78c-6.65 2.82-11.58 9.26-13.07 17.11l-9.73 51.29c-1.83 9.67-11.02 15.06-19.08 11.2z" id="path22"/><path d="m899.36 836.09 30.98-7.78c5.37-1.35 8.75-6.67 8.77-12.3v-38.64l-24.36-9.28c-2.57-4.67-7.22-7.33-12.07-6.9l-38.01 3.34-58.5-8.97c-1.96-.3-3.95-.17-5.87.37l-39.8 11.31c-5.27 1.5-10.84-.23-14.7-4.54l-14.21-15.9c-2.95-3.3-6.94-5.16-11.1-5.16h-42.64c-2.56 0-5.07.82-7.24 2.36l-18.65 13.25 7.33 33.18c1.48 6.71.61 13.8-2.44 19.8l-16.48 32.45 83.68 4.63 81.35 52.49s1.37-.78 2.14-1.11 2.08-.45 2.08-.45l40.01-.98c5.06-.12 7.66-6.89 4.29-11.15l-.91-1.15c-2.31-2.91-1.92-7.42.83-9.79l45.54-39.08z" id="path24"/><path d="m689.17 667.86-5.45 29.43c-.54 2.93-.38 5.97.46 8.81l10.54 35.54h25.97c4.03 0 7.89 1.8 10.75 5l13.74 15.37c4.24 4.74 10.37 6.64 16.15 4.99l38.68-10.99c2.11-.6 4.3-.74 6.45-.41l58.21 8.92 49.27-58.64c2.69-3.21 2.24-8.37-.96-10.91l-21.2-16.86c-2.15-1.71-4.79-2.47-7.4-2.13l-44.62 5.83c-1.62.21-3.2.73-4.67 1.52l-13.64 7.37c-5 2.7-10.91 2.01-15.31-1.78l-10.6-9.12c-2.68-2.3-5.97-3.5-9.34-3.4l-41.89 1.26c-3.3.1-6.52-1.05-9.17-3.26l-22.69-18.97-13.23 1.93c-4.99.73-9.03 4.94-10.06 10.51z" id="path26"/><path d="m771.72 577.55-19.9 8.74-39.18 49.7-.19 19.44 22.97 19.2c2.47 2.07 5.49 3.14 8.56 3.05l42.57-1.28c3.14-.09 6.22 1.03 8.71 3.18l11.36 9.77c4.11 3.54 9.63 4.18 14.29 1.66l14.33-7.74c1.37-.74 2.85-1.22 4.36-1.42l44.55-5.82c2.77-.36 5.55.44 7.83 2.25l23.09 18.37c2.64 2.1 5.58 3.65 8.69 4.59l5.57 1.68c3.9 1.17 8.05-.09 10.9-3.32l1.93-2.19c2.28-2.58 3.46-6.14 3.26-9.77l-1.7-30.82c-.23-4.22 1.1-8.35 3.69-11.41l8.64-10.23c.94-1.11 1.37-2.47 1.38-3.8.02-2.75 0-38.19 0-38.19l-76.47 25.34-91.95-25.56c-2.72-.76-4.99-2.88-6.14-5.77l-2.2-5.49c-1.54-3.85-5.48-5.67-8.97-4.14zm-77.01 164.1h-16.96c-2.51 0-4.96.8-7.08 2.31l-18.73 13.3-53.09 3.5c-5 .33-9.93-1.45-13.83-5l-24.91-22.66c-3.59-3.26-8.05-5.04-12.65-5.04h-9.44l-6.2-4.73c-3.08-2.35-4.93-6.28-4.93-10.48 0-4.9 2.51-9.36 6.44-11.45l28.13-14.92c3.5-1.86 5.98-5.52 6.65-9.82l3.14-20.16c1.29-8.28 6.43-15.13 13.45-17.93l21.53-8.58 27.09 28.4 55.87 9.39-5.36 28.94c-.61 3.32-.44 6.76.52 9.97l10.37 34.97z" id="path28"/><path d="m570.07 664.08-24.12-11.78a24.1 24.1 0 0 0-10.59-2.47h-65.37l-1.43 13.77c-.72 6.91-4.93 12.71-10.78 14.86l-77.98 28.68 24.6 41.66c2.51 4.25 6.46 7.13 10.92 7.96l29.3 5.48c2.63.49 5.31.58 7.96.26l19.16-2.33c4.88-.59 7.87-6.34 5.94-11.44l-3.47-9.19c-2.05-5.44 1.48-11.49 6.73-11.49h57.08l-6.39-4.88c-2.96-2.26-4.73-6.03-4.73-10.07v-.57c0-4.71 2.41-9 6.19-11l28.17-14.95c3.63-1.92 6.2-5.72 6.89-10.18zm142.57-28.09-17.23-12.08c-2.65-1.86-5.66-2.96-8.77-3.22l-67.52-5.63-12.9 14.93 27.09 28.4 55.87 9.39c1.02-5.5 5.01-9.68 9.95-10.4l13.31-1.94.19-19.44z" id="path30"/><path d="m469.98 649.82-27.28-5.11-57.06 2.36c-3 .12-5.95-.82-8.45-2.7l-9.83-7.4c-2.97-2.24-6.58-3.14-10.12-2.52l-75.96-5.31c-3.58.63-11.84-1.84-11.84-1.84v37.46c0 4.39 2.06 8.46 5.41 10.69l12.16 8.09c1 .67 2.09 1.15 3.22 1.43l89.55 22.16 77.9-28.64c5.91-2.17 10.15-8.03 10.88-15z" id="path32"/><path d="m606.22 578.1-59.93 16.4c-2.74.75-4.87 3.19-5.48 6.3l-.52 2.61c-.78 3.9-3.89 6.64-7.42 6.53l-60.29-1.8c-1.72-.05-3.42-.41-5.04-1.05l-31.63-43.61s-.02 38.49.05 39.01l.77 6.16 5.98 36.07 27.28 5.11h64.65c4.12 0 8.2.95 11.98 2.8l23.46 11.46 1.1-7.08c1.34-8.6 6.67-15.71 13.96-18.62l21.09-8.41 12.9-14.93 1.72-22.38c.34-4.47-1.93-8.68-5.6-10.38l-9.01-4.18z" id="path34"/><path d="m606.22 578.1 8.04-25.34c1.36-4.29 4.71-7.39 8.7-8.05l35.42-5.9c3.7-.62 7.48.18 10.73 2.27l19.68 12.64 63.03 32.56-39.18 49.7-16.99-11.92c-2.81-1.97-5.99-3.14-9.29-3.41l-67.24-5.61 1.67-21.73c.37-4.86-2.09-9.43-6.09-11.29l-8.48-3.93z" id="path36"/></g></g><g id="Calque_41" transform="translate(0 -286.9)"><path d="m982.76 865.78-30.64-8.02c-4.84-1.27-8.22-6.38-8.02-12.15l.57-16.48c.18-5.32-2.68-10.14-7.02-11.83l-37.75-14.64 31.05-8.03c7.54-1.95 11.17-11.98 7.09-19.61l-22.72-42.55c-2.57-4.82-7.24-7.57-12.1-7.12l-38.09 3.45 49.38-60.54c2.7-3.31 2.25-8.64-.96-11.27l2.09 1.71c2.64 2.16 5.59 3.77 8.71 4.74l5.58 1.73c3.91 1.21 8.07-.09 10.92-3.43l1.94-2.27c2.28-2.66 3.47-6.34 3.27-10.09l-1.7-31.82c-.23-4.35 1.11-8.62 3.69-11.78l8.66-10.57c2.89-3.52.99-9.36-3.17-9.79l-72.08-7.4-92.15-26.39c-2.73-.78-5-2.98-6.15-5.96l-2.2-5.67c-1.54-3.98-5.49-5.85-8.99-4.27l-19.94 9.02-63.17-33.62-19.72-13.05c-3.26-2.16-7.05-2.98-10.76-2.35l-35.49 6.09c-4 .69-7.36 3.88-8.72 8.31l-8.06 26.16-60.06 16.93c-2.75.77-4.88 3.29-5.5 6.5l-.52 2.69c-.78 4.03-3.89 6.85-7.44 6.74l-60.42-1.86c-1.72-.05-3.43-.42-5.05-1.08l-25.62-10.49c-3.23-1.32-6.51 1.81-6.04 5.75l.77 6.36 5.99 37.24-57.19 2.44c-3 .13-5.97-.85-8.47-2.79l-9.85-7.64c-2.98-2.31-6.6-3.24-10.14-2.6l-78.67 14.18c-5.36.97-9.32 6.34-9.32 12.65v4.46c0 4.53 2.06 8.73 5.42 11.03l12.18 8.35c1 .69 2.09 1.18 3.23 1.47l89.75 22.88 24.65 43.01c2.51 4.38 6.47 7.36 10.94 8.22l29.37 5.66c2.64.51 5.32.6 7.98.26l19.2-2.41c4.89-.61 7.88-6.55 5.96-11.81l-2.01-5.49 2.05 5.6c1.91 5.21-1.05 11.08-5.89 11.69l-16.4 2.05c-4.19.52-7.7 3.92-8.9 8.61l-38.67 150.48c-1.33 5.16-3.87 9.78-7.35 13.33l-16.22 16.58c-5.56 5.68-4.1 16.17 2.71 19.53l64.79 31.95c8.08 3.98 17.28-1.58 19.12-11.56l.73-3.99-2.03 11.04c-1.22 6.6 2.61 13.03 8.35 14.03l41.68 7.27c5.23.91 10.39-2.16 12.81-7.63 2.15-4.86 7.13-6.99 11.48-4.91l63.16 30.25c2.16 1.04 4.48 1.57 6.81 1.57h80.58c7.5 0 12.45-9.09 9.24-16.97l-2.72-6.68c-3.52-8.64-1.28-18.97 5.34-24.64l43.66-37.38c4.99-4.27 11.09-6.43 17.29-6.12l21.99 1.11c4.86.25 9.11-3.8 9.86-9.4l3.79-28.38s.29-1.91 1.13-3.47 2.05-2.5 2.05-2.5 1.37-.8 2.14-1.15 2.08-.47 2.08-.47l40-1-39.44.99c-4.03.1-7.42 3.55-8.04 8.18l-3.75 28.03c-.75 5.58 2.01 10.98 6.57 12.91l74.52 31.39c8.45 3.56 17.76 3.03 25.87-1.48l79.74-44.29c4.34-2.41 7.1-7.5 7.1-13.09v-8.54c0-6.78-4.04-12.66-9.73-14.15zm-129.31-12.62.81 1.05-.84-1.1c-2.31-3.01-1.93-7.67.83-10.11l.04-.04c-2.78 2.46-3.17 7.16-.84 10.19zm.95 1.24c.11.16.22.32.32.48-.1-.16-.2-.32-.32-.48M567.95 637.8l.35-2.34-.39 2.6c-.67 4.44-3.16 8.22-6.67 10.14l-.2.11c3.63-1.99 6.21-5.91 6.91-10.51m-36.41 48.44-.19-.15c-2.97-2.33-4.74-6.23-4.74-10.4v-.59c0-4.86 2.42-9.29 6.2-11.36l.25-.14c-3.94 2.15-6.45 6.76-6.45 11.82 0 4.33 1.85 8.39 4.94 10.82zm28.36 10.09 7.29 6.83zm129.35-67.44c1.02-5.68 5.02-9.99 9.97-10.73h.09c-5 .74-9.05 5.09-10.08 10.83l-5.35 29.78zm-4.85 40.17 10.39 36.1zm-13.7 38.49c2.13-1.56 4.59-2.38 7.1-2.38h.09c-2.57 0-5.09.84-7.26 2.43l-18.69 13.68 18.77-13.73zm-13.87 68.41-16.52 33.5zm55.74-159.8 22.74 19.58zm8.25 89.01c4.04 0 7.91 1.85 10.78 5.16l9.94 11.46-9.8-11.29c-2.96-3.41-6.95-5.32-11.12-5.32h.2zM800.33 720l-11.79 3.45zm109.48-66.07-17.32-14.19zm-25.16-16.52-27.52 3.7zM840 643.42l.16-.02c-1.62.22-3.21.75-4.68 1.57l.15-.08c1.38-.77 2.85-1.26 4.37-1.46zm-53.16-5.62c3.15-.1 6.23 1.06 8.73 3.28l2.54 2.25-2.27-2.01c-2.68-2.38-5.99-3.62-9.36-3.51l-40.55 1.26 40.9-1.27zm-25.28 93.55-.84.25c-5.28 1.55-10.87-.23-14.73-4.69l-.62-.71c4.25 4.9 10.39 6.85 16.19 5.15m-48.8-135.27-17.03-12.3zm-26.34-15.82-67.39-5.79 1.67-22.43-1.67 22.43zm-80.31 9.62-21.14 8.68zm-7.38 135.01h-.02c-5 .34-9.93-1.5-13.83-5.15h-.01c3.91 3.65 8.85 5.49 13.86 5.15m-27.75-107.11-.78 5.17zm-113.64 22.15-.09.03c5.92-2.24 10.18-8.29 10.9-15.48v.1c-.73 7.13-4.95 13.12-10.81 15.34zm36.22 244.61c-6.79 2.96-11.82 9.75-13.34 18l.05-.24c1.49-8.1 6.43-14.76 13.09-17.66l67.78-29.57-67.58 29.48zm101.73-69.83-18.58 24.45 19.23-25.31c2.26-2.97 5.5-4.66 8.91-4.63h.07c-3.7.28-7.17 2.24-9.63 5.49m255.37 51.04c-.17.03-.34.05-.52.06.18 0 .35-.03.52-.06" style="fill:#9b9bf7" id="Calque_7"/></g><g id="carte-3" data-name="carte" transform="translate(0 -286.9)"><g id="Calque_5" clip-path="url(#clippath)"><path d="M1204.3 687.11s-279.99 12.63-333.41 12.63-98.3-12.63-146.95-12.63-97.12 16.04-147.23 16.04-77.97-16.04-142.49-16.04H183.34V389.93H1204.3Z" style="fill:#5f5fe1" id="path42"/></g></g><g id="_x31__x2F_3-2" data-name="_x31__x2F_3" transform="translate(0 -286.9)"><path class="cls-15" d="m626.41 606.67-13.05 7.38-6.03-8.64 19.43-11.25h11.79v62.98H626.4v-50.47zm43.63-16.91h11.61l-20.33 85.2h-11.61zm39.23 69.27c-11.88 0-19.52-5.22-24.65-14.21l10.62-6.57c3.51 6.93 7.74 9.99 13.94 9.99s10.71-3.69 10.71-9.54-4.5-9.36-11.16-9.36h-10.35v-10.8h9.54c5.31 0 9.18-2.97 9.18-7.83s-3.6-7.47-8.55-7.47-8.46 2.7-11.07 7.2l-9.9-6.12c4.59-7.47 11.7-11.88 21.86-11.88 11.52 0 20.06 6.57 20.06 16.91 0 5.85-2.52 10.8-7.2 14.03 6.39 3.24 9.9 8.91 9.9 15.83 0 11.97-9.81 19.79-22.94 19.79z" id="Calque_3"/></g><rect x="465.22" y="811.37" width="383.22" height="93.76" rx="37.3" ry="37.3" id="_x2B_28"/><rect x="465.22" y="795.98" width="383.22" height="93.76" rx="37.3" ry="37.3" style="fill:#0a0083" id="Calque_35"/><path d="M553.81 856.11v11.95h-6.52v-11.95h-11.95v-6.52h11.95v-11.95h6.52v11.95h11.89v6.52zm18.35 4.59 14.49-14.25c3.26-3.32 5.31-5.61 5.31-9.05s-2.41-5.55-5.73-5.55c-4.04 0-6.52 2.48-8.75 6.22l-6.64-4.04c3.56-5.79 8.81-9.42 16.18-9.42s13.28 4.71 13.28 11.95c0 5.79-3.8 10.26-7.97 14.31l-10.2 9.84h19.26v7.36h-29.22v-7.36zm64.53-24.69c0 3.86-1.87 7.18-5.55 9.17 4.83 1.99 7.42 5.92 7.42 11.05 0 7.36-5.67 13.04-16.18 13.04s-16.18-5.67-16.18-13.04c0-5.13 2.6-9.05 7.49-11.05-3.74-1.99-5.61-5.31-5.61-9.17 0-5.98 4.89-11.41 14.31-11.41s14.31 5.43 14.31 11.41zm-6.52 19.8c0-3.98-2.96-6.7-7.73-6.7s-7.85 2.72-7.85 6.7 3.02 6.4 7.85 6.4 7.73-2.54 7.73-6.4m-1.87-18.89c0-3.2-2.29-5.31-5.79-5.31-3.8 0-6.04 2.11-6.04 5.31s2.29 5.19 6.04 5.19c3.5 0 5.79-2.05 5.79-5.19m31.39 22.94c0-4.59 3.56-8.03 10.08-9.12l9.3-1.57v-.79c0-3.2-2.41-5.25-5.92-5.25-2.96 0-5.25 1.39-6.88 3.62l-5.61-4.29c2.72-3.74 7.18-6.04 12.74-6.04 8.81 0 13.34 5.25 13.34 11.95v19.68h-7.67v-2.96c-1.93 2.35-5.55 3.86-9.12 3.86-6.1 0-10.26-3.5-10.26-9.11zm11.83 3.01c3.5 0 6.04-1.63 7.55-4.04v-4.29l-7.24 1.21c-3.2.54-4.53 1.87-4.53 3.74 0 2.05 1.63 3.38 4.23 3.38zm23.96-25.23h7.67v2.42c2.11-2.05 4.95-3.62 8.99-3.62 6.58 0 11.83 4.53 11.83 13.52v18.11h-7.73v-17.81c0-4.04-2.29-6.58-6.04-6.58s-5.92 2.6-7.06 4.53v19.86h-7.67v-30.42zm39.6 21.43c1.87 2.35 4.1 4.04 7 4.04 2.48 0 3.74-1.45 3.74-3.26 0-5.31-14.55-3.32-14.55-14 0-5.37 4.53-9.42 10.87-9.42 4.65 0 8.87 2.23 11.05 5.19l-5.07 4.47c-1.57-1.93-3.56-3.5-5.92-3.5s-3.56 1.33-3.56 2.9c0 5.19 14.55 3.38 14.55 13.88-.12 6.4-5.25 9.9-10.99 9.9-5.43 0-9.3-2.17-12.19-5.61z" style="fill:#ececf1" id="_x2B_28-2" data-name="_x2B_28"/><path style="fill:#e48b9c" id="rose" d="M1196.95 136.91 997.18 943.08h721.5V136.91Z"/><g id="_x3D_" transform="translate(0 -286.9)"><path d="M1052.94 885.9h79.58m-79.58-48.04h79.58" style="fill:none;stroke:#000;stroke-width:29px;stroke-linecap:round;stroke-miterlimit:10" id="path52"/><path d="M1052.94 874.93h79.58m-79.58-48.03h79.58" style="fill:none;stroke:#fff;stroke-width:29px;stroke-linecap:round;stroke-miterlimit:10" id="Calque_29"/></g><path style="fill:none;stroke:#000;stroke-width:14px;stroke-linecap:round;stroke-miterlimit:10" id="_x2F_" d="m1106.38 502.4-31.95 128.93"/><g id="ordi" transform="translate(0 -286.9)"><path class="cls-24" d="M1608.58 1157.03h-344.51c-7.2 0-12.52-6.69-10.91-13.7l52.43-227.64a11.19 11.19 0 0 1 10.91-8.68h344.51c7.2 0 12.52 6.69 10.91 13.7l-52.43 227.64a11.19 11.19 0 0 1-10.91 8.68" id="path57"/><path d="M1601.11 1157.03H1256.6c-7.2 0-12.52-6.69-10.91-13.7l52.43-227.64a11.19 11.19 0 0 1 10.91-8.68h344.51c7.2 0 12.52 6.69 10.91 13.7l-52.43 227.64a11.19 11.19 0 0 1-10.91 8.68" id="path59"/><rect class="cls-24" x="1245.4" y="1157.03" width="367.48" height="11.18" rx="4.73" ry="4.73" id="rect61"/><rect class="cls-15" x="1143.61" y="1157.03" width="367.48" height="11.18" rx="4.73" ry="4.73" id="rect63"/></g><path d="M1647.73 627.61h-161.91c-.84 0-1.57.58-1.76 1.4l-.19.81-1.46 6.34a4 4 0 0 1-3.89 3.1h-19.55c-2.57 0-4.47-2.39-3.89-4.89l1.05-4.55c.26-1.13-.6-2.21-1.76-2.21h-139.05c-3.45 0-6.45 2.38-7.22 5.75l-50.56 219.52c-1.15 4.99 2.64 9.75 7.76 9.75h327.06c4.9 0 9.15-3.38 10.25-8.16l50.65-219.93c.82-3.55-1.88-6.93-5.52-6.93z" style="fill:#c9cedd" id="ecran_ordi"/><g id="ombre_tel" clip-path="url(#clippath-1)" transform="translate(0 -286.9)"><g style="opacity:.25" id="g75"><rect x="1286.22" y="860.06" width="107.5" height="206.9" rx="9.87" ry="9.87" transform="rotate(-2.69 1338.307 962.341)" id="rect67"/><rect x="1278.05" y="860.45" width="107.5" height="206.9" rx="9.87" ry="9.87" transform="rotate(-2.69 1329.987 962.785)" id="rect69"/><rect class="cls-15" x="1281.98" y="863.79" width="99.62" height="200.21" rx="8.27" ry="8.27" transform="rotate(-2.69 1329.987 962.785)" id="rect71"/><circle cx="1291.75" cy="878.65" r="5.01" id="circle73"/></g></g><g id="tel" transform="translate(0 -286.9)"><rect x="1277.69" y="857.02" width="107.5" height="206.9" rx="9.87" ry="9.87" transform="rotate(-2.69 1329.64 959.368)" id="rect78"/><rect x="1269.52" y="857.4" width="107.5" height="206.9" rx="9.87" ry="9.87" transform="rotate(-2.69 1321.539 959.604)" id="rect80"/><rect class="cls-15" x="1273.45" y="860.74" width="99.62" height="200.21" rx="8.27" ry="8.27" transform="rotate(-2.69 1321.539 959.604)" id="rect82"/><circle cx="1283.22" cy="875.6" r="5.01" id="circle84"/></g><circle cx="1200.37" cy="200.89" r="91.55" style="fill:#e8a037" id="orange"/><g id="Calque_20" transform="translate(0 -286.9)"><path class="cls-6" d="M1247.99 487.79h-95.25m10.51 29.83s5.95-8.35 37.11-8.35 37.12 8.35 37.12 8.35" id="path88"/><circle class="cls-6" cx="1200.37" cy="487.79" r="47.63" id="circle90"/><ellipse class="cls-6" cx="1200.37" cy="487.79" rx="22.95" ry="47.63" id="ellipse92"/><path class="cls-6" d="M1200.37 440.16v95.25m37.11-77.46s-5.95 8.35-37.11 8.35-37.12-8.35-37.12-8.35" id="path94"/></g><g id="orange-2" data-name="orange" transform="translate(0 -286.9)"><circle class="cls-14" cx="1231.72" cy="511.61" r="16.28" id="circle97"/><circle class="cls-14" cx="1231.72" cy="511.61" r="11.15" id="circle99"/><path class="cls-14" d="m1259.73 543.55-17.01-19.4m12.07 19.08-15.26-17.21s1.86-1.21 2.83-1.98 2.47-2.59 2.47-2.59l15.22 17.16a3.51 3.51 0 0 1-.32 4.94 3.51 3.51 0 0 1-4.94-.32z" id="path101"/></g><circle cx="1433.19" cy="200.89" r="91.55" style="fill:#ca2a23" id="rouge"/><g id="Calque_18" transform="translate(0 -286.9)"><circle class="cls-6" cx="1435.39" cy="498.62" r="11.68" id="circle105"/><path class="cls-6" d="M1435.41 515.22v-4.79c2.07 0 4.11-.55 5.89-1.58l2.4 4.15a16.5 16.5 0 0 1-8.29 2.23zm-8.3-2.21a16.67 16.67 0 0 1-6.08-6.06l4.14-2.41c1.04 1.79 2.53 3.28 4.33 4.31l-2.39 4.15zm22.66-6.09-4.15-2.4c1.03-1.78 1.58-3.82 1.58-5.9l4.79-.06v.06c0 2.92-.77 5.79-2.22 8.3zm-30.98-8.27v-.03c0-2.91.76-5.76 2.2-8.27l4.15 2.39a11.83 11.83 0 0 0-1.56 5.88zm26.8-5.97a11.8 11.8 0 0 0-4.34-4.31l2.39-4.16c2.52 1.45 4.63 3.54 6.09 6.05zm-16.13-4.26-2.41-4.14c2.51-1.46 5.37-2.24 8.29-2.24v4.79c-2.06 0-4.1.56-5.88 1.59z" id="path107"/></g><g id="Calque_17" transform="translate(0 -286.9)"><circle class="cls-6" cx="1435.4" cy="436.34" r="10.48" id="circle110"/><path class="cls-6" d="M1456.57 467.99c0-11.69-9.48-21.17-21.17-21.17s-21.17 9.48-21.17 21.17c0 0 4.59 4.7 21.17 4.7s21.17-4.7 21.17-4.7z" id="path112"/></g><g id="Calque_16" transform="translate(0 -286.9)"><circle class="cls-6" cx="1395.21" cy="495.84" r="10.48" id="circle115"/><path class="cls-6" d="M1416.39 527.49c0-11.69-9.48-21.17-21.17-21.17s-21.17 9.48-21.17 21.17c0 0 4.59 4.7 21.17 4.7s21.17-4.7 21.17-4.7z" id="path117"/></g><g id="rouge-2" data-name="rouge" transform="translate(0 -286.9)"><circle class="cls-6" cx="1473.16" cy="495.84" r="10.48" id="circle120"/><path class="cls-6" d="M1494.33 527.49c0-11.69-9.48-21.17-21.17-21.17s-21.17 9.48-21.17 21.17c0 0 4.59 4.7 21.17 4.7s21.17-4.7 21.17-4.7z" id="Calque_14"/></g><circle cx="1660.51" cy="200.89" r="91.55" style="fill:#0a0084" id="bleu_clair"/><g id="bleu_clair-2" data-name="bleu_clair" transform="translate(0 -286.9)"><path class="cls-6" d="m1660.51 434.74-45.3 14.74v43.82a45.41 45.41 0 0 0 18.24 36.39l24.02 17.94a5.07 5.07 0 0 0 6.08 0l24.02-17.94a45.42 45.42 0 0 0 18.24-36.39v-43.82z" id="path125"/><path class="cls-6" d="m1660.51 442.72-37.88 12.5v37.16c0 12.15 5.65 23.59 15.25 30.87l20.09 15.22a4.215 4.215 0 0 0 5.09 0l20.09-15.22c9.6-7.27 15.25-18.71 15.25-30.87v-37.16l-37.88-12.5z" id="path127"/><path class="cls-6" d="m1687.72 474.63-32.82 27.66-16.41-13.83" id="path129"/></g><circle class="cls-7" cx="1323.27" cy="416.44" r="91.55" id="bleu"/><path class="cls-6" d="M1343.67 437.85h12.58c13.85 0 25.07-11.22 25.07-25.07s-11.22-25.07-25.07-25.07c-3.05 0-5.97.54-8.67 1.54-2.17-11.63-12.37-20.44-24.64-20.44s-22.68 8.99-24.7 20.81c-2.39-1.21-5.09-1.9-7.95-1.9-8.03 0-14.8 5.35-16.96 12.67-8.79 1.62-15.45 9.31-15.45 18.57 0 10.44 8.46 18.9 18.9 18.9h15.47" id="Calque_11"/><g id="bleu-2" data-name="bleu" transform="translate(0 -286.9)"><path class="cls-8" d="M1323.84 760.18c-17.43 0-31.6-14.18-31.6-31.6s14.18-31.6 31.6-31.6 31.6 14.18 31.6 31.6-14.18 31.6-31.6 31.6zm0-48.21c-9.16 0-16.6 7.45-16.6 16.6s7.45 16.6 16.6 16.6 16.6-7.45 16.6-16.6-7.45-16.6-16.6-16.6z" id="path134"/><path class="cls-8" d="m1295.25 739.63-8.94 2.76 12.33-20.84 20.27 11.88-10.73 2.95m44.47-18.15 8.95-2.77-12.34 20.85-20.26-11.88 10.73-2.96" id="path136"/></g><circle class="cls-19" cx="1550.6" cy="416.44" r="91.55" id="rose-2" data-name="rose"/><g id="Calque_9" transform="translate(0 -286.9)"><rect class="cls-6" x="1492.99" y="666.28" width="114.69" height="76.11" rx="6.97" ry="6.97" id="rect140"/><path class="cls-6" d="M1492.99 675.71h114.69v57.24h-114.69zm42.81 66.68h29.07v12.87h-29.07z" id="path142"/></g><g id="rose-3" data-name="rose" transform="translate(0 -286.9)"><circle class="cls-6" cx="1550.6" cy="703.34" r="20.57" id="circle145"/><path class="cls-6" d="M1546.14 696.76v15.8l14.06-9.22z" id="path147"/></g></svg>
