<svg width="24" height="24" viewBox="0 0 24 24" fill="none" xmlns="http://www.w3.org/2000/svg">
<rect width="24" height="24" rx="4" fill="#E8EDFF"/>
<path fill-rule="evenodd" clip-rule="evenodd" d="M13.998 5.33333L18 9.33333V17.9953C18.0012 18.1721 17.9322 18.3422 17.808 18.4681C17.6839 18.594 17.5148 18.6654 17.338 18.6667H6.662C6.29665 18.6667 6.00037 18.3707 6 18.0053V5.99466C6 5.63666 6.29933 5.33333 6.668 5.33333H13.998ZM13.3333 6.66666H7.33333V17.3333H16.6667V10H13.3333V6.66666ZM9.33333 8.66666H11.3333V10H9.33333V8.66666ZM9.33333 11.3333H14.6667V12.6667H9.33333V11.3333ZM9.33333 14H14.6667V15.3333H9.33333V14Z" fill="#000091"/>
</svg>
