<svg width="24" height="24" viewBox="0 0 24 24" fill="none" xmlns="http://www.w3.org/2000/svg">
<rect width="24" height="24" rx="4" fill="#E8EDFF"/>
<path d="M7.21932 18L7.20598 18.0133L7.19198 18H5.99532C5.81986 17.9998 5.65165 17.93 5.52764 17.8059C5.40364 17.6817 5.33398 17.5135 5.33398 17.338V6.662C5.3352 6.48692 5.40525 6.31934 5.52899 6.19548C5.65273 6.07161 5.82024 6.0014 5.99532 6H18.006C18.3713 6 18.6673 6.29667 18.6673 6.662V17.338C18.6661 17.5131 18.5961 17.6807 18.4723 17.8045C18.3486 17.9284 18.1811 17.9986 18.006 18H7.21932ZM17.334 14V7.33333H6.66732V16.6667L13.334 10L17.334 14ZM17.334 15.8853L13.334 11.8853L8.55265 16.6667H17.334V15.8853ZM9.33398 11.3333C8.98036 11.3333 8.64122 11.1929 8.39118 10.9428C8.14113 10.6928 8.00065 10.3536 8.00065 10C8.00065 9.64638 8.14113 9.30724 8.39118 9.05719C8.64122 8.80714 8.98036 8.66667 9.33398 8.66667C9.68761 8.66667 10.0267 8.80714 10.2768 9.05719C10.5268 9.30724 10.6673 9.64638 10.6673 10C10.6673 10.3536 10.5268 10.6928 10.2768 10.9428C10.0267 11.1929 9.68761 11.3333 9.33398 11.3333Z" fill="#000091"/>
</svg>
