<svg width="24" height="24" viewBox="0 0 24 24" fill="none" xmlns="http://www.w3.org/2000/svg">
<rect width="24" height="24" rx="4" fill="#E8EDFF"/>
<path fill-rule="evenodd" clip-rule="evenodd" d="M16.1296 14.2429L15.1869 13.2989L16.1296 12.3562C16.9778 11.5154 17.3113 10.285 17.0039 9.13088C16.6964 7.97677 15.795 7.07534 14.6409 6.7679C13.4868 6.46046 12.2564 6.794 11.4156 7.64223L10.4729 8.58557L9.52956 7.6429L10.4736 6.70023C12.2961 4.87769 15.251 4.87769 17.0736 6.70023C18.8961 8.52277 18.8961 11.4777 17.0736 13.3002L16.1302 14.2429H16.1296ZM14.2442 16.1282L13.3009 17.0709C11.4783 18.8934 8.52343 18.8934 6.70089 17.0709C4.87835 15.2484 4.87835 12.2934 6.70089 10.4709L7.64422 9.52823L8.58689 10.4722L7.64422 11.4149C6.79599 12.2557 6.46245 13.4861 6.76989 14.6403C7.07733 15.7944 7.97875 16.6958 9.13287 17.0032C10.287 17.3107 11.5174 16.9771 12.3582 16.1289L13.3009 15.1862L14.2442 16.1289V16.1282ZM13.7722 9.0569L14.7156 10.0002L10.0016 14.7136L9.05822 13.7709L13.7722 9.05757V9.0569Z" fill="#000091"/>
</svg>
