<svg width="24" height="24" viewBox="0 0 24 24" fill="none" xmlns="http://www.w3.org/2000/svg">
<rect width="24" height="24" rx="4" fill="#E8EDFF"/>
<path d="M11.4977 14H7.16972L5.83639 17.3333H4.40039L8.66706 6.66666H10.0004L14.2671 17.3333H12.8311L11.4977 14ZM10.9644 12.6667L9.33372 8.59L7.70306 12.6667H10.9644ZM18.0004 12.3567V12H19.3337V17.3333H18.0004V16.9767C17.595 17.2105 17.1352 17.3335 16.6672 17.3333C16.1992 17.3332 15.7395 17.2099 15.3342 16.9758C14.929 16.7417 14.5925 16.4051 14.3585 15.9997C14.1246 15.5944 14.0014 15.1347 14.0014 14.6667C14.0014 14.1987 14.1246 13.7389 14.3585 13.3336C14.5925 12.9283 14.929 12.5917 15.3342 12.3576C15.7395 12.1235 16.1992 12.0002 16.6672 12C17.1352 11.9998 17.595 12.1228 18.0004 12.3567ZM16.6671 16C17.0207 16 17.3598 15.8595 17.6099 15.6095C17.8599 15.3594 18.0004 15.0203 18.0004 14.6667C18.0004 14.313 17.8599 13.9739 17.6099 13.7239C17.3598 13.4738 17.0207 13.3333 16.6671 13.3333C16.3134 13.3333 15.9743 13.4738 15.7242 13.7239C15.4742 13.9739 15.3337 14.313 15.3337 14.6667C15.3337 15.0203 15.4742 15.3594 15.7242 15.6095C15.9743 15.8595 16.3134 16 16.6671 16Z" fill="#000091"/>
</svg>
