<svg width="18" height="18" viewBox="0 0 18 18" fill="none" xmlns="http://www.w3.org/2000/svg">
<path fill-rule="evenodd" clip-rule="evenodd" d="M13.3035 6.45C14.7435 6.45 15.8122 7.27125 15.8122 8.565C15.8122 9.29625 15.4972 9.915 14.9122 10.32C15.711 10.725 16.1497 11.4338 16.1497 12.3C16.1497 13.7962 14.9235 14.775 13.281 14.775C11.796 14.775 10.8397 14.1225 10.1985 12.9975L11.526 12.1763C11.9647 13.0425 12.4935 13.425 13.2697 13.425C14.0347 13.425 14.6085 12.9637 14.6085 12.2325C14.6085 11.5125 14.046 11.0625 13.2135 11.0625H11.9197V9.7125H13.1122C13.776 9.7125 14.2597 9.34125 14.2597 8.73375C14.2597 8.1375 13.8097 7.8 13.191 7.8C12.561 7.8 12.1335 8.1375 11.8072 8.7L10.5697 7.935C11.1435 7.00125 12.0322 6.45 13.3035 6.45ZM11.457 3V4.419H7.629V14.55H6.078V4.419H2.25V3H11.457Z" fill="#161616"/>
</svg>
