<svg width="18" height="18" viewBox="0 0 18 18" fill="none" xmlns="http://www.w3.org/2000/svg">
<path fill-rule="evenodd" clip-rule="evenodd" d="M11.457 3V4.419H7.629V14.55H6.078V4.419H2.25V3H11.457ZM13.371 6.45C14.7435 6.45 15.846 7.3275 15.846 8.6775C15.846 9.7575 15.1373 10.59 14.361 11.3437L12.4598 13.1775H16.0485V14.55H10.6035V13.1775L13.3035 10.5225C13.911 9.90375 14.2935 9.47625 14.2935 8.835C14.2935 8.1825 13.8435 7.8 13.2247 7.8C12.471 7.8 12.0098 8.26125 11.5935 8.95875L10.356 8.205C11.0197 7.125 11.9985 6.45 13.371 6.45Z" fill="#161616"/>
</svg>
