<svg width="19" height="18" viewBox="0 0 19 18" fill="none" xmlns="http://www.w3.org/2000/svg">
<g clip-path="url(#clip0_1294_19173)">
<path d="M9.6582 16.5C5.51595 16.5 2.1582 13.1423 2.1582 9C2.1582 4.85775 5.51595 1.5 9.6582 1.5C13.8005 1.5 17.1582 4.85775 17.1582 9C17.1582 13.1423 13.8005 16.5 9.6582 16.5ZM9.6582 15C11.2495 15 12.7756 14.3679 13.9008 13.2426C15.0261 12.1174 15.6582 10.5913 15.6582 9C15.6582 7.4087 15.0261 5.88258 13.9008 4.75736C12.7756 3.63214 11.2495 3 9.6582 3C8.0669 3 6.54078 3.63214 5.41556 4.75736C4.29034 5.88258 3.6582 7.4087 3.6582 9C3.6582 10.5913 4.29034 12.1174 5.41556 13.2426C6.54078 14.3679 8.0669 15 9.6582 15ZM5.9082 9.75H7.4082C7.4082 10.3467 7.64526 10.919 8.06721 11.341C8.48917 11.7629 9.06147 12 9.6582 12C10.2549 12 10.8272 11.7629 11.2492 11.341C11.6712 10.919 11.9082 10.3467 11.9082 9.75H13.4082C13.4082 10.7446 13.0131 11.6984 12.3099 12.4017C11.6066 13.1049 10.6528 13.5 9.6582 13.5C8.66364 13.5 7.70981 13.1049 7.00655 12.4017C6.30329 11.6984 5.9082 10.7446 5.9082 9.75ZM6.6582 8.25C6.35983 8.25 6.07369 8.13147 5.86271 7.9205C5.65173 7.70952 5.5332 7.42337 5.5332 7.125C5.5332 6.82663 5.65173 6.54048 5.86271 6.3295C6.07369 6.11853 6.35983 6 6.6582 6C6.95657 6 7.24272 6.11853 7.4537 6.3295C7.66468 6.54048 7.7832 6.82663 7.7832 7.125C7.7832 7.42337 7.66468 7.70952 7.4537 7.9205C7.24272 8.13147 6.95657 8.25 6.6582 8.25ZM12.6582 8.25C12.3598 8.25 12.0737 8.13147 11.8627 7.9205C11.6517 7.70952 11.5332 7.42337 11.5332 7.125C11.5332 6.82663 11.6517 6.54048 11.8627 6.3295C12.0737 6.11853 12.3598 6 12.6582 6C12.9566 6 13.2427 6.11853 13.4537 6.3295C13.6647 6.54048 13.7832 6.82663 13.7832 7.125C13.7832 7.42337 13.6647 7.70952 13.4537 7.9205C13.2427 8.13147 12.9566 8.25 12.6582 8.25Z" fill="#161616"/>
</g>
<defs>
<clipPath id="clip0_1294_19173">
<rect width="18" height="18" fill="white" transform="translate(0.658203)"/>
</clipPath>
</defs>
</svg>
