<svg width="14" height="14" viewBox="0 0 14 14" fill="none" xmlns="http://www.w3.org/2000/svg">
<path d="M11.2505 9.28503L10.2681 8.30125L11.2505 7.31886C11.5754 6.9968 11.8335 6.61374 12.0099 6.19168C12.1864 5.76961 12.2777 5.31685 12.2787 4.85938C12.2797 4.40192 12.1904 3.94876 12.0158 3.52592C11.8412 3.10309 11.5848 2.7189 11.2613 2.39542C10.9378 2.07195 10.5536 1.81555 10.1308 1.64094C9.70796 1.46634 9.2548 1.37698 8.79733 1.37798C8.33987 1.37898 7.88711 1.47033 7.46504 1.64678C7.04297 1.82323 6.65991 2.08131 6.33786 2.4062L5.35546 3.38929L4.37238 2.4069L5.35616 1.42451C6.26826 0.512411 7.50532 0 8.79523 0C10.0851 0 11.3222 0.512411 12.2343 1.42451C13.1464 2.3366 13.6588 3.57367 13.6588 4.86357C13.6588 6.15347 13.1464 7.39054 12.2343 8.30264L11.2505 9.28503ZM9.28573 11.2498L8.30264 12.2322C7.39054 13.1443 6.15347 13.6567 4.86357 13.6567C3.57367 13.6567 2.3366 13.1443 1.42451 12.2322C0.512411 11.3201 1.35913e-08 10.083 0 8.79314C-1.35913e-08 7.50324 0.512411 6.26617 1.42451 5.35407L2.40759 4.37168L3.38999 5.35546L2.40759 6.33786C2.0827 6.65991 1.82462 7.04297 1.64817 7.46504C1.47172 7.8871 1.38037 8.33987 1.37937 8.79733C1.37837 9.2548 1.46773 9.70796 1.64233 10.1308C1.81694 10.5536 2.07334 10.9378 2.39681 11.2613C2.72029 11.5848 3.10448 11.8412 3.52731 12.0158C3.95015 12.1904 4.4033 12.2797 4.86077 12.2787C5.31824 12.2777 5.771 12.1864 6.19307 12.0099C6.61513 11.8335 6.99819 11.5754 7.32025 11.2505L8.30264 10.2681L9.28573 11.2498ZM8.79384 3.88049L9.77692 4.86357L4.86427 9.77553L3.88118 8.79314L8.79384 3.88049Z" fill="#161616"/>
</svg>
