<svg width="384" height="358" viewBox="0 0 384 358" fill="none" xmlns="http://www.w3.org/2000/svg">
    <path fill-rule="evenodd" clip-rule="evenodd" d="M360.055 254.324C360.06 254.082 360.063 253.839 360.063 253.595C360.063 237.891 347.315 225.161 331.588 225.161C315.861 225.161 303.112 237.891 303.112 253.595C303.112 253.839 303.115 254.082 303.121 254.324H360.055Z" fill="#009F79"/>
    <mask id="mask0_2063_8349" style="mask-type:alpha" maskUnits="userSpaceOnUse" x="294" y="225" width="58" height="30">
        <path fill-rule="evenodd" clip-rule="evenodd" d="M351.283 254.324C351.289 254.082 351.292 253.839 351.292 253.595C351.292 237.891 338.543 225.161 322.816 225.161C307.09 225.161 294.34 237.891 294.34 253.595C294.34 253.839 294.343 254.082 294.35 254.324H351.283Z" fill="black" fill-opacity="0.25"/>
    </mask>
    <g mask="url(#mask0_2063_8349)">
        <path fill-rule="evenodd" clip-rule="evenodd" d="M360.046 254.324C360.052 254.082 360.055 253.839 360.055 253.595C360.055 237.891 347.306 225.16 331.579 225.16C315.852 225.16 303.104 237.891 303.104 253.595C303.104 253.839 303.107 254.082 303.113 254.324H360.046Z" fill="black"/>
    </g>
    <path d="M348.056 169.829H343.362V251.075H348.056V169.829Z" fill="#273475"/>
    <path d="M313.379 166.849C313.379 150.476 326.671 72.338 343.067 72.338C359.463 72.338 372.754 150.476 372.754 166.849C372.754 183.221 359.463 196.493 343.067 196.493C326.671 196.493 313.379 183.221 313.379 166.849Z" fill="#009F79"/>
    <mask id="mask1_2063_8349" style="mask-type:alpha" maskUnits="userSpaceOnUse" x="317" y="75" width="59" height="124">
        <path d="M317.793 172.348C317.793 156.482 333.029 75.4254 348.874 75.4254C364.718 75.4254 375.172 156.482 375.172 172.348C375.172 188.214 362.328 198.833 346.483 198.833C330.638 198.833 317.793 188.214 317.793 172.348Z" fill="black" fill-opacity="0.25"/>
    </mask>
    <g mask="url(#mask1_2063_8349)">
        <path d="M313.379 166.47C313.379 149.934 325.673 73.2217 342.069 73.2217C358.465 73.2217 372.754 149.934 372.754 166.47C372.754 183.005 359.463 196.41 343.067 196.41C326.671 196.41 313.379 183.005 313.379 166.47Z" fill="black"/>
    </g>
    <path d="M193.573 146.471H188.879V227.717H193.573V146.471Z" fill="#273475"/>
    <path d="M158.896 143.491C158.896 127.119 172.188 48.981 188.584 48.981C204.98 48.981 218.271 127.119 218.271 143.491C218.271 159.863 204.98 173.136 188.584 173.136C172.188 173.136 158.896 159.863 158.896 143.491Z" fill="#009F79"/>
    <mask id="mask2_2063_8349" style="mask-type:alpha" maskUnits="userSpaceOnUse" x="163" y="52" width="58" height="124">
        <path d="M163.311 148.991C163.311 133.125 178.546 52.0679 194.391 52.0679C210.236 52.0679 220.69 133.125 220.69 148.991C220.69 164.857 207.845 175.475 192 175.475C176.155 175.475 163.311 164.857 163.311 148.991Z" fill="black" fill-opacity="0.25"/>
    </mask>
    <g mask="url(#mask2_2063_8349)">
        <path d="M158.897 143.112C158.897 126.577 171.191 49.8642 187.587 49.8642C203.983 49.8642 218.272 126.577 218.272 143.112C218.272 159.648 204.981 173.052 188.585 173.052C172.188 173.052 158.897 159.648 158.897 143.112Z" fill="black"/>
    </g>
    <path d="M266.845 145.676H354.468V242.546H266.845V145.676Z" fill="white"/>
    <path d="M291.882 101.147H222.253L177.659 145.676H266.846C276.318 128.286 282.41 118.536 291.882 101.147Z" fill="#FED131"/>
    <path d="M309.881 77.3572H299.421V104.636H309.881L309.881 77.3572Z" fill="#FED131"/>
    <path d="M326.304 89.4287L309.875 77.3572L293.445 89.4287V117.552H326.304V89.4287Z" fill="white"/>
    <path d="M177.659 145.676H266.847V242.546H177.659V145.676Z" fill="#273475"/>
    <path d="M326.303 117.553H293.445L266.845 145.676H354.468L326.303 117.553Z" fill="white"/>
    <path d="M301.66 150.468H287.578V172.342H301.66V150.468Z" fill="#273475"/>
    <path d="M287.578 160.658H301.66" stroke="white" stroke-width="0.33904"/>
    <path d="M294.587 150.468V172.342" stroke="white" stroke-width="0.33904"/>
    <path d="M338.88 150.468H324.797V172.342H338.88V150.468Z" fill="#273475"/>
    <path d="M324.797 160.658H338.88" stroke="white" stroke-width="0.33904"/>
    <path d="M331.807 150.468V172.342" stroke="white" stroke-width="0.33904"/>
    <path d="M340.703 185.611H326.621V207.485H340.703V185.611Z" fill="#273475"/>
    <path d="M326.621 195.801H340.703" stroke="white" stroke-width="0.33904"/>
    <path d="M333.63 185.611V207.485" stroke="white" stroke-width="0.33904"/>
    <path d="M300.979 185.611H286.896V207.485H300.979V185.611Z" fill="#273475"/>
    <path d="M286.896 195.801H300.979" stroke="white" stroke-width="0.33904"/>
    <path d="M293.906 185.611V207.485" stroke="white" stroke-width="0.33904"/>
    <path d="M293.44 90.0258H282.487V117.552H293.44V90.0258Z" fill="#FED131"/>
    <path d="M293.421 90.0258H282.502L299.42 77.3568H309.889L293.421 90.0258Z" fill="#273475"/>
    <path d="M172.746 49.4856H161.793V77.6092H172.746V49.4856Z" fill="white"/>
    <path d="M161.789 49.4856H128.931V77.6092H161.789V49.4856Z" fill="#273475"/>
    <path d="M110.575 105.733H22.9526V202.603H110.575V105.733Z" fill="#273475"/>
    <path d="M69.3555 62.9996L155.167 61.204L199.761 105.733H110.573L69.3555 62.9996Z" fill="#FED131"/>
    <path d="M199.761 105.733H110.573V202.603H199.761V105.733Z" fill="#FEFEFE"/>
    <path d="M152.244 145.769C152.244 140.172 156.788 135.634 162.393 135.634C167.999 135.634 172.543 140.172 172.543 145.769V196.444H152.244V145.769Z" fill="#273475"/>
    <path d="M83.9766 77.6093H95.7115L110.576 105.733L83.9766 77.6093Z" fill="#FED131"/>
    <path d="M69.3553 62.9992L110.575 105.733H22.9526L69.3553 62.9992Z" fill="#273475"/>
    <path fill-rule="evenodd" clip-rule="evenodd" d="M297.658 258.395C297.664 258.153 297.667 257.91 297.667 257.666C297.667 241.962 284.918 229.232 269.191 229.232C253.465 229.232 240.715 241.962 240.715 257.666C240.715 257.91 240.718 258.153 240.725 258.395H297.658Z" fill="#009F79"/>
    <mask id="mask3_2063_8349" style="mask-type:alpha" maskUnits="userSpaceOnUse" x="231" y="229" width="58" height="30">
        <path fill-rule="evenodd" clip-rule="evenodd" d="M288.891 258.395C288.897 258.153 288.9 257.91 288.9 257.666C288.9 241.962 276.151 229.232 260.424 229.232C244.697 229.232 231.948 241.962 231.948 257.666C231.948 257.91 231.951 258.153 231.958 258.395H288.891Z" fill="black" fill-opacity="0.25"/>
    </mask>
    <g mask="url(#mask3_2063_8349)">
        <path fill-rule="evenodd" clip-rule="evenodd" d="M297.651 258.395C297.657 258.153 297.661 257.91 297.661 257.666C297.661 241.962 284.911 229.232 269.185 229.232C253.458 229.232 240.708 241.962 240.708 257.666C240.708 257.91 240.712 258.153 240.718 258.395H297.651Z" fill="black"/>
    </g>
    <path fill-rule="evenodd" clip-rule="evenodd" d="M289.121 313.399C289.127 313.157 289.13 312.914 289.13 312.67C289.13 296.966 276.382 284.235 260.655 284.235C244.928 284.235 232.179 296.966 232.179 312.67C232.179 312.914 232.182 313.157 232.188 313.399H289.121Z" fill="#009F79"/>
    <mask id="mask4_2063_8349" style="mask-type:alpha" maskUnits="userSpaceOnUse" x="223" y="284" width="58" height="30">
        <path fill-rule="evenodd" clip-rule="evenodd" d="M280.352 313.399C280.358 313.157 280.361 312.914 280.361 312.67C280.361 296.966 267.612 284.236 251.886 284.236C236.159 284.236 223.41 296.966 223.41 312.67C223.41 312.914 223.413 313.157 223.419 313.399H280.352Z" fill="black" fill-opacity="0.25"/>
    </mask>
    <g mask="url(#mask4_2063_8349)">
        <path fill-rule="evenodd" clip-rule="evenodd" d="M289.111 313.399C289.117 313.157 289.12 312.914 289.12 312.67C289.12 296.966 276.371 284.236 260.644 284.236C244.917 284.236 232.168 296.966 232.168 312.67C232.168 312.914 232.172 313.157 232.178 313.399H289.111Z" fill="black"/>
    </g>
    <path fill-rule="evenodd" clip-rule="evenodd" d="M323.371 258.395C323.377 258.153 323.38 257.91 323.38 257.666C323.38 241.962 310.631 229.232 294.904 229.232C279.178 229.232 266.429 241.962 266.429 257.666C266.429 257.91 266.432 258.153 266.438 258.395H323.371Z" fill="#009F79"/>
    <mask id="mask5_2063_8349" style="mask-type:alpha" maskUnits="userSpaceOnUse" x="257" y="229" width="58" height="30">
        <path fill-rule="evenodd" clip-rule="evenodd" d="M314.604 258.395C314.61 258.153 314.613 257.91 314.613 257.666C314.613 241.962 301.864 229.232 286.137 229.232C270.41 229.232 257.662 241.962 257.662 257.666C257.662 257.91 257.665 258.153 257.67 258.395H314.604Z" fill="black" fill-opacity="0.25"/>
    </mask>
    <g mask="url(#mask5_2063_8349)">
        <path fill-rule="evenodd" clip-rule="evenodd" d="M323.365 258.395C323.371 258.153 323.374 257.91 323.374 257.666C323.374 241.962 310.625 229.232 294.898 229.232C279.172 229.232 266.422 241.962 266.422 257.666C266.422 257.91 266.425 258.153 266.432 258.395H323.365Z" fill="black"/>
    </g>
    <path fill-rule="evenodd" clip-rule="evenodd" d="M306.532 286.43C306.54 286.144 306.543 285.858 306.543 285.571C306.543 267.062 291.517 252.057 272.981 252.057C254.445 252.057 239.418 267.062 239.418 285.571C239.418 285.858 239.422 286.144 239.429 286.43H306.532Z" fill="#009F79"/>
    <mask id="mask6_2063_8349" style="mask-type:alpha" maskUnits="userSpaceOnUse" x="229" y="252" width="68" height="35">
        <path fill-rule="evenodd" clip-rule="evenodd" d="M296.203 286.43C296.21 286.144 296.214 285.858 296.214 285.571C296.214 267.062 281.187 252.057 262.651 252.057C244.115 252.057 229.088 267.062 229.088 285.571C229.088 285.858 229.092 286.144 229.099 286.43H296.203Z" fill="black" fill-opacity="0.25"/>
    </mask>
    <g mask="url(#mask6_2063_8349)">
        <path fill-rule="evenodd" clip-rule="evenodd" d="M306.53 286.43C306.537 286.144 306.541 285.858 306.541 285.571C306.541 267.062 291.515 252.057 272.978 252.057C254.442 252.057 239.416 267.062 239.416 285.571C239.416 285.858 239.42 286.144 239.427 286.43H306.53Z" fill="black"/>
    </g>
    <path d="M178.797 205.592H91.1743V302.462H178.797V205.592Z" fill="#273475"/>
    <path d="M153.761 161.063H223.389L267.983 205.592H178.796C169.325 188.203 163.232 178.453 153.761 161.063Z" fill="#FED131"/>
    <path d="M222.899 185.611L196.416 187.814L187.588 205.444L222.899 185.611Z" fill="#273475"/>
    <path d="M222.899 185.611L267.914 209.851H178.761L222.899 185.611Z" fill="white"/>
    <path d="M163.153 149.345H152.2V177.468H163.153V149.345Z" fill="#3B5FA9"/>
    <path d="M152.197 149.345H119.338V177.468H152.197V149.345Z" fill="#273475"/>
    <path d="M267.983 205.592H178.795V302.462H267.983V205.592Z" fill="#FEFEFE"/>
    <path d="M152.198 177.468H163.934L178.798 205.592L152.198 177.468Z" fill="#FED131"/>
    <path d="M119.339 177.468H152.197L178.797 205.592H91.1743L119.339 177.468Z" fill="#273475"/>
    <path d="M178.78 289.86H226.677V313.408H178.78V289.86Z" fill="#273475"/>
    <path d="M216.278 261.878C216.278 256.269 220.831 251.722 226.448 251.722C232.065 251.722 236.619 256.269 236.619 261.878V292.345H216.278V261.878Z" fill="#273475"/>
    <path d="M258.745 289.963H192.879V294.65H258.745V289.963Z" fill="#3B5FA9"/>
    <path d="M267.696 294.65H201.83V299.337H267.696V294.65Z" fill="#3B5FA9"/>
    <path d="M276.644 299.337H210.778V304.024H276.644V299.337Z" fill="#3B5FA9"/>
    <path d="M283.904 304.024H218.039V308.712H283.904V304.024Z" fill="#3B5FA9"/>
    <path d="M291.159 308.712H225.293V313.399H291.159V308.712Z" fill="#3B5FA9"/>
    <path d="M256.843 216.462H242.761V238.336H256.843V216.462Z" fill="#273475"/>
    <path d="M242.761 226.652H256.843" stroke="white" stroke-width="0.33904"/>
    <path d="M249.77 216.462V238.336" stroke="white" stroke-width="0.33904"/>
    <path d="M230.36 216.462H216.278V238.336H230.36V216.462Z" fill="#273475"/>
    <path d="M216.278 226.652H230.36" stroke="white" stroke-width="0.33904"/>
    <path d="M223.287 216.462V238.336" stroke="white" stroke-width="0.33904"/>
    <path d="M203.546 216.462H189.463V238.336H203.546V216.462Z" fill="#273475"/>
    <path d="M189.463 226.652H203.546" stroke="white" stroke-width="0.33904"/>
    <path d="M196.473 216.462V238.336" stroke="white" stroke-width="0.33904"/>
    <path fill-rule="evenodd" clip-rule="evenodd" d="M363.374 258.92C363.38 258.678 363.383 258.435 363.383 258.191C363.383 242.487 350.634 229.757 334.907 229.757C319.18 229.757 306.431 242.487 306.431 258.191C306.431 258.435 306.434 258.678 306.44 258.92H363.374Z" fill="#009F79"/>
    <mask id="mask7_2063_8349" style="mask-type:alpha" maskUnits="userSpaceOnUse" x="297" y="229" width="58" height="30">
        <path fill-rule="evenodd" clip-rule="evenodd" d="M354.604 258.92C354.61 258.678 354.613 258.435 354.613 258.191C354.613 242.487 341.864 229.757 326.137 229.757C310.41 229.757 297.662 242.487 297.662 258.191C297.662 258.435 297.665 258.678 297.67 258.92H354.604Z" fill="black" fill-opacity="0.25"/>
    </mask>
    <g mask="url(#mask7_2063_8349)">
        <path fill-rule="evenodd" clip-rule="evenodd" d="M363.365 258.921C363.37 258.678 363.373 258.435 363.373 258.191C363.373 242.487 350.625 229.757 334.898 229.757C319.171 229.757 306.422 242.487 306.422 258.191C306.422 258.435 306.425 258.678 306.431 258.921H363.365Z" fill="black"/>
    </g>
    <path fill-rule="evenodd" clip-rule="evenodd" d="M72.4793 205.338C72.4851 205.096 72.4882 204.852 72.4882 204.609C72.4882 188.905 59.7393 176.174 44.0125 176.174C28.2857 176.174 15.5366 188.905 15.5366 204.609C15.5366 204.852 15.5397 205.096 15.5458 205.338H72.4793Z" fill="#009F79"/>
    <mask id="mask8_2063_8349" style="mask-type:alpha" maskUnits="userSpaceOnUse" x="6" y="176" width="58" height="30">
        <path fill-rule="evenodd" clip-rule="evenodd" d="M63.7094 205.338C63.7156 205.096 63.7187 204.853 63.7187 204.609C63.7187 188.905 50.9699 176.174 35.2429 176.174C19.5162 176.174 6.76709 188.905 6.76709 204.609C6.76709 204.853 6.77018 205.096 6.77627 205.338H63.7094Z" fill="black" fill-opacity="0.25"/>
    </mask>
    <g mask="url(#mask8_2063_8349)">
        <path fill-rule="evenodd" clip-rule="evenodd" d="M72.4683 205.338C72.4745 205.096 72.4776 204.853 72.4776 204.609C72.4776 188.905 59.7283 176.174 44.0017 176.174C28.2749 176.174 15.5259 188.905 15.5259 204.609C15.5259 204.853 15.5289 205.096 15.5351 205.338H72.4683Z" fill="black"/>
    </g>
    <path d="M80.3493 230.59H75.6553V311.836H80.3493V230.59Z" fill="#273475"/>
    <path d="M45.6724 227.61C45.6724 211.238 58.9641 133.1 75.36 133.1C91.7559 133.1 105.048 211.238 105.048 227.61C105.048 243.982 91.7559 257.255 75.36 257.255C58.9641 257.255 45.6724 243.982 45.6724 227.61Z" fill="#009F79"/>
    <mask id="mask9_2063_8349" style="mask-type:alpha" maskUnits="userSpaceOnUse" x="54" y="122" width="61" height="136">
        <path d="M54.8062 227.61C54.8062 211.238 68.0974 122.965 84.4938 122.965C100.89 122.965 114.181 211.238 114.181 227.61C114.181 243.982 100.89 257.255 84.4938 257.255C68.0974 257.255 54.8062 243.982 54.8062 227.61Z" fill="black" fill-opacity="0.25"/>
    </mask>
    <g mask="url(#mask9_2063_8349)">
        <path d="M45.6699 227.61C45.6699 211.238 61.4148 133.1 77.8107 133.1C94.2066 133.1 105.045 211.238 105.045 227.61C105.045 243.982 91.7534 257.255 75.3575 257.255C58.9616 257.255 45.6699 243.982 45.6699 227.61Z" fill="black"/>
    </g>
    <path d="M154.483 264.944H83.8623V286.981H154.483V264.944Z" fill="#273475"/>
    <path d="M178.759 234.092H112.184L83.8618 264.944H154.483L178.759 234.092Z" fill="#FED131"/>
    <path d="M178.759 313.425V234.092L154.483 264.944V313.425H178.759Z" fill="white"/>
    <path d="M158.896 284.777C158.896 278.692 163.837 273.759 169.931 273.759C176.025 273.759 180.965 278.692 180.965 284.777V309.018H158.896V284.777Z" fill="#273475"/>
    <path d="M225.106 203.24C227.543 203.24 229.519 201.267 229.519 198.833C229.519 196.399 227.543 194.425 225.106 194.425C222.668 194.425 220.692 196.399 220.692 198.833C220.692 201.267 222.668 203.24 225.106 203.24Z" fill="#273475"/>
    <path d="M248.696 189.125L232.371 181.48L228.318 190.111L244.643 197.756L248.696 189.125Z" fill="#C4C4C4"/>
    <path d="M238.133 184.179L232.371 181.48L228.318 190.111L234.079 192.809L238.133 184.179Z" fill="#3B5FA9"/>
    <path d="M243.894 186.877L238.132 184.179L234.079 192.809L239.841 195.508L243.894 186.877Z" fill="white"/>
    <path d="M249.654 189.575L243.892 186.877L239.839 195.508L245.601 198.206L249.654 189.575Z" fill="#CE0500"/>
    <path d="M232.725 181.681L231.765 181.231L223.659 198.492L224.619 198.942L232.725 181.681Z" fill="#273475"/>
    <path d="M199.58 189.125L215.905 181.48L219.958 190.111L203.633 197.756L199.58 189.125Z" fill="#C4C4C4"/>
    <path d="M210.143 184.179L215.905 181.48L219.958 190.111L214.196 192.809L210.143 184.179Z" fill="#3B5FA9"/>
    <path d="M204.382 186.877L210.144 184.179L214.197 192.809L208.435 195.508L204.382 186.877Z" fill="white"/>
    <path d="M198.622 189.575L204.384 186.877L208.437 195.508L202.675 198.206L198.622 189.575Z" fill="#CE0500"/>
    <path d="M215.55 181.681L216.511 181.231L224.617 198.492L223.657 198.941L215.55 181.681Z" fill="#273475"/>
    <path fill-rule="evenodd" clip-rule="evenodd" d="M183.384 316.947C183.391 316.661 183.394 316.375 183.394 316.088C183.394 297.578 168.368 282.574 149.832 282.574C131.296 282.574 116.27 297.578 116.27 316.088C116.27 316.375 116.273 316.661 116.28 316.947H183.384Z" fill="#009F79"/>
    <mask id="mask10_2063_8349" style="mask-type:alpha" maskUnits="userSpaceOnUse" x="105" y="282" width="69" height="35">
        <path fill-rule="evenodd" clip-rule="evenodd" d="M173.046 316.947C173.053 316.661 173.056 316.375 173.056 316.088C173.056 297.579 158.03 282.574 139.494 282.574C120.957 282.574 105.931 297.579 105.931 316.088C105.931 316.375 105.935 316.661 105.942 316.947H173.046Z" fill="black" fill-opacity="0.25"/>
    </mask>
    <g mask="url(#mask10_2063_8349)">
        <path fill-rule="evenodd" clip-rule="evenodd" d="M183.378 316.947C183.385 316.661 183.388 316.375 183.388 316.088C183.388 297.579 168.362 282.574 149.826 282.574C131.29 282.574 116.263 297.579 116.263 316.088C116.263 316.375 116.267 316.661 116.274 316.947H183.378Z" fill="black"/>
    </g>
    <path fill-rule="evenodd" clip-rule="evenodd" d="M96.8836 305.007C96.8902 304.748 96.8933 304.487 96.8933 304.226C96.8933 287.399 83.233 273.759 66.382 273.759C49.5311 273.759 35.8706 287.399 35.8706 304.226C35.8706 304.487 35.8739 304.748 35.8804 305.007H96.8836Z" fill="#009F79"/>
    <mask id="mask11_2063_8349" style="mask-type:alpha" maskUnits="userSpaceOnUse" x="26" y="273" width="62" height="33">
        <path fill-rule="evenodd" clip-rule="evenodd" d="M87.4957 305.007C87.5023 304.748 87.5058 304.487 87.5058 304.226C87.5058 287.4 73.8451 273.759 56.9941 273.759C40.1433 273.759 26.4829 287.4 26.4829 304.226C26.4829 304.487 26.4862 304.748 26.4928 305.007H87.4957Z" fill="black" fill-opacity="0.25"/>
    </mask>
    <g mask="url(#mask11_2063_8349)">
        <path fill-rule="evenodd" clip-rule="evenodd" d="M96.8836 305.007C96.8902 304.747 96.8933 304.487 96.8933 304.226C96.8933 287.399 83.233 273.759 66.382 273.759C49.5311 273.759 35.8706 287.399 35.8706 304.226C35.8706 304.487 35.8739 304.747 35.8804 305.007H96.8836Z" fill="black"/>
    </g>
    <path d="M96.8915 305.007H35.8687V315.944H96.8915V305.007Z" fill="#009F79"/>
    <path d="M35.8687 305.007H87.5031V316.941H35.8687V305.007Z" fill="#00775B"/>
    <path fill-rule="evenodd" clip-rule="evenodd" d="M139.235 316.947C139.242 316.661 139.246 316.375 139.246 316.088C139.246 297.578 124.219 282.574 105.684 282.574C87.1474 282.574 72.1206 297.578 72.1206 316.088C72.1206 316.375 72.1246 316.661 72.1316 316.947H139.235Z" fill="#009F79"/>
    <mask id="mask12_2063_8349" style="mask-type:alpha" maskUnits="userSpaceOnUse" x="61" y="282" width="68" height="35">
        <path fill-rule="evenodd" clip-rule="evenodd" d="M128.907 316.947C128.914 316.661 128.918 316.375 128.918 316.088C128.918 297.578 113.892 282.574 95.3554 282.574C76.8193 282.574 61.793 297.578 61.793 316.088C61.793 316.375 61.7965 316.661 61.804 316.947H128.907Z" fill="black" fill-opacity="0.25"/>
    </mask>
    <g mask="url(#mask12_2063_8349)">
        <path fill-rule="evenodd" clip-rule="evenodd" d="M139.235 316.947C139.242 316.661 139.246 316.375 139.246 316.088C139.246 297.578 124.219 282.574 105.684 282.574C87.1474 282.574 72.1206 297.578 72.1206 316.088C72.1206 316.375 72.1246 316.661 72.1316 316.947H139.235Z" fill="black"/>
    </g>
</svg>
