<svg width="56" height="56" viewBox="0 0 56 56" fill="none" xmlns="http://www.w3.org/2000/svg">
<rect y="9.91821e-05" width="56" height="56" rx="8" fill="#E8EDFF"/>
<path d="M36 21.0001H20V35.0001L29.292 25.7061C29.4795 25.5186 29.7338 25.4133 29.999 25.4133C30.2642 25.4133 30.5185 25.5186 30.706 25.7061L36 31.0101V21.0001ZM18 19.9931C18.0018 19.7305 18.1069 19.4791 18.2925 19.2933C18.4781 19.1075 18.7294 19.0022 18.992 19.0001H37.008C37.556 19.0001 38 19.4451 38 19.9931V36.0071C37.9982 36.2697 37.8931 36.5211 37.7075 36.7069C37.5219 36.8927 37.2706 36.998 37.008 37.0001H18.992C18.7288 36.9998 18.4765 36.8951 18.2905 36.7089C18.1045 36.5227 18 36.2703 18 36.0071V19.9931ZM24 27.0001C23.4696 27.0001 22.9609 26.7894 22.5858 26.4143C22.2107 26.0392 22 25.5305 22 25.0001C22 24.4697 22.2107 23.961 22.5858 23.5859C22.9609 23.2108 23.4696 23.0001 24 23.0001C24.5304 23.0001 25.0391 23.2108 25.4142 23.5859C25.7893 23.961 26 24.4697 26 25.0001C26 25.5305 25.7893 26.0392 25.4142 26.4143C25.0391 26.7894 24.5304 27.0001 24 27.0001Z" fill="#0063CB"/>
</svg>
