<svg width="26" height="22" viewBox="0 0 26 22" fill="none" xmlns="http://www.w3.org/2000/svg">
<path d="M7.16125 8.15014L12.8956 10.3219C13.0679 10.3872 13.2583 10.3863 13.43 10.3194L18.9975 8.15014M7.16125 8.15014L1.50075 10.1153C0.842894 10.3437 0.829986 11.2694 1.48122 11.516L7.16326 13.668M7.16125 8.15014L1.48122 5.99894C0.829986 5.7523 0.842894 4.8266 1.50075 4.59822L12.9154 0.63539C13.0758 0.579695 13.2505 0.580471 13.4104 0.63759L24.5055 4.60031C25.1549 4.83225 25.1679 5.74595 24.5254 5.9963L18.9975 8.15014M18.9975 8.15014L24.5055 10.1174C25.1549 10.3493 25.1679 11.263 24.5254 11.5134L18.9955 13.668M18.9955 13.668L24.5055 15.6359C25.1549 15.8679 25.1679 16.7816 24.5254 17.0319L13.43 21.355C13.2583 21.4219 13.0679 21.4228 12.8956 21.3575L1.48122 17.0346C0.829986 16.7879 0.842894 15.8622 1.50075 15.6338L7.16326 13.668M18.9955 13.668L13.43 15.8365C13.2583 15.9034 13.0679 15.9043 12.8956 15.839L7.16326 13.668" stroke="#161616" stroke-linejoin="round"/>
</svg>
