<?xml version="1.0" encoding="UTF-8" standalone="no"?>
<!-- Created with Inkscape (http://www.inkscape.org/) -->
<svg version="1.1" id="svg554" xml:space="preserve" width="446.17554" height="190.3024" viewBox="0 0 446.17554 190.3024" sodipodi:docname="logo-societe-numerique.svg" inkscape:version="1.1.2 (0a00cf5339, 2022-02-04)" xmlns:inkscape="http://www.inkscape.org/namespaces/inkscape" xmlns:sodipodi="http://sodipodi.sourceforge.net/DTD/sodipodi-0.dtd" xmlns="http://www.w3.org/2000/svg" xmlns:svg="http://www.w3.org/2000/svg"><defs id="defs558"/><sodipodi:namedview id="namedview556" pagecolor="#ffffff" bordercolor="#666666" borderopacity="1.0" inkscape:pageshadow="2" inkscape:pageopacity="0.0" inkscape:pagecheckerboard="0" showgrid="false" fit-margin-top="0" fit-margin-left="0" fit-margin-right="0" fit-margin-bottom="0" inkscape:zoom="2.6215684" inkscape:cx="285.51611" inkscape:cy="110.81153" inkscape:window-width="2560" inkscape:window-height="1376" inkscape:window-x="0" inkscape:window-y="0" inkscape:window-maximized="1" inkscape:current-layer="g604"/><g id="g560" inkscape:groupmode="layer" inkscape:label="ink_ext_XXXXXX" transform="matrix(1.3333333,0,0,-1.3333333,-268.93866,190.82133)"><path d="m 231.203,90.3727 c 5.315,0 9.45,2.5304 11.981,6.58 v 7.3403 l -11.473,-1.941 c -5.317,-0.929 -7.511,-3.2055 -7.511,-6.4106 0,-3.2922 2.616,-5.5687 7.003,-5.5687 m -15.776,5.2296 c 0,6.4137 4.976,11.0547 14.003,12.5717 l 13.754,2.279 v 2.191 c 0,5.234 -3.881,8.44 -9.367,8.44 -4.64,0 -8.266,-2.11 -10.715,-5.57 l -6.495,4.978 c 3.796,5.063 9.872,8.268 17.466,8.268 11.471,0 17.801,-6.749 17.801,-16.116 V 84.55 h -8.69 v 4.8094 c -3.037,-3.7125 -8.353,-6.0746 -13.583,-6.0746 -8.437,0 -14.174,4.809 -14.174,12.3175" style="fill:#2c3c88;fill-opacity:1;fill-rule:nonzero;stroke:none;stroke-width:0.1" id="path568"/><path d="m 256.599,127.073 h 8.69 v -4.134 c 3.205,3.375 7.424,5.822 13.5,5.822 9.363,0 16.534,-6.328 16.534,-18.646 V 84.5512 h -8.774 v 25.2268 c 0,6.749 -3.71,10.8 -9.787,10.8 -5.822,0 -9.281,-3.629 -11.473,-7.34 V 84.5512 h -8.69 v 42.5218" style="fill:#2c3c88;fill-opacity:1;fill-rule:nonzero;stroke:none;stroke-width:0.1" id="path570"/><path d="m 250.599,45.7121 7.001,-5.359 c -3.977,-5.3582 -10.371,-8.8133 -18.408,-8.8133 -14.605,0 -23.767,10.8024 -23.767,23.5055 0,12.7039 9.162,23.5059 23.767,23.5059 7.95,0 14.431,-3.4571 18.408,-8.8157 l -7.001,-5.3582 c -2.42,3.3719 -6.396,5.7911 -11.407,5.7911 -8.383,0 -14.433,-6.568 -14.433,-15.1231 0,-8.6433 6.05,-15.1242 14.518,-15.1242 4.926,0 8.902,2.4211 11.322,5.791" style="fill:#2c3c88;fill-opacity:1;fill-rule:nonzero;stroke:none;stroke-width:0.1" id="path572"/><path d="m 271.334,67.9023 h -9.44 v 7.8457 h 9.44 v 10.6301 h 8.773 V 75.748 h 15.217 V 67.9023 H 280.107 V 47.9906 c 0,-5.7375 3.039,-7.5937 7.764,-7.5937 2.868,0 5.934,0.3371 7.453,0.9281 v -7.677 c -2.025,-0.8449 -5.513,-1.2671 -8.803,-1.2671 -9.956,0 -15.187,5.232 -15.187,15.6097 v 19.9117" style="fill:#2c3c88;fill-opacity:1;fill-rule:nonzero;stroke:none;stroke-width:0.1" id="path574"/><path d="m 300.909,134.601 v -5.842 h 8.138 v 8.194 c 0,2.958 -2.314,5.424 -5.263,5.614 l -8.46,0.549 v -8.153 l 5.585,-0.362" style="fill:#2c3c88;fill-opacity:1;fill-rule:nonzero;stroke:none;stroke-width:0.1" id="path576"/><path d="m 209.841,134.601 5.585,0.362 v 8.153 l -8.46,-0.549 c -2.951,-0.19 -5.262,-2.656 -5.262,-5.614 v -8.194 h 8.137 v 5.842" style="fill:#2c3c88;fill-opacity:1;fill-rule:nonzero;stroke:none;stroke-width:0.1" id="path578"/><path d="m 209.841,25.6988 v 5.841 h -8.137 v -8.1949 c 0,-2.9558 2.311,-5.423 5.262,-5.614 l 8.46,-0.5469 v 8.1531 l -5.585,0.3617" style="fill:#2c3c88;fill-opacity:1;fill-rule:nonzero;stroke:none;stroke-width:0.1" id="path580"/><path d="M 308.417,17.948 273.084,17.1828 V 7.3 l 38.069,0.94414 c 3.992,0.26172 7.128,3.60276 7.128,7.60896 v 37.7375 h -9.864 V 17.948" style="fill:#7d92cd;fill-opacity:1;fill-rule:nonzero;stroke:none;stroke-width:0.1" id="path582"/><g id="g604"><g aria-label="société  numérique" transform="matrix(1,0,0,-1,334.2,47.9832)" id="text610" style="font-weight:800;font-size:39px;font-family:Marianne;-inkscape-font-specification:Marianne-ExtraBold;fill:#7d92cd"><path d="m 1.092,-2.964 c 1.989,2.262 4.485,3.744 8.268,3.744 3.783,0 7.41,-2.262 7.488,-6.708 0,-6.864 -9.087,-5.85 -9.087,-8.385 0,-0.663 0.507,-1.209 1.599,-1.209 1.404,0 2.574,1.053 3.51,2.145 l 4.056,-3.627 c -1.482,-1.911 -4.446,-3.432 -7.566,-3.432 -4.329,0 -7.488,2.691 -7.488,6.435 0,6.903 9.087,5.811 9.087,8.502 0,0.78 -0.546,1.365 -1.677,1.365 -1.755,0 -3.081,-1.17 -4.134,-2.535 z" id="path4072"/><path d="m 30.458999,-20.436 c -6.474,0 -10.881,4.602 -10.881,10.608 0,6.006 4.407,10.608 10.881,10.608 6.435,0 10.842,-4.602 10.842,-10.608 0,-6.006 -4.407,-10.608 -10.842,-10.608 z m 0.039,15.405 c -2.574,0 -4.485,-1.872 -4.485,-4.797 0,-2.925 1.911,-4.797 4.485,-4.797 2.496,0 4.407,1.833 4.407,4.797 0,2.886 -1.911,4.797 -4.407,4.797 z" id="path4074"/><path d="m 55.184508,-5.031 c -2.652,0 -4.524,-1.872 -4.524,-4.797 0,-2.886 1.872,-4.797 4.407,-4.797 1.716,0 2.925,0.78 3.627,1.794 l 4.836,-3.666 c -1.833,-2.418 -4.758,-3.939 -8.385,-3.939 -6.942,0 -10.92,4.875 -10.92,10.608 0,5.733 3.978,10.608 10.92,10.608 3.627,0 6.552,-1.521 8.385,-3.939 l -4.836,-3.666 c -0.702,1.014 -1.95,1.794 -3.51,1.794 z" id="path4076"/><path d="m 69.731506,-21.801 c 2.067,0 3.861,-1.833 3.861,-3.939 0,-2.106 -1.794,-3.9 -3.861,-3.9 -2.145,0 -3.939,1.794 -3.939,3.9 0,2.106 1.794,3.939 3.939,3.939 z M 66.572506,0 h 6.201 v -19.656 h -6.201 z" id="path4078"/><path d="m 90.361991,-22.776 4.758,-6.474 h -6.63 l -4.017,6.474 z m 6.084,19.617 -4.368,-3.471 c -0.897,1.131 -2.535,1.872 -4.407,1.872 -2.34,0 -4.056,-0.702 -4.641,-3.354 h 12.714 c 0.195,-0.702 0.39,-1.95 0.39,-3.276 0,-5.343 -3.666,-9.048 -9.243,-9.048 -6.669,0 -10.218,4.914 -10.218,10.608 0,5.733 3.822,10.608 11.037,10.608 3.783,0 6.864,-1.482 8.736,-3.939 z m -9.711,-12.285 c 2.301,0 3.315,1.638 3.393,2.964 h -7.059 c 0.468,-1.989 1.677,-2.964 3.666,-2.964 z" id="path4080"/><path d="m 101.711,-7.644 c 0,4.836 2.223,8.034 7.566,8.034 1.833,0 3.042,-0.234 4.095,-0.702 v -5.343 c -0.585,0.234 -1.521,0.429 -2.964,0.429 -1.638,0 -2.457,-0.858 -2.457,-2.418 v -6.474 h 5.382 v -5.538 h -5.382 v -4.914 h -6.24 v 4.914 h -3.666003 v 5.538 H 101.711 Z" id="path4082"/><path d="m 129.4011,-22.776 4.758,-6.474 h -6.63 l -4.017,6.474 z m 6.084,19.617 -4.368,-3.471 c -0.897,1.131 -2.535,1.872 -4.407,1.872 -2.34,0 -4.056,-0.702 -4.641,-3.354 h 12.714 c 0.195,-0.702 0.39,-1.95 0.39,-3.276 0,-5.343 -3.666,-9.048 -9.243,-9.048 -6.669,0 -10.218,4.914 -10.218,10.608 0,5.733 3.822,10.608 11.037,10.608 3.783,0 6.864,-1.482 8.736,-3.939 z m -9.711,-12.285 c 2.301,0 3.315,1.638 3.393,2.964 h -7.059 c 0.468,-1.989 1.677,-2.964 3.666,-2.964 z" id="path4084"/><path d="M 2.535,38 H 8.736 V 25.754 c 0.39,-0.663 1.365,-2.379 3.549,-2.379 1.989,0 3.042,1.365 3.042,3.354 V 38 h 6.24 V 26.456 c 0,-5.967 -3.432,-8.892 -7.605,-8.892 -2.301,0 -3.939,0.78 -5.226,1.872 V 18.344 H 2.535 Z" id="path4086"/><path d="m 38.882292,29.459 c 0,2.067 -1.053,3.51 -3.276,3.51 -2.301,0 -3.315,-1.443 -3.315,-3.51 V 18.344 h -6.24 v 10.764 c 0,5.889 3.393,9.672 9.516,9.672 6.045,0 9.555,-3.783 9.555,-9.672 V 18.344 h -6.24 z" id="path4088"/><path d="m 49.802292,38 h 6.201 V 25.754 c 0.429,-0.663 1.209,-2.379 3.159,-2.379 1.755,0 2.652,1.209 2.652,2.964 V 38 h 6.24 V 26.066 c 0,-0.156 0,-0.312 0,-0.468 0.312,-0.507 1.092,-2.223 3.081,-2.223 1.755,0 2.652,1.209 2.652,2.964 V 38 h 6.24 V 26.066 c 0,-5.694 -3.276,-8.502 -7.215,-8.502 -3.237,0 -5.031,1.326 -6.318,2.847 -1.326,-1.911 -3.354,-2.847 -5.655,-2.847 -2.106,0 -3.666,0.78 -4.836,1.794 v -1.014 h -6.201 z" id="path4090"/><path d="M 97.421294,15.224 102.17929,8.75 h -6.629996 l -4.017,6.474 z m 6.083996,19.617 -4.367996,-3.471 c -0.897,1.131 -2.535,1.872 -4.407,1.872 -2.34,0 -4.056,-0.702 -4.641,-3.354 h 12.713996 c 0.195,-0.702 0.39,-1.95 0.39,-3.276 0,-5.343 -3.665996,-9.048 -9.242996,-9.048 -6.669,0 -10.218,4.914 -10.218,10.608 0,5.733 3.822,10.608 11.037,10.608 3.783,0 6.863996,-1.482 8.735996,-3.939 z M 93.794294,22.556 c 2.301,0 3.315,1.638 3.393,2.964 h -7.059 c 0.468,-1.989 1.677,-2.964 3.666,-2.964 z" id="path4092"/><path d="m 107.40529,38 h 6.201 V 26.066 c 0.39,-0.663 1.872,-1.989 4.134,-1.989 1.014,0 1.755,0.117 2.418,0.273 v -6.123 c -0.468,-0.156 -1.092,-0.273 -1.794,-0.273 -2.028,0 -3.549,0.858 -4.758,1.989 v -1.599 h -6.201 z" id="path4094"/><path d="m 126.63166,16.199 c 2.067,0 3.861,-1.833 3.861,-3.939 0,-2.106 -1.794,-3.9 -3.861,-3.9 -2.145,0 -3.939,1.794 -3.939,3.9 0,2.106 1.794,3.939 3.939,3.939 z M 123.47266,38 h 6.201 V 18.344 h -6.201 z" id="path4096"/><path d="m 133.53466,28.172 c 0,5.733 3.666,10.608 9.906,10.608 2.418,0 4.134,-0.663 5.46,-1.872 v 10.686 h 6.24 v -29.25 h -6.24 v 1.092 c -1.326,-1.209 -3.042,-1.872 -5.46,-1.872 -6.24,0 -9.906,4.875 -9.906,10.608 z m 6.396,0 c 0,-2.886 1.677,-4.797 4.407,-4.797 1.911,0 3.393,0.819 4.563,2.301 v 4.992 c -1.053,1.443 -2.574,2.301 -4.563,2.301 -2.73,0 -4.407,-1.911 -4.407,-4.797 z" id="path4098"/><path d="m 172.61266,29.459 c 0,2.067 -1.053,3.51 -3.276,3.51 -2.301,0 -3.315,-1.443 -3.315,-3.51 V 18.344 h -6.24 v 10.764 c 0,5.889 3.393,9.672 9.516,9.672 6.045,0 9.555,-3.783 9.555,-9.672 V 18.344 h -6.24 z" id="path4100"/><path d="m 202.13565,34.841 -4.368,-3.471 c -0.897,1.131 -2.535,1.872 -4.407,1.872 -2.34,0 -4.056,-0.702 -4.641,-3.354 h 12.714 c 0.195,-0.702 0.39,-1.95 0.39,-3.276 0,-5.343 -3.666,-9.048 -9.243,-9.048 -6.669,0 -10.218,4.914 -10.218,10.608 0,5.733 3.822,10.608 11.037,10.608 3.783,0 6.864,-1.482 8.736,-3.939 z m -9.711,-12.285 c 2.301,0 3.315,1.638 3.393,2.964 h -7.059 c 0.468,-1.989 1.677,-2.964 3.666,-2.964 z" id="path4102"/></g></g></g></svg>