<svg width="82" height="88" viewBox="0 0 82 88" fill="none" xmlns="http://www.w3.org/2000/svg">
    <g clip-path="url(#clip0_14412_40651)">
        <path d="M40.9838 88C63.4039 88 81.579 69.8249 81.579 47.4049C81.579 24.9848 63.4039 6.80969 40.9838 6.80969C18.5637 6.80969 0.388672 24.9848 0.388672 47.4049C0.388672 69.8249 18.5637 88 40.9838 88Z" fill="#0C008A"/>
        <path d="M40.9838 81.2529C63.4039 81.2529 81.579 63.0778 81.579 40.6577C81.579 18.2376 63.4039 0.062561 40.9838 0.062561C18.5637 0.062561 0.388672 18.2376 0.388672 40.6577C0.388672 63.0778 18.5637 81.2529 40.9838 81.2529Z" fill="url(#paint0_linear_14412_40651)"/>
        <path d="M48.3597 39.3885L59.1325 28.6157C59.9524 27.7958 59.9524 26.4676 59.1325 25.649L54.4033 20.9197C53.5833 20.0998 52.2552 20.0998 51.4365 20.9197L40.6637 31.6925L29.8909 20.9197C29.071 20.0998 27.7429 20.0998 26.9242 20.9197L22.195 25.649C21.3751 26.4689 21.3751 27.797 22.195 28.6157L32.9678 39.3885L22.195 50.1613C21.3751 50.9812 21.3751 52.3093 22.195 53.128L26.9242 57.8572C27.7441 58.6771 29.0723 58.6771 29.8909 57.8572L40.6637 47.0844L51.4365 57.8572C52.2565 58.6771 53.5846 58.6771 54.4033 57.8572L59.1325 53.128C59.9524 52.3081 59.9524 50.9799 59.1325 50.1613L48.3597 39.3885Z" fill="white"/>
    </g>
    <defs>
        <linearGradient id="paint0_linear_14412_40651" x1="9.74321" y1="57.7533" x2="80.9819" y2="18.7716" gradientUnits="userSpaceOnUse">
            <stop stop-color="#DC000F"/>
            <stop offset="1" stop-color="#F4849A"/>
        </linearGradient>
        <clipPath id="clip0_14412_40651">
            <rect width="81.3656" height="88" fill="white" transform="translate(0.316406)"/>
        </clipPath>
    </defs>
</svg>
