<?xml version="1.0" encoding="UTF-8" standalone="no"?>
<svg
   id="Calque_1"
   viewBox="0 0 689.17004 702.51001"
   version="1.1"
   sodipodi:docname="instituer.svg"
   width="689.17004"
   height="702.51001"
   inkscape:version="1.1.2 (0a00cf5339, 2022-02-04)"
   xmlns:inkscape="http://www.inkscape.org/namespaces/inkscape"
   xmlns:sodipodi="http://sodipodi.sourceforge.net/DTD/sodipodi-0.dtd"
   xmlns="http://www.w3.org/2000/svg"
   xmlns:svg="http://www.w3.org/2000/svg">
  <sodipodi:namedview
     id="namedview59"
     pagecolor="#ffffff"
     bordercolor="#000000"
     borderopacity="0.25"
     inkscape:pageshadow="2"
     inkscape:pageopacity="0.0"
     inkscape:pagecheckerboard="0"
     showgrid="false"
     fit-margin-top="0"
     fit-margin-left="0"
     fit-margin-right="0"
     fit-margin-bottom="0"
     inkscape:zoom="0.70625"
     inkscape:cx="343.36283"
     inkscape:cy="351.15044"
     inkscape:window-width="2560"
     inkscape:window-height="1363"
     inkscape:window-x="0"
     inkscape:window-y="0"
     inkscape:window-maximized="1"
     inkscape:current-layer="Calque_1" />
  <defs
     id="defs14">
    <style
       id="style2">.cls-1{fill:none;stroke:#000;stroke-linecap:round;stroke-linejoin:round;stroke-width:14.46px;}.cls-2{fill:url(#Dégradé_sans_nom_6);}.cls-2,.cls-3,.cls-4,.cls-5,.cls-6,.cls-7,.cls-8,.cls-9,.cls-10{stroke-width:0px;}.cls-3{fill:url(#Dégradé_sans_nom_3);}.cls-4{fill:#615feb;}.cls-5{fill:#9b9aff;}.cls-6{fill:#0c008a;}.cls-7{fill:#dc000f;}.cls-8{fill:#f49a01;}.cls-9{fill:#fff;}.cls-10{fill:#fcbcc1;}</style>
    <linearGradient
       id="Dégradé_sans_nom_3"
       x1="659.56"
       y1="381.29001"
       x2="1246.6"
       y2="566.88"
       gradientUnits="userSpaceOnUse"
       gradientTransform="translate(-615.29,-0.5)">
      <stop
         offset="0"
         stop-color="#0c008a"
         id="stop4" />
      <stop
         offset="1"
         stop-color="#615feb"
         id="stop6" />
    </linearGradient>
    <linearGradient
       id="Dégradé_sans_nom_6"
       x1="1021.6"
       y1="110.34"
       x2="1115.5"
       y2="110.34"
       gradientUnits="userSpaceOnUse"
       gradientTransform="translate(-615.29,-0.5)">
      <stop
         offset="0"
         stop-color="#dc000f"
         id="stop9" />
      <stop
         offset="1"
         stop-color="#f4849a"
         id="stop11" />
    </linearGradient>
  </defs>
  <rect
     class="cls-3"
     x="41.920021"
     y="295.60999"
     width="612.03998"
     height="362.35999"
     id="rect16"
     style="fill:url(#D%C3%A9grad%C3%A9_sans_nom_3)" />
  <path
     class="cls-6"
     d="m 9.5,653.88 h 670.17 c 5.24,0 9.5,4.26 9.5,9.5 v 39.13 H 0 v -39.13 c 0,-5.24 4.26,-9.5 9.5,-9.5 z"
     id="path18" />
  <rect
     class="cls-6"
     x="13.410012"
     y="267.75"
     width="675.76001"
     height="27.860001"
     rx="2.72"
     ry="2.72"
     id="rect20" />
  <rect
     class="cls-6"
     x="13.410012"
     y="353.87"
     width="675.76001"
     height="27.860001"
     rx="2.72"
     ry="2.72"
     id="rect22" />
  <rect
     class="cls-5"
     x="122.41001"
     y="267.75"
     width="451.07001"
     height="86.120003"
     id="rect24" />
  <polygon
     class="cls-7"
     points="1188.76,268.25 737.7,268.25 959.88,158.78 "
     id="polygon26"
     transform="translate(-615.29,-0.5)" />
  <line
     class="cls-1"
     x1="344.59"
     y1="7.3699999"
     x2="344.59"
     y2="158.28"
     id="line28" />
  <rect
     class="cls-8"
     x="41.920021"
     y="612.70001"
     width="127.44"
     height="45.27"
     id="rect30" />
  <rect
     class="cls-8"
     x="526.52008"
     y="612.70001"
     width="127.44"
     height="45.27"
     id="rect32" />
  <rect
     class="cls-4"
     x="169.36003"
     y="426.57001"
     width="85.519997"
     height="231.39999"
     id="rect34" />
  <rect
     class="cls-4"
     x="441.00003"
     y="426.57001"
     width="85.519997"
     height="231.39999"
     id="rect36" />
  <rect
     class="cls-6"
     x="288.41"
     y="466.82001"
     width="117.38"
     height="191.16"
     id="rect38" />
  <rect
     class="cls-5"
     x="288.41"
     y="466.82001"
     width="117.38"
     height="67.07"
     id="rect40" />
  <path
     class="cls-9"
     d="m 83.03,439.99 h 48.57 c 3.25,0 5.9,2.64 5.9,5.9 V 584.2 H 77.13 V 445.89 c 0,-3.25 2.64,-5.9 5.9,-5.9 z"
     id="path42" />
  <path
     class="cls-9"
     d="m 565.95,439.99 h 48.57 c 3.25,0 5.9,2.64 5.9,5.9 V 584.2 H 560.05 V 445.89 c 0,-3.25 2.64,-5.9 5.9,-5.9 z"
     id="path44" />
  <path
     class="cls-10"
     d="m 355.02,0 h 136.93 c 4.56,0 8.26,3.7 8.26,8.26 V 91.21 H 353.49 V 1.53 c 0,-0.84 0.69,-1.53 1.53,-1.53 z"
     id="path46" />
  <path
     class="cls-2"
     d="m 406.31,91.21 h 93.9 v 29.99 c 0,4.02 -3.26,7.28 -7.28,7.28 h -86.62 z"
     id="path48"
     style="fill:url(#D%C3%A9grad%C3%A9_sans_nom_6)" />
  <path
     class="cls-5"
     d="m 122.41,380.82 h 178.21 v 36.81 c 0,4.93 -4.01,8.94 -8.94,8.94 H 131.35 c -4.93,0 -8.94,-4.01 -8.94,-8.94 z"
     id="path50" />
  <path
     class="cls-5"
     d="m 394.66,380.82 h 178.21 v 36.81 c 0,4.93 -4.01,8.94 -8.94,8.94 H 403.6 c -4.93,0 -8.94,-4.01 -8.94,-8.94 z"
     id="path52" />
  <path
     class="cls-6"
     d="m 352.85,0 h 50.58 V 91.21 H 351.41 V 1.45 c 0,-0.8 0.65,-1.45 1.45,-1.45 z"
     id="path54" />
  <rect
     class="cls-9"
     x="403.32999"
     y="0"
     width="49.93"
     height="91.209999"
     id="rect56" />
</svg>
