<svg width="304.068" height="76.019" viewBox="0 0 304.068 76.019" xmlns="http://www.w3.org/2000/svg"><defs><linearGradient x1="23.303" y1=".77" x2="23.303" y2="34.816" id="a" gradientTransform="scale(.80172 1.24732)" gradientUnits="userSpaceOnUse"><stop stop-color="#12A3FF" offset="0%"/><stop stop-color="#3D68FF" offset="100%"/></linearGradient><linearGradient x1="113.928" y1="8.039" x2="113.928" y2="21.539" id="b" gradientTransform="scale(.4557 2.19443)" gradientUnits="userSpaceOnUse"><stop stop-color="#12A3FF" offset="0%"/><stop stop-color="#3D68FF" offset="100%"/></linearGradient><linearGradient x1="91.232" y1="15.002" x2="91.232" y2="42.728" id="c" gradientTransform="scale(.89615 1.11588)" gradientUnits="userSpaceOnUse"><stop stop-color="#12A3FF" offset="0%"/><stop stop-color="#3D68FF" offset="100%"/></linearGradient><linearGradient x1="160.935" y1="9.941" x2="160.935" y2="45.718" id="d" gradientTransform="scale(.77504 1.29025)" gradientUnits="userSpaceOnUse"><stop stop-color="#12A3FF" offset="0%"/><stop stop-color="#3D68FF" offset="100%"/></linearGradient></defs><g fill="none" fill-rule="evenodd"><g transform="translate(62.936 -229.41)"/><g fill-rule="nonzero"><path d="M23.523 4.313c4.006 0 6.786.981 8.422 2.943q2.452 2.822 4.66 10.793l10.057 36.548c.736 2.862.245 3.598-2.78 3.598h-1.145c-3.025 0-3.843-.736-4.742-3.598l-3.025-11.12H11.994L8.97 54.597c-.9 2.862-1.717 3.598-4.742 3.598H3.082c-3.025 0-3.516-.736-2.78-3.598L10.36 18.049q2.208-7.971 4.66-10.793c1.718-1.962 4.498-2.943 8.504-2.943m0 7.686c-2.616 0-3.352 1.063-4.66 5.887L14.039 35.71h18.888l-4.824-17.824c-1.308-4.824-1.963-5.887-4.579-5.887m52.284-6.95c11.692 0 17.497 4.742 17.497 14.144 0 5.969-2.044 9.32-7.604 11.283v.327c6.95 2.208 9.24 6.05 9.24 12.346 0 10.057-6.378 15.045-19.133 15.045H65.015c-6.541 0-9.321-2.78-9.321-9.321V14.37c0-6.541 2.78-9.321 9.32-9.321zm1.063 29.68H64.279v12.264c0 2.044 1.063 3.107 3.189 3.107h7.849c8.258 0 10.875-1.962 10.875-7.522 0-5.233-2.453-7.85-9.321-7.85m-1.063-21.585h-8.34c-2.126 0-3.189 1.063-3.189 3.107v11.038h11.529c6.459 0 8.748-2.616 8.748-7.195 0-4.578-2.29-6.95-8.748-6.95m50.322 45.951c4.252 0 7.767-.572 10.63-1.635 2.37-.9 3.351-1.717 3.351-4.252v-1.226c0-2.617-1.553-3.434-3.27-2.698q-4.047 1.716-10.548 1.717c-9.893 0-13.327-4.416-13.327-12.347V25.571c0-9.075 3.843-13.245 13-13.245 3.925 0 7.44.654 10.548 1.88 2.698.981 3.352.246 3.352-2.698v-1.225c0-2.617-.49-3.026-3.434-4.252q-4.17-1.718-10.302-1.718c-14.636 0-21.994 7.113-21.994 21.258v13.082c0 14.145 7.277 20.441 21.994 20.441" fill="#6b1fdc"/><path d="M33.686.96c2.944 0 3.68.737 3.68 3.68v36.957c0 11.692-6.868 17.497-18.642 17.497C6.214 59.094 0 53.29 0 41.597v-7.032C0 22.71 5.723 16.741 17.088 16.741c5.724 0 9.73 1.799 11.938 5.315V4.64c0-2.943.736-3.68 3.68-3.68zM18.642 24.59c-7.931 0-10.22 2.944-10.22 9.812v7.031c0 6.869 2.125 9.73 10.22 9.73s10.384-2.943 10.384-9.73v-7.031c0-6.868-2.453-9.812-10.384-9.812" fill="url(#a)" style="fill:url(#a)" transform="translate(160.357)"/><path d="M215.912 8.81c2.044-2.044 2.044-5.315 0-7.277-1.962-2.044-5.233-2.044-7.277 0-2.044 1.962-2.044 5.233 0 7.277 2.044 1.962 5.315 1.962 7.277 0" fill="#179eff"/><path d="M52.448 58.195c2.944 0 3.68-.736 3.68-3.68V21.32c0-2.944-.736-3.68-3.68-3.68h-1.063c-2.943 0-3.68.736-3.68 3.68v33.195c0 2.944.737 3.68 3.68 3.68z" fill="url(#b)" style="fill:url(#b)" transform="translate(160.357)"/><path d="M80.286 16.741c11.855 0 18.478 3.68 18.478 13.41v15.861c0 9.076-5.315 13.082-17.415 13.082-11.039 0-16.598-4.17-16.598-12.591 0-8.749 5.887-12.346 16.68-12.346h8.993V30.15c0-4.824-3.189-6.214-9.648-6.214q-4.905 0-8.585.736c-2.371.409-3.025-.082-3.025-2.616V20.91c0-2.371.654-3.107 2.943-3.516a51 51 0 0 1 8.177-.654m10.138 23.793H81.43c-5.641 0-8.258 1.635-8.258 5.805 0 4.334 3.107 5.642 8.013 5.642 6.132 0 9.24-1.227 9.24-6.378z" fill="url(#c)" style="fill:url(#c)" transform="translate(160.357)"/><path d="m141.482 13.964.164.16.736.736c1.661 1.662 1.792 2.635.242 4.252l-.16.164-3.353 3.597c1.966 1.966 3.024 4.611 3.103 7.938l.005.402v.736c0 9.811-5.887 14.717-17.58 14.717q-5.886 0-7.604.49c-1.144.328-1.717 1.064-1.717 2.127 0 .9.573 1.553 1.8 1.88 1.226.327 3.679.49 7.521.49 7.114 0 11.938.9 14.636 2.617s4.006 4.742 4.006 9.076c0 4.66-1.39 7.93-4.088 9.811s-7.522 2.862-14.554 2.862c-7.195 0-12.182-.9-14.88-2.698s-4.007-4.579-4.007-8.422c0-3.842 1.472-6.54 4.334-8.258-2.044-1.226-3.107-3.188-3.107-5.723 0-3.68 2.125-5.969 6.459-7.032-4.317-2.078-6.524-5.955-6.62-11.553l-.003-.384v-.736c0-9.157 6.623-14.472 17.825-14.472 2.67 0 5.057.356 7.29 1.135l.477.173 4.66-4.006c1.82-1.583 2.798-1.634 4.416-.08zm-24.283 44.558c-2.044.9-3.025 2.698-3.025 5.233 0 4.251 2.534 5.15 10.465 5.15h.455c7.176-.034 9.766-.909 9.766-5.314 0-4.17-2.453-4.742-10.22-4.742-3.19 0-5.642-.082-7.441-.327m7.44-34.504c-6.75 0-9.314 2.527-9.4 6.96l-.002.235v.736c0 4.987 2.29 7.44 9.402 7.44 6.833 0 9.082-2.37 9.156-7.189l.002-.251v-.736c0-4.579-2.371-7.195-9.157-7.195z" fill="url(#d)" style="fill:url(#d)" transform="translate(160.357)"/></g></g></svg>
