<svg width="374" height="148" viewBox="0 0 374 148" fill="none" xmlns="http://www.w3.org/2000/svg"><path d="M43.65 67.906H18.059l-3.51 8.066H.814l25.869-63.058h8.464l25.77 63.058H47.178zM30.864 33.11 22.52 57.485h16.67zm50.51 42.862H68.588V29.537h12.786zm59.607-70.379v70.38h-11.755v-5.731c-3.231 4.415-8.623 6.85-15.065 6.85-13.262 0-22.737-10.324-22.737-24.298s9.475-24.297 22.737-24.297c5.867 0 10.704 1.963 14.034 5.535V5.593zm-12.607 47.201c0-8.812-5.967-12.855-11.854-12.855-6.641 0-12.132 4.887-12.132 12.757 0 7.89 5.392 12.855 12.132 12.855 5.887 0 11.854-3.847 11.854-12.757m64.643-4.416v27.594h-11.755v-4.494c-3.311 3.474-8.247 5.633-14.312 5.633-10.229 0-16.216-6.006-16.216-13.896 0-8.439 6.919-13.502 17.722-13.502h11.755v-2.061c0-5.063-2.934-8.164-8.722-8.164-5.015 0-8.524 2.355-12.409 6.378l-6.641-7.791c5.491-6.477 12.231-9.578 20.477-9.578 11.954 0 20.101 6.653 20.101 19.881m-12.806 10.245v-.57h-10.05c-4.163 0-6.542 1.59-6.542 4.692 0 3.199 2.756 5.063 6.72 5.063 5.432 0 9.872-3.749 9.872-9.185m68.25-11.462v28.811h-12.707V48.85c0-5.358-3.509-9.008-8.722-9.008s-8.9 3.65-8.9 9.008v27.123h-12.786V29.537h11.755v4.22c3.231-3.2 7.969-5.26 13.737-5.26 10.982 0 17.623 7.497 17.623 18.664m42.442 18.213v10.598c-2.657.648-5.491 1.12-8.822 1.12-11.556 0-18.772-5.535-18.772-17.448v-19.43h-7.394V29.518h7.394V17.8h12.786v11.736h13.261v10.696h-13.261v18.292c0 5.338 2.834 7.222 8.722 7.222 1.546 0 3.628-.196 6.086-.373m42.084-29.928-6.443 7.791c-3.033-2.806-6.72-4.416-10.526-4.416-3.033 0-5.015 1.04-5.015 3.278 0 1.884 1.507 2.806 4.936 4.121l4.539 1.884c8.425 3.376 13.183 6.948 13.183 14.17 0 9.578-8.049 14.818-18.297 14.818-8.345 0-15.264-3.572-19.426-9.008l6.442-7.694c3.786 3.847 8.147 6.28 13.182 6.28 3.231 0 5.967-1.216 5.967-3.846 0-2.159-1.982-3.003-4.837-4.22l-5.015-2.06c-7.969-3.2-12.786-6.85-12.786-14.17 0-8.91 7.295-13.974 17.246-13.974 6.799 0 12.588 2.355 16.85 7.046M60.936 99.19l-9.674 6.751C47.1 99.367 41.212 95.52 33.342 95.52c-11.656 0-20.18 8.439-20.18 20.45 0 11.913 8.524 20.274 20.18 20.274 7.87 0 13.738-3.847 17.92-10.421l9.674 6.751c-5.392 9.479-15.541 15.387-27.673 15.387C14.689 147.98 0 134.105 0 115.892c0-18.193 14.689-32.089 33.362-32.089 12.033 0 22.083 5.908 27.574 15.387m56.772 24.395c0 13.797-11.378 24.297-25.294 24.297-13.915 0-25.036-10.5-25.036-24.297 0-13.699 11.081-24.199 25.116-24.199 13.836 0 25.214 10.5 25.214 24.199m-37.346.098c0 7.321 5.015 12.581 12.132 12.581 6.918 0 12.131-5.358 12.131-12.581 0-7.32-5.213-12.757-12.131-12.757-7.117 0-12.132 5.437-12.132 12.757m90.908-5.632v28.811h-12.706v-27.123c0-5.358-3.509-9.009-8.722-9.009-5.214 0-8.901 3.651-8.901 9.009v27.123h-12.786v-46.455h11.755v4.219c3.231-3.199 7.969-5.26 13.738-5.26 10.982.02 17.622 7.517 17.622 18.685m54.038 0v28.811h-12.706v-27.123c0-5.358-3.509-9.009-8.722-9.009-5.214 0-8.901 3.651-8.901 9.009v27.123h-12.786v-46.455h11.755v4.219c3.232-3.199 7.969-5.26 13.738-5.26 11.001.02 17.622 7.517 17.622 18.685m55.445 9.852h-32.887c1.507 5.907 6.344 9.205 13.183 9.205 5.114 0 9.297-1.786 13.083-4.691l5.312 8.635c-5.312 4.416-11.556 6.948-18.772 6.948-14.887 0-25.691-10.598-25.691-24.297s10.705-24.297 24.541-24.297c13.183 0 22.083 9.577 22.083 21.589 0 2.59-.476 5.318-.852 6.908m-32.887-8.91h21.33c-.099-5.908-4.738-9.382-10.149-9.382-5.392 0-9.753 3.572-11.181 9.382m86.528-8.165-8.9 6.85c-2.657-3.945-6.066-6.752-11.28-6.752-7.295 0-12.31 5.437-12.31 12.659 0 7.321 5.015 12.757 12.31 12.757 5.115 0 8.524-2.806 11.28-6.653l8.9 6.751c-3.885 6.948-11.081 11.54-20.378 11.54-14.035 0-25.116-10.598-25.116-24.395 0-13.699 11.081-24.199 25.116-24.199 9.376 0 16.493 4.495 20.378 11.442M374 136.264v10.598c-2.656.647-5.491 1.118-8.821 1.118-11.557 0-18.772-5.534-18.772-17.447v-19.43h-7.394v-10.696h7.394V88.671h12.785v11.736h13.262v10.696h-13.262v18.292c0 5.338 2.835 7.222 8.723 7.222 1.546.02 3.627-.177 6.085-.353" fill="#1B4991"/><path d="M65.495 3.807A13.14 13.14 0 0 1 74.772 0h25.889c3.35 0 6.7 1.256 9.257 3.788a12.867 12.867 0 0 1 0 18.33c-2.577 2.552-5.967 3.808-9.356 3.788h-25.71a13.17 13.17 0 0 1-9.357-3.787 12.845 12.845 0 0 1 0-18.312" fill="url(#a)"/><path d="M100.661 25.906c7.226 0 13.083-5.799 13.083-12.953S107.887 0 100.661 0c-7.225 0-13.083 5.8-13.083 12.953 0 7.154 5.858 12.953 13.083 12.953" fill="#EF4056"/><defs><linearGradient id="a" x1="61.953" y1="12.961" x2="113.234" y2="12.961" gradientUnits="userSpaceOnUse"><stop stop-color="#F38192" stop-opacity="0"/><stop offset="1" stop-color="#F05B89"/></linearGradient></defs></svg>
