<svg width="46.738" height="46.73" viewBox="0 0 46.738 46.73" fill="none" xmlns="http://www.w3.org/2000/svg"><path d="M38.886 7.845a21.6 21.6 0 0 0-15.317-6.35c-5.983 0-11.4 2.433-15.317 6.35a21.6 21.6 0 0 0-6.35 15.317c0 5.983 2.434 11.4 6.35 15.316a21.6 21.6 0 0 0 15.317 6.35c5.983 0 11.4-2.433 15.317-6.35a21.6 21.6 0 0 0 6.35-15.316c0-5.984-2.434-11.4-6.35-15.317" fill="url(#a)" style="fill:url(#a)"/><path d="M16.02 21.862a6.237 6.237 0 0 1 8.832 0l2.217-2.2L45.436 1.296l.75-.75c-.65-.65-1.85-.75-3.467-.134L13.786 11.546c-1.634.616-3.3 1.883-4.667 3.416l4.7 4.7z" fill="url(#b)" style="fill:url(#b)"/><path d="m13.818 32.912 2.217-2.217a6.237 6.237 0 0 1 0-8.833l-2.217-2.2-4.7-4.7c-1.333 1.483-2.383 3.217-2.817 4.85L.218 42.129c-.45 1.65-.183 2.983.617 3.783l.866-.867z" fill="url(#c)" style="fill:url(#c)"/><path d="m27.068 32.912-2.216-2.217a6.237 6.237 0 0 1-8.834 0l-2.216 2.217L1.685 45.029l-.867.866c.8.8 2.117 1.067 3.784.617l5.433-1.483 16.883-4.6c1.634-.45 3.367-1.5 4.85-2.817z" fill="url(#d)" style="fill:url(#d)"/><path d="m46.202.528-.75.75-18.384 18.384-2.216 2.216a6.237 6.237 0 0 1 0 8.834l2.216 2.216 4.7 4.7c1.534-1.366 2.8-3.033 3.417-4.65l10.25-26.666.883-2.3c.617-1.617.534-2.834-.116-3.484" fill="url(#e)" style="fill:url(#e)"/><path d="M24.868 21.862a6.237 6.237 0 0 0-8.834 0 6.237 6.237 0 0 0 0 8.833 6.237 6.237 0 0 0 8.834 0 6.237 6.237 0 0 0 0-8.833" fill="#fff"/><path d="M22.65 24.079a3.12 3.12 0 0 0-2.216-.917c-.867 0-1.65.35-2.217.917a3.12 3.12 0 0 0-.916 2.216 3.126 3.126 0 0 0 3.133 3.134 3.126 3.126 0 0 0 3.133-3.134c0-.866-.35-1.65-.916-2.216" fill="#0909b9"/><defs><linearGradient id="a" x1="34.183" y1="54.622" x2="58.913" y2="29.892" gradientUnits="userSpaceOnUse" gradientTransform="translate(-20.432 -21.643)"><stop stop-color="#EFEFEF"/><stop offset="1" stop-color="#929292"/></linearGradient><linearGradient id="b" x1="48.091" y1="19.994" x2="48.091" y2="46.281" gradientUnits="userSpaceOnUse" gradientTransform="translate(-20.432 -21.643)"><stop stop-color="#518FFF"/><stop offset="1" stop-color="#5F5FF1"/></linearGradient><linearGradient id="c" x1="28.44" y1="35.395" x2="28.44" y2="69.481" gradientUnits="userSpaceOnUse" gradientTransform="translate(-20.432 -21.643)"><stop stop-color="#F95C5E"/><stop offset="1" stop-color="#E1000F"/></linearGradient><linearGradient id="d" x1="36.726" y1="50.436" x2="36.726" y2="69.912" gradientUnits="userSpaceOnUse" gradientTransform="translate(-20.432 -21.643)"><stop stop-color="#E1000F"/><stop offset="1" stop-color="#881317"/></linearGradient><linearGradient id="e" x1="56.232" y1="19.684" x2="56.232" y2="59.127" gradientUnits="userSpaceOnUse" gradientTransform="translate(-20.432 -21.643)"><stop stop-color="#5F5FF1"/><stop offset="1" stop-color="#000091"/></linearGradient></defs></svg>
