<svg width="56" height="56" viewBox="0 0 56 56" fill="none" xmlns:xlink="http://www.w3.org/1999/xlink" xmlns="http://www.w3.org/2000/svg"><rect style="fill:url(#a);fill-opacity:1;stroke-width:3.77953;stroke-opacity:.474506;paint-order:markers fill stroke" width="56" height="56" rx="8"/><defs><linearGradient id="b"><stop style="stop-color:#2f82ff;stop-opacity:1" offset="0"/><stop style="stop-color:#000091;stop-opacity:1" offset="1"/></linearGradient><linearGradient id="f" x1="56.232" y1="19.684" x2="56.232" y2="59.127" gradientUnits="userSpaceOnUse" gradientTransform="translate(-8.222 -8.84)scale(.82212)"><stop stop-color="#5F5FF1"/><stop offset="1" stop-color="#000091"/></linearGradient><linearGradient id="e" x1="36.726" y1="50.436" x2="36.726" y2="69.912" gradientUnits="userSpaceOnUse" gradientTransform="translate(-8.222 -8.84)scale(.82212)"><stop stop-color="#E1000F"/><stop offset="1" stop-color="#881317"/></linearGradient><linearGradient id="d" x1="28.44" y1="35.395" x2="28.44" y2="69.481" gradientUnits="userSpaceOnUse" gradientTransform="translate(-8.222 -8.84)scale(.82212)"><stop stop-color="#F95C5E"/><stop offset="1" stop-color="#E1000F"/></linearGradient><linearGradient id="c" x1="48.091" y1="19.994" x2="48.091" y2="46.281" gradientUnits="userSpaceOnUse" gradientTransform="translate(-8.222 -8.84)scale(.82212)"><stop stop-color="#518FFF"/><stop offset="1" stop-color="#5F5FF1"/></linearGradient><radialGradient xlink:href="#b" id="a" cx="-34.386" cy="48.751" fx="-34.386" fy="48.751" r="28" gradientUnits="userSpaceOnUse" gradientTransform="matrix(.9996 1.02784 -1.0055 .97793 111.238 15.05)"/></defs><path d="M21.745 26.927a5.13 5.13 0 0 1 7.262 0l1.823-1.809 15.1-15.1.616-.616c-.535-.534-1.521-.616-2.85-.11l-23.787 9.154c-1.343.507-2.713 1.548-3.836 2.808l3.864 3.864z" fill="url(#c)" style="fill:url(#c);stroke-width:.82212"/><path d="m19.936 36.011 1.822-1.822a5.127 5.127 0 0 1 0-7.262l-1.822-1.809-3.864-3.864c-1.097 1.22-1.96 2.645-2.316 3.987L8.755 43.588c-.37 1.357-.151 2.453.507 3.11l.712-.712z" fill="url(#d)" style="fill:url(#d);stroke-width:.82212"/><path d="m30.829 36.011-1.822-1.822a5.13 5.13 0 0 1-7.262 0l-1.823 1.822-9.961 9.962-.713.712c.658.658 1.74.877 3.11.507l4.468-1.22 13.88-3.781c1.342-.37 2.767-1.233 3.987-2.316z" fill="url(#e)" style="fill:url(#e);stroke-width:.82212"/><path d="m46.559 9.388-.617.617L30.83 25.118l-1.823 1.822a5.13 5.13 0 0 1 0 7.262l1.823 1.823 3.864 3.864c1.26-1.124 2.302-2.494 2.809-3.823l8.426-21.923.727-1.891c.507-1.33.438-2.33-.096-2.864" fill="url(#f)" style="fill:url(#f);stroke-width:.82212"/><path d="M29.02 26.927a5.13 5.13 0 0 0-7.262 0 5.13 5.13 0 0 0 0 7.262 5.13 5.13 0 0 0 7.262 0 5.13 5.13 0 0 0 0-7.262" fill="#fff" style="stroke-width:.82212"/><path d="M27.197 28.75a2.57 2.57 0 0 0-1.822-.754c-.713 0-1.357.287-1.823.753a2.57 2.57 0 0 0-.753 1.823 2.57 2.57 0 0 0 2.576 2.576c.712 0 1.356-.288 1.822-.754s.754-1.11.754-1.822c0-.713-.288-1.357-.754-1.823" fill="#0909b9" style="stroke-width:.82212"/></svg>
