<?xml version="1.0" encoding="UTF-8" standalone="no"?>
<svg
   width="22.943295"
   height="24.499987"
   viewBox="0 0 22.943295 24.499987"
   fill="none"
   version="1.1"
   id="svg6"
   sodipodi:docname="les-bases.svg"
   inkscape:version="1.1.2 (0a00cf5339, 2022-02-04)"
   xmlns:inkscape="http://www.inkscape.org/namespaces/inkscape"
   xmlns:sodipodi="http://sodipodi.sourceforge.net/DTD/sodipodi-0.dtd"
   xmlns="http://www.w3.org/2000/svg"
   xmlns:svg="http://www.w3.org/2000/svg">
  <defs
     id="defs10" />
  <sodipodi:namedview
     id="namedview8"
     pagecolor="#ffffff"
     bordercolor="#000000"
     borderopacity="0.25"
     inkscape:pageshadow="2"
     inkscape:pageopacity="0.0"
     inkscape:pagecheckerboard="0"
     showgrid="false"
     fit-margin-top="0"
     fit-margin-left="0"
     fit-margin-right="0"
     fit-margin-bottom="0"
     inkscape:zoom="11.2375"
     inkscape:cx="11.123471"
     inkscape:cy="30.03337"
     inkscape:window-width="1551"
     inkscape:window-height="1082"
     inkscape:window-x="26"
     inkscape:window-y="23"
     inkscape:window-maximized="0"
     inkscape:current-layer="svg6" />
  <path
     d="m 11.303495,24.442788 -11.19404,-8.707 c -0.1421,-0.1105 -0.14082,-0.3256 0.00256,-0.4344 l 1.68308,-1.2751 c 0.0985,-0.0747 0.2351,-0.0738 0.3332,0.0017 l 9.1756,7.1158 c 0.0986,0.0763 0.2369,0.0763 0.3359,0 l 9.1756,-7.1158 c 0.0977,-0.076 0.2343,-0.0768 0.3333,-0.0017 l 1.683,1.2751 c 0.1434,0.1088 0.1447,0.3239 0.0026,0.4344 l -11.1945,8.7066 c -0.099,0.0768 -0.2373,0.0768 -0.3363,0 z m 0,-6.533701 -11.19788,-8.7095995 c -0.14082,-0.1097 -0.14082,-0.3226 0,-0.4323 l 11.19788,-8.70958 c 0.099,-0.07681 0.2373,-0.07681 0.3363,0 l 11.1979,8.70958 c 0.1408,0.1097 0.1408,0.3226 0,0.4323 l -11.1979,8.7095995 c -0.099,0.0768 -0.2373,0.0768 -0.3363,0 z m 0.3359,-3.2982 6.992,-5.4109995 c 0.1416,-0.1096 0.1416,-0.3234 0,-0.4331 l -6.992,-5.411 c -0.0986,-0.0763 -0.2365,-0.0763 -0.3355,0 l -6.992,5.411 c -0.1416,0.1097 -0.1416,0.3235 0,0.4331 l 6.992,5.4109995 c 0.0986,0.0764 0.2365,0.0764 0.3355,0 z"
     fill="var(--blue-france-sun-113-625)"
     id="path4"
     style="fill:#000091;fill-opacity:1" />
</svg>
