<svg width="22.943" height="24.5" viewBox="0 0 22.943 24.5" fill="none" xmlns="http://www.w3.org/2000/svg"><path d="M11.303 24.443.11 15.736a.274.274 0 0 1 .003-.435l1.683-1.275a.275.275 0 0 1 .333.002l9.176 7.116a.275.275 0 0 0 .336 0l9.175-7.116a.27.27 0 0 1 .334-.002l1.683 1.275a.274.274 0 0 1 .002.435L11.64 24.442a.274.274 0 0 1-.337 0zm0-6.534L.106 9.2a.274.274 0 0 1 0-.432L11.303.057a.274.274 0 0 1 .337 0l11.198 8.71c.14.11.14.323 0 .432L11.64 17.91a.274.274 0 0 1-.337 0m.336-3.298L18.631 9.2a.274.274 0 0 0 0-.433L11.64 3.356a.274.274 0 0 0-.335 0l-6.992 5.41a.274.274 0 0 0 0 .434l6.992 5.41a.274.274 0 0 0 .335 0" fill="var(--blue-france-sun-113-625)" style="fill:#000091;fill-opacity:1"/></svg>
