<svg width="64" height="24" viewBox="0 0 64 24" fill="none" xmlns="http://www.w3.org/2000/svg">
<g clip-path="url(#clip0_19550_6294)">
<path d="M36.7268 18.3815C35.6497 18.3815 35.2501 18.1636 34.6042 17.3871L31.7744 13.9067C30.5752 12.51 30.5752 11.4535 31.7744 10.0552L34.6042 6.57518C35.2501 5.79909 35.6497 5.58154 36.7268 5.58154H57.6743C58.7514 5.58154 59.151 5.79909 59.7969 6.57518L62.6267 10.0552C63.8259 11.4535 63.8259 12.51 62.6267 13.9067L59.7969 17.3871C59.151 18.1636 58.7514 18.3815 57.6743 18.3815H36.7268Z" fill="url(#paint0_linear_19550_6294)"/>
<mask id="mask0_19550_6294" style="mask-type:luminance" maskUnits="userSpaceOnUse" x="30" y="5" width="34" height="14">
<path d="M36.7268 18.3815C35.6497 18.3815 35.2501 18.1636 34.6042 17.3871L31.7744 13.9067C30.5752 12.51 30.5752 11.4535 31.7744 10.0552L34.6042 6.57518C35.2501 5.79909 35.6497 5.58154 36.7268 5.58154H57.6743C58.7514 5.58154 59.151 5.79909 59.7969 6.57518L62.6267 10.0552C63.8259 11.4535 63.8259 12.51 62.6267 13.9067L59.7969 17.3871C59.151 18.1636 58.7514 18.3815 57.6743 18.3815H36.7268Z" fill="white"/>
</mask>
<g mask="url(#mask0_19550_6294)">
<path d="M41.6541 12.4922C41.6541 12.9065 41.5755 13.2066 41.4255 13.3923C41.2755 13.5781 40.9683 13.6709 40.5182 13.6709C40.0681 13.6709 39.7609 13.5781 39.6109 13.3923C39.4609 13.2066 39.3823 12.9065 39.3823 12.4922V11.4705C39.3823 11.049 39.4609 10.749 39.6109 10.5704C39.7609 10.3846 40.0681 10.2917 40.5182 10.2917C40.9683 10.2917 41.2755 10.3846 41.4255 10.5704C41.5755 10.749 41.6541 11.049 41.6541 11.4705V12.4922ZM40.5182 14.3782C41.2255 14.3782 41.7113 14.221 41.9899 13.8996C42.2685 13.5781 42.4114 13.1066 42.4114 12.4922V11.4705C42.4114 10.8561 42.2757 10.3918 41.9971 10.0703C41.7184 9.74879 41.2255 9.58447 40.5182 9.58447C39.8109 9.58447 39.318 9.74879 39.0394 10.0703C38.7607 10.3918 38.625 10.8561 38.625 11.4705V12.4922C38.625 13.1066 38.7607 13.5781 39.0394 13.8996C39.318 14.221 39.8109 14.3782 40.5182 14.3782ZM46.7979 11.0848C46.7979 10.1489 46.3622 9.64877 45.2548 9.64877H44.126C43.5545 9.64877 43.3116 9.89167 43.3116 10.4632V13.9639C43.3116 14.2282 43.3759 14.2925 43.6402 14.2925H43.7331C43.9974 14.2925 44.0617 14.2282 44.0617 13.9639V12.5136H44.9833L45.9192 13.9781C46.0835 14.2282 46.1978 14.2925 46.4907 14.2925H46.6122L46.6859 14.2908C46.9112 14.2793 46.933 14.2055 46.7837 13.9781L45.7978 12.4564C46.5122 12.3064 46.7979 11.8492 46.7979 11.0848ZM45.2548 10.356C45.8549 10.356 46.0478 10.5775 46.0478 11.0848C46.0478 11.5706 45.8549 11.8063 45.2548 11.8063H44.0617V10.6275C44.0617 10.4489 44.1546 10.356 44.3403 10.356H45.2548ZM50.3415 13.3137C50.3415 13.5066 50.2557 13.6209 50.0914 13.6424C50.0128 13.6567 49.8842 13.6638 49.6985 13.6638C48.6912 13.6638 48.3554 13.2994 48.3554 12.6065V11.4634C48.3554 10.6132 48.7126 10.2846 49.6771 10.2846C50.0271 10.2846 50.3629 10.3418 50.6844 10.4632C50.9003 10.5374 50.9633 10.4842 50.9696 10.2674L50.9702 10.1203C50.9702 9.88453 50.9416 9.84881 50.6915 9.75593C50.3843 9.64163 50.0414 9.58447 49.6699 9.58447C48.2411 9.58447 47.5838 10.2632 47.5838 11.4134V12.5565C47.5838 13.8496 48.2125 14.3711 49.7056 14.3711C49.9128 14.3711 50.1129 14.3568 50.3129 14.3211C50.8773 14.2282 51.0487 13.9496 51.0487 13.3209V12.0135C51.0487 11.7706 50.9914 11.6997 50.7684 11.6926L50.663 11.692C50.4058 11.692 50.3415 11.7563 50.3415 12.0135V13.3137ZM54.8637 10.7847C54.7351 10.3203 54.5994 10.006 54.4565 9.84166C54.3136 9.6702 54.0707 9.58447 53.7207 9.58447C53.3706 9.58447 53.1277 9.6702 52.9777 9.84166C52.8348 10.006 52.699 10.3203 52.5705 10.7847L51.6917 13.9781C51.6274 14.2282 51.6703 14.2925 51.9346 14.2925H52.0346C52.299 14.2925 52.3704 14.2282 52.449 13.9781L52.7133 13.0065H54.7209L54.9852 13.9781C55.0638 14.2282 55.1352 14.2925 55.3996 14.2925H55.4996C55.7639 14.2925 55.8068 14.2282 55.7425 13.9781L54.8637 10.7847ZM52.8919 12.3278L53.3134 10.7704L53.3449 10.6587C53.4415 10.3321 53.5138 10.256 53.7207 10.256C53.9493 10.256 54.0064 10.3489 54.1207 10.7704L54.5422 12.3278H52.8919Z" fill="white"/>
</g>
<path fill-rule="evenodd" clip-rule="evenodd" d="M26.685 12.7966L30.2295 17.1245C30.8728 17.9489 30.8421 18.1016 29.77 18.1016H29.4023C28.3301 18.1016 27.9319 17.8878 27.2885 17.1245L25.3359 14.7551L25.8016 14.1904C26.216 13.7125 26.5105 13.2511 26.685 12.7966ZM29.8414 5.52222C30.8432 5.52926 30.8582 5.69339 30.2295 6.49902L26.685 10.8271C26.5105 10.3725 26.216 9.91104 25.8016 9.43315L25.3359 8.86821L27.2885 6.49902C27.9097 5.76203 28.3024 5.53737 29.2938 5.52275L29.4023 5.52197L29.8414 5.52222Z" fill="url(#paint1_linear_19550_6294)"/>
<path fill-rule="evenodd" clip-rule="evenodd" d="M19.9291 18.1016C18.8569 18.1016 18.8262 17.9489 19.4695 17.1245L23.1457 12.6361C23.4214 12.3003 23.5746 12.0255 23.5746 11.8117C23.5746 11.5675 23.4214 11.2927 23.1457 10.9874L19.4695 6.49902C18.8262 5.67465 18.8569 5.52197 19.9291 5.52197H20.2967C21.3689 5.52197 21.7672 5.73571 22.4105 6.49902L25.2289 9.91871C26.4237 11.2927 26.4237 12.3308 25.2289 13.7048L22.4105 17.1245C21.7672 17.8878 21.3689 18.1016 20.2967 18.1016H19.9291Z" fill="url(#paint2_linear_19550_6294)"/>
<path fill-rule="evenodd" clip-rule="evenodd" d="M0 22.0161C0 22.9277 0.228662 23.1556 1.14331 23.1556H1.44817C2.36282 23.1556 2.59148 22.9277 2.59148 22.0161V16.7238C3.27747 17.8127 4.52241 18.3698 6.32627 18.3698C9.85779 18.3698 11.6109 16.5212 11.6109 12.8496V10.6465C11.6109 6.9748 9.73076 5.25293 5.79271 5.25293C2.13415 5.25293 0 7.02547 0 10.6465V22.0161ZM8.99398 12.9002C8.99398 15.0272 8.2826 15.9135 5.81815 15.9135C3.30286 15.9135 2.59148 15.0019 2.59148 12.9002V10.7225C2.59148 8.59542 3.3537 7.68381 5.81815 7.68381C8.33339 7.68381 8.99398 8.59542 8.99398 10.7225V12.9002Z" fill="url(#paint3_linear_19550_6294)"/>
<path fill-rule="evenodd" clip-rule="evenodd" d="M14.0564 16.9318C14.0564 17.8434 14.285 18.0713 15.1997 18.0713H15.5299C16.4446 18.0713 16.6732 17.8434 16.6732 16.9318V6.65107C16.6732 5.73947 16.4446 5.51157 15.5299 5.51157H15.1997C14.285 5.51157 14.0564 5.73947 14.0564 6.65107V16.9318ZM14.2342 2.7768C14.8694 3.38452 15.8856 3.38452 16.4954 2.7768C17.1306 2.14372 17.1306 1.13087 16.4954 0.523148C15.8856 -0.10993 14.8694 -0.10993 14.2342 0.523148C13.599 1.13087 13.599 2.14372 14.2342 2.7768Z" fill="url(#paint4_linear_19550_6294)"/>
</g>
<defs>
<linearGradient id="paint0_linear_19550_6294" x1="30.875" y1="547.225" x2="2927.88" y2="1682.92" gradientUnits="userSpaceOnUse">
<stop stop-color="#00DDFF"/>
<stop offset="1" stop-color="#0095C0"/>
</linearGradient>
<linearGradient id="paint1_linear_19550_6294" x1="243.77" y1="5.52197" x2="709.52" y2="1106.75" gradientUnits="userSpaceOnUse">
<stop stop-color="#12A3FF"/>
<stop offset="1" stop-color="#3D68FF"/>
</linearGradient>
<linearGradient id="paint2_linear_19550_6294" x1="-215.747" y1="5.52198" x2="-807.55" y2="1056.68" gradientUnits="userSpaceOnUse">
<stop stop-color="#00DDFF"/>
<stop offset="1" stop-color="#0095C0"/>
</linearGradient>
<linearGradient id="paint3_linear_19550_6294" x1="336.354" y1="5.25295" x2="1298.26" y2="1488.41" gradientUnits="userSpaceOnUse">
<stop stop-color="#12A3FF"/>
<stop offset="1" stop-color="#3D68FF"/>
</linearGradient>
<linearGradient id="paint4_linear_19550_6294" x1="169.345" y1="0.0483417" x2="481.15" y2="1748.57" gradientUnits="userSpaceOnUse">
<stop stop-color="#12A3FF"/>
<stop offset="1" stop-color="#3D68FF"/>
</linearGradient>
<clipPath id="clip0_19550_6294">
<rect width="64" height="23.4419" fill="white"/>
</clipPath>
</defs>
</svg>
