<svg width="240" height="198" viewBox="0 0 240 198" xmlns="http://www.w3.org/2000/svg"><defs><linearGradient x1="50%" y1="0%" x2="50%" y2="100%" id="a"><stop stop-color="#12A3FF" offset="0%"/><stop stop-color="#3D68FF" offset="100%"/></linearGradient><linearGradient x1="68.643%" y1="0%" x2="68.643%" y2="100%" id="b"><stop stop-color="#FFBE00" offset="0%"/><stop stop-color="#FF9F00" offset="100%"/></linearGradient><linearGradient x1="50%" y1="0%" x2="50%" y2="73.049%" id="c"><stop stop-color="#12A3FF" offset="0%"/><stop stop-color="#3D68FF" offset="100%"/></linearGradient><linearGradient x1="50%" y1="28.362%" x2="50%" y2="100%" id="d"><stop stop-color="#12A3FF" offset="0%"/><stop stop-color="#3D68FF" offset="100%"/></linearGradient></defs><g fill="none" fill-rule="evenodd"><path d="m42.555 61.426 3.097-3.758c2.756-3.178 4.715-6.246 5.876-9.27l23.577 28.787c4.279 5.483 4.075 6.499-3.057 6.499h-2.445c-7.132 0-9.781-1.422-14.06-6.5zm0-39.159L55.543 6.509c4.279-5.078 6.928-6.5 14.06-6.5h2.445c7.132 0 7.336 1.016 3.057 6.5L51.528 35.294c-1.161-3.022-3.12-6.091-5.876-9.269z" fill="url(#a)" transform="translate(143 58.5)"/><path d="M41.866 83.684c7.131 0 7.335-1.016 3.056-6.5L20.47 47.33c-1.834-2.234-2.853-4.062-2.853-5.484 0-1.624 1.019-3.452 2.853-5.483L44.922 6.51c4.28-5.484 4.075-6.5-3.056-6.5H39.42c-7.132 0-9.78 1.422-14.06 6.5L6.613 29.255c-7.947 9.139-7.947 16.044 0 25.183L25.36 77.185c4.28 5.077 6.928 6.499 14.06 6.499z" fill="url(#b)" transform="matrix(-1 0 0 1 191.414 58.5)"/><path d="M17 168.22c0 6.063 1.521 7.58 7.605 7.58h2.028c6.083 0 7.604-1.517 7.604-7.58v-35.202c4.563 7.242 12.844 10.948 24.843 10.948 23.49 0 35.15-12.296 35.15-36.718V92.594c0-24.423-12.505-35.876-38.7-35.876-24.335 0-38.53 11.79-38.53 35.876zm59.824-60.636c0 14.148-4.732 20.044-21.124 20.044-16.73 0-21.463-6.064-21.463-20.044V93.1c0-14.148 5.07-20.212 21.463-20.212 16.73 0 21.124 6.064 21.124 20.212z" fill="url(#c)"/><path d="M110.486 134.402c0 6.063 1.52 7.58 7.605 7.58h2.196c6.084 0 7.605-1.517 7.605-7.58V66.018c0-6.063-1.52-7.579-7.605-7.579h-2.196c-6.084 0-7.605 1.516-7.605 7.58zm1.183-94.153c4.225 4.042 10.984 4.042 15.04 0 4.225-4.211 4.225-10.948 0-14.99-4.056-4.212-10.815-4.212-15.04 0-4.225 4.042-4.225 10.779 0 14.99" fill="url(#d)"/></g></svg>
