<?xml version="1.0" encoding="UTF-8" standalone="no"?>
<svg
   viewBox="0 0 43.099998 43.099996"
   version="1.1"
   id="svg858"
   sodipodi:docname="rdv-aide-numerique.svg"
   inkscape:version="1.1.2 (0a00cf5339, 2022-02-04)"
   width="43.099998"
   height="43.099995"
   inkscape:export-filename="../../../../public/logo_aide_numerique.png"
   inkscape:export-xdpi="634.7934"
   inkscape:export-ydpi="634.7934"
   xmlns:inkscape="http://www.inkscape.org/namespaces/inkscape"
   xmlns:sodipodi="http://sodipodi.sourceforge.net/DTD/sodipodi-0.dtd"
   xmlns="http://www.w3.org/2000/svg"
   xmlns:svg="http://www.w3.org/2000/svg"
   xmlns:rdf="http://www.w3.org/1999/02/22-rdf-syntax-ns#"
   xmlns:cc="http://creativecommons.org/ns#"
   xmlns:dc="http://purl.org/dc/elements/1.1/">
  <metadata
     id="metadata864">
    <rdf:RDF>
      <cc:Work
         rdf:about="">
        <dc:format>image/svg+xml</dc:format>
        <dc:type
           rdf:resource="http://purl.org/dc/dcmitype/StillImage" />
      </cc:Work>
    </rdf:RDF>
  </metadata>
  <defs
     id="defs862" />
  <sodipodi:namedview
     pagecolor="#ffffff"
     bordercolor="#666666"
     borderopacity="1"
     objecttolerance="10"
     gridtolerance="10"
     guidetolerance="10"
     inkscape:pageopacity="0"
     inkscape:pageshadow="2"
     inkscape:window-width="2560"
     inkscape:window-height="1363"
     id="namedview860"
     showgrid="false"
     inkscape:zoom="1.9914389"
     inkscape:cx="-18.830605"
     inkscape:cy="0.50214948"
     inkscape:window-x="0"
     inkscape:window-y="0"
     inkscape:window-maximized="1"
     inkscape:current-layer="g705"
     inkscape:showpageshadow="2"
     inkscape:pagecheckerboard="0"
     inkscape:deskcolor="#d1d1d1"
     fit-margin-top="0"
     fit-margin-left="0"
     fit-margin-right="0"
     fit-margin-bottom="0" />
  <g
     id="g705"
     transform="matrix(1.0250759,0,0,1.0250759,-7.9882345,1.1744306)">
    <path
       id="path854-5"
       class="st0"
       d="m 40.474197,1.3826569 h -0.468215 v -2.528358 h -2.996573 v 2.528358 h -6.835932 v -2.528358 h -2.90293 v 2.528358 h -6.835932 v -2.528358 h -2.90293 v 2.528358 H 17.06347 c -5.056717,0 -9.2706475,4.120288 -9.2706475,9.1770051 v 21.25694 c 0,4.963078 4.2139305,9.083358 9.2706475,9.083358 h 23.50437 c 5.056717,0 9.270648,-4.12028 9.270648,-9.177001 V 10.653305 C 49.744848,5.5029449 45.530914,1.3826569 40.474197,1.3826569 Z m -23.50437,2.90293 h 0.468215 v 2.24743 h 2.90293 v -2.24743 h 6.835932 v 2.24743 h 2.90293 v -2.24743 h 6.835932 v 2.24743 h 2.90293 v -2.24743 h 0.468215 c 3.55843,0 6.367718,2.809288 6.367718,6.2740751 v 3.090216 H 10.508467 v -3.090216 c 0.09364,-3.3711451 2.996573,-6.2740751 6.46136,-6.2740751 z M 40.474197,37.99703 h -23.50437 c -3.55843,0 -6.367717,-2.71564 -6.367717,-6.274071 V 16.646451 h 36.146162 v 15.170151 c 0.09364,3.371145 -2.809288,6.180428 -6.274075,6.180428 z"
       style="fill:#222e5c;stroke-width:0.936429"
       inkscape:export-filename="../../../../public/logo_aide_numerique.png"
       inkscape:export-xdpi="317.3967"
       inkscape:export-ydpi="317.3967" />
    <path
       id="path856-6"
       class="st0"
       d="m 28.768833,28.726386 c -1.966501,0 -3.745716,-1.217357 -4.494859,-2.809287 L 21.55833,27.2281 c 1.311,2.715644 4.120288,4.494859 7.210503,4.494859 2.996573,0 5.899504,-1.779215 7.210504,-4.494859 l -2.622001,-1.311001 c -0.936429,1.779215 -2.715644,2.809287 -4.588503,2.809287 z"
       style="fill:#222e5c;stroke-width:0.936429" />
  </g>
</svg>
