<svg viewBox="0 0 43.1 43.1" width="43.1" height="43.1" xmlns="http://www.w3.org/2000/svg"><path class="st0" d="M40.474 1.383h-.468v-2.529h-2.997v2.529h-6.836v-2.529h-2.902v2.529h-6.836v-2.529h-2.903v2.529h-.469c-5.056 0-9.27 4.12-9.27 9.177v21.257c0 4.963 4.214 9.083 9.27 9.083h23.505c5.057 0 9.27-4.12 9.27-9.177v-21.07c-.093-5.15-4.307-9.27-9.364-9.27M16.97 4.286h.468v2.247h2.903V4.286h6.836v2.247h2.903V4.286h6.836v2.247h2.903V4.286h.468c3.558 0 6.368 2.809 6.368 6.274v3.09H10.508v-3.09c.094-3.371 2.997-6.274 6.462-6.274m23.504 33.711H16.97c-3.559 0-6.368-2.716-6.368-6.274V16.646h36.146v15.17c.094 3.372-2.809 6.181-6.274 6.181" style="fill:#222e5c;stroke-width:.936429" transform="translate(-7.988 1.174)scale(1.02508)"/><path class="st0" d="M28.769 28.726c-1.967 0-3.746-1.217-4.495-2.809l-2.716 1.311c1.311 2.716 4.12 4.495 7.21 4.495 2.997 0 5.9-1.78 7.211-4.495l-2.622-1.31c-.936 1.778-2.715 2.808-4.588 2.808" style="fill:#222e5c;stroke-width:.936429" transform="translate(-7.988 1.174)scale(1.02508)"/></svg>
