<svg width="588" height="380" viewBox="0 0 588 380" fill="none" xmlns="http://www.w3.org/2000/svg">
<rect width="588" height="379.122" transform="translate(0 0.546875)" fill="#E8EDFF"/>
<rect x="32" y="32.5469" width="524" height="315.122" rx="8" fill="white"/>
<g clip-path="url(#clip0_8196_20425)">
<path fill-rule="evenodd" clip-rule="evenodd" d="M524 65.3292H64V64.5469H524V65.3292Z" fill="#DDDDDD"/>
<path d="M523.609 90.7544H64.3916V127.523H523.609V90.7544Z" stroke="#000091"/>
<path fill-rule="evenodd" clip-rule="evenodd" d="M220.854 108.356V103.663H222.419V108.356H227.113V109.921H222.419V114.615H220.854V109.921H216.16V108.356H220.854Z" fill="#000091"/>
<path d="M237.97 115.397L241.814 105.54H243.954L247.799 115.397H246.067L245.025 112.637H240.73L239.688 115.397H237.97ZM241.265 111.257H244.49L242.884 107.005L241.265 111.257ZM250.329 106.723C249.794 106.723 249.343 106.272 249.343 105.737C249.343 105.202 249.794 104.751 250.329 104.751C250.864 104.751 251.314 105.202 251.314 105.737C251.314 106.272 250.864 106.723 250.329 106.723ZM251.075 116.256C251.075 118.03 250.216 118.918 248.554 118.918C248.005 118.918 247.611 118.847 247.273 118.706V117.425C247.512 117.524 247.85 117.58 248.329 117.58C249.118 117.58 249.625 117.27 249.625 116.256V108.3H251.075V116.256ZM256.742 108.018C259.051 108.018 260.6 109.75 260.6 111.849C260.6 113.947 259.051 115.679 256.742 115.679C254.447 115.679 252.884 113.947 252.884 111.849C252.884 109.75 254.447 108.018 256.742 108.018ZM256.756 114.313C258.094 114.313 259.08 113.2 259.08 111.849C259.08 110.469 258.094 109.384 256.756 109.384C255.39 109.384 254.405 110.483 254.405 111.849C254.405 113.215 255.39 114.313 256.756 114.313ZM267.229 112.356V108.3H268.694V112.285C268.694 114.411 267.468 115.679 265.483 115.679C263.483 115.679 262.258 114.411 262.258 112.285V108.3H263.723V112.356C263.723 113.581 264.37 114.313 265.483 114.313C266.567 114.313 267.229 113.581 267.229 112.356ZM271.403 112.933V109.61H270.065V108.3H271.403V106.526H272.867V108.3H275.219V109.61H272.867V112.933C272.867 113.89 273.374 114.2 274.163 114.2C274.641 114.2 274.965 114.144 275.219 114.045V115.327C274.881 115.468 274.487 115.538 273.937 115.538C272.276 115.538 271.403 114.665 271.403 112.933ZM283.219 114.242C282.557 115.13 281.473 115.679 280.149 115.679C277.699 115.679 276.248 113.919 276.248 111.849C276.248 109.722 277.6 108.018 279.853 108.018C281.811 108.018 283.078 109.356 283.078 111.159C283.078 111.482 283.036 111.806 282.979 112.018H277.741C277.84 113.567 278.783 114.369 280.149 114.369C281.008 114.369 281.726 113.989 282.163 113.398L283.219 114.242ZM279.825 109.229C278.769 109.229 278.037 109.835 277.811 110.933H281.627C281.599 110.046 280.966 109.229 279.825 109.229ZM284.98 115.397V108.3H286.43V109.103C286.923 108.554 287.543 108.159 288.416 108.159C288.641 108.159 288.852 108.201 289.035 108.258V109.68C288.81 109.624 288.585 109.581 288.289 109.581C287.388 109.581 286.796 110.06 286.43 110.666V115.397H284.98ZM299.243 112.356V108.3H300.707V112.285C300.707 114.411 299.482 115.679 297.497 115.679C295.497 115.679 294.272 114.411 294.272 112.285V108.3H295.736V112.356C295.736 113.581 296.384 114.313 297.497 114.313C298.581 114.313 299.243 113.581 299.243 112.356ZM302.912 115.397V108.3H304.362V108.99C304.897 108.427 305.601 108.018 306.615 108.018C308.178 108.018 309.375 109.075 309.375 111.13V115.397H307.911V111.187C307.911 110.06 307.291 109.384 306.277 109.384C305.306 109.384 304.728 109.99 304.362 110.609V115.397H302.912ZM318.749 114.313C319.552 114.313 320.199 113.919 320.594 113.369L321.734 114.242C321.087 115.116 320.045 115.679 318.735 115.679C316.355 115.679 314.862 113.919 314.862 111.849C314.862 109.779 316.355 108.018 318.735 108.018C320.03 108.018 321.087 108.582 321.734 109.455L320.594 110.328C320.199 109.779 319.552 109.384 318.735 109.384C317.369 109.384 316.383 110.455 316.383 111.849C316.383 113.257 317.369 114.313 318.749 114.313ZM326.27 108.018C328.58 108.018 330.129 109.75 330.129 111.849C330.129 113.947 328.58 115.679 326.27 115.679C323.975 115.679 322.412 113.947 322.412 111.849C322.412 109.75 323.975 108.018 326.27 108.018ZM326.284 114.313C327.622 114.313 328.608 113.2 328.608 111.849C328.608 110.469 327.622 109.384 326.284 109.384C324.918 109.384 323.933 110.483 323.933 111.849C323.933 113.215 324.918 114.313 326.284 114.313ZM331.941 115.397V108.3H333.392V108.99C333.927 108.427 334.631 108.018 335.645 108.018C337.208 108.018 338.405 109.075 338.405 111.13V115.397H336.94V111.187C336.94 110.06 336.321 109.384 335.307 109.384C334.335 109.384 333.758 109.99 333.392 110.609V115.397H331.941ZM341.082 112.933V109.61H339.745V108.3H341.082V106.526H342.547V108.3H344.899V109.61H342.547V112.933C342.547 113.89 343.054 114.2 343.842 114.2C344.321 114.2 344.645 114.144 344.899 114.045V115.327C344.561 115.468 344.166 115.538 343.617 115.538C341.956 115.538 341.082 114.665 341.082 112.933ZM352.898 114.242C352.236 115.13 351.152 115.679 349.828 115.679C347.378 115.679 345.927 113.919 345.927 111.849C345.927 109.722 347.279 108.018 349.532 108.018C351.49 108.018 352.757 109.356 352.757 111.159C352.757 111.482 352.715 111.806 352.658 112.018H347.42C347.519 113.567 348.462 114.369 349.828 114.369C350.687 114.369 351.405 113.989 351.842 113.398L352.898 114.242ZM349.504 109.229C348.448 109.229 347.716 109.835 347.49 110.933H351.307C351.278 110.046 350.645 109.229 349.504 109.229ZM354.659 115.397V108.3H356.109V108.99C356.644 108.427 357.348 108.018 358.362 108.018C359.925 108.018 361.122 109.075 361.122 111.13V115.397H359.658V111.187C359.658 110.06 359.038 109.384 358.024 109.384C357.053 109.384 356.475 109.99 356.109 110.609V115.397H354.659ZM368.194 112.356V108.3H369.658V112.285C369.658 114.411 368.433 115.679 366.447 115.679C364.448 115.679 363.223 114.411 363.223 112.285V108.3H364.687V112.356C364.687 113.581 365.335 114.313 366.447 114.313C367.532 114.313 368.194 113.581 368.194 112.356Z" fill="#000091"/>
<mask id="mask0_8196_20425" style="mask-type:luminance" maskUnits="userSpaceOnUse" x="64" y="127" width="460" height="189">
<path d="M524 127.914H64V315.669H524V127.914Z" fill="white"/>
</mask>
<g mask="url(#mask0_8196_20425)">
<path d="M524 127.914H64V165.465H524V127.914Z" fill="white"/>
<path d="M92.1629 137.302H79.6459C77.9176 137.302 76.5166 138.703 76.5166 140.431V152.948C76.5166 154.676 77.9176 156.078 79.6459 156.078H92.1629C93.8911 156.078 95.2921 154.676 95.2921 152.948V140.431C95.2921 138.703 93.8911 137.302 92.1629 137.302Z" fill="#E8EDFF"/>
<path fill-rule="evenodd" clip-rule="evenodd" d="M88.1339 142.518V143.504H85.4719V150.549H84.3934V143.504H81.7314V142.518H88.1339ZM89.8169 145.065V150.541H88.7608V146.152L87.6264 146.794L87.1023 146.043L88.7921 145.065H89.8169Z" fill="#000091"/>
<path d="M103.478 144.867V143.717H109.666V144.867H107.201V151.384H105.942V144.867H103.478ZM111.526 144.637C111.11 144.637 110.759 144.287 110.759 143.87C110.759 143.454 111.11 143.104 111.526 143.104C111.942 143.104 112.292 143.454 112.292 143.87C112.292 144.287 111.942 144.637 111.526 144.637ZM110.956 151.384V145.864H112.084V151.384H110.956ZM114.258 149.467V146.882H113.218V145.864H114.258V144.484H115.397V145.864H117.226V146.882H115.397V149.467C115.397 150.212 115.792 150.453 116.405 150.453C116.777 150.453 117.029 150.409 117.226 150.332V151.329C116.963 151.439 116.657 151.493 116.23 151.493C114.937 151.493 114.258 150.814 114.258 149.467ZM118.572 151.384V145.864H119.7V146.488C120.083 146.061 120.565 145.754 121.244 145.754C121.419 145.754 121.583 145.787 121.726 145.831V146.937C121.551 146.893 121.375 146.86 121.145 146.86C120.444 146.86 119.984 147.233 119.7 147.704V151.384H118.572ZM127.662 150.486C127.147 151.176 126.304 151.603 125.274 151.603C123.369 151.603 122.241 150.234 122.241 148.624C122.241 146.97 123.292 145.645 125.044 145.645C126.567 145.645 127.553 146.685 127.553 148.087C127.553 148.339 127.52 148.591 127.476 148.755H123.402C123.478 149.96 124.212 150.584 125.274 150.584C125.943 150.584 126.501 150.289 126.841 149.829L127.662 150.486ZM125.023 146.587C124.201 146.587 123.632 147.058 123.456 147.912H126.424C126.403 147.222 125.91 146.587 125.023 146.587ZM131.546 148.624C131.546 147.014 132.63 145.645 134.372 145.645C135.16 145.645 135.752 145.929 136.212 146.422V143.169H137.362V151.384H136.212V150.825C135.752 151.318 135.16 151.603 134.372 151.603C132.63 151.603 131.546 150.234 131.546 148.624ZM132.74 148.624C132.74 149.708 133.452 150.54 134.514 150.54C135.226 150.54 135.839 150.201 136.212 149.62V147.627C135.806 147.025 135.204 146.707 134.514 146.707C133.452 146.707 132.74 147.539 132.74 148.624ZM144.166 150.486C143.651 151.176 142.808 151.603 141.778 151.603C139.872 151.603 138.744 150.234 138.744 148.624C138.744 146.97 139.795 145.645 141.548 145.645C143.07 145.645 144.056 146.685 144.056 148.087C144.056 148.339 144.023 148.591 143.979 148.755H139.905C139.982 149.96 140.715 150.584 141.778 150.584C142.446 150.584 143.005 150.289 143.344 149.829L144.166 150.486ZM141.526 146.587C140.705 146.587 140.135 147.058 139.96 147.912H142.928C142.906 147.222 142.413 146.587 141.526 146.587ZM147.94 150.606L148.717 149.927C149.079 150.387 149.517 150.683 150.064 150.683C150.601 150.683 150.897 150.354 150.897 149.938C150.897 148.821 148.191 149.226 148.191 147.277C148.191 146.368 148.958 145.645 150.064 145.645C150.875 145.645 151.587 146.039 151.981 146.565L151.214 147.233C150.919 146.839 150.535 146.565 150.075 146.565C149.55 146.565 149.287 146.871 149.287 147.244C149.287 148.35 151.992 147.978 151.992 149.872C151.981 150.957 151.105 151.603 150.075 151.603C149.144 151.603 148.454 151.23 147.94 150.606ZM158.348 150.486C157.833 151.176 156.99 151.603 155.961 151.603C154.055 151.603 152.927 150.234 152.927 148.624C152.927 146.97 153.978 145.645 155.731 145.645C157.253 145.645 158.239 146.685 158.239 148.087C158.239 148.339 158.206 148.591 158.162 148.755H154.088C154.164 149.96 154.898 150.584 155.961 150.584C156.629 150.584 157.187 150.289 157.527 149.829L158.348 150.486ZM155.709 146.587C154.887 146.587 154.318 147.058 154.142 147.912H157.111C157.089 147.222 156.596 146.587 155.709 146.587ZM162.271 150.54C162.895 150.54 163.399 150.234 163.705 149.807L164.593 150.486C164.089 151.165 163.278 151.603 162.26 151.603C160.409 151.603 159.248 150.234 159.248 148.624C159.248 147.014 160.409 145.645 162.26 145.645C163.267 145.645 164.089 146.083 164.593 146.762L163.705 147.441C163.399 147.014 162.895 146.707 162.26 146.707C161.197 146.707 160.431 147.539 160.431 148.624C160.431 149.719 161.197 150.54 162.271 150.54ZM166.111 149.467V146.882H165.071V145.864H166.111V144.484H167.25V145.864H169.079V146.882H167.25V149.467C167.25 150.212 167.644 150.453 168.258 150.453C168.63 150.453 168.882 150.409 169.079 150.332V151.329C168.816 151.439 168.51 151.493 168.083 151.493C166.79 151.493 166.111 150.814 166.111 149.467ZM170.993 144.637C170.577 144.637 170.227 144.287 170.227 143.87C170.227 143.454 170.577 143.104 170.993 143.104C171.41 143.104 171.76 143.454 171.76 143.87C171.76 144.287 171.41 144.637 170.993 144.637ZM170.424 151.384V145.864H171.552V151.384H170.424ZM175.96 145.645C177.757 145.645 178.961 146.992 178.961 148.624C178.961 150.256 177.757 151.603 175.96 151.603C174.175 151.603 172.959 150.256 172.959 148.624C172.959 146.992 174.175 145.645 175.96 145.645ZM175.971 150.54C177.012 150.54 177.778 149.675 177.778 148.624C177.778 147.55 177.012 146.707 175.971 146.707C174.909 146.707 174.142 147.561 174.142 148.624C174.142 149.686 174.909 150.54 175.971 150.54ZM180.371 151.384V145.864H181.499V146.4C181.915 145.962 182.463 145.645 183.252 145.645C184.467 145.645 185.398 146.466 185.398 148.065V151.384H184.259V148.109C184.259 147.233 183.777 146.707 182.989 146.707C182.233 146.707 181.784 147.178 181.499 147.66V151.384H180.371ZM190.364 149.412C189.904 149.412 189.542 149.051 189.542 148.602C189.542 148.164 189.904 147.791 190.364 147.791C190.813 147.791 191.174 148.164 191.174 148.602C191.174 149.051 190.813 149.412 190.364 149.412Z" fill="#3A3A3A"/>
<path d="M195.012 150.482L195.669 149.882C196.119 150.464 196.645 150.773 197.255 150.773C197.988 150.773 198.41 150.332 198.41 149.731C198.41 148.248 195.293 148.567 195.293 146.399C195.293 145.422 196.101 144.624 197.246 144.624C198.166 144.624 198.842 145.047 199.33 145.695L198.664 146.277C198.279 145.723 197.819 145.413 197.255 145.413C196.608 145.413 196.195 145.817 196.195 146.38C196.195 147.854 199.302 147.516 199.302 149.703C199.302 150.839 198.429 151.562 197.265 151.562C196.298 151.562 195.584 151.196 195.012 150.482ZM200.975 149.797V147.375H200.083V146.652H200.975V145.469H201.783V146.652H203.425V147.375H201.783V149.797C201.783 150.539 202.158 150.745 202.731 150.745C203.041 150.745 203.257 150.708 203.435 150.633V151.346C203.21 151.44 202.956 151.477 202.618 151.477C201.567 151.477 200.975 150.952 200.975 149.797ZM204.645 151.384V146.652H205.443V147.244C205.79 146.831 206.222 146.558 206.823 146.558C206.973 146.558 207.114 146.577 207.227 146.615V147.394C207.086 147.356 206.945 147.337 206.757 147.337C206.138 147.337 205.734 147.657 205.443 148.135V151.384H204.645ZM211.745 149.356V146.652H212.543V149.328C212.543 150.745 211.726 151.571 210.44 151.571C209.163 151.571 208.346 150.745 208.346 149.328V146.652H209.144V149.356C209.144 150.285 209.642 150.82 210.449 150.82C211.238 150.82 211.745 150.285 211.745 149.356ZM216.294 150.82C216.876 150.82 217.355 150.539 217.646 150.126L218.275 150.604C217.833 151.196 217.148 151.571 216.284 151.571C214.717 151.571 213.712 150.398 213.712 149.018C213.712 147.638 214.717 146.464 216.284 146.464C217.139 146.464 217.833 146.849 218.275 147.431L217.646 147.91C217.355 147.497 216.876 147.215 216.284 147.215C215.27 147.215 214.548 148.013 214.548 149.018C214.548 150.032 215.271 150.82 216.294 150.82ZM219.623 149.797V147.375H218.731V146.652H219.623V145.469H220.43V146.652H222.073V147.375H220.43V149.797C220.43 150.539 220.805 150.745 221.378 150.745C221.688 150.745 221.904 150.708 222.082 150.633V151.346C221.857 151.44 221.603 151.477 221.265 151.477C220.214 151.477 219.623 150.952 219.623 149.797ZM226.56 149.356V146.652H227.358V149.328C227.358 150.745 226.541 151.571 225.255 151.571C223.978 151.571 223.162 150.745 223.162 149.328V146.652H223.96V149.356C223.96 150.285 224.457 150.82 225.265 150.82C226.053 150.82 226.56 150.285 226.56 149.356ZM228.93 151.384V146.652H229.728V147.244C230.076 146.831 230.508 146.558 231.108 146.558C231.259 146.558 231.399 146.577 231.512 146.615V147.394C231.371 147.356 231.23 147.337 231.043 147.337C230.423 147.337 230.019 147.657 229.728 148.135V151.384H228.93ZM236.583 150.604C236.142 151.196 235.438 151.571 234.555 151.571C232.959 151.571 231.974 150.398 231.974 149.018C231.974 147.582 232.894 146.464 234.358 146.464C235.644 146.464 236.48 147.366 236.48 148.53C236.48 148.717 236.452 148.896 236.423 149.027H232.79C232.819 150.163 233.541 150.848 234.555 150.848C235.166 150.848 235.682 150.567 235.992 150.144L236.583 150.604ZM234.339 147.14C233.56 147.14 233.016 147.6 232.847 148.417H235.682C235.654 147.722 235.175 147.14 234.339 147.14ZM237.411 151.384V150.661L240.199 147.375H237.476V146.652H241.175V147.375L238.378 150.661H241.241V151.384H237.411ZM244.352 146.652H245.216L246.727 150.548L248.239 146.652H249.102L247.253 151.384H246.202L244.352 146.652ZM252.167 146.464C253.688 146.464 254.73 147.638 254.73 149.018C254.73 150.398 253.688 151.571 252.167 151.571C250.637 151.571 249.604 150.398 249.604 149.018C249.604 147.638 250.637 146.464 252.167 146.464ZM252.176 150.82C253.162 150.82 253.885 149.994 253.885 149.018C253.885 148.032 253.162 147.215 252.176 147.215C251.162 147.215 250.439 148.032 250.439 149.018C250.439 150.004 251.162 150.82 252.176 150.82ZM256.211 149.797V147.375H255.319V146.652H256.211V145.469H257.019V146.652H258.661V147.375H257.019V149.797C257.019 150.539 257.394 150.745 257.967 150.745C258.277 150.745 258.493 150.708 258.671 150.633V151.346C258.446 151.44 258.192 151.477 257.854 151.477C256.803 151.477 256.211 150.952 256.211 149.797ZM259.881 151.384V146.652H260.679V147.244C261.026 146.831 261.458 146.558 262.059 146.558C262.209 146.558 262.35 146.577 262.463 146.615V147.394C262.322 147.356 262.181 147.337 261.993 147.337C261.374 147.337 260.97 147.657 260.679 148.135V151.384H259.881ZM267.534 150.604C267.092 151.196 266.388 151.571 265.506 151.571C263.91 151.571 262.924 150.398 262.924 149.018C262.924 147.582 263.844 146.464 265.309 146.464C266.595 146.464 267.43 147.366 267.43 148.53C267.43 148.717 267.402 148.896 267.374 149.027H263.741C263.769 150.163 264.492 150.848 265.506 150.848C266.116 150.848 266.632 150.567 266.942 150.144L267.534 150.604ZM265.29 147.14C264.511 147.14 263.966 147.6 263.797 148.417H266.632C266.604 147.722 266.126 147.14 265.29 147.14ZM271.313 151.384V146.652H272.111V147.244C272.458 146.831 272.89 146.558 273.491 146.558C273.641 146.558 273.782 146.577 273.895 146.615V147.394C273.754 147.356 273.613 147.337 273.425 147.337C272.806 147.337 272.402 147.657 272.111 148.135V151.384H271.313ZM278.966 150.604C278.524 151.196 277.82 151.571 276.938 151.571C275.342 151.571 274.356 150.398 274.356 149.018C274.356 147.582 275.276 146.464 276.741 146.464C278.027 146.464 278.862 147.366 278.862 148.53C278.862 148.717 278.834 148.896 278.806 149.027H275.173C275.201 150.163 275.924 150.848 276.938 150.848C277.548 150.848 278.064 150.567 278.374 150.144L278.966 150.604ZM276.722 147.14C275.943 147.14 275.398 147.6 275.229 148.417H278.064C278.036 147.722 277.557 147.14 276.722 147.14ZM279.671 150.736L280.235 150.257C280.563 150.67 280.957 150.905 281.436 150.905C281.962 150.905 282.262 150.586 282.262 150.173C282.262 149.112 279.897 149.487 279.897 147.816C279.897 147.075 280.526 146.464 281.436 146.464C282.112 146.464 282.694 146.784 283.023 147.244L282.469 147.713C282.215 147.356 281.859 147.131 281.446 147.131C280.939 147.131 280.666 147.431 280.666 147.797C280.666 148.858 283.041 148.52 283.041 150.135C283.032 151.017 282.328 151.571 281.446 151.571C280.695 151.571 280.103 151.271 279.671 150.736ZM283.796 150.736L284.36 150.257C284.688 150.67 285.083 150.905 285.561 150.905C286.087 150.905 286.387 150.586 286.387 150.173C286.387 149.112 284.022 149.487 284.022 147.816C284.022 147.075 284.651 146.464 285.561 146.464C286.237 146.464 286.819 146.784 287.148 147.244L286.594 147.713C286.34 147.356 285.984 147.131 285.571 147.131C285.064 147.131 284.792 147.431 284.792 147.797C284.792 148.858 287.167 148.52 287.167 150.135C287.157 151.017 286.453 151.571 285.571 151.571C284.82 151.571 284.228 151.271 283.796 150.736ZM290.57 146.464C292.09 146.464 293.133 147.638 293.133 149.018C293.133 150.398 292.09 151.571 290.57 151.571C289.039 151.571 288.007 150.398 288.007 149.018C288.007 147.638 289.039 146.464 290.57 146.464ZM290.579 150.82C291.565 150.82 292.288 149.994 292.288 149.018C292.288 148.032 291.565 147.215 290.579 147.215C289.565 147.215 288.842 148.032 288.842 149.018C288.842 150.004 289.565 150.82 290.579 150.82ZM297.711 149.356V146.652H298.509V149.328C298.509 150.745 297.692 151.571 296.406 151.571C295.129 151.571 294.312 150.745 294.312 149.328V146.652H295.11V149.356C295.11 150.285 295.608 150.82 296.415 150.82C297.204 150.82 297.711 150.285 297.711 149.356ZM300.081 151.384V146.652H300.879V147.244C301.226 146.831 301.658 146.558 302.259 146.558C302.409 146.558 302.55 146.577 302.663 146.615V147.394C302.522 147.356 302.381 147.337 302.193 147.337C301.574 147.337 301.17 147.657 300.879 148.135V151.384H300.081ZM305.707 150.82C306.289 150.82 306.767 150.539 307.058 150.126L307.687 150.604C307.246 151.196 306.561 151.571 305.697 151.571C304.13 151.571 303.125 150.398 303.125 149.018C303.125 147.638 304.13 146.464 305.697 146.464C306.552 146.464 307.246 146.849 307.687 147.431L307.058 147.91C306.767 147.497 306.289 147.215 305.697 147.215C304.683 147.215 303.961 148.013 303.961 149.018C303.961 150.032 304.683 150.82 305.707 150.82ZM312.804 150.604C312.363 151.196 311.658 151.571 310.776 151.571C309.18 151.571 308.194 150.398 308.194 149.018C308.194 147.582 309.114 146.464 310.579 146.464C311.865 146.464 312.701 147.366 312.701 148.53C312.701 148.717 312.672 148.896 312.644 149.027H309.011C309.039 150.163 309.762 150.848 310.776 150.848C311.386 150.848 311.903 150.567 312.212 150.144L312.804 150.604ZM310.56 147.14C309.781 147.14 309.236 147.6 309.067 148.417H311.903C311.874 147.722 311.396 147.14 310.56 147.14ZM317.869 151.515C316.94 151.515 316.311 150.999 316.311 150.191C316.311 149.478 316.855 148.971 317.86 148.802L319.456 148.539V148.211C319.456 147.553 318.986 147.178 318.311 147.178C317.766 147.178 317.325 147.431 317.034 147.835L316.433 147.375C316.846 146.812 317.513 146.464 318.339 146.464C319.54 146.464 320.254 147.168 320.254 148.211V151.384H319.456V150.783C319.099 151.243 318.479 151.515 317.869 151.515ZM317.118 150.163C317.118 150.567 317.447 150.858 318.001 150.858C318.63 150.858 319.146 150.557 319.456 150.051V149.121L318.057 149.356C317.409 149.468 317.118 149.76 317.118 150.163ZM321.096 146.652H321.959L323.471 150.548L324.982 146.652H325.846L323.996 151.384H322.945L321.096 146.652ZM330.956 150.604C330.515 151.196 329.811 151.571 328.928 151.571C327.332 151.571 326.346 150.398 326.346 149.018C326.346 147.582 327.266 146.464 328.731 146.464C330.017 146.464 330.853 147.366 330.853 148.53C330.853 148.717 330.824 148.896 330.796 149.027H327.163C327.191 150.163 327.914 150.848 328.928 150.848C329.538 150.848 330.055 150.567 330.364 150.144L330.956 150.604ZM328.712 147.14C327.933 147.14 327.388 147.6 327.219 148.417H330.055C330.026 147.722 329.548 147.14 328.712 147.14ZM334.364 150.82C334.946 150.82 335.425 150.539 335.716 150.126L336.345 150.604C335.904 151.196 335.219 151.571 334.355 151.571C332.787 151.571 331.783 150.398 331.783 149.018C331.783 147.638 332.787 146.464 334.355 146.464C335.209 146.464 335.904 146.849 336.345 147.431L335.716 147.91C335.425 147.497 334.946 147.215 334.355 147.215C333.341 147.215 332.618 148.013 332.618 149.018C332.618 150.032 333.341 150.82 334.364 150.82ZM339.567 149.018C339.567 147.638 340.515 146.464 341.998 146.464C342.702 146.464 343.256 146.737 343.679 147.215V144.343H344.477V151.384H343.679V150.82C343.256 151.299 342.702 151.571 341.998 151.571C340.515 151.571 339.567 150.398 339.567 149.018ZM340.412 149.018C340.412 150.022 341.088 150.82 342.092 150.82C342.749 150.82 343.331 150.501 343.679 149.947V148.088C343.312 147.525 342.74 147.215 342.092 147.215C341.088 147.215 340.412 148.013 340.412 149.018ZM350.364 150.604C349.923 151.196 349.219 151.571 348.336 151.571C346.741 151.571 345.755 150.398 345.755 149.018C345.755 147.582 346.675 146.464 348.139 146.464C349.425 146.464 350.261 147.366 350.261 148.53C350.261 148.717 350.233 148.896 350.205 149.027H346.572C346.6 150.163 347.323 150.848 348.336 150.848C348.947 150.848 349.463 150.567 349.773 150.144L350.364 150.604ZM348.121 147.14C347.341 147.14 346.797 147.6 346.628 148.417H349.463C349.435 147.722 348.956 147.14 348.121 147.14ZM351.07 150.736L351.633 150.257C351.962 150.67 352.356 150.905 352.835 150.905C353.36 150.905 353.661 150.586 353.661 150.173C353.661 149.112 351.295 149.487 351.295 147.816C351.295 147.075 351.924 146.464 352.835 146.464C353.511 146.464 354.093 146.784 354.421 147.244L353.867 147.713C353.614 147.356 353.257 147.131 352.844 147.131C352.337 147.131 352.065 147.431 352.065 147.797C352.065 148.858 354.44 148.52 354.44 150.135C354.431 151.017 353.727 151.571 352.844 151.571C352.093 151.571 351.502 151.271 351.07 150.736ZM359.555 151.515C358.625 151.515 357.996 150.999 357.996 150.191C357.996 149.478 358.541 148.971 359.545 148.802L361.141 148.539V148.211C361.141 147.553 360.672 147.178 359.996 147.178C359.452 147.178 359.01 147.431 358.719 147.835L358.118 147.375C358.532 146.812 359.198 146.464 360.024 146.464C361.226 146.464 361.939 147.168 361.939 148.211V151.384H361.141V150.783C360.785 151.243 360.165 151.515 359.555 151.515ZM358.804 150.163C358.804 150.567 359.132 150.858 359.686 150.858C360.315 150.858 360.832 150.557 361.141 150.051V149.121L359.743 149.356C359.095 149.468 358.804 149.76 358.804 150.163ZM363.541 151.384V146.652H364.339V147.187C364.724 146.765 365.212 146.464 365.916 146.464C366.977 146.464 367.765 147.178 367.765 148.52V151.384H366.967V148.548C366.967 147.704 366.488 147.215 365.756 147.215C365.071 147.215 364.639 147.61 364.339 148.107V151.384H363.541ZM371.549 150.82C372.131 150.82 372.61 150.539 372.901 150.126L373.53 150.604C373.089 151.196 372.404 151.571 371.54 151.571C369.972 151.571 368.968 150.398 368.968 149.018C368.968 147.638 369.972 146.464 371.54 146.464C372.394 146.464 373.089 146.849 373.53 147.431L372.901 147.91C372.61 147.497 372.131 147.215 371.54 147.215C370.526 147.215 369.803 148.013 369.803 149.018C369.803 150.032 370.526 150.82 371.549 150.82ZM374.625 151.384V146.652H375.422V147.244C375.77 146.831 376.202 146.558 376.802 146.558C376.953 146.558 377.094 146.577 377.206 146.615V147.394C377.065 147.356 376.925 147.337 376.737 147.337C376.117 147.337 375.714 147.657 375.422 148.135V151.384H374.625ZM382.277 150.604C381.836 151.196 381.132 151.571 380.249 151.571C378.653 151.571 377.668 150.398 377.668 149.018C377.668 147.582 378.588 146.464 380.052 146.464C381.338 146.464 382.174 147.366 382.174 148.53C382.174 148.717 382.146 148.896 382.118 149.027H378.484C378.513 150.163 379.235 150.848 380.249 150.848C380.86 150.848 381.376 150.567 381.686 150.144L382.277 150.604ZM380.033 147.14C379.254 147.14 378.71 147.6 378.541 148.417H381.376C381.348 147.722 380.869 147.14 380.033 147.14ZM382.983 150.736L383.546 150.257C383.875 150.67 384.269 150.905 384.748 150.905C385.273 150.905 385.574 150.586 385.574 150.173C385.574 149.112 383.208 149.487 383.208 147.816C383.208 147.075 383.837 146.464 384.748 146.464C385.424 146.464 386.006 146.784 386.334 147.244L385.78 147.713C385.527 147.356 385.17 147.131 384.757 147.131C384.25 147.131 383.978 147.431 383.978 147.797C383.978 148.858 386.353 148.52 386.353 150.135C386.344 151.017 385.639 151.571 384.757 151.571C384.006 151.571 383.415 151.271 382.983 150.736ZM387.973 151.487C387.635 151.487 387.363 151.224 387.363 150.895C387.363 150.567 387.635 150.295 387.973 150.295C388.311 150.295 388.574 150.567 388.574 150.895C388.574 151.224 388.311 151.487 387.973 151.487Z" fill="#666666"/>
<path fill-rule="evenodd" clip-rule="evenodd" d="M511.483 165.465H76.5166V164.683H511.483V165.465Z" fill="#DDDDDD"/>
<path d="M524 165.465H64V203.016H524V165.465Z" fill="white"/>
<path d="M92.1629 174.853H79.6459C77.9176 174.853 76.5166 176.254 76.5166 177.982V190.499C76.5166 192.228 77.9176 193.629 79.6459 193.629H92.1629C93.8911 193.629 95.2921 192.228 95.2921 190.499V177.982C95.2921 176.254 93.8911 174.853 92.1629 174.853Z" fill="#E8EDFF"/>
<path d="M85.5123 185.806H82.1264L81.0834 188.413H79.96L83.2979 180.069H84.3409L87.6788 188.413H86.5554L85.5123 185.806ZM85.0951 184.763L83.8193 181.573L82.5437 184.763H85.0951ZM90.5994 184.52V184.241H91.6425V188.413H90.5994V188.134C90.2823 188.317 89.9226 188.413 89.5564 188.413C89.1903 188.413 88.8307 188.317 88.5136 188.134C88.1966 187.951 87.9334 187.687 87.7503 187.37C87.5673 187.053 87.4709 186.693 87.4709 186.327C87.4709 185.961 87.5673 185.601 87.7503 185.285C87.9334 184.967 88.1966 184.704 88.5136 184.521C88.8307 184.337 89.1903 184.241 89.5564 184.241C89.9226 184.241 90.2823 184.337 90.5994 184.52ZM89.5564 187.37C89.833 187.37 90.0983 187.261 90.2939 187.064C90.4895 186.869 90.5994 186.604 90.5994 186.327C90.5994 186.05 90.4895 185.785 90.2939 185.59C90.0983 185.394 89.833 185.284 89.5564 185.284C89.2797 185.284 89.0144 185.394 88.8187 185.59C88.6231 185.785 88.5132 186.05 88.5132 186.327C88.5132 186.604 88.6231 186.869 88.8187 187.064C89.0144 187.261 89.2797 187.37 89.5564 187.37Z" fill="#000091"/>
<path d="M103.478 182.418V181.268H109.666V182.418H107.201V188.935H105.942V182.418H103.478ZM115.127 188.037C114.612 188.727 113.769 189.154 112.739 189.154C110.833 189.154 109.705 187.785 109.705 186.175C109.705 184.521 110.757 183.196 112.509 183.196C114.031 183.196 115.017 184.236 115.017 185.638C115.017 185.89 114.984 186.142 114.94 186.306H110.866C110.943 187.511 111.677 188.135 112.739 188.135C113.407 188.135 113.966 187.839 114.305 187.379L115.127 188.037ZM112.487 184.138C111.666 184.138 111.096 184.609 110.921 185.463H113.889C113.867 184.773 113.374 184.138 112.487 184.138ZM116.982 188.935H115.668L117.661 186.087L115.799 183.415H117.103L118.406 185.309L119.709 183.415H121.013L119.14 186.087L121.133 188.935H119.841L118.406 186.854L116.982 188.935ZM122.558 187.018V184.433H121.518V183.415H122.558V182.035H123.697V183.415H125.526V184.433H123.697V187.018C123.697 187.763 124.091 188.004 124.705 188.004C125.077 188.004 125.329 187.96 125.526 187.883V188.88C125.263 188.989 124.957 189.044 124.53 189.044C123.237 189.044 122.558 188.365 122.558 187.018ZM131.748 188.037C131.233 188.727 130.39 189.154 129.36 189.154C127.454 189.154 126.326 187.785 126.326 186.175C126.326 184.521 127.378 183.196 129.13 183.196C130.653 183.196 131.638 184.236 131.638 185.638C131.638 185.89 131.605 186.142 131.562 186.306H127.487C127.564 187.511 128.298 188.135 129.36 188.135C130.028 188.135 130.587 187.839 130.926 187.379L131.748 188.037ZM129.108 184.138C128.287 184.138 127.717 184.609 127.542 185.463H130.51C130.488 184.773 129.995 184.138 129.108 184.138Z" fill="#3A3A3A"/>
<path fill-rule="evenodd" clip-rule="evenodd" d="M511.483 203.016H76.5166V202.234H511.483V203.016Z" fill="#DDDDDD"/>
<path d="M524 203.016H64V240.567H524V203.016Z" fill="white"/>
<path d="M92.1629 212.404H79.6459C77.9176 212.404 76.5166 213.805 76.5166 215.533V228.05C76.5166 229.779 77.9176 231.18 79.6459 231.18H92.1629C93.8911 231.18 95.2921 229.779 95.2921 228.05V215.533C95.2921 213.805 93.8911 212.404 92.1629 212.404Z" fill="#E8EDFF"/>
<path fill-rule="evenodd" clip-rule="evenodd" d="M87.4679 216.576L90.5987 219.705V226.482C90.5996 226.62 90.5457 226.753 90.4485 226.852C90.3514 226.95 90.2191 227.006 90.0808 227.008H81.7288C81.443 227.008 81.2113 226.776 81.2109 226.49V217.094C81.2109 216.814 81.4451 216.576 81.7335 216.576H87.4679ZM86.9479 217.62H82.254V225.964H89.5556V220.227H86.9479V217.62ZM83.8186 219.184H85.3832V220.227H83.8186V219.184ZM83.8186 221.27H87.991V222.314H83.8186V221.27ZM83.8186 223.356H87.991V224.399H83.8186V223.356Z" fill="#000091"/>
<path d="M104.299 226.486V218.819H108.57V219.882H105.547V222.05H108.132V223.112H105.547V226.486H104.299ZM110.435 219.739C110.018 219.739 109.668 219.389 109.668 218.972C109.668 218.556 110.018 218.206 110.435 218.206C110.851 218.206 111.201 218.556 111.201 218.972C111.201 219.389 110.851 219.739 110.435 219.739ZM109.865 226.486V220.966H110.993V226.486H109.865ZM115.423 225.642C116.048 225.642 116.551 225.336 116.858 224.909L117.745 225.588C117.241 226.267 116.431 226.705 115.412 226.705C113.561 226.705 112.4 225.336 112.4 223.726C112.4 222.116 113.561 220.747 115.412 220.747C116.42 220.747 117.241 221.185 117.745 221.864L116.858 222.543C116.551 222.116 116.048 221.809 115.412 221.809C114.35 221.809 113.583 222.642 113.583 223.726C113.583 224.821 114.35 225.642 115.423 225.642ZM118.924 226.486V218.272H120.052V221.502C120.469 221.064 121.016 220.747 121.805 220.747C123.032 220.747 123.952 221.568 123.952 223.167V226.486H122.812V223.211C122.812 222.335 122.331 221.809 121.542 221.809C120.786 221.809 120.348 222.28 120.052 222.762V226.486H118.924ZM126.275 219.739C125.859 219.739 125.508 219.389 125.508 218.972C125.508 218.556 125.859 218.206 126.275 218.206C126.691 218.206 127.042 218.556 127.042 218.972C127.042 219.389 126.691 219.739 126.275 219.739ZM125.705 226.486V220.966H126.834V226.486H125.705ZM133.662 225.588C133.147 226.278 132.304 226.705 131.275 226.705C129.369 226.705 128.241 225.336 128.241 223.726C128.241 222.072 129.292 220.747 131.045 220.747C132.567 220.747 133.553 221.787 133.553 223.189C133.553 223.441 133.52 223.693 133.476 223.857H129.402C129.478 225.062 130.212 225.686 131.275 225.686C131.943 225.686 132.501 225.391 132.841 224.931L133.662 225.588ZM131.023 221.689C130.201 221.689 129.632 222.16 129.456 223.014H132.425C132.403 222.324 131.91 221.689 131.023 221.689ZM135.032 226.486V220.966H136.16V221.59C136.543 221.163 137.025 220.856 137.704 220.856C137.88 220.856 138.044 220.889 138.186 220.933V222.039C138.011 221.995 137.836 221.962 137.606 221.962C136.905 221.962 136.445 222.335 136.16 222.806V226.486H135.032ZM142.639 224.514C142.179 224.514 141.818 224.153 141.818 223.704C141.818 223.266 142.179 222.893 142.639 222.893C143.088 222.893 143.45 223.266 143.45 223.704C143.45 224.153 143.088 224.514 142.639 224.514Z" fill="#3A3A3A"/>
<path d="M147.072 220.722V219.914H152.311V220.722H150.133V226.486H149.25V220.722H147.072ZM154.036 226.617C153.106 226.617 152.477 226.101 152.477 225.294C152.477 224.58 153.022 224.073 154.026 223.904L155.622 223.641V223.313C155.622 222.656 155.153 222.28 154.477 222.28C153.932 222.28 153.491 222.534 153.2 222.937L152.599 222.477C153.012 221.914 153.679 221.567 154.505 221.567C155.707 221.567 156.42 222.271 156.42 223.313V226.486H155.622V225.885C155.265 226.345 154.646 226.617 154.036 226.617ZM153.285 225.265C153.285 225.669 153.613 225.96 154.167 225.96C154.796 225.96 155.312 225.66 155.622 225.153V224.223L154.223 224.458C153.576 224.571 153.285 224.862 153.285 225.265ZM158.425 220.525C158.115 220.525 157.862 220.271 157.862 219.961C157.862 219.661 158.115 219.407 158.425 219.407C158.735 219.407 158.979 219.661 158.979 219.961C158.979 220.271 158.735 220.525 158.425 220.525ZM158.022 226.486V221.754H158.819V226.486H158.022ZM160.505 226.486V219.445H161.303V226.486H160.505ZM162.99 226.486V219.445H163.788V226.486H162.99ZM169.68 225.707C169.239 226.298 168.535 226.674 167.653 226.674C166.057 226.674 165.071 225.5 165.071 224.12C165.071 222.684 165.991 221.567 167.455 221.567C168.742 221.567 169.577 222.468 169.577 223.632C169.577 223.82 169.549 223.998 169.521 224.13H165.888C165.916 225.265 166.639 225.951 167.653 225.951C168.263 225.951 168.779 225.669 169.089 225.247L169.68 225.707ZM167.437 222.243C166.657 222.243 166.113 222.703 165.944 223.519H168.779C168.751 222.825 168.272 222.243 167.437 222.243ZM173.46 226.486V221.754H174.258V222.271C174.614 221.858 175.084 221.567 175.741 221.567C176.426 221.567 176.989 221.876 177.28 222.477C177.656 221.961 178.154 221.567 178.97 221.567C179.984 221.567 180.726 222.243 180.726 223.529V226.486H179.928V223.557C179.928 222.768 179.487 222.318 178.811 222.318C178.21 222.318 177.787 222.656 177.478 223.21C177.487 223.313 177.496 223.416 177.496 223.529V226.486H176.698V223.557C176.698 222.768 176.267 222.318 175.581 222.318C174.934 222.318 174.53 222.721 174.258 223.21V226.486H173.46ZM183.62 226.617C182.691 226.617 182.062 226.101 182.062 225.294C182.062 224.58 182.606 224.073 183.611 223.904L185.207 223.641V223.313C185.207 222.656 184.738 222.28 184.062 222.28C183.517 222.28 183.076 222.534 182.785 222.937L182.184 222.477C182.597 221.914 183.264 221.567 184.09 221.567C185.291 221.567 186.005 222.271 186.005 223.313V226.486H185.207V225.885C184.85 226.345 184.231 226.617 183.62 226.617ZM182.869 225.265C182.869 225.669 183.198 225.96 183.752 225.96C184.381 225.96 184.897 225.66 185.207 225.153V224.223L183.808 224.458C183.16 224.571 182.869 224.862 182.869 225.265ZM187.906 226.486H186.976L188.723 224.036L187.108 221.754H188.019L189.248 223.501L190.478 221.754H191.398L189.774 224.036L191.52 226.486H190.61L189.258 224.571L187.906 226.486ZM192.987 220.525C192.677 220.525 192.424 220.271 192.424 219.961C192.424 219.661 192.677 219.407 192.987 219.407C193.297 219.407 193.541 219.661 193.541 219.961C193.541 220.271 193.297 220.525 192.987 220.525ZM192.583 226.486V221.754H193.381V226.486H192.583ZM195.068 226.486V221.754H195.866V222.271C196.223 221.858 196.692 221.567 197.349 221.567C198.034 221.567 198.598 221.876 198.889 222.477C199.264 221.961 199.762 221.567 200.579 221.567C201.592 221.567 202.334 222.243 202.334 223.529V226.486H201.536V223.557C201.536 222.768 201.095 222.318 200.419 222.318C199.818 222.318 199.396 222.656 199.086 223.21C199.095 223.313 199.105 223.416 199.105 223.529V226.486H198.307V223.557C198.307 222.768 197.875 222.318 197.19 222.318C196.542 222.318 196.138 222.721 195.866 223.21V226.486H195.068ZM205.229 226.617C204.299 226.617 203.67 226.101 203.67 225.294C203.67 224.58 204.215 224.073 205.219 223.904L206.815 223.641V223.313C206.815 222.656 206.346 222.28 205.67 222.28C205.125 222.28 204.684 222.534 204.393 222.937L203.792 222.477C204.205 221.914 204.872 221.567 205.698 221.567C206.9 221.567 207.613 222.271 207.613 223.313V226.486H206.815V225.885C206.458 226.345 205.839 226.617 205.229 226.617ZM204.478 225.265C204.478 225.669 204.806 225.96 205.36 225.96C205.989 225.96 206.505 225.66 206.815 225.153V224.223L205.416 224.458C204.769 224.571 204.478 224.862 204.478 225.265ZM209.214 226.486V219.445H210.012V226.486H209.214ZM215.904 225.707C215.463 226.298 214.759 226.674 213.876 226.674C212.28 226.674 211.295 225.5 211.295 224.12C211.295 222.684 212.215 221.567 213.679 221.567C214.965 221.567 215.801 222.468 215.801 223.632C215.801 223.82 215.773 223.998 215.744 224.13H212.111C212.14 225.265 212.862 225.951 213.876 225.951C214.487 225.951 215.003 225.669 215.313 225.247L215.904 225.707ZM213.66 222.243C212.881 222.243 212.337 222.703 212.168 223.519H215.003C214.975 222.825 214.496 222.243 213.66 222.243ZM220.115 222.843C219.777 222.843 219.505 222.571 219.505 222.243C219.505 221.914 219.777 221.651 220.115 221.651C220.453 221.651 220.716 221.914 220.716 222.243C220.716 222.571 220.453 222.843 220.115 222.843ZM220.115 226.589C219.777 226.589 219.505 226.326 219.505 225.998C219.505 225.669 219.777 225.397 220.115 225.397C220.453 225.397 220.716 225.669 220.716 225.998C220.716 226.326 220.453 226.589 220.115 226.589ZM224.538 226.486V225.725L226.763 223.435C227.532 222.627 227.88 222.261 227.88 221.567C227.88 220.881 227.382 220.487 226.716 220.487C226.021 220.487 225.57 220.834 225.185 221.473L224.491 221.05C225.026 220.215 225.758 219.727 226.781 219.727C227.88 219.727 228.753 220.44 228.753 221.51C228.753 222.402 228.171 223.069 227.382 223.895L225.58 225.725H228.931V226.486H224.538ZM232.335 219.727C233.987 219.727 234.795 221.247 234.795 223.2C234.795 225.153 233.987 226.674 232.335 226.674C230.702 226.674 229.885 225.153 229.885 223.2C229.885 221.247 230.702 219.727 232.335 219.727ZM232.344 220.515C231.293 220.515 230.748 221.661 230.748 223.2C230.748 224.74 231.293 225.885 232.344 225.885C233.386 225.885 233.922 224.74 233.922 223.2C233.922 221.661 233.386 220.515 232.344 220.515ZM238.73 226.486V219.914H239.856L241.865 223.228L243.874 219.914H245.001V226.486H244.118V221.097L242.203 224.233H241.527L239.612 221.097V226.486H238.73ZM248.997 221.567C250.518 221.567 251.56 222.74 251.56 224.12C251.56 225.5 250.518 226.674 248.997 226.674C247.467 226.674 246.435 225.5 246.435 224.12C246.435 222.74 247.467 221.567 248.997 221.567ZM249.007 225.923C249.993 225.923 250.715 225.096 250.715 224.12C250.715 223.134 249.993 222.318 249.007 222.318C247.993 222.318 247.27 223.134 247.27 224.12C247.27 225.106 247.993 225.923 249.007 225.923ZM252.963 226.589C252.625 226.589 252.353 226.326 252.353 225.998C252.353 225.669 252.625 225.397 252.963 225.397C253.301 225.397 253.564 225.669 253.564 225.998C253.564 226.326 253.301 226.589 252.963 226.589ZM257.076 220.722V219.914H262.314V220.722H260.136V226.486H259.254V220.722H257.076ZM264.94 221.567C266.461 221.567 267.503 222.74 267.503 224.12C267.503 225.5 266.461 226.674 264.94 226.674C263.41 226.674 262.377 225.5 262.377 224.12C262.377 222.74 263.41 221.567 264.94 221.567ZM264.95 225.923C265.935 225.923 266.658 225.096 266.658 224.12C266.658 223.134 265.935 222.318 264.95 222.318C263.936 222.318 263.213 223.134 263.213 224.12C263.213 225.106 263.936 225.923 264.95 225.923ZM272.08 224.458V221.754H272.878V224.43C272.878 225.847 272.062 226.674 270.775 226.674C269.499 226.674 268.682 225.847 268.682 224.43V221.754H269.48V224.458C269.48 225.387 269.978 225.923 270.785 225.923C271.573 225.923 272.08 225.387 272.08 224.458ZM274.761 224.899V222.477H273.869V221.754H274.761V220.572H275.568V221.754H277.211V222.477H275.568V224.899C275.568 225.641 275.943 225.847 276.516 225.847C276.826 225.847 277.042 225.81 277.22 225.735V226.448C276.995 226.542 276.741 226.58 276.403 226.58C275.352 226.58 274.761 226.054 274.761 224.899ZM280.341 221.754H281.233V221.172C281.233 220.168 281.88 219.445 282.913 219.445C283.345 219.445 283.692 219.567 283.955 219.717L283.598 220.384C283.42 220.252 283.204 220.168 282.932 220.168C282.397 220.168 282.04 220.534 282.04 221.154V221.754H283.683V222.477H282.04V226.486H281.233V222.477H280.341V221.754ZM286.548 221.567C288.069 221.567 289.111 222.74 289.111 224.12C289.111 225.5 288.069 226.674 286.548 226.674C285.018 226.674 283.986 225.5 283.986 224.12C283.986 222.74 285.018 221.567 286.548 221.567ZM286.558 225.923C287.544 225.923 288.266 225.096 288.266 224.12C288.266 223.134 287.544 222.318 286.558 222.318C285.544 222.318 284.821 223.134 284.821 224.12C284.821 225.106 285.544 225.923 286.558 225.923ZM290.394 226.486V221.754H291.192V222.346C291.54 221.933 291.971 221.661 292.572 221.661C292.722 221.661 292.863 221.679 292.976 221.717V222.496C292.835 222.458 292.694 222.44 292.507 222.44C291.887 222.44 291.483 222.759 291.192 223.238V226.486H290.394ZM294.125 226.486V221.754H294.923V222.271C295.28 221.858 295.749 221.567 296.406 221.567C297.092 221.567 297.655 221.876 297.946 222.477C298.322 221.961 298.819 221.567 299.636 221.567C300.65 221.567 301.391 222.243 301.391 223.529V226.486H300.593V223.557C300.593 222.768 300.152 222.318 299.476 222.318C298.875 222.318 298.453 222.656 298.143 223.21C298.153 223.313 298.162 223.416 298.162 223.529V226.486H297.364V223.557C297.364 222.768 296.932 222.318 296.247 222.318C295.599 222.318 295.195 222.721 294.923 223.21V226.486H294.125ZM304.286 226.617C303.356 226.617 302.728 226.101 302.728 225.294C302.728 224.58 303.272 224.073 304.276 223.904L305.872 223.641V223.313C305.872 222.656 305.403 222.28 304.727 222.28C304.183 222.28 303.741 222.534 303.45 222.937L302.85 222.477C303.263 221.914 303.929 221.567 304.755 221.567C305.957 221.567 306.67 222.271 306.67 223.313V226.486H305.872V225.885C305.516 226.345 304.896 226.617 304.286 226.617ZM303.535 225.265C303.535 225.669 303.863 225.96 304.417 225.96C305.046 225.96 305.563 225.66 305.872 225.153V224.223L304.474 224.458C303.826 224.571 303.535 224.862 303.535 225.265ZM308.543 224.899V222.477H307.651V221.754H308.543V220.572H309.351V221.754H310.993V222.477H309.351V224.899C309.351 225.641 309.726 225.847 310.299 225.847C310.609 225.847 310.824 225.81 311.003 225.735V226.448C310.778 226.542 310.524 226.58 310.186 226.58C309.135 226.58 308.543 226.054 308.543 224.899ZM311.706 225.838L312.269 225.359C312.598 225.772 312.992 226.007 313.471 226.007C313.997 226.007 314.297 225.688 314.297 225.275C314.297 224.214 311.931 224.59 311.931 222.918C311.931 222.177 312.56 221.567 313.471 221.567C314.147 221.567 314.729 221.886 315.058 222.346L314.504 222.815C314.25 222.458 313.893 222.233 313.48 222.233C312.973 222.233 312.701 222.534 312.701 222.9C312.701 223.961 315.076 223.623 315.076 225.237C315.067 226.12 314.363 226.674 313.48 226.674C312.729 226.674 312.138 226.373 311.706 225.838ZM320.192 226.617C319.262 226.617 318.633 226.101 318.633 225.294C318.633 224.58 319.178 224.073 320.182 223.904L321.778 223.641V223.313C321.778 222.656 321.309 222.28 320.633 222.28C320.089 222.28 319.647 222.534 319.356 222.937L318.756 222.477C319.169 221.914 319.835 221.567 320.661 221.567C321.863 221.567 322.576 222.271 322.576 223.313V226.486H321.778V225.885C321.422 226.345 320.802 226.617 320.192 226.617ZM319.441 225.265C319.441 225.669 319.769 225.96 320.323 225.96C320.952 225.96 321.469 225.66 321.778 225.153V224.223L320.38 224.458C319.732 224.571 319.441 224.862 319.441 225.265ZM326.355 225.923C326.937 225.923 327.416 225.641 327.707 225.228L328.336 225.707C327.895 226.298 327.209 226.674 326.346 226.674C324.778 226.674 323.773 225.5 323.773 224.12C323.773 222.74 324.778 221.567 326.346 221.567C327.2 221.567 327.895 221.952 328.336 222.534L327.707 223.012C327.416 222.599 326.937 222.318 326.346 222.318C325.332 222.318 324.609 223.116 324.609 224.12C324.609 225.134 325.332 225.923 326.355 225.923ZM331.425 225.923C332.007 225.923 332.486 225.641 332.777 225.228L333.406 225.707C332.965 226.298 332.279 226.674 331.416 226.674C329.848 226.674 328.843 225.5 328.843 224.12C328.843 222.74 329.848 221.567 331.416 221.567C332.27 221.567 332.965 221.952 333.406 222.534L332.777 223.012C332.486 222.599 332.007 222.318 331.416 222.318C330.402 222.318 329.679 223.116 329.679 224.12C329.679 225.134 330.402 225.923 331.425 225.923ZM338.522 225.707C338.081 226.298 337.377 226.674 336.494 226.674C334.899 226.674 333.913 225.5 333.913 224.12C333.913 222.684 334.833 221.567 336.297 221.567C337.583 221.567 338.419 222.468 338.419 223.632C338.419 223.82 338.391 223.998 338.363 224.13H334.73C334.758 225.265 335.481 225.951 336.494 225.951C337.105 225.951 337.621 225.669 337.931 225.247L338.522 225.707ZM336.279 222.243C335.499 222.243 334.955 222.703 334.786 223.519H337.621C337.593 222.825 337.114 222.243 336.279 222.243ZM339.772 228.795V221.754H340.57V222.318C340.992 221.839 341.546 221.567 342.25 221.567C343.733 221.567 344.681 222.74 344.681 224.12C344.681 225.5 343.733 226.674 342.25 226.674C341.546 226.674 340.992 226.401 340.57 225.923V228.795H339.772ZM342.156 222.318C341.499 222.318 340.926 222.637 340.57 223.2V225.04C340.936 225.613 341.508 225.923 342.156 225.923C343.161 225.923 343.846 225.125 343.846 224.12C343.846 223.116 343.161 222.318 342.156 222.318ZM346.168 224.899V222.477H345.276V221.754H346.168V220.572H346.975V221.754H348.618V222.477H346.975V224.899C346.975 225.641 347.351 225.847 347.923 225.847C348.233 225.847 348.449 225.81 348.627 225.735V226.448C348.402 226.542 348.149 226.58 347.811 226.58C346.759 226.58 346.168 226.054 346.168 224.899ZM352.149 221.003H351.37L352.346 219.445H353.248L352.149 221.003ZM353.952 225.707C353.511 226.298 352.806 226.674 351.924 226.674C350.328 226.674 349.342 225.5 349.342 224.12C349.342 222.684 350.262 221.567 351.727 221.567C353.013 221.567 353.849 222.468 353.849 223.632C353.849 223.82 353.82 223.998 353.792 224.13H350.159C350.187 225.265 350.91 225.951 351.924 225.951C352.534 225.951 353.051 225.669 353.36 225.247L353.952 225.707ZM351.708 222.243C350.929 222.243 350.384 222.703 350.215 223.519H353.051C353.022 222.825 352.544 222.243 351.708 222.243ZM354.657 225.838L355.221 225.359C355.549 225.772 355.944 226.007 356.422 226.007C356.948 226.007 357.248 225.688 357.248 225.275C357.248 224.214 354.883 224.59 354.883 222.918C354.883 222.177 355.512 221.567 356.422 221.567C357.098 221.567 357.68 221.886 358.009 222.346L357.455 222.815C357.202 222.458 356.845 222.233 356.432 222.233C355.925 222.233 355.653 222.534 355.653 222.9C355.653 223.961 358.028 223.623 358.028 225.237C358.018 226.12 357.314 226.674 356.432 226.674C355.681 226.674 355.089 226.373 354.657 225.838ZM359.648 226.589C359.31 226.589 359.038 226.326 359.038 225.998C359.038 225.669 359.31 225.397 359.648 225.397C359.986 225.397 360.249 225.669 360.249 225.998C360.249 226.326 359.986 226.589 359.648 226.589Z" fill="#666666"/>
<path fill-rule="evenodd" clip-rule="evenodd" d="M511.483 240.567H76.5166V239.785H511.483V240.567Z" fill="#DDDDDD"/>
<path d="M524 240.567H64V278.118H524V240.567Z" fill="white"/>
<path d="M92.1629 249.955H79.6459C77.9176 249.955 76.5166 251.356 76.5166 253.084V265.601C76.5166 267.33 77.9176 268.731 79.6459 268.731H92.1629C93.8911 268.731 95.2921 267.33 95.2921 265.601V253.084C95.2921 251.356 93.8911 249.955 92.1629 249.955Z" fill="#E8EDFF"/>
<path d="M82.1643 264.037L82.1539 264.047L82.143 264.037H81.2068C81.0696 264.037 80.9379 263.982 80.8409 263.885C80.7439 263.788 80.6895 263.656 80.6895 263.519V255.167C80.6904 255.03 80.7452 254.898 80.842 254.801C80.9388 254.705 81.0698 254.65 81.2068 254.649H90.6029C90.8887 254.649 91.1203 254.881 91.1203 255.167V263.519C91.1193 263.656 91.0646 263.787 90.9677 263.884C90.8709 263.98 90.7399 264.036 90.6029 264.037H82.1643ZM90.0772 260.907V255.692H81.7325V262.994L86.948 257.778L90.0772 260.907ZM90.0772 262.382L86.948 259.253L83.2075 262.994H90.0772V262.382ZM83.8187 258.821C83.5421 258.821 83.2767 258.711 83.0811 258.516C82.8855 258.32 82.7756 258.055 82.7756 257.778C82.7756 257.501 82.8855 257.236 83.0811 257.04C83.2767 256.845 83.5421 256.735 83.8187 256.735C84.0953 256.735 84.3606 256.845 84.5563 257.04C84.7518 257.236 84.8618 257.501 84.8618 257.778C84.8618 258.055 84.7518 258.32 84.5563 258.516C84.3606 258.711 84.0953 258.821 83.8187 258.821Z" fill="#000091"/>
<path d="M104.299 264.037V256.37H105.547V264.037H104.299ZM107.651 264.037V258.517H108.779V259.032C109.173 258.604 109.688 258.298 110.422 258.298C111.178 258.298 111.813 258.637 112.163 259.294C112.591 258.747 113.138 258.298 114.091 258.298C115.241 258.298 116.128 259.086 116.128 260.609V264.037H114.989V260.652C114.989 259.842 114.54 259.36 113.828 259.36C113.171 259.36 112.744 259.776 112.448 260.302C112.459 260.401 112.459 260.499 112.459 260.609V264.037H111.32V260.652C111.32 259.842 110.882 259.36 110.159 259.36C109.458 259.36 109.042 259.842 108.779 260.313V264.037H107.651ZM119.399 264.201C118.303 264.201 117.559 263.577 117.559 262.602C117.559 261.77 118.205 261.167 119.377 260.97L121.162 260.674V260.39C121.162 259.711 120.658 259.294 119.946 259.294C119.344 259.294 118.873 259.568 118.555 260.017L117.712 259.371C118.205 258.714 118.993 258.298 119.979 258.298C121.469 258.298 122.29 259.174 122.29 260.39V264.037H121.162V263.412C120.768 263.894 120.078 264.201 119.399 264.201ZM118.698 262.558C118.698 262.985 119.037 263.281 119.607 263.281C120.297 263.281 120.833 262.953 121.162 262.427V261.474L119.672 261.726C118.982 261.846 118.698 262.142 118.698 262.558ZM123.467 265.023C123.467 264.464 123.741 264.026 124.255 263.643C124.015 263.434 123.894 263.139 123.894 262.854C123.894 262.416 124.102 262.065 124.529 261.77C124.047 261.408 123.774 260.85 123.774 260.236C123.774 259.174 124.595 258.298 125.942 258.298C126.358 258.298 126.72 258.374 127.026 258.517H129.064V259.481H127.979C128.078 259.711 128.133 259.973 128.133 260.236C128.133 261.31 127.311 262.197 125.942 262.197C125.701 262.197 125.482 262.164 125.274 262.12C125.099 262.263 125 262.427 125 262.591C125 262.821 125.121 262.952 125.416 262.952H126.917C128.341 262.952 129.053 263.686 129.053 264.683C129.053 265.877 127.892 266.775 126.216 266.775C124.518 266.775 123.467 266.151 123.467 265.023ZM125.953 261.332C126.665 261.332 127.081 260.861 127.081 260.236C127.081 259.623 126.665 259.163 125.953 259.163C125.241 259.163 124.825 259.623 124.825 260.236C124.825 260.861 125.241 261.332 125.953 261.332ZM124.54 264.869C124.54 265.482 125.154 265.855 126.194 265.855C127.289 265.855 127.925 265.428 127.925 264.782C127.925 264.311 127.651 263.938 126.807 263.938H125.055C124.748 264.179 124.54 264.475 124.54 264.869ZM134.881 263.139C134.367 263.829 133.523 264.256 132.494 264.256C130.588 264.256 129.46 262.887 129.46 261.277C129.46 259.623 130.511 258.298 132.264 258.298C133.786 258.298 134.772 259.338 134.772 260.74C134.772 260.992 134.739 261.244 134.695 261.408H130.621C130.698 262.613 131.431 263.237 132.494 263.237C133.162 263.237 133.721 262.942 134.06 262.482L134.881 263.139ZM132.242 259.24C131.421 259.24 130.851 259.711 130.676 260.565H133.644C133.622 259.875 133.129 259.24 132.242 259.24ZM139.463 262.065C139.003 262.065 138.641 261.704 138.641 261.255C138.641 260.817 139.003 260.444 139.463 260.444C139.912 260.444 140.273 260.817 140.273 261.255C140.273 261.704 139.912 262.065 139.463 262.065Z" fill="#3A3A3A"/>
<path d="M143.896 258.273V257.465H149.134V258.273H146.956V264.037H146.073V258.273H143.896ZM150.86 264.168C149.93 264.168 149.301 263.652 149.301 262.845C149.301 262.131 149.846 261.624 150.85 261.455L152.446 261.192V260.864C152.446 260.207 151.977 259.831 151.301 259.831C150.756 259.831 150.315 260.085 150.024 260.488L149.423 260.028C149.836 259.465 150.503 259.118 151.329 259.118C152.531 259.118 153.244 259.822 153.244 260.864V264.037H152.446V263.436C152.089 263.896 151.47 264.168 150.86 264.168ZM150.109 262.816C150.109 263.22 150.437 263.511 150.991 263.511C151.62 263.511 152.136 263.211 152.446 262.704V261.774L151.047 262.009C150.4 262.122 150.109 262.413 150.109 262.816ZM155.248 258.076C154.939 258.076 154.685 257.822 154.685 257.512C154.685 257.212 154.939 256.958 155.248 256.958C155.558 256.958 155.802 257.212 155.802 257.512C155.802 257.822 155.558 258.076 155.248 258.076ZM154.845 264.037V259.305H155.643V264.037H154.845ZM157.329 264.037V256.996H158.127V264.037H157.329ZM159.814 264.037V256.996H160.612V264.037H159.814ZM166.504 263.258C166.062 263.849 165.358 264.225 164.476 264.225C162.88 264.225 161.894 263.051 161.894 261.671C161.894 260.235 162.814 259.118 164.279 259.118C165.565 259.118 166.4 260.019 166.4 261.183C166.4 261.371 166.372 261.549 166.344 261.681H162.711C162.739 262.816 163.462 263.502 164.476 263.502C165.086 263.502 165.602 263.22 165.912 262.798L166.504 263.258ZM164.26 259.794C163.481 259.794 162.936 260.254 162.767 261.07H165.602C165.574 260.376 165.095 259.794 164.26 259.794ZM170.283 264.037V259.305H171.081V259.822C171.438 259.409 171.907 259.118 172.564 259.118C173.249 259.118 173.813 259.427 174.104 260.028C174.479 259.512 174.977 259.118 175.794 259.118C176.807 259.118 177.549 259.794 177.549 261.08V264.037H176.751V261.108C176.751 260.319 176.31 259.869 175.634 259.869C175.033 259.869 174.611 260.207 174.301 260.761C174.31 260.864 174.32 260.967 174.32 261.08V264.037H173.522V261.108C173.522 260.319 173.09 259.869 172.405 259.869C171.757 259.869 171.353 260.272 171.081 260.761V264.037H170.283ZM180.444 264.168C179.514 264.168 178.885 263.652 178.885 262.845C178.885 262.131 179.43 261.624 180.434 261.455L182.03 261.192V260.864C182.03 260.207 181.561 259.831 180.885 259.831C180.34 259.831 179.899 260.085 179.608 260.488L179.007 260.028C179.42 259.465 180.087 259.118 180.913 259.118C182.115 259.118 182.828 259.822 182.828 260.864V264.037H182.03V263.436C181.673 263.896 181.054 264.168 180.444 264.168ZM179.693 262.816C179.693 263.22 180.021 263.511 180.575 263.511C181.204 263.511 181.72 263.211 182.03 262.704V261.774L180.631 262.009C179.984 262.122 179.693 262.413 179.693 262.816ZM184.729 264.037H183.8L185.546 261.587L183.931 259.305H184.842L186.072 261.052L187.301 259.305H188.221L186.597 261.587L188.343 264.037H187.433L186.081 262.122L184.729 264.037ZM189.811 258.076C189.501 258.076 189.248 257.822 189.248 257.512C189.248 257.212 189.501 256.958 189.811 256.958C190.121 256.958 190.365 257.212 190.365 257.512C190.365 257.822 190.121 258.076 189.811 258.076ZM189.407 264.037V259.305H190.205V264.037H189.407ZM191.891 264.037V259.305H192.689V259.822C193.046 259.409 193.515 259.118 194.172 259.118C194.858 259.118 195.421 259.427 195.712 260.028C196.088 259.512 196.585 259.118 197.402 259.118C198.416 259.118 199.157 259.794 199.157 261.08V264.037H198.359V261.108C198.359 260.319 197.918 259.869 197.242 259.869C196.641 259.869 196.219 260.207 195.909 260.761C195.919 260.864 195.928 260.967 195.928 261.08V264.037H195.13V261.108C195.13 260.319 194.698 259.869 194.013 259.869C193.365 259.869 192.961 260.272 192.689 260.761V264.037H191.891ZM202.052 264.168C201.122 264.168 200.493 263.652 200.493 262.845C200.493 262.131 201.038 261.624 202.042 261.455L203.638 261.192V260.864C203.638 260.207 203.169 259.831 202.493 259.831C201.949 259.831 201.507 260.085 201.216 260.488L200.616 260.028C201.029 259.465 201.695 259.118 202.521 259.118C203.723 259.118 204.436 259.822 204.436 260.864V264.037H203.638V263.436C203.282 263.896 202.662 264.168 202.052 264.168ZM201.301 262.816C201.301 263.22 201.629 263.511 202.183 263.511C202.812 263.511 203.329 263.211 203.638 262.704V261.774L202.24 262.009C201.592 262.122 201.301 262.413 201.301 262.816ZM206.037 264.037V256.996H206.835V264.037H206.037ZM212.727 263.258C212.286 263.849 211.582 264.225 210.7 264.225C209.104 264.225 208.118 263.051 208.118 261.671C208.118 260.235 209.038 259.118 210.502 259.118C211.789 259.118 212.624 260.019 212.624 261.183C212.624 261.371 212.596 261.549 212.568 261.681H208.935C208.963 262.816 209.686 263.502 210.7 263.502C211.31 263.502 211.826 263.22 212.136 262.798L212.727 263.258ZM210.484 259.794C209.704 259.794 209.16 260.254 208.991 261.07H211.826C211.798 260.376 211.319 259.794 210.484 259.794ZM216.938 260.394C216.601 260.394 216.328 260.122 216.328 259.794C216.328 259.465 216.601 259.202 216.938 259.202C217.276 259.202 217.539 259.465 217.539 259.794C217.539 260.122 217.276 260.394 216.938 260.394ZM216.938 264.14C216.601 264.14 216.328 263.877 216.328 263.549C216.328 263.22 216.601 262.948 216.938 262.948C217.276 262.948 217.539 263.22 217.539 263.549C217.539 263.877 217.276 264.14 216.938 264.14ZM221.361 264.037V263.276L223.586 260.986C224.356 260.179 224.703 259.812 224.703 259.118C224.703 258.432 224.205 258.038 223.539 258.038C222.844 258.038 222.394 258.385 222.009 259.024L221.314 258.601C221.849 257.766 222.581 257.278 223.605 257.278C224.703 257.278 225.576 257.991 225.576 259.061C225.576 259.953 224.994 260.62 224.205 261.446L222.403 263.276H225.754V264.037H221.361ZM229.158 257.278C230.81 257.278 231.618 258.799 231.618 260.751C231.618 262.704 230.81 264.225 229.158 264.225C227.525 264.225 226.708 262.704 226.708 260.751C226.708 258.799 227.525 257.278 229.158 257.278ZM229.168 258.066C228.116 258.066 227.572 259.212 227.572 260.751C227.572 262.291 228.116 263.436 229.168 263.436C230.21 263.436 230.745 262.291 230.745 260.751C230.745 259.212 230.21 258.066 229.168 258.066ZM235.553 264.037V257.465H236.679L238.688 260.779L240.697 257.465H241.824V264.037H240.941V258.648L239.026 261.784H238.35L236.435 258.648V264.037H235.553ZM245.821 259.118C247.342 259.118 248.384 260.291 248.384 261.671C248.384 263.051 247.342 264.225 245.821 264.225C244.291 264.225 243.258 263.051 243.258 261.671C243.258 260.291 244.291 259.118 245.821 259.118ZM245.83 263.474C246.816 263.474 247.539 262.647 247.539 261.671C247.539 260.685 246.816 259.869 245.83 259.869C244.816 259.869 244.093 260.685 244.093 261.671C244.093 262.657 244.816 263.474 245.83 263.474ZM249.787 264.14C249.449 264.14 249.177 263.877 249.177 263.549C249.177 263.22 249.449 262.948 249.787 262.948C250.125 262.948 250.388 263.22 250.388 263.549C250.388 263.877 250.125 264.14 249.787 264.14ZM254.612 264.037V257.465H258.142V258.216H255.495V260.319H257.767V261.061H255.495V264.037H254.612ZM261.278 259.118C262.798 259.118 263.841 260.291 263.841 261.671C263.841 263.051 262.798 264.225 261.278 264.225C259.747 264.225 258.715 263.051 258.715 261.671C258.715 260.291 259.747 259.118 261.278 259.118ZM261.287 263.474C262.273 263.474 262.996 262.647 262.996 261.671C262.996 260.685 262.273 259.869 261.287 259.869C260.273 259.869 259.55 260.685 259.55 261.671C259.55 262.657 260.273 263.474 261.287 263.474ZM265.124 264.037V259.305H265.921V259.897C266.269 259.484 266.701 259.212 267.301 259.212C267.452 259.212 267.592 259.23 267.705 259.268V260.047C267.564 260.01 267.424 259.991 267.236 259.991C266.616 259.991 266.212 260.31 265.921 260.789V264.037H265.124ZM268.854 264.037V259.305H269.652V259.822C270.009 259.409 270.478 259.118 271.136 259.118C271.821 259.118 272.384 259.427 272.675 260.028C273.051 259.512 273.548 259.118 274.365 259.118C275.379 259.118 276.12 259.794 276.12 261.08V264.037H275.323V261.108C275.323 260.319 274.881 259.869 274.205 259.869C273.605 259.869 273.182 260.207 272.872 260.761C272.882 260.864 272.891 260.967 272.891 261.08V264.037H272.093V261.108C272.093 260.319 271.661 259.869 270.976 259.869C270.328 259.869 269.925 260.272 269.652 260.761V264.037H268.854ZM279.015 264.168C278.086 264.168 277.457 263.652 277.457 262.845C277.457 262.131 278.001 261.624 279.006 261.455L280.602 261.192V260.864C280.602 260.207 280.132 259.831 279.456 259.831C278.912 259.831 278.471 260.085 278.18 260.488L277.579 260.028C277.992 259.465 278.658 259.118 279.484 259.118C280.686 259.118 281.4 259.822 281.4 260.864V264.037H280.602V263.436C280.245 263.896 279.625 264.168 279.015 264.168ZM278.264 262.816C278.264 263.22 278.593 263.511 279.146 263.511C279.775 263.511 280.292 263.211 280.602 262.704V261.774L279.203 262.009C278.555 262.122 278.264 262.413 278.264 262.816ZM283.272 262.45V260.028H282.381V259.305H283.272V258.123H284.08V259.305H285.723V260.028H284.08V262.45C284.08 263.192 284.455 263.399 285.028 263.399C285.338 263.399 285.554 263.361 285.732 263.286V263.999C285.507 264.093 285.253 264.131 284.915 264.131C283.864 264.131 283.272 263.605 283.272 262.45ZM286.435 263.389L286.999 262.91C287.327 263.323 287.721 263.558 288.2 263.558C288.726 263.558 289.026 263.239 289.026 262.826C289.026 261.765 286.661 262.141 286.661 260.47C286.661 259.728 287.29 259.118 288.2 259.118C288.876 259.118 289.458 259.437 289.787 259.897L289.233 260.366C288.979 260.01 288.623 259.784 288.21 259.784C287.703 259.784 287.43 260.085 287.43 260.451C287.43 261.512 289.805 261.174 289.805 262.788C289.796 263.671 289.092 264.225 288.21 264.225C287.459 264.225 286.867 263.924 286.435 263.389ZM294.067 260.394C293.729 260.394 293.457 260.122 293.457 259.794C293.457 259.465 293.729 259.202 294.067 259.202C294.405 259.202 294.668 259.465 294.668 259.794C294.668 260.122 294.405 260.394 294.067 260.394ZM294.067 264.14C293.729 264.14 293.457 263.877 293.457 263.549C293.457 263.22 293.729 262.948 294.067 262.948C294.405 262.948 294.668 263.22 294.668 263.549C294.668 263.877 294.405 264.14 294.067 264.14ZM299.09 258.076C298.78 258.076 298.527 257.822 298.527 257.512C298.527 257.212 298.78 256.958 299.09 256.958C299.39 256.958 299.644 257.212 299.644 257.512C299.644 257.822 299.39 258.076 299.09 258.076ZM299.494 264.656C299.494 265.858 298.912 266.384 297.851 266.384C297.513 266.384 297.259 266.346 297.043 266.252V265.539C297.212 265.614 297.438 265.652 297.748 265.652C298.311 265.652 298.696 265.436 298.696 264.656V259.305H299.494V264.656ZM301.18 266.346V259.305H301.978V259.869C302.401 259.39 302.955 259.118 303.659 259.118C305.142 259.118 306.09 260.291 306.09 261.671C306.09 263.051 305.142 264.225 303.659 264.225C302.955 264.225 302.401 263.952 301.978 263.474V266.346H301.18ZM303.565 259.869C302.908 259.869 302.335 260.188 301.978 260.751V262.591C302.344 263.164 302.917 263.474 303.565 263.474C304.569 263.474 305.255 262.676 305.255 261.671C305.255 260.667 304.569 259.869 303.565 259.869ZM306.797 264.891C306.797 264.412 307.031 264.027 307.501 263.699C307.285 263.53 307.172 263.276 307.172 263.023C307.172 262.647 307.369 262.338 307.735 262.103C307.322 261.793 307.078 261.314 307.078 260.789C307.078 259.878 307.792 259.108 308.918 259.108C309.266 259.108 309.575 259.183 309.829 259.305H311.584V260H310.561C310.692 260.235 310.758 260.507 310.758 260.789C310.758 261.69 310.054 262.46 308.918 262.46C308.683 262.46 308.458 262.422 308.261 262.366C308.064 262.507 307.951 262.676 307.951 262.854C307.951 263.051 308.054 263.192 308.346 263.192H309.697C310.946 263.192 311.528 263.802 311.528 264.647C311.528 265.642 310.533 266.384 309.115 266.384C307.717 266.384 306.797 265.839 306.797 264.891ZM308.928 261.831C309.613 261.831 310.007 261.361 310.007 260.789C310.007 260.207 309.613 259.737 308.928 259.737C308.223 259.737 307.839 260.207 307.839 260.789C307.839 261.371 308.223 261.831 308.928 261.831ZM307.576 264.797C307.576 265.37 308.167 265.717 309.106 265.717C310.101 265.717 310.73 265.323 310.73 264.703C310.73 264.253 310.477 263.896 309.632 263.896H308.101C307.773 264.14 307.576 264.422 307.576 264.797ZM312.812 265.539H312.07L312.868 263.051H313.779L312.812 265.539ZM317.563 266.346V259.305H318.361V259.869C318.783 259.39 319.337 259.118 320.041 259.118C321.524 259.118 322.473 260.291 322.473 261.671C322.473 263.051 321.524 264.225 320.041 264.225C319.337 264.225 318.783 263.952 318.361 263.474V266.346H317.563ZM319.947 259.869C319.29 259.869 318.717 260.188 318.361 260.751V262.591C318.727 263.164 319.299 263.474 319.947 263.474C320.952 263.474 321.637 262.676 321.637 261.671C321.637 260.667 320.952 259.869 319.947 259.869ZM323.76 264.037V259.305H324.558V259.841C324.943 259.418 325.431 259.118 326.135 259.118C327.196 259.118 327.985 259.831 327.985 261.174V264.037H327.187V261.202C327.187 260.357 326.708 259.869 325.976 259.869C325.29 259.869 324.859 260.263 324.558 260.761V264.037H323.76ZM329.046 264.891C329.046 264.412 329.281 264.027 329.75 263.699C329.534 263.53 329.422 263.276 329.422 263.023C329.422 262.647 329.619 262.338 329.985 262.103C329.572 261.793 329.328 261.314 329.328 260.789C329.328 259.878 330.041 259.108 331.168 259.108C331.515 259.108 331.825 259.183 332.079 259.305H333.834V260H332.811C332.942 260.235 333.008 260.507 333.008 260.789C333.008 261.69 332.304 262.46 331.168 262.46C330.933 262.46 330.708 262.422 330.511 262.366C330.314 262.507 330.201 262.676 330.201 262.854C330.201 263.051 330.304 263.192 330.595 263.192H331.947C333.196 263.192 333.778 263.802 333.778 264.647C333.778 265.642 332.783 266.384 331.365 266.384C329.966 266.384 329.046 265.839 329.046 264.891ZM331.177 261.831C331.863 261.831 332.257 261.361 332.257 260.789C332.257 260.207 331.863 259.737 331.177 259.737C330.473 259.737 330.088 260.207 330.088 260.789C330.088 261.371 330.473 261.831 331.177 261.831ZM329.825 264.797C329.825 265.37 330.417 265.717 331.356 265.717C332.351 265.717 332.98 265.323 332.98 264.703C332.98 264.253 332.726 263.896 331.881 263.896H330.351C330.023 264.14 329.825 264.422 329.825 264.797ZM335.062 265.539H334.321L335.119 263.051H336.029L335.062 265.539ZM339.812 266.346V259.305H340.61V259.869C341.033 259.39 341.587 259.118 342.291 259.118C343.774 259.118 344.722 260.291 344.722 261.671C344.722 263.051 343.774 264.225 342.291 264.225C341.587 264.225 341.033 263.952 340.61 263.474V266.346H339.812ZM342.197 259.869C341.54 259.869 340.967 260.188 340.61 260.751V262.591C340.977 263.164 341.549 263.474 342.197 263.474C343.201 263.474 343.887 262.676 343.887 261.671C343.887 260.667 343.201 259.869 342.197 259.869ZM345.652 261.671C345.652 260.291 346.601 259.118 348.084 259.118C348.788 259.118 349.342 259.39 349.764 259.869V256.996H350.562V264.037H349.764V263.474C349.342 263.952 348.788 264.225 348.084 264.225C346.601 264.225 345.652 263.051 345.652 261.671ZM346.497 261.671C346.497 262.676 347.173 263.474 348.178 263.474C348.835 263.474 349.417 263.154 349.764 262.601V260.742C349.398 260.178 348.825 259.869 348.178 259.869C347.173 259.869 346.497 260.667 346.497 261.671ZM351.625 259.305H352.516V258.723C352.516 257.719 353.164 256.996 354.197 256.996C354.629 256.996 354.976 257.118 355.239 257.268L354.882 257.935C354.704 257.803 354.488 257.719 354.216 257.719C353.681 257.719 353.324 258.085 353.324 258.705V259.305H354.967V260.028H353.324V264.037H352.516V260.028H351.625V259.305ZM355.592 264.14C355.254 264.14 354.982 263.877 354.982 263.549C354.982 263.22 355.254 262.948 355.592 262.948C355.93 262.948 356.193 263.22 356.193 263.549C356.193 263.877 355.93 264.14 355.592 264.14Z" fill="#666666"/>
<path fill-rule="evenodd" clip-rule="evenodd" d="M511.483 278.118H76.5166V277.336H511.483V278.118Z" fill="#DDDDDD"/>
<path d="M524 278.118H64V315.669H524V278.118Z" fill="white"/>
<path d="M92.1629 287.506H79.6459C77.9176 287.506 76.5166 288.907 76.5166 290.635V303.152C76.5166 304.881 77.9176 306.282 79.6459 306.282H92.1629C93.8911 306.282 95.2921 304.881 95.2921 303.152V290.635C95.2921 288.907 93.8911 287.506 92.1629 287.506Z" fill="#E8EDFF"/>
<path fill-rule="evenodd" clip-rule="evenodd" d="M89.135 298.649L88.3975 297.91L89.135 297.172C89.7986 296.515 90.0595 295.552 89.819 294.65C89.5784 293.747 88.8733 293.041 87.9704 292.801C87.0675 292.56 86.105 292.821 85.4472 293.485L84.7097 294.223L83.9718 293.485L84.7103 292.748C86.136 291.322 88.4477 291.322 89.8735 292.748C91.2993 294.174 91.2993 296.486 89.8735 297.911L89.135 298.649ZM87.6601 300.123L86.9221 300.861C85.4963 302.286 83.1846 302.286 81.7588 300.861C80.333 299.435 80.333 297.123 81.7588 295.698L82.4968 294.96L83.2343 295.699L82.4968 296.436C81.8332 297.094 81.5723 298.057 81.8128 298.959C82.0533 299.862 82.7586 300.568 83.6614 300.808C84.5643 301.049 85.5268 300.788 86.1846 300.124L86.9221 299.386L87.6601 300.124V300.123ZM87.2908 294.592L88.0288 295.329L84.341 299.017L83.603 298.279L87.2908 294.592V294.592Z" fill="#000091"/>
<path d="M104.299 301.588V293.921H105.547V300.438H108.57V301.588H104.299ZM110.616 294.841C110.2 294.841 109.85 294.491 109.85 294.075C109.85 293.658 110.2 293.308 110.616 293.308C111.033 293.308 111.383 293.658 111.383 294.075C111.383 294.491 111.033 294.841 110.616 294.841ZM110.047 301.588V296.068H111.175V301.588H110.047ZM118.004 300.69C117.489 301.38 116.646 301.807 115.616 301.807C113.71 301.807 112.582 300.438 112.582 298.828C112.582 297.174 113.634 295.849 115.386 295.849C116.908 295.849 117.894 296.889 117.894 298.291C117.894 298.543 117.861 298.795 117.818 298.959H113.743C113.82 300.164 114.554 300.788 115.616 300.788C116.284 300.788 116.843 300.493 117.182 300.033L118.004 300.69ZM115.364 296.791C114.543 296.791 113.973 297.262 113.798 298.116H116.766C116.744 297.426 116.251 296.791 115.364 296.791ZM119.374 301.588V296.068H120.502V296.605C120.918 296.166 121.466 295.849 122.254 295.849C123.47 295.849 124.401 296.67 124.401 298.269V301.588H123.262V298.313C123.262 297.437 122.78 296.911 121.991 296.911C121.236 296.911 120.786 297.382 120.502 297.864V301.588H119.374ZM129.366 299.616C128.906 299.616 128.545 299.255 128.545 298.806C128.545 298.368 128.906 297.995 129.366 297.995C129.815 297.995 130.176 298.368 130.176 298.806C130.176 299.255 129.815 299.616 129.366 299.616Z" fill="#3A3A3A"/>
<path d="M133.724 295.016H134.662L136.934 300.696L139.206 295.016H140.145L137.516 301.588H136.352L133.724 295.016ZM144.929 300.809C144.488 301.4 143.784 301.776 142.901 301.776C141.305 301.776 140.32 300.602 140.32 299.222C140.32 297.786 141.24 296.669 142.704 296.669C143.99 296.669 144.826 297.57 144.826 298.734C144.826 298.922 144.797 299.1 144.769 299.232H141.136C141.165 300.367 141.887 301.053 142.901 301.053C143.511 301.053 144.028 300.771 144.337 300.349L144.929 300.809ZM142.685 297.345C141.906 297.345 141.362 297.805 141.193 298.621H144.028C143.999 297.927 143.521 297.345 142.685 297.345ZM146.178 301.588V296.856H146.976V297.448C147.324 297.035 147.755 296.763 148.356 296.763C148.506 296.763 148.647 296.781 148.76 296.819V297.598C148.619 297.561 148.478 297.542 148.29 297.542C147.671 297.542 147.267 297.861 146.976 298.34V301.588H146.178ZM149.402 300.94L149.965 300.461C150.294 300.874 150.688 301.109 151.167 301.109C151.693 301.109 151.993 300.79 151.993 300.377C151.993 299.316 149.627 299.692 149.627 298.021C149.627 297.279 150.256 296.669 151.167 296.669C151.843 296.669 152.425 296.988 152.754 297.448L152.2 297.917C151.946 297.561 151.589 297.335 151.176 297.335C150.669 297.335 150.397 297.636 150.397 298.002C150.397 299.063 152.772 298.725 152.772 300.339C152.763 301.222 152.059 301.776 151.176 301.776C150.425 301.776 149.834 301.475 149.402 300.94ZM159.897 299.56V296.856H160.695V299.532C160.695 300.95 159.878 301.776 158.592 301.776C157.315 301.776 156.498 300.95 156.498 299.532V296.856H157.296V299.56C157.296 300.49 157.794 301.025 158.601 301.025C159.39 301.025 159.897 300.49 159.897 299.56ZM162.267 301.588V296.856H163.065V297.392C163.45 296.969 163.938 296.669 164.642 296.669C165.703 296.669 166.492 297.382 166.492 298.725V301.588H165.694V298.753C165.694 297.908 165.215 297.42 164.483 297.42C163.797 297.42 163.366 297.814 163.065 298.312V301.588H162.267ZM170.122 300.94L170.685 300.461C171.014 300.874 171.408 301.109 171.887 301.109C172.412 301.109 172.713 300.79 172.713 300.377C172.713 299.316 170.347 299.692 170.347 298.021C170.347 297.279 170.976 296.669 171.887 296.669C172.562 296.669 173.145 296.988 173.473 297.448L172.919 297.917C172.666 297.561 172.309 297.335 171.896 297.335C171.389 297.335 171.117 297.636 171.117 298.002C171.117 299.063 173.492 298.725 173.492 300.339C173.482 301.222 172.778 301.776 171.896 301.776C171.145 301.776 170.554 301.475 170.122 300.94ZM175.194 295.627C174.884 295.627 174.631 295.373 174.631 295.063C174.631 294.763 174.884 294.51 175.194 294.51C175.504 294.51 175.748 294.763 175.748 295.063C175.748 295.373 175.504 295.627 175.194 295.627ZM174.791 301.588V296.856H175.588V301.588H174.791ZM177.547 300.001V297.579H176.656V296.856H177.547V295.674H178.355V296.856H179.998V297.579H178.355V300.001C178.355 300.743 178.73 300.95 179.303 300.95C179.613 300.95 179.829 300.912 180.007 300.837V301.55C179.782 301.644 179.528 301.682 179.19 301.682C178.139 301.682 177.547 301.156 177.547 300.001ZM185.331 300.809C184.89 301.4 184.186 301.776 183.304 301.776C181.708 301.776 180.722 300.602 180.722 299.222C180.722 297.786 181.642 296.669 183.107 296.669C184.393 296.669 185.228 297.57 185.228 298.734C185.228 298.922 185.2 299.1 185.172 299.232H181.539C181.567 300.367 182.29 301.053 183.304 301.053C183.914 301.053 184.43 300.771 184.74 300.349L185.331 300.809ZM183.088 297.345C182.309 297.345 181.764 297.805 181.595 298.621H184.43C184.402 297.927 183.923 297.345 183.088 297.345ZM193.316 300.809C192.875 301.4 192.171 301.776 191.289 301.776C189.693 301.776 188.707 300.602 188.707 299.222C188.707 297.786 189.627 296.669 191.092 296.669C192.378 296.669 193.213 297.57 193.213 298.734C193.213 298.922 193.185 299.1 193.157 299.232H189.524C189.552 300.367 190.275 301.053 191.289 301.053C191.899 301.053 192.415 300.771 192.725 300.349L193.316 300.809ZM191.073 297.345C190.294 297.345 189.749 297.805 189.58 298.621H192.415C192.387 297.927 191.908 297.345 191.073 297.345ZM194.774 301.588H193.845L195.591 299.138L193.976 296.856H194.887L196.116 298.603L197.346 296.856H198.266L196.642 299.138L198.388 301.588H197.478L196.126 299.673L194.774 301.588ZM199.688 300.001V297.579H198.796V296.856H199.688V295.674H200.495V296.856H202.138V297.579H200.495V300.001C200.495 300.743 200.87 300.95 201.443 300.95C201.753 300.95 201.969 300.912 202.147 300.837V301.55C201.922 301.644 201.668 301.682 201.33 301.682C200.279 301.682 199.688 301.156 199.688 300.001ZM207.472 300.809C207.03 301.4 206.326 301.776 205.444 301.776C203.848 301.776 202.862 300.602 202.862 299.222C202.862 297.786 203.782 296.669 205.247 296.669C206.533 296.669 207.368 297.57 207.368 298.734C207.368 298.922 207.34 299.1 207.312 299.232H203.679C203.707 300.367 204.43 301.053 205.444 301.053C206.054 301.053 206.57 300.771 206.88 300.349L207.472 300.809ZM205.228 297.345C204.449 297.345 203.904 297.805 203.735 298.621H206.57C206.542 297.927 206.063 297.345 205.228 297.345ZM208.72 301.588V296.856H209.518V297.448C209.866 297.035 210.297 296.763 210.898 296.763C211.048 296.763 211.189 296.781 211.302 296.819V297.598C211.161 297.561 211.02 297.542 210.832 297.542C210.213 297.542 209.809 297.861 209.518 298.34V301.588H208.72ZM212.452 301.588V296.856H213.25V297.392C213.635 296.969 214.123 296.669 214.827 296.669C215.888 296.669 216.676 297.382 216.676 298.725V301.588H215.878V298.753C215.878 297.908 215.4 297.42 214.667 297.42C213.982 297.42 213.55 297.814 213.25 298.312V301.588H212.452ZM222.488 300.809C222.047 301.4 221.343 301.776 220.46 301.776C218.864 301.776 217.879 300.602 217.879 299.222C217.879 297.786 218.799 296.669 220.263 296.669C221.549 296.669 222.385 297.57 222.385 298.734C222.385 298.922 222.357 299.1 222.329 299.232H218.695C218.724 300.367 219.447 301.053 220.46 301.053C221.071 301.053 221.587 300.771 221.897 300.349L222.488 300.809ZM220.244 297.345C219.465 297.345 218.921 297.805 218.752 298.621H221.587C221.559 297.927 221.08 297.345 220.244 297.345ZM228.427 296.669C229.947 296.669 230.99 297.842 230.99 299.222C230.99 300.602 229.947 301.776 228.427 301.776C226.896 301.776 225.864 300.602 225.864 299.222C225.864 297.842 226.896 296.669 228.427 296.669ZM228.436 301.025C229.422 301.025 230.145 300.199 230.145 299.222C230.145 298.236 229.422 297.42 228.436 297.42C227.422 297.42 226.699 298.236 226.699 299.222C226.699 300.208 227.422 301.025 228.436 301.025ZM235.568 299.56V296.856H236.366V299.532C236.366 300.95 235.549 301.776 234.263 301.776C232.986 301.776 232.169 300.95 232.169 299.532V296.856H232.967V299.56C232.967 300.49 233.465 301.025 234.272 301.025C235.061 301.025 235.568 300.49 235.568 299.56ZM243.763 299.56V296.856H244.561V299.532C244.561 300.95 243.744 301.776 242.458 301.776C241.182 301.776 240.365 300.95 240.365 299.532V296.856H241.163V299.56C241.163 300.49 241.66 301.025 242.468 301.025C243.256 301.025 243.763 300.49 243.763 299.56ZM246.134 301.588V296.856H246.932V297.392C247.316 296.969 247.805 296.669 248.509 296.669C249.569 296.669 250.358 297.382 250.358 298.725V301.588H249.56V298.753C249.56 297.908 249.081 297.42 248.349 297.42C247.664 297.42 247.232 297.814 246.932 298.312V301.588H246.134ZM256.171 300.809C255.729 301.4 255.025 301.776 254.143 301.776C252.547 301.776 251.561 300.602 251.561 299.222C251.561 297.786 252.481 296.669 253.946 296.669C255.232 296.669 256.067 297.57 256.067 298.734C256.067 298.922 256.039 299.1 256.011 299.232H252.378C252.406 300.367 253.129 301.053 254.143 301.053C254.753 301.053 255.269 300.771 255.579 300.349L256.171 300.809ZM253.927 297.345C253.148 297.345 252.603 297.805 252.434 298.621H255.269C255.241 297.927 254.762 297.345 253.927 297.345ZM259.95 301.588V296.856H260.748V297.448C261.095 297.035 261.527 296.763 262.128 296.763C262.278 296.763 262.419 296.781 262.532 296.819V297.598C262.391 297.561 262.25 297.542 262.062 297.542C261.443 297.542 261.039 297.861 260.748 298.34V301.588H259.95ZM267.603 300.809C267.161 301.4 266.457 301.776 265.575 301.776C263.979 301.776 262.993 300.602 262.993 299.222C262.993 297.786 263.913 296.669 265.378 296.669C266.664 296.669 267.499 297.57 267.499 298.734C267.499 298.922 267.471 299.1 267.443 299.232H263.81C263.838 300.367 264.561 301.053 265.575 301.053C266.185 301.053 266.701 300.771 267.011 300.349L267.603 300.809ZM265.359 297.345C264.58 297.345 264.035 297.805 263.866 298.621H266.701C266.673 297.927 266.194 297.345 265.359 297.345ZM268.308 300.94L268.871 300.461C269.2 300.874 269.594 301.109 270.073 301.109C270.599 301.109 270.899 300.79 270.899 300.377C270.899 299.316 268.534 299.692 268.534 298.021C268.534 297.279 269.163 296.669 270.073 296.669C270.749 296.669 271.331 296.988 271.66 297.448L271.106 297.917C270.852 297.561 270.496 297.335 270.083 297.335C269.576 297.335 269.303 297.636 269.303 298.002C269.303 299.063 271.678 298.725 271.678 300.339C271.669 301.222 270.965 301.776 270.083 301.776C269.331 301.776 268.74 301.475 268.308 300.94ZM272.433 300.94L272.997 300.461C273.325 300.874 273.719 301.109 274.198 301.109C274.724 301.109 275.024 300.79 275.024 300.377C275.024 299.316 272.659 299.692 272.659 298.021C272.659 297.279 273.288 296.669 274.198 296.669C274.874 296.669 275.456 296.988 275.785 297.448L275.231 297.917C274.977 297.561 274.621 297.335 274.208 297.335C273.701 297.335 273.428 297.636 273.428 298.002C273.428 299.063 275.804 298.725 275.804 300.339C275.794 301.222 275.09 301.776 274.208 301.776C273.457 301.776 272.865 301.475 272.433 300.94ZM279.207 296.669C280.727 296.669 281.769 297.842 281.769 299.222C281.769 300.602 280.727 301.776 279.207 301.776C277.676 301.776 276.644 300.602 276.644 299.222C276.644 297.842 277.676 296.669 279.207 296.669ZM279.216 301.025C280.202 301.025 280.925 300.199 280.925 299.222C280.925 298.236 280.202 297.42 279.216 297.42C278.202 297.42 277.479 298.236 277.479 299.222C277.479 300.208 278.202 301.025 279.216 301.025ZM286.348 299.56V296.856H287.146V299.532C287.146 300.95 286.329 301.776 285.043 301.776C283.766 301.776 282.949 300.95 282.949 299.532V296.856H283.747V299.56C283.747 300.49 284.245 301.025 285.052 301.025C285.841 301.025 286.348 300.49 286.348 299.56ZM288.718 301.588V296.856H289.516V297.448C289.863 297.035 290.295 296.763 290.896 296.763C291.046 296.763 291.187 296.781 291.3 296.819V297.598C291.159 297.561 291.018 297.542 290.83 297.542C290.211 297.542 289.807 297.861 289.516 298.34V301.588H288.718ZM294.343 301.025C294.925 301.025 295.404 300.743 295.695 300.33L296.324 300.809C295.882 301.4 295.197 301.776 294.333 301.776C292.766 301.776 291.761 300.602 291.761 299.222C291.761 297.842 292.766 296.669 294.333 296.669C295.188 296.669 295.882 297.054 296.324 297.636L295.695 298.114C295.404 297.701 294.925 297.42 294.333 297.42C293.32 297.42 292.597 298.218 292.597 299.222C292.597 300.236 293.32 301.025 294.343 301.025ZM301.441 300.809C300.999 301.4 300.295 301.776 299.413 301.776C297.817 301.776 296.831 300.602 296.831 299.222C296.831 297.786 297.751 296.669 299.216 296.669C300.502 296.669 301.337 297.57 301.337 298.734C301.337 298.922 301.309 299.1 301.281 299.232H297.648C297.676 300.367 298.399 301.053 299.413 301.053C300.023 301.053 300.54 300.771 300.849 300.349L301.441 300.809ZM299.197 297.345C298.418 297.345 297.873 297.805 297.704 298.621H300.54C300.511 297.927 300.033 297.345 299.197 297.345ZM305.22 303.897V296.856H306.018V297.42C306.44 296.941 306.994 296.669 307.698 296.669C309.182 296.669 310.13 297.842 310.13 299.222C310.13 300.602 309.182 301.776 307.698 301.776C306.994 301.776 306.44 301.503 306.018 301.025V303.897H305.22ZM307.605 297.42C306.947 297.42 306.375 297.739 306.018 298.302V300.142C306.384 300.715 306.957 301.025 307.605 301.025C308.609 301.025 309.294 300.227 309.294 299.222C309.294 298.218 308.609 297.42 307.605 297.42ZM314.713 299.56V296.856H315.511V299.532C315.511 300.95 314.694 301.776 313.408 301.776C312.131 301.776 311.314 300.95 311.314 299.532V296.856H312.112V299.56C312.112 300.49 312.61 301.025 313.417 301.025C314.206 301.025 314.713 300.49 314.713 299.56ZM321.993 299.222C321.993 300.602 321.045 301.776 319.561 301.776C318.857 301.776 318.303 301.503 317.881 301.025V301.588H317.083V294.547H317.881V297.42C318.303 296.941 318.857 296.669 319.561 296.669C321.045 296.669 321.993 297.842 321.993 299.222ZM319.468 297.42C318.81 297.42 318.228 297.739 317.881 298.293V300.152C318.247 300.715 318.82 301.025 319.468 301.025C320.472 301.025 321.157 300.227 321.157 299.222C321.157 298.218 320.472 297.42 319.468 297.42ZM323.289 301.588V294.547H324.087V301.588H323.289ZM326.177 295.627C325.868 295.627 325.614 295.373 325.614 295.063C325.614 294.763 325.868 294.51 326.177 294.51C326.487 294.51 326.731 294.763 326.731 295.063C326.731 295.373 326.487 295.627 326.177 295.627ZM325.774 301.588V296.856H326.572V301.588H325.774ZM330.662 296.105H329.883L330.859 294.547H331.76L330.662 296.105ZM332.464 300.809C332.023 301.4 331.319 301.776 330.436 301.776C328.84 301.776 327.855 300.602 327.855 299.222C327.855 297.786 328.775 296.669 330.239 296.669C331.525 296.669 332.361 297.57 332.361 298.734C332.361 298.922 332.333 299.1 332.305 299.232H328.671C328.7 300.367 329.423 301.053 330.436 301.053C331.047 301.053 331.563 300.771 331.873 300.349L332.464 300.809ZM330.22 297.345C329.441 297.345 328.897 297.805 328.728 298.621H331.563C331.535 297.927 331.056 297.345 330.22 297.345ZM337.9 300.809C337.459 301.4 336.755 301.776 335.873 301.776C334.277 301.776 333.291 300.602 333.291 299.222C333.291 297.786 334.211 296.669 335.676 296.669C336.962 296.669 337.797 297.57 337.797 298.734C337.797 298.922 337.769 299.1 337.741 299.232H334.108C334.136 300.367 334.859 301.053 335.873 301.053C336.483 301.053 336.999 300.771 337.309 300.349L337.9 300.809ZM335.657 297.345C334.878 297.345 334.333 297.805 334.164 298.621H336.999C336.971 297.927 336.492 297.345 335.657 297.345ZM341.173 300.94L341.736 300.461C342.065 300.874 342.459 301.109 342.938 301.109C343.463 301.109 343.764 300.79 343.764 300.377C343.764 299.316 341.398 299.692 341.398 298.021C341.398 297.279 342.027 296.669 342.938 296.669C343.614 296.669 344.196 296.988 344.524 297.448L343.97 297.917C343.717 297.561 343.36 297.335 342.947 297.335C342.44 297.335 342.168 297.636 342.168 298.002C342.168 299.063 344.543 298.725 344.543 300.339C344.534 301.222 343.83 301.776 342.947 301.776C342.196 301.776 341.605 301.475 341.173 300.94ZM349.138 299.56V296.856H349.936V299.532C349.936 300.95 349.119 301.776 347.833 301.776C346.556 301.776 345.739 300.95 345.739 299.532V296.856H346.537V299.56C346.537 300.49 347.035 301.025 347.842 301.025C348.631 301.025 349.138 300.49 349.138 299.56ZM351.508 301.588V296.856H352.306V297.448C352.653 297.035 353.085 296.763 353.686 296.763C353.836 296.763 353.977 296.781 354.09 296.819V297.598C353.949 297.561 353.808 297.542 353.62 297.542C353.001 297.542 352.597 297.861 352.306 298.34V301.588H351.508ZM357.967 301.588V295.016H358.849V300.781H361.497V301.588H357.967ZM366.825 300.809C366.384 301.4 365.68 301.776 364.797 301.776C363.201 301.776 362.215 300.602 362.215 299.222C362.215 297.786 363.135 296.669 364.6 296.669C365.886 296.669 366.722 297.57 366.722 298.734C366.722 298.922 366.693 299.1 366.665 299.232H363.032C363.06 300.367 363.783 301.053 364.797 301.053C365.407 301.053 365.924 300.771 366.233 300.349L366.825 300.809ZM364.581 297.345C363.802 297.345 363.258 297.805 363.089 298.621H365.924C365.895 297.927 365.417 297.345 364.581 297.345ZM367.531 300.94L368.094 300.461C368.422 300.874 368.817 301.109 369.295 301.109C369.821 301.109 370.122 300.79 370.122 300.377C370.122 299.316 367.756 299.692 367.756 298.021C367.756 297.279 368.385 296.669 369.295 296.669C369.971 296.669 370.553 296.988 370.882 297.448L370.328 297.917C370.075 297.561 369.718 297.335 369.305 297.335C368.798 297.335 368.526 297.636 368.526 298.002C368.526 299.063 370.901 298.725 370.901 300.339C370.891 301.222 370.187 301.776 369.305 301.776C368.554 301.776 367.962 301.475 367.531 300.94ZM374.926 301.588V295.016H376.551C377.809 295.016 378.569 295.683 378.569 296.725C378.569 297.316 378.297 297.795 377.78 298.077C378.55 298.349 378.963 298.95 378.963 299.701C378.963 300.856 378.109 301.588 376.71 301.588H374.926ZM376.56 295.767H375.809V297.748H376.56C377.255 297.748 377.658 297.392 377.658 296.744C377.658 296.124 377.255 295.767 376.56 295.767ZM376.748 298.499H375.809V300.837H376.748C377.564 300.837 378.053 300.405 378.053 299.663C378.053 298.922 377.564 298.499 376.748 298.499ZM381.645 301.719C380.716 301.719 380.087 301.203 380.087 300.396C380.087 299.682 380.631 299.175 381.636 299.006L383.232 298.743V298.415C383.232 297.758 382.762 297.382 382.086 297.382C381.542 297.382 381.101 297.636 380.81 298.039L380.209 297.579C380.622 297.016 381.288 296.669 382.114 296.669C383.316 296.669 384.029 297.373 384.029 298.415V301.588H383.232V300.987C382.875 301.447 382.255 301.719 381.645 301.719ZM380.894 300.367C380.894 300.771 381.223 301.062 381.776 301.062C382.405 301.062 382.922 300.762 383.232 300.255V299.325L381.833 299.56C381.185 299.673 380.894 299.964 380.894 300.367ZM385.123 300.94L385.686 300.461C386.015 300.874 386.409 301.109 386.888 301.109C387.414 301.109 387.714 300.79 387.714 300.377C387.714 299.316 385.348 299.692 385.348 298.021C385.348 297.279 385.977 296.669 386.888 296.669C387.564 296.669 388.146 296.988 388.475 297.448L387.921 297.917C387.667 297.561 387.311 297.335 386.897 297.335C386.391 297.335 386.118 297.636 386.118 298.002C386.118 299.063 388.493 298.725 388.493 300.339C388.484 301.222 387.78 301.776 386.897 301.776C386.146 301.776 385.555 301.475 385.123 300.94ZM393.943 300.809C393.502 301.4 392.798 301.776 391.915 301.776C390.319 301.776 389.334 300.602 389.334 299.222C389.334 297.786 390.254 296.669 391.718 296.669C393.004 296.669 393.84 297.57 393.84 298.734C393.84 298.922 393.812 299.1 393.783 299.232H390.15C390.178 300.367 390.901 301.053 391.915 301.053C392.525 301.053 393.042 300.771 393.352 300.349L393.943 300.809ZM391.699 297.345C390.92 297.345 390.376 297.805 390.207 298.621H393.042C393.014 297.927 392.535 297.345 391.699 297.345ZM394.649 300.94L395.212 300.461C395.54 300.874 395.935 301.109 396.414 301.109C396.939 301.109 397.24 300.79 397.24 300.377C397.24 299.316 394.874 299.692 394.874 298.021C394.874 297.279 395.503 296.669 396.414 296.669C397.089 296.669 397.671 296.988 398 297.448L397.446 297.917C397.193 297.561 396.836 297.335 396.423 297.335C395.916 297.335 395.644 297.636 395.644 298.002C395.644 299.063 398.019 298.725 398.019 300.339C398.009 301.222 397.305 301.776 396.423 301.776C395.672 301.776 395.08 301.475 394.649 300.94ZM399.639 301.691C399.301 301.691 399.029 301.428 399.029 301.1C399.029 300.771 399.301 300.499 399.639 300.499C399.977 300.499 400.24 300.771 400.24 301.1C400.24 301.428 399.977 301.691 399.639 301.691Z" fill="#666666"/>
</g>
<path d="M523.609 128.305H64.3916V315.278H523.609V128.305Z" stroke="#DDDDDD"/>
</g>
<defs>
<clipPath id="clip0_8196_20425">
<rect width="460" height="251.122" fill="white" transform="translate(64 64.5469)"/>
</clipPath>
</defs>
</svg>
