<svg width="588" height="112" viewBox="0 0 588 112" fill="none" xmlns="http://www.w3.org/2000/svg">
<rect width="588" height="112" fill="#E8EDFF"/>
<g clip-path="url(#clip0_8196_20534)">
<mask id="path-1-inside-1_8196_20534" fill="white">
<path d="M20 24H568V88H20V24Z"/>
</mask>
<path d="M20 24H568V88H20V24Z" fill="white"/>
<rect x="20" y="24" width="548" height="64" fill="white"/>
<path fill-rule="evenodd" clip-rule="evenodd" d="M64.0203 59.078L66.8757 61.9327L65.9323 62.876L63.0777 60.0207C62.0155 60.8722 60.6943 61.3353 59.333 61.3334C56.021 61.3334 53.333 58.6454 53.333 55.3334C53.333 52.0214 56.021 49.3334 59.333 49.3334C62.645 49.3334 65.333 52.0214 65.333 55.3334C65.3349 56.6947 64.8718 58.0159 64.0203 59.078ZM62.683 58.5834C63.5291 57.7133 64.0016 56.547 63.9997 55.3334C63.9997 52.7547 61.911 50.6667 59.333 50.6667C56.7543 50.6667 54.6663 52.7547 54.6663 55.3334C54.6663 57.9114 56.7543 60 59.333 60C60.5466 60.002 61.7129 59.5294 62.583 58.6834L62.683 58.5834Z" fill="#000091"/>
<path d="M77.9231 62V52.2H80.6951C82.7531 52.2 84.0131 53.292 84.0131 55.028C84.0131 56.218 83.4251 57.1 82.4031 57.534L85.5111 62H83.6071L80.8771 57.856C80.8071 57.856 80.7511 57.856 80.6951 57.856H79.5191V62H77.9231ZM80.7791 53.558H79.5191V56.498H80.7791C81.7731 56.498 82.3471 55.938 82.3471 55C82.3471 54.118 81.7731 53.558 80.7791 53.558ZM93.0489 60.852C92.3909 61.734 91.3129 62.28 89.9969 62.28C87.5609 62.28 86.1189 60.53 86.1189 58.472C86.1189 56.358 87.4629 54.664 89.7029 54.664C91.6489 54.664 92.9089 55.994 92.9089 57.786C92.9089 58.108 92.8669 58.43 92.8109 58.64H87.6029C87.7009 60.18 88.6389 60.978 89.9969 60.978C90.8509 60.978 91.5649 60.6 91.9989 60.012L93.0489 60.852ZM89.6749 55.868C88.6249 55.868 87.8969 56.47 87.6729 57.562H91.4669C91.4389 56.68 90.8089 55.868 89.6749 55.868ZM98.063 60.922C98.861 60.922 99.505 60.53 99.897 59.984L101.031 60.852C100.387 61.72 99.351 62.28 98.049 62.28C95.683 62.28 94.199 60.53 94.199 58.472C94.199 56.414 95.683 54.664 98.049 54.664C99.337 54.664 100.387 55.224 101.031 56.092L99.897 56.96C99.505 56.414 98.861 56.022 98.049 56.022C96.691 56.022 95.711 57.086 95.711 58.472C95.711 59.872 96.691 60.922 98.063 60.922ZM102.538 62V51.5H103.98V55.63C104.512 55.07 105.212 54.664 106.22 54.664C107.788 54.664 108.964 55.714 108.964 57.758V62H107.508V57.814C107.508 56.694 106.892 56.022 105.884 56.022C104.918 56.022 104.358 56.624 103.98 57.24V62H102.538ZM117.576 60.852C116.918 61.734 115.84 62.28 114.524 62.28C112.088 62.28 110.646 60.53 110.646 58.472C110.646 56.358 111.99 54.664 114.23 54.664C116.176 54.664 117.436 55.994 117.436 57.786C117.436 58.108 117.394 58.43 117.338 58.64H112.13C112.228 60.18 113.166 60.978 114.524 60.978C115.378 60.978 116.092 60.6 116.526 60.012L117.576 60.852ZM114.202 55.868C113.152 55.868 112.424 56.47 112.2 57.562H115.994C115.966 56.68 115.336 55.868 114.202 55.868ZM119.327 62V54.944H120.769V55.742C121.259 55.196 121.875 54.804 122.743 54.804C122.967 54.804 123.177 54.846 123.359 54.902V56.316C123.135 56.26 122.911 56.218 122.617 56.218C121.721 56.218 121.133 56.694 120.769 57.296V62H119.327ZM127.881 60.922C128.679 60.922 129.323 60.53 129.715 59.984L130.849 60.852C130.205 61.72 129.169 62.28 127.867 62.28C125.501 62.28 124.017 60.53 124.017 58.472C124.017 56.414 125.501 54.664 127.867 54.664C129.155 54.664 130.205 55.224 130.849 56.092L129.715 56.96C129.323 56.414 128.679 56.022 127.867 56.022C126.509 56.022 125.529 57.086 125.529 58.472C125.529 59.872 126.509 60.922 127.881 60.922ZM132.357 62V51.5H133.799V55.63C134.331 55.07 135.031 54.664 136.039 54.664C137.607 54.664 138.783 55.714 138.783 57.758V62H137.327V57.814C137.327 56.694 136.711 56.022 135.703 56.022C134.737 56.022 134.177 56.624 133.799 57.24V62H132.357ZM147.395 60.852C146.737 61.734 145.659 62.28 144.343 62.28C141.907 62.28 140.465 60.53 140.465 58.472C140.465 56.358 141.809 54.664 144.049 54.664C145.995 54.664 147.255 55.994 147.255 57.786C147.255 58.108 147.213 58.43 147.157 58.64H141.949C142.047 60.18 142.985 60.978 144.343 60.978C145.197 60.978 145.911 60.6 146.345 60.012L147.395 60.852ZM144.021 55.868C142.971 55.868 142.243 56.47 142.019 57.562H145.813C145.785 56.68 145.155 55.868 144.021 55.868ZM149.146 62V54.944H150.588V55.742C151.078 55.196 151.694 54.804 152.562 54.804C152.786 54.804 152.996 54.846 153.178 54.902V56.316C152.954 56.26 152.73 56.218 152.436 56.218C151.54 56.218 150.952 56.694 150.588 57.296V62H149.146Z" fill="#000091"/>
<path fill-rule="evenodd" clip-rule="evenodd" d="M193.171 50L191.838 51.3334H185.333V60.6667H194.667V54.162L196 52.8287V61.3334C196 61.7015 195.702 62 195.333 62H184.667C184.298 62 184 61.7015 184 61.3334V50.6667C184 50.2985 184.298 50 184.667 50H193.171ZM195.657 49.4L196.6 50.344L190.472 56.472L189.531 56.474L189.529 55.5294L195.657 49.4Z" fill="#000091"/>
<path d="M212.189 60.768C213.421 60.768 214.415 60.166 215.031 59.284L216.319 60.278C215.409 61.482 213.967 62.28 212.189 62.28C209.109 62.28 207.023 59.9 207.023 57.1C207.023 54.3 209.109 51.92 212.189 51.92C213.967 51.92 215.409 52.718 216.319 53.922L215.031 54.916C214.415 54.034 213.421 53.432 212.189 53.432C210.145 53.432 208.675 55.056 208.675 57.1C208.675 59.158 210.145 60.768 212.189 60.768ZM218.027 62V54.944H219.469V55.742C219.959 55.196 220.575 54.804 221.443 54.804C221.667 54.804 221.877 54.846 222.059 54.902V56.316C221.835 56.26 221.611 56.218 221.317 56.218C220.421 56.218 219.833 56.694 219.469 57.296V62H218.027ZM227.085 53.824H225.685L227.141 51.5H228.737L227.085 53.824ZM229.647 60.852C228.989 61.734 227.911 62.28 226.595 62.28C224.159 62.28 222.717 60.53 222.717 58.472C222.717 56.358 224.061 54.664 226.301 54.664C228.247 54.664 229.507 55.994 229.507 57.786C229.507 58.108 229.465 58.43 229.409 58.64H224.201C224.299 60.18 225.237 60.978 226.595 60.978C227.449 60.978 228.163 60.6 228.597 60.012L229.647 60.852ZM226.273 55.868C225.223 55.868 224.495 56.47 224.271 57.562H228.065C228.037 56.68 227.407 55.868 226.273 55.868ZM237.727 60.852C237.069 61.734 235.991 62.28 234.675 62.28C232.239 62.28 230.797 60.53 230.797 58.472C230.797 56.358 232.141 54.664 234.381 54.664C236.327 54.664 237.587 55.994 237.587 57.786C237.587 58.108 237.545 58.43 237.489 58.64H232.281C232.379 60.18 233.317 60.978 234.675 60.978C235.529 60.978 236.243 60.6 236.677 60.012L237.727 60.852ZM234.353 55.868C233.303 55.868 232.575 56.47 232.351 57.562H236.145C236.117 56.68 235.487 55.868 234.353 55.868ZM239.478 62V54.944H240.92V55.742C241.41 55.196 242.026 54.804 242.894 54.804C243.118 54.804 243.328 54.846 243.51 54.902V56.316C243.286 56.26 243.062 56.218 242.768 56.218C241.872 56.218 241.284 56.694 240.92 57.296V62H239.478ZM253.658 58.976V54.944H255.114V58.906C255.114 61.02 253.896 62.28 251.922 62.28C249.934 62.28 248.716 61.02 248.716 58.906V54.944H250.172V58.976C250.172 60.194 250.816 60.922 251.922 60.922C253 60.922 253.658 60.194 253.658 58.976ZM257.306 62V54.944H258.748V55.63C259.28 55.07 259.98 54.664 260.988 54.664C262.542 54.664 263.732 55.714 263.732 57.758V62H262.276V57.814C262.276 56.694 261.66 56.022 260.652 56.022C259.686 56.022 259.112 56.624 258.748 57.24V62H257.306ZM272.344 60.852C271.686 61.734 270.608 62.28 269.292 62.28C266.856 62.28 265.414 60.53 265.414 58.472C265.414 56.358 266.758 54.664 268.998 54.664C270.944 54.664 272.204 55.994 272.204 57.786C272.204 58.108 272.162 58.43 272.106 58.64H266.898C266.996 60.18 267.934 60.978 269.292 60.978C270.146 60.978 270.86 60.6 271.294 60.012L272.344 60.852ZM268.97 55.868C267.92 55.868 267.192 56.47 266.968 57.562H270.762C270.734 56.68 270.104 55.868 268.97 55.868ZM277.868 62V54.944H279.31V55.742C279.8 55.196 280.416 54.804 281.284 54.804C281.508 54.804 281.718 54.846 281.9 54.902V56.316C281.676 56.26 281.452 56.218 281.158 56.218C280.262 56.218 279.674 56.694 279.31 57.296V62H277.868ZM289.488 60.852C288.83 61.734 287.752 62.28 286.436 62.28C284 62.28 282.558 60.53 282.558 58.472C282.558 56.358 283.902 54.664 286.142 54.664C288.088 54.664 289.348 55.994 289.348 57.786C289.348 58.108 289.306 58.43 289.25 58.64H284.042C284.14 60.18 285.078 60.978 286.436 60.978C287.29 60.978 288.004 60.6 288.438 60.012L289.488 60.852ZM286.114 55.868C285.064 55.868 284.336 56.47 284.112 57.562H287.906C287.878 56.68 287.248 55.868 286.114 55.868ZM290.457 61.006L291.451 60.138C291.913 60.726 292.473 61.104 293.173 61.104C293.859 61.104 294.237 60.684 294.237 60.152C294.237 58.724 290.779 59.242 290.779 56.75C290.779 55.588 291.759 54.664 293.173 54.664C294.209 54.664 295.119 55.168 295.623 55.84L294.643 56.694C294.265 56.19 293.775 55.84 293.187 55.84C292.515 55.84 292.179 56.232 292.179 56.708C292.179 58.122 295.637 57.646 295.637 60.068C295.623 61.454 294.503 62.28 293.187 62.28C291.997 62.28 291.115 61.804 290.457 61.006ZM296.664 61.006L297.658 60.138C298.12 60.726 298.68 61.104 299.38 61.104C300.066 61.104 300.444 60.684 300.444 60.152C300.444 58.724 296.986 59.242 296.986 56.75C296.986 55.588 297.966 54.664 299.38 54.664C300.416 54.664 301.326 55.168 301.83 55.84L300.85 56.694C300.472 56.19 299.982 55.84 299.394 55.84C298.722 55.84 298.386 56.232 298.386 56.708C298.386 58.122 301.844 57.646 301.844 60.068C301.83 61.454 300.71 62.28 299.394 62.28C298.204 62.28 297.322 61.804 296.664 61.006ZM306.875 54.664C309.171 54.664 310.711 56.386 310.711 58.472C310.711 60.558 309.171 62.28 306.875 62.28C304.593 62.28 303.039 60.558 303.039 58.472C303.039 56.386 304.593 54.664 306.875 54.664ZM306.889 60.922C308.219 60.922 309.199 59.816 309.199 58.472C309.199 57.1 308.219 56.022 306.889 56.022C305.531 56.022 304.551 57.114 304.551 58.472C304.551 59.83 305.531 60.922 306.889 60.922ZM317.301 58.976V54.944H318.757V58.906C318.757 61.02 317.539 62.28 315.565 62.28C313.577 62.28 312.359 61.02 312.359 58.906V54.944H313.815V58.976C313.815 60.194 314.459 60.922 315.565 60.922C316.643 60.922 317.301 60.194 317.301 58.976ZM320.948 62V54.944H322.39V55.742C322.88 55.196 323.496 54.804 324.364 54.804C324.588 54.804 324.798 54.846 324.98 54.902V56.316C324.756 56.26 324.532 56.218 324.238 56.218C323.342 56.218 322.754 56.694 322.39 57.296V62H320.948ZM329.502 60.922C330.3 60.922 330.944 60.53 331.336 59.984L332.47 60.852C331.826 61.72 330.79 62.28 329.488 62.28C327.122 62.28 325.638 60.53 325.638 58.472C325.638 56.414 327.122 54.664 329.488 54.664C330.776 54.664 331.826 55.224 332.47 56.092L331.336 56.96C330.944 56.414 330.3 56.022 329.488 56.022C328.13 56.022 327.15 57.086 327.15 58.472C327.15 59.872 328.13 60.922 329.502 60.922ZM340.074 60.852C339.416 61.734 338.338 62.28 337.022 62.28C334.586 62.28 333.144 60.53 333.144 58.472C333.144 56.358 334.488 54.664 336.728 54.664C338.674 54.664 339.934 55.994 339.934 57.786C339.934 58.108 339.892 58.43 339.836 58.64H334.628C334.726 60.18 335.664 60.978 337.022 60.978C337.876 60.978 338.59 60.6 339.024 60.012L340.074 60.852ZM336.7 55.868C335.65 55.868 334.922 56.47 334.698 57.562H338.492C338.464 56.68 337.834 55.868 336.7 55.868Z" fill="#000091"/>
<path fill-rule="evenodd" clip-rule="evenodd" d="M377 62.6667C373.318 62.6667 370.333 59.682 370.333 56C370.333 52.318 373.318 49.3334 377 49.3334C380.682 49.3334 383.666 52.318 383.666 56C383.666 59.682 380.682 62.6667 377 62.6667ZM377 61.3334C379.945 61.3334 382.333 58.9456 382.333 56C382.333 53.0545 379.945 50.6667 377 50.6667C374.054 50.6667 371.666 53.0545 371.666 56C371.666 58.9456 374.054 61.3334 377 61.3334ZM376.333 58H377.666V59.3334H376.333V58ZM377.666 56.9034V57.3334H376.333V56.3334C376.333 55.9652 376.631 55.6667 377 55.6667C377.526 55.6667 377.963 55.258 377.997 54.7324C378.032 54.2067 377.653 53.7444 377.131 53.6753C376.609 53.6063 376.122 53.9542 376.019 54.4707L374.711 54.2087C374.935 53.0875 375.939 52.2939 377.082 52.3341C378.224 52.3742 379.17 53.2362 379.315 54.3703C379.46 55.5045 378.762 56.5768 377.666 56.9034Z" fill="#000091"/>
<path fill-rule="evenodd" clip-rule="evenodd" d="M401 68L401 44L402 44L402 68H401Z" fill="#DDDDDD"/>
<path d="M423.709 62V52.2H425.781L430.821 59.942V52.2H432.431V62H430.345L425.305 54.258V62H423.709ZM438.298 54.664C440.594 54.664 442.134 56.386 442.134 58.472C442.134 60.558 440.594 62.28 438.298 62.28C436.016 62.28 434.462 60.558 434.462 58.472C434.462 56.386 436.016 54.664 438.298 54.664ZM438.312 60.922C439.642 60.922 440.622 59.816 440.622 58.472C440.622 57.1 439.642 56.022 438.312 56.022C436.954 56.022 435.974 57.114 435.974 58.472C435.974 59.83 436.954 60.922 438.312 60.922ZM443.936 62V54.944H445.378V55.602C445.882 55.056 446.54 54.664 447.478 54.664C448.444 54.664 449.256 55.098 449.704 55.938C450.25 55.238 450.95 54.664 452.168 54.664C453.638 54.664 454.772 55.672 454.772 57.618V62H453.316V57.674C453.316 56.638 452.742 56.022 451.832 56.022C450.992 56.022 450.446 56.554 450.068 57.226C450.082 57.352 450.082 57.478 450.082 57.618V62H448.626V57.674C448.626 56.638 448.066 56.022 447.142 56.022C446.246 56.022 445.714 56.638 445.378 57.24V62H443.936ZM461.116 62V52.2H464.126C466.184 52.2 467.444 53.292 467.444 55.028C467.444 56.764 466.184 57.856 464.126 57.856H462.712V62H461.116ZM464.196 53.558H462.712V56.498H464.196C465.19 56.498 465.778 55.938 465.778 55C465.778 54.118 465.19 53.558 464.196 53.558ZM468.955 62V54.944H470.397V55.742C470.887 55.196 471.503 54.804 472.371 54.804C472.595 54.804 472.805 54.846 472.987 54.902V56.316C472.763 56.26 472.539 56.218 472.245 56.218C471.349 56.218 470.761 56.694 470.397 57.296V62H468.955ZM480.575 60.852C479.917 61.734 478.839 62.28 477.523 62.28C475.087 62.28 473.645 60.53 473.645 58.472C473.645 56.358 474.989 54.664 477.229 54.664C479.175 54.664 480.435 55.994 480.435 57.786C480.435 58.108 480.393 58.43 480.337 58.64H475.129C475.227 60.18 476.165 60.978 477.523 60.978C478.377 60.978 479.091 60.6 479.525 60.012L480.575 60.852ZM477.201 55.868C476.151 55.868 475.423 56.47 475.199 57.562H478.993C478.965 56.68 478.335 55.868 477.201 55.868ZM482.326 62V54.944H483.768V55.63C484.3 55.07 485 54.664 486.008 54.664C487.562 54.664 488.752 55.714 488.752 57.758V62H487.296V57.814C487.296 56.694 486.68 56.022 485.672 56.022C484.706 56.022 484.132 56.624 483.768 57.24V62H482.326ZM494.27 54.664C496.566 54.664 498.106 56.386 498.106 58.472C498.106 60.558 496.566 62.28 494.27 62.28C491.988 62.28 490.434 60.558 490.434 58.472C490.434 56.386 491.988 54.664 494.27 54.664ZM494.284 60.922C495.614 60.922 496.594 59.816 496.594 58.472C496.594 57.1 495.614 56.022 494.284 56.022C492.926 56.022 491.946 57.114 491.946 58.472C491.946 59.83 492.926 60.922 494.284 60.922ZM499.908 62V54.944H501.35V55.602C501.854 55.056 502.512 54.664 503.45 54.664C504.416 54.664 505.228 55.098 505.676 55.938C506.222 55.238 506.922 54.664 508.14 54.664C509.61 54.664 510.744 55.672 510.744 57.618V62H509.288V57.674C509.288 56.638 508.714 56.022 507.804 56.022C506.964 56.022 506.418 56.554 506.04 57.226C506.054 57.352 506.054 57.478 506.054 57.618V62H504.598V57.674C504.598 56.638 504.038 56.022 503.114 56.022C502.218 56.022 501.686 56.638 501.35 57.24V62H499.908Z" fill="#000091"/>
<path fill-rule="evenodd" clip-rule="evenodd" d="M528 56.7813L531.3 53.4813L532.243 54.424L528 58.6667L523.758 54.424L524.7 53.4813L528 56.7813Z" fill="#000091"/>
</g>
<path d="M568 87H20V89H568V87Z" fill="#DDDDDD" mask="url(#path-1-inside-1_8196_20534)"/>
<defs>
<clipPath id="clip0_8196_20534">
<path d="M20 24H568V88H20V24Z" fill="white"/>
</clipPath>
</defs>
</svg>
