<svg width="588" height="320" viewBox="0 0 588 320" fill="none" xmlns="http://www.w3.org/2000/svg">
<rect width="588" height="320" rx="8" fill="#F5F5FE"/>
<rect x="250" y="71" width="88" height="88" rx="16" fill="#E3E3FD"/>
<path d="M293.17 141.536L267.584 121.634C267.259 121.382 267.262 120.89 267.59 120.641L271.436 117.727C271.662 117.556 271.974 117.558 272.198 117.731L293.171 133.995C293.396 134.17 293.712 134.17 293.939 133.995L314.911 117.731C315.135 117.557 315.447 117.555 315.673 117.727L319.52 120.641C319.848 120.89 319.851 121.382 319.526 121.634L293.939 141.535C293.712 141.711 293.396 141.711 293.17 141.535V141.536ZM293.17 126.602L267.575 106.694C267.253 106.443 267.253 105.957 267.575 105.706L293.17 85.7983C293.396 85.6228 293.712 85.6228 293.939 85.7983L319.534 105.706C319.856 105.957 319.856 106.443 319.534 106.694L293.939 126.602C293.712 126.777 293.396 126.777 293.17 126.602ZM293.938 119.063L309.919 106.695C310.243 106.444 310.243 105.956 309.919 105.705L293.938 93.3371C293.712 93.1625 293.397 93.1625 293.171 93.3371L277.189 105.705C276.865 105.956 276.865 106.444 277.189 106.695L293.171 119.063C293.396 119.238 293.711 119.238 293.938 119.063Z" fill="#000091"/>
<path d="M108.831 205V182.6H112.479V201.64H121.311V205H108.831ZM139.561 202.376C138.057 204.392 135.593 205.64 132.585 205.64C127.016 205.64 123.721 201.64 123.721 196.936C123.721 192.104 126.793 188.232 131.913 188.232C136.361 188.232 139.241 191.272 139.241 195.368C139.241 196.104 139.145 196.84 139.017 197.32H127.113C127.337 200.84 129.481 202.664 132.585 202.664C134.537 202.664 136.169 201.8 137.161 200.456L139.561 202.376ZM131.849 190.984C129.449 190.984 127.785 192.36 127.273 194.856H135.945C135.881 192.84 134.441 190.984 131.849 190.984ZM141.776 202.728L144.048 200.744C145.104 202.088 146.384 202.952 147.984 202.952C149.552 202.952 150.416 201.992 150.416 200.776C150.416 197.512 142.512 198.696 142.512 193C142.512 190.344 144.752 188.232 147.984 188.232C150.352 188.232 152.432 189.384 153.584 190.92L151.344 192.872C150.48 191.72 149.36 190.92 148.016 190.92C146.48 190.92 145.712 191.816 145.712 192.904C145.712 196.136 153.616 195.048 153.616 200.584C153.584 203.752 151.024 205.64 148.016 205.64C145.296 205.64 143.28 204.552 141.776 202.728ZM167.144 205V182.6H173.128C177.576 182.6 180.296 184.872 180.296 188.552C180.296 190.472 179.4 192.072 177.736 193.064C180.232 194.056 181.608 196.04 181.608 198.504C181.608 202.504 178.568 205 173.64 205H167.144ZM173.192 185.704H170.792V191.72H173.192C175.272 191.72 176.488 190.6 176.488 188.648C176.488 186.792 175.272 185.704 173.192 185.704ZM173.832 194.792H170.792V201.896H173.832C176.328 201.896 177.8 200.584 177.8 198.344C177.8 196.072 176.328 194.792 173.832 194.792ZM190.542 205.48C187.342 205.48 185.166 203.656 185.166 200.808C185.166 198.376 187.054 196.616 190.478 196.04L195.694 195.176V194.344C195.694 192.36 194.222 191.144 192.142 191.144C190.382 191.144 189.006 191.944 188.078 193.256L185.614 191.368C187.054 189.448 189.358 188.232 192.238 188.232C196.59 188.232 198.99 190.792 198.99 194.344V205H195.694V203.176C194.542 204.584 192.526 205.48 190.542 205.48ZM188.494 200.68C188.494 201.928 189.486 202.792 191.15 202.792C193.166 202.792 194.734 201.832 195.694 200.296V197.512L191.342 198.248C189.326 198.6 188.494 199.464 188.494 200.68ZM202.557 202.728L204.829 200.744C205.885 202.088 207.165 202.952 208.765 202.952C210.333 202.952 211.197 201.992 211.197 200.776C211.197 197.512 203.293 198.696 203.293 193C203.293 190.344 205.533 188.232 208.765 188.232C211.133 188.232 213.213 189.384 214.365 190.92L212.125 192.872C211.261 191.72 210.141 190.92 208.797 190.92C207.261 190.92 206.493 191.816 206.493 192.904C206.493 196.136 214.397 195.048 214.397 200.584C214.365 203.752 211.805 205.64 208.797 205.64C206.077 205.64 204.061 204.552 202.557 202.728ZM232.967 202.376C231.463 204.392 228.999 205.64 225.991 205.64C220.423 205.64 217.127 201.64 217.127 196.936C217.127 192.104 220.199 188.232 225.319 188.232C229.767 188.232 232.647 191.272 232.647 195.368C232.647 196.104 232.551 196.84 232.423 197.32H220.519C220.743 200.84 222.887 202.664 225.991 202.664C227.943 202.664 229.575 201.8 230.567 200.456L232.967 202.376ZM225.255 190.984C222.855 190.984 221.191 192.36 220.679 194.856H229.351C229.287 192.84 227.847 190.984 225.255 190.984ZM235.182 202.728L237.454 200.744C238.51 202.088 239.79 202.952 241.39 202.952C242.958 202.952 243.822 201.992 243.822 200.776C243.822 197.512 235.918 198.696 235.918 193C235.918 190.344 238.158 188.232 241.39 188.232C243.758 188.232 245.838 189.384 246.99 190.92L244.75 192.872C243.886 191.72 242.766 190.92 241.422 190.92C239.886 190.92 239.118 191.816 239.118 192.904C239.118 196.136 247.022 195.048 247.022 200.584C246.99 203.752 244.43 205.64 241.422 205.64C238.702 205.64 236.686 204.552 235.182 202.728ZM258.502 196.936C258.502 192.232 261.67 188.232 266.758 188.232C269.062 188.232 270.79 189.064 272.134 190.504V181H275.494V205H272.134V203.368C270.79 204.808 269.062 205.64 266.758 205.64C261.67 205.64 258.502 201.64 258.502 196.936ZM261.99 196.936C261.99 200.104 264.07 202.536 267.174 202.536C269.254 202.536 271.046 201.544 272.134 199.848V194.024C270.95 192.264 269.19 191.336 267.174 191.336C264.07 191.336 261.99 193.768 261.99 196.936ZM291.757 198.088V188.872H295.085V197.928C295.085 202.76 292.301 205.64 287.789 205.64C283.245 205.64 280.461 202.76 280.461 197.928V188.872H283.789V198.088C283.789 200.872 285.261 202.536 287.789 202.536C290.253 202.536 291.757 200.872 291.757 198.088ZM308.719 205V188.872H312.015V190.44C313.231 189.16 314.831 188.232 317.135 188.232C320.687 188.232 323.407 190.632 323.407 195.304V205H320.079V195.432C320.079 192.872 318.671 191.336 316.367 191.336C314.159 191.336 312.847 192.712 312.015 194.12V205H308.719ZM339.476 198.088V188.872H342.804V197.928C342.804 202.76 340.02 205.64 335.508 205.64C330.964 205.64 328.18 202.76 328.18 197.928V188.872H331.508V198.088C331.508 200.872 332.98 202.536 335.508 202.536C337.972 202.536 339.476 200.872 339.476 198.088ZM347.813 205V188.872H351.109V190.376C352.261 189.128 353.765 188.232 355.909 188.232C358.117 188.232 359.973 189.224 360.997 191.144C362.245 189.544 363.845 188.232 366.629 188.232C369.989 188.232 372.581 190.536 372.581 194.984V205H369.253V195.112C369.253 192.744 367.941 191.336 365.861 191.336C363.941 191.336 362.693 192.552 361.829 194.088C361.861 194.376 361.861 194.664 361.861 194.984V205H358.533V195.112C358.533 192.744 357.253 191.336 355.141 191.336C353.093 191.336 351.877 192.744 351.109 194.12V205H347.813ZM386.392 186.312H383.192L386.52 181H390.168L386.392 186.312ZM392.248 202.376C390.744 204.392 388.28 205.64 385.272 205.64C379.704 205.64 376.408 201.64 376.408 196.936C376.408 192.104 379.48 188.232 384.6 188.232C389.048 188.232 391.928 191.272 391.928 195.368C391.928 196.104 391.832 196.84 391.704 197.32H379.8C380.024 200.84 382.168 202.664 385.272 202.664C387.224 202.664 388.856 201.8 389.848 200.456L392.248 202.376ZM384.536 190.984C382.136 190.984 380.472 192.36 379.96 194.856H388.632C388.568 192.84 387.128 190.984 384.536 190.984ZM396.251 205V188.872H399.547V190.696C400.667 189.448 402.075 188.552 404.059 188.552C404.571 188.552 405.051 188.648 405.467 188.776V192.008C404.955 191.88 404.443 191.784 403.771 191.784C401.723 191.784 400.379 192.872 399.547 194.248V205H396.251ZM410.758 185.288C409.542 185.288 408.518 184.264 408.518 183.048C408.518 181.832 409.542 180.808 410.758 180.808C411.974 180.808 412.998 181.832 412.998 183.048C412.998 184.264 411.974 185.288 410.758 185.288ZM409.094 205V188.872H412.39V205H409.094ZM416.502 196.936C416.502 192.232 419.67 188.232 424.726 188.232C427.062 188.232 428.79 189.064 430.134 190.536V188.872H433.494V212.872H430.134V203.336C428.79 204.808 427.062 205.64 424.726 205.64C419.67 205.64 416.502 201.64 416.502 196.936ZM419.958 196.936C419.958 200.104 422.038 202.536 425.142 202.536C427.254 202.536 429.046 201.544 430.134 199.848V194.024C428.95 192.264 427.19 191.336 425.142 191.336C422.038 191.336 419.958 193.768 419.958 196.936ZM449.788 198.088V188.872H453.116V197.928C453.116 202.76 450.332 205.64 445.82 205.64C441.276 205.64 438.492 202.76 438.492 197.928V188.872H441.82V198.088C441.82 200.872 443.292 202.536 445.82 202.536C448.284 202.536 449.788 200.872 449.788 198.088ZM472.686 202.376C471.182 204.392 468.718 205.64 465.71 205.64C460.141 205.64 456.846 201.64 456.846 196.936C456.846 192.104 459.918 188.232 465.038 188.232C469.486 188.232 472.366 191.272 472.366 195.368C472.366 196.104 472.27 196.84 472.142 197.32H460.238C460.462 200.84 462.606 202.664 465.71 202.664C467.662 202.664 469.294 201.8 470.286 200.456L472.686 202.376ZM464.974 190.984C462.574 190.984 460.91 192.36 460.398 194.856H469.07C469.006 192.84 467.566 190.984 464.974 190.984ZM167.471 240.936C167.471 236.232 170.639 232.232 175.727 232.232C178.031 232.232 179.759 233.064 181.103 234.504V225H184.463V249H181.103V247.368C179.759 248.808 178.031 249.64 175.727 249.64C170.639 249.64 167.471 245.64 167.471 240.936ZM170.959 240.936C170.959 244.104 173.039 246.536 176.143 246.536C178.223 246.536 180.015 245.544 181.103 243.848V238.024C179.919 236.264 178.159 235.336 176.143 235.336C173.039 235.336 170.959 237.768 170.959 240.936ZM191.377 235.464H188.337L191.121 226.6H194.865L191.377 235.464ZM200.446 229.288C199.23 229.288 198.206 228.264 198.206 227.048C198.206 225.832 199.23 224.808 200.446 224.808C201.662 224.808 202.686 225.832 202.686 227.048C202.686 228.264 201.662 229.288 200.446 229.288ZM198.782 249V232.872H202.078V249H198.782ZM207.469 249V232.872H210.765V234.44C211.981 233.16 213.581 232.232 215.885 232.232C219.437 232.232 222.157 234.632 222.157 239.304V249H218.829V239.432C218.829 236.872 217.421 235.336 215.117 235.336C212.909 235.336 211.597 236.712 210.765 238.12V249H207.469ZM228.242 243.4V235.848H225.202V232.872H228.242V228.84H231.57V232.872H236.914V235.848H231.57V243.4C231.57 245.576 232.722 246.28 234.514 246.28C235.602 246.28 236.338 246.152 236.914 245.928V248.84C236.146 249.16 235.25 249.32 234.002 249.32C230.226 249.32 228.242 247.336 228.242 243.4ZM249.236 230.312H246.036L249.364 225H253.012L249.236 230.312ZM255.092 246.376C253.588 248.392 251.124 249.64 248.116 249.64C242.548 249.64 239.252 245.64 239.252 240.936C239.252 236.104 242.324 232.232 247.444 232.232C251.892 232.232 254.772 235.272 254.772 239.368C254.772 240.104 254.676 240.84 254.548 241.32H242.644C242.868 244.84 245.012 246.664 248.116 246.664C250.068 246.664 251.7 245.8 252.692 244.456L255.092 246.376ZM247.38 234.984C244.98 234.984 243.316 236.36 242.804 238.856H251.476C251.412 236.84 249.972 234.984 247.38 234.984ZM259.094 249V232.872H262.39V234.696C263.51 233.448 264.918 232.552 266.902 232.552C267.414 232.552 267.894 232.648 268.31 232.776V236.008C267.798 235.88 267.286 235.784 266.614 235.784C264.566 235.784 263.222 236.872 262.39 238.248V249H259.094ZM275.542 230.312H272.598L275.926 225H280.278L283.606 230.312H280.662L278.102 226.504L275.542 230.312ZM285.654 246.376C284.15 248.392 281.686 249.64 278.678 249.64C273.11 249.64 269.814 245.64 269.814 240.936C269.814 236.104 272.886 232.232 278.006 232.232C282.454 232.232 285.334 235.272 285.334 239.368C285.334 240.104 285.238 240.84 285.11 241.32H273.206C273.43 244.84 275.574 246.664 278.678 246.664C280.63 246.664 282.262 245.8 283.254 244.456L285.654 246.376ZM277.942 234.984C275.542 234.984 273.878 236.36 273.366 238.856H282.038C281.974 236.84 280.534 234.984 277.942 234.984ZM290.554 243.4V235.848H287.514V232.872H290.554V228.84H293.882V232.872H299.226V235.848H293.882V243.4C293.882 245.576 295.034 246.28 296.826 246.28C297.914 246.28 298.65 246.152 299.226 245.928V248.84C298.458 249.16 297.562 249.32 296.314 249.32C292.538 249.32 290.554 247.336 290.554 243.4ZM310.054 251.88C310.054 250.248 310.854 248.968 312.358 247.848C311.654 247.24 311.302 246.376 311.302 245.544C311.302 244.264 311.91 243.24 313.158 242.376C311.75 241.32 310.95 239.688 310.95 237.896C310.95 234.792 313.35 232.232 317.286 232.232C318.502 232.232 319.558 232.456 320.454 232.872H326.406V235.688H323.238C323.526 236.36 323.686 237.128 323.686 237.896C323.686 241.032 321.286 243.624 317.286 243.624C316.582 243.624 315.942 243.528 315.334 243.4C314.822 243.816 314.534 244.296 314.534 244.776C314.534 245.448 314.886 245.832 315.75 245.832H320.134C324.294 245.832 326.374 247.976 326.374 250.888C326.374 254.376 322.982 257 318.086 257C313.126 257 310.054 255.176 310.054 251.88ZM317.318 241.096C319.398 241.096 320.614 239.72 320.614 237.896C320.614 236.104 319.398 234.76 317.318 234.76C315.238 234.76 314.022 236.104 314.022 237.896C314.022 239.72 315.238 241.096 317.318 241.096ZM313.19 251.432C313.19 253.224 314.982 254.312 318.022 254.312C321.222 254.312 323.078 253.064 323.078 251.176C323.078 249.8 322.278 248.712 319.814 248.712H314.694C313.798 249.416 313.19 250.28 313.19 251.432ZM337.548 230.312H334.348L337.676 225H341.324L337.548 230.312ZM343.404 246.376C341.9 248.392 339.436 249.64 336.428 249.64C330.86 249.64 327.564 245.64 327.564 240.936C327.564 236.104 330.636 232.232 335.756 232.232C340.204 232.232 343.084 235.272 343.084 239.368C343.084 240.104 342.988 240.84 342.86 241.32H330.956C331.18 244.84 333.324 246.664 336.428 246.664C338.38 246.664 340.012 245.8 341.004 244.456L343.404 246.376ZM335.692 234.984C333.292 234.984 331.628 236.36 331.116 238.856H339.788C339.724 236.84 338.284 234.984 335.692 234.984ZM347.407 249V232.872H350.703V234.44C351.919 233.16 353.519 232.232 355.823 232.232C359.375 232.232 362.095 234.632 362.095 239.304V249H358.767V239.432C358.767 236.872 357.359 235.336 355.055 235.336C352.847 235.336 351.535 236.712 350.703 238.12V249H347.407ZM375.923 230.312H372.723L376.051 225H379.699L375.923 230.312ZM381.779 246.376C380.275 248.392 377.811 249.64 374.803 249.64C369.235 249.64 365.939 245.64 365.939 240.936C365.939 236.104 369.011 232.232 374.131 232.232C378.579 232.232 381.459 235.272 381.459 239.368C381.459 240.104 381.363 240.84 381.235 241.32H369.331C369.555 244.84 371.699 246.664 374.803 246.664C376.755 246.664 378.387 245.8 379.379 244.456L381.779 246.376ZM374.067 234.984C371.667 234.984 370.003 236.36 369.491 238.856H378.163C378.099 236.84 376.659 234.984 374.067 234.984ZM385.782 249V232.872H389.078V234.696C390.198 233.448 391.606 232.552 393.59 232.552C394.102 232.552 394.582 232.648 394.998 232.776V236.008C394.486 235.88 393.974 235.784 393.302 235.784C391.254 235.784 389.91 236.872 389.078 238.248V249H385.782ZM402.324 249.48C399.124 249.48 396.948 247.656 396.948 244.808C396.948 242.376 398.836 240.616 402.26 240.04L407.476 239.176V238.344C407.476 236.36 406.004 235.144 403.924 235.144C402.164 235.144 400.788 235.944 399.86 237.256L397.396 235.368C398.836 233.448 401.14 232.232 404.02 232.232C408.372 232.232 410.772 234.792 410.772 238.344V249H407.476V247.176C406.324 248.584 404.308 249.48 402.324 249.48ZM400.276 244.68C400.276 245.928 401.268 246.792 402.932 246.792C404.948 246.792 406.516 245.832 407.476 244.296V241.512L403.124 242.248C401.108 242.6 400.276 243.464 400.276 244.68ZM415.938 249V225H419.234V249H415.938Z" fill="#161616"/>
</svg>
