<svg id="Calque_1" viewBox="0 0 760.026 702.555" version="1.1" width="760.026" height="702.555" xmlns:xlink="http://www.w3.org/1999/xlink" xmlns="http://www.w3.org/2000/svg"><defs id="defs10"><linearGradient id="Dégradé_sans_nom_6" x1="726.93" y1="322.55" x2="1078.47" y2="590.04" gradientUnits="userSpaceOnUse"><stop offset="0" stop-color="#dc000f" id="stop4"/><stop offset="1" stop-color="#f4849a" id="stop6"/></linearGradient><linearGradient id="Dégradé_sans_nom_6-2" x1="1087.46" y1="187.07" x2="1339.86" y2="187.07" xlink:href="#D%C3%A9grad%C3%A9_sans_nom_6" gradientTransform="translate(-579.829 -.49)"/><linearGradient xlink:href="#Dégradé_sans_nom_6" id="linearGradient856" gradientUnits="userSpaceOnUse" x1="726.93" y1="322.55" x2="1078.47" y2="590.04" gradientTransform="translate(-579.829 -.49)"/><style id="style2">.cls-1{fill:none;stroke:#fff;stroke-linecap:round;stroke-miterlimit:10;stroke-width:12.4px}.cls-5,.cls-8{stroke-width:0}.cls-5{fill:#0c008a}.cls-8{fill:#fcbcc1}</style></defs><path d="M65.901 242.28h441.73v373.01H67.691c-.99 0-1.8-.81-1.8-1.8V242.28z" id="path12" style="stroke-width:0;fill:url(#linearGradient856)"/><path d="M507.631 242.28h199.02v370.88c0 1.17-.95 2.13-2.13 2.13h-196.89z" id="path14" style="stroke-width:0;fill:#dc000f"/><path d="M65.901 242.28 15.631 137.4c-1.45-3.02.75-6.52 4.1-6.52h176.23c2.11 0 4.04 1.17 5.02 3.04l56.66 108.36z" id="path16" style="stroke-width:0;fill:#f4849a"/><path class="cls-8" d="m507.631 242.28-66.48 152.19c-.9 2.06-2.94 3.4-5.19 3.4H5.671c-4.09 0-6.84-4.21-5.18-7.96l65.39-147.63h441.73z" id="path18"/><path class="cls-5" d="M307.341 209.39h61.96a3.53 3.53 0 0 1 3.53 3.53v29.36h-69.01v-29.36a3.53 3.53 0 0 1 3.53-3.53z" id="path20"/><path d="M332.811.01h11.07c2.84 0 5.47 1.48 6.95 3.91l23.57 38.87a8.12 8.12 0 0 1-.89 9.62l-16.49 18.47a8.1 8.1 0 0 0-2.06 5.41v133.03h-31.91V76.71c0-2.12-.83-4.16-2.32-5.68l-17.22-17.6a8.13 8.13 0 0 1-1.18-9.83l23.51-39.62a8.12 8.12 0 0 1 6.99-3.98z" id="path22" style="stroke-width:0;fill:#9b9aff"/><path class="cls-5" d="m125.401 45.21 29.39 50.15c.98 1.68 1.18 3.71.54 5.55l-8.68 24.85a6.64 6.64 0 0 1-7 4.41l-27.67-3.06a6.64 6.64 0 0 1-5.11-3.44l-26.5-49.01c-.89-1.65-3.27-1.67-4.17-.03-5.67 10.31-19.22 40.93-1.46 72.22 15.41 27.14 42.08 33.82 59.35 35.1 10.98.81 20.86 6.96 26.52 16.41l26.4 44.12h54.57l-41.16-67.46c-5.34-8.76-6.36-19.44-2.98-29.13 5.09-14.57 9.55-38.73-3.16-63.49-16.56-32.26-53.57-39.28-66.57-40.78-1.95-.22-3.3 1.88-2.31 3.57z" id="path24"/><path class="cls-5" d="M550.461 42.33c-34.07 1.23-64.19 28.47-64.19 62.57 0 12.14 2.11 19.73 4.9 25.61 4.83 10.18 4.34 22.07-1.72 31.57l-51.13 80.2h69.64l30.79-52.27c5.09-8.64 14.03-14.12 23.98-15.28 33.49-3.9 56.98-35.34 56.98-65.66 0-37.71-31.25-68.12-69.26-66.74zm26.17 83.27-20.77 11.9a6.08 6.08 0 0 1-5.89.09l-22.64-12.03a6.11 6.11 0 0 1-3.24-5.39v-27.2c0-2.21 1.19-4.24 3.12-5.32l21.46-12.03a6.09 6.09 0 0 1 6.32.22l21.95 14.36a6.12 6.12 0 0 1 2.76 5.11v25.01a6.08 6.08 0 0 1-3.07 5.29z" id="path26"/><path d="m507.631 242.28 54.26-108.27a5.66 5.66 0 0 1 5.06-3.13h187.14c4.43 0 7.3 4.69 5.27 8.63l-52.71 102.77z" id="path28" style="stroke-width:0;fill:url(#D%C3%A9grad%C3%A9_sans_nom_6-2)"/><path class="cls-1" id="line30" d="M95.411 539.73h67.49"/><path class="cls-1" id="line32" d="M95.411 564.47h67.49"/><rect x="91.331" y="501.03" width="19.78" height="19.78" rx="1.04" ry="1.04" id="rect34" style="stroke-width:0;fill:#fff"/><path class="cls-8" d="m607.221 650.73 7.36-17.54c1.58-3.77-.19-8.11-3.96-9.69l-15.54-6.52c-3-1.26-4.84-4.34-4.5-7.58.62-5.91.56-11.81-.14-17.6a7.42 7.42 0 0 1 4.55-7.75l14.98-6.12a7.4 7.4 0 0 0 4.05-9.66l-7.2-17.61a7.4 7.4 0 0 0-9.66-4.05l-15.65 6.4c-3 1.22-6.45.37-8.5-2.13a78.5 78.5 0 0 0-11.37-11.32c-2.56-2.08-3.46-5.59-2.18-8.63l5.68-13.53c1.58-3.77-.19-8.11-3.96-9.69l-17.54-7.36c-3.77-1.58-8.11.19-9.69 3.96l-5.68 13.53a7.4 7.4 0 0 1-7.66 4.49c-4.91-.56-9.83-.65-14.68-.3a7.39 7.39 0 0 1-7.37-4.58l-4.98-12.19a7.4 7.4 0 0 0-9.66-4.05l-17.61 7.2a7.4 7.4 0 0 0-4.05 9.66l4.39 10.75a7.4 7.4 0 0 1-2.43 8.74 78.8 78.8 0 0 0-13.77 13.08c-2.07 2.5-5.55 3.33-8.54 2.08l-10.46-4.39c-3.77-1.58-8.11.19-9.69 3.96l-7.36 17.54c-1.58 3.77.19 8.11 3.96 9.69l10.02 4.21a7.41 7.41 0 0 1 4.48 7.75c-.7 5.62-.78 11.24-.28 16.77.29 3.24-1.56 6.3-4.57 7.53l-10.71 4.38a7.4 7.4 0 0 0-4.05 9.66l7.2 17.61a7.4 7.4 0 0 0 9.66 4.05l10.04-4.1a7.395 7.395 0 0 1 8.66 2.33c3.72 4.83 8.02 9.25 12.84 13.16 2.55 2.06 3.42 5.57 2.15 8.6l-5.05 12.03c-1.58 3.77.19 8.11 3.96 9.69l17.54 7.36c3.77 1.58 8.11-.19 9.69-3.96l5.05-12.03a7.4 7.4 0 0 1 7.67-4.49c6.61.75 13.21.66 19.67-.22 3.36-.46 6.61 1.39 7.89 4.53l5.55 13.57a7.4 7.4 0 0 0 9.66 4.05l17.61-7.2a7.4 7.4 0 0 0 4.05-9.66l-6.13-15.01c-1.21-2.95-.4-6.36 2.04-8.42 3.91-3.31 7.52-7.03 10.77-11.12a7.38 7.38 0 0 1 8.64-2.2l15.11 6.34c3.77 1.58 8.11-.19 9.69-3.96zm-113.5-4.46c-25.58-10.18-37.57-39.53-26.45-64.71 10.48-23.73 38.19-35.06 62.3-25.46 25.58 10.18 37.57 39.53 26.45 64.71-10.48 23.73-38.19 35.06-62.3 25.46" id="path36"/></svg>
